<svg width="24" height="24" viewBox="0 0 24 24" fill="none" xmlns="http://www.w3.org/2000/svg">
<path d="M12.0001 18.25C9.11007 18.25 6.75007 15.89 6.75007 13V6.81L8.47007 8.53C8.62007 8.68 8.81007 8.75 9.00007 8.75C9.19007 8.75 9.38007 8.68 9.53007 8.53C9.82007 8.24 9.82007 7.76 9.53007 7.47L6.53007 4.47C6.46007 4.4 6.38007 4.35 6.29007 4.31C6.11007 4.23 5.90007 4.23 5.72007 4.31C5.63007 4.35 5.55007 4.4 5.48007 4.47L2.48007 7.47C2.19007 7.76 2.19007 8.24 2.48007 8.53C2.77007 8.82 3.25007 8.82 3.54007 8.53L5.26007 6.81V13C5.26007 16.72 8.29007 19.75 12.0101 19.75C12.4201 19.75 12.7601 19.41 12.7601 19C12.7601 18.59 12.4201 18.25 12.0101 18.25H12.0001Z" fill="black"/>
<path d="M21.5301 15.47C21.2401 15.18 20.7601 15.18 20.4701 15.47L18.7501 17.19V11C18.7501 7.28 15.7201 4.25 12.0001 4.25C11.5901 4.25 11.2501 4.59 11.2501 5C11.2501 5.41 11.5901 5.75 12.0001 5.75C14.8901 5.75 17.2501 8.11 17.2501 11V17.19L15.5301 15.47C15.2401 15.18 14.7601 15.18 14.4701 15.47C14.1801 15.76 14.1801 16.24 14.4701 16.53L17.4701 19.53C17.5401 19.6 17.6201 19.65 17.7101 19.69C17.8001 19.73 17.9001 19.75 18.0001 19.75C18.1001 19.75 18.2001 19.73 18.2901 19.69C18.3801 19.65 18.4601 19.6 18.5301 19.53L21.5301 16.53C21.8201 16.24 21.8201 15.76 21.5301 15.47Z" fill="black"/>
</svg>
