<svg width="24" height="24" viewBox="0 0 24 24" fill="none" xmlns="http://www.w3.org/2000/svg">
<path d="M2.31 8.28945C2.35 8.37945 2.4 8.45945 2.47 8.52945L5.47 11.5295C5.62 11.6795 5.81 11.7495 6 11.7495C6.19 11.7495 6.38 11.6795 6.53 11.5295C6.82 11.2395 6.82 10.7595 6.53 10.4695L4.81 8.74945H21C21.41 8.74945 21.75 8.40945 21.75 7.99945C21.75 7.58945 21.41 7.24945 21 7.24945H4.81L6.53 5.52945C6.82 5.23945 6.82 4.75945 6.53 4.46945C6.24 4.17945 5.76 4.17945 5.47 4.46945L2.47 7.46945C2.4 7.53945 2.35 7.61945 2.31 7.70945C2.23 7.88945 2.23 8.09945 2.31 8.27945V8.28945Z" fill="black"/>
<path d="M21.69 15.7095C21.65 15.6195 21.6 15.5395 21.53 15.4695L18.53 12.4695C18.24 12.1795 17.76 12.1795 17.47 12.4695C17.18 12.7595 17.18 13.2395 17.47 13.5295L19.19 15.2495H3C2.59 15.2495 2.25 15.5895 2.25 15.9995C2.25 16.4095 2.59 16.7495 3 16.7495H19.19L17.47 18.4695C17.18 18.7595 17.18 19.2395 17.47 19.5295C17.62 19.6795 17.81 19.7495 18 19.7495C18.19 19.7495 18.38 19.6795 18.53 19.5295L21.53 16.5295C21.6 16.4595 21.65 16.3795 21.69 16.2895C21.77 16.1095 21.77 15.8995 21.69 15.7195V15.7095Z" fill="black"/>
</svg>
