<svg width="24" height="24" viewBox="0 0 24 24" fill="none" xmlns="http://www.w3.org/2000/svg">
<path d="M17.26 7.14066C16.87 6.99066 16.44 7.19066 16.3 7.58066C16.16 7.97066 16.35 8.40066 16.74 8.54066C18.91 9.35066 20.25 10.6707 20.25 12.0007C20.25 14.3007 16.47 16.2507 12 16.2507C7.53 16.2507 3.75 14.3007 3.75 12.0007C3.75 10.0207 6.53 8.32066 10.14 7.87066L8.47 9.54066C8.18 9.83066 8.18 10.3107 8.47 10.6007C8.62 10.7507 8.81 10.8207 9 10.8207C9.19 10.8207 9.38 10.7507 9.53 10.6007L13.07 7.06066C13.21 6.92066 13.29 6.73066 13.29 6.53066C13.29 6.33066 13.21 6.14066 13.07 6.00066L9.53 2.46066C9.24 2.17066 8.76 2.17066 8.47 2.46066C8.18 2.75066 8.18 3.23066 8.47 3.52066L11.21 6.26066C6.13 6.49066 2.25 8.92066 2.25 11.9907C2.25 15.2107 6.53 17.7407 12 17.7407C17.47 17.7407 21.75 15.2107 21.75 11.9907C21.75 9.99066 20.07 8.17066 17.26 7.13066V7.14066Z" fill="black"/>
</svg>
