<svg width="24" height="24" viewBox="0 0 24 24" fill="none" xmlns="http://www.w3.org/2000/svg">
<path d="M11.0001 3.75H12.0001C12.4101 3.75 12.7501 3.41 12.7501 3C12.7501 2.59 12.4101 2.25 12.0001 2.25H11.0001C8.38006 2.25 6.25006 4.38 6.25006 7V19.19L4.53006 17.47C4.24006 17.18 3.76006 17.18 3.47006 17.47C3.18006 17.76 3.18006 18.24 3.47006 18.53L6.47006 21.53C6.54006 21.6 6.62006 21.65 6.71006 21.69C6.80006 21.73 6.90006 21.75 7.00006 21.75C7.10006 21.75 7.20006 21.73 7.29006 21.69C7.38006 21.65 7.46006 21.6 7.53006 21.53L10.5301 18.53C10.8201 18.24 10.8201 17.76 10.5301 17.47C10.2401 17.18 9.76006 17.18 9.47006 17.47L7.75006 19.19V7C7.75006 5.21 9.21006 3.75 11.0001 3.75Z" fill="black"/>
<path d="M20.5301 5.47L17.5301 2.47C17.4601 2.4 17.3801 2.35 17.2901 2.31C17.1101 2.23 16.9001 2.23 16.7201 2.31C16.6301 2.35 16.5501 2.4 16.4801 2.47L13.4801 5.47C13.1901 5.76 13.1901 6.24 13.4801 6.53C13.7701 6.82 14.2501 6.82 14.5401 6.53L16.2601 4.81V17C16.2601 18.79 14.8001 20.25 13.0101 20.25H12.0101C11.6001 20.25 11.2601 20.59 11.2601 21C11.2601 21.41 11.6001 21.75 12.0101 21.75H13.0101C15.6301 21.75 17.7601 19.62 17.7601 17V4.81L19.4801 6.53C19.6301 6.68 19.8201 6.75 20.0101 6.75C20.2001 6.75 20.3901 6.68 20.5401 6.53C20.8301 6.24 20.8301 5.76 20.5401 5.47H20.5301Z" fill="black"/>
</svg>
