<svg width="24" height="24" viewBox="0 0 24 24" fill="none" xmlns="http://www.w3.org/2000/svg">
<path d="M12.0001 20.25C10.2101 20.25 8.75007 18.79 8.75007 17V4.81L10.4701 6.53C10.6201 6.68 10.8101 6.75 11.0001 6.75C11.1901 6.75 11.3801 6.68 11.5301 6.53C11.8201 6.24 11.8201 5.76 11.5301 5.47L8.53007 2.47C8.46007 2.4 8.38007 2.35 8.29007 2.31C8.11007 2.23 7.90007 2.23 7.72007 2.31C7.63007 2.35 7.55007 2.4 7.48007 2.47L4.48007 5.47C4.19007 5.76 4.19007 6.24 4.48007 6.53C4.77007 6.82 5.25007 6.82 5.54007 6.53L7.26007 4.81V17C7.26007 19.62 9.39007 21.75 12.0101 21.75H20.0101C20.4201 21.75 20.7601 21.41 20.7601 21C20.7601 20.59 20.4201 20.25 20.0101 20.25H12.0001Z" fill="black"/>
</svg>
