<svg width="24" height="24" viewBox="0 0 24 24" fill="none" xmlns="http://www.w3.org/2000/svg">
<path d="M19.5301 5.47L16.5301 2.47C16.4601 2.4 16.3801 2.35 16.2901 2.31C16.1101 2.23 15.9001 2.23 15.7201 2.31C15.6301 2.35 15.5501 2.4 15.4801 2.47L12.4801 5.47C12.1901 5.76 12.1901 6.24 12.4801 6.53C12.7701 6.82 13.2501 6.82 13.5401 6.53L15.2601 4.81V21C15.2601 21.41 15.6001 21.75 16.0101 21.75C16.4201 21.75 16.7601 21.41 16.7601 21V4.81L18.4801 6.53C18.6301 6.68 18.8201 6.75 19.0101 6.75C19.2001 6.75 19.3901 6.68 19.5401 6.53C19.8301 6.24 19.8301 5.76 19.5401 5.47H19.5301Z" fill="black"/>
<path d="M10.4701 17.47L8.75006 19.19V3C8.75006 2.59 8.41006 2.25 8.00006 2.25C7.59006 2.25 7.25006 2.59 7.25006 3V19.19L5.53006 17.47C5.24006 17.18 4.76006 17.18 4.47006 17.47C4.18006 17.76 4.18006 18.24 4.47006 18.53L7.47006 21.53C7.54006 21.6 7.62006 21.65 7.71006 21.69C7.80006 21.73 7.90006 21.75 8.00006 21.75C8.10006 21.75 8.20006 21.73 8.29006 21.69C8.38006 21.65 8.46006 21.6 8.53006 21.53L11.5301 18.53C11.8201 18.24 11.8201 17.76 11.5301 17.47C11.2401 17.18 10.7601 17.18 10.4701 17.47Z" fill="black"/>
</svg>
