<svg width="24" height="24" viewBox="0 0 24 24" fill="none" xmlns="http://www.w3.org/2000/svg">
<path d="M21 11.2495H4.81L6.53 9.52945C6.82 9.23945 6.82 8.75945 6.53 8.46945C6.24 8.17945 5.76 8.17945 5.47 8.46945L2.47 11.4695C2.4 11.5395 2.35 11.6195 2.31 11.7095C2.23 11.8895 2.23 12.0995 2.31 12.2795C2.35 12.3695 2.4 12.4495 2.47 12.5195L5.47 15.5195C5.62 15.6695 5.81 15.7395 6 15.7395C6.19 15.7395 6.38 15.6695 6.53 15.5195C6.82 15.2295 6.82 14.7495 6.53 14.4595L4.81 12.7395H21C21.41 12.7395 21.75 12.3995 21.75 11.9895C21.75 11.5795 21.41 11.2395 21 11.2395V11.2495Z" fill="black"/>
</svg>
