<svg width="24" height="24" viewBox="0 0 24 24" fill="none" xmlns="http://www.w3.org/2000/svg">
<path d="M17.47 11.5302C17.62 11.6802 17.81 11.7502 18 11.7502C18.19 11.7502 18.38 11.6802 18.53 11.5302L21.53 8.5302C21.6 8.4602 21.65 8.3802 21.69 8.2902C21.77 8.1102 21.77 7.9002 21.69 7.7202C21.65 7.6302 21.6 7.5502 21.53 7.4802L18.53 4.4802C18.24 4.1902 17.76 4.1902 17.47 4.4802C17.18 4.7702 17.18 5.2502 17.47 5.5402L19.19 7.2602H9C5.28 7.2602 2.25 10.2902 2.25 14.0102V15.0102C2.25 18.7302 5.28 21.7602 9 21.7602H20C20.41 21.7602 20.75 21.4302 20.75 21.0102C20.75 20.5902 20.41 20.2602 20 20.2602H9C6.1 20.2602 3.75 17.9002 3.75 15.0102V14.0102C3.75 11.1202 6.1 8.7602 9 8.7602H19.19L17.47 10.4802C17.18 10.7702 17.18 11.2502 17.47 11.5402V11.5302Z" fill="black"/>
</svg>
