<svg width="24" height="24" viewBox="0 0 24 24" fill="none" xmlns="http://www.w3.org/2000/svg">
<path d="M14.4701 17.47L12.7501 19.19V4.81L14.4701 6.53C14.6201 6.68 14.8101 6.75 15.0001 6.75C15.1901 6.75 15.3801 6.68 15.5301 6.53C15.8201 6.24 15.8201 5.76 15.5301 5.47L12.5301 2.47C12.4601 2.4 12.3801 2.35 12.2901 2.31C12.1101 2.23 11.9001 2.23 11.7201 2.31C11.6301 2.35 11.5501 2.4 11.4801 2.47L8.48007 5.47C8.19007 5.76 8.19007 6.24 8.48007 6.53C8.77007 6.82 9.25007 6.82 9.54007 6.53L11.2601 4.81V19.19L9.54007 17.47C9.25007 17.18 8.77007 17.18 8.48007 17.47C8.19007 17.76 8.19007 18.24 8.48007 18.53L11.4801 21.53C11.5501 21.6 11.6301 21.65 11.7201 21.69C11.8101 21.73 11.9101 21.75 12.0101 21.75C12.1101 21.75 12.2001 21.73 12.3001 21.69C12.3901 21.65 12.4701 21.6 12.5401 21.53L15.5401 18.53C15.8301 18.24 15.8301 17.76 15.5401 17.47C15.2501 17.18 14.7701 17.18 14.4801 17.47H14.4701Z" fill="black"/>
</svg>
