<svg width="24" height="24" viewBox="0 0 24 24" fill="none" xmlns="http://www.w3.org/2000/svg">
<path d="M21.69 11.7095C21.65 11.6195 21.6 11.5395 21.53 11.4695L18.53 8.46945C18.24 8.17945 17.76 8.17945 17.47 8.46945C17.18 8.75945 17.18 9.23945 17.47 9.52945L19.19 11.2495H3C2.59 11.2495 2.25 11.5895 2.25 11.9995C2.25 12.4095 2.59 12.7495 3 12.7495H19.19L17.47 14.4695C17.18 14.7595 17.18 15.2395 17.47 15.5295C17.62 15.6795 17.81 15.7495 18 15.7495C18.19 15.7495 18.38 15.6795 18.53 15.5295L21.53 12.5295C21.6 12.4595 21.65 12.3795 21.69 12.2895C21.77 12.1095 21.77 11.8995 21.69 11.7195V11.7095Z" fill="black"/>
</svg>
