<svg width="24" height="24" viewBox="0 0 24 24" fill="none" xmlns="http://www.w3.org/2000/svg">
<path d="M15.5301 17.47C15.2401 17.18 14.7601 17.18 14.4701 17.47L12.7501 19.19V3C12.7501 2.59 12.4101 2.25 12.0001 2.25C11.5901 2.25 11.2501 2.59 11.2501 3V19.19L9.53006 17.47C9.24006 17.18 8.76006 17.18 8.47006 17.47C8.18006 17.76 8.18006 18.24 8.47006 18.53L11.4701 21.53C11.5401 21.6 11.6201 21.65 11.7101 21.69C11.8001 21.73 11.9001 21.75 12.0001 21.75C12.1001 21.75 12.1901 21.73 12.2901 21.69C12.3801 21.65 12.4601 21.6 12.5301 21.53L15.5301 18.53C15.8201 18.24 15.8201 17.76 15.5301 17.47Z" fill="black"/>
</svg>
