<svg width="24" height="24" viewBox="0 0 24 24" fill="none" xmlns="http://www.w3.org/2000/svg">
<path d="M18.53 13.4695C18.24 13.1795 17.76 13.1795 17.47 13.4695C17.18 13.7595 17.18 14.2395 17.47 14.5295L19.19 16.2495H19C16.69 16.2495 14.53 15.2095 13.09 13.4095L11.96 11.9995L13.09 10.5895C14.54 8.77945 16.69 7.74945 19 7.74945H19.19L17.47 9.46945C17.18 9.75945 17.18 10.2395 17.47 10.5295C17.62 10.6795 17.81 10.7495 18 10.7495C18.19 10.7495 18.38 10.6795 18.53 10.5295L21.53 7.52945C21.82 7.23945 21.82 6.75945 21.53 6.46945L18.53 3.46945C18.24 3.17945 17.76 3.17945 17.47 3.46945C17.18 3.75945 17.18 4.23945 17.47 4.52945L19.19 6.24945H19C16.23 6.24945 13.65 7.48945 11.92 9.64945L11 10.7895L10.08 9.64945C8.35 7.48945 5.77 6.24945 3 6.24945C2.59 6.24945 2.25 6.58945 2.25 6.99945C2.25 7.40945 2.59 7.74945 3 7.74945C5.31 7.74945 7.47 8.78945 8.91 10.5895L10.04 11.9995L8.91 13.4095C7.46 15.2195 5.31 16.2495 3 16.2495C2.59 16.2495 2.25 16.5895 2.25 16.9995C2.25 17.4095 2.59 17.7495 3 17.7495C5.77 17.7495 8.35 16.5095 10.08 14.3495L11 13.2095L11.92 14.3495C13.65 16.5095 16.23 17.7495 19 17.7495H19.19L17.47 19.4695C17.18 19.7595 17.18 20.2395 17.47 20.5295C17.62 20.6795 17.81 20.7495 18 20.7495C18.19 20.7495 18.38 20.6795 18.53 20.5295L21.53 17.5295C21.82 17.2395 21.82 16.7595 21.53 16.4695L18.53 13.4695Z" fill="black"/>
</svg>
