<svg width="24" height="24" viewBox="0 0 24 24" fill="none" xmlns="http://www.w3.org/2000/svg">
<path d="M18.7501 13.76C18.7501 13.35 18.4101 13.01 18.0001 13.01C17.5901 13.01 17.2501 13.35 17.2501 13.76V16.19L5.80008 4.73996C5.51008 4.44996 5.03008 4.44996 4.74008 4.73996C4.45008 5.02996 4.45008 5.50996 4.74008 5.79996L16.1901 17.25H13.7601C13.3501 17.25 13.0101 17.59 13.0101 18C13.0101 18.41 13.3501 18.75 13.7601 18.75H18.0001C18.1001 18.75 18.2001 18.73 18.2901 18.69C18.4701 18.61 18.6201 18.47 18.7001 18.28C18.7401 18.19 18.7601 18.09 18.7601 17.99V13.75L18.7501 13.76Z" fill="black"/>
</svg>
