<svg width="24" height="24" viewBox="0 0 24 24" fill="none" xmlns="http://www.w3.org/2000/svg">
<path d="M18.53 17.47C18.24 17.18 17.76 17.18 17.47 17.47L15.75 19.19V7.5C15.75 4.61 13.39 2.25 10.5 2.25C7.61 2.25 5.25 4.61 5.25 7.5V14C5.25 14.41 5.59 14.75 6 14.75C6.41 14.75 6.75 14.41 6.75 14V7.5C6.75 5.43 8.43 3.75 10.5 3.75C12.57 3.75 14.25 5.43 14.25 7.5V19.19L12.53 17.47C12.24 17.18 11.76 17.18 11.47 17.47C11.18 17.76 11.18 18.24 11.47 18.53L14.47 21.53C14.54 21.6 14.62 21.65 14.71 21.69C14.8 21.73 14.9 21.75 15 21.75C15.1 21.75 15.2 21.73 15.29 21.69C15.38 21.65 15.46 21.6 15.53 21.53L18.53 18.53C18.82 18.24 18.82 17.76 18.53 17.47Z" fill="black"/>
</svg>
