<svg width="24" height="24" viewBox="0 0 24 24" fill="none" xmlns="http://www.w3.org/2000/svg">
<path d="M20.94 13.27C20.54 13.18 20.13 13.43 20.04 13.84C19.18 17.62 15.87 20.26 11.99 20.26C7.44 20.26 3.74 16.56 3.74 12.01C3.74 7.46 7.45 3.75 12 3.75C14.72 3.75 17.21 5.07 18.75 7.25H15C14.59 7.25 14.25 7.59 14.25 8C14.25 8.41 14.59 8.75 15 8.75H20C20.41 8.75 20.75 8.41 20.75 8V3C20.75 2.59 20.41 2.25 20 2.25C19.59 2.25 19.25 2.59 19.25 3V5.49C17.43 3.45 14.82 2.25 12 2.25C6.62 2.25 2.25 6.62 2.25 12C2.25 17.38 6.62 21.75 12 21.75C16.58 21.75 20.5 18.63 21.51 14.17C21.6 13.77 21.35 13.36 20.94 13.27Z" fill="black"/>
</svg>
