<svg width="24" height="24" viewBox="0 0 24 24" fill="none" xmlns="http://www.w3.org/2000/svg">
<path d="M18.6901 5.71023C18.6101 5.53023 18.4701 5.38023 18.2801 5.30023C18.1901 5.26023 18.0901 5.24023 17.9901 5.24023H13.7501C13.3401 5.24023 13.0001 5.58023 13.0001 5.99023C13.0001 6.40023 13.3401 6.74023 13.7501 6.74023H16.1801L4.74008 18.2002C4.45008 18.4902 4.45008 18.9702 4.74008 19.2602C4.89008 19.4102 5.08008 19.4802 5.27008 19.4802C5.46008 19.4802 5.65008 19.4102 5.80008 19.2602L17.2501 7.81023V10.2402C17.2501 10.6502 17.5901 10.9902 18.0001 10.9902C18.4101 10.9902 18.7501 10.6502 18.7501 10.2402V6.00023C18.7501 5.90023 18.7301 5.81023 18.6901 5.71023Z" fill="black"/>
</svg>
