<svg width="24" height="24" viewBox="0 0 24 24" fill="none" xmlns="http://www.w3.org/2000/svg">
<path d="M19.26 18.2L7.80999 6.75H10.24C10.65 6.75 10.99 6.41 10.99 6C10.99 5.59 10.65 5.25 10.24 5.25H5.99999C5.89999 5.25 5.80999 5.27 5.70999 5.31C5.52999 5.39 5.37999 5.53 5.29999 5.72C5.25999 5.81 5.23999 5.91 5.23999 6.01V10.25C5.23999 10.66 5.57999 11 5.98999 11C6.39999 11 6.73999 10.66 6.73999 10.25V7.82L18.19 19.27C18.34 19.42 18.53 19.49 18.72 19.49C18.91 19.49 19.1 19.42 19.25 19.27C19.54 18.98 19.54 18.5 19.25 18.21L19.26 18.2Z" fill="black"/>
</svg>
