<svg width="24" height="24" viewBox="0 0 24 24" fill="none" xmlns="http://www.w3.org/2000/svg">
<path d="M15.5301 5.47L12.5301 2.47C12.4601 2.4 12.3801 2.35 12.2901 2.31C12.1101 2.23 11.9001 2.23 11.7201 2.31C11.6301 2.35 11.5501 2.4 11.4801 2.47L8.48007 5.47C8.19007 5.76 8.19007 6.24 8.48007 6.53C8.77007 6.82 9.25007 6.82 9.54007 6.53L11.2601 4.81V21C11.2601 21.41 11.6001 21.75 12.0101 21.75C12.4201 21.75 12.7601 21.41 12.7601 21V4.81L14.4801 6.53C14.6301 6.68 14.8201 6.75 15.0101 6.75C15.2001 6.75 15.3901 6.68 15.5401 6.53C15.8301 6.24 15.8301 5.76 15.5401 5.47H15.5301Z" fill="black"/>
</svg>
