<svg width="24" height="24" viewBox="0 0 24 24" fill="none" xmlns="http://www.w3.org/2000/svg">
<path d="M20.75 10.46L12.84 6.13998C12.29 5.83998 11.64 5.84998 11.11 6.16998C10.57 6.48998 10.25 7.04998 10.25 7.66998V9.08998L4.84 6.13998C4.29 5.83998 3.64 5.84998 3.11 6.16998C2.57 6.48998 2.25 7.04998 2.25 7.66998V16.3C2.25 16.92 2.57 17.49 3.11 17.8C3.39 17.97 3.69 18.05 4 18.05C4.29 18.05 4.57 17.98 4.84 17.83L10.25 14.88V16.3C10.25 16.92 10.57 17.49 11.11 17.8C11.39 17.97 11.69 18.05 12 18.05C12.29 18.05 12.57 17.98 12.84 17.83L20.75 13.51C21.31 13.2 21.66 12.61 21.66 11.97C21.66 11.33 21.31 10.74 20.75 10.43V10.46ZM20.03 12.22L12.12 16.53C12.01 16.59 11.92 16.55 11.87 16.53C11.82 16.5 11.75 16.44 11.75 16.32V13.64C11.75 13.64 11.75 13.62 11.75 13.6C11.75 13.55 11.73 13.5 11.72 13.45C11.71 13.4 11.7 13.35 11.68 13.31C11.68 13.3 11.68 13.29 11.67 13.28C11.65 13.25 11.63 13.23 11.6 13.2C11.57 13.16 11.54 13.12 11.5 13.08C11.46 13.05 11.42 13.02 11.38 13C11.34 12.98 11.3 12.95 11.26 12.94C11.21 12.92 11.16 12.92 11.11 12.91C11.08 12.91 11.05 12.89 11.01 12.89C11 12.89 10.99 12.89 10.97 12.89C10.92 12.89 10.87 12.91 10.83 12.92C10.78 12.93 10.73 12.94 10.69 12.96C10.68 12.96 10.67 12.96 10.66 12.97L4.14 16.53C4.03 16.59 3.94 16.55 3.89 16.53C3.84 16.5 3.77 16.44 3.77 16.32V7.67998C3.77 7.55998 3.85 7.48998 3.89 7.46998C3.94 7.43998 4.03 7.40998 4.14 7.46998L10.66 11.03C10.66 11.03 10.68 11.03 10.69 11.04C10.74 11.06 10.78 11.07 10.84 11.08C10.89 11.09 10.93 11.11 10.98 11.11C10.99 11.11 11 11.11 11.02 11.11C11.06 11.11 11.09 11.09 11.12 11.09C11.17 11.09 11.22 11.08 11.27 11.06C11.32 11.04 11.36 11.02 11.4 10.99C11.44 10.97 11.48 10.94 11.52 10.91C11.56 10.88 11.59 10.83 11.62 10.79C11.64 10.76 11.67 10.74 11.68 10.71C11.68 10.7 11.68 10.69 11.69 10.68C11.71 10.64 11.72 10.59 11.73 10.54C11.74 10.49 11.76 10.44 11.76 10.39C11.76 10.38 11.76 10.37 11.76 10.35V7.66998C11.76 7.54998 11.84 7.47998 11.88 7.45998C11.93 7.42998 12.02 7.39998 12.13 7.45998L20.04 11.78C20.15 11.84 20.17 11.94 20.17 12C20.17 12.06 20.15 12.16 20.04 12.22H20.03Z" fill="black"/>
</svg>
