<svg width="24" height="24" viewBox="0 0 24 24" fill="none" xmlns="http://www.w3.org/2000/svg">
<path d="M11.2499 7.48003V2.54003C10.4099 2.50003 9.56992 2.59003 8.74992 2.80003V7.48003C9.13992 7.34003 9.55992 7.25003 9.99992 7.25003C10.4399 7.25003 10.8599 7.34003 11.2499 7.48003Z" fill="black"/>
<path d="M9.99992 13.25C11.2426 13.25 12.2499 12.2427 12.2499 11C12.2499 9.75739 11.2426 8.75003 9.99992 8.75003C8.75728 8.75003 7.74992 9.75739 7.74992 11C7.74992 12.2427 8.75728 13.25 9.99992 13.25Z" fill="black"/>
<path d="M21.0099 12.77C20.5099 12.08 20.0599 11.37 19.6599 10.63C19.2099 9.82003 18.9499 9.20003 18.7099 8.66003C18.4199 7.99003 18.1499 7.36003 17.5899 6.52003C17.0899 5.76003 16.0299 4.18003 14.3399 3.32003C13.8299 3.07003 13.2999 2.88003 12.7499 2.75003V8.46003C13.3699 9.13003 13.7499 10.01 13.7499 10.99C13.7499 13.06 12.0699 14.74 9.99992 14.74C7.92992 14.74 6.24992 13.06 6.24992 10.99C6.24992 10.01 6.62992 9.13003 7.24992 8.46003V3.33003C6.14992 3.84003 5.16992 4.58003 4.40992 5.53003C2.00992 8.56003 2.04992 13.34 4.48992 15.55C4.93992 15.95 5.46992 16.27 6.06992 16.5C6.17992 16.54 6.23992 16.63 6.23992 16.73V20.99C6.23992 21.4 6.57992 21.74 6.98992 21.74H13.9899C14.3999 21.74 14.7399 21.4 14.7399 20.99V18.99C14.7399 18.85 14.8499 18.74 14.9899 18.74H16.9899C17.9499 18.74 18.7399 17.95 18.7399 16.99V14.99C18.7399 14.85 18.8499 14.74 18.9899 14.74H19.9799C20.4499 14.74 20.8799 14.48 21.0999 14.06C21.3099 13.64 21.2799 13.15 20.9999 12.77H21.0099Z" fill="black"/>
</svg>
