<svg width="24" height="24" viewBox="0 0 24 24" fill="none" xmlns="http://www.w3.org/2000/svg">
<path d="M19 6.25H16.51C15.75 4.46 13.97 3.25 12 3.25C10.03 3.25 8.25 4.46 7.49 6.25H5C3.48 6.25 2.25 7.48 2.25 9V10.25H21.75V9C21.75 7.48 20.52 6.25 19 6.25ZM12 4.75C13.15 4.75 14.2 5.34 14.82 6.25H9.18C9.81 5.34 10.86 4.75 12 4.75Z" fill="black"/>
<path d="M2.25 17C2.25 18.52 3.48 19.75 5 19.75H19C20.52 19.75 21.75 18.52 21.75 17V11.75H2.25V17ZM18.01 15.25C18.43 15.25 18.76 15.59 18.76 16C18.76 16.41 18.43 16.75 18.01 16.75C17.59 16.75 17.26 16.41 17.26 16C17.26 15.59 17.59 15.25 18.01 15.25ZM16.01 13.25C16.43 13.25 16.76 13.59 16.76 14C16.76 14.41 16.43 14.75 16.01 14.75C15.59 14.75 15.26 14.41 15.26 14C15.26 13.59 15.59 13.25 16.01 13.25ZM14.01 15.25C14.43 15.25 14.76 15.59 14.76 16C14.76 16.41 14.43 16.75 14.01 16.75C13.59 16.75 13.26 16.41 13.26 16C13.26 15.59 13.59 15.25 14.01 15.25ZM12.01 13.25C12.43 13.25 12.76 13.59 12.76 14C12.76 14.41 12.43 14.75 12.01 14.75C11.59 14.75 11.26 14.41 11.26 14C11.26 13.59 11.59 13.25 12.01 13.25ZM10.01 15.25C10.43 15.25 10.76 15.59 10.76 16C10.76 16.41 10.43 16.75 10.01 16.75C9.59 16.75 9.26 16.41 9.26 16C9.26 15.59 9.59 15.25 10.01 15.25ZM8.01 13.25C8.43 13.25 8.76 13.59 8.76 14C8.76 14.41 8.43 14.75 8.01 14.75C7.59 14.75 7.26 14.41 7.26 14C7.26 13.59 7.59 13.25 8.01 13.25ZM6.01 15.25C6.43 15.25 6.76 15.59 6.76 16C6.76 16.41 6.43 16.75 6.01 16.75C5.59 16.75 5.26 16.41 5.26 16C5.26 15.59 5.59 15.25 6.01 15.25Z" fill="black"/>
</svg>
