<svg width="24" height="24" viewBox="0 0 24 24" fill="none" xmlns="http://www.w3.org/2000/svg">
<path d="M12 6.75C9.1 6.75 6.75 9.1 6.75 12C6.75 14.9 9.1 17.25 12 17.25C14.9 17.25 17.25 14.9 17.25 12C17.25 9.1 14.9 6.75 12 6.75ZM12.02 12.75C11.61 12.75 11.27 12.41 11.27 12C11.27 11.59 11.6 11.25 12.01 11.25H12.02C12.43 11.25 12.77 11.59 12.77 12C12.77 12.41 12.43 12.75 12.02 12.75Z" fill="black"/>
<path d="M18 2.25H6C3.93 2.25 2.25 3.93 2.25 6V18C2.25 20.07 3.93 21.75 6 21.75H18C20.07 21.75 21.75 20.07 21.75 18V6C21.75 3.93 20.07 2.25 18 2.25ZM12 18.75C8.28 18.75 5.25 15.72 5.25 12C5.25 8.28 8.28 5.25 12 5.25C15.72 5.25 18.75 8.28 18.75 12C18.75 15.72 15.72 18.75 12 18.75Z" fill="black"/>
</svg>
