<svg width="24" height="24" viewBox="0 0 24 24" fill="none" xmlns="http://www.w3.org/2000/svg">
<path d="M19 5.25H5C3.48 5.25 2.25 6.48 2.25 8V16C2.25 17.52 3.48 18.75 5 18.75H19C20.52 18.75 21.75 17.52 21.75 16V8C21.75 6.48 20.52 5.25 19 5.25ZM8.04 17.25L8.48 15.92C8.51 15.82 8.61 15.75 8.72 15.75H15.28C15.39 15.75 15.48 15.82 15.52 15.92L15.96 17.25H8.04ZM20.25 16C20.25 16.69 19.69 17.25 19 17.25H17.54L16.94 15.45C16.7 14.73 16.03 14.25 15.28 14.25H8.72C7.97 14.25 7.3 14.73 7.06 15.45L6.46 17.25H5C4.31 17.25 3.75 16.69 3.75 16V8C3.75 7.31 4.31 6.75 5 6.75H19C19.69 6.75 20.25 7.31 20.25 8V16Z" fill="black"/>
<path d="M15.5 8.25H8.5C7.26 8.25 6.25 9.26 6.25 10.5C6.25 11.74 7.26 12.75 8.5 12.75H15.5C16.74 12.75 17.75 11.74 17.75 10.5C17.75 9.26 16.74 8.25 15.5 8.25ZM15.5 11.25H8.5C8.09 11.25 7.75 10.91 7.75 10.5C7.75 10.09 8.09 9.75 8.5 9.75H15.5C15.91 9.75 16.25 10.09 16.25 10.5C16.25 10.91 15.91 11.25 15.5 11.25Z" fill="black"/>
</svg>
