<svg width="24" height="24" viewBox="0 0 24 24" fill="none" xmlns="http://www.w3.org/2000/svg">
<path d="M19 4.25H5C3.48 4.25 2.25 5.48 2.25 7V16C2.25 17.52 3.48 18.75 5 18.75H19C20.52 18.75 21.75 17.52 21.75 16V7C21.75 5.48 20.52 4.25 19 4.25ZM16.6 5.75L15.82 6.92C15.68 7.13 15.45 7.25 15.2 7.25H9.08C8.76 7.25 8.47 7.04 8.37 6.74L8.04 5.75H16.6ZM20.25 16C20.25 16.69 19.69 17.25 19 17.25H5C4.31 17.25 3.75 16.69 3.75 16V7C3.75 6.31 4.31 5.75 5 5.75H6.46L6.95 7.21C7.26 8.13 8.12 8.75 9.08 8.75H15.2C15.95 8.75 16.65 8.38 17.07 7.75L18.4 5.75H19C19.69 5.75 20.25 6.31 20.25 7V16Z" fill="black"/>
<path d="M16 10.25C14.48 10.25 13.25 11.48 13.25 13C13.25 13.45 13.37 13.87 13.56 14.25H10.43C10.62 13.87 10.74 13.45 10.74 13C10.74 11.48 9.51 10.25 7.99 10.25C6.47 10.25 5.24 11.48 5.24 13C5.24 14.52 6.47 15.75 7.99 15.75H15.99C17.51 15.75 18.74 14.52 18.74 13C18.74 11.48 17.51 10.25 15.99 10.25H16ZM6.75 13C6.75 12.31 7.31 11.75 8 11.75C8.69 11.75 9.25 12.31 9.25 13C9.25 13.69 8.69 14.25 8 14.25C7.31 14.25 6.75 13.69 6.75 13ZM16 14.25C15.31 14.25 14.75 13.69 14.75 13C14.75 12.31 15.31 11.75 16 11.75C16.69 11.75 17.25 12.31 17.25 13C17.25 13.69 16.69 14.25 16 14.25Z" fill="black"/>
</svg>
