<svg width="24" height="24" viewBox="0 0 24 24" fill="none" xmlns="http://www.w3.org/2000/svg">
<path d="M7.26 12.9499C6.75 13.4599 6.48 14.1299 6.48 14.8399C6.48 15.5499 6.76 16.2299 7.26 16.7299C7.78 17.2499 8.47 17.5099 9.15 17.5099C9.83 17.5099 10.52 17.2499 11.04 16.7299C11.55 16.2199 11.82 15.5499 11.82 14.8399C11.82 14.1299 11.54 13.4499 11.04 12.9499C10 11.9099 8.3 11.9099 7.25 12.9499H7.26ZM9.99 15.6799C9.53 16.1399 8.78 16.1399 8.32 15.6799C8.1 15.4599 7.98 15.1599 7.98 14.8499C7.98 14.5399 8.1 14.2399 8.32 14.0199C8.54 13.7999 8.85 13.6799 9.15 13.6799C9.45 13.6799 9.75 13.7899 9.98 14.0199C10.21 14.2499 10.32 14.5399 10.32 14.8499C10.32 15.1599 10.2 15.4599 9.98 15.6799H9.99Z" fill="black"/>
<path d="M21.27 4.08993L19.91 2.72993C19.26 2.07993 18.13 2.07993 17.49 2.72993L16.41 3.80993C16.09 4.12993 15.91 4.55993 15.91 5.01993V6.37993C15.91 6.56993 15.95 6.75993 16.01 6.92993L12.04 10.8999C11.75 11.1899 11.75 11.6699 12.04 11.9599C12.19 12.1099 12.38 12.1799 12.57 12.1799C12.76 12.1799 12.95 12.1099 13.1 11.9599L17.07 7.98993C17.24 8.04993 17.43 8.08993 17.62 8.08993H18.98C19.44 8.08993 19.87 7.90993 20.19 7.58993L21.27 6.50993C21.94 5.83993 21.94 4.75993 21.27 4.08993ZM20.21 5.44993L19.13 6.52993C19.13 6.52993 19.04 6.58993 18.98 6.58993H17.62C17.5 6.58993 17.41 6.48993 17.41 6.37993V5.01993C17.41 4.95993 17.43 4.90993 17.47 4.86993L18.55 3.78993C18.6 3.73993 18.66 3.72993 18.7 3.72993C18.74 3.72993 18.8 3.73993 18.85 3.78993L20.21 5.14993C20.29 5.22993 20.29 5.36993 20.21 5.44993Z" fill="black"/>
<path d="M18.36 12.6599C17.99 12.7099 17.62 12.7099 17.26 12.6599C16.7 12.5799 16.17 12.3699 15.67 12.0399C15.32 11.8099 14.86 11.9099 14.63 12.2499C14.4 12.5899 14.5 13.0599 14.84 13.2899C15.43 13.6799 16.07 13.9399 16.73 14.0799C16.24 14.3899 15.68 14.5899 15.07 14.6499C14.01 14.7599 13.14 15.4499 12.85 16.4199C12.52 17.5499 11.99 18.5899 11.28 19.5299C10.99 19.9099 10.57 20.1299 10.08 20.1599C9.57 20.1999 9.07 20.0099 8.71 19.6399L4.33 15.2599C3.97 14.8999 3.78 14.3999 3.81 13.8899C3.84 13.3999 4.07 12.9799 4.47 12.6699C5.39 11.9699 6.43 11.4499 7.56 11.1199C8.52 10.8299 9.22 9.95993 9.33 8.89993C9.39 8.28993 9.58 7.72993 9.9 7.23993C10.04 7.89993 10.3 8.53993 10.69 9.12993C10.92 9.47993 11.38 9.56993 11.73 9.33993C12.08 9.10993 12.17 8.64993 11.94 8.29993C11.61 7.79993 11.41 7.26993 11.32 6.70993C11.27 6.34993 11.27 5.97993 11.32 5.60993C11.36 5.31993 11.23 5.02993 10.98 4.86993C10.73 4.70993 10.41 4.70993 10.17 4.86993C9.55 5.27993 9.03 5.78993 8.64 6.39993C8.19 7.08993 7.92 7.87993 7.83 8.72993C7.78 9.18993 7.51 9.54993 7.13 9.65993C5.83 10.0499 4.62 10.6499 3.53 11.4799C2.82 12.0299 2.37 12.8599 2.31 13.7699C2.25 14.7099 2.6 15.6399 3.26 16.2999L7.64 20.6799C8.26 21.2999 9.09 21.6399 9.96 21.6399C10.03 21.6399 10.11 21.6399 10.18 21.6399C11.09 21.5799 11.92 21.1299 12.49 20.3899C13.3 19.3299 13.9 18.1299 14.29 16.8199C14.4 16.4399 14.77 16.1699 15.23 16.1199C16.08 16.0299 16.86 15.7599 17.56 15.3099C18.17 14.9099 18.69 14.3999 19.09 13.7799C19.25 13.5299 19.25 13.2199 19.09 12.9699C18.93 12.7199 18.65 12.5899 18.35 12.6299L18.36 12.6599Z" fill="black"/>
</svg>
