<svg width="24" height="24" viewBox="0 0 24 24" fill="none" xmlns="http://www.w3.org/2000/svg">
<path d="M13.24 13.18C12.56 12.5 11.45 12.5 10.77 13.18L7.18 16.77C6.68 17.27 6.53 18.02 6.8 18.68C7.07 19.34 7.71 19.76 8.42 19.76H15.59C16.3 19.76 16.93 19.34 17.21 18.68C17.48 18.02 17.33 17.27 16.83 16.77L13.24 13.18ZM15.82 18.1C15.8 18.16 15.74 18.25 15.59 18.25H8.42C8.27 18.25 8.21 18.15 8.19 18.1C8.17 18.04 8.14 17.93 8.24 17.83L11.83 14.24C11.83 14.24 11.94 14.17 12.01 14.17C12.08 14.17 12.14 14.19 12.19 14.24L15.78 17.83C15.88 17.93 15.86 18.04 15.83 18.1H15.82Z" fill="black"/>
<path d="M19 4.25H5C3.48 4.25 2.25 5.48 2.25 7V15C2.25 15.96 2.76 16.87 3.59 17.36C3.94 17.57 4.41 17.46 4.62 17.1C4.83 16.75 4.72 16.28 4.36 16.07C3.98 15.84 3.75 15.44 3.75 15V7C3.75 6.31 4.31 5.75 5 5.75H19C19.69 5.75 20.25 6.31 20.25 7V15C20.25 15.46 20 15.87 19.6 16.09C19.24 16.29 19.11 16.75 19.31 17.11C19.45 17.36 19.7 17.5 19.97 17.5C20.09 17.5 20.22 17.47 20.33 17.41C21.21 16.93 21.75 16 21.75 15V7C21.75 5.48 20.52 4.25 19 4.25Z" fill="black"/>
</svg>
