<svg width="24" height="24" viewBox="0 0 24 24" fill="none" xmlns="http://www.w3.org/2000/svg">
<path d="M3.25 4V5C3.25 5.96 4.04 6.75 5 6.75H6.25V2.25H5C4.04 2.25 3.25 3.04 3.25 4Z" fill="black"/>
<path d="M19.87 13.81L16.09 10.03C15.8 9.74 15.32 9.74 15.03 10.03C14.74 10.32 14.74 10.8 15.03 11.09H15.04C14.64 11.67 14.19 12.08 13.68 12.32C13.43 12.43 13.18 12.51 12.95 12.58C12.88 12.6 12.81 12.62 12.74 12.64V10.75H12.99C13.4 10.75 13.74 10.41 13.74 10C13.74 9.59 13.4 9.25 12.99 9.25H12.74V7.75H12.99C13.4 7.75 13.74 7.41 13.74 7C13.74 6.59 13.4 6.25 12.99 6.25H12.66C12.3 3.99 10.35 2.25 7.99 2.25H7.74V6.75H7.99C8.13 6.75 8.24 6.86 8.24 7V17.41C8.24 19.8 10.19 21.75 12.58 21.75C14.6 21.75 16.35 20.33 16.83 18.3C16.99 17.62 17.26 16.98 17.63 16.41C17.99 15.86 18.45 15.4 18.98 14.98C19.09 15.04 19.22 15.09 19.34 15.09C19.53 15.09 19.72 15.02 19.87 14.87C20.16 14.58 20.16 14.1 19.87 13.81Z" fill="black"/>
</svg>
