<svg width="24" height="24" viewBox="0 0 24 24" fill="none" xmlns="http://www.w3.org/2000/svg">
<path d="M15 2.25H9C7.48 2.25 6.25 3.48 6.25 5V5.25H17.75V5C17.75 3.48 16.52 2.25 15 2.25Z" fill="black"/>
<path d="M16.1 15.13C16.06 15.01 16.05 14.88 16.04 14.75H7.96C7.95 14.88 7.93 15 7.89 15.13L6.64 19.52C6.49 20.05 6.59 20.61 6.93 21.05C7.26 21.49 7.77 21.75 8.33 21.75H15.68C16.23 21.75 16.74 21.5 17.08 21.05C17.41 20.61 17.52 20.05 17.37 19.52L16.12 15.13H16.1Z" fill="black"/>
<path d="M14.75 8C14.75 8.41 14.41 8.75 14 8.75C13.59 8.75 13.25 8.41 13.25 8V6.75H10.75V8C10.75 8.41 10.41 8.75 10 8.75C9.59 8.75 9.25 8.41 9.25 8V6.75H6.25V8.88C6.25 10.41 6.7 11.89 7.6 13.25H16.41C16.41 13.25 16.43 13.2 16.45 13.18C17.3 11.9 17.75 10.42 17.75 8.88V6.75H14.75V8Z" fill="black"/>
</svg>
