<svg width="24" height="24" viewBox="0 0 24 24" fill="none" xmlns="http://www.w3.org/2000/svg">
<path d="M20.36 3.85997C19.46 2.95997 18.27 2.46997 17 2.46997C15.73 2.46997 14.54 2.95997 13.64 3.85997L12.23 5.26997C11.47 6.02997 11.02 6.99997 10.9 8.04997C10.86 8.07997 10.81 8.09997 10.78 8.13997L2.89001 17.34C2.30001 18.03 2.34001 19.07 2.98001 19.72L4.50001 21.24C4.84001 21.58 5.29001 21.75 5.74001 21.75C6.15001 21.75 6.55001 21.61 6.88001 21.33L16.08 13.45C16.08 13.45 16.14 13.37 16.17 13.33C17.22 13.2 18.19 12.75 18.95 12L20.36 10.59C21.26 9.68997 21.75 8.49997 21.75 7.22997C21.75 5.95997 21.26 4.76997 20.36 3.86997V3.85997ZM5.90001 20.19C5.80001 20.28 5.65001 20.27 5.56001 20.18L4.04001 18.66C3.95001 18.57 3.94001 18.42 4.03001 18.32L11.08 10.09C11.31 10.8 11.68 11.45 12.22 12C12.76 12.54 13.42 12.91 14.12 13.14L5.89001 20.19H5.90001ZM13.29 10.93C12.68 10.32 12.34 9.49997 12.34 8.62997C12.34 7.75997 12.68 6.94997 13.29 6.32997L13.47 6.14997L18.07 10.75L17.89 10.93C16.66 12.16 14.52 12.16 13.29 10.93ZM19.3 9.51997L19.12 9.69997L14.52 5.09997L14.7 4.91997C15.31 4.30997 16.13 3.96997 17 3.96997C17.87 3.96997 18.68 4.30997 19.3 4.91997C19.91 5.52997 20.25 6.34997 20.25 7.21997C20.25 8.08997 19.91 8.89997 19.3 9.51997Z" fill="black"/>
</svg>
