<svg width="24" height="24" viewBox="0 0 24 24" fill="none" xmlns="http://www.w3.org/2000/svg">
<path d="M21.72 7.80992L21.32 5.67992C21.22 5.14992 20.89 4.69992 20.4 4.44992C19.92 4.19992 19.36 4.18992 18.87 4.40992L8.22001 9.29992C6.83001 9.93992 5.81001 11.0699 5.29001 12.3999C5.04001 12.3099 4.78001 12.2499 4.51001 12.2499C3.27001 12.2499 2.26001 13.2599 2.26001 14.4999C2.26001 15.7399 3.27001 16.7499 4.51001 16.7499C4.77001 16.7499 5.03001 16.6899 5.27001 16.5999C5.31001 16.7099 5.35001 16.8099 5.40001 16.9199C6.03001 18.2899 7.18001 19.3399 8.64001 19.8799C9.31001 20.1299 10 20.2499 10.69 20.2499C11.49 20.2499 12.29 20.0799 13.03 19.7399C15.44 18.6299 16.78 16.0399 16.28 13.4399C16.2 12.9899 16.42 12.5099 16.84 12.2399L20.96 9.57992C21.56 9.18992 21.86 8.48992 21.73 7.78992L21.72 7.80992ZM4.50001 15.2499C4.09001 15.2499 3.75001 14.9099 3.75001 14.4999C3.75001 14.0899 4.09001 13.7499 4.50001 13.7499C4.65001 13.7499 4.79001 13.8099 4.91001 13.8899C4.86001 14.2899 4.86001 14.6999 4.91001 15.1099C4.79001 15.1899 4.65001 15.2499 4.51001 15.2499H4.50001ZM20.14 8.33992L16.02 10.9999C15.08 11.6099 14.6 12.6799 14.8 13.7399C15.17 15.6599 14.18 17.5799 12.4 18.3899C11.4 18.8499 10.24 18.8899 9.16001 18.4799C8.08001 18.0799 7.23001 17.2999 6.76001 16.2999C5.78001 14.1699 6.72001 11.6399 8.85001 10.6699L13.62 8.47992L13.72 8.70992C13.85 8.97992 14.12 9.14992 14.4 9.14992C14.51 9.14992 14.61 9.12992 14.71 9.07992C15.09 8.90992 15.25 8.45992 15.08 8.08992L14.98 7.85992L19.5 5.78992C19.6 5.74992 19.68 5.76992 19.72 5.78992C19.76 5.80992 19.83 5.85992 19.85 5.96992L20.25 8.09992C20.27 8.19992 20.23 8.29992 20.14 8.34992V8.33992Z" fill="black"/>
<path d="M9.47001 12.0299C8.09001 12.6599 7.49001 14.2999 8.12001 15.6799C8.58001 16.6899 9.58001 17.2799 10.62 17.2799C11 17.2799 11.39 17.1999 11.76 17.0299C12.43 16.7199 12.94 16.1799 13.19 15.4899C13.45 14.7999 13.42 14.0499 13.11 13.3899C12.48 12.0099 10.84 11.4099 9.46001 12.0399L9.47001 12.0299ZM11.79 14.9599C11.67 15.2699 11.44 15.5199 11.14 15.6599C10.51 15.9499 9.77001 15.6699 9.48001 15.0499C9.34001 14.7499 9.33001 14.4099 9.44001 14.0899C9.55001 13.7699 9.79001 13.5299 10.09 13.3899C10.26 13.3099 10.43 13.2799 10.61 13.2799C10.76 13.2799 10.9 13.3099 11.05 13.3599C11.36 13.4799 11.61 13.7099 11.75 14.0099C11.89 14.3099 11.9 14.6499 11.79 14.9699V14.9599Z" fill="black"/>
</svg>
