<svg width="24" height="24" viewBox="0 0 24 24" fill="none" xmlns="http://www.w3.org/2000/svg">
<path d="M6.75 6.37V3C6.75 2.59 6.41 2.25 6 2.25C5.59 2.25 5.25 2.59 5.25 3V6.37C4.1 6.7 3.25 7.75 3.25 9C3.25 10.25 4.1 11.3 5.25 11.63V21C5.25 21.41 5.59 21.75 6 21.75C6.41 21.75 6.75 21.41 6.75 21V11.63C7.9 11.3 8.75 10.25 8.75 9C8.75 7.75 7.9 6.7 6.75 6.37ZM6 10.25C5.31 10.25 4.75 9.69 4.75 9C4.75 8.31 5.31 7.75 6 7.75C6.69 7.75 7.25 8.31 7.25 9C7.25 9.69 6.69 10.25 6 10.25Z" fill="black"/>
<path d="M12.75 12.37V3C12.75 2.59 12.41 2.25 12 2.25C11.59 2.25 11.25 2.59 11.25 3V12.37C10.1 12.7 9.25 13.75 9.25 15C9.25 16.25 10.1 17.3 11.25 17.63V21C11.25 21.41 11.59 21.75 12 21.75C12.41 21.75 12.75 21.41 12.75 21V17.63C13.9 17.3 14.75 16.25 14.75 15C14.75 13.75 13.9 12.7 12.75 12.37ZM12 16.25C11.31 16.25 10.75 15.69 10.75 15C10.75 14.31 11.31 13.75 12 13.75C12.69 13.75 13.25 14.31 13.25 15C13.25 15.69 12.69 16.25 12 16.25Z" fill="black"/>
<path d="M18.75 6.37V3C18.75 2.59 18.41 2.25 18 2.25C17.59 2.25 17.25 2.59 17.25 3V6.37C16.1 6.7 15.25 7.75 15.25 9C15.25 10.52 16.48 11.75 18 11.75C19.52 11.75 20.75 10.52 20.75 9C20.75 7.75 19.9 6.7 18.75 6.37ZM18 10.25C17.31 10.25 16.75 9.69 16.75 9C16.75 8.31 17.31 7.75 18 7.75C18.69 7.75 19.25 8.31 19.25 9C19.25 9.69 18.69 10.25 18 10.25Z" fill="black"/>
<path d="M18 14.25C17.59 14.25 17.25 14.59 17.25 15V21C17.25 21.41 17.59 21.75 18 21.75C18.41 21.75 18.75 21.41 18.75 21V15C18.75 14.59 18.41 14.25 18 14.25Z" fill="black"/>
</svg>
