<svg width="24" height="24" viewBox="0 0 24 24" fill="none" xmlns="http://www.w3.org/2000/svg">
<path d="M7.5 2.25C5.71 2.25 4.25 3.71 4.25 5.5V18.5C4.25 20.29 5.71 21.75 7.5 21.75C9.29 21.75 10.75 20.29 10.75 18.5V5.5C10.75 3.71 9.29 2.25 7.5 2.25ZM9.25 18.5C9.25 19.46 8.46 20.25 7.5 20.25C6.54 20.25 5.75 19.46 5.75 18.5V5.5C5.75 4.54 6.54 3.75 7.5 3.75C8.46 3.75 9.25 4.54 9.25 5.5V18.5Z" fill="black"/>
<path d="M16.5 2.25C14.71 2.25 13.25 3.71 13.25 5.5V18.5C13.25 20.29 14.71 21.75 16.5 21.75C18.29 21.75 19.75 20.29 19.75 18.5V5.5C19.75 3.71 18.29 2.25 16.5 2.25ZM18.25 18.5C18.25 19.46 17.46 20.25 16.5 20.25C15.54 20.25 14.75 19.46 14.75 18.5V5.5C14.75 4.54 15.54 3.75 16.5 3.75C17.46 3.75 18.25 4.54 18.25 5.5V18.5Z" fill="black"/>
</svg>
