<svg width="24" height="24" viewBox="0 0 24 24" fill="none" xmlns="http://www.w3.org/2000/svg">
<path d="M21 11.25H19.54L18.71 8.76C18.61 8.46 18.33 8.26 18.02 8.25C17.72 8.23 17.42 8.43 17.3 8.72L16.06 11.82L14.71 7.76C14.6 7.44 14.3 7.24 13.96 7.25C13.62 7.27 13.34 7.51 13.27 7.84L12.04 13.37L10.74 6.85C10.67 6.51 10.37 6.26 10.02 6.25C9.64999 6.25 9.35999 6.48 9.26999 6.82L8.13999 11.32L7.72999 8.88C7.67999 8.58 7.44999 8.33 7.14999 8.27C6.84999 8.21 6.53999 8.33 6.36999 8.59L4.58999 11.26H2.98999C2.57999 11.26 2.23999 11.6 2.23999 12.01C2.23999 12.42 2.57999 12.76 2.98999 12.76H4.98999C5.23999 12.76 5.46999 12.63 5.60999 12.43L6.55999 11.01L7.24999 15.14C7.30999 15.49 7.59999 15.75 7.95999 15.77C8.29999 15.78 8.62999 15.55 8.71999 15.2L9.90999 10.44L11.26 17.17C11.33 17.52 11.63 17.77 11.99 17.77C12.34 17.77 12.65 17.53 12.72 17.18L14.13 10.82L15.27 14.25C15.37 14.55 15.65 14.75 15.96 14.76C16.28 14.78 16.56 14.58 16.68 14.29L17.92 11.19L18.27 12.25C18.37 12.56 18.66 12.76 18.98 12.76H20.98C21.39 12.76 21.73 12.42 21.73 12.01C21.73 11.6 21.39 11.26 20.98 11.26L21 11.25Z" fill="black"/>
</svg>
