<svg width="24" height="24" viewBox="0 0 24 24" fill="none" xmlns="http://www.w3.org/2000/svg">
<path d="M9 3.25H8C4.83 3.25 2.25 5.83 2.25 9V12.5C2.25 13.28 2.65 13.96 3.25 14.37V21C3.25 21.41 3.59 21.75 4 21.75C4.41 21.75 4.75 21.41 4.75 21V14.72C5.87 14.59 6.75 13.65 6.75 12.5V10C6.75 9.86 6.86 9.75 7 9.75H9C9.41 9.75 9.75 9.41 9.75 9V4C9.75 3.59 9.41 3.25 9 3.25Z" fill="black"/>
<path d="M20.75 9.63V3C20.75 2.59 20.41 2.25 20 2.25C19.59 2.25 19.25 2.59 19.25 3V9.28C18.13 9.41 17.25 10.35 17.25 11.5V14C17.25 14.14 17.14 14.25 17 14.25H15C14.59 14.25 14.25 14.59 14.25 15V20C14.25 20.41 14.59 20.75 15 20.75H16C19.17 20.75 21.75 18.17 21.75 15V11.5C21.75 10.72 21.35 10.04 20.75 9.63Z" fill="black"/>
<path d="M10.45 10.7C11.75 10.48 12.75 9.36 12.75 8V5C12.75 3.64 11.75 2.51 10.45 2.3C10.93 2.71 11.25 3.32 11.25 4V9C11.25 9.68 10.94 10.29 10.45 10.7Z" fill="black"/>
<path d="M13.55 13.3C12.25 13.52 11.25 14.64 11.25 16V19C11.25 20.36 12.25 21.49 13.55 21.7C13.07 21.29 12.75 20.68 12.75 20V15C12.75 14.32 13.06 13.71 13.55 13.3Z" fill="black"/>
</svg>
