<svg width="24" height="24" viewBox="0 0 24 24" fill="none" xmlns="http://www.w3.org/2000/svg">
<path d="M3 16.63C3.41 16.63 3.75 16.29 3.75 15.88C3.75 15.52 3.9 15.17 4.15 14.91C5.18 13.88 5.75 12.51 5.75 11.05V9.99999C5.75 6.54999 8.55 3.74999 12 3.74999C13.14 3.74999 14.25 4.05999 15.22 4.63999C15.57 4.84999 16.04 4.73999 16.25 4.37999C16.46 4.02999 16.35 3.55999 15.99 3.34999C14.79 2.62999 13.41 2.23999 12 2.23999C7.73 2.23999 4.25 5.71999 4.25 9.98999V11.04C4.25 12.1 3.84 13.09 3.09 13.84C2.56 14.37 2.25 15.11 2.25 15.87C2.25 16.28 2.59 16.62 3 16.62V16.63Z" fill="black"/>
<path d="M19.75 11.05V9.99999C19.75 8.68999 19.41 7.41999 18.78 6.27999L21.53 3.52999C21.82 3.23999 21.82 2.75999 21.53 2.46999C21.24 2.17999 20.76 2.17999 20.47 2.46999L2.47 20.47C2.18 20.76 2.18 21.24 2.47 21.53C2.62 21.68 2.81 21.75 3 21.75C3.19 21.75 3.38 21.68 3.53 21.53L6.31 18.75H18.88C20.46 18.75 21.75 17.46 21.75 15.88C21.75 15.12 21.44 14.38 20.91 13.85C20.16 13.1 19.75 12.11 19.75 11.05ZM18.88 17.25H7.81L17.67 7.38999C18.05 8.19999 18.25 9.08999 18.25 9.99999V11.05C18.25 12.51 18.82 13.88 19.85 14.91C20.1 15.16 20.25 15.52 20.25 15.88C20.25 16.64 19.63 17.25 18.88 17.25Z" fill="black"/>
<path d="M15 20.25H9C8.59 20.25 8.25 20.59 8.25 21C8.25 21.41 8.59 21.75 9 21.75H15C15.41 21.75 15.75 21.41 15.75 21C15.75 20.59 15.41 20.25 15 20.25Z" fill="black"/>
</svg>
