<svg width="24" height="24" viewBox="0 0 24 24" fill="none" xmlns="http://www.w3.org/2000/svg">
<path d="M21.09 2.89002C20.67 2.56002 20.13 2.43002 19.61 2.55002L8.61 5.09002C7.81 5.27002 7.25 5.98002 7.25 6.80002V15.77C6.74 15.44 6.15 15.25 5.5 15.25C3.71 15.25 2.25 16.71 2.25 18.5C2.25 20.29 3.71 21.75 5.5 21.75C7.29 21.75 8.75 20.29 8.75 18.5C8.75 18.39 8.73 18.28 8.72 18.17C8.73 18.11 8.75 18.06 8.75 18V11.6L20.25 8.95002V13.78C19.74 13.45 19.15 13.26 18.5 13.26C16.71 13.26 15.25 14.72 15.25 16.51C15.25 18.3 16.71 19.76 18.5 19.76C20.29 19.76 21.75 18.3 21.75 16.51C21.75 16.4 21.73 16.29 21.72 16.18C21.73 16.12 21.75 16.07 21.75 16.01V4.26002C21.75 3.72002 21.51 3.22002 21.09 2.89002ZM5.5 20.25C4.54 20.25 3.75 19.46 3.75 18.5C3.75 17.54 4.54 16.75 5.5 16.75C6.46 16.75 7.25 17.54 7.25 18.5C7.25 19.46 6.46 20.25 5.5 20.25ZM8.75 6.80002C8.75 6.68002 8.83 6.58002 8.94 6.56002L19.94 4.02002C19.94 4.02002 19.98 4.02002 20 4.02002C20.07 4.02002 20.13 4.05002 20.15 4.07002C20.19 4.10002 20.24 4.16002 20.24 4.27002V7.42002L8.74 10.07V6.81002L8.75 6.80002ZM18.5 18.25C17.54 18.25 16.75 17.46 16.75 16.5C16.75 15.54 17.54 14.75 18.5 14.75C19.46 14.75 20.25 15.54 20.25 16.5C20.25 17.46 19.46 18.25 18.5 18.25Z" fill="black"/>
</svg>
