<svg width="24" height="24" viewBox="0 0 24 24" fill="none" xmlns="http://www.w3.org/2000/svg">
<path d="M17 2.25H7C4.38 2.25 2.25 4.38 2.25 7V17C2.25 19.62 4.38 21.75 7 21.75H17C19.62 21.75 21.75 19.62 21.75 17V7C21.75 4.38 19.62 2.25 17 2.25ZM20.25 17C20.25 17.62 20.06 18.2 19.76 18.7L18.07 17.01C17.78 16.72 17.3 16.72 17.01 17.01C16.72 17.3 16.72 17.78 17.01 18.07L18.7 19.76C18.2 20.07 17.63 20.25 17 20.25H7C5.21 20.25 3.75 18.79 3.75 17V7C3.75 6.38 3.94 5.8 4.24 5.3L7.47 8.53C7.62 8.68 7.81 8.75 8 8.75C8.19 8.75 8.38 8.68 8.53 8.53C8.82 8.24 8.82 7.76 8.53 7.47L5.3 4.24C5.8 3.93 6.37 3.75 7 3.75H17C18.79 3.75 20.25 5.21 20.25 7V17Z" fill="black"/>
<path d="M15.35 7.34C15.11 7.21 14.81 7.22 14.58 7.38L12.34 8.88C11.97 9.13 11.54 9.26 11.09 9.26H10C9.04 9.26 8.25 10.05 8.25 11.01V13.01C8.25 13.97 9.04 14.76 10 14.76H11.09C11.54 14.76 11.97 14.89 12.34 15.14L14.58 16.64C14.71 16.72 14.85 16.77 15 16.77C15.12 16.77 15.24 16.74 15.35 16.68C15.59 16.55 15.75 16.3 15.75 16.02V8C15.75 7.72 15.6 7.47 15.35 7.34ZM14.25 14.6L13.17 13.88C12.55 13.47 11.83 13.25 11.09 13.25H10C9.86 13.25 9.75 13.14 9.75 13V11C9.75 10.86 9.86 10.75 10 10.75H11.09C11.83 10.75 12.55 10.53 13.17 10.12L14.25 9.4V14.6Z" fill="black"/>
</svg>
