<svg width="24" height="24" viewBox="0 0 24 24" fill="none" xmlns="http://www.w3.org/2000/svg">
<path d="M5.10992 14.65L4.54992 14.15L2.97992 15.72C2.45992 16.24 2.16992 16.93 2.16992 17.66C2.16992 18.39 2.45992 19.09 2.97992 19.6L4.38992 21.01C4.92992 21.55 5.62992 21.81 6.32992 21.81C7.02992 21.81 7.73992 21.54 8.27992 21.01L9.84992 19.44L9.31992 18.86L5.09992 14.64L5.10992 14.65Z" fill="black"/>
<path d="M21.0199 4.4L19.6099 2.99C18.5399 1.92 16.7899 1.92 15.7199 2.99L5.60992 13.09L6.13992 13.57L10.4099 17.84L10.9199 18.4L21.0199 8.3C21.5399 7.78 21.8299 7.09 21.8299 6.36C21.8299 5.63 21.5399 4.93 21.0199 4.42V4.4ZM13.4399 11.34C13.0299 11.34 12.6899 11 12.6899 10.59C12.6899 10.18 13.0199 9.84 13.4399 9.84C13.8599 9.84 14.1899 10.18 14.1899 10.59C14.1899 11 13.8599 11.34 13.4399 11.34ZM15.5599 9.22C15.1499 9.22 14.8099 8.88 14.8099 8.47C14.8099 8.06 15.1399 7.72 15.5599 7.72C15.9799 7.72 16.3099 8.06 16.3099 8.47C16.3099 8.88 15.9799 9.22 15.5599 9.22ZM17.6799 7.1C17.2699 7.1 16.9299 6.76 16.9299 6.35C16.9299 5.94 17.2599 5.6 17.6799 5.6C18.0999 5.6 18.4299 5.94 18.4299 6.35C18.4299 6.76 18.0999 7.1 17.6799 7.1Z" fill="black"/>
</svg>
