<svg width="24" height="24" viewBox="0 0 24 24" fill="none" xmlns="http://www.w3.org/2000/svg">
<path d="M18 3.25H6C3.93 3.25 2.25 4.93 2.25 7V18C2.25 20.07 3.93 21.75 6 21.75H18C20.07 21.75 21.75 20.07 21.75 18V7C21.75 4.93 20.07 3.25 18 3.25ZM12 18.75C9.93 18.75 8.25 17.07 8.25 15C8.25 12.93 9.93 11.25 12 11.25C14.07 11.25 15.75 12.93 15.75 15C15.75 17.07 14.07 18.75 12 18.75ZM18 15.75C17.59 15.75 17.25 15.41 17.25 15C17.25 12.11 14.89 9.75 12 9.75C9.11 9.75 6.75 12.11 6.75 15C6.75 15.41 6.41 15.75 6 15.75C5.59 15.75 5.25 15.41 5.25 15C5.25 13.15 6 11.48 7.2 10.26L6.47 9.53C6.18 9.24 6.18 8.76 6.47 8.47C6.76 8.18 7.24 8.18 7.53 8.47L8.38 9.32C9.23 8.78 10.2 8.42 11.25 8.3V7.01C11.25 6.6 11.59 6.26 12 6.26C12.41 6.26 12.75 6.6 12.75 7.01V8.3C13.8 8.42 14.78 8.78 15.62 9.32L16.47 8.47C16.76 8.18 17.24 8.18 17.53 8.47C17.82 8.76 17.82 9.24 17.53 9.53L16.8 10.26C18 11.48 18.75 13.15 18.75 15C18.75 15.41 18.41 15.75 18 15.75Z" fill="black"/>
<path d="M12.75 12.89V14C12.75 14.41 12.41 14.75 12 14.75C11.59 14.75 11.25 14.41 11.25 14V12.89C10.38 13.2 9.75 14.03 9.75 15C9.75 16.24 10.76 17.25 12 17.25C13.24 17.25 14.25 16.24 14.25 15C14.25 14.02 13.62 13.2 12.75 12.89Z" fill="black"/>
</svg>
