<svg width="24" height="24" viewBox="0 0 24 24" fill="none" xmlns="http://www.w3.org/2000/svg">
<path d="M7.99993 11.99C7.58993 11.99 7.24993 12.33 7.24993 12.74V15.51C6.73993 15.18 6.14993 14.99 5.49993 14.99C3.70993 14.99 2.24993 16.45 2.24993 18.24C2.24993 20.03 3.70993 21.49 5.49993 21.49C7.28993 21.49 8.74993 20.03 8.74993 18.24C8.74993 18.13 8.72993 18.02 8.71993 17.91C8.72993 17.85 8.74993 17.8 8.74993 17.74V12.74C8.74993 12.33 8.40993 11.99 7.99993 11.99Z" fill="black"/>
<path d="M21.0899 2.63001C20.6699 2.30001 20.1299 2.17001 19.6099 2.29001L8.60993 4.83001C7.80993 5.01001 7.24993 5.71001 7.24993 6.54001V7.57001L3.47993 4.43001C3.15993 4.16001 2.68993 4.21001 2.41993 4.53001C2.14993 4.85001 2.19993 5.32001 2.51993 5.59001L20.5199 20.59C20.6599 20.71 20.8299 20.76 20.9999 20.76C21.2099 20.76 21.4299 20.67 21.5799 20.49C21.8499 20.17 21.7999 19.7 21.4799 19.43L20.6199 18.71C21.3299 18.1 21.7499 17.21 21.7499 16.25C21.7499 16.14 21.7299 16.03 21.7199 15.92C21.7299 15.86 21.7499 15.81 21.7499 15.75V4.00001C21.7499 3.46001 21.5099 2.96001 21.0899 2.63001ZM20.2499 8.68001V13.51C19.7399 13.18 19.1499 12.99 18.4999 12.99C17.3199 12.99 16.2699 13.63 15.6999 14.6L11.1199 10.79L20.2499 8.68001Z" fill="black"/>
</svg>
