<svg width="24" height="24" viewBox="0 0 24 24" fill="none" xmlns="http://www.w3.org/2000/svg">
<path d="M9.2 4.09001C8.22 3.42001 7.05 3.12001 5.91 3.26001C4.51 3.43001 3.54 4.20001 2.97 4.82001C2.51 5.32001 2.25 5.98001 2.25 6.68001V8.66001C2.25 10.14 3.38 11.34 4.81 11.41H4.93C5.26 11.41 5.59 11.38 5.92 11.31C6.04 11.28 6.13 11.33 6.16 11.36C6.22 11.41 6.25 11.47 6.25 11.55V16.28H10.75V7.13001C10.75 5.89001 10.17 4.76001 9.2 4.08001V4.09001ZM6.75 8.00001C6.75 8.41001 6.41 8.75001 6 8.75001C5.59 8.75001 5.25 8.41001 5.25 8.00001V7.00001C5.25 6.59001 5.59 6.25001 6 6.25001C6.41 6.25001 6.75 6.59001 6.75 7.00001V8.00001Z" fill="black"/>
<path d="M6.25 18.5C6.25 19.74 7.26 20.75 8.5 20.75C9.74 20.75 10.75 19.74 10.75 18.5V17.75H6.25V18.5Z" fill="black"/>
<path d="M13.25 18.5C13.25 19.74 14.26 20.75 15.5 20.75C16.74 20.75 17.75 19.74 17.75 18.5V17.75H13.25V18.5Z" fill="black"/>
<path d="M21.03 4.81001C20.46 4.19001 19.49 3.43001 18.09 3.26001C16.95 3.12001 15.78 3.42001 14.8 4.09001C13.83 4.76002 13.25 5.90001 13.25 7.14001V16.26H17.75V11.53C17.75 11.45 17.78 11.39 17.84 11.34C17.87 11.32 17.96 11.26 18.08 11.29C18.4 11.36 18.73 11.4 19.08 11.39H19.19C20.63 11.32 21.75 10.11 21.75 8.64002V6.66001C21.75 5.97001 21.5 5.31001 21.03 4.80001V4.81001ZM18.75 8.00001C18.75 8.41001 18.41 8.75001 18 8.75001C17.59 8.75001 17.25 8.41001 17.25 8.00001V7.00001C17.25 6.59001 17.59 6.25001 18 6.25001C18.41 6.25001 18.75 6.59001 18.75 7.00001V8.00001Z" fill="black"/>
</svg>
