<svg width="24" height="24" viewBox="0 0 24 24" fill="none" xmlns="http://www.w3.org/2000/svg">
<path d="M10 11.75C12.6234 11.75 14.75 9.62335 14.75 7C14.75 4.37665 12.6234 2.25 10 2.25C7.37665 2.25 5.25 4.37665 5.25 7C5.25 9.62335 7.37665 11.75 10 11.75Z" fill="black"/>
<path d="M21.39 12.36L17.9 10.27C17.35 9.94 16.69 9.94 16.14 10.25C15.58 10.57 15.25 11.13 15.25 11.77V15.77C14.74 15.44 14.15 15.25 13.5 15.25C11.71 15.25 10.25 16.71 10.25 18.5C10.25 20.29 11.71 21.75 13.5 21.75C15.29 21.75 16.75 20.29 16.75 18.5C16.75 18.39 16.73 18.28 16.72 18.17C16.73 18.11 16.75 18.06 16.75 18V11.77C16.75 11.64 16.83 11.58 16.88 11.55C16.93 11.52 17.02 11.49 17.13 11.55L20.62 13.64C20.98 13.85 21.44 13.74 21.65 13.38C21.86 13.02 21.75 12.56 21.39 12.35V12.36Z" fill="black"/>
<path d="M12.72 13.83C12.64 13.5 12.36 13.25 12 13.25H8C4.83 13.25 2.25 15.83 2.25 19V21C2.25 21.41 2.59 21.75 3 21.75H10.05C9.25 20.9 8.75 19.76 8.75 18.5C8.75 16.15 10.47 14.21 12.72 13.83Z" fill="black"/>
</svg>
