<svg width="24" height="24" viewBox="0 0 24 24" fill="none" xmlns="http://www.w3.org/2000/svg">
<path d="M11.93 3.93L9.09999 6.76C8.95999 6.9 8.85999 7.05 8.73999 7.2L12.6 7.97C12.95 8.04 13.2 8.35 13.2 8.71V10.79H15.28C15.64 10.79 15.95 11.04 16.02 11.39L16.79 15.25C16.94 15.13 17.09 15.03 17.23 14.89L20.06 12.06C20.12 12 20.16 11.93 20.22 11.87L12.13 3.77C12.07 3.83 12 3.87 11.94 3.93H11.93Z" fill="black"/>
<path d="M20.07 3.93C18.98 2.84 17.54 2.25 16 2.25C15.07 2.25 14.19 2.49 13.38 2.91L21.09 10.62C21.5 9.82 21.75 8.93 21.75 8C21.75 6.46 21.15 5.02 20.07 3.93Z" fill="black"/>
<path d="M12.46 12.29C12.05 12.29 11.71 11.95 11.71 11.54V9.33L7.88999 8.57C7.58999 9.28 7.41999 10.05 7.41999 10.84C7.41999 12.38 8.01999 13.82 9.09999 14.91C10.18 16 11.69 16.59 13.17 16.59C13.94 16.59 14.72 16.43 15.44 16.11L14.68 12.29H12.46Z" fill="black"/>
<path d="M6.47999 13.63L2.73999 17.37C2.21999 17.89 1.92999 18.58 1.92999 19.31C1.92999 20.04 2.21999 20.74 2.73999 21.25C3.27999 21.79 3.97999 22.05 4.67999 22.05C5.37999 22.05 6.08999 21.78 6.61999 21.25L10.36 17.51C9.49999 17.15 8.70999 16.63 8.02999 15.95C7.34999 15.27 6.82999 14.48 6.46999 13.62L6.47999 13.63Z" fill="black"/>
</svg>
