<svg width="24" height="24" viewBox="0 0 24 24" fill="none" xmlns="http://www.w3.org/2000/svg">
<path d="M20 2.25H16C15.04 2.25 14.25 3.04 14.25 4V7.25H12.75V7C12.75 6.59 12.41 6.25 12 6.25C11.59 6.25 11.25 6.59 11.25 7V7.25H9.75V4C9.75 3.04 8.96 2.25 8 2.25H4C3.04 2.25 2.25 3.04 2.25 4V10.53C2.25 10.95 2.35 11.38 2.54 11.76L3.05 12.78C3.35 13.38 3.95 13.75 4.62 13.75H7.38C8.05 13.75 8.65 13.38 8.95 12.78L9.46 11.75C9.65 11.37 9.75 10.94 9.75 10.52V8.74H11.25V17.32C9.54 17.67 8.25 19.18 8.25 20.99C8.25 21.4 8.59 21.74 9 21.74C9.41 21.74 9.75 21.4 9.75 20.99C9.75 20.01 10.38 19.19 11.25 18.88V20.99C11.25 21.4 11.59 21.74 12 21.74C12.41 21.74 12.75 21.4 12.75 20.99V18.88C13.62 19.19 14.25 20.02 14.25 20.99C14.25 21.4 14.59 21.74 15 21.74C15.41 21.74 15.75 21.4 15.75 20.99C15.75 19.18 14.46 17.66 12.75 17.32V8.75H14.25V10.53C14.25 10.95 14.35 11.38 14.54 11.76L15.05 12.78C15.35 13.38 15.95 13.75 16.62 13.75H19.38C20.05 13.75 20.65 13.38 20.95 12.78L21.46 11.75C21.65 11.37 21.75 10.94 21.75 10.52V4C21.75 3.04 20.96 2.25 20 2.25ZM4 3.75H8C8.14 3.75 8.25 3.86 8.25 4V5.25H3.75V4C3.75 3.86 3.86 3.75 4 3.75ZM8.25 10.53C8.25 10.72 8.2 10.92 8.12 11.09L7.61 12.11C7.57 12.2 7.48 12.25 7.39 12.25H4.63C4.53 12.25 4.45 12.2 4.41 12.11L3.9 11.09C3.81 10.92 3.77 10.72 3.77 10.53V6.75H8.27V10.53H8.25ZM16 3.75H20C20.14 3.75 20.25 3.86 20.25 4V5.25H15.75V4C15.75 3.86 15.86 3.75 16 3.75ZM20.12 11.09L19.61 12.11C19.57 12.2 19.48 12.25 19.39 12.25H16.63C16.53 12.25 16.45 12.2 16.41 12.11L15.9 11.09C15.81 10.92 15.77 10.72 15.77 10.53V6.75H20.27V10.53C20.27 10.72 20.22 10.92 20.14 11.09H20.12Z" fill="black"/>
</svg>
