<svg width="24" height="24" viewBox="0 0 24 24" fill="none" xmlns="http://www.w3.org/2000/svg">
<path d="M2.7 16.57C2.8 16.61 2.9 16.63 3 16.63C3.19 16.63 3.37 16.56 3.51 16.43L16.12 4.55C16.29 4.39 16.38 4.16 16.35 3.92C16.32 3.69 16.19 3.48 15.99 3.36C14.79 2.64 13.41 2.25 12 2.25C7.73 2.25 4.25 5.73 4.25 10V11.05C4.25 12.11 3.84 13.1 3.09 13.85C2.56 14.38 2.25 15.12 2.25 15.88C2.25 16.18 2.43 16.45 2.7 16.57Z" fill="black"/>
<path d="M19.75 11.05V10C19.75 8.69 19.41 7.42 18.78 6.28L21.53 3.53C21.82 3.24 21.82 2.76 21.53 2.47C21.24 2.18 20.76 2.18 20.47 2.47L2.47 20.47C2.18 20.76 2.18 21.24 2.47 21.53C2.62 21.68 2.81 21.75 3 21.75C3.19 21.75 3.38 21.68 3.53 21.53L6.31 18.75H18.88C20.46 18.75 21.75 17.46 21.75 15.88C21.75 15.12 21.44 14.38 20.91 13.85C20.16 13.1 19.75 12.11 19.75 11.05Z" fill="black"/>
<path d="M15 20.25H9C8.59 20.25 8.25 20.59 8.25 21C8.25 21.41 8.59 21.75 9 21.75H15C15.41 21.75 15.75 21.41 15.75 21C15.75 20.59 15.41 20.25 15 20.25Z" fill="black"/>
</svg>
