<svg width="24" height="24" viewBox="0 0 24 24" fill="none" xmlns="http://www.w3.org/2000/svg">
<path d="M20.37 4.25C19.61 4.25 18.88 4.57 18.37 5.14C18.08 5.46 17.89 5.84 17.77 6.25H15.75V5C15.75 4.59 15.41 4.25 15 4.25C14.59 4.25 14.25 4.59 14.25 5V6.25H12.75V5C12.75 4.59 12.41 4.25 12 4.25C11.59 4.25 11.25 4.59 11.25 5V6.25H9.75V5C9.75 4.59 9.41 4.25 9 4.25C8.59 4.25 8.25 4.59 8.25 5V6.25H6.23C6.12 5.84 5.92 5.46 5.63 5.14C5.12 4.58 4.39 4.25 3.63 4.25H3C2.59 4.25 2.25 4.59 2.25 5C2.25 5.41 2.59 5.75 3 5.75H3.63C3.97 5.75 4.29 5.89 4.52 6.14C4.76 6.4 4.87 6.76 4.84 7.13C4.66 8.86 4.81 10.57 5.29 12.21C5.38 12.52 5.48 12.81 5.58 13.1C6.16 14.66 7.42 15.84 8.97 16.4L8.06 18.22C7.79 18.77 7.82 19.4 8.14 19.92C8.46 20.44 9.02 20.75 9.63 20.75H14.39C15 20.75 15.56 20.44 15.88 19.92C16.2 19.4 16.23 18.76 15.96 18.22L15.05 16.4C16.6 15.84 17.86 14.66 18.44 13.1C18.54 12.82 18.64 12.52 18.73 12.21C19.2 10.57 19.36 8.86 19.18 7.13C19.14 6.77 19.26 6.41 19.5 6.14C19.73 5.89 20.04 5.75 20.39 5.75H21.02C21.43 5.75 21.77 5.41 21.77 5C21.77 4.59 21.43 4.25 21.02 4.25H20.37ZM14.25 7.75V15C14.25 15 14.26 15.05 14.27 15.08C13.89 15.19 13.49 15.25 13.08 15.25H12.76V7.75H14.26H14.25ZM11.25 7.75V15.25H10.93C10.52 15.25 10.12 15.19 9.74 15.08C9.74 15.05 9.76 15.03 9.76 15V7.75H11.26H11.25ZM6.98 12.58C6.89 12.33 6.8 12.07 6.72 11.79C6.34 10.49 6.21 9.13 6.3 7.75H8.25V14.31C7.69 13.86 7.24 13.27 6.98 12.58ZM13.54 16.75L14.61 18.89C14.66 19 14.63 19.09 14.6 19.13C14.57 19.17 14.51 19.25 14.39 19.25H9.63C9.51 19.25 9.44 19.18 9.42 19.13C9.4 19.08 9.36 19 9.41 18.89L10.48 16.75H13.55H13.54ZM17.28 11.79C17.2 12.06 17.11 12.33 17.02 12.58C16.76 13.27 16.31 13.86 15.75 14.31V7.75H17.7C17.79 9.13 17.66 10.49 17.28 11.79Z" fill="black"/>
</svg>
