<svg width="24" height="24" viewBox="0 0 24 24" fill="none" xmlns="http://www.w3.org/2000/svg">
<path d="M21.35 7.34C21.11 7.21 20.81 7.22 20.58 7.38L18.08 9.04C17.87 9.18 17.64 9.25 17.39 9.25H15.75V7.75H16C16.41 7.75 16.75 7.41 16.75 7C16.75 6.59 16.41 6.25 16 6.25H7.99999C7.58999 6.25 7.24999 6.59 7.24999 7C7.24999 7.41 7.58999 7.75 7.99999 7.75H8.24999V9.25H5.46999C5.04999 9.25 4.61999 9.35 4.23999 9.54L2.65999 10.33C2.40999 10.46 2.23999 10.72 2.23999 11V13C2.23999 13.28 2.39999 13.54 2.65999 13.67L4.23999 14.46C4.61999 14.65 5.03999 14.75 5.46999 14.75H17.39C17.64 14.75 17.88 14.82 18.08 14.96L20.58 16.62C20.71 16.7 20.85 16.75 21 16.75C21.12 16.75 21.24 16.72 21.35 16.66C21.59 16.53 21.75 16.28 21.75 16V8C21.75 7.72 21.6 7.47 21.35 7.34ZM14.25 9.25H12.75V7.75H14.25V9.25ZM9.74999 7.75H11.25V9.25H9.74999V7.75ZM20.25 14.6L18.92 13.71C18.47 13.41 17.94 13.25 17.39 13.25H5.46999C5.27999 13.25 5.07999 13.2 4.90999 13.12L3.74999 12.54V11.47L4.90999 10.89C5.07999 10.8 5.27999 10.76 5.46999 10.76H17.39C17.94 10.76 18.46 10.6 18.92 10.3L20.25 9.41V14.61V14.6Z" fill="black"/>
</svg>
