<svg width="24" height="24" viewBox="0 0 24 24" fill="none" xmlns="http://www.w3.org/2000/svg">
<path d="M20.84 4.57002L19.43 3.16002C18.75 2.48002 17.64 2.48002 16.96 3.16002L15.71 4.41002C15.52 4.60002 15.37 4.84002 15.29 5.09002L14.66 6.99002C14.57 7.26002 14.64 7.56002 14.84 7.76002L15.02 7.94002L12.5 10.46C11.72 9.86002 10.78 9.45002 9.75 9.32002V9.02002C9.75 8.61002 9.41 8.27002 9 8.27002C8.59 8.27002 8.25 8.61002 8.25 9.02002V9.32002C7.23 9.45002 6.29 9.86002 5.5 10.46L5.28 10.24C4.99 9.95002 4.51 9.95002 4.22 10.24C3.93 10.53 3.93 11.01 4.22 11.3L4.44 11.52C3.84 12.3 3.43 13.24 3.3 14.26H3C2.59 14.26 2.25 14.6 2.25 15.01C2.25 15.42 2.59 15.76 3 15.76H3.3C3.64 18.33 5.68 20.37 8.25 20.71V21.01C8.25 21.42 8.59 21.76 9 21.76C9.41 21.76 9.75 21.42 9.75 21.01V20.71C10.77 20.58 11.71 20.17 12.5 19.57L12.72 19.79C12.87 19.94 13.06 20.01 13.25 20.01C13.44 20.01 13.63 19.94 13.78 19.79C14.07 19.5 14.07 19.02 13.78 18.73L13.56 18.51C14.16 17.73 14.57 16.79 14.7 15.77H15C15.41 15.77 15.75 15.43 15.75 15.02C15.75 14.61 15.41 14.27 15 14.27H14.7C14.57 13.25 14.16 12.31 13.56 11.53L16.1 8.99002C16.38 9.17002 16.71 9.27002 17.04 9.27002C17.23 9.27002 17.41 9.24002 17.6 9.18002L18.92 8.74002C19.18 8.65002 19.41 8.51002 19.6 8.32002L20.85 7.07002C21.53 6.39002 21.53 5.28002 20.85 4.60002L20.84 4.57002ZM9.53 16.94C9.38 17.09 9.19 17.16 9 17.16C8.81 17.16 8.62 17.09 8.47 16.94L7.06 15.53C6.77 15.24 6.77 14.76 7.06 14.47C7.35 14.18 7.83 14.18 8.12 14.47L9.53 15.88C9.82 16.17 9.82 16.65 9.53 16.94Z" fill="black"/>
</svg>
