<svg width="24" height="24" viewBox="0 0 24 24" fill="none" xmlns="http://www.w3.org/2000/svg">
<path d="M9.72 10.25H14.28C14.39 10.25 14.48 10.18 14.52 10.08L14.96 8.75H9.04L9.48 10.08C9.51 10.18 9.61 10.25 9.72 10.25Z" fill="black"/>
<path d="M15.94 10.55C15.7 11.27 15.03 11.75 14.28 11.75H9.72C8.97 11.75 8.3 11.27 8.06 10.55L7.46 8.75H4.25V17C4.25 19.62 6.38 21.75 9 21.75H15C17.62 21.75 19.75 19.62 19.75 17V8.75H16.54L15.94 10.55ZM13 18.75H11C10.59 18.75 10.25 18.41 10.25 18C10.25 17.59 10.59 17.25 11 17.25H13C13.41 17.25 13.75 17.59 13.75 18C13.75 18.41 13.41 18.75 13 18.75Z" fill="black"/>
<path d="M15 2.25H9C6.38 2.25 4.25 4.38 4.25 7V7.25H19.75V7C19.75 4.38 17.62 2.25 15 2.25Z" fill="black"/>
</svg>
