<svg width="24" height="24" viewBox="0 0 24 24" fill="none" xmlns="http://www.w3.org/2000/svg">
<path d="M21.41 4.36994C21.2 4.22994 20.93 4.20994 20.7 4.30994L14.75 6.94994V5.98994C14.75 5.57994 14.41 5.23994 14 5.23994C13.59 5.23994 13.25 5.57994 13.25 5.98994V14.9899C13.25 15.3999 13.59 15.7399 14 15.7399C14.41 15.7399 14.75 15.3999 14.75 14.9899V13.7399H21C21.41 13.7399 21.75 13.3999 21.75 12.9899V4.99994C21.75 4.74994 21.62 4.50994 21.41 4.36994ZM20.25 12.2499H14.75V8.59994L20.25 6.15994V12.2599V12.2499Z" fill="black"/>
<path d="M11.69 9.13994C11.52 8.75994 11.07 8.58994 10.7 8.75994L2.7 12.3099C2.38 12.4499 2.2 12.8099 2.27 13.1499C2.34 13.4999 2.65 13.7399 3 13.7399H11C11.41 13.7399 11.75 13.3999 11.75 12.9899C11.75 12.5799 11.41 12.2399 11 12.2399H6.53L11.3 10.1199C11.68 9.94994 11.85 9.50994 11.68 9.12994L11.69 9.13994Z" fill="black"/>
<path d="M7 17.2499H3C2.59 17.2499 2.25 17.5899 2.25 17.9999C2.25 18.4099 2.59 18.7499 3 18.7499H7C7.41 18.7499 7.75 18.4099 7.75 17.9999C7.75 17.5899 7.41 17.2499 7 17.2499Z" fill="black"/>
<path d="M21 17.2499H19.75V15.9999C19.75 15.5899 19.41 15.2499 19 15.2499C18.59 15.2499 18.25 15.5899 18.25 15.9999V17.2499H17C16.59 17.2499 16.25 17.5899 16.25 17.9999C16.25 18.4099 16.59 18.7499 17 18.7499H18.25V19.9999C18.25 20.4099 18.59 20.7499 19 20.7499C19.41 20.7499 19.75 20.4099 19.75 19.9999V18.7499H21C21.41 18.7499 21.75 18.4099 21.75 17.9999C21.75 17.5899 21.41 17.2499 21 17.2499Z" fill="black"/>
</svg>
