<svg width="24" height="24" viewBox="0 0 24 24" fill="none" xmlns="http://www.w3.org/2000/svg">
<path d="M10.0001 14.25C9.59007 14.25 9.25007 14.59 9.25007 15V15.51C8.74007 15.18 8.15007 14.99 7.50007 14.99C5.71007 14.99 4.25007 16.45 4.25007 18.24C4.25007 20.03 5.71007 21.49 7.50007 21.49C9.29007 21.49 10.7501 20.03 10.7501 18.24C10.7501 18.13 10.7301 18.02 10.7201 17.91C10.7301 17.85 10.7501 17.8 10.7501 17.74V15C10.7501 14.59 10.4101 14.25 10.0001 14.25Z" fill="black"/>
<path d="M20.5101 20.45L10.7201 11.27L17.6101 8.68998C18.2901 8.43998 18.7501 7.77998 18.7501 7.04998V4.18998C18.7501 3.61998 18.4701 3.07998 18.0001 2.74998C17.5301 2.41998 16.9301 2.34998 16.3901 2.54998L10.3901 4.79998C9.71007 5.04998 9.25007 5.70998 9.25007 6.43998V9.89998L4.51007 5.44998C4.21007 5.16998 3.73007 5.17998 3.45007 5.47998C3.17007 5.77998 3.18007 6.25998 3.48007 6.53998L19.4801 21.54C19.6301 21.68 19.8101 21.74 19.9901 21.74C20.1901 21.74 20.3901 21.66 20.5401 21.5C20.8201 21.2 20.8101 20.72 20.5101 20.44V20.45Z" fill="black"/>
</svg>
