<svg width="24" height="24" viewBox="0 0 24 24" fill="none" xmlns="http://www.w3.org/2000/svg">
<path d="M18 3.25H6C3.93 3.25 2.25 4.93 2.25 7V18C2.25 20.07 3.93 21.75 6 21.75H18C20.07 21.75 21.75 20.07 21.75 18V7C21.75 4.93 20.07 3.25 18 3.25ZM20.25 18C20.25 19.24 19.24 20.25 18 20.25H6C4.76 20.25 3.75 19.24 3.75 18V7C3.75 5.76 4.76 4.75 6 4.75H18C19.24 4.75 20.25 5.76 20.25 7V18Z" fill="black"/>
<path d="M12 11.25C9.93 11.25 8.25 12.93 8.25 15C8.25 17.07 9.93 18.75 12 18.75C14.07 18.75 15.75 17.07 15.75 15C15.75 12.93 14.07 11.25 12 11.25ZM12 17.25C10.76 17.25 9.75 16.24 9.75 15C9.75 14.02 10.38 13.2 11.25 12.89V14C11.25 14.41 11.59 14.75 12 14.75C12.41 14.75 12.75 14.41 12.75 14V12.89C13.62 13.2 14.25 14.03 14.25 15C14.25 16.24 13.24 17.25 12 17.25Z" fill="black"/>
<path d="M17.53 9.53C17.82 9.24 17.82 8.76 17.53 8.47C17.24 8.18 16.76 8.18 16.47 8.47L15.62 9.32C14.77 8.78 13.8 8.42 12.75 8.3V7.01C12.75 6.6 12.41 6.26 12 6.26C11.59 6.26 11.25 6.6 11.25 7.01V8.3C10.2 8.42 9.22 8.78 8.38 9.32L7.53 8.47C7.24 8.18 6.76 8.18 6.47 8.47C6.18 8.76 6.18 9.24 6.47 9.53L7.2 10.26C6 11.48 5.25 13.15 5.25 15C5.25 15.41 5.59 15.75 6 15.75C6.41 15.75 6.75 15.41 6.75 15C6.75 12.11 9.11 9.75 12 9.75C14.89 9.75 17.25 12.11 17.25 15C17.25 15.41 17.59 15.75 18 15.75C18.41 15.75 18.75 15.41 18.75 15C18.75 13.15 18 11.48 16.8 10.26L17.53 9.53Z" fill="black"/>
</svg>
