<svg width="24" height="24" viewBox="0 0 24 24" fill="none" xmlns="http://www.w3.org/2000/svg">
<path d="M13.25 2.36C12.84 2.29 12.43 2.25 12 2.25C11.57 2.25 11.16 2.29 10.75 2.36V6.25H13.25V2.36Z" fill="black"/>
<path d="M12 17.25C13.79 17.25 15.25 15.79 15.25 14C15.25 12.21 13.79 10.75 12 10.75C10.21 10.75 8.75 12.21 8.75 14C8.75 15.79 10.21 17.25 12 17.25ZM12 13.25H12.01C12.42 13.25 12.76 13.59 12.76 14C12.76 14.41 12.42 14.75 12.01 14.75C11.6 14.75 11.26 14.41 11.26 14C11.26 13.59 11.59 13.25 12 13.25Z" fill="black"/>
<path d="M13.25 9.44V7.75H10.75V9.44C11.15 9.33 11.56 9.25 12 9.25C12.44 9.25 12.85 9.33 13.25 9.44Z" fill="black"/>
<path d="M20 20.25H19.75V10C19.75 6.7 17.67 3.88 14.75 2.76V6.25H15C15.41 6.25 15.75 6.59 15.75 7C15.75 7.41 15.41 7.75 15 7.75H14.75V10C14.75 10 14.73 10.08 14.73 10.12C15.95 10.98 16.75 12.39 16.75 14C16.75 16.62 14.62 18.75 12 18.75C9.38 18.75 7.25 16.62 7.25 14C7.25 12.4 8.05 10.98 9.27 10.12C9.27 10.08 9.25 10.04 9.25 10V7.75H9C8.59 7.75 8.25 7.41 8.25 7C8.25 6.59 8.59 6.25 9 6.25H9.25V2.76C6.33 3.87 4.25 6.69 4.25 10V20.25H4C3.59 20.25 3.25 20.59 3.25 21C3.25 21.41 3.59 21.75 4 21.75H20C20.41 21.75 20.75 21.41 20.75 21C20.75 20.59 20.41 20.25 20 20.25Z" fill="black"/>
</svg>
