<svg width="24" height="24" viewBox="0 0 24 24" fill="none" xmlns="http://www.w3.org/2000/svg">
<path d="M13.07 9.07009L7.06 5.66009C6.07 5.10009 4.89 5.10009 3.9 5.68009C2.87 6.28009 2.25 7.37009 2.25 8.59009V15.4001C2.25 16.6201 2.87 17.7101 3.9 18.3101C4.4 18.6001 4.95 18.7501 5.5 18.7501C6.05 18.7501 6.57 18.6101 7.06 18.3301L13.07 14.9201C14.12 14.3201 14.75 13.2301 14.75 11.9901C14.75 10.7501 14.12 9.66009 13.07 9.06009V9.07009ZM12.33 13.6201L6.32 17.0301C5.79 17.3301 5.18 17.3301 4.65 17.0301C4.09 16.7001 3.75 16.1001 3.75 15.4201V8.61009C3.75 7.93009 4.09 7.33009 4.65 7.00009C4.92 6.84009 5.2 6.77009 5.49 6.77009C5.78 6.77009 6.05 6.84009 6.32 6.99009L12.33 10.4001C12.91 10.7301 13.25 11.3301 13.25 12.0201C13.25 12.7101 12.91 13.3101 12.33 13.6401V13.6201Z" fill="black"/>
<path d="M21 5.25009C20.59 5.25009 20.25 5.59009 20.25 6.00009V18.0001C20.25 18.4101 20.59 18.7501 21 18.7501C21.41 18.7501 21.75 18.4101 21.75 18.0001V6.00009C21.75 5.59009 21.41 5.25009 21 5.25009Z" fill="black"/>
<path d="M17 5.25009C16.59 5.25009 16.25 5.59009 16.25 6.00009V18.0001C16.25 18.4101 16.59 18.7501 17 18.7501C17.41 18.7501 17.75 18.4101 17.75 18.0001V6.00009C17.75 5.59009 17.41 5.25009 17 5.25009Z" fill="black"/>
</svg>
