<svg width="24" height="24" viewBox="0 0 24 24" fill="none" xmlns="http://www.w3.org/2000/svg">
<path d="M11.09 10.75H10C9.86 10.75 9.75 10.86 9.75 11V13C9.75 13.14 9.86 13.25 10 13.25H11.09C11.83 13.25 12.55 13.47 13.17 13.88L14.25 14.6V9.4L13.17 10.12C12.55 10.53 11.83 10.75 11.09 10.75Z" fill="black"/>
<path d="M17 2.25H7C5.96 2.25 5.01 2.6 4.22 3.16L8.53 7.47C8.82 7.76 8.82 8.24 8.53 8.53C8.38 8.68 8.19 8.75 8 8.75C7.81 8.75 7.62 8.68 7.47 8.53L3.16 4.22C2.59 5 2.25 5.96 2.25 7V17C2.25 19.62 4.38 21.75 7 21.75H17C18.04 21.75 18.99 21.41 19.78 20.84L17.01 18.07C16.72 17.78 16.72 17.3 17.01 17.01C17.3 16.72 17.78 16.72 18.07 17.01L20.84 19.78C21.41 19 21.75 18.04 21.75 17V7C21.75 4.38 19.62 2.25 17 2.25ZM15.75 16C15.75 16.28 15.6 16.53 15.35 16.66C15.24 16.72 15.12 16.75 15 16.75C14.85 16.75 14.71 16.71 14.58 16.62L12.34 15.12C11.97 14.87 11.54 14.74 11.09 14.74H10C9.04 14.74 8.25 13.95 8.25 12.99V10.99C8.25 10.03 9.04 9.24 10 9.24H11.09C11.54 9.24 11.97 9.11 12.34 8.86L14.58 7.36C14.81 7.21 15.11 7.19 15.35 7.32C15.59 7.45 15.75 7.7 15.75 7.98V16Z" fill="black"/>
</svg>
