<svg width="24" height="24" viewBox="0 0 24 24" fill="none" xmlns="http://www.w3.org/2000/svg">
<path d="M3.33 15.52C3.62 15.68 3.93 15.75 4.24 15.75C4.6 15.75 4.96 15.64 5.28 15.43L7.81 13.77C8.4 13.39 8.75 12.72 8.75 11.99C8.75 11.26 8.4 10.6 7.81 10.21L5.28 8.55C4.68 8.16 3.95 8.13 3.33 8.47C2.66 8.83 2.25 9.54 2.25 10.33V13.64C2.25 14.43 2.66 15.14 3.33 15.5V15.52ZM3.75 10.35C3.75 10.11 3.86 9.91 4.04 9.81C4.09 9.78 4.16 9.76 4.23 9.76C4.3 9.76 4.37 9.78 4.45 9.83L6.98 11.49C7.14 11.6 7.24 11.79 7.24 12.01C7.24 12.23 7.14 12.43 6.98 12.53L4.45 14.19C4.28 14.3 4.13 14.26 4.03 14.21C3.85 14.11 3.74 13.91 3.74 13.67V10.36L3.75 10.35Z" fill="black"/>
<path d="M3 6.75H21C21.41 6.75 21.75 6.41 21.75 6C21.75 5.59 21.41 5.25 21 5.25H3C2.59 5.25 2.25 5.59 2.25 6C2.25 6.41 2.59 6.75 3 6.75Z" fill="black"/>
<path d="M21 17.25H3C2.59 17.25 2.25 17.59 2.25 18C2.25 18.41 2.59 18.75 3 18.75H21C21.41 18.75 21.75 18.41 21.75 18C21.75 17.59 21.41 17.25 21 17.25Z" fill="black"/>
<path d="M21 13.25H11C10.59 13.25 10.25 13.59 10.25 14C10.25 14.41 10.59 14.75 11 14.75H21C21.41 14.75 21.75 14.41 21.75 14C21.75 13.59 21.41 13.25 21 13.25Z" fill="black"/>
<path d="M21 9.25H11C10.59 9.25 10.25 9.59 10.25 10C10.25 10.41 10.59 10.75 11 10.75H21C21.41 10.75 21.75 10.41 21.75 10C21.75 9.59 21.41 9.25 21 9.25Z" fill="black"/>
</svg>
