<svg width="24" height="24" viewBox="0 0 24 24" fill="none" xmlns="http://www.w3.org/2000/svg">
<path d="M21.4501 17.94L18.5501 13.58C18.3201 13.23 17.8501 13.14 17.5101 13.37C17.1601 13.6 17.0701 14.06 17.3001 14.41L20.2001 18.77C20.2801 18.89 20.2501 19 20.2101 19.07C20.1801 19.12 20.0901 19.25 19.8901 19.25H4.10006C3.90006 19.25 3.81006 19.12 3.78006 19.07C3.74006 19 3.72006 18.89 3.79006 18.77L11.7001 6.9C11.7901 6.76 11.9401 6.75 12.0001 6.75C12.0601 6.75 12.2101 6.76 12.3001 6.9L13.3001 8.41C13.5301 8.76 14.0001 8.85 14.3401 8.62C14.6901 8.39 14.7801 7.93 14.5501 7.58L13.5501 6.07C13.3501 5.77 13.0701 5.55 12.7501 5.41V3C12.7501 2.59 12.4101 2.25 12.0001 2.25C11.5901 2.25 11.2501 2.59 11.2501 3V5.42C10.9301 5.56 10.6501 5.78 10.4501 6.08L2.55006 17.94C2.18006 18.5 2.14006 19.18 2.46006 19.77C2.78006 20.37 3.41006 20.74 4.10006 20.74H19.8901C20.5801 20.74 21.2101 20.37 21.5301 19.77C21.8501 19.18 21.8101 18.49 21.4401 17.94H21.4501Z" fill="black"/>
<path d="M13.3701 12.63C12.9701 12.4 12.5001 12.25 12.0001 12.25C10.4801 12.25 9.25006 13.48 9.25006 15C9.25006 16.52 10.4801 17.75 12.0001 17.75C13.5201 17.75 14.7501 16.52 14.7501 15C14.7501 14.5 14.6101 14.04 14.3701 13.63C14.4201 13.6 14.4801 13.57 14.5301 13.53L20.5301 7.53C20.8201 7.24 20.8201 6.76 20.5301 6.47C20.2401 6.18 19.7601 6.18 19.4701 6.47L13.4701 12.47C13.4701 12.47 13.4001 12.57 13.3701 12.63Z" fill="black"/>
</svg>
