<svg width="24" height="24" viewBox="0 0 24 24" fill="none" xmlns="http://www.w3.org/2000/svg">
<path d="M20.07 3.93C18.98 2.84 17.54 2.25 16 2.25C14.46 2.25 13.02 2.85 11.93 3.93L9.09999 6.76C8.00999 7.85 7.41999 9.29 7.41999 10.83C7.41999 11.38 7.51999 11.92 7.66999 12.44L2.73999 17.37C2.21999 17.89 1.92999 18.58 1.92999 19.31C1.92999 20.04 2.21999 20.74 2.73999 21.25C3.27999 21.79 3.97999 22.05 4.67999 22.05C5.37999 22.05 6.08999 21.78 6.61999 21.25L11.56 16.31C12.08 16.46 12.62 16.56 13.16 16.56C14.63 16.56 16.1 16 17.23 14.88L20.06 12.05C21.15 10.96 21.74 9.52 21.74 7.98C21.74 6.44 21.14 5 20.06 3.91L20.07 3.93ZM19.01 4.99C19.81 5.79 20.25 6.86 20.25 7.99C20.25 8.51 20.15 9.01 19.97 9.48L14.51 4.02C14.98 3.84 15.48 3.74 16 3.74C17.14 3.74 18.2 4.18 19.01 4.99ZM5.56999 20.2C5.07999 20.69 4.28999 20.69 3.79999 20.2C3.55999 19.96 3.42999 19.65 3.42999 19.32C3.42999 18.99 3.55999 18.67 3.79999 18.44L8.31999 13.92C8.53999 14.27 8.79999 14.61 9.09999 14.91C9.39999 15.21 9.73999 15.47 10.09 15.69L5.56999 20.21V20.2ZM10.17 13.84C9.36999 13.04 8.92999 11.97 8.92999 10.83C8.92999 10.13 9.11999 9.47 9.42999 8.87L11.72 9.33V11.54C11.72 11.95 12.06 12.29 12.47 12.29H14.68L15.14 14.58C13.54 15.42 11.52 15.18 10.17 13.84ZM16.46 13.56L16.03 11.4C15.96 11.05 15.65 10.8 15.29 10.8H13.21V8.72C13.21 8.36 12.96 8.05 12.61 7.98L10.45 7.55L12.99 5.01C13.05 4.95 13.12 4.91 13.18 4.85L19.16 10.83C19.1 10.89 19.06 10.96 19 11.02L16.46 13.57V13.56Z" fill="black"/>
</svg>
