<svg width="24" height="24" viewBox="0 0 24 24" fill="none" xmlns="http://www.w3.org/2000/svg">
<path d="M21.39 12.36L17.9 10.27C17.35 9.94 16.69 9.93 16.14 10.25C15.58 10.56 15.25 11.13 15.25 11.77V15.77C14.74 15.44 14.15 15.25 13.5 15.25C11.71 15.25 10.25 16.71 10.25 18.5C10.25 20.29 11.71 21.75 13.5 21.75C15.29 21.75 16.75 20.29 16.75 18.5C16.75 18.39 16.73 18.28 16.72 18.17C16.73 18.11 16.75 18.06 16.75 18V11.77C16.75 11.64 16.83 11.58 16.88 11.55C16.93 11.52 17.02 11.49 17.13 11.55L20.62 13.64C20.97 13.85 21.44 13.74 21.65 13.38C21.86 13.03 21.75 12.56 21.39 12.35V12.36ZM13.5 20.25C12.54 20.25 11.75 19.46 11.75 18.5C11.75 17.54 12.54 16.75 13.5 16.75C14.46 16.75 15.25 17.54 15.25 18.5C15.25 19.46 14.46 20.25 13.5 20.25Z" fill="black"/>
<path d="M3 5.75H21C21.41 5.75 21.75 5.41 21.75 5C21.75 4.59 21.41 4.25 21 4.25H3C2.59 4.25 2.25 4.59 2.25 5C2.25 5.41 2.59 5.75 3 5.75Z" fill="black"/>
<path d="M8 19.25H3C2.59 19.25 2.25 19.59 2.25 20C2.25 20.41 2.59 20.75 3 20.75H8C8.41 20.75 8.75 20.41 8.75 20C8.75 19.59 8.41 19.25 8 19.25Z" fill="black"/>
<path d="M9 14.25H3C2.59 14.25 2.25 14.59 2.25 15C2.25 15.41 2.59 15.75 3 15.75H9C9.41 15.75 9.75 15.41 9.75 15C9.75 14.59 9.41 14.25 9 14.25Z" fill="black"/>
<path d="M3 10.75H13C13.41 10.75 13.75 10.41 13.75 10C13.75 9.59 13.41 9.25 13 9.25H3C2.59 9.25 2.25 9.59 2.25 10C2.25 10.41 2.59 10.75 3 10.75Z" fill="black"/>
</svg>
