<svg width="24" height="24" viewBox="0 0 24 24" fill="none" xmlns="http://www.w3.org/2000/svg">
<path d="M12 5.25C11.59 5.25 11.25 5.59 11.25 6V18C11.25 18.41 11.59 18.75 12 18.75C12.41 18.75 12.75 18.41 12.75 18V6C12.75 5.59 12.41 5.25 12 5.25Z" fill="black"/>
<path d="M9.00002 7.25C8.59002 7.25 8.25002 7.59 8.25002 8V16C8.25002 16.41 8.59002 16.75 9.00002 16.75C9.41002 16.75 9.75002 16.41 9.75002 16V8C9.75002 7.59 9.41002 7.25 9.00002 7.25Z" fill="black"/>
<path d="M6.00002 9.25C5.59002 9.25 5.25002 9.59 5.25002 10V14C5.25002 14.41 5.59002 14.75 6.00002 14.75C6.41002 14.75 6.75002 14.41 6.75002 14V10C6.75002 9.59 6.41002 9.25 6.00002 9.25Z" fill="black"/>
<path d="M15 8.25C14.59 8.25 14.25 8.59 14.25 9V15C14.25 15.41 14.59 15.75 15 15.75C15.41 15.75 15.75 15.41 15.75 15V9C15.75 8.59 15.41 8.25 15 8.25Z" fill="black"/>
<path d="M18 6.25C17.59 6.25 17.25 6.59 17.25 7V17C17.25 17.41 17.59 17.75 18 17.75C18.41 17.75 18.75 17.41 18.75 17V7C18.75 6.59 18.41 6.25 18 6.25Z" fill="black"/>
<path d="M21.02 11.25C20.61 11.25 20.27 11.59 20.27 12C20.27 12.41 20.61 12.75 21.02 12.75C21.43 12.75 21.77 12.41 21.77 12C21.77 11.59 21.44 11.25 21.02 11.25Z" fill="black"/>
<path d="M3.02002 11.25C2.61002 11.25 2.27002 11.59 2.27002 12C2.27002 12.41 2.61002 12.75 3.02002 12.75C3.43002 12.75 3.77002 12.41 3.77002 12C3.77002 11.59 3.44002 11.25 3.02002 11.25Z" fill="black"/>
</svg>
