<svg width="24" height="24" viewBox="0 0 24 24" fill="none" xmlns="http://www.w3.org/2000/svg">
<path d="M19 16.25C18.81 16.25 18.62 16.27 18.44 16.31C19.27 15.08 19.75 13.59 19.75 12C19.75 10.41 19.27 8.92 18.44 7.69C18.62 7.73 18.81 7.75 19 7.75C20.52 7.75 21.75 6.52 21.75 5C21.75 3.48 20.52 2.25 19 2.25C17.48 2.25 16.25 3.48 16.25 5C16.25 5.19 16.27 5.38 16.31 5.56C15.08 4.73 13.59 4.25 12 4.25C10.41 4.25 8.92 4.73 7.69 5.56C7.73 5.38 7.75 5.19 7.75 5C7.75 3.48 6.52 2.25 5 2.25C3.48 2.25 2.25 3.48 2.25 5C2.25 6.52 3.48 7.75 5 7.75C5.19 7.75 5.38 7.73 5.56 7.69C4.73 8.92 4.25 10.41 4.25 12C4.25 13.59 4.73 15.08 5.56 16.31C5.38 16.27 5.19 16.25 5 16.25C3.48 16.25 2.25 17.48 2.25 19C2.25 20.52 3.48 21.75 5 21.75C6.52 21.75 7.75 20.52 7.75 19C7.75 18.81 7.73 18.62 7.69 18.44C8.92 19.27 10.41 19.75 12 19.75C13.59 19.75 15.08 19.27 16.31 18.44C16.27 18.62 16.25 18.81 16.25 19C16.25 20.52 17.48 21.75 19 21.75C20.52 21.75 21.75 20.52 21.75 19C21.75 17.48 20.52 16.25 19 16.25ZM12 16.75C9.38 16.75 7.25 14.62 7.25 12C7.25 9.38 9.38 7.25 12 7.25C14.62 7.25 16.75 9.38 16.75 12C16.75 14.62 14.62 16.75 12 16.75Z" fill="black"/>
<path d="M12 15.25C13.7949 15.25 15.25 13.7949 15.25 12C15.25 10.2051 13.7949 8.75 12 8.75C10.2051 8.75 8.75 10.2051 8.75 12C8.75 13.7949 10.2051 15.25 12 15.25Z" fill="black"/>
</svg>
