<svg width="24" height="24" viewBox="0 0 24 24" fill="none" xmlns="http://www.w3.org/2000/svg">
<path d="M20.47 16.76L20.05 17.18C19.97 17.26 19.83 17.28 19.73 17.21L17.86 15.96C17.79 15.91 17.75 15.84 17.75 15.75V14.69L18.9 15.46C19.19 15.66 19.53 15.75 19.87 15.75C20.32 15.75 20.77 15.58 21.11 15.24L21.53 14.82C21.82 14.53 21.82 14.05 21.53 13.76C21.24 13.47 20.76 13.47 20.47 13.76L20.05 14.18C19.97 14.26 19.83 14.28 19.73 14.21L17.75 12.89V6C17.75 3.93 16.07 2.25 14 2.25C11.93 2.25 10.25 3.93 10.25 6V6.25H6C4.48 6.25 3.25 7.48 3.25 9V19C3.25 20.52 4.48 21.75 6 21.75H12C13.52 21.75 14.75 20.52 14.75 19V9C14.75 7.48 13.52 6.25 12 6.25H11.75V6C11.75 4.76 12.76 3.75 14 3.75C15.24 3.75 16.25 4.76 16.25 6V15.75C16.25 16.34 16.54 16.88 17.03 17.21L18.9 18.46C19.19 18.66 19.53 18.75 19.87 18.75C20.32 18.75 20.77 18.58 21.11 18.24L21.53 17.82C21.82 17.53 21.82 17.05 21.53 16.76C21.24 16.47 20.76 16.47 20.47 16.76ZM10 17.75H8C7.59 17.75 7.25 17.41 7.25 17C7.25 16.59 7.59 16.25 8 16.25H10C10.41 16.25 10.75 16.59 10.75 17C10.75 17.41 10.41 17.75 10 17.75ZM11.75 13C11.75 13.41 11.41 13.75 11 13.75H7C6.59 13.75 6.25 13.41 6.25 13V10C6.25 9.59 6.59 9.25 7 9.25H11C11.41 9.25 11.75 9.59 11.75 10V13Z" fill="black"/>
<path d="M10.25 10.75H7.75V12.25H10.25V10.75Z" fill="black"/>
</svg>
