<svg width="24" height="24" viewBox="0 0 24 24" fill="none" xmlns="http://www.w3.org/2000/svg">
<path d="M12 8.25C10.48 8.25 9.25 9.48 9.25 11C9.25 12.52 10.48 13.75 12 13.75C13.52 13.75 14.75 12.52 14.75 11C14.75 9.48 13.52 8.25 12 8.25ZM12 12.25C11.31 12.25 10.75 11.69 10.75 11C10.75 10.31 11.31 9.75 12 9.75C12.69 9.75 13.25 10.31 13.25 11C13.25 11.69 12.69 12.25 12 12.25Z" fill="black"/>
<path d="M12 5.25C8.83 5.25 6.25 7.83 6.25 11C6.25 12.26 6.65 13.45 7.4 14.45C7.55 14.65 7.77 14.75 8 14.75C8.16 14.75 8.31 14.7 8.45 14.6C8.78 14.35 8.85 13.88 8.6 13.55C8.04 12.81 7.75 11.93 7.75 11C7.75 8.66 9.66 6.75 12 6.75C14.34 6.75 16.25 8.66 16.25 11C16.25 11.93 15.96 12.81 15.4 13.55C15.15 13.88 15.22 14.35 15.55 14.6C15.88 14.85 16.35 14.78 16.6 14.45C17.35 13.45 17.75 12.26 17.75 11C17.75 7.83 15.17 5.25 12 5.25Z" fill="black"/>
<path d="M12 2.25C7.18 2.25 3.25 6.18 3.25 11C3.25 13.13 4.03 15.19 5.44 16.79C5.71 17.1 6.19 17.13 6.5 16.86C6.81 16.59 6.84 16.11 6.57 15.8C5.4 14.48 4.76 12.77 4.76 11.01C4.76 7.01 8.01 3.76 12.01 3.76C16.01 3.76 19.26 7.01 19.26 11.01C19.26 12.78 18.62 14.48 17.45 15.8C17.18 16.11 17.21 16.58 17.52 16.86C17.66 16.99 17.84 17.05 18.02 17.05C18.23 17.05 18.43 16.96 18.58 16.8C19.99 15.2 20.77 13.15 20.77 11.01C20.77 6.19 16.85 2.26 12.02 2.26L12 2.25Z" fill="black"/>
<path d="M11.22 15.25C10.69 15.25 10.2 15.48 9.87 15.89C9.54 16.3 9.4 16.83 9.51 17.34L10.11 20.34C10.27 21.15 10.99 21.75 11.83 21.75H12.19C13.02 21.75 13.74 21.16 13.91 20.34L14.51 17.34C14.61 16.82 14.48 16.29 14.15 15.89C13.82 15.49 13.32 15.25 12.8 15.25H11.22ZM12.43 20.05C12.41 20.17 12.3 20.25 12.18 20.25H11.82C11.7 20.25 11.6 20.17 11.57 20.05L10.97 17.05C10.95 16.95 10.99 16.88 11.02 16.84C11.05 16.8 11.11 16.75 11.21 16.75H12.77C12.87 16.75 12.94 16.81 12.96 16.84C12.99 16.87 13.03 16.95 13.01 17.05L12.41 20.05H12.43Z" fill="black"/>
</svg>
