<svg width="24" height="24" viewBox="0 0 24 24" fill="none" xmlns="http://www.w3.org/2000/svg">
<path d="M21.3399 6.69006L17.5599 2.91006C16.8499 2.20006 15.6999 2.20006 14.9899 2.91006L13.2499 4.65006L12.6199 4.02006C12.3799 3.78006 12.0699 3.65006 11.7399 3.65006C11.4099 3.65006 11.0899 3.78006 10.8599 4.02006L3.98991 10.8701C3.49991 11.3601 3.49991 12.1501 3.98991 12.6401L4.61991 13.2701L2.87991 15.0101C2.16991 15.7201 2.16991 16.8701 2.87991 17.5801L6.65991 21.3601C6.99991 21.7001 7.45991 21.8901 7.94991 21.8901C8.43991 21.8901 8.88991 21.7001 9.23991 21.3601L21.3399 9.26006C21.6799 8.92006 21.8699 8.46006 21.8699 7.97006C21.8699 7.48006 21.6799 7.03006 21.3399 6.68006V6.69006ZM11.7299 5.26006L12.9399 6.47006L6.43991 12.9701L5.23991 11.7701L11.7399 5.27006L11.7299 5.26006ZM10.2199 18.2601L9.00991 17.0501L10.9699 15.0901L12.1799 16.3001L10.2199 18.2601ZM13.9999 12.0601L15.2099 13.2701L13.2499 15.2301L12.0399 14.0201L13.9999 12.0601ZM16.2699 12.2101L15.0599 11.0001L17.0199 9.04006L18.2299 10.2501L16.2699 12.2101ZM20.2799 8.20006L19.2999 9.18006L17.9199 7.79006C17.4299 7.30006 16.6399 7.30006 16.1499 7.79006L7.76991 16.1701C7.27991 16.6601 7.27991 17.4501 7.76991 17.9401L9.15991 19.3201L8.17991 20.3001C8.09991 20.3801 7.99991 20.3901 7.94991 20.3901C7.89991 20.3901 7.80991 20.3801 7.71991 20.3001L3.93991 16.5201C3.80991 16.3901 3.80991 16.1901 3.93991 16.0701L5.69991 14.3101C5.91991 14.4701 6.16991 14.5701 6.42991 14.5701C6.74991 14.5701 7.06991 14.4501 7.30991 14.2001L14.1699 7.34006C14.6099 6.90006 14.6299 6.21006 14.2699 5.73006L16.0299 3.96006C16.1899 3.80006 16.3199 3.79006 16.4799 3.96006L20.2599 7.74006C20.3399 7.82006 20.3499 7.91006 20.3499 7.96006C20.3499 8.01006 20.3399 8.10006 20.2599 8.19006L20.2799 8.20006Z" fill="black"/>
</svg>
