<svg width="24" height="24" viewBox="0 0 24 24" fill="none" xmlns="http://www.w3.org/2000/svg">
<path d="M3.75 12.0001C3.75 9.11007 6.1 6.75007 9 6.75007H13.19L12.47 7.47007C12.18 7.76007 12.18 8.24007 12.47 8.53007C12.62 8.68007 12.81 8.75007 13 8.75007C13.19 8.75007 13.38 8.68007 13.53 8.53007L15.53 6.53007C15.6 6.46007 15.65 6.38007 15.69 6.29007C15.77 6.11007 15.77 5.90007 15.69 5.72007C15.65 5.63007 15.6 5.55007 15.53 5.48007L13.53 3.48007C13.24 3.19007 12.76 3.19007 12.47 3.48007C12.18 3.77007 12.18 4.25007 12.47 4.54007L13.19 5.26007H9C5.28 5.26007 2.25 8.29007 2.25 12.0101C2.25 14.2801 3.38 16.3801 5.27 17.6401C5.4 17.7201 5.54 17.7701 5.68 17.7701C5.92 17.7701 6.16 17.6501 6.31 17.4401C6.54 17.1001 6.45 16.6301 6.1 16.4001C4.63 15.4201 3.75 13.7901 3.75 12.0201V12.0001Z" fill="black"/>
<path d="M18.73 6.38007C18.39 6.15007 17.92 6.24007 17.69 6.59007C17.46 6.93007 17.55 7.40007 17.9 7.63007C19.37 8.61007 20.25 10.2401 20.25 12.0101C20.25 14.9001 17.9 17.2601 15 17.2601H10.81L11.53 16.5401C11.82 16.2501 11.82 15.7701 11.53 15.4801C11.24 15.1901 10.76 15.1901 10.47 15.4801L8.47 17.4801C8.4 17.5501 8.35 17.6301 8.31 17.7201C8.23 17.9001 8.23 18.1101 8.31 18.2901C8.35 18.3801 8.4 18.4601 8.47 18.5301L10.47 20.5301C10.62 20.6801 10.81 20.7501 11 20.7501C11.19 20.7501 11.38 20.6801 11.53 20.5301C11.82 20.2401 11.82 19.7601 11.53 19.4701L10.81 18.7501H15C18.72 18.7501 21.75 15.7201 21.75 12.0001C21.75 9.73007 20.62 7.63007 18.73 6.37007V6.38007Z" fill="black"/>
</svg>
