<svg width="24" height="24" viewBox="0 0 24 24" fill="none" xmlns="http://www.w3.org/2000/svg">
<path d="M12 2.25C6.62 2.25 2.25 6.62 2.25 12C2.25 17.38 6.62 21.75 12 21.75C17.38 21.75 21.75 17.38 21.75 12C21.75 6.62 17.38 2.25 12 2.25ZM12 20.25C7.45 20.25 3.75 16.55 3.75 12C3.75 7.45 7.45 3.75 12 3.75C16.55 3.75 20.25 7.45 20.25 12C20.25 16.55 16.55 20.25 12 20.25Z" fill="black"/>
<path d="M12 7.25C9.38 7.25 7.25 9.38 7.25 12C7.25 14.62 9.38 16.75 12 16.75C14.62 16.75 16.75 14.62 16.75 12C16.75 9.38 14.62 7.25 12 7.25ZM12 15.25C10.21 15.25 8.75 13.79 8.75 12C8.75 10.21 10.21 8.75 12 8.75C13.79 8.75 15.25 10.21 15.25 12C15.25 13.79 13.79 15.25 12 15.25Z" fill="black"/>
<path d="M12.02 11.25C11.61 11.25 11.27 11.59 11.27 12C11.27 12.41 11.61 12.75 12.02 12.75C12.43 12.75 12.77 12.41 12.77 12C12.77 11.59 12.44 11.25 12.02 11.25Z" fill="black"/>
</svg>
