<svg width="24" height="24" viewBox="0 0 24 24" fill="none" xmlns="http://www.w3.org/2000/svg">
<path d="M21.75 8C21.75 4.83 19.17 2.25 16 2.25C13.82 2.25 11.93 3.46 10.95 5.25H9C5.28 5.25 2.25 8.28 2.25 12C2.25 14.4 3.54 16.64 5.62 17.85C5.74 17.92 5.87 17.95 6 17.95C6.26 17.95 6.51 17.82 6.65 17.58C6.86 17.22 6.73 16.76 6.38 16.55C4.76 15.61 3.75 13.87 3.75 12C3.75 9.11 6.11 6.75 9 6.75H10.39C10.3 7.15 10.25 7.57 10.25 8C10.25 11.17 12.83 13.75 16 13.75C17.68 13.75 19.19 13.02 20.24 11.87C20.24 11.91 20.25 11.95 20.25 12C20.25 14.89 17.89 17.25 15 17.25H11.81L12.53 16.53C12.82 16.24 12.82 15.76 12.53 15.47C12.24 15.18 11.76 15.18 11.47 15.47L9.47 17.47C9.4 17.54 9.35 17.62 9.31 17.71C9.23 17.89 9.23 18.1 9.31 18.28C9.35 18.37 9.4 18.45 9.47 18.52L11.47 20.52C11.62 20.67 11.81 20.74 12 20.74C12.19 20.74 12.38 20.67 12.53 20.52C12.82 20.23 12.82 19.75 12.53 19.46L11.81 18.74H15C18.72 18.74 21.75 15.71 21.75 11.99C21.75 11.28 21.62 10.59 21.41 9.93C21.63 9.32 21.75 8.67 21.75 7.99V8ZM16 12.25C13.66 12.25 11.75 10.34 11.75 8C11.75 5.66 13.66 3.75 16 3.75C18.34 3.75 20.25 5.66 20.25 8C20.25 10.34 18.34 12.25 16 12.25Z" fill="black"/>
<path d="M16 5.25C15.59 5.25 15.25 5.59 15.25 6V10C15.25 10.41 15.59 10.75 16 10.75C16.41 10.75 16.75 10.41 16.75 10V6C16.75 5.59 16.41 5.25 16 5.25Z" fill="black"/>
</svg>
