<svg width="24" height="24" viewBox="0 0 24 24" fill="none" xmlns="http://www.w3.org/2000/svg">
<path d="M6 14.75C6.12 14.75 6.23 14.72 6.34 14.67C7.89 13.87 9.53 13.22 11.21 12.72C12.79 12.26 14.42 11.93 16.05 11.75H17C17.69 11.75 18.25 12.31 18.25 13C18.25 13.69 17.69 14.25 17 14.25H12C11.59 14.25 11.25 14.59 11.25 15C11.25 15.41 11.59 15.75 12 15.75H17C18.52 15.75 19.75 14.52 19.75 13C19.75 11.48 18.52 10.25 17 10.25H16.19C14.82 9.54 13.59 8.62 12.55 7.49C11.28 6.12 10.32 4.53 9.71 2.76C9.6 2.45 9.34 2.25 8.98 2.26C8.65 2.27 8.37 2.49 8.28 2.81L5.28 13.81C5.2 14.1 5.3 14.4 5.53 14.59C5.67 14.7 5.83 14.76 6 14.76V14.75Z" fill="black"/>
<path d="M20 20.25H18.75V19C18.75 18.04 17.96 17.25 17 17.25H7C6.04 17.25 5.25 18.04 5.25 19V20.25H4C3.59 20.25 3.25 20.59 3.25 21C3.25 21.41 3.59 21.75 4 21.75H20C20.41 21.75 20.75 21.41 20.75 21C20.75 20.59 20.41 20.25 20 20.25Z" fill="black"/>
</svg>
