<svg width="24" height="24" viewBox="0 0 24 24" fill="none" xmlns="http://www.w3.org/2000/svg">
<path d="M21.51 9.83C21.42 9.43 21.02 9.17 20.61 9.26C20.21 9.35 19.95 9.75 20.04 10.16C20.18 10.76 20.24 11.37 20.24 11.99C20.24 16.54 16.54 20.24 11.99 20.24C7.44 20.24 3.75 16.55 3.75 12C3.75 7.45 7.45 3.75 12 3.75C12.41 3.75 12.75 3.41 12.75 3C12.75 2.59 12.41 2.25 12 2.25C6.62 2.25 2.25 6.62 2.25 12C2.25 17.38 6.62 21.75 12 21.75C17.38 21.75 21.75 17.38 21.75 12C21.75 11.27 21.67 10.54 21.51 9.83Z" fill="black"/>
<path d="M12 8.25C9.93 8.25 8.25 9.93 8.25 12C8.25 14.07 9.93 15.75 12 15.75C14.07 15.75 15.75 14.07 15.75 12V4.65C16.77 5.17 17.69 5.92 18.42 6.82C18.68 7.14 19.15 7.19 19.47 6.93C19.79 6.67 19.84 6.2 19.58 5.88C18.63 4.7 17.4 3.75 16.03 3.13C15.63 2.95 15.18 2.98 14.82 3.22C14.46 3.45 14.25 3.84 14.25 4.27V9.04C13.62 8.56 12.85 8.27 12 8.27V8.25ZM12 14.25C10.76 14.25 9.75 13.24 9.75 12C9.75 10.76 10.76 9.75 12 9.75C13.24 9.75 14.25 10.76 14.25 12C14.25 13.24 13.24 14.25 12 14.25Z" fill="black"/>
</svg>
