<svg width="24" height="24" viewBox="0 0 24 24" fill="none" xmlns="http://www.w3.org/2000/svg">
<path d="M21.64 4.60999C21.43 4.24999 20.97 4.13999 20.61 4.34999L10.61 10.35C10.25 10.56 10.14 11.02 10.35 11.38C10.49 11.61 10.74 11.74 10.99 11.74C11.12 11.74 11.25 11.71 11.38 11.63L15.08 9.40999C16.56 9.90999 17.24 10.55 17.24 10.99C17.24 11.91 14.61 13.24 10.49 13.24C6.36999 13.24 3.73999 11.91 3.73999 10.99C3.73999 10.07 6.36999 8.73999 10.49 8.73999C10.9 8.73999 11.24 8.39999 11.24 7.98999C11.24 7.57999 10.9 7.23999 10.49 7.23999C6.48999 7.23999 2.23999 8.54999 2.23999 10.99V16.99C2.23999 19.43 6.48999 20.74 10.49 20.74C14.49 20.74 18.74 19.43 18.74 16.99V10.99C18.74 9.98999 18.02 9.10999 16.69 8.44999L21.38 5.63999C21.74 5.42999 21.85 4.96999 21.64 4.60999ZM3.74999 13.22C4.64999 13.79 5.88999 14.2 7.24999 14.46V18.95C5.04999 18.5 3.74999 17.65 3.74999 17.01V13.22ZM8.74999 19.16V14.66C9.32999 14.72 9.91999 14.75 10.5 14.75C11.08 14.75 11.67 14.72 12.25 14.66V19.16C11.7 19.21 11.12 19.25 10.5 19.25C9.87999 19.25 9.29999 19.22 8.74999 19.16ZM13.75 18.94V14.45C15.11 14.2 16.35 13.78 17.25 13.21V16.99C17.25 17.63 15.95 18.48 13.75 18.93V18.94Z" fill="black"/>
</svg>
