<svg width="24" height="24" viewBox="0 0 24 24" fill="none" xmlns="http://www.w3.org/2000/svg">
<path d="M21.0199 4.4L19.6099 2.99C18.5399 1.92 16.7899 1.92 15.7199 2.99L2.98993 15.71C2.46993 16.23 2.17993 16.92 2.17993 17.65C2.17993 18.38 2.46993 19.08 2.98993 19.59L4.39993 21C4.93993 21.54 5.63993 21.8 6.33993 21.8C7.03993 21.8 7.74993 21.53 8.28993 21L21.0199 8.27C21.5399 7.75 21.8299 7.06 21.8299 6.33C21.8299 5.6 21.5399 4.9 21.0199 4.39V4.4ZM7.22993 19.96C6.73993 20.45 5.94993 20.45 5.45993 19.96L4.04993 18.55C3.80993 18.31 3.67993 18 3.67993 17.67C3.67993 17.34 3.80993 17.02 4.04993 16.79L5.63993 15.2L8.81993 18.38L7.22993 19.97V19.96ZM19.9599 7.23L9.87993 17.31L6.69993 14.13L16.7699 4.04C17.0099 3.8 17.3299 3.67 17.6499 3.67C17.9699 3.67 18.2899 3.79 18.5299 4.04L19.9399 5.45C20.1799 5.69 20.3099 6 20.3099 6.33C20.3099 6.66 20.1799 6.98 19.9399 7.21L19.9599 7.23Z" fill="black"/>
<path d="M17.6799 5.59C17.2699 5.59 16.9299 5.93 16.9299 6.34C16.9299 6.75 17.2699 7.09 17.6799 7.09C18.0899 7.09 18.4299 6.75 18.4299 6.34C18.4299 5.93 18.0999 5.59 17.6799 5.59Z" fill="black"/>
<path d="M15.5499 7.71C15.1399 7.71 14.7999 8.05 14.7999 8.46C14.7999 8.87 15.1399 9.21 15.5499 9.21C15.9599 9.21 16.2999 8.87 16.2999 8.46C16.2999 8.05 15.9699 7.71 15.5499 7.71Z" fill="black"/>
<path d="M13.4299 9.84C13.0199 9.84 12.6799 10.18 12.6799 10.59C12.6799 11 13.0199 11.34 13.4299 11.34C13.8399 11.34 14.1799 11 14.1799 10.59C14.1799 10.18 13.8499 9.84 13.4299 9.84Z" fill="black"/>
</svg>
