<svg width="24" height="24" viewBox="0 0 24 24" fill="none" xmlns="http://www.w3.org/2000/svg">
<path d="M19 5.25H5C3.48 5.25 2.25 6.48 2.25 8V16C2.25 17.52 3.48 18.75 5 18.75H19C20.52 18.75 21.75 17.52 21.75 16V8C21.75 6.48 20.52 5.25 19 5.25ZM20.25 16C20.25 16.69 19.69 17.25 19 17.25H5C4.31 17.25 3.75 16.69 3.75 16V8C3.75 7.31 4.31 6.75 5 6.75H19C19.69 6.75 20.25 7.31 20.25 8V16Z" fill="black"/>
<path d="M9 8.25C6.93 8.25 5.25 9.93 5.25 12C5.25 14.07 6.93 15.75 9 15.75C11.07 15.75 12.75 14.07 12.75 12C12.75 9.93 11.07 8.25 9 8.25ZM9 14.25C7.76 14.25 6.75 13.24 6.75 12C6.75 10.76 7.76 9.75 9 9.75C10.24 9.75 11.25 10.76 11.25 12C11.25 13.24 10.24 14.25 9 14.25Z" fill="black"/>
<path d="M17 8.25C16.59 8.25 16.25 8.59 16.25 9V12.17C16.25 12.5 16.12 12.82 15.88 13.05L14.47 14.46C14.18 14.75 14.18 15.23 14.47 15.52C14.62 15.67 14.81 15.74 15 15.74C15.19 15.74 15.38 15.67 15.53 15.52L16.94 14.11C17.46 13.59 17.75 12.9 17.75 12.17V9C17.75 8.59 17.41 8.25 17 8.25Z" fill="black"/>
<path d="M9.02 11.25C8.61 11.25 8.27 11.59 8.27 12C8.27 12.41 8.61 12.75 9.02 12.75C9.43 12.75 9.77 12.41 9.77 12C9.77 11.59 9.44 11.25 9.02 11.25Z" fill="black"/>
</svg>
