<svg width="24" height="24" viewBox="0 0 24 24" fill="none" xmlns="http://www.w3.org/2000/svg">
<path d="M19 6.25H16.51C15.75 4.46 13.97 3.25 12 3.25C10.03 3.25 8.25 4.46 7.49 6.25H5C3.48 6.25 2.25 7.48 2.25 9V17C2.25 18.52 3.48 19.75 5 19.75H19C20.52 19.75 21.75 18.52 21.75 17V9C21.75 7.48 20.52 6.25 19 6.25ZM12 4.75C13.15 4.75 14.2 5.34 14.82 6.25H9.18C9.81 5.34 10.86 4.75 12 4.75ZM5 7.75H19C19.69 7.75 20.25 8.31 20.25 9V10.3C20.17 10.27 20.09 10.25 20 10.25H4C3.91 10.25 3.83 10.27 3.75 10.3V9C3.75 8.31 4.31 7.75 5 7.75ZM19 18.25H5C4.31 18.25 3.75 17.69 3.75 17V11.7C3.83 11.73 3.91 11.75 4 11.75H20C20.09 11.75 20.17 11.73 20.25 11.7V17C20.25 17.69 19.69 18.25 19 18.25Z" fill="black"/>
<path d="M8.02 13.25C7.61 13.25 7.27 13.59 7.27 14C7.27 14.41 7.61 14.75 8.02 14.75C8.43 14.75 8.77 14.41 8.77 14C8.77 13.59 8.44 13.25 8.02 13.25Z" fill="black"/>
<path d="M12.02 13.25C11.61 13.25 11.27 13.59 11.27 14C11.27 14.41 11.61 14.75 12.02 14.75C12.43 14.75 12.77 14.41 12.77 14C12.77 13.59 12.44 13.25 12.02 13.25Z" fill="black"/>
<path d="M16.02 13.25C15.61 13.25 15.27 13.59 15.27 14C15.27 14.41 15.61 14.75 16.02 14.75C16.43 14.75 16.77 14.41 16.77 14C16.77 13.59 16.44 13.25 16.02 13.25Z" fill="black"/>
<path d="M10.02 15.25C9.61 15.25 9.27 15.59 9.27 16C9.27 16.41 9.61 16.75 10.02 16.75C10.43 16.75 10.77 16.41 10.77 16C10.77 15.59 10.44 15.25 10.02 15.25Z" fill="black"/>
<path d="M14.02 15.25C13.61 15.25 13.27 15.59 13.27 16C13.27 16.41 13.61 16.75 14.02 16.75C14.43 16.75 14.77 16.41 14.77 16C14.77 15.59 14.44 15.25 14.02 15.25Z" fill="black"/>
<path d="M18.02 15.25C17.61 15.25 17.27 15.59 17.27 16C17.27 16.41 17.61 16.75 18.02 16.75C18.43 16.75 18.77 16.41 18.77 16C18.77 15.59 18.44 15.25 18.02 15.25Z" fill="black"/>
<path d="M6.02 15.25C5.61 15.25 5.27 15.59 5.27 16C5.27 16.41 5.61 16.75 6.02 16.75C6.43 16.75 6.77 16.41 6.77 16C6.77 15.59 6.44 15.25 6.02 15.25Z" fill="black"/>
</svg>
