<svg width="24" height="24" viewBox="0 0 24 24" fill="none" xmlns="http://www.w3.org/2000/svg">
<path d="M15 2.25H9C6.93 2.25 5.25 3.93 5.25 6V18C5.25 20.07 6.93 21.75 9 21.75H15C17.07 21.75 18.75 20.07 18.75 18V6C18.75 3.93 17.07 2.25 15 2.25ZM17.25 18C17.25 19.24 16.24 20.25 15 20.25H9C7.76 20.25 6.75 19.24 6.75 18V6C6.75 4.76 7.76 3.75 9 3.75H15C16.24 3.75 17.25 4.76 17.25 6V18Z" fill="black"/>
<path d="M12 11.25C9.93 11.25 8.25 12.93 8.25 15C8.25 17.07 9.93 18.75 12 18.75C14.07 18.75 15.75 17.07 15.75 15C15.75 12.93 14.07 11.25 12 11.25ZM12 17.25C10.76 17.25 9.75 16.24 9.75 15C9.75 13.76 10.76 12.75 12 12.75C13.24 12.75 14.25 13.76 14.25 15C14.25 16.24 13.24 17.25 12 17.25Z" fill="black"/>
<path d="M12 9.75C12.9665 9.75 13.75 8.9665 13.75 8C13.75 7.0335 12.9665 6.25 12 6.25C11.0335 6.25 10.25 7.0335 10.25 8C10.25 8.9665 11.0335 9.75 12 9.75Z" fill="black"/>
</svg>
