<svg width="24" height="24" viewBox="0 0 24 24" fill="none" xmlns="http://www.w3.org/2000/svg">
<path d="M8.25 12C8.25 14.07 9.93 15.75 12 15.75C14.07 15.75 15.75 14.07 15.75 12V4.64998C16.77 5.16998 17.69 5.91998 18.42 6.81998C18.68 7.13998 19.15 7.18998 19.47 6.92998C19.79 6.66998 19.84 6.19998 19.58 5.87998C18.63 4.69998 17.4 3.74998 16.03 3.12998C15.63 2.94998 15.18 2.97998 14.82 3.21998C14.46 3.44998 14.25 3.83998 14.25 4.26998V9.03998C13.62 8.55998 12.85 8.26998 12 8.26998C9.93 8.26998 8.25 9.94998 8.25 12.02V12Z" fill="black"/>
<path d="M20.76 7.73998C20.66 7.86998 20.55 7.98998 20.42 8.08998C20.02 8.40998 19.52 8.58998 19.01 8.58998C18.33 8.58998 17.69 8.27998 17.26 7.74998V11.99C17.26 14.89 14.91 17.24 12.01 17.24C9.11 17.24 6.76 14.89 6.76 11.99C6.76 9.08998 9.11 6.73998 12.01 6.73998C12.26 6.73998 12.51 6.75998 12.76 6.78998V4.23998C12.76 3.52998 13.03 2.86998 13.5 2.35998C13.01 2.27998 12.52 2.22998 12.01 2.22998C6.62 2.24998 2.25 6.61998 2.25 12C2.25 17.38 6.62 21.75 12 21.75C17.38 21.75 21.75 17.38 21.75 12C21.75 10.47 21.39 9.02998 20.76 7.73998Z" fill="black"/>
</svg>
