<svg width="24" height="24" viewBox="0 0 24 24" fill="none" xmlns="http://www.w3.org/2000/svg">
<path d="M20.75 10.46L12.84 6.13998C12.29 5.83998 11.64 5.84998 11.11 6.16998C10.57 6.48998 10.25 7.04998 10.25 7.66998V9.08998L4.84 6.13998C4.29 5.83998 3.64 5.84998 3.11 6.16998C2.57 6.48998 2.25 7.04998 2.25 7.66998V16.3C2.25 16.92 2.57 17.49 3.11 17.8C3.39 17.97 3.69 18.05 4 18.05C4.29 18.05 4.57 17.98 4.84 17.83L10.25 14.88V16.3C10.25 16.92 10.57 17.49 11.11 17.8C11.39 17.97 11.69 18.05 12 18.05C12.29 18.05 12.57 17.98 12.84 17.83L20.75 13.51C21.31 13.2 21.66 12.61 21.66 11.97C21.66 11.33 21.31 10.74 20.75 10.43V10.46Z" fill="black"/>
</svg>
