<svg width="24" height="24" viewBox="0 0 24 24" fill="none" xmlns="http://www.w3.org/2000/svg">
<path d="M12 8.25C13.42 8.25 14.7 7 15.11 5.22L15.31 4.52C14.28 4.35 13.17 4.25 12 4.25C10.83 4.25 9.68 4.35 8.64 4.52L8.9 5.29C9.36 7.08 10.6 8.25 12 8.25Z" fill="black"/>
<path d="M5.27 12.49L6.37 11.65C7.4 10.95 8 9.83 8 8.62C8 7.65 7.62 6.74 6.94 6.06L6.19 5.14C3.78 5.99 2.25 7.37 2.25 9C2.25 10.41 3.39 11.64 5.27 12.49Z" fill="black"/>
<path d="M6.95 13.1C8.41 13.51 10.12 13.75 12 13.75C14.04 13.75 15.89 13.47 17.42 12.99L17.13 12.85C15.63 12 14.68 10.5 14.53 8.84C13.79 9.41 12.92 9.75 12 9.75C11.08 9.75 10.22 9.42 9.49 8.87C9.41 10.48 8.59 11.97 7.25 12.88L6.95 13.1Z" fill="black"/>
<path d="M17.83 11.53L19.26 12.23C20.81 11.39 21.74 10.27 21.74 9C21.74 7.34 20.17 5.94 17.68 5.1L16.89 5.99C16.31 6.65 15.99 7.5 15.99 8.38C15.99 9.68 16.69 10.89 17.82 11.53H17.83Z" fill="black"/>
<path d="M2.25 12.25V15C2.25 17.71 6.44 19.75 12 19.75C17.56 19.75 21.75 17.71 21.75 15V12.25C19.86 14.09 16.33 15.25 12 15.25C7.67 15.25 4.14 14.09 2.25 12.25Z" fill="black"/>
</svg>
