<svg width="24" height="24" viewBox="0 0 24 24" fill="none" xmlns="http://www.w3.org/2000/svg">
<path d="M8.68994 14.06C8.36994 14.06 8.04994 14.18 7.80994 14.43C7.56994 14.67 7.43994 14.98 7.43994 15.31C7.43994 15.64 7.56994 15.96 7.80994 16.19C8.29994 16.68 9.08994 16.68 9.57994 16.19C9.81994 15.95 9.94994 15.64 9.94994 15.31C9.94994 14.98 9.81994 14.66 9.57994 14.43C9.33994 14.19 9.01994 14.06 8.69994 14.06H8.68994Z" fill="black"/>
<path d="M21.2399 4.18001L19.8299 2.77001C19.1499 2.09001 18.0399 2.09001 17.3599 2.77001L16.2399 3.89001C15.9099 4.22001 15.7299 4.67001 15.7299 5.13001V6.54001C15.7299 6.75001 15.7699 6.94001 15.8399 7.12001L13.8399 9.12001C13.4299 9.02001 13.0199 8.93001 12.6099 8.89001C11.6899 8.81001 10.7599 8.89001 9.84994 9.14001C9.14994 9.27001 8.44994 9.44001 7.76994 9.65001C6.77994 9.96001 5.79994 10.36 4.86994 10.84C3.49994 11.55 2.57994 12.83 2.34994 14.34C2.11994 15.85 2.59994 17.34 3.67994 18.42L5.57994 20.32C6.47994 21.22 7.66994 21.71 8.91994 21.71C9.16994 21.71 9.41994 21.69 9.66994 21.65C11.1899 21.41 12.4699 20.49 13.1699 19.12C13.6499 18.19 14.0499 17.21 14.3599 16.22C14.5299 15.68 14.6799 15.11 14.7799 14.61C14.9799 13.94 15.0999 13.24 15.1299 12.54C15.1699 11.74 15.0799 10.94 14.8899 10.16L16.8899 8.16001C17.0699 8.23001 17.2699 8.27001 17.4699 8.27001H18.8799C19.3399 8.27001 19.7899 8.08001 20.1199 7.76001L21.2399 6.64001C21.9199 5.96001 21.9199 4.85001 21.2399 4.17001V4.18001ZM10.6299 17.26C10.0899 17.8 9.38994 18.06 8.68994 18.06C7.98994 18.06 7.27994 17.79 6.74994 17.26C6.22994 16.74 5.93994 16.05 5.93994 15.32C5.93994 14.59 6.22994 13.9 6.74994 13.38C7.81994 12.31 9.56994 12.31 10.6399 13.38C11.1599 13.9 11.4499 14.59 11.4499 15.32C11.4499 16.05 11.1599 16.75 10.6399 17.26H10.6299Z" fill="black"/>
</svg>
