<svg width="24" height="24" viewBox="0 0 24 24" fill="none" xmlns="http://www.w3.org/2000/svg">
<path d="M8 14.25C8.69036 14.25 9.25 13.6903 9.25 13C9.25 12.3096 8.69036 11.75 8 11.75C7.30964 11.75 6.75 12.3096 6.75 13C6.75 13.6903 7.30964 14.25 8 14.25Z" fill="black"/>
<path d="M16 14.25C16.6904 14.25 17.25 13.6903 17.25 13C17.25 12.3096 16.6904 11.75 16 11.75C15.3096 11.75 14.75 12.3096 14.75 13C14.75 13.6903 15.3096 14.25 16 14.25Z" fill="black"/>
<path d="M8.26 6.39999C8.43 6.90999 8.91 7.24999 9.45 7.24999H14.57C15.11 7.24999 15.59 6.90999 15.76 6.39999L16.29 4.81999L16.39 4.25999H7.6L7.73 4.83999L8.26 6.39999Z" fill="black"/>
<path d="M19 4.24999H17.9L17.74 5.12999C17.74 5.12999 17.72 5.19999 17.71 5.22999L17.17 6.85999C16.79 7.97999 15.75 8.73999 14.56 8.73999H9.44C8.25 8.73999 7.21 7.97999 6.83 6.85999L6.29 5.22999L6.06 4.23999H5C3.48 4.23999 2.25 5.46999 2.25 6.98999V15.99C2.25 17.51 3.48 18.74 5 18.74H19C20.52 18.74 21.75 17.51 21.75 15.99V6.99999C21.75 5.47999 20.52 4.24999 19 4.24999ZM8 15.75C6.48 15.75 5.25 14.52 5.25 13C5.25 11.48 6.48 10.25 8 10.25C9.52 10.25 10.75 11.48 10.75 13C10.75 13.45 10.63 13.87 10.44 14.25H13.57C13.38 13.87 13.26 13.45 13.26 13C13.26 11.48 14.49 10.25 16.01 10.25C17.53 10.25 18.76 11.48 18.76 13C18.76 14.52 17.53 15.75 16.01 15.75H8Z" fill="black"/>
</svg>
