<svg width="24" height="24" viewBox="0 0 24 24" fill="none" xmlns="http://www.w3.org/2000/svg">
<path d="M19.05 6.6L17.45 5.4C17.06 4.72 16.34 4.25 15.5 4.25H8.5C7.66 4.25 6.94 4.72 6.55 5.4L4.95 6.6C3.26 7.87 2.25 9.89 2.25 12V17C2.25 18.52 3.48 19.75 5 19.75C6.52 19.75 7.75 18.52 7.75 17V16.72C7.83 16.73 7.91 16.75 8 16.75C9.52 16.75 10.75 15.52 10.75 14C10.75 12.48 9.52 11.25 8 11.25C7.04 11.25 6.25 12.04 6.25 13V17C6.25 17.69 5.69 18.25 5 18.25C4.31 18.25 3.75 17.69 3.75 17V12C3.75 10.36 4.54 8.79 5.85 7.8L6.43 7.37C6.77 8.18 7.57 8.75 8.5 8.75H15.5C16.43 8.75 17.23 8.18 17.57 7.37L18.15 7.8C19.46 8.79 20.25 10.36 20.25 12V17C20.25 17.69 19.69 18.25 19 18.25C18.31 18.25 17.75 17.69 17.75 17V13C17.75 12.04 16.96 11.25 16 11.25C14.48 11.25 13.25 12.48 13.25 14C13.25 15.52 14.48 16.75 16 16.75C16.09 16.75 16.17 16.74 16.25 16.72V17C16.25 18.52 17.48 19.75 19 19.75C20.52 19.75 21.75 18.52 21.75 17V12C21.75 9.89 20.74 7.87 19.05 6.6Z" fill="black"/>
</svg>
