<svg width="24" height="24" viewBox="0 0 24 24" fill="none" xmlns="http://www.w3.org/2000/svg">
<path d="M13.24 13.18C12.56 12.5 11.45 12.5 10.77 13.18L7.18 16.77C6.68 17.27 6.53 18.02 6.8 18.68C7.07 19.34 7.71 19.76 8.42 19.76H15.59C16.3 19.76 16.93 19.34 17.21 18.68C17.48 18.02 17.33 17.27 16.83 16.77L13.24 13.18Z" fill="black"/>
<path d="M19 4.25H5C3.48 4.25 2.25 5.48 2.25 7V15C2.25 15.96 2.76 16.87 3.59 17.36C3.71 17.43 3.84 17.47 3.97 17.47H5.21C5.32 16.82 5.62 16.2 6.11 15.7L9.7 12.11C10.31 11.5 11.13 11.16 12 11.16C12.87 11.16 13.68 11.5 14.3 12.11L17.89 15.7C18.39 16.2 18.69 16.83 18.8 17.5H19.97C20.1 17.5 20.22 17.47 20.33 17.41C21.21 16.93 21.75 16 21.75 15V7C21.75 5.48 20.52 4.25 19 4.25Z" fill="black"/>
</svg>
