<svg width="24" height="24" viewBox="0 0 24 24" fill="none" xmlns="http://www.w3.org/2000/svg">
<path d="M19.87 13.81L16.09 10.03C15.8 9.74 15.32 9.74 15.03 10.03C14.74 10.32 14.74 10.8 15.03 11.09H15.04C14.64 11.67 14.19 12.08 13.68 12.32C13.43 12.43 13.18 12.51 12.95 12.58C12.88 12.6 12.81 12.62 12.74 12.64V10.75H12.99C13.4 10.75 13.74 10.41 13.74 10C13.74 9.59 13.4 9.25 12.99 9.25H12.74V7.75H12.99C13.4 7.75 13.74 7.41 13.74 7C13.74 6.59 13.4 6.25 12.99 6.25H12.66C12.3 3.99 10.35 2.25 7.98999 2.25H4.98999C4.02999 2.25 3.23999 3.04 3.23999 4V5C3.23999 5.96 4.02999 6.75 4.98999 6.75H7.98999C8.12999 6.75 8.23999 6.86 8.23999 7V17.41C8.23999 19.8 10.19 21.75 12.58 21.75C14.6 21.75 16.35 20.33 16.83 18.3C16.99 17.62 17.26 16.98 17.63 16.41C17.99 15.86 18.45 15.4 18.98 14.98C19.09 15.04 19.22 15.09 19.34 15.09C19.53 15.09 19.72 15.02 19.87 14.87C20.16 14.58 20.16 14.1 19.87 13.81ZM4.74999 5V4C4.74999 3.86 4.85999 3.75 4.99999 3.75H6.24999V5.25H4.99999C4.85999 5.25 4.74999 5.14 4.74999 5ZM16.37 15.59C15.91 16.31 15.57 17.1 15.37 17.95C15.06 19.3 13.91 20.24 12.59 20.24C11.03 20.24 9.74999 18.97 9.74999 17.4V7C9.74999 6.04 8.95999 5.25 7.99999 5.25H7.74999V3.75H7.99999C9.78999 3.75 11.25 5.21 11.25 7V14C11.25 14.35 11.49 14.65 11.83 14.73C12.17 14.81 12.52 14.64 12.67 14.32C12.73 14.2 13.06 14.1 13.38 14.01C13.66 13.93 13.98 13.83 14.31 13.68C14.99 13.37 15.6 12.86 16.12 12.18L17.86 13.92C17.28 14.4 16.78 14.97 16.37 15.6V15.59Z" fill="black"/>
</svg>
