<svg width="24" height="24" viewBox="0 0 24 24" fill="none" xmlns="http://www.w3.org/2000/svg">
<path d="M21.0899 2.63001C20.6699 2.30001 20.1299 2.17001 19.6099 2.29001L8.60993 4.83001C7.80993 5.01001 7.24993 5.71001 7.24993 6.54001V7.57001L3.47993 4.43001C3.15993 4.16001 2.68993 4.21001 2.41993 4.53001C2.14993 4.85001 2.19993 5.32001 2.51993 5.59001L20.5199 20.59C20.6599 20.71 20.8299 20.76 20.9999 20.76C21.2099 20.76 21.4299 20.67 21.5799 20.49C21.8499 20.17 21.7999 19.7 21.4799 19.43L20.6199 18.71C21.3299 18.1 21.7499 17.21 21.7499 16.25C21.7499 16.14 21.7299 16.03 21.7199 15.92C21.7299 15.86 21.7499 15.81 21.7499 15.75V4.00001C21.7499 3.46001 21.5099 2.96001 21.0899 2.63001ZM18.4999 12.99C17.3199 12.99 16.2699 13.63 15.6999 14.6L11.1199 10.79L20.2499 8.68001V13.51C19.7399 13.18 19.1499 12.99 18.4999 12.99ZM8.74993 8.74001V6.54001C8.74993 6.42001 8.82993 6.32001 8.93993 6.30001L19.9399 3.76001C20.0399 3.74001 20.1199 3.78001 20.1499 3.81001C20.1899 3.84001 20.2399 3.90001 20.2399 4.00001V7.15001L9.66993 9.59001L8.72993 8.81001C8.72993 8.81001 8.73993 8.77001 8.73993 8.75001L8.74993 8.74001ZM16.8999 15.6C17.1599 14.95 17.7799 14.49 18.4999 14.49C19.4599 14.49 20.2499 15.28 20.2499 16.24C20.2499 16.85 19.9299 17.39 19.4199 17.71L16.8999 15.61V15.6Z" fill="black"/>
<path d="M7.99993 11.99C7.58993 11.99 7.24993 12.33 7.24993 12.74V15.51C6.73993 15.18 6.14993 14.99 5.49993 14.99C3.70993 14.99 2.24993 16.45 2.24993 18.24C2.24993 20.03 3.70993 21.49 5.49993 21.49C7.28993 21.49 8.74993 20.03 8.74993 18.24C8.74993 18.13 8.72993 18.02 8.71993 17.91C8.72993 17.85 8.74993 17.8 8.74993 17.74V12.74C8.74993 12.33 8.40993 11.99 7.99993 11.99ZM5.49993 19.99C4.53993 19.99 3.74993 19.2 3.74993 18.24C3.74993 17.28 4.53993 16.49 5.49993 16.49C6.45993 16.49 7.24993 17.28 7.24993 18.24C7.24993 19.2 6.45993 19.99 5.49993 19.99Z" fill="black"/>
</svg>
