<svg width="24" height="24" viewBox="0 0 24 24" fill="none" xmlns="http://www.w3.org/2000/svg">
<path d="M20 2.25H15.75V5C15.75 5.96 14.96 6.75 14 6.75H10C9.04 6.75 8.25 5.96 8.25 5V2.25H4C3.04 2.25 2.25 3.04 2.25 4V8.25H21.75V4C21.75 3.04 20.96 2.25 20 2.25ZM6.02 6.75C5.61 6.75 5.27 6.41 5.27 6C5.27 5.59 5.6 5.25 6.01 5.25H6.02C6.43 5.25 6.77 5.59 6.77 6C6.77 6.41 6.43 6.75 6.02 6.75ZM18.02 6.75C17.61 6.75 17.27 6.41 17.27 6C17.27 5.59 17.6 5.25 18.01 5.25H18.02C18.43 5.25 18.77 5.59 18.77 6C18.77 6.41 18.43 6.75 18.02 6.75Z" fill="black"/>
<path d="M17.75 12C17.75 12.41 17.41 12.75 17 12.75C16.59 12.75 16.25 12.41 16.25 12V9.75H12.75V12C12.75 12.41 12.41 12.75 12 12.75C11.59 12.75 11.25 12.41 11.25 12V9.75H7.75V12C7.75 12.41 7.41 12.75 7 12.75C6.59 12.75 6.25 12.41 6.25 12V9.75H2.25V14.25H21.75V9.75H17.75V12Z" fill="black"/>
<path d="M17.75 18C17.75 18.41 17.41 18.75 17 18.75C16.59 18.75 16.25 18.41 16.25 18V15.75H12.75V18C12.75 18.41 12.41 18.75 12 18.75C11.59 18.75 11.25 18.41 11.25 18V15.75H7.75V18C7.75 18.41 7.41 18.75 7 18.75C6.59 18.75 6.25 18.41 6.25 18V15.75H2.25V20C2.25 20.96 3.04 21.75 4 21.75H20C20.96 21.75 21.75 20.96 21.75 20V15.75H17.75V18Z" fill="black"/>
<path d="M10 5.25H14C14.14 5.25 14.25 5.14 14.25 5V2.25H9.75V5C9.75 5.14 9.86 5.25 10 5.25Z" fill="black"/>
</svg>
