<svg width="24" height="24" viewBox="0 0 24 24" fill="none" xmlns="http://www.w3.org/2000/svg">
<path d="M12.66 7.30007C12.37 7.59007 12.37 8.07007 12.66 8.36007L15.49 11.1901C15.63 11.3301 15.82 11.4101 16.02 11.4101C16.22 11.4101 16.41 11.3301 16.55 11.1901L18.85 8.89007L14.96 5.00007L12.66 7.30007Z" fill="black"/>
<path d="M20.79 3.06007C19.72 1.99007 17.97 1.99007 16.9 3.06007L16.02 3.94007L19.91 7.83007L20.79 6.95007C21.86 5.88007 21.86 4.13007 20.79 3.06007Z" fill="black"/>
<path d="M14.43 12.2501L11.6 9.42007C11.1 8.92007 10.89 8.24007 10.97 7.58007L5.58999 12.9601C4.30999 14.2401 4.14999 16.2401 5.11999 17.6901L2.44999 20.4901C2.15999 20.7901 2.17999 21.2601 2.47999 21.5501C2.62999 21.6901 2.80999 21.7601 2.99999 21.7601C3.19999 21.7601 3.39999 21.6801 3.53999 21.5301L6.18999 18.7601C6.80999 19.1701 7.52999 19.3701 8.23999 19.3701C9.19999 19.3701 10.16 19.0001 10.89 18.2701L16.26 12.9001C16.18 12.9001 16.1 12.9201 16.01 12.9201C15.41 12.9201 14.84 12.6901 14.42 12.2601L14.43 12.2501Z" fill="black"/>
</svg>
