<svg width="24" height="24" viewBox="0 0 24 24" fill="none" xmlns="http://www.w3.org/2000/svg">
<path d="M12 9.25001C10.48 9.25001 9.25 10.48 9.25 12C9.25 13.52 10.48 14.75 12 14.75C13.52 14.75 14.75 13.52 14.75 12C14.75 10.48 13.52 9.25001 12 9.25001ZM12 13.25C11.31 13.25 10.75 12.69 10.75 12C10.75 11.31 11.31 10.75 12 10.75C12.69 10.75 13.25 11.31 13.25 12C13.25 12.69 12.69 13.25 12 13.25Z" fill="black"/>
<path d="M7.75 12C7.75 10.65 8.37 9.41001 9.45 8.60001C9.78 8.35001 9.85 7.88001 9.6 7.55001C9.35 7.22001 8.88 7.15001 8.55 7.40001C7.09 8.50001 6.25 10.17 6.25 12C6.25 13.83 7.09 15.5 8.55 16.6C8.68 16.7 8.84 16.75 9 16.75C9.23 16.75 9.45 16.65 9.6 16.45C9.85 16.12 9.78 15.65 9.45 15.4C8.37 14.59 7.75 13.35 7.75 12Z" fill="black"/>
<path d="M15.45 7.40001C15.12 7.15001 14.65 7.22001 14.4 7.55001C14.15 7.88001 14.22 8.35001 14.55 8.60001C15.63 9.41001 16.25 10.65 16.25 12C16.25 13.35 15.63 14.59 14.55 15.4C14.22 15.65 14.15 16.12 14.4 16.45C14.55 16.65 14.77 16.75 15 16.75C15.16 16.75 15.31 16.7 15.45 16.6C16.91 15.5 17.75 13.83 17.75 12C17.75 10.17 16.91 8.50001 15.45 7.40001Z" fill="black"/>
<path d="M3.75 12C3.75 9.66001 4.75 7.42001 6.5 5.85001C6.81 5.57001 6.83 5.10001 6.56 4.79001C6.28 4.48001 5.81 4.45001 5.5 4.73001C3.44 6.58001 2.25 9.23001 2.25 12C2.25 14.77 3.43 17.42 5.5 19.27C5.64 19.4 5.82 19.46 6 19.46C6.21 19.46 6.41 19.38 6.56 19.21C6.84 18.9 6.81 18.43 6.5 18.15C4.75 16.59 3.75 14.34 3.75 12Z" fill="black"/>
<path d="M18.5 4.73001C18.19 4.45001 17.72 4.48001 17.44 4.79001C17.16 5.10001 17.19 5.57001 17.5 5.85001C19.25 7.41001 20.25 9.66001 20.25 12C20.25 14.34 19.25 16.58 17.5 18.15C17.19 18.43 17.17 18.9 17.44 19.21C17.59 19.38 17.79 19.46 18 19.46C18.18 19.46 18.36 19.4 18.5 19.27C20.57 17.42 21.75 14.77 21.75 12C21.75 9.23001 20.57 6.58001 18.5 4.73001Z" fill="black"/>
</svg>
