<svg width="24" height="24" viewBox="0 0 24 24" fill="none" xmlns="http://www.w3.org/2000/svg">
<path d="M10 11.75C12.62 11.75 14.75 9.62 14.75 7C14.75 4.38 12.62 2.25 10 2.25C7.38 2.25 5.25 4.38 5.25 7C5.25 9.62 7.38 11.75 10 11.75ZM10 3.75C11.79 3.75 13.25 5.21 13.25 7C13.25 8.79 11.79 10.25 10 10.25C8.21 10.25 6.75 8.79 6.75 7C6.75 5.21 8.21 3.75 10 3.75Z" fill="black"/>
<path d="M8 14.75H10C10.41 14.75 10.75 14.41 10.75 14C10.75 13.59 10.41 13.25 10 13.25H8C4.83 13.25 2.25 15.83 2.25 19V21C2.25 21.41 2.59 21.75 3 21.75H8C8.41 21.75 8.75 21.41 8.75 21C8.75 20.59 8.41 20.25 8 20.25H3.75V19C3.75 16.66 5.66 14.75 8 14.75Z" fill="black"/>
<path d="M21.39 12.36L17.9 10.27C17.35 9.94 16.7 9.93 16.14 10.25C15.58 10.57 15.25 11.13 15.25 11.77V15.77C14.74 15.44 14.15 15.25 13.5 15.25C11.71 15.25 10.25 16.71 10.25 18.5C10.25 20.29 11.71 21.75 13.5 21.75C15.29 21.75 16.75 20.29 16.75 18.5C16.75 18.39 16.73 18.28 16.72 18.17C16.73 18.11 16.75 18.06 16.75 18V11.77C16.75 11.64 16.83 11.58 16.88 11.55C16.93 11.52 17.02 11.49 17.13 11.55L20.62 13.64C20.98 13.85 21.44 13.74 21.65 13.38C21.86 13.02 21.75 12.56 21.39 12.35V12.36ZM13.5 20.25C12.54 20.25 11.75 19.46 11.75 18.5C11.75 17.54 12.54 16.75 13.5 16.75C14.46 16.75 15.25 17.54 15.25 18.5C15.25 19.46 14.46 20.25 13.5 20.25Z" fill="black"/>
</svg>
