<svg width="24" height="24" viewBox="0 0 24 24" fill="none" xmlns="http://www.w3.org/2000/svg">
<path d="M20 6.25H4C3.04 6.25 2.25 7.04 2.25 8V16C2.25 16.96 3.04 17.75 4 17.75H20C20.96 17.75 21.75 16.96 21.75 16V8C21.75 7.04 20.96 6.25 20 6.25ZM4 7.75H20C20.14 7.75 20.25 7.86 20.25 8V9.25H3.75V8C3.75 7.86 3.86 7.75 4 7.75ZM12.75 10.75H16.25V16.25H12.75V10.75ZM11.25 16.25H7.75V11C7.75 10.91 7.73 10.83 7.7 10.75H11.25V16.25ZM3.75 16V10.75H6.3C6.27 10.83 6.25 10.91 6.25 11V16.25H4C3.86 16.25 3.75 16.14 3.75 16ZM20 16.25H17.75V10.75H20.25V16C20.25 16.14 20.14 16.25 20 16.25Z" fill="black"/>
</svg>
