<svg width="24" height="24" viewBox="0 0 24 24" fill="none" xmlns="http://www.w3.org/2000/svg">
<path d="M12 3.25C6.62 3.25 2.25 7.62 2.25 13V18C2.25 19.52 3.48 20.75 5 20.75H6C6.96 20.75 7.75 19.96 7.75 19V15C7.75 14.04 6.96 13.25 6 13.25H3.75V13C3.75 8.45 7.45 4.75 12 4.75C16.55 4.75 20.25 8.45 20.25 13V13.25H18C17.04 13.25 16.25 14.04 16.25 15V19C16.25 19.96 17.04 20.75 18 20.75H19C20.52 20.75 21.75 19.52 21.75 18V13C21.75 7.62 17.38 3.25 12 3.25ZM6.25 15V19C6.25 19.14 6.14 19.25 6 19.25H5C4.31 19.25 3.75 18.69 3.75 18V14.75H6C6.14 14.75 6.25 14.86 6.25 15ZM20.25 18C20.25 18.69 19.69 19.25 19 19.25H18C17.86 19.25 17.75 19.14 17.75 19V15C17.75 14.86 17.86 14.75 18 14.75H20.25V18Z" fill="black"/>
</svg>
