<svg width="24" height="24" viewBox="0 0 24 24" fill="none" xmlns="http://www.w3.org/2000/svg">
<path d="M9.2 4.09001C8.22 3.42001 7.05 3.12001 5.91 3.26001C4.51 3.43001 3.54 4.20001 2.97 4.82001C2.51 5.32001 2.25 5.98001 2.25 6.68001V8.66001C2.25 10.14 3.38 11.34 4.81 11.41H4.93C5.26 11.41 5.59 11.38 5.92 11.31C6.04 11.28 6.13 11.33 6.16 11.36C6.22 11.41 6.25 11.47 6.25 11.55V18.53C6.25 19.77 7.26 20.78 8.5 20.78C9.74 20.78 10.75 19.77 10.75 18.53V7.13001C10.75 5.89001 10.17 4.76001 9.2 4.08001V4.09001ZM6 9.78001C5.87 9.78001 5.73 9.80001 5.59 9.83001C5.38 9.88001 5.16 9.90002 4.88 9.89002C4.26 9.86001 3.75 9.30001 3.75 8.64002V6.66001C3.75 6.34001 3.86 6.05001 4.07 5.82001C4.47 5.39001 5.14 4.85001 6.09 4.74001C6.86 4.64001 7.67 4.85001 8.34 5.32001C8.91 5.71001 9.25 6.39001 9.25 7.13001V16.25H7.75V11.52C7.75 10.99 7.51 10.49 7.1 10.16C6.78 9.91001 6.4 9.77002 6 9.77002V9.78001ZM8.51 19.25C8.1 19.25 7.76 18.91 7.76 18.5V17.75H9.26V18.5C9.26 18.91 8.92 19.25 8.51 19.25Z" fill="black"/>
<path d="M6 6.25001C5.59 6.25001 5.25 6.59001 5.25 7.00001V8.00001C5.25 8.41002 5.59 8.75001 6 8.75001C6.41 8.75001 6.75 8.41002 6.75 8.00001V7.00001C6.75 6.59001 6.41 6.25001 6 6.25001Z" fill="black"/>
<path d="M21.03 4.81001C20.46 4.19001 19.49 3.43001 18.09 3.26001C16.95 3.12001 15.78 3.42001 14.8 4.09001C13.83 4.76002 13.25 5.90001 13.25 7.14001V18.51C13.25 19.75 14.26 20.76 15.5 20.76C16.74 20.76 17.75 19.75 17.75 18.51V11.53C17.75 11.45 17.78 11.39 17.84 11.34C17.87 11.32 17.96 11.26 18.08 11.29C18.4 11.36 18.73 11.4 19.08 11.39H19.19C20.63 11.32 21.75 10.11 21.75 8.64002V6.66001C21.75 5.97001 21.5 5.31001 21.03 4.80001V4.81001ZM15.5 19.25C15.09 19.25 14.75 18.91 14.75 18.5V17.75H16.25V18.5C16.25 18.91 15.91 19.25 15.5 19.25ZM20.25 8.64002C20.25 9.30001 19.74 9.86001 19.04 9.89002C18.83 9.89002 18.62 9.87001 18.41 9.82001C17.87 9.70001 17.32 9.82001 16.9 10.16C16.48 10.49 16.25 10.99 16.25 11.52V16.25H14.75V7.13001C14.75 6.39001 15.09 5.71001 15.66 5.32001C16.23 4.93001 16.88 4.72001 17.54 4.72001C17.67 4.72001 17.79 4.72001 17.91 4.74001C18.86 4.85001 19.53 5.39001 19.93 5.82001C20.14 6.04001 20.25 6.34001 20.25 6.66001V8.64002Z" fill="black"/>
<path d="M18 6.25001C17.59 6.25001 17.25 6.59001 17.25 7.00001V8.00001C17.25 8.41002 17.59 8.75001 18 8.75001C18.41 8.75001 18.75 8.41002 18.75 8.00001V7.00001C18.75 6.59001 18.41 6.25001 18 6.25001Z" fill="black"/>
</svg>
