<svg width="24" height="24" viewBox="0 0 24 24" fill="none" xmlns="http://www.w3.org/2000/svg">
<path d="M19.48 4.37999C16.46 1.35999 11.54 1.35999 8.51999 4.37999L7.77999 5.11999C7.02999 5.86999 6.03999 6.27999 4.97999 6.27999C4.20999 6.27999 3.48999 6.57999 2.94999 7.11999C1.82999 8.23999 1.82999 10.06 2.94999 11.18L12.68 20.91C13.24 21.47 13.97 21.75 14.71 21.75C15.45 21.75 16.18 21.47 16.74 20.91C17.28 20.37 17.58 19.65 17.58 18.88C17.58 17.82 17.99 16.83 18.74 16.08L19.48 15.34C20.94 13.88 21.75 11.93 21.75 9.85999C21.75 7.78999 20.94 5.83999 19.48 4.37999ZM18.42 14.28L17.68 15.02C16.65 16.05 16.08 17.42 16.08 18.88C16.08 19.25 15.94 19.59 15.68 19.85C15.15 20.38 14.28 20.38 13.74 19.85L4.00999 10.12C3.47999 9.58999 3.47999 8.71999 4.00999 8.17999C4.26999 7.91999 4.60999 7.77999 4.97999 7.77999C6.43999 7.77999 7.80999 7.20999 8.83999 6.17999L9.57999 5.43999C12.02 2.99999 15.98 2.99999 18.42 5.43999C19.6 6.61999 20.25 8.18999 20.25 9.85999C20.25 11.53 19.6 13.1 18.42 14.28Z" fill="black"/>
<path d="M4.62999 14.98C4.33999 14.69 3.85999 14.69 3.56999 14.98C3.27999 15.27 3.27999 15.75 3.56999 16.04L7.80999 20.28C7.95999 20.43 8.14999 20.5 8.33999 20.5C8.52999 20.5 8.71999 20.43 8.86999 20.28C9.15999 19.99 9.15999 19.51 8.86999 19.22L4.62999 14.98Z" fill="black"/>
</svg>
