<svg width="24" height="24" viewBox="0 0 24 24" fill="none" xmlns="http://www.w3.org/2000/svg">
<path d="M6.25001 13.7501C5.72001 14.2801 5.42001 14.9901 5.42001 15.7501C5.42001 16.5101 5.71001 17.2201 6.25001 17.7501C6.80001 18.3001 7.53001 18.5801 8.25001 18.5801C8.97001 18.5801 9.70001 18.3001 10.25 17.7501C11.35 16.6501 11.35 14.8501 10.25 13.7501C9.15001 12.6501 7.35001 12.6501 6.25001 13.7501ZM9.19001 16.6901C8.67001 17.2101 7.83001 17.2101 7.31001 16.6901C7.06001 16.4401 6.92001 16.1101 6.92001 15.7501C6.92001 15.3901 7.06001 15.0601 7.31001 14.8101C7.56001 14.5601 7.91001 14.4201 8.25001 14.4201C8.59001 14.4201 8.93001 14.5501 9.19001 14.8101C9.71001 15.3301 9.71001 16.1701 9.19001 16.6901Z" fill="black"/>
<path d="M19.79 2.73008C19.09 2.03008 17.96 2.03008 17.26 2.73008L16.1 3.89008C15.76 4.23008 15.58 4.68008 15.58 5.16008V6.63008C15.58 6.85008 15.62 7.05008 15.7 7.24008L11.4 11.5401C11.11 11.8301 11.11 12.3101 11.4 12.6001C11.55 12.7501 11.74 12.8201 11.93 12.8201C12.12 12.8201 12.31 12.7501 12.46 12.6001L16.76 8.30008C16.95 8.37008 17.16 8.42008 17.37 8.42008H18.84C19.31 8.42008 19.77 8.23008 20.1 7.90008L21.27 6.74008C21.61 6.40008 21.79 5.95008 21.79 5.47008C21.79 4.99008 21.6 4.54008 21.27 4.21008L19.79 2.73008ZM20.2 5.67008L19.03 6.84008C18.98 6.89008 18.9 6.92008 18.83 6.92008H17.36C17.2 6.92008 17.07 6.79008 17.07 6.63008V5.16008C17.07 5.08008 17.1 5.01008 17.15 4.96008L18.31 3.80008C18.37 3.74008 18.44 3.72008 18.52 3.72008C18.6 3.72008 18.67 3.75008 18.72 3.80008L20.19 5.27008C20.26 5.34008 20.27 5.43008 20.27 5.47008C20.27 5.51008 20.26 5.60008 20.19 5.67008H20.2Z" fill="black"/>
<path d="M15.29 11.8101C14.88 11.8401 14.56 12.1901 14.59 12.6001C14.65 13.5801 14.29 14.5301 13.6 15.2201C13.55 15.2701 13.37 15.4301 12.93 15.7001C12.43 16.0101 12.11 16.5001 12.05 17.0501C11.96 17.9101 11.61 18.6701 11.02 19.2501C10.29 19.9801 9.28001 20.3501 8.18001 20.2901C7.05001 20.2301 5.96001 19.7301 5.11001 18.8801C3.38001 17.1501 3.21001 14.4901 4.74001 12.9601C5.32001 12.3801 6.09001 12.0201 6.95001 11.9301C7.50001 11.8701 7.99001 11.5501 8.30001 11.0601C8.58001 10.6201 8.73001 10.4401 8.79001 10.3901C9.48001 9.70008 10.44 9.34008 11.41 9.40008C11.81 9.43008 12.18 9.11008 12.21 8.70008C12.24 8.29008 11.92 7.93008 11.51 7.90008C10.11 7.82008 8.73001 8.33008 7.73001 9.33008C7.53001 9.53008 7.30001 9.84008 7.03001 10.2701C6.97001 10.3701 6.88001 10.4301 6.80001 10.4401C5.59001 10.5601 4.52001 11.0701 3.69001 11.9001C1.57001 14.0201 1.74001 17.6201 4.06001 19.9401C5.17001 21.0501 6.61001 21.7101 8.12001 21.7901C8.22001 21.7901 8.32001 21.7901 8.43001 21.7901C9.85001 21.7901 11.14 21.2701 12.11 20.3001C12.94 19.4701 13.45 18.3901 13.57 17.1901C13.57 17.1101 13.64 17.0201 13.74 16.9601C14.17 16.6901 14.47 16.4701 14.68 16.2601C15.67 15.2701 16.19 13.8901 16.11 12.4901C16.08 12.0801 15.75 11.7601 15.31 11.7901L15.29 11.8101Z" fill="black"/>
</svg>
