<svg width="24" height="24" viewBox="0 0 24 24" fill="none" xmlns="http://www.w3.org/2000/svg">
<path d="M15 17.25C16.2426 17.25 17.25 16.2427 17.25 15C17.25 13.7574 16.2426 12.75 15 12.75C13.7574 12.75 12.75 13.7574 12.75 15C12.75 16.2427 13.7574 17.25 15 17.25Z" fill="black"/>
<path d="M18 8.25001H10.33L20.25 4.71001C20.64 4.57001 20.84 4.14001 20.7 3.75001C20.56 3.36001 20.13 3.16001 19.74 3.30001L5.82 8.27001C3.84 8.37001 2.25 10 2.25 12V18C2.25 20.07 3.93 21.75 6 21.75H18C20.07 21.75 21.75 20.07 21.75 18V12C21.75 9.93001 20.07 8.25001 18 8.25001ZM7 17.75H6C5.59 17.75 5.25 17.41 5.25 17C5.25 16.59 5.59 16.25 6 16.25H7C7.41 16.25 7.75 16.59 7.75 17C7.75 17.41 7.41 17.75 7 17.75ZM9 14.75H6C5.59 14.75 5.25 14.41 5.25 14C5.25 13.59 5.59 13.25 6 13.25H9C9.41 13.25 9.75 13.59 9.75 14C9.75 14.41 9.41 14.75 9 14.75ZM15 18.75C12.93 18.75 11.25 17.07 11.25 15C11.25 12.93 12.93 11.25 15 11.25C17.07 11.25 18.75 12.93 18.75 15C18.75 17.07 17.07 18.75 15 18.75Z" fill="black"/>
</svg>
