<svg width="24" height="24" viewBox="0 0 24 24" fill="none" xmlns="http://www.w3.org/2000/svg">
<path d="M9 2.25C7.48 2.25 6.25 3.48 6.25 5V8.88C6.25 10.41 6.7 11.9 7.61 13.26C7.98 13.81 8.08 14.49 7.9 15.13L6.65 19.52C6.5 20.05 6.6 20.61 6.94 21.05C7.27 21.49 7.78 21.75 8.34 21.75H15.69C16.24 21.75 16.75 21.5 17.09 21.05C17.42 20.61 17.53 20.05 17.38 19.52L16.13 15.13C15.95 14.49 16.05 13.81 16.48 13.18C17.33 11.9 17.78 10.42 17.78 8.88V5C17.78 3.48 16.55 2.25 15.03 2.25H9ZM9 3.75H15C15.69 3.75 16.25 4.31 16.25 5V5.25H7.75V5C7.75 4.31 8.31 3.75 9 3.75ZM15.87 20.15C15.87 20.15 15.78 20.25 15.67 20.25H8.32C8.21 20.25 8.15 20.19 8.12 20.15C8.09 20.11 8.05 20.04 8.08 19.93L9.33 15.54C9.4 15.28 9.45 15.02 9.46 14.75H14.51C14.53 15.01 14.57 15.28 14.65 15.54L15.9 19.93C15.93 20.03 15.89 20.11 15.86 20.15H15.87ZM15.14 12.43C14.97 12.69 14.84 12.96 14.74 13.25H9.24C9.13 12.94 8.99 12.64 8.8 12.35C8.11 11.32 7.75 10.12 7.75 8.88V6.75H9.25V8C9.25 8.41 9.59 8.75 10 8.75C10.41 8.75 10.75 8.41 10.75 8V6.75H13.25V8C13.25 8.41 13.59 8.75 14 8.75C14.41 8.75 14.75 8.41 14.75 8V6.75H16.25V8.88C16.25 10.12 15.89 11.32 15.15 12.43H15.14Z" fill="black"/>
</svg>
