<svg width="24" height="24" viewBox="0 0 24 24" fill="none" xmlns="http://www.w3.org/2000/svg">
<path d="M3.99998 11.9999C3.99998 9.23993 6.23998 6.99993 8.99998 6.99993H12.59L12.3 7.28993C11.91 7.67993 11.91 8.30993 12.3 8.69993C12.5 8.89993 12.75 8.98993 13.01 8.98993C13.27 8.98993 13.52 8.88993 13.72 8.69993L15.72 6.69993C15.81 6.60993 15.89 6.49993 15.94 6.36993C16.04 6.12993 16.04 5.84993 15.94 5.60993C15.89 5.48993 15.82 5.37993 15.72 5.27993L13.72 3.27993C13.33 2.88993 12.7 2.88993 12.31 3.27993C11.92 3.66993 11.92 4.29993 12.31 4.68993L12.6 4.97993H9.00998C5.14998 4.97993 2.00998 8.11993 2.00998 11.9799C2.00998 14.3299 3.17998 16.5099 5.13998 17.8099C5.30998 17.9199 5.49998 17.9799 5.68998 17.9799C6.00998 17.9799 6.32998 17.8199 6.51998 17.5299C6.82998 17.0699 6.69998 16.4499 6.23998 16.1399C4.83998 15.2099 3.99998 13.6499 3.99998 11.9699V11.9999Z" fill="black"/>
<path d="M18.87 6.16993C18.41 5.85993 17.79 5.98993 17.48 6.44993C17.17 6.90993 17.3 7.52993 17.76 7.83993C19.16 8.76993 20 10.3299 20 12.0099C20 14.7699 17.76 17.0099 15 17.0099H11.41L11.7 16.7199C12.09 16.3299 12.09 15.6999 11.7 15.3099C11.31 14.9199 10.68 14.9199 10.29 15.3099L8.28998 17.3099C8.19998 17.3999 8.11998 17.5099 8.06998 17.6399C7.96998 17.8799 7.96998 18.1599 8.06998 18.3999C8.11998 18.5199 8.18998 18.6299 8.28998 18.7299L10.29 20.7299C10.49 20.9299 10.74 21.0199 11 21.0199C11.26 21.0199 11.51 20.9199 11.71 20.7299C12.1 20.3399 12.1 19.7099 11.71 19.3199L11.42 19.0299H15.01C18.87 19.0299 22.01 15.8899 22.01 12.0299C22.01 9.67993 20.84 7.49993 18.88 6.19993L18.87 6.16993Z" fill="black"/>
</svg>
