<svg width="24" height="24" viewBox="0 0 24 24" fill="none" xmlns="http://www.w3.org/2000/svg">
<path d="M9 9.75C7.76 9.75 6.75 10.76 6.75 12C6.75 13.24 7.76 14.25 9 14.25C10.24 14.25 11.25 13.24 11.25 12C11.25 10.76 10.24 9.75 9 9.75ZM9.02 12.75C8.61 12.75 8.27 12.41 8.27 12C8.27 11.59 8.6 11.25 9.02 11.25C9.44 11.25 9.77 11.59 9.77 12C9.77 12.41 9.44 12.75 9.02 12.75Z" fill="black"/>
<path d="M19 5.25H5C3.48 5.25 2.25 6.48 2.25 8V16C2.25 17.52 3.48 18.75 5 18.75H19C20.52 18.75 21.75 17.52 21.75 16V8C21.75 6.48 20.52 5.25 19 5.25ZM9 15.75C6.93 15.75 5.25 14.07 5.25 12C5.25 9.93 6.93 8.25 9 8.25C11.07 8.25 12.75 9.93 12.75 12C12.75 14.07 11.07 15.75 9 15.75ZM17.75 12.17C17.75 12.9 17.46 13.6 16.94 14.11L15.53 15.52C15.38 15.67 15.19 15.74 15 15.74C14.81 15.74 14.62 15.67 14.47 15.52C14.18 15.23 14.18 14.75 14.47 14.46L15.88 13.05C16.12 12.81 16.25 12.5 16.25 12.17V9C16.25 8.59 16.59 8.25 17 8.25C17.41 8.25 17.75 8.59 17.75 9V12.17Z" fill="black"/>
</svg>
