<svg width="24" height="24" viewBox="0 0 24 24" fill="none" xmlns="http://www.w3.org/2000/svg">
<path d="M12 11.25C9.38 11.25 7.25 12.93 7.25 15C7.25 17.07 9.38 18.75 12 18.75C14.62 18.75 16.75 17.07 16.75 15C16.75 12.93 14.62 11.25 12 11.25ZM12 17.25C10.24 17.25 8.75 16.22 8.75 15C8.75 13.78 10.24 12.75 12 12.75C13.76 12.75 15.25 13.78 15.25 15C15.25 16.22 13.76 17.25 12 17.25Z" fill="black"/>
<path d="M20.52 8.83C20.19 8.46 19.71 8.25 19.22 8.25H4.78C4.28 8.25 3.81 8.46 3.48 8.83C3.15 9.2 2.99 9.7 3.04 10.19L4.15 20.19C4.25 21.08 5 21.75 5.89 21.75H18.1C18.99 21.75 19.74 21.08 19.84 20.19L20.95 10.19C21 9.69 20.85 9.2 20.51 8.83H20.52ZM18.35 20.03C18.34 20.16 18.23 20.25 18.1 20.25H5.9C5.77 20.25 5.67 20.15 5.65 20.03L4.54 10.03C4.53 9.93 4.57 9.87 4.6 9.84C4.63 9.81 4.69 9.76 4.79 9.76H19.22C19.32 9.76 19.38 9.81 19.41 9.84C19.44 9.87 19.48 9.94 19.47 10.04L18.36 20.04L18.35 20.03Z" fill="black"/>
<path d="M12.02 14.25H12.01C11.6 14.25 11.27 14.59 11.27 15C11.27 15.41 11.61 15.75 12.02 15.75C12.43 15.75 12.77 15.41 12.77 15C12.77 14.59 12.43 14.25 12.02 14.25Z" fill="black"/>
<path d="M5 6.75H19C19.41 6.75 19.75 6.41 19.75 6C19.75 5.59 19.41 5.25 19 5.25H5C4.59 5.25 4.25 5.59 4.25 6C4.25 6.41 4.59 6.75 5 6.75Z" fill="black"/>
<path d="M6 3.75H18C18.41 3.75 18.75 3.41 18.75 3C18.75 2.59 18.41 2.25 18 2.25H6C5.59 2.25 5.25 2.59 5.25 3C5.25 3.41 5.59 3.75 6 3.75Z" fill="black"/>
</svg>
