<svg width="24" height="24" viewBox="0 0 24 24" fill="none" xmlns="http://www.w3.org/2000/svg">
<path d="M21 2.99998C20.53 2.66998 19.93 2.59998 19.39 2.79998L13.39 5.04998C12.71 5.29998 12.25 5.95998 12.25 6.68998V15.77C11.74 15.44 11.15 15.25 10.5 15.25C8.71 15.25 7.25 16.71 7.25 18.5C7.25 20.29 8.71 21.75 10.5 21.75C12.29 21.75 13.75 20.29 13.75 18.5C13.75 18.39 13.73 18.28 13.72 18.17C13.73 18.11 13.75 18.06 13.75 18V11.52L20.61 8.94998C21.29 8.69998 21.75 8.03998 21.75 7.30998V4.44998C21.75 3.87998 21.47 3.33998 21 3.00998V2.99998Z" fill="black"/>
<path d="M3 7.74998H9C9.41 7.74998 9.75 7.40998 9.75 6.99998C9.75 6.58998 9.41 6.24998 9 6.24998H3C2.59 6.24998 2.25 6.58998 2.25 6.99998C2.25 7.40998 2.59 7.74998 3 7.74998Z" fill="black"/>
<path d="M6 10.25H3C2.59 10.25 2.25 10.59 2.25 11C2.25 11.41 2.59 11.75 3 11.75H6C6.41 11.75 6.75 11.41 6.75 11C6.75 10.59 6.41 10.25 6 10.25Z" fill="black"/>
</svg>
