<svg width="24" height="24" viewBox="0 0 24 24" fill="none" xmlns="http://www.w3.org/2000/svg">
<path d="M20.36 3.85997C19.46 2.95997 18.27 2.46997 17 2.46997C15.73 2.46997 14.54 2.95997 13.64 3.85997L13.46 4.03997L20.18 10.76L20.36 10.58C21.26 9.67997 21.75 8.48997 21.75 7.21997C21.75 5.94997 21.26 4.75997 20.36 3.85997Z" fill="black"/>
<path d="M12.23 5.27997C11.33 6.17997 10.84 7.36997 10.84 8.63997C10.84 9.90997 11.33 11.1 12.23 12C13.13 12.9 14.32 13.39 15.59 13.39C16.86 13.39 18.05 12.9 18.95 12L19.13 11.82L12.41 5.09997L12.23 5.27997Z" fill="black"/>
<path d="M9.43001 9.70997L2.89001 17.34C2.30001 18.03 2.34001 19.07 2.98001 19.72L4.50001 21.24C4.84001 21.58 5.29001 21.75 5.74001 21.75C6.15001 21.75 6.55001 21.61 6.88001 21.33L14.51 14.79C13.25 14.57 12.09 13.98 11.17 13.06C10.25 12.14 9.65001 10.98 9.44001 9.71997L9.43001 9.70997Z" fill="black"/>
</svg>
