<svg width="24" height="24" viewBox="0 0 24 24" fill="none" xmlns="http://www.w3.org/2000/svg">
<path d="M21.75 8C21.75 4.83 19.17 2.25 16 2.25C12.83 2.25 10.25 4.83 10.25 8C10.25 11.17 12.83 13.75 16 13.75C17.68 13.75 19.19 13.02 20.24 11.87C20.24 11.91 20.25 11.95 20.25 12C20.25 14.89 17.89 17.25 15 17.25H11.81L12.53 16.53C12.82 16.24 12.82 15.76 12.53 15.47C12.24 15.18 11.76 15.18 11.47 15.47L9.46999 17.47C9.39999 17.54 9.34999 17.62 9.30999 17.71C9.22999 17.89 9.22999 18.1 9.30999 18.28C9.34999 18.37 9.39999 18.45 9.46999 18.52L11.47 20.52C11.62 20.67 11.81 20.74 12 20.74C12.19 20.74 12.38 20.67 12.53 20.52C12.82 20.23 12.82 19.75 12.53 19.46L11.81 18.74H15C18.72 18.74 21.75 15.71 21.75 11.99C21.75 11.28 21.62 10.59 21.41 9.93C21.63 9.32 21.75 8.67 21.75 7.99V8ZM16.75 10C16.75 10.41 16.41 10.75 16 10.75C15.59 10.75 15.25 10.41 15.25 10V6C15.25 5.59 15.59 5.25 16 5.25C16.41 5.25 16.75 5.59 16.75 6V10Z" fill="black"/>
<path d="M8.85999 6.76C8.94999 6.23 9.08999 5.73 9.28999 5.25H8.98999C5.26999 5.25 2.23999 8.28 2.23999 12C2.23999 14.4 3.52999 16.64 5.60999 17.85C5.72999 17.92 5.85999 17.95 5.98999 17.95C6.24999 17.95 6.49999 17.82 6.63999 17.58C6.84999 17.22 6.71999 16.76 6.36999 16.55C4.74999 15.61 3.73999 13.87 3.73999 12C3.73999 9.15 6.01999 6.84 8.84999 6.76H8.85999Z" fill="black"/>
</svg>
