<svg width="24" height="24" viewBox="0 0 24 24" fill="none" xmlns="http://www.w3.org/2000/svg">
<path d="M21 6.25H3C2.59 6.25 2.25 6.59 2.25 7V10C2.25 10.41 2.59 10.75 3 10.75H3.25V20C3.25 20.96 4.04 21.75 5 21.75H7C7.09 21.75 7.17 21.74 7.25 21.72V10.75H8.75V19.72C8.83 19.73 8.91 19.75 9 19.75H11C11.09 19.75 11.17 19.74 11.25 19.72V10.75H12.75V17.72C12.83 17.73 12.91 17.75 13 17.75H15C15.09 17.75 15.17 17.74 15.25 17.72V10.75H16.75V15.72C16.83 15.73 16.91 15.75 17 15.75H19C19.96 15.75 20.75 14.96 20.75 14V10.75H21C21.41 10.75 21.75 10.41 21.75 10V7C21.75 6.59 21.41 6.25 21 6.25Z" fill="black"/>
<path d="M15.25 2.25H12.75V4.75H15.25V2.25Z" fill="black"/>
<path d="M11.25 2.25H8.75V4.75H11.25V2.25Z" fill="black"/>
<path d="M20.75 4C20.75 3.04 19.96 2.25 19 2.25H16.75V4.75H20.75V4Z" fill="black"/>
<path d="M7.25 2.25H5C4.04 2.25 3.25 3.04 3.25 4V4.75H7.25V2.25Z" fill="black"/>
</svg>
