<svg width="24" height="24" viewBox="0 0 24 24" fill="none" xmlns="http://www.w3.org/2000/svg">
<path d="M9.15002 13.6699C8.85002 13.6699 8.55002 13.7799 8.32002 14.0099C8.09002 14.2399 7.98002 14.5299 7.98002 14.8399C7.98002 15.1499 8.10002 15.4499 8.32002 15.6699C8.78002 16.1299 9.53002 16.1299 9.99002 15.6699C10.21 15.4499 10.33 15.1499 10.33 14.8399C10.33 14.5299 10.21 14.2299 9.99002 14.0099C9.77002 13.7899 9.46002 13.6699 9.16002 13.6699H9.15002Z" fill="black"/>
<path d="M21.27 4.08993L19.91 2.72993C19.26 2.07993 18.13 2.07993 17.49 2.72993L16.41 3.80993C16.09 4.12993 15.91 4.55993 15.91 5.01993V6.37993C15.91 6.56993 15.95 6.75993 16.01 6.92993L13.05 9.88993C12.65 9.40993 12.28 8.90993 11.96 8.31993C11.63 7.81993 11.43 7.28993 11.34 6.72993C11.29 6.36993 11.29 5.99993 11.34 5.62993C11.38 5.33993 11.25 5.04993 11 4.88993C10.75 4.72993 10.43 4.72993 10.19 4.88993C9.57002 5.29993 9.05002 5.80993 8.66002 6.41993C8.21002 7.10993 7.94002 7.89993 7.85002 8.74993C7.80002 9.20993 7.53002 9.56993 7.15002 9.67993C5.85002 10.0699 4.64002 10.6699 3.55002 11.4999C2.84002 12.0499 2.39002 12.8799 2.33002 13.7899C2.27002 14.7299 2.62002 15.6599 3.28002 16.3199L7.66002 20.6999C8.28002 21.3199 9.11002 21.6599 9.98002 21.6599C10.05 21.6599 10.13 21.6599 10.2 21.6599C11.11 21.5999 11.94 21.1499 12.51 20.4099C13.32 19.3499 13.92 18.1499 14.31 16.8399C14.42 16.4599 14.79 16.1899 15.25 16.1399C16.1 16.0499 16.88 15.7799 17.58 15.3299C18.19 14.9299 18.71 14.4199 19.11 13.7999C19.27 13.5499 19.27 13.2399 19.11 12.9899C18.95 12.7399 18.67 12.6099 18.37 12.6499C18 12.6999 17.63 12.6999 17.27 12.6499C16.71 12.5699 16.18 12.3599 15.68 12.0299C15.66 12.0199 15.64 12.0099 15.62 11.9999C15.08 11.7099 14.58 11.3399 14.11 10.9399L17.07 7.97993C17.24 8.03993 17.43 8.07993 17.62 8.07993H18.98C19.44 8.07993 19.87 7.89993 20.19 7.57993L21.27 6.49993C21.94 5.82993 21.94 4.74993 21.27 4.07993V4.08993ZM11.05 16.7399C10.53 17.2599 9.84002 17.5199 9.16002 17.5199C8.48002 17.5199 7.79002 17.2599 7.27002 16.7399C6.76002 16.2299 6.49002 15.5599 6.49002 14.8499C6.49002 14.1399 6.77002 13.4599 7.27002 12.9599C8.31002 11.9199 10.01 11.9199 11.06 12.9599C11.57 13.4699 11.84 14.1399 11.84 14.8499C11.84 15.5599 11.56 16.2399 11.06 16.7399H11.05Z" fill="black"/>
</svg>
