<svg width="24" height="24" viewBox="0 0 24 24" fill="none" xmlns="http://www.w3.org/2000/svg">
<path d="M12 17.25C13.2426 17.25 14.25 16.2426 14.25 15C14.25 13.7574 13.2426 12.75 12 12.75C10.7574 12.75 9.75 13.7574 9.75 15C9.75 16.2426 10.7574 17.25 12 17.25Z" fill="black"/>
<path d="M15 2.25H9C6.93 2.25 5.25 3.93 5.25 6V18C5.25 20.07 6.93 21.75 9 21.75H15C17.07 21.75 18.75 20.07 18.75 18V6C18.75 3.93 17.07 2.25 15 2.25ZM12 6.25C12.96 6.25 13.75 7.04 13.75 8C13.75 8.96 12.96 9.75 12 9.75C11.04 9.75 10.25 8.96 10.25 8C10.25 7.04 11.04 6.25 12 6.25ZM12 18.75C9.93 18.75 8.25 17.07 8.25 15C8.25 12.93 9.93 11.25 12 11.25C14.07 11.25 15.75 12.93 15.75 15C15.75 17.07 14.07 18.75 12 18.75Z" fill="black"/>
</svg>
