<svg width="24" height="24" viewBox="0 0 24 24" fill="none" xmlns="http://www.w3.org/2000/svg">
<path d="M12 5C11.45 5 11 5.45 11 6V18C11 18.55 11.45 19 12 19C12.55 19 13 18.55 13 18V6C13 5.45 12.55 5 12 5Z" fill="black"/>
<path d="M9.00002 7C8.45002 7 8.00002 7.45 8.00002 8V16C8.00002 16.55 8.45002 17 9.00002 17C9.55002 17 10 16.55 10 16V8C10 7.45 9.55002 7 9.00002 7Z" fill="black"/>
<path d="M6.00002 9C5.45002 9 5.00002 9.45 5.00002 10V14C5.00002 14.55 5.45002 15 6.00002 15C6.55002 15 7.00002 14.55 7.00002 14V10C7.00002 9.45 6.55002 9 6.00002 9Z" fill="black"/>
<path d="M15 8C14.45 8 14 8.45 14 9V15C14 15.55 14.45 16 15 16C15.55 16 16 15.55 16 15V9C16 8.45 15.55 8 15 8Z" fill="black"/>
<path d="M18 6C17.45 6 17 6.45 17 7V17C17 17.55 17.45 18 18 18C18.55 18 19 17.55 19 17V7C19 6.45 18.55 6 18 6Z" fill="black"/>
<path d="M21.02 11C20.47 11 20.02 11.45 20.02 12C20.02 12.55 20.47 13 21.02 13C21.57 13 22.02 12.55 22.02 12C22.02 11.45 21.57 11 21.02 11Z" fill="black"/>
<path d="M3.02002 11C2.47002 11 2.02002 11.45 2.02002 12C2.02002 12.55 2.47002 13 3.02002 13C3.57002 13 4.02002 12.55 4.02002 12C4.02002 11.45 3.57002 11 3.02002 11Z" fill="black"/>
</svg>
