<svg width="24" height="24" viewBox="0 0 24 24" fill="none" xmlns="http://www.w3.org/2000/svg">
<path d="M11.05 13.3499C10.91 13.2999 10.76 13.2699 10.61 13.2699C10.43 13.2699 10.26 13.3099 10.09 13.3799C9.78996 13.5199 9.55996 13.7699 9.43996 14.0799C9.31996 14.3899 9.33996 14.7299 9.47996 15.0399C9.76996 15.6699 10.51 15.9399 11.14 15.6499C11.44 15.5099 11.67 15.2599 11.79 14.9499C11.91 14.6399 11.89 14.2999 11.75 13.9899C11.61 13.6899 11.36 13.4599 11.05 13.3399V13.3499Z" fill="black"/>
<path d="M21.72 7.80992L21.32 5.67992C21.22 5.14992 20.89 4.69992 20.4 4.44992C19.92 4.19992 19.36 4.18992 18.87 4.40992L14.35 6.48992L14.65 7.13992C14.65 7.13992 14.67 7.15992 14.67 7.16992L15.09 8.07992C15.26 8.45992 15.09 8.89992 14.72 9.06992C14.62 9.11992 14.51 9.13992 14.41 9.13992C14.13 9.13992 13.86 8.97992 13.73 8.69992L13.33 7.81992C13.33 7.81992 13.31 7.79992 13.3 7.77992L12.99 7.10992L8.22996 9.29992C6.83996 9.93992 5.81996 11.0699 5.29996 12.3999C5.04996 12.3099 4.78996 12.2499 4.51996 12.2499C3.27996 12.2499 2.26996 13.2599 2.26996 14.4999C2.26996 15.7399 3.27996 16.7499 4.51996 16.7499C4.77996 16.7499 5.03996 16.6899 5.27996 16.5999C5.31996 16.7099 5.35996 16.8099 5.40996 16.9199C6.03996 18.2899 7.18996 19.3399 8.64996 19.8799C9.31996 20.1299 10.01 20.2499 10.7 20.2499C11.5 20.2499 12.3 20.0799 13.04 19.7399C15.45 18.6299 16.79 16.0399 16.29 13.4399C16.21 12.9899 16.43 12.5099 16.85 12.2399L20.97 9.57992C21.57 9.18992 21.87 8.48992 21.74 7.78992L21.72 7.80992ZM4.49996 15.2499C4.08996 15.2499 3.74996 14.9099 3.74996 14.4999C3.74996 14.0899 4.08996 13.7499 4.49996 13.7499C4.64996 13.7499 4.78996 13.8099 4.90996 13.8899C4.85996 14.2899 4.85996 14.6999 4.90996 15.1099C4.78996 15.1899 4.64996 15.2499 4.50996 15.2499H4.49996ZM13.2 15.4799C12.94 16.1699 12.44 16.7199 11.77 17.0199C11.4 17.1899 11.01 17.2699 10.63 17.2699C9.58996 17.2699 8.58996 16.6699 8.12996 15.6699C7.49996 14.2899 8.09996 12.6599 9.47996 12.0199C10.86 11.3899 12.49 11.9899 13.13 13.3699C13.44 14.0399 13.46 14.7799 13.21 15.4699L13.2 15.4799Z" fill="black"/>
</svg>
