<svg width="24" height="24" viewBox="0 0 24 24" fill="none" xmlns="http://www.w3.org/2000/svg">
<path d="M21.3399 6.69006L17.5599 2.91006C16.8499 2.20006 15.6999 2.20006 14.9899 2.91006L13.2499 4.65006L12.6199 4.02006C12.3799 3.78006 12.0699 3.65006 11.7399 3.65006C11.4099 3.65006 11.0899 3.78006 10.8599 4.02006L3.98991 10.8701C3.49991 11.3601 3.49991 12.1501 3.98991 12.6401L4.61991 13.2701L2.87991 15.0101C2.16991 15.7201 2.16991 16.8701 2.87991 17.5801L6.65991 21.3601C6.99991 21.7001 7.45991 21.8901 7.94991 21.8901C8.43991 21.8901 8.88991 21.7001 9.23991 21.3601L10.2399 20.3601L9.70991 19.8601L7.77991 17.9301C7.28991 17.4401 7.28991 16.6501 7.77991 16.1601L16.1399 7.80006C16.6099 7.33006 17.4299 7.33006 17.9099 7.80006L19.8299 9.72006L20.3699 10.2401L21.3399 9.27006C21.6799 8.93006 21.8699 8.47006 21.8699 7.98006C21.8699 7.49006 21.6799 7.04006 21.3399 6.69006ZM11.7299 5.26006L12.1799 5.71006L5.67991 12.2101L5.22991 11.7601L11.7299 5.26006Z" fill="black"/>
<path d="M9.00991 17.0501L10.7499 18.7901L11.2899 19.3001L13.2499 17.3501L10.9799 15.0901L9.00991 17.0501Z" fill="black"/>
<path d="M17.0299 9.04006L15.0599 11.0001L16.7999 12.7401L17.2999 13.3001L19.3099 11.2901L18.7799 10.7901L17.0299 9.04006Z" fill="black"/>
<path d="M13.9999 12.0601L12.0399 14.0201L14.3099 16.2901L16.2399 14.3601L15.7099 13.7701L13.9999 12.0601Z" fill="black"/>
</svg>
