<svg width="24" height="24" viewBox="0 0 24 24" fill="none" xmlns="http://www.w3.org/2000/svg">
<path d="M15 2.25H9C6.38 2.25 4.25 4.38 4.25 7V17C4.25 19.62 6.38 21.75 9 21.75H15C17.62 21.75 19.75 19.62 19.75 17V7C19.75 4.38 17.62 2.25 15 2.25ZM9 3.75H15C16.79 3.75 18.25 5.21 18.25 7V7.25H5.75V7C5.75 5.21 7.21 3.75 9 3.75ZM14.96 8.75L14.52 10.08C14.49 10.18 14.39 10.25 14.28 10.25H9.72C9.61 10.25 9.52 10.18 9.48 10.08L9.04 8.75H14.96ZM15 20.25H9C7.21 20.25 5.75 18.79 5.75 17V8.75H7.46L8.06 10.55C8.3 11.27 8.97 11.75 9.72 11.75H14.28C15.03 11.75 15.7 11.27 15.94 10.55L16.54 8.75H18.25V17C18.25 18.79 16.79 20.25 15 20.25Z" fill="black"/>
<path d="M13 17.25H11C10.59 17.25 10.25 17.59 10.25 18C10.25 18.41 10.59 18.75 11 18.75H13C13.41 18.75 13.75 18.41 13.75 18C13.75 17.59 13.41 17.25 13 17.25Z" fill="black"/>
</svg>
