<svg width="24" height="24" viewBox="0 0 24 24" fill="none" xmlns="http://www.w3.org/2000/svg">
<path d="M17 2.25H7C6.04 2.25 5.25 3.04 5.25 4V6.25H8.25V6C8.25 5.59 8.59 5.25 9 5.25C9.41 5.25 9.75 5.59 9.75 6V6.25H11.25V6C11.25 5.59 11.59 5.25 12 5.25C12.41 5.25 12.75 5.59 12.75 6V6.25H14.25V6C14.25 5.59 14.59 5.25 15 5.25C15.41 5.25 15.75 5.59 15.75 6V6.25H18.75V4C18.75 3.04 17.96 2.25 17 2.25Z" fill="black"/>
<path d="M15.75 10C15.75 10.41 15.41 10.75 15 10.75C14.59 10.75 14.25 10.41 14.25 10V7.75H12.75V12C12.75 12.41 12.41 12.75 12 12.75C11.59 12.75 11.25 12.41 11.25 12V7.75H9.75V10C9.75 10.41 9.41 10.75 9 10.75C8.59 10.75 8.25 10.41 8.25 10V7.75H5.25V13.15C5.25 13.92 5.71 14.58 6.39 14.81C6.9 14.98 7.25 15.47 7.25 16C7.25 16.53 6.9 17.02 6.39 17.19C5.71 17.42 5.25 18.09 5.25 18.85V20C5.25 20.96 6.04 21.75 7 21.75H17C17.96 21.75 18.75 20.96 18.75 20V18.85C18.75 18.08 18.29 17.42 17.61 17.19C17.1 17.02 16.75 16.53 16.75 16C16.75 15.47 17.1 14.98 17.61 14.81C18.29 14.58 18.75 13.91 18.75 13.15V7.75H15.75V10ZM13 17.75H11C10.59 17.75 10.25 17.41 10.25 17C10.25 16.59 10.59 16.25 11 16.25H13C13.41 16.25 13.75 16.59 13.75 17C13.75 17.41 13.41 17.75 13 17.75Z" fill="black"/>
</svg>
