<svg width="24" height="24" viewBox="0 0 24 24" fill="none" xmlns="http://www.w3.org/2000/svg">
<path d="M14 6.75H10C9.86193 6.75 9.75 6.86193 9.75 7V8C9.75 8.13807 9.86193 8.25 10 8.25H14C14.1381 8.25 14.25 8.13807 14.25 8V7C14.25 6.86193 14.1381 6.75 14 6.75Z" fill="black"/>
<path d="M12 17.25C13.2426 17.25 14.25 16.2426 14.25 15C14.25 13.7574 13.2426 12.75 12 12.75C10.7574 12.75 9.75 13.7574 9.75 15C9.75 16.2426 10.7574 17.25 12 17.25Z" fill="black"/>
<path d="M16 2.25H8C6.48 2.25 5.25 3.48 5.25 5V19C5.25 20.52 6.48 21.75 8 21.75H16C17.52 21.75 18.75 20.52 18.75 19V5C18.75 3.48 17.52 2.25 16 2.25ZM12 18.75C9.93 18.75 8.25 17.07 8.25 15C8.25 12.93 9.93 11.25 12 11.25C14.07 11.25 15.75 12.93 15.75 15C15.75 17.07 14.07 18.75 12 18.75ZM15.75 8C15.75 8.96 14.96 9.75 14 9.75H10C9.04 9.75 8.25 8.96 8.25 8V7C8.25 6.04 9.04 5.25 10 5.25H14C14.96 5.25 15.75 6.04 15.75 7V8Z" fill="black"/>
</svg>
