<svg width="24" height="24" viewBox="0 0 24 24" fill="none" xmlns="http://www.w3.org/2000/svg">
<path d="M16 16.25C16.6904 16.25 17.25 15.6904 17.25 15C17.25 14.3096 16.6904 13.75 16 13.75C15.3096 13.75 14.75 14.3096 14.75 15C14.75 15.6904 15.3096 16.25 16 16.25Z" fill="black"/>
<path d="M19.75 9.7V7C19.75 5.48 18.52 4.25 17 4.25H7C5.48 4.25 4.25 5.48 4.25 7V9.7C3.07 10.33 2.25 11.56 2.25 13V17C2.25 19.07 3.93 20.75 6 20.75H18C20.07 20.75 21.75 19.07 21.75 17V13C21.75 11.57 20.93 10.34 19.75 9.7ZM5.75 7C5.75 6.31 6.31 5.75 7 5.75H17C17.69 5.75 18.25 6.31 18.25 7V9.28C18.17 9.28 18.09 9.25 18 9.25H15.75V8C15.75 7.59 15.41 7.25 15 7.25C14.59 7.25 14.25 7.59 14.25 8V9.25H12.75V8C12.75 7.59 12.41 7.25 12 7.25C11.59 7.25 11.25 7.59 11.25 8V9.25H9.75V8C9.75 7.59 9.41 7.25 9 7.25C8.59 7.25 8.25 7.59 8.25 8V9.25H6C5.91 9.25 5.83 9.27 5.75 9.28V7ZM8 17.75C6.48 17.75 5.25 16.52 5.25 15C5.25 13.48 6.48 12.25 8 12.25C9.52 12.25 10.75 13.48 10.75 15C10.75 16.52 9.52 17.75 8 17.75ZM16 17.75C14.48 17.75 13.25 16.52 13.25 15C13.25 13.48 14.48 12.25 16 12.25C17.52 12.25 18.75 13.48 18.75 15C18.75 16.52 17.52 17.75 16 17.75Z" fill="black"/>
<path d="M8 16.25C8.69036 16.25 9.25 15.6904 9.25 15C9.25 14.3096 8.69036 13.75 8 13.75C7.30964 13.75 6.75 14.3096 6.75 15C6.75 15.6904 7.30964 16.25 8 16.25Z" fill="black"/>
</svg>
