<svg width="24" height="24" viewBox="0 0 24 24" fill="none" xmlns="http://www.w3.org/2000/svg">
<path d="M19.87 11.83L17.13 10.92C16.3 10.64 15.75 9.87 15.75 9C15.75 5.28 12.72 2.25 9 2.25C5.28 2.25 2.25 5.28 2.25 9V19C2.25 20.52 3.48 21.75 5 21.75H19C20.52 21.75 21.75 20.52 21.75 19V14.44C21.75 13.25 20.99 12.21 19.87 11.83ZM9 3.75C11.9 3.75 14.25 6.1 14.25 9C14.25 10.52 15.22 11.86 16.66 12.34L19.4 13.25C19.91 13.42 20.25 13.9 20.25 14.44V15.25H3.75V9C3.75 6.1 6.1 3.75 9 3.75ZM19 20.25H5C4.31 20.25 3.75 19.69 3.75 19V16.75H7.25V18C7.25 18.41 7.59 18.75 8 18.75C8.41 18.75 8.75 18.41 8.75 18V16.75H11.25V18C11.25 18.41 11.59 18.75 12 18.75C12.41 18.75 12.75 18.41 12.75 18V16.75H15.25V18C15.25 18.41 15.59 18.75 16 18.75C16.41 18.75 16.75 18.41 16.75 18V16.75H20.25V19C20.25 19.69 19.69 20.25 19 20.25Z" fill="black"/>
</svg>
