<svg width="24" height="24" viewBox="0 0 24 24" fill="none" xmlns="http://www.w3.org/2000/svg">
<path d="M15.07 9.07009L9.06 5.66009C8.07 5.10009 6.89 5.10009 5.9 5.68009C4.87 6.28009 4.25 7.37009 4.25 8.59009V15.4001C4.25 16.6201 4.87 17.7101 5.9 18.3101C6.4 18.6001 6.95 18.7501 7.5 18.7501C8.05 18.7501 8.57 18.6101 9.07 18.3301L15.08 14.9201C16.13 14.3201 16.76 13.2301 16.76 11.9901C16.76 10.7501 16.13 9.66009 15.08 9.06009L15.07 9.07009ZM14.33 13.6201L8.32 17.0301C7.79 17.3301 7.18 17.3301 6.65 17.0301C6.09 16.7001 5.75 16.1001 5.75 15.4201V8.61009C5.75 7.93009 6.09 7.33009 6.65 7.00009C6.92 6.84009 7.2 6.77009 7.49 6.77009C7.78 6.77009 8.05 6.84009 8.32 6.99009L14.33 10.4001C14.91 10.7301 15.25 11.3301 15.25 12.0201C15.25 12.7101 14.91 13.3101 14.33 13.6401V13.6201Z" fill="black"/>
<path d="M19 5.25009C18.59 5.25009 18.25 5.59009 18.25 6.00009V18.0001C18.25 18.4101 18.59 18.7501 19 18.7501C19.41 18.7501 19.75 18.4101 19.75 18.0001V6.00009C19.75 5.59009 19.41 5.25009 19 5.25009Z" fill="black"/>
</svg>
