<svg width="24" height="24" viewBox="0 0 24 24" fill="none" xmlns="http://www.w3.org/2000/svg">
<path d="M20.96 3.05C20.47 2.72 19.85 2.67 19.31 2.9L13.7 5.3C13.42 5.42 13.24 5.69 13.24 5.99V12.99C13.24 13.29 13.42 13.56 13.7 13.68L19.31 16.08C19.53 16.17 19.77 16.22 20 16.22C20.34 16.22 20.67 16.12 20.96 15.93C21.45 15.6 21.75 15.06 21.75 14.47V4.52C21.75 3.93 21.46 3.38 20.96 3.06V3.05Z" fill="black"/>
<path d="M13.04 15.25H6.53L6.99 18.92C7.19 20.53 8.57 21.75 10.2 21.75C11.13 21.75 12.01 21.35 12.62 20.66C13.23 19.97 13.52 19.04 13.4 18.12L13.04 15.25Z" fill="black"/>
<path d="M11.75 13V6C11.75 5.74 11.81 5.49 11.89 5.25H6.5C4.16 5.25 2.25 7.16 2.25 9.5C2.25 11.84 4.16 13.75 6.5 13.75H11.89C11.81 13.51 11.75 13.26 11.75 13Z" fill="black"/>
</svg>
