<svg width="24" height="24" viewBox="0 0 24 24" fill="none" xmlns="http://www.w3.org/2000/svg">
<path d="M21 6.25H20.75V4C20.75 3.04 19.96 2.25 19 2.25H5C4.04 2.25 3.25 3.04 3.25 4V6.25H3C2.59 6.25 2.25 6.59 2.25 7V10C2.25 10.41 2.59 10.75 3 10.75H3.25V20C3.25 20.96 4.04 21.75 5 21.75H7C7.96 21.75 8.75 20.96 8.75 20V19.72C8.83 19.73 8.91 19.75 9 19.75H11C11.96 19.75 12.75 18.96 12.75 18V17.72C12.83 17.73 12.91 17.75 13 17.75H15C15.96 17.75 16.75 16.96 16.75 16V15.72C16.83 15.73 16.91 15.75 17 15.75H19C19.96 15.75 20.75 14.96 20.75 14V10.75H21C21.41 10.75 21.75 10.41 21.75 10V7C21.75 6.59 21.41 6.25 21 6.25ZM3.75 9.25V7.75H20.25V9.25H3.75ZM19.25 4V6.25H16.75V3.75H19C19.14 3.75 19.25 3.86 19.25 4ZM15.25 6.25H12.75V3.75H15.25V6.25ZM11.25 6.25H8.75V3.75H11.25V6.25ZM4.75 4C4.75 3.86 4.86 3.75 5 3.75H7.25V6.25H4.75V4ZM7.25 20C7.25 20.14 7.14 20.25 7 20.25H5C4.86 20.25 4.75 20.14 4.75 20V10.75H7.25V20ZM11.25 18C11.25 18.14 11.14 18.25 11 18.25H9C8.86 18.25 8.75 18.14 8.75 18V10.75H11.25V18ZM15.25 16C15.25 16.14 15.14 16.25 15 16.25H13C12.86 16.25 12.75 16.14 12.75 16V10.75H15.25V16ZM19.25 14C19.25 14.14 19.14 14.25 19 14.25H17C16.86 14.25 16.75 14.14 16.75 14V10.75H19.25V14Z" fill="black"/>
</svg>
