<svg width="24" height="24" viewBox="0 0 24 24" fill="none" xmlns="http://www.w3.org/2000/svg">
<path d="M20.91 13.85C20.16 13.1 19.75 12.11 19.75 11.05V10C19.75 5.73 16.27 2.25 12 2.25C7.73 2.25 4.25 5.73 4.25 10V11.05C4.25 12.11 3.84 13.1 3.09 13.85C2.55 14.39 2.25 15.11 2.25 15.88C2.25 17.46 3.54 18.75 5.12 18.75H18.88C20.46 18.75 21.75 17.46 21.75 15.88C21.75 15.11 21.45 14.39 20.91 13.85Z" fill="black"/>
<path d="M15 20.25H9C8.59 20.25 8.25 20.59 8.25 21C8.25 21.41 8.59 21.75 9 21.75H15C15.41 21.75 15.75 21.41 15.75 21C15.75 20.59 15.41 20.25 15 20.25Z" fill="black"/>
</svg>
