<svg width="24" height="24" viewBox="0 0 24 24" fill="none" xmlns="http://www.w3.org/2000/svg">
<path d="M20 2.25H4C3.04 2.25 2.25 3.04 2.25 4V20C2.25 20.96 3.04 21.75 4 21.75H20C20.96 21.75 21.75 20.96 21.75 20V4C21.75 3.04 20.96 2.25 20 2.25ZM3.75 14.25V9.75H6.25V12C6.25 12.41 6.59 12.75 7 12.75C7.41 12.75 7.75 12.41 7.75 12V9.75H11.25V12C11.25 12.41 11.59 12.75 12 12.75C12.41 12.75 12.75 12.41 12.75 12V9.75H16.25V12C16.25 12.41 16.59 12.75 17 12.75C17.41 12.75 17.75 12.41 17.75 12V9.75H20.25V14.25H3.75ZM14.25 3.75V5C14.25 5.14 14.14 5.25 14 5.25H10C9.86 5.25 9.75 5.14 9.75 5V3.75H14.25ZM3.75 4C3.75 3.86 3.86 3.75 4 3.75H8.25V5C8.25 5.96 9.04 6.75 10 6.75H14C14.96 6.75 15.75 5.96 15.75 5V3.75H20C20.14 3.75 20.25 3.86 20.25 4V8.25H3.75V4ZM20.25 20C20.25 20.14 20.14 20.25 20 20.25H4C3.86 20.25 3.75 20.14 3.75 20V15.75H6.25V18C6.25 18.41 6.59 18.75 7 18.75C7.41 18.75 7.75 18.41 7.75 18V15.75H11.25V18C11.25 18.41 11.59 18.75 12 18.75C12.41 18.75 12.75 18.41 12.75 18V15.75H16.25V18C16.25 18.41 16.59 18.75 17 18.75C17.41 18.75 17.75 18.41 17.75 18V15.75H20.25V20Z" fill="black"/>
<path d="M18.02 6.75C18.43 6.75 18.77 6.41 18.77 6C18.77 5.59 18.43 5.25 18.02 5.25H18.01C17.6 5.25 17.27 5.59 17.27 6C17.27 6.41 17.61 6.75 18.02 6.75Z" fill="black"/>
<path d="M6.02 5.25H6.01C5.6 5.25 5.27 5.59 5.27 6C5.27 6.41 5.61 6.75 6.02 6.75C6.43 6.75 6.77 6.41 6.77 6C6.77 5.59 6.43 5.25 6.02 5.25Z" fill="black"/>
</svg>
