<svg width="24" height="24" viewBox="0 0 24 24" fill="none" xmlns="http://www.w3.org/2000/svg">
<path d="M21.64 4.60999C21.43 4.24999 20.97 4.13999 20.61 4.34999L10.61 10.35C10.25 10.56 10.14 11.02 10.35 11.38C10.49 11.61 10.74 11.74 10.99 11.74C11.12 11.74 11.25 11.71 11.38 11.63L21.38 5.62999C21.74 5.41999 21.85 4.95999 21.64 4.59999V4.60999Z" fill="black"/>
<path d="M12.16 12.93C11.81 13.14 11.41 13.25 11 13.25C10.21 13.25 9.47 12.83 9.07 12.16C8.76 11.65 8.67 11.04 8.82 10.46C8.97 9.87999 9.33 9.38999 9.85 9.07999L12.6 7.42999C12.43 7.40999 12.26 7.37999 12.09 7.35999C11.55 7.30999 11.03 7.26999 10.52 7.25999C6.52 7.25999 2.27 8.56999 2.27 11.01C2.27 13.45 6.52 14.76 10.52 14.76C14.52 14.76 18.77 13.45 18.77 11.01C18.77 10.43 18.52 9.88999 18.05 9.40999L12.17 12.94L12.16 12.93Z" fill="black"/>
<path d="M2.25 17C2.25 18.77 4.49 19.94 7.25 20.45V15.97C5.27 15.63 3.45 14.97 2.25 13.96V17Z" fill="black"/>
<path d="M8.75 16.16V20.66C9.33 20.72 9.92 20.75 10.5 20.75C11.08 20.75 11.67 20.72 12.25 20.66V16.16C11.67 16.21 11.08 16.25 10.5 16.25C9.92 16.25 9.33 16.22 8.75 16.16Z" fill="black"/>
<path d="M13.75 20.45C16.51 19.94 18.75 18.76 18.75 17V13.97C17.55 14.98 15.73 15.64 13.75 15.98V20.46V20.45Z" fill="black"/>
</svg>
