<svg width="24" height="24" viewBox="0 0 24 24" fill="none" xmlns="http://www.w3.org/2000/svg">
<path d="M21.04 5.91009C20.6 5.70009 20.1 5.76009 19.72 6.06009L16.63 8.53009C16.06 8.99009 15.33 9.24009 14.6 9.24009H13.75V8.99009C13.75 8.58009 13.41 8.24009 13 8.24009C12.59 8.24009 12.25 8.58009 12.25 8.99009V9.24009H10.75V8.99009C10.75 8.58009 10.41 8.24009 10 8.24009C9.59 8.24009 9.25 8.58009 9.25 8.99009V9.24009H7.75V8.99009C7.75 8.58009 7.41 8.24009 7 8.24009C6.59 8.24009 6.25 8.58009 6.25 8.99009V9.24009H3.75V8.99009C3.75 8.58009 3.41 8.24009 3 8.24009C2.59 8.24009 2.25 8.58009 2.25 8.99009V13.9901C2.25 14.4001 2.59 14.7401 3 14.7401C3.41 14.7401 3.75 14.4001 3.75 13.9901V13.7401H5.56C5.37 14.1201 5.25 14.5401 5.25 14.9901C5.25 16.5101 6.48 17.7401 8 17.7401H13C14.52 17.7401 15.75 16.5101 15.75 14.9901C15.75 14.6001 15.66 14.2201 15.51 13.8801C15.91 14.0001 16.29 14.1901 16.62 14.4501L19.71 16.9201C19.94 17.1001 20.21 17.2001 20.49 17.2001C20.67 17.2001 20.86 17.1601 21.03 17.0701C21.47 16.8601 21.74 16.4301 21.74 15.9401V7.04009C21.74 6.56009 21.47 6.12009 21.03 5.91009H21.04ZM13 16.2501H8C7.31 16.2501 6.75 15.6901 6.75 15.0001C6.75 14.3101 7.31 13.7501 8 13.7501H13C13.69 13.7501 14.25 14.3101 14.25 15.0001C14.25 15.6901 13.69 16.2501 13 16.2501ZM20.25 15.4401L17.56 13.2901C16.72 12.6201 15.67 12.2501 14.59 12.2501H3.75V10.7501H14.6C15.67 10.7501 16.73 10.3801 17.57 9.71009L20.26 7.56009V15.4401H20.25Z" fill="black"/>
</svg>
