<svg width="24" height="24" viewBox="0 0 24 24" fill="none" xmlns="http://www.w3.org/2000/svg">
<path d="M14.2099 13.68C13.7999 13.59 13.4099 13.85 13.3199 14.26C13.2099 14.78 13.0799 15.29 12.9199 15.79C12.6399 16.7 12.2699 17.59 11.8299 18.44C11.3399 19.38 10.4699 20.01 9.42994 20.17C8.38994 20.33 7.37994 20 6.63994 19.26L4.73994 17.36C3.99994 16.62 3.66994 15.6 3.82994 14.57C3.98994 13.53 4.61994 12.65 5.55994 12.17C6.40994 11.73 7.30994 11.36 8.20994 11.08C8.83994 10.88 9.48994 10.72 10.1499 10.6C10.5599 10.53 10.8299 10.14 10.7499 9.73001C10.6699 9.32001 10.2899 9.05001 9.87994 9.13001C9.15994 9.26001 8.44994 9.44001 7.76994 9.65001C6.77994 9.96001 5.79994 10.36 4.86994 10.84C3.49994 11.55 2.57994 12.83 2.34994 14.34C2.11994 15.85 2.59994 17.34 3.67994 18.42L5.57994 20.32C6.47994 21.22 7.66994 21.71 8.91994 21.71C9.16994 21.71 9.41994 21.69 9.66994 21.65C11.1899 21.41 12.4699 20.49 13.1699 19.12C13.6499 18.19 14.0499 17.21 14.3599 16.22C14.5299 15.68 14.6799 15.11 14.7999 14.55C14.8799 14.14 14.6299 13.75 14.2199 13.66L14.2099 13.68Z" fill="black"/>
<path d="M6.73994 13.37C6.21994 13.89 5.92994 14.58 5.92994 15.31C5.92994 16.04 6.21994 16.74 6.73994 17.25C7.27994 17.79 7.97994 18.05 8.67994 18.05C9.37994 18.05 10.0899 17.78 10.6199 17.25C11.1399 16.73 11.4299 16.04 11.4299 15.31C11.4299 14.58 11.1399 13.89 10.6199 13.37C9.54994 12.3 7.79994 12.3 6.72994 13.37H6.73994ZM9.56994 16.2C9.07994 16.69 8.28994 16.69 7.79994 16.2C7.55994 15.96 7.42994 15.65 7.42994 15.32C7.42994 14.99 7.55994 14.67 7.79994 14.44C8.03994 14.2 8.35994 14.07 8.67994 14.07C8.99994 14.07 9.31994 14.19 9.55994 14.44C9.79994 14.68 9.92994 14.99 9.92994 15.32C9.92994 15.65 9.79994 15.97 9.55994 16.2H9.56994Z" fill="black"/>
<path d="M19.8299 2.77001C19.1499 2.09001 18.0399 2.09001 17.3599 2.77001L16.2399 3.89001C15.9099 4.22001 15.7299 4.67001 15.7299 5.13001V6.54001C15.7299 6.75001 15.7699 6.94001 15.8399 7.12001L11.7099 11.25C11.4199 11.54 11.4199 12.02 11.7099 12.31C11.8599 12.46 12.0499 12.53 12.2399 12.53C12.4299 12.53 12.6199 12.46 12.7699 12.31L16.8999 8.18001C17.0799 8.25001 17.2799 8.29001 17.4799 8.29001H18.8899C19.3499 8.29001 19.7999 8.10001 20.1299 7.78001L21.2499 6.66001C21.9299 5.98001 21.9299 4.87001 21.2499 4.19001L19.8299 2.77001ZM20.1799 5.59001L19.0599 6.71001C19.0599 6.71001 18.9499 6.78001 18.8799 6.78001H17.4699C17.3299 6.78001 17.2199 6.67001 17.2199 6.53001V5.12001C17.2199 5.05001 17.2499 4.99001 17.2899 4.94001L18.4099 3.82001C18.4099 3.82001 18.5199 3.75001 18.5899 3.75001C18.6599 3.75001 18.7199 3.77001 18.7699 3.82001L20.1799 5.23001C20.2799 5.33001 20.2799 5.49001 20.1799 5.58001V5.59001Z" fill="black"/>
</svg>
