<svg width="24" height="24" viewBox="0 0 24 24" fill="none" xmlns="http://www.w3.org/2000/svg">
<path d="M12 17.25C12.4142 17.25 12.75 16.9142 12.75 16.5C12.75 16.0858 12.4142 15.75 12 15.75C11.5858 15.75 11.25 16.0858 11.25 16.5C11.25 16.9142 11.5858 17.25 12 17.25Z" fill="black"/>
<path d="M12 2.25C6.62 2.25 2.25 6.62 2.25 12C2.25 14.66 3.32 17.07 5.05 18.83C4.79 19.6 4.33 20.14 3.81 20.27C3.62 20.32 3.4 20.32 3.17 20.27C2.76 20.18 2.36 20.43 2.27 20.83C2.18 21.23 2.43 21.64 2.83 21.73C3.06 21.78 3.29 21.81 3.51 21.81C3.73 21.81 3.97 21.78 4.18 21.72C5.05 21.49 5.78 20.82 6.24 19.85C7.85 21.03 9.84 21.74 11.99 21.74C17.37 21.74 21.74 17.37 21.74 11.99C21.74 6.61 17.38 2.25 12 2.25ZM12 5.25C13.24 5.25 14.25 6.26 14.25 7.5C14.25 8.74 13.24 9.75 12 9.75C10.76 9.75 9.75 8.74 9.75 7.5C9.75 6.26 10.76 5.25 12 5.25ZM7.5 14.25C6.26 14.25 5.25 13.24 5.25 12C5.25 10.76 6.26 9.75 7.5 9.75C8.74 9.75 9.75 10.76 9.75 12C9.75 13.24 8.74 14.25 7.5 14.25ZM12 18.75C10.76 18.75 9.75 17.74 9.75 16.5C9.75 15.26 10.76 14.25 12 14.25C13.24 14.25 14.25 15.26 14.25 16.5C14.25 17.74 13.24 18.75 12 18.75ZM16.5 14.25C15.26 14.25 14.25 13.24 14.25 12C14.25 10.76 15.26 9.75 16.5 9.75C17.74 9.75 18.75 10.76 18.75 12C18.75 13.24 17.74 14.25 16.5 14.25Z" fill="black"/>
<path d="M16.5 12.75C16.9142 12.75 17.25 12.4142 17.25 12C17.25 11.5858 16.9142 11.25 16.5 11.25C16.0858 11.25 15.75 11.5858 15.75 12C15.75 12.4142 16.0858 12.75 16.5 12.75Z" fill="black"/>
<path d="M12 8.25C12.4142 8.25 12.75 7.91421 12.75 7.5C12.75 7.08579 12.4142 6.75 12 6.75C11.5858 6.75 11.25 7.08579 11.25 7.5C11.25 7.91421 11.5858 8.25 12 8.25Z" fill="black"/>
<path d="M7.5 12.75C7.91421 12.75 8.25 12.4142 8.25 12C8.25 11.5858 7.91421 11.25 7.5 11.25C7.08579 11.25 6.75 11.5858 6.75 12C6.75 12.4142 7.08579 12.75 7.5 12.75Z" fill="black"/>
</svg>
