<svg width="24" height="24" viewBox="0 0 24 24" fill="none" xmlns="http://www.w3.org/2000/svg">
<path d="M12.75 8V5C12.75 3.48 11.52 2.25 10 2.25C9.3 2.25 8.71 2.66 8.43 3.25H8C4.83 3.25 2.25 5.83 2.25 9V12.5C2.25 13.28 2.65 13.96 3.25 14.37V21C3.25 21.41 3.59 21.75 4 21.75C4.41 21.75 4.75 21.41 4.75 21V14.72C5.87 14.59 6.75 13.65 6.75 12.5V10C6.75 9.86 6.86 9.75 7 9.75H8.43C8.71 10.34 9.31 10.75 10 10.75C11.52 10.75 12.75 9.52 12.75 8ZM5.25 10V12.5C5.25 12.91 4.91 13.25 4.5 13.25C4.09 13.25 3.75 12.91 3.75 12.5V9C3.75 6.66 5.66 4.75 8 4.75H8.25V8.25H7C6.04 8.25 5.25 9.04 5.25 10ZM11.25 8C11.25 8.69 10.69 9.25 10 9.25C9.86 9.25 9.75 9.14 9.75 9V4C9.75 3.86 9.86 3.75 10 3.75C10.69 3.75 11.25 4.31 11.25 5V8Z" fill="black"/>
<path d="M20.75 9.63V3C20.75 2.59 20.41 2.25 20 2.25C19.59 2.25 19.25 2.59 19.25 3V9.28C18.13 9.41 17.25 10.35 17.25 11.5V14C17.25 14.14 17.14 14.25 17 14.25H15.57C15.29 13.66 14.69 13.25 14 13.25C12.48 13.25 11.25 14.48 11.25 16V19C11.25 20.52 12.48 21.75 14 21.75C14.7 21.75 15.29 21.34 15.57 20.75H16C19.17 20.75 21.75 18.17 21.75 15V11.5C21.75 10.72 21.35 10.04 20.75 9.63ZM14 20.25C13.31 20.25 12.75 19.69 12.75 19V16C12.75 15.31 13.31 14.75 14 14.75C14.14 14.75 14.25 14.86 14.25 15V20C14.25 20.14 14.14 20.25 14 20.25ZM20.25 15C20.25 17.34 18.34 19.25 16 19.25H15.75V15.75H17C17.96 15.75 18.75 14.96 18.75 14V11.5C18.75 11.09 19.09 10.75 19.5 10.75C19.91 10.75 20.25 11.09 20.25 11.5V15Z" fill="black"/>
</svg>
