<svg width="24" height="24" viewBox="0 0 24 24" fill="none" xmlns="http://www.w3.org/2000/svg">
<path d="M12 15.75C14.07 15.75 15.75 14.07 15.75 12V6C15.75 3.93 14.07 2.25 12 2.25C9.93 2.25 8.25 3.93 8.25 6V12C8.25 14.07 9.93 15.75 12 15.75Z" fill="black"/>
<path d="M15.91 15.5C14.91 16.61 13.49 17.25 12 17.25C10.51 17.25 9.08 16.61 8.09 15.5C7.81 15.19 7.34 15.17 7.03 15.44C6.72 15.72 6.7 16.19 6.97 16.5C8.08 17.74 9.61 18.52 11.25 18.71V20.25H10C9.59 20.25 9.25 20.59 9.25 21C9.25 21.41 9.59 21.75 10 21.75H14C14.41 21.75 14.75 21.41 14.75 21C14.75 20.59 14.41 20.25 14 20.25H12.75V18.71C14.39 18.53 15.92 17.75 17.03 16.5C17.31 16.19 17.28 15.72 16.97 15.44C16.66 15.16 16.19 15.19 15.91 15.5Z" fill="black"/>
<path d="M19.8 4.42C19.48 4.16 19.01 4.21 18.75 4.53C18.49 4.85 18.54 5.32 18.86 5.58C19.75 6.3 20.25 7.36 20.25 8.5C20.25 9.75 19.63 10.92 18.58 11.62C18.24 11.85 18.14 12.32 18.37 12.66C18.51 12.88 18.75 12.99 18.99 12.99C19.13 12.99 19.28 12.95 19.41 12.86C20.87 11.88 21.74 10.25 21.74 8.49C21.74 6.9 21.03 5.41 19.79 4.41L19.8 4.42Z" fill="black"/>
<path d="M18.1 6.55C17.85 6.22 17.38 6.15 17.05 6.4C16.72 6.65 16.65 7.12 16.9 7.45C17.13 7.75 17.25 8.12 17.25 8.5C17.25 8.88 17.13 9.25 16.9 9.55C16.65 9.88 16.72 10.35 17.05 10.6C17.19 10.7 17.34 10.75 17.5 10.75C17.73 10.75 17.95 10.65 18.1 10.45C18.53 9.88 18.75 9.21 18.75 8.5C18.75 7.79 18.53 7.11 18.1 6.55Z" fill="black"/>
<path d="M3.75 8.5C3.75 7.36 4.26 6.3 5.14 5.58C5.46 5.32 5.51 4.85 5.25 4.53C4.99 4.21 4.52 4.16 4.2 4.42C2.96 5.42 2.25 6.91 2.25 8.5C2.25 10.26 3.12 11.89 4.58 12.87C4.71 12.96 4.85 13 5 13C5.24 13 5.48 12.88 5.62 12.67C5.85 12.33 5.76 11.86 5.41 11.63C4.37 10.93 3.74 9.77 3.74 8.51L3.75 8.5Z" fill="black"/>
<path d="M7.1 9.55C6.87 9.25 6.75 8.88 6.75 8.5C6.75 8.12 6.87 7.75 7.1 7.45C7.35 7.12 7.28 6.65 6.95 6.4C6.62 6.15 6.15 6.22 5.9 6.55C5.47 7.12 5.25 7.79 5.25 8.5C5.25 9.21 5.47 9.89 5.9 10.45C6.05 10.65 6.27 10.75 6.5 10.75C6.66 10.75 6.81 10.7 6.95 10.6C7.28 10.35 7.35 9.88 7.1 9.55Z" fill="black"/>
</svg>
