<svg width="24" height="24" viewBox="0 0 24 24" fill="none" xmlns="http://www.w3.org/2000/svg">
<path d="M18 2.25H6C3.93 2.25 2.25 3.93 2.25 6V18C2.25 20.07 3.93 21.75 6 21.75H18C20.07 21.75 21.75 20.07 21.75 18V6C21.75 3.93 20.07 2.25 18 2.25ZM20.25 18C20.25 19.24 19.24 20.25 18 20.25H6C4.76 20.25 3.75 19.24 3.75 18V6C3.75 4.76 4.76 3.75 6 3.75H18C19.24 3.75 20.25 4.76 20.25 6V18Z" fill="black"/>
<path d="M17.39 8.36L13.9 6.27C13.35 5.94 12.69 5.93 12.14 6.25C11.58 6.57 11.25 7.13 11.25 7.77V11.77C10.74 11.44 10.15 11.25 9.5 11.25C7.71 11.25 6.25 12.71 6.25 14.5C6.25 16.29 7.71 17.75 9.5 17.75C10.97 17.75 12.2 16.77 12.6 15.43C12.69 15.31 12.75 15.16 12.75 15V7.77C12.75 7.64 12.83 7.58 12.88 7.55C12.93 7.52 13.02 7.49 13.13 7.55L16.62 9.64C16.98 9.85 17.44 9.74 17.65 9.38C17.86 9.02 17.75 8.56 17.39 8.35V8.36ZM9.5 16.25C8.54 16.25 7.75 15.46 7.75 14.5C7.75 13.54 8.54 12.75 9.5 12.75C10.46 12.75 11.25 13.54 11.25 14.5C11.25 15.46 10.46 16.25 9.5 16.25Z" fill="black"/>
</svg>
