<svg width="24" height="24" viewBox="0 0 24 24" fill="none" xmlns="http://www.w3.org/2000/svg">
<path d="M8.25 14.4301C7.91 14.4301 7.57 14.5601 7.31 14.8201C7.05 15.0801 6.92 15.4001 6.92 15.7601C6.92 16.1201 7.06 16.4501 7.31 16.7001C7.83 17.2201 8.67 17.2201 9.19 16.7001C9.71 16.1801 9.71 15.3401 9.19 14.8201C8.93 14.5601 8.59 14.4301 8.25 14.4301Z" fill="black"/>
<path d="M21.26 4.20008L19.79 2.73008C19.09 2.03008 17.96 2.03008 17.26 2.73008L16.1 3.89008C15.76 4.23008 15.58 4.68008 15.58 5.16008V6.63008C15.58 6.85008 15.62 7.05008 15.7 7.24008L14.16 8.78008C13.07 8.01008 11.9 7.92008 11.48 7.91008C10.08 7.83008 8.71 8.35008 7.72 9.34008C7.52 9.54008 7.29 9.85008 7.02 10.2801C6.96 10.3801 6.87 10.4401 6.79 10.4501C5.58 10.5701 4.51 11.0801 3.68 11.9101C1.56 14.0301 1.73 17.6301 4.05 19.9501C5.16 21.0601 6.6 21.7201 8.11 21.8001C8.21 21.8001 8.31 21.8001 8.42 21.8001C9.84 21.8001 11.13 21.2801 12.1 20.3101C12.93 19.4801 13.44 18.4001 13.56 17.2001C13.56 17.1201 13.63 17.0301 13.73 16.9701C14.16 16.7001 14.46 16.4801 14.67 16.2701C15.66 15.2801 16.18 13.9001 16.1 12.5401C16.1 11.9501 15.97 10.8601 15.24 9.83008L16.77 8.30008C16.96 8.37008 17.17 8.42008 17.38 8.42008H18.85C19.32 8.42008 19.78 8.23008 20.11 7.90008L21.28 6.74008C21.62 6.40008 21.8 5.95008 21.8 5.47008C21.8 4.99008 21.61 4.54008 21.28 4.21008L21.26 4.20008ZM10.24 17.7501C9.69 18.3001 8.96 18.5801 8.24 18.5801C7.52 18.5801 6.79 18.3001 6.24 17.7501C5.71 17.2201 5.41 16.5101 5.41 15.7501C5.41 14.9901 5.7 14.2801 6.24 13.7501C7.34 12.6501 9.14 12.6501 10.24 13.7501C11.34 14.8501 11.34 16.6501 10.24 17.7501Z" fill="black"/>
</svg>
