<svg width="24" height="24" viewBox="0 0 24 24" fill="none" xmlns="http://www.w3.org/2000/svg">
<path d="M17 2.25H7C6.04 2.25 5.25 3.04 5.25 4V13.15C5.25 13.92 5.71 14.58 6.39 14.81C6.9 14.98 7.25 15.47 7.25 16C7.25 16.53 6.9 17.02 6.39 17.19C5.71 17.42 5.25 18.09 5.25 18.85V20C5.25 20.96 6.04 21.75 7 21.75H17C17.96 21.75 18.75 20.96 18.75 20V18.85C18.75 18.08 18.29 17.42 17.61 17.19C17.1 17.02 16.75 16.53 16.75 16C16.75 15.47 17.1 14.98 17.61 14.81C18.29 14.58 18.75 13.91 18.75 13.15V4C18.75 3.04 17.96 2.25 17 2.25ZM7 3.75H17C17.14 3.75 17.25 3.86 17.25 4V6.25H15.75V6C15.75 5.59 15.41 5.25 15 5.25C14.59 5.25 14.25 5.59 14.25 6V6.25H12.75V6C12.75 5.59 12.41 5.25 12 5.25C11.59 5.25 11.25 5.59 11.25 6V6.25H9.75V6C9.75 5.59 9.41 5.25 9 5.25C8.59 5.25 8.25 5.59 8.25 6V6.25H6.75V4C6.75 3.86 6.86 3.75 7 3.75ZM17.13 13.39C16 13.77 15.25 14.82 15.25 16C15.25 17.18 16.01 18.23 17.13 18.61C17.19 18.63 17.25 18.73 17.25 18.85V20C17.25 20.14 17.14 20.25 17 20.25H7C6.86 20.25 6.75 20.14 6.75 20V18.85C6.75 18.73 6.81 18.63 6.87 18.61C8 18.23 8.75 17.18 8.75 16C8.75 14.82 7.99 13.77 6.87 13.39C6.81 13.37 6.75 13.27 6.75 13.15V7.75H8.25V10C8.25 10.41 8.59 10.75 9 10.75C9.41 10.75 9.75 10.41 9.75 10V7.75H11.25V12C11.25 12.41 11.59 12.75 12 12.75C12.41 12.75 12.75 12.41 12.75 12V7.75H14.25V10C14.25 10.41 14.59 10.75 15 10.75C15.41 10.75 15.75 10.41 15.75 10V7.75H17.25V13.15C17.25 13.27 17.19 13.37 17.13 13.39Z" fill="black"/>
<path d="M13 16.25H11C10.59 16.25 10.25 16.59 10.25 17C10.25 17.41 10.59 17.75 11 17.75H13C13.41 17.75 13.75 17.41 13.75 17C13.75 16.59 13.41 16.25 13 16.25Z" fill="black"/>
</svg>
