<svg width="24" height="24" viewBox="0 0 24 24" fill="none" xmlns="http://www.w3.org/2000/svg">
<path d="M18 2.99998C17.53 2.66998 16.93 2.59998 16.39 2.79998L10.39 5.04998C9.71 5.29998 9.25 5.95998 9.25 6.68998V15.77C8.74 15.44 8.15 15.25 7.5 15.25C5.71 15.25 4.25 16.71 4.25 18.5C4.25 20.29 5.71 21.75 7.5 21.75C9.29 21.75 10.75 20.29 10.75 18.5C10.75 18.39 10.73 18.28 10.72 18.17C10.73 18.11 10.75 18.06 10.75 18V11.52L17.61 8.94998C18.29 8.69998 18.75 8.03998 18.75 7.30998V4.44998C18.75 3.87998 18.47 3.33998 18 3.00998V2.99998ZM7.5 20.25C6.54 20.25 5.75 19.46 5.75 18.5C5.75 17.54 6.54 16.75 7.5 16.75C8.46 16.75 9.25 17.54 9.25 18.5C9.25 19.46 8.46 20.25 7.5 20.25ZM17.25 7.30998C17.25 7.40998 17.19 7.50998 17.09 7.53998L10.75 9.91998V6.69998C10.75 6.59998 10.81 6.49998 10.91 6.46998L16.91 4.21998C16.91 4.21998 16.97 4.19998 17 4.19998C17.06 4.19998 17.11 4.22998 17.14 4.24998C17.18 4.27998 17.25 4.33998 17.25 4.45998V7.31998V7.30998Z" fill="black"/>
</svg>
