<svg width="24" height="24" viewBox="0 0 24 24" fill="none" xmlns="http://www.w3.org/2000/svg">
<path d="M18 2.25H6C3.93 2.25 2.25 3.93 2.25 6V18C2.25 20.07 3.93 21.75 6 21.75H18C20.07 21.75 21.75 20.07 21.75 18V6C21.75 3.93 20.07 2.25 18 2.25ZM20.25 18C20.25 19.24 19.24 20.25 18 20.25H6C4.76 20.25 3.75 19.24 3.75 18V6C3.75 4.76 4.76 3.75 6 3.75H18C19.24 3.75 20.25 4.76 20.25 6V18Z" fill="black"/>
<path d="M12 5.25C8.28 5.25 5.25 8.28 5.25 12C5.25 15.72 8.28 18.75 12 18.75C15.72 18.75 18.75 15.72 18.75 12C18.75 8.28 15.72 5.25 12 5.25ZM12 17.25C9.1 17.25 6.75 14.9 6.75 12C6.75 9.1 9.1 6.75 12 6.75C14.9 6.75 17.25 9.1 17.25 12C17.25 14.9 14.9 17.25 12 17.25Z" fill="black"/>
<path d="M12.02 11.25H12.01C11.6 11.25 11.27 11.59 11.27 12C11.27 12.41 11.61 12.75 12.02 12.75C12.43 12.75 12.77 12.41 12.77 12C12.77 11.59 12.43 11.25 12.02 11.25Z" fill="black"/>
</svg>
