<svg width="24" height="24" viewBox="0 0 24 24" fill="none" xmlns="http://www.w3.org/2000/svg">
<path d="M14.75 8.77999V7.99999C14.75 7.58999 14.41 7.24999 14 7.24999C13.59 7.24999 13.25 7.58999 13.25 7.99999V8.32999C13 8.28999 12.76 8.24999 12.5 8.24999H11.75V7.99999C11.75 7.58999 11.41 7.24999 11 7.24999C10.59 7.24999 10.25 7.58999 10.25 7.99999V8.24999H8.75V7.99999C8.75 7.58999 8.41 7.24999 8 7.24999C7.59 7.24999 7.25 7.58999 7.25 7.99999V8.24999H3.75V7.99999C3.75 7.58999 3.41 7.24999 3 7.24999C2.59 7.24999 2.25 7.58999 2.25 7.99999V13C2.25 13.41 2.59 13.75 3 13.75C3.41 13.75 3.75 13.41 3.75 13V12.75H5.25V14C5.25 16.62 7.38 18.75 10 18.75H12.5C15.39 18.75 17.75 16.4 17.75 13.5C17.75 11.41 16.52 9.61999 14.75 8.77999ZM12.5 14.25H10.5C10.15 14.25 9.84 14 9.77 13.65C9.77 13.61 9.74 13.57 9.72 13.53V12.74H12.5C12.91 12.74 13.25 13.08 13.25 13.49C13.25 13.9 12.91 14.24 12.5 14.24V14.25Z" fill="black"/>
<path d="M21.29 5.30999C21.01 5.18999 20.69 5.25999 20.47 5.46999L18.06 7.87999C17.83 8.10999 17.51 8.24999 17.18 8.24999H16.74C18.27 9.48999 19.26 11.38 19.26 13.5C19.26 13.76 19.24 14.01 19.21 14.26L20.48 15.53C20.62 15.67 20.81 15.75 21.01 15.75C21.11 15.75 21.2 15.73 21.3 15.69C21.58 15.57 21.76 15.3 21.76 15V5.99999C21.76 5.69999 21.58 5.41999 21.3 5.30999H21.29Z" fill="black"/>
</svg>
