<svg width="24" height="24" viewBox="0 0 24 24" fill="none" xmlns="http://www.w3.org/2000/svg">
<path d="M21.0099 12.77C20.5099 12.08 20.0599 11.37 19.6599 10.63C19.2099 9.82003 18.9499 9.20003 18.7099 8.66003C18.4199 7.99003 18.1499 7.36003 17.5899 6.52003C17.0899 5.76003 16.0299 4.18003 14.3399 3.32003C11.0599 1.67003 6.69992 2.64003 4.40992 5.52003C2.00992 8.55003 2.04992 13.33 4.48992 15.54C4.93992 15.94 5.46992 16.26 6.06992 16.49C6.17992 16.53 6.23992 16.62 6.23992 16.72V20.98C6.23992 21.39 6.57992 21.73 6.98992 21.73C7.39992 21.73 7.73992 21.39 7.73992 20.98V16.72C7.73992 15.99 7.28992 15.34 6.58992 15.08C6.16992 14.92 5.79992 14.7 5.48992 14.42C3.61992 12.73 3.65992 8.86003 5.56992 6.44003C6.02992 5.86003 6.59992 5.37003 7.22992 4.99003V8.45003C6.60992 9.12003 6.22992 10 6.22992 10.98C6.22992 13.05 7.90992 14.73 9.97992 14.73C12.0499 14.73 13.7299 13.05 13.7299 10.98C13.7299 10 13.3499 9.12003 12.7299 8.45003V4.31003C13.0399 4.41003 13.3499 4.52003 13.6399 4.67003C14.9799 5.34003 15.8799 6.70003 16.3499 7.42003C16.7999 8.09003 17.0199 8.61003 17.3099 9.27003C17.5599 9.84003 17.8399 10.49 18.3199 11.37C18.6699 12.01 19.0699 12.65 19.4899 13.26H18.9799C18.0199 13.26 17.2299 14.05 17.2299 15.01V17.01C17.2299 17.15 17.1199 17.26 16.9799 17.26H14.9799C14.0199 17.26 13.2299 18.05 13.2299 19.01V21.01C13.2299 21.42 13.5699 21.76 13.9799 21.76C14.3899 21.76 14.7299 21.42 14.7299 21.01V19.01C14.7299 18.87 14.8399 18.76 14.9799 18.76H16.9799C17.9399 18.76 18.7299 17.97 18.7299 17.01V15.01C18.7299 14.87 18.8399 14.76 18.9799 14.76H19.9699C20.4399 14.76 20.8699 14.5 21.0899 14.08C21.2999 13.66 21.2699 13.17 20.9899 12.79L21.0099 12.77ZM9.99992 13.25C8.75992 13.25 7.74992 12.24 7.74992 11C7.74992 9.76003 8.75992 8.75003 9.99992 8.75003C11.2399 8.75003 12.2499 9.76003 12.2499 11C12.2499 12.24 11.2399 13.25 9.99992 13.25ZM11.2499 7.48003C10.8599 7.34003 10.4399 7.25003 9.99992 7.25003C9.55992 7.25003 9.13992 7.34003 8.74992 7.48003V4.36003C9.55992 4.11003 10.4099 3.99003 11.2499 4.05003V7.48003Z" fill="black"/>
</svg>
