<svg width="24" height="24" viewBox="0 0 24 24" fill="none" xmlns="http://www.w3.org/2000/svg">
<path d="M19 16.25C18.81 16.25 18.62 16.27 18.44 16.31C19.27 15.08 19.75 13.59 19.75 12C19.75 10.41 19.27 8.92 18.44 7.69C18.62 7.73 18.81 7.75 19 7.75C20.52 7.75 21.75 6.52 21.75 5C21.75 3.48 20.52 2.25 19 2.25C17.48 2.25 16.25 3.48 16.25 5C16.25 5.19 16.27 5.38 16.31 5.56C15.08 4.73 13.59 4.25 12 4.25C10.41 4.25 8.92 4.73 7.69 5.56C7.73 5.38 7.75 5.19 7.75 5C7.75 3.48 6.52 2.25 5 2.25C3.48 2.25 2.25 3.48 2.25 5C2.25 6.52 3.48 7.75 5 7.75C5.19 7.75 5.38 7.73 5.56 7.69C4.73 8.92 4.25 10.41 4.25 12C4.25 13.59 4.73 15.08 5.56 16.31C5.38 16.27 5.19 16.25 5 16.25C3.48 16.25 2.25 17.48 2.25 19C2.25 20.52 3.48 21.75 5 21.75C6.52 21.75 7.75 20.52 7.75 19C7.75 18.81 7.73 18.62 7.69 18.44C8.92 19.27 10.41 19.75 12 19.75C13.59 19.75 15.08 19.27 16.31 18.44C16.27 18.62 16.25 18.81 16.25 19C16.25 20.52 17.48 21.75 19 21.75C20.52 21.75 21.75 20.52 21.75 19C21.75 17.48 20.52 16.25 19 16.25ZM19 3.75C19.69 3.75 20.25 4.31 20.25 5C20.25 5.69 19.69 6.25 19 6.25C18.31 6.25 17.75 5.69 17.75 5C17.75 4.31 18.31 3.75 19 3.75ZM3.75 5C3.75 4.31 4.31 3.75 5 3.75C5.69 3.75 6.25 4.31 6.25 5C6.25 5.69 5.69 6.25 5 6.25C4.31 6.25 3.75 5.69 3.75 5ZM5 20.25C4.31 20.25 3.75 19.69 3.75 19C3.75 18.31 4.31 17.75 5 17.75C5.69 17.75 6.25 18.31 6.25 19C6.25 19.69 5.69 20.25 5 20.25ZM5.75 12C5.75 8.55 8.55 5.75 12 5.75C15.45 5.75 18.25 8.55 18.25 12C18.25 15.45 15.45 18.25 12 18.25C8.55 18.25 5.75 15.45 5.75 12ZM19 20.25C18.31 20.25 17.75 19.69 17.75 19C17.75 18.31 18.31 17.75 19 17.75C19.69 17.75 20.25 18.31 20.25 19C20.25 19.69 19.69 20.25 19 20.25Z" fill="black"/>
<path d="M12 7.25C9.38 7.25 7.25 9.38 7.25 12C7.25 14.62 9.38 16.75 12 16.75C14.62 16.75 16.75 14.62 16.75 12C16.75 9.38 14.62 7.25 12 7.25ZM12 15.25C10.21 15.25 8.75 13.79 8.75 12C8.75 10.21 10.21 8.75 12 8.75C13.79 8.75 15.25 10.21 15.25 12C15.25 13.79 13.79 15.25 12 15.25Z" fill="black"/>
</svg>
