<svg width="24" height="24" viewBox="0 0 24 24" fill="none" xmlns="http://www.w3.org/2000/svg">
<path d="M20 20.25H19.75V10C19.75 5.73 16.27 2.25 12 2.25C7.73 2.25 4.25 5.73 4.25 10V20.25H4C3.59 20.25 3.25 20.59 3.25 21C3.25 21.41 3.59 21.75 4 21.75H20C20.41 21.75 20.75 21.41 20.75 21C20.75 20.59 20.41 20.25 20 20.25ZM13.27 3.88C13.27 3.88 13.25 3.96 13.25 4V6.25H10.75V4C10.75 4 10.73 3.92 10.73 3.88C11.14 3.79 11.57 3.75 12 3.75C12.43 3.75 12.86 3.8 13.27 3.88ZM12 10.75C13.79 10.75 15.25 12.21 15.25 14C15.25 15.79 13.79 17.25 12 17.25C10.21 17.25 8.75 15.79 8.75 14C8.75 12.21 10.21 10.75 12 10.75ZM12 9.25C11.56 9.25 11.15 9.33 10.75 9.44V7.75H13.25V9.44C12.85 9.33 12.44 9.25 12 9.25ZM5.75 20.25V10C5.75 7.54 7.18 5.42 9.25 4.4V6.25H9C8.59 6.25 8.25 6.59 8.25 7C8.25 7.41 8.59 7.75 9 7.75H9.25V10C9.25 10 9.27 10.08 9.27 10.12C8.05 10.98 7.25 12.39 7.25 14C7.25 16.62 9.38 18.75 12 18.75C14.62 18.75 16.75 16.62 16.75 14C16.75 12.4 15.95 10.98 14.73 10.12C14.73 10.08 14.75 10.04 14.75 10V7.75H15C15.41 7.75 15.75 7.41 15.75 7C15.75 6.59 15.41 6.25 15 6.25H14.75V4.4C16.82 5.42 18.25 7.55 18.25 10V20.25H5.75Z" fill="black"/>
<path d="M12.02 14.75C12.43 14.75 12.77 14.41 12.77 14C12.77 13.59 12.43 13.25 12.02 13.25H12.01C11.6 13.25 11.27 13.59 11.27 14C11.27 14.41 11.61 14.75 12.02 14.75Z" fill="black"/>
</svg>
