<svg width="24" height="24" viewBox="0 0 24 24" fill="none" xmlns="http://www.w3.org/2000/svg">
<path d="M16 2.25H8C6.48 2.25 5.25 3.48 5.25 5V19C5.25 20.52 6.48 21.75 8 21.75H16C17.52 21.75 18.75 20.52 18.75 19V5C18.75 3.48 17.52 2.25 16 2.25ZM17.25 19C17.25 19.69 16.69 20.25 16 20.25H8C7.31 20.25 6.75 19.69 6.75 19V5C6.75 4.31 7.31 3.75 8 3.75H16C16.69 3.75 17.25 4.31 17.25 5V19Z" fill="black"/>
<path d="M14 5.25H10C9.04 5.25 8.25 6.04 8.25 7V8C8.25 8.96 9.04 9.75 10 9.75H14C14.96 9.75 15.75 8.96 15.75 8V7C15.75 6.04 14.96 5.25 14 5.25ZM14.25 8C14.25 8.14 14.14 8.25 14 8.25H10C9.86 8.25 9.75 8.14 9.75 8V7C9.75 6.86 9.86 6.75 10 6.75H14C14.14 6.75 14.25 6.86 14.25 7V8Z" fill="black"/>
<path d="M12 11.25C9.93 11.25 8.25 12.93 8.25 15C8.25 17.07 9.93 18.75 12 18.75C14.07 18.75 15.75 17.07 15.75 15C15.75 12.93 14.07 11.25 12 11.25ZM12 17.25C10.76 17.25 9.75 16.24 9.75 15C9.75 13.76 10.76 12.75 12 12.75C13.24 12.75 14.25 13.76 14.25 15C14.25 16.24 13.24 17.25 12 17.25Z" fill="black"/>
</svg>
