<svg width="24" height="24" viewBox="0 0 24 24" fill="none" xmlns="http://www.w3.org/2000/svg">
<path d="M21 10.9999H19.72L18.95 8.67992C18.82 8.27992 18.45 8.00992 18.03 7.99992C17.61 7.96992 17.23 8.23992 17.07 8.62992L16.08 11.0999L14.94 7.68992C14.8 7.25992 14.39 6.96992 13.94 7.00992C13.49 7.02992 13.11 7.34992 13.02 7.78992L12.05 12.1699L10.98 6.81992C10.89 6.35992 10.49 6.02992 10.02 6.01992C9.51001 5.97992 9.14001 6.31992 9.03001 6.77992L8.20001 10.1199L7.99001 8.85992C7.92001 8.45992 7.61001 8.12992 7.21001 8.04992C6.80001 7.95992 6.40001 8.12992 6.17001 8.46992L4.47001 11.0199H3.01001C2.46001 11.0199 2.01001 11.4699 2.01001 12.0199C2.01001 12.5699 2.46001 13.0199 3.01001 13.0199H5.01001C5.34001 13.0199 5.66001 12.8499 5.84001 12.5699L6.44001 11.6699L7.02001 15.1799C7.10001 15.6499 7.49001 15.9999 7.97001 16.0099C8.43001 16.0099 8.87001 15.7099 8.98001 15.2499L9.90001 11.5599L11.03 17.1999C11.12 17.6599 11.53 17.9999 12 17.9999H12.01C12.48 17.9999 12.88 17.6699 12.99 17.2199L14.21 11.7399L15.07 14.3199C15.2 14.7199 15.57 14.9899 15.99 14.9999C16.42 15.0199 16.79 14.7599 16.95 14.3699L17.94 11.8999L18.08 12.3099C18.22 12.7199 18.6 12.9899 19.03 12.9899H21.03C21.58 12.9899 22.03 12.5399 22.03 11.9899C22.03 11.4399 21.58 10.9899 21.03 10.9899L21 10.9999Z" fill="black"/>
</svg>
