<svg width="24" height="24" viewBox="0 0 24 24" fill="none" xmlns="http://www.w3.org/2000/svg">
<path d="M20 5.25H4C3.0335 5.25 2.25 6.0335 2.25 7V10C2.25 10.9665 3.0335 11.75 4 11.75H20C20.9665 11.75 21.75 10.9665 21.75 10V7C21.75 6.0335 20.9665 5.25 20 5.25Z" fill="black"/>
<path d="M21 13.25H3C2.59 13.25 2.25 13.59 2.25 14C2.25 14.41 2.59 14.75 3 14.75H21C21.41 14.75 21.75 14.41 21.75 14C21.75 13.59 21.41 13.25 21 13.25Z" fill="black"/>
<path d="M21 16.25H3C2.59 16.25 2.25 16.59 2.25 17C2.25 17.41 2.59 17.75 3 17.75H21C21.41 17.75 21.75 17.41 21.75 17C21.75 16.59 21.41 16.25 21 16.25Z" fill="black"/>
</svg>
