<svg width="24" height="24" viewBox="0 0 24 24" fill="none" xmlns="http://www.w3.org/2000/svg">
<path d="M20.79 3.06007C19.72 1.99007 17.97 1.99007 16.9 3.06007L13.06 6.90007C12.44 6.68007 11.73 6.81007 11.24 7.31007L5.58005 12.9701C4.30005 14.2501 4.14005 16.2501 5.11005 17.7001L2.44005 20.5001C2.15005 20.8001 2.17005 21.2701 2.47005 21.5601C2.62005 21.7001 2.80005 21.7701 2.99005 21.7701C3.19005 21.7701 3.39005 21.6901 3.53005 21.5401L6.18005 18.7701C6.80005 19.1801 7.52004 19.3801 8.23004 19.3801C9.19004 19.3801 10.15 19.0101 10.88 18.2801L16.54 12.6201C17.03 12.1301 17.16 11.4201 16.95 10.8001L20.79 6.96007C21.86 5.89007 21.86 4.14007 20.79 3.07007V3.06007ZM16.02 6.06007L17.79 7.83007L16.02 9.60007L14.26 7.84007L16.03 6.07007L16.02 6.06007ZM15.49 11.5401L9.83005 17.2001C8.95005 18.0801 7.52005 18.0801 6.65005 17.2001C5.77005 16.3201 5.77005 14.9001 6.65005 14.0201L12.31 8.36007C12.31 8.36007 12.42 8.29007 12.49 8.29007C12.56 8.29007 12.62 8.31007 12.67 8.36007L15.5 11.1901C15.6 11.2901 15.6 11.4501 15.5 11.5401H15.49ZM19.73 5.88007L18.85 6.76007L17.08 4.99007L17.96 4.11007C18.45 3.62007 19.24 3.62007 19.73 4.11007C20.22 4.60007 20.22 5.39007 19.73 5.88007Z" fill="black"/>
</svg>
