<svg width="24" height="24" viewBox="0 0 24 24" fill="none" xmlns="http://www.w3.org/2000/svg">
<path d="M21.29 5.30999C21.01 5.18999 20.69 5.25999 20.47 5.46999L18.06 7.87999C17.83 8.10999 17.51 8.24999 17.18 8.24999H14.76V7.99999C14.76 7.58999 14.42 7.24999 14.01 7.24999C13.6 7.24999 13.26 7.58999 13.26 7.99999V8.24999H13.01C12.95 8.24999 12.9 8.26999 12.84 8.27999C12.73 8.27999 12.62 8.24999 12.51 8.24999H11.76V7.99999C11.76 7.58999 11.42 7.24999 11.01 7.24999C10.6 7.24999 10.26 7.58999 10.26 7.99999V8.24999H8.76V7.99999C8.76 7.58999 8.42 7.24999 8.01 7.24999C7.6 7.24999 7.26 7.58999 7.26 7.99999V8.24999H3.75V7.99999C3.75 7.58999 3.41 7.24999 3 7.24999C2.59 7.24999 2.25 7.58999 2.25 7.99999V13C2.25 13.41 2.59 13.75 3 13.75C3.41 13.75 3.75 13.41 3.75 13V12.75H5.25V14C5.25 16.62 7.38 18.75 10 18.75H12.5C15.39 18.75 17.75 16.4 17.75 13.5C17.75 13.28 17.71 13.08 17.69 12.87C17.83 12.93 17.95 13.01 18.06 13.12L20.47 15.53C20.61 15.67 20.8 15.75 21 15.75C21.1 15.75 21.19 15.73 21.29 15.69C21.57 15.57 21.75 15.3 21.75 15V5.99999C21.75 5.69999 21.57 5.41999 21.29 5.30999ZM12.5 17.25H10C8.21 17.25 6.75 15.79 6.75 14V12.75H8.25V13.5C8.25 14.74 9.26 15.75 10.5 15.75H12.5C13.74 15.75 14.75 14.74 14.75 13.5C14.75 12.26 13.74 11.25 12.5 11.25H3.75V9.74999H12.5C14.57 9.74999 16.25 11.43 16.25 13.5C16.25 15.57 14.57 17.25 12.5 17.25ZM9.75 13.5V12.75H12.5C12.91 12.75 13.25 13.09 13.25 13.5C13.25 13.91 12.91 14.25 12.5 14.25H10.5C10.09 14.25 9.75 13.91 9.75 13.5ZM20.25 13.19L19.12 12.06C18.61 11.55 17.94 11.27 17.23 11.26C16.96 10.7 16.61 10.19 16.17 9.74999H17.18C17.91 9.74999 18.6 9.45999 19.12 8.93999L20.25 7.80999V13.19Z" fill="black"/>
</svg>
