<svg width="24" height="24" viewBox="0 0 24 24" fill="none" xmlns="http://www.w3.org/2000/svg">
<path d="M15.28 15.75H8.72C8.61 15.75 8.52 15.82 8.48 15.92L7.54 18.75H16.46L15.52 15.92C15.49 15.82 15.39 15.75 15.28 15.75Z" fill="black"/>
<path d="M15.5 9.75H8.5C8.09 9.75 7.75 10.09 7.75 10.5C7.75 10.91 8.09 11.25 8.5 11.25H15.5C15.91 11.25 16.25 10.91 16.25 10.5C16.25 10.09 15.91 9.75 15.5 9.75Z" fill="black"/>
<path d="M19 5.25H5C3.48 5.25 2.25 6.48 2.25 8V16C2.25 17.52 3.48 18.75 5 18.75H5.96L7.06 15.45C7.3 14.73 7.97 14.25 8.72 14.25H15.28C16.03 14.25 16.7 14.73 16.94 15.45L18.04 18.75H19C20.52 18.75 21.75 17.52 21.75 16V8C21.75 6.48 20.52 5.25 19 5.25ZM15.5 12.75H8.5C7.26 12.75 6.25 11.74 6.25 10.5C6.25 9.26 7.26 8.25 8.5 8.25H15.5C16.74 8.25 17.75 9.26 17.75 10.5C17.75 11.74 16.74 12.75 15.5 12.75Z" fill="black"/>
</svg>
