<svg width="24" height="24" viewBox="0 0 24 24" fill="none" xmlns="http://www.w3.org/2000/svg">
<path d="M9.5 16.25C10.4665 16.25 11.25 15.4665 11.25 14.5C11.25 13.5335 10.4665 12.75 9.5 12.75C8.5335 12.75 7.75 13.5335 7.75 14.5C7.75 15.4665 8.5335 16.25 9.5 16.25Z" fill="black"/>
<path d="M18 2.25H6C3.93 2.25 2.25 3.93 2.25 6V18C2.25 20.07 3.93 21.75 6 21.75H18C20.07 21.75 21.75 20.07 21.75 18V6C21.75 3.93 20.07 2.25 18 2.25ZM17.64 9.39C17.43 9.74 16.97 9.86 16.61 9.65L13.12 7.56C13.01 7.49 12.91 7.53 12.87 7.56C12.82 7.59 12.74 7.65 12.74 7.78V15.01C12.74 15.17 12.68 15.32 12.59 15.44C12.19 16.78 10.96 17.76 9.49 17.76C7.7 17.76 6.24 16.3 6.24 14.51C6.24 12.72 7.7 11.26 9.49 11.26C10.14 11.26 10.73 11.45 11.24 11.78V7.77C11.24 7.13 11.57 6.56 12.13 6.25C12.69 5.94 13.35 5.94 13.89 6.27L17.38 8.36C17.74 8.57 17.85 9.03 17.64 9.39Z" fill="black"/>
</svg>
