<svg width="24" height="24" viewBox="0 0 24 24" fill="none" xmlns="http://www.w3.org/2000/svg">
<path d="M12 11.25C13.2426 11.25 14.25 10.2426 14.25 9C14.25 7.75736 13.2426 6.75 12 6.75C10.7574 6.75 9.75 7.75736 9.75 9C9.75 10.2426 10.7574 11.25 12 11.25Z" fill="black"/>
<path d="M16 2.25H8C4.83 2.25 2.25 4.83 2.25 8V16C2.25 19.17 4.83 21.75 8 21.75H16C19.17 21.75 21.75 19.17 21.75 16V8C21.75 4.83 19.17 2.25 16 2.25ZM12 5.25C14.07 5.25 15.75 6.93 15.75 9C15.75 11.07 14.07 12.75 12 12.75C9.93 12.75 8.25 11.07 8.25 9C8.25 6.93 9.93 5.25 12 5.25ZM17 18.75C16.59 18.75 16.25 18.41 16.25 18C16.25 16.76 15.24 15.75 14 15.75H10C8.76 15.75 7.75 16.76 7.75 18C7.75 18.41 7.41 18.75 7 18.75C6.59 18.75 6.25 18.41 6.25 18C6.25 15.93 7.93 14.25 10 14.25H14C16.07 14.25 17.75 15.93 17.75 18C17.75 18.41 17.41 18.75 17 18.75Z" fill="black"/>
</svg>
