<svg width="24" height="24" viewBox="0 0 24 24" fill="none" xmlns="http://www.w3.org/2000/svg">
<path d="M19 3.25H5C3.48 3.25 2.25 4.48 2.25 6V14C2.25 15.52 3.48 16.75 5 16.75H8.79L7.33 19.67C7.14 20.04 7.29 20.49 7.67 20.68C8.04 20.86 8.49 20.72 8.68 20.34L10.47 16.76H13.54L15.33 20.34C15.46 20.6 15.73 20.76 16 20.76C16.11 20.76 16.23 20.73 16.33 20.68C16.7 20.49 16.85 20.04 16.67 19.67L15.21 16.75H19C20.52 16.75 21.75 15.52 21.75 14V6C21.75 4.48 20.52 3.25 19 3.25ZM18.53 8.53L14.53 12.53C14.38 12.68 14.19 12.75 14 12.75C13.81 12.75 13.62 12.68 13.47 12.53L10 9.06L6.53 12.53C6.24 12.82 5.76 12.82 5.47 12.53C5.18 12.24 5.18 11.76 5.47 11.47L9.47 7.47C9.76 7.18 10.24 7.18 10.53 7.47L14 10.94L17.47 7.47C17.76 7.18 18.24 7.18 18.53 7.47C18.82 7.76 18.82 8.24 18.53 8.53Z" fill="black"/>
</svg>
