<svg width="24" height="24" viewBox="0 0 24 24" fill="none" xmlns="http://www.w3.org/2000/svg">
<path d="M21.2501 11.85C20.9201 11.47 20.4301 11.25 19.9301 11.25H14.0001C13.3101 11.25 12.7501 10.69 12.7501 10V4.07002C12.7501 3.57002 12.5301 3.09002 12.1501 2.75002C11.7701 2.42002 11.2701 2.26002 10.7801 2.32002C5.78009 2.95002 2.11009 7.23002 2.25009 12.28C2.39009 17.36 6.64009 21.61 11.7201 21.75C11.8101 21.75 11.9101 21.75 12.0001 21.75C16.9301 21.75 21.0601 18.13 21.6701 13.22C21.7301 12.72 21.5801 12.22 21.2401 11.85H21.2501Z" fill="black"/>
<path d="M17.0001 9.75002H19.9001C20.4301 9.75002 20.9301 9.51002 21.2701 9.10002C21.6001 8.71002 21.7301 8.20002 21.6301 7.70002C21.1001 4.99002 19.0101 2.90002 16.3001 2.37002C15.8101 2.28002 15.3001 2.41002 14.9001 2.73002C14.4901 3.07002 14.2501 3.57002 14.2501 4.10002V7.00002C14.2501 8.52002 15.4801 9.75002 17.0001 9.75002Z" fill="black"/>
</svg>
