<svg width="24" height="24" viewBox="0 0 24 24" fill="none" xmlns="http://www.w3.org/2000/svg">
<path d="M19 12.2495C18.59 12.2495 18.25 12.5895 18.25 12.9995V16.7595C18.25 18.6795 16.69 20.2495 14.76 20.2495H7.24C5.32 20.2495 3.75 18.6895 3.75 16.7595V9.22945C3.75 7.30945 5.31 5.73945 7.24 5.73945H12C12.41 5.73945 12.75 5.39945 12.75 4.98945C12.75 4.57945 12.41 4.23945 12 4.23945H7.24C4.49 4.23945 2.25 6.47945 2.25 9.22945V16.7595C2.25 19.5095 4.49 21.7495 7.24 21.7495H14.77C17.52 21.7495 19.76 19.5095 19.76 16.7595V12.9995C19.76 12.5895 19.42 12.2495 19.01 12.2495H19Z" fill="black"/>
<path d="M21.53 5.64945L18.35 2.46945C18.06 2.17945 17.58 2.17945 17.29 2.46945C17 2.75945 17 3.23945 17.29 3.52945L19.03 5.26945C15.37 5.36945 12.1 7.56945 10.65 10.9495L9.72 13.1195C9.56 13.4995 9.73 13.9395 10.11 14.0995C10.21 14.1395 10.31 14.1595 10.4 14.1595C10.69 14.1595 10.97 13.9895 11.09 13.6995L12.02 11.5295C13.27 8.61945 16.12 6.73945 19.28 6.73945H19.36L17.29 8.80945C17 9.09945 17 9.57945 17.29 9.86945C17.44 10.0195 17.63 10.0895 17.82 10.0895C18.01 10.0895 18.2 10.0195 18.35 9.86945L21.53 6.68945C21.67 6.54945 21.75 6.35945 21.75 6.15945C21.75 5.95945 21.67 5.76945 21.53 5.62945V5.64945Z" fill="black"/>
</svg>
