<svg width="24" height="24" viewBox="0 0 24 24" fill="none" xmlns="http://www.w3.org/2000/svg">
<path d="M12 3.25C10.48 3.25 9.25 4.48 9.25 6V19C9.25 20.52 10.48 21.75 12 21.75C13.52 21.75 14.75 20.52 14.75 19V6C14.75 4.48 13.52 3.25 12 3.25ZM13.25 19C13.25 19.69 12.69 20.25 12 20.25C11.31 20.25 10.75 19.69 10.75 19V6C10.75 5.31 11.31 4.75 12 4.75C12.69 4.75 13.25 5.31 13.25 6V19Z" fill="black"/>
<path d="M19 8.25C17.48 8.25 16.25 9.48 16.25 11V19C16.25 20.52 17.48 21.75 19 21.75C20.52 21.75 21.75 20.52 21.75 19V11C21.75 9.48 20.52 8.25 19 8.25ZM20.25 19C20.25 19.69 19.69 20.25 19 20.25C18.31 20.25 17.75 19.69 17.75 19V11C17.75 10.31 18.31 9.75 19 9.75C19.69 9.75 20.25 10.31 20.25 11V19Z" fill="black"/>
<path d="M5 12.25C3.48 12.25 2.25 13.48 2.25 15V19C2.25 20.52 3.48 21.75 5 21.75C6.52 21.75 7.75 20.52 7.75 19V15C7.75 13.48 6.52 12.25 5 12.25ZM6.25 19C6.25 19.69 5.69 20.25 5 20.25C4.31 20.25 3.75 19.69 3.75 19V15C3.75 14.31 4.31 13.75 5 13.75C5.69 13.75 6.25 14.31 6.25 15V19Z" fill="black"/>
</svg>
