<svg width="24" height="24" viewBox="0 0 24 24" fill="none" xmlns="http://www.w3.org/2000/svg">
<path d="M19 16.25H6C4.48 16.25 3.25 17.48 3.25 19C3.25 20.52 4.48 21.75 6 21.75H19C20.52 21.75 21.75 20.52 21.75 19C21.75 17.48 20.52 16.25 19 16.25Z" fill="black"/>
<path d="M6 14.75H14C15.52 14.75 16.75 13.52 16.75 12C16.75 10.48 15.52 9.25 14 9.25H6C4.48 9.25 3.25 10.48 3.25 12C3.25 13.52 4.48 14.75 6 14.75Z" fill="black"/>
<path d="M6 7.75H10C11.52 7.75 12.75 6.52 12.75 5C12.75 3.48 11.52 2.25 10 2.25H6C4.48 2.25 3.25 3.48 3.25 5C3.25 6.52 4.48 7.75 6 7.75Z" fill="black"/>
</svg>
