<svg width="24" height="24" viewBox="0 0 24 24" fill="none" xmlns="http://www.w3.org/2000/svg">
<path d="M18.4999 2.25H16.4999C14.705 2.25 13.2499 3.70507 13.2499 5.5V7.5C13.2499 9.29493 14.705 10.75 16.4999 10.75H18.4999C20.2949 10.75 21.7499 9.29493 21.7499 7.5V5.5C21.7499 3.70507 20.2949 2.25 18.4999 2.25Z" fill="black"/>
<path d="M18.4999 13.25H16.4999C14.705 13.25 13.2499 14.7051 13.2499 16.5V18.5C13.2499 20.2949 14.705 21.75 16.4999 21.75H18.4999C20.2949 21.75 21.7499 20.2949 21.7499 18.5V16.5C21.7499 14.7051 20.2949 13.25 18.4999 13.25Z" fill="black"/>
<path d="M7.49993 2.25H5.49993C3.70501 2.25 2.24993 3.70507 2.24993 5.5V7.5C2.24993 9.29493 3.70501 10.75 5.49993 10.75H7.49993C9.29486 10.75 10.7499 9.29493 10.7499 7.5V5.5C10.7499 3.70507 9.29486 2.25 7.49993 2.25Z" fill="black"/>
<path d="M6.99993 13.25C4.92993 13.25 3.24993 14.93 3.24993 17C3.24993 17.76 3.47993 18.47 3.86993 19.06L2.45993 20.47C2.16993 20.76 2.16993 21.24 2.45993 21.53C2.60993 21.68 2.79993 21.75 2.98993 21.75C3.17993 21.75 3.36993 21.68 3.51993 21.53L4.92993 20.12C5.51993 20.51 6.22993 20.74 6.98993 20.74C9.05993 20.74 10.7399 19.06 10.7399 16.99C10.7399 14.92 9.05993 13.24 6.98993 13.24L6.99993 13.25Z" fill="black"/>
</svg>
