<svg width="24" height="24" viewBox="0 0 24 24" fill="none" xmlns="http://www.w3.org/2000/svg">
<path d="M18.4999 2.25H16.4999C14.7099 2.25 13.2499 3.71 13.2499 5.5V7.5C13.2499 9.29 14.7099 10.75 16.4999 10.75H18.4999C20.2899 10.75 21.7499 9.29 21.7499 7.5V5.5C21.7499 3.71 20.2899 2.25 18.4999 2.25ZM20.2499 7.5C20.2499 8.46 19.4599 9.25 18.4999 9.25H16.4999C15.5399 9.25 14.7499 8.46 14.7499 7.5V5.5C14.7499 4.54 15.5399 3.75 16.4999 3.75H18.4999C19.4599 3.75 20.2499 4.54 20.2499 5.5V7.5Z" fill="black"/>
<path d="M18.4999 13.25H16.4999C14.7099 13.25 13.2499 14.71 13.2499 16.5V18.5C13.2499 20.29 14.7099 21.75 16.4999 21.75H18.4999C20.2899 21.75 21.7499 20.29 21.7499 18.5V16.5C21.7499 14.71 20.2899 13.25 18.4999 13.25ZM20.2499 18.5C20.2499 19.46 19.4599 20.25 18.4999 20.25H16.4999C15.5399 20.25 14.7499 19.46 14.7499 18.5V16.5C14.7499 15.54 15.5399 14.75 16.4999 14.75H18.4999C19.4599 14.75 20.2499 15.54 20.2499 16.5V18.5Z" fill="black"/>
<path d="M7.49993 2.25H5.49993C3.70993 2.25 2.24993 3.71 2.24993 5.5V7.5C2.24993 9.29 3.70993 10.75 5.49993 10.75H7.49993C9.28993 10.75 10.7499 9.29 10.7499 7.5V5.5C10.7499 3.71 9.28993 2.25 7.49993 2.25ZM9.24993 7.5C9.24993 8.46 8.45993 9.25 7.49993 9.25H5.49993C4.53993 9.25 3.74993 8.46 3.74993 7.5V5.5C3.74993 4.54 4.53993 3.75 5.49993 3.75H7.49993C8.45993 3.75 9.24993 4.54 9.24993 5.5V7.5Z" fill="black"/>
<path d="M6.99993 13.25C4.92993 13.25 3.24993 14.93 3.24993 17C3.24993 17.76 3.47993 18.47 3.86993 19.06L2.45993 20.47C2.16993 20.76 2.16993 21.24 2.45993 21.53C2.60993 21.68 2.79993 21.75 2.98993 21.75C3.17993 21.75 3.36993 21.68 3.51993 21.53L4.92993 20.12C5.51993 20.51 6.22993 20.74 6.98993 20.74C9.05993 20.74 10.7399 19.06 10.7399 16.99C10.7399 14.92 9.05993 13.24 6.98993 13.24L6.99993 13.25ZM6.99993 19.25C5.75993 19.25 4.74993 18.24 4.74993 17C4.74993 15.76 5.75993 14.75 6.99993 14.75C8.23993 14.75 9.24993 15.76 9.24993 17C9.24993 18.24 8.23993 19.25 6.99993 19.25Z" fill="black"/>
</svg>
