<svg width="24" height="24" viewBox="0 0 24 24" fill="none" xmlns="http://www.w3.org/2000/svg">
<path d="M12 2.25C6.62 2.25 2.25 6.62 2.25 12C2.25 17.38 6.62 21.75 12 21.75C17.38 21.75 21.75 17.38 21.75 12C21.75 6.62 17.38 2.25 12 2.25ZM12 20.25C7.45 20.25 3.75 16.55 3.75 12C3.75 7.45 7.45 3.75 12 3.75C16.55 3.75 20.25 7.45 20.25 12C20.25 16.55 16.55 20.25 12 20.25Z" fill="black"/>
<path d="M15 10.25H14.75V10C14.75 8.48 13.52 7.25 12 7.25C10.48 7.25 9.25 8.48 9.25 10V10.25H9C8.04 10.25 7.25 11.04 7.25 12V15C7.25 15.96 8.04 16.75 9 16.75H15C15.96 16.75 16.75 15.96 16.75 15V12C16.75 11.04 15.96 10.25 15 10.25ZM10.75 10C10.75 9.31 11.31 8.75 12 8.75C12.69 8.75 13.25 9.31 13.25 10V10.25H10.75V10ZM15.25 15C15.25 15.14 15.14 15.25 15 15.25H9C8.86 15.25 8.75 15.14 8.75 15V12C8.75 11.86 8.86 11.75 9 11.75H15C15.14 11.75 15.25 11.86 15.25 12V15Z" fill="black"/>
</svg>
