<svg width="24" height="24" viewBox="0 0 24 24" fill="none" xmlns="http://www.w3.org/2000/svg">
<path d="M18.89 5.11019C16.84 3.06019 13.99 2.03019 11.08 2.30019C6.51999 2.71019 2.82999 6.31019 2.31999 10.8602C2.11999 12.6502 2.39999 14.4502 3.13999 16.0602C3.46999 16.7702 3.47999 17.6402 3.16999 18.4402L2.29999 20.7302C2.19999 21.0102 2.25999 21.3202 2.46999 21.5302C2.60999 21.6702 2.79999 21.7502 2.99999 21.7502C3.08999 21.7502 3.17999 21.7302 3.26999 21.7002L5.55999 20.8302C6.35999 20.5302 7.22999 20.5402 7.93999 20.8602C9.54999 21.6002 11.35 21.8802 13.14 21.6802C17.69 21.1602 21.29 17.4702 21.71 12.9102C21.98 10.0002 20.95 7.16019 18.9 5.10019L18.89 5.11019ZM20.21 12.7802C19.86 16.5802 16.75 19.7702 12.97 20.2002C11.45 20.3702 9.91999 20.1302 8.55999 19.5102C7.99999 19.2502 7.36999 19.1202 6.72999 19.1202C6.15999 19.1202 5.56999 19.2302 5.01999 19.4402L4.28999 19.7202L4.56999 18.9902C5.01999 17.8102 4.98999 16.5202 4.49999 15.4502C3.86999 14.0902 3.63999 12.5602 3.80999 11.0402C4.23999 7.26019 7.42999 4.14019 11.23 3.80019C13.69 3.58019 16.11 4.44019 17.84 6.18019C19.58 7.92019 20.45 10.3302 20.22 12.7902L20.21 12.7802Z" fill="black"/>
<path d="M12 8.75019H14C14.41 8.75019 14.75 8.41019 14.75 8.00019C14.75 7.59019 14.41 7.25019 14 7.25019H12.75V6.00019C12.75 5.59019 12.41 5.25019 12 5.25019C11.59 5.25019 11.25 5.59019 11.25 6.00019V7.37019C10.1 7.70019 9.24999 8.75019 9.24999 10.0002C9.24999 11.5202 10.48 12.7502 12 12.7502C12.69 12.7502 13.25 13.3102 13.25 14.0002C13.25 14.6902 12.69 15.2502 12 15.2502H9.99999C9.58999 15.2502 9.24999 15.5902 9.24999 16.0002C9.24999 16.4102 9.58999 16.7502 9.99999 16.7502H11.25V18.0002C11.25 18.4102 11.59 18.7502 12 18.7502C12.41 18.7502 12.75 18.4102 12.75 18.0002V16.6302C13.9 16.3002 14.75 15.2502 14.75 14.0002C14.75 12.4802 13.52 11.2502 12 11.2502C11.31 11.2502 10.75 10.6902 10.75 10.0002C10.75 9.31019 11.31 8.75019 12 8.75019Z" fill="black"/>
</svg>
