<svg width="24" height="24" viewBox="0 0 24 24" fill="none" xmlns="http://www.w3.org/2000/svg">
<path d="M16 2.25H8C4.83 2.25 2.25 4.83 2.25 8V16C2.25 19.17 4.83 21.75 8 21.75H16C19.17 21.75 21.75 19.17 21.75 16V8C21.75 4.83 19.17 2.25 16 2.25ZM20.25 16C20.25 18.34 18.34 20.25 16 20.25H8C5.66 20.25 3.75 18.34 3.75 16V8C3.75 5.66 5.66 3.75 8 3.75H16C18.34 3.75 20.25 5.66 20.25 8V16Z" fill="black"/>
<path d="M12 10.25C11.59 10.25 11.25 10.59 11.25 11V16C11.25 16.41 11.59 16.75 12 16.75C12.41 16.75 12.75 16.41 12.75 16V11C12.75 10.59 12.41 10.25 12 10.25Z" fill="black"/>
<path d="M16 7.25C15.59 7.25 15.25 7.59 15.25 8V16C15.25 16.41 15.59 16.75 16 16.75C16.41 16.75 16.75 16.41 16.75 16V8C16.75 7.59 16.41 7.25 16 7.25Z" fill="black"/>
<path d="M8 12.25C7.59 12.25 7.25 12.59 7.25 13V16C7.25 16.41 7.59 16.75 8 16.75C8.41 16.75 8.75 16.41 8.75 16V13C8.75 12.59 8.41 12.25 8 12.25Z" fill="black"/>
</svg>
