<svg width="24" height="24" viewBox="0 0 24 24" fill="none" xmlns="http://www.w3.org/2000/svg">
<path d="M5 2.25C3.48 2.25 2.25 3.48 2.25 5V18C2.25 19.52 3.48 20.75 5 20.75C6.52 20.75 7.75 19.52 7.75 18V5C7.75 3.48 6.52 2.25 5 2.25Z" fill="black"/>
<path d="M12 7.25C10.48 7.25 9.25 8.48 9.25 10V18C9.25 19.52 10.48 20.75 12 20.75C13.52 20.75 14.75 19.52 14.75 18V10C14.75 8.48 13.52 7.25 12 7.25Z" fill="black"/>
<path d="M19 11.25C17.48 11.25 16.25 12.48 16.25 14V18C16.25 19.52 17.48 20.75 19 20.75C20.52 20.75 21.75 19.52 21.75 18V14C21.75 12.48 20.52 11.25 19 11.25Z" fill="black"/>
</svg>
