<svg width="24" height="24" viewBox="0 0 24 24" fill="none" xmlns="http://www.w3.org/2000/svg">
<path d="M19 16.25H6C4.48 16.25 3.25 17.48 3.25 19C3.25 20.52 4.48 21.75 6 21.75H19C20.52 21.75 21.75 20.52 21.75 19C21.75 17.48 20.52 16.25 19 16.25ZM19 20.25H6C5.31 20.25 4.75 19.69 4.75 19C4.75 18.31 5.31 17.75 6 17.75H19C19.69 17.75 20.25 18.31 20.25 19C20.25 19.69 19.69 20.25 19 20.25Z" fill="black"/>
<path d="M6 14.75H14C15.52 14.75 16.75 13.52 16.75 12C16.75 10.48 15.52 9.25 14 9.25H6C4.48 9.25 3.25 10.48 3.25 12C3.25 13.52 4.48 14.75 6 14.75ZM6 10.75H14C14.69 10.75 15.25 11.31 15.25 12C15.25 12.69 14.69 13.25 14 13.25H6C5.31 13.25 4.75 12.69 4.75 12C4.75 11.31 5.31 10.75 6 10.75Z" fill="black"/>
<path d="M6 7.75H10C11.52 7.75 12.75 6.52 12.75 5C12.75 3.48 11.52 2.25 10 2.25H6C4.48 2.25 3.25 3.48 3.25 5C3.25 6.52 4.48 7.75 6 7.75ZM6 3.75H10C10.69 3.75 11.25 4.31 11.25 5C11.25 5.69 10.69 6.25 10 6.25H6C5.31 6.25 4.75 5.69 4.75 5C4.75 4.31 5.31 3.75 6 3.75Z" fill="black"/>
</svg>
