<svg width="24" height="24" viewBox="0 0 24 24" fill="none" xmlns="http://www.w3.org/2000/svg">
<path d="M18.65 5.59L16.41 3.35C15.71 2.65 14.75 2.25 13.76 2.25H8C5.93 2.25 4.25 3.93 4.25 6V18C4.25 20.07 5.93 21.75 8 21.75H16C18.07 21.75 19.75 20.07 19.75 18V8.24C19.75 7.25 19.35 6.29 18.65 5.59ZM12 11.25C13.52 11.25 14.75 12.48 14.75 14C14.75 15.25 13.9 16.3 12.75 16.63V18C12.75 18.41 12.41 18.75 12 18.75C11.59 18.75 11.25 18.41 11.25 18V16.75H10C9.59 16.75 9.25 16.41 9.25 16C9.25 15.59 9.59 15.25 10 15.25H12C12.69 15.25 13.25 14.69 13.25 14C13.25 13.31 12.69 12.75 12 12.75C10.48 12.75 9.25 11.52 9.25 10C9.25 8.75 10.1 7.7 11.25 7.37V6C11.25 5.59 11.59 5.25 12 5.25C12.41 5.25 12.75 5.59 12.75 6V7.25H14C14.41 7.25 14.75 7.59 14.75 8C14.75 8.41 14.41 8.75 14 8.75H12C11.31 8.75 10.75 9.31 10.75 10C10.75 10.69 11.31 11.25 12 11.25Z" fill="black"/>
</svg>
