<svg width="24" height="24" viewBox="0 0 24 24" fill="none" xmlns="http://www.w3.org/2000/svg">
<path d="M12 2.25C6.62 2.25 2.25 6.62 2.25 12C2.25 17.38 6.62 21.75 12 21.75C17.38 21.75 21.75 17.38 21.75 12C21.75 6.62 17.38 2.25 12 2.25ZM12.75 20.21V19C12.75 18.59 12.41 18.25 12 18.25C11.59 18.25 11.25 18.59 11.25 19V20.21C7.3 19.85 4.15 16.7 3.79 12.75H5C5.41 12.75 5.75 12.41 5.75 12C5.75 11.59 5.41 11.25 5 11.25H3.79C4.15 7.3 7.3 4.15 11.25 3.79V5C11.25 5.41 11.59 5.75 12 5.75C12.41 5.75 12.75 5.41 12.75 5V3.79C16.7 4.15 19.85 7.3 20.21 11.25H19C18.59 11.25 18.25 11.59 18.25 12C18.25 12.41 18.59 12.75 19 12.75H20.21C19.85 16.7 16.7 19.85 12.75 20.21Z" fill="black"/>
<path d="M12 8.25C11.59 8.25 11.25 8.59 11.25 9V11.69L8.47 14.47C8.18 14.76 8.18 15.24 8.47 15.53C8.62 15.68 8.81 15.75 9 15.75C9.19 15.75 9.38 15.68 9.53 15.53L12.53 12.53C12.67 12.39 12.75 12.2 12.75 12V9C12.75 8.59 12.41 8.25 12 8.25Z" fill="black"/>
</svg>
