<svg width="24" height="24" viewBox="0 0 24 24" fill="none" xmlns="http://www.w3.org/2000/svg">
<path d="M20 11.7501C20.41 11.7501 20.75 11.4101 20.75 11.0001V7.00008C20.75 6.04008 19.96 5.25008 19 5.25008H16.67C16.32 3.59008 14.89 2.32008 13.16 2.25008C12.18 2.21008 11.2 2.57008 10.46 3.27008C9.89001 3.81008 9.50001 4.50008 9.34001 5.25008H7.01001C6.05001 5.25008 5.26001 6.04008 5.26001 7.00008V10.3301C3.55001 10.6801 2.26001 12.1901 2.26001 14.0001C2.26001 15.8101 3.55001 17.3301 5.26001 17.6701V20.0001C5.26001 20.9601 6.05001 21.7501 7.01001 21.7501H19.01C19.97 21.7501 20.76 20.9601 20.76 20.0001V17.0001C20.76 16.5901 20.42 16.2501 20.01 16.2501C18.77 16.2501 17.76 15.2401 17.76 14.0001C17.76 12.7601 18.77 11.7501 20.01 11.7501H20Z" fill="black"/>
</svg>
