<svg width="24" height="24" viewBox="0 0 24 24" fill="none" xmlns="http://www.w3.org/2000/svg">
<path d="M21.2501 11.85C20.9201 11.47 20.4301 11.25 19.9301 11.25H14.0001C13.3101 11.25 12.7501 10.69 12.7501 10V4.07002C12.7501 3.57002 12.5301 3.09002 12.1501 2.75002C11.7701 2.42002 11.2701 2.26002 10.7801 2.32002C5.78009 2.95002 2.11009 7.23002 2.25009 12.28C2.39009 17.36 6.64009 21.61 11.7201 21.75C11.8101 21.75 11.9101 21.75 12.0001 21.75C16.9301 21.75 21.0601 18.13 21.6701 13.22C21.7301 12.72 21.5801 12.22 21.2401 11.85H21.2501ZM11.7701 20.25C7.47009 20.13 3.88009 16.54 3.76009 12.24C3.64009 7.97002 6.74009 4.35002 10.9701 3.82002H11.0001C11.0801 3.82002 11.1401 3.86002 11.1601 3.88002C11.1901 3.91002 11.2501 3.97002 11.2501 4.07002V10C11.2501 11.52 12.4801 12.75 14.0001 12.75H19.9301C20.0301 12.75 20.0901 12.81 20.1201 12.84C20.1501 12.87 20.1901 12.94 20.1801 13.03C19.6501 17.26 16.0601 20.39 11.7601 20.24L11.7701 20.25Z" fill="black"/>
<path d="M17.0001 9.75002H19.9001C20.4301 9.75002 20.9301 9.51002 21.2701 9.10002C21.6001 8.71002 21.7301 8.20002 21.6301 7.70002C21.1001 4.99002 19.0101 2.90002 16.3001 2.37002C15.8101 2.28002 15.3001 2.41002 14.9001 2.73002C14.4901 3.07002 14.2501 3.57002 14.2501 4.10002V7.00002C14.2501 8.52002 15.4801 9.75002 17.0001 9.75002ZM15.7501 4.10002C15.7501 4.02002 15.7901 3.94002 15.8501 3.89002C15.8901 3.86002 15.9301 3.84002 15.9801 3.84002C15.9901 3.84002 16.0001 3.84002 16.0101 3.84002C18.0901 4.24002 19.7501 5.91002 20.1601 7.99002C20.1701 8.04002 20.1601 8.10002 20.1101 8.15002C20.0601 8.21002 19.9801 8.25002 19.9001 8.25002H17.0001C16.3101 8.25002 15.7501 7.69002 15.7501 7.00002V4.10002Z" fill="black"/>
</svg>
