<svg width="24" height="24" viewBox="0 0 24 24" fill="none" xmlns="http://www.w3.org/2000/svg">
<path d="M16 2.25H8C4.83 2.25 2.25 4.83 2.25 8V16C2.25 19.17 4.83 21.75 8 21.75H16C19.17 21.75 21.75 19.17 21.75 16V8C21.75 4.83 19.17 2.25 16 2.25ZM20.25 16C20.25 18.34 18.34 20.25 16 20.25H8C5.66 20.25 3.75 18.34 3.75 16V8C3.75 5.66 5.66 3.75 8 3.75H16C18.34 3.75 20.25 5.66 20.25 8V16Z" fill="black"/>
<path d="M17 15.25H15.75V13C15.75 12.59 15.41 12.25 15 12.25C14.59 12.25 14.25 12.59 14.25 13V15.25H12.75V8C12.75 7.59 12.41 7.25 12 7.25C11.59 7.25 11.25 7.59 11.25 8V15.25H9.75V11C9.75 10.59 9.41 10.25 9 10.25C8.59 10.25 8.25 10.59 8.25 11V15.25H7C6.59 15.25 6.25 15.59 6.25 16C6.25 16.41 6.59 16.75 7 16.75H17C17.41 16.75 17.75 16.41 17.75 16C17.75 15.59 17.41 15.25 17 15.25Z" fill="black"/>
</svg>
