<svg width="24" height="24" viewBox="0 0 24 24" fill="none" xmlns="http://www.w3.org/2000/svg">
<path d="M20.41 11.0399L18.16 8.41986C17.92 8.13986 17.57 7.95986 17.2 7.93986L13.53 7.66986L11.89 5.75986C11.3 5.07986 10.56 4.52986 9.72999 4.18986L5.53999 2.43986C4.69999 2.08986 3.75999 2.23986 3.06999 2.83986C2.38999 3.42986 2.09999 4.34986 2.31999 5.22986L3.43999 9.64986C3.65999 10.5199 4.08999 11.3499 4.66999 12.0299L6.30999 13.9399L6.03999 17.6299C6.00999 17.9999 6.12999 18.3699 6.37999 18.6499L8.62999 21.2699C8.89999 21.5899 9.28999 21.7599 9.68999 21.7599C9.80999 21.7599 9.91999 21.7499 10.04 21.7199C10.56 21.5899 10.95 21.1799 11.07 20.6599L11.59 18.2399C11.6 18.1899 11.59 18.1399 11.59 18.0899C11.64 18.0899 11.69 18.1099 11.75 18.1199C11.87 18.1199 11.98 18.1299 12.1 18.1299C12.99 18.1299 13.85 17.8799 14.6 17.4099L15.47 18.4199C15.62 18.5899 15.83 18.6799 16.04 18.6799C16.21 18.6799 16.39 18.6199 16.53 18.4999C16.84 18.2299 16.88 17.7599 16.61 17.4399L15.73 16.4199C16.43 15.5899 16.8 14.5799 16.84 13.5399C16.87 13.5399 16.9 13.5599 16.94 13.5599C16.96 13.5599 16.98 13.5599 16.99 13.5599L19.44 13.3899C19.97 13.3499 20.43 13.0199 20.64 12.5299C20.85 12.0299 20.76 11.4799 20.41 11.0699V11.0399ZM4.04999 3.95986C4.29999 3.73986 4.64999 3.68986 4.95999 3.80986L9.13999 5.55986L4.89999 9.24986L3.78999 4.84986C3.70999 4.51986 3.80999 4.17986 4.06999 3.95986H4.04999ZM10.13 17.8999L9.64999 20.1299L7.54999 17.7199L7.70999 15.5299L8.48999 16.4399C8.96999 16.9999 9.55999 17.4099 10.22 17.6899C10.18 17.7499 10.15 17.8199 10.13 17.8899V17.8999ZM11.35 11.2999C11.08 10.9899 10.6 10.9499 10.29 11.2199C9.97999 11.4899 9.93999 11.9599 10.21 12.2799L13.6 16.2299C13.07 16.5099 12.47 16.6499 11.86 16.5999C10.99 16.5399 10.2 16.1399 9.61999 15.4699L5.80999 11.0399C5.69999 10.9099 5.59999 10.7799 5.50999 10.6399C5.57999 10.6099 5.64999 10.5699 5.70999 10.5199L10.27 6.55986C10.32 6.50986 10.36 6.45986 10.39 6.39986C10.51 6.50986 10.64 6.60986 10.75 6.72986L14.57 11.1699C15.58 12.3399 15.61 14.0299 14.74 15.2399L11.36 11.2999H11.35ZM16.88 12.0299C16.81 12.0299 16.74 12.0599 16.68 12.0899C16.5 11.4099 16.19 10.7599 15.7 10.1899L14.9 9.24986L17.02 9.38986L19.21 11.8599L16.88 12.0199V12.0299Z" fill="black"/>
</svg>
