<svg width="24" height="24" viewBox="0 0 24 24" fill="none" xmlns="http://www.w3.org/2000/svg">
<path d="M20 11.7501C20.41 11.7501 20.75 11.4101 20.75 11.0001V7.00008C20.75 6.04008 19.96 5.25008 19 5.25008H16.67C16.32 3.59008 14.89 2.32008 13.16 2.25008C12.18 2.21008 11.2 2.57008 10.46 3.27008C9.89001 3.81008 9.50001 4.50008 9.34001 5.25008H7.01001C6.05001 5.25008 5.26001 6.04008 5.26001 7.00008V10.3301C3.55001 10.6801 2.26001 12.1901 2.26001 14.0001C2.26001 15.8101 3.55001 17.3301 5.26001 17.6701V20.0001C5.26001 20.9601 6.05001 21.7501 7.01001 21.7501H19.01C19.97 21.7501 20.76 20.9601 20.76 20.0001V17.0001C20.76 16.5901 20.42 16.2501 20.01 16.2501C18.77 16.2501 17.76 15.2401 17.76 14.0001C17.76 12.7601 18.77 11.7501 20.01 11.7501H20ZM19.25 20.0001C19.25 20.1401 19.14 20.2501 19 20.2501H7.00001C6.86001 20.2501 6.75001 20.1401 6.75001 20.0001V17.0001C6.75001 16.5901 6.41001 16.2501 6.00001 16.2501C4.76001 16.2501 3.75001 15.2401 3.75001 14.0001C3.75001 12.7601 4.76001 11.7501 6.00001 11.7501C6.41001 11.7501 6.75001 11.4101 6.75001 11.0001V7.00008C6.75001 6.86008 6.86001 6.75008 7.00001 6.75008H10C10.41 6.75008 10.74 6.42008 10.75 6.01008C10.76 5.38008 11.02 4.80008 11.48 4.36008C11.93 3.94008 12.5 3.71008 13.09 3.74008C14.26 3.79008 15.23 4.80008 15.25 6.00008C15.25 6.41008 15.59 6.74008 16 6.74008H19C19.14 6.74008 19.25 6.85008 19.25 6.99008V10.3201C17.54 10.6701 16.25 12.1801 16.25 13.9901C16.25 15.8001 17.54 17.3201 19.25 17.6601V20.0001Z" fill="black"/>
</svg>
