<svg width="24" height="24" viewBox="0 0 24 24" fill="none" xmlns="http://www.w3.org/2000/svg">
<path d="M18.65 5.59L16.41 3.35C15.71 2.65 14.75 2.25 13.76 2.25H8C5.93 2.25 4.25 3.93 4.25 6V18C4.25 20.07 5.93 21.75 8 21.75H16C18.07 21.75 19.75 20.07 19.75 18V8.24C19.75 7.25 19.35 6.29 18.65 5.59ZM18.25 18C18.25 19.24 17.24 20.25 16 20.25H8C6.76 20.25 5.75 19.24 5.75 18V6C5.75 4.76 6.76 3.75 8 3.75H13.76C14.35 3.75 14.93 3.99 15.35 4.41L17.59 6.65C18.01 7.07 18.25 7.65 18.25 8.24V18Z" fill="black"/>
<path d="M12 8.75H14C14.41 8.75 14.75 8.41 14.75 8C14.75 7.59 14.41 7.25 14 7.25H12.75V6C12.75 5.59 12.41 5.25 12 5.25C11.59 5.25 11.25 5.59 11.25 6V7.37C10.1 7.7 9.25 8.75 9.25 10C9.25 11.52 10.48 12.75 12 12.75C12.69 12.75 13.25 13.31 13.25 14C13.25 14.69 12.69 15.25 12 15.25H10C9.59 15.25 9.25 15.59 9.25 16C9.25 16.41 9.59 16.75 10 16.75H11.25V18C11.25 18.41 11.59 18.75 12 18.75C12.41 18.75 12.75 18.41 12.75 18V16.63C13.9 16.3 14.75 15.25 14.75 14C14.75 12.48 13.52 11.25 12 11.25C11.31 11.25 10.75 10.69 10.75 10C10.75 9.31 11.31 8.75 12 8.75Z" fill="black"/>
</svg>
