<svg width="24" height="24" viewBox="0 0 24 24" fill="none" xmlns="http://www.w3.org/2000/svg">
<path d="M19 3.25H5C3.48 3.25 2.25 4.48 2.25 6V14C2.25 15.52 3.48 16.75 5 16.75H8.79L7.33 19.67C7.14 20.04 7.29 20.49 7.67 20.68C8.04 20.86 8.49 20.72 8.68 20.34L10.47 16.76H13.54L15.33 20.34C15.46 20.6 15.73 20.76 16 20.76C16.11 20.76 16.23 20.73 16.33 20.68C16.7 20.49 16.85 20.04 16.67 19.67L15.21 16.75H19C20.52 16.75 21.75 15.52 21.75 14V6C21.75 4.48 20.52 3.25 19 3.25ZM20.25 14C20.25 14.69 19.69 15.25 19 15.25H5C4.31 15.25 3.75 14.69 3.75 14V6C3.75 5.31 4.31 4.75 5 4.75H19C19.69 4.75 20.25 5.31 20.25 6V14Z" fill="black"/>
<path d="M17.47 7.47L14 10.94L10.53 7.47C10.24 7.18 9.76 7.18 9.47 7.47L5.47 11.47C5.18 11.76 5.18 12.24 5.47 12.53C5.76 12.82 6.24 12.82 6.53 12.53L10 9.06L13.47 12.53C13.62 12.68 13.81 12.75 14 12.75C14.19 12.75 14.38 12.68 14.53 12.53L18.53 8.53C18.82 8.24 18.82 7.76 18.53 7.47C18.24 7.18 17.76 7.18 17.47 7.47Z" fill="black"/>
</svg>
