<svg width="24" height="24" viewBox="0 0 24 24" fill="none" xmlns="http://www.w3.org/2000/svg">
<path d="M16 2.25H8C4.83 2.25 2.25 4.83 2.25 8V16C2.25 19.17 4.83 21.75 8 21.75H16C19.17 21.75 21.75 19.17 21.75 16V8C21.75 4.83 19.17 2.25 16 2.25ZM20.25 16C20.25 18.34 18.34 20.25 16 20.25H8C5.66 20.25 3.75 18.34 3.75 16V8C3.75 5.66 5.66 3.75 8 3.75H16C18.34 3.75 20.25 5.66 20.25 8V16Z" fill="black"/>
<path d="M17.47 9.47L14 12.94L10.53 9.47C10.24 9.18 9.76 9.18 9.47 9.47L5.47 13.47C5.18 13.76 5.18 14.24 5.47 14.53C5.76 14.82 6.24 14.82 6.53 14.53L10 11.06L13.47 14.53C13.62 14.68 13.81 14.75 14 14.75C14.19 14.75 14.38 14.68 14.53 14.53L18.53 10.53C18.82 10.24 18.82 9.76 18.53 9.47C18.24 9.18 17.76 9.18 17.47 9.47Z" fill="black"/>
</svg>
