<svg width="24" height="24" viewBox="0 0 24 24" fill="none" xmlns="http://www.w3.org/2000/svg">
<path d="M18.89 5.11019C16.84 3.06019 13.99 2.03019 11.08 2.30019C6.51999 2.71019 2.82999 6.31019 2.31999 10.8602C2.11999 12.6502 2.39999 14.4502 3.13999 16.0602C3.46999 16.7702 3.47999 17.6402 3.16999 18.4402L2.29999 20.7302C2.19999 21.0102 2.25999 21.3202 2.46999 21.5302C2.60999 21.6702 2.79999 21.7502 2.99999 21.7502C3.08999 21.7502 3.17999 21.7302 3.26999 21.7002L5.55999 20.8302C6.35999 20.5302 7.22999 20.5402 7.93999 20.8602C9.54999 21.6002 11.35 21.8802 13.14 21.6802C17.69 21.1602 21.29 17.4702 21.71 12.9102C21.98 10.0002 20.95 7.16019 18.9 5.10019L18.89 5.11019ZM12 11.2502C13.52 11.2502 14.75 12.4802 14.75 14.0002C14.75 15.2502 13.9 16.3002 12.75 16.6302V18.0002C12.75 18.4102 12.41 18.7502 12 18.7502C11.59 18.7502 11.25 18.4102 11.25 18.0002V16.7502H9.99999C9.58999 16.7502 9.24999 16.4102 9.24999 16.0002C9.24999 15.5902 9.58999 15.2502 9.99999 15.2502H12C12.69 15.2502 13.25 14.6902 13.25 14.0002C13.25 13.3102 12.69 12.7502 12 12.7502C10.48 12.7502 9.24999 11.5202 9.24999 10.0002C9.24999 8.75019 10.1 7.70019 11.25 7.37019V6.00019C11.25 5.59019 11.59 5.25019 12 5.25019C12.41 5.25019 12.75 5.59019 12.75 6.00019V7.25019H14C14.41 7.25019 14.75 7.59019 14.75 8.00019C14.75 8.41019 14.41 8.75019 14 8.75019H12C11.31 8.75019 10.75 9.31019 10.75 10.0002C10.75 10.6902 11.31 11.2502 12 11.2502Z" fill="black"/>
</svg>
