<svg width="24" height="24" viewBox="0 0 24 24" fill="none" xmlns="http://www.w3.org/2000/svg">
<path d="M16 2.25H8C4.83 2.25 2.25 4.83 2.25 8V16C2.25 19.17 4.83 21.75 8 21.75H16C19.17 21.75 21.75 19.17 21.75 16V8C21.75 4.83 19.17 2.25 16 2.25ZM8.75 16C8.75 16.41 8.41 16.75 8 16.75C7.59 16.75 7.25 16.41 7.25 16V13C7.25 12.59 7.59 12.25 8 12.25C8.41 12.25 8.75 12.59 8.75 13V16ZM12.75 16C12.75 16.41 12.41 16.75 12 16.75C11.59 16.75 11.25 16.41 11.25 16V11C11.25 10.59 11.59 10.25 12 10.25C12.41 10.25 12.75 10.59 12.75 11V16ZM16.75 16C16.75 16.41 16.41 16.75 16 16.75C15.59 16.75 15.25 16.41 15.25 16V8C15.25 7.59 15.59 7.25 16 7.25C16.41 7.25 16.75 7.59 16.75 8V16Z" fill="black"/>
</svg>
