<svg width="24" height="24" viewBox="0 0 24 24" fill="none" xmlns="http://www.w3.org/2000/svg">
<path d="M15 11.75H9C8.86193 11.75 8.75 11.8619 8.75 12V15C8.75 15.1381 8.86193 15.25 9 15.25H15C15.1381 15.25 15.25 15.1381 15.25 15V12C15.25 11.8619 15.1381 11.75 15 11.75Z" fill="black"/>
<path d="M13.25 10C13.25 9.31 12.69 8.75 12 8.75C11.31 8.75 10.75 9.31 10.75 10V10.25H13.25V10Z" fill="black"/>
<path d="M12 2.25C6.62 2.25 2.25 6.62 2.25 12C2.25 17.38 6.62 21.75 12 21.75C17.38 21.75 21.75 17.38 21.75 12C21.75 6.62 17.38 2.25 12 2.25ZM16.75 15C16.75 15.96 15.96 16.75 15 16.75H9C8.04 16.75 7.25 15.96 7.25 15V12C7.25 11.04 8.04 10.25 9 10.25H9.25V10C9.25 8.48 10.48 7.25 12 7.25C13.52 7.25 14.75 8.48 14.75 10V10.25H15C15.96 10.25 16.75 11.04 16.75 12V15Z" fill="black"/>
</svg>
