<svg width="24" height="24" viewBox="0 0 24 24" fill="none" xmlns="http://www.w3.org/2000/svg">
<path d="M17.82 11.0995C17.35 11.0995 16.91 10.9195 16.58 10.5895C16.25 10.2595 16.07 9.81945 16.07 9.34945C16.07 9.00945 16.17 8.67945 16.35 8.39945C14.85 9.09945 13.63 10.3395 12.95 11.9295L12.02 14.0995C11.74 14.7395 11.11 15.1595 10.41 15.1595C10.17 15.1595 9.94 15.1095 9.72 15.0195C9.29 14.8395 8.96 14.4995 8.78 14.0595C8.61 13.6295 8.61 13.1495 8.8 12.7195L9.73 10.5495C11.01 7.56945 13.56 5.41945 16.6 4.60945C16.03 4.37945 15.41 4.24945 14.77 4.24945H7.24C4.49 4.24945 2.25 6.48945 2.25 9.23945V16.7695C2.25 19.5195 4.49 21.7595 7.24 21.7595H14.77C17.52 21.7595 19.76 19.5195 19.76 16.7695V9.90945L19.07 10.5995C18.74 10.9295 18.3 11.1095 17.83 11.1095L17.82 11.0995Z" fill="black"/>
<path d="M21.53 5.64945L18.35 2.46945C18.06 2.17945 17.58 2.17945 17.29 2.46945C17 2.75945 17 3.23945 17.29 3.52945L19.03 5.26945C15.37 5.36945 12.1 7.56945 10.65 10.9495L9.72 13.1195C9.56 13.4995 9.73 13.9395 10.11 14.0995C10.21 14.1395 10.31 14.1595 10.4 14.1595C10.69 14.1595 10.97 13.9895 11.09 13.6995L12.02 11.5295C13.27 8.61945 16.12 6.73945 19.28 6.73945H19.36L17.29 8.80945C17 9.09945 17 9.57945 17.29 9.86945C17.44 10.0195 17.63 10.0895 17.82 10.0895C18.01 10.0895 18.2 10.0195 18.35 9.86945L21.53 6.68945C21.67 6.54945 21.75 6.35945 21.75 6.15945C21.75 5.95945 21.67 5.76945 21.53 5.62945V5.64945Z" fill="black"/>
</svg>
