<svg width="24" height="24" viewBox="0 0 24 24" fill="none" xmlns="http://www.w3.org/2000/svg">
<path d="M6.63999 7.72986L10.36 4.49986C10.16 4.37986 9.94999 4.27986 9.72999 4.18986L5.53999 2.43986C4.69999 2.08986 3.75999 2.23986 3.06999 2.83986C2.38999 3.42986 2.09999 4.34986 2.31999 5.22986L3.43999 9.64986C3.49999 9.86986 3.56999 10.0899 3.64999 10.3099L6.52999 7.80986C6.52999 7.80986 6.59999 7.76986 6.63999 7.74986V7.72986Z" fill="black"/>
<path d="M20.41 11.0399L18.16 8.41986C17.92 8.13986 17.57 7.95986 17.2 7.93986L14.94 7.77986L16.46 9.54986C17.43 10.6799 17.87 12.0899 17.84 13.4799L19.45 13.3699C19.98 13.3299 20.44 12.9999 20.65 12.5099C20.86 12.0099 20.77 11.4599 20.42 11.0499L20.41 11.0399Z" fill="black"/>
<path d="M6.21999 15.3499L6.05999 17.6299C6.02999 17.9999 6.14999 18.3699 6.39999 18.6499L8.64999 21.2699C8.91999 21.5899 9.30999 21.7599 9.70999 21.7599C9.82999 21.7599 9.93999 21.7499 10.06 21.7199C10.58 21.5899 10.97 21.1799 11.09 20.6599L11.43 19.0699C9.99999 18.8999 8.68999 18.2299 7.73999 17.1199L6.22999 15.3599L6.21999 15.3499Z" fill="black"/>
<path d="M16.38 17.1599C16.22 17.3499 16.06 17.5399 15.87 17.6999C15.68 17.8699 15.46 18.0099 15.25 18.1499L15.46 18.3999C15.61 18.5699 15.82 18.6599 16.03 18.6599C16.2 18.6599 16.38 18.5999 16.52 18.4799C16.83 18.2099 16.87 17.7399 16.6 17.4199L16.38 17.1599Z" fill="black"/>
<path d="M11.89 5.75986C11.79 5.63986 11.68 5.53986 11.57 5.42986L10.28 6.54986C10.28 6.54986 10.28 6.55986 10.27 6.55986L5.70999 10.5199C5.70999 10.5199 5.61999 10.5699 5.56999 10.5999L4.37999 11.6299C4.46999 11.7599 4.55999 11.8899 4.66999 12.0099L8.47999 16.4499C9.30999 17.4199 10.47 17.9999 11.74 18.0999C11.86 18.0999 11.97 18.1099 12.09 18.1099C12.98 18.1099 13.84 17.8599 14.59 17.3899L10.2 12.2899C9.92999 11.9799 9.96999 11.4999 10.28 11.2299C10.59 10.9599 11.07 10.9999 11.34 11.3099L15.72 16.3999C17.2 14.6299 17.24 11.9999 15.69 10.1999L11.88 5.75986H11.89Z" fill="black"/>
</svg>
