<svg width="24" height="24" viewBox="0 0 24 24" fill="none" xmlns="http://www.w3.org/2000/svg">
<path d="M5 2.25C3.48 2.25 2.25 3.48 2.25 5V18C2.25 19.52 3.48 20.75 5 20.75C6.52 20.75 7.75 19.52 7.75 18V5C7.75 3.48 6.52 2.25 5 2.25ZM6.25 18C6.25 18.69 5.69 19.25 5 19.25C4.31 19.25 3.75 18.69 3.75 18V5C3.75 4.31 4.31 3.75 5 3.75C5.69 3.75 6.25 4.31 6.25 5V18Z" fill="black"/>
<path d="M12 7.25C10.48 7.25 9.25 8.48 9.25 10V18C9.25 19.52 10.48 20.75 12 20.75C13.52 20.75 14.75 19.52 14.75 18V10C14.75 8.48 13.52 7.25 12 7.25ZM13.25 18C13.25 18.69 12.69 19.25 12 19.25C11.31 19.25 10.75 18.69 10.75 18V10C10.75 9.31 11.31 8.75 12 8.75C12.69 8.75 13.25 9.31 13.25 10V18Z" fill="black"/>
<path d="M19 11.25C17.48 11.25 16.25 12.48 16.25 14V18C16.25 19.52 17.48 20.75 19 20.75C20.52 20.75 21.75 19.52 21.75 18V14C21.75 12.48 20.52 11.25 19 11.25ZM20.25 18C20.25 18.69 19.69 19.25 19 19.25C18.31 19.25 17.75 18.69 17.75 18V14C17.75 13.31 18.31 12.75 19 12.75C19.69 12.75 20.25 13.31 20.25 14V18Z" fill="black"/>
</svg>
