<svg width="24" height="24" viewBox="0 0 24 24" fill="none" xmlns="http://www.w3.org/2000/svg">
<path d="M6.81 11.9994C6.81 11.2194 6.85 10.4694 6.92 9.74938H2.52C2.35 10.4694 2.25 11.2194 2.25 11.9994C2.25 12.7794 2.35 13.5294 2.52 14.2494H6.91C6.84 13.5294 6.8 12.7794 6.8 11.9994H6.81Z" fill="black"/>
<path d="M15.57 9.74938H8.42C8.35 10.4594 8.3 11.2094 8.3 11.9994C8.3 12.7894 8.34 13.5394 8.42 14.2494H15.57C15.64 13.5394 15.69 12.7894 15.69 11.9994C15.69 11.2094 15.65 10.4594 15.57 9.74938Z" fill="black"/>
<path d="M15.36 8.24938C14.73 4.87938 13.31 2.74938 12 2.74938C10.69 2.74938 9.27 4.87938 8.64 8.24938H15.36Z" fill="black"/>
<path d="M8.64 15.7494C9.27 19.1194 10.69 21.2494 12 21.2494C13.31 21.2494 14.73 19.1194 15.36 15.7494H8.64Z" fill="black"/>
<path d="M7.11 15.7494H3C4.14 18.4894 6.5 20.5794 9.4 21.3894C8.33 20.1694 7.53 18.1894 7.11 15.7494Z" fill="black"/>
<path d="M16.89 15.7494C16.48 18.1894 15.67 20.1594 14.6 21.3894C17.49 20.5894 19.85 18.4894 21 15.7494H16.89Z" fill="black"/>
<path d="M21.48 14.2494C21.65 13.5294 21.75 12.7794 21.75 11.9994C21.75 11.2194 21.65 10.4694 21.48 9.74938H17.09C17.16 10.4694 17.2 11.2194 17.2 11.9994C17.2 12.7794 17.16 13.5294 17.09 14.2494H21.48Z" fill="black"/>
<path d="M7.11 8.24938C7.52 5.80938 8.33 3.83938 9.4 2.60938C6.51 3.40938 4.15 5.50938 3 8.24938H7.11Z" fill="black"/>
<path d="M16.89 8.24938H21C19.86 5.50938 17.5 3.41938 14.6 2.60938C15.67 3.82938 16.47 5.80938 16.89 8.24938Z" fill="black"/>
</svg>
