<svg width="24" height="24" viewBox="0 0 24 24" fill="none" xmlns="http://www.w3.org/2000/svg">
<path d="M12 2.25C6.62 2.25 2.25 6.62 2.25 12C2.25 17.38 6.62 21.75 12 21.75C17.38 21.75 21.75 17.38 21.75 12C21.75 6.62 17.38 2.25 12 2.25ZM12 20.25C10.9 20.25 9.72 18.51 9.13 15.75H14.87C14.28 18.51 13.1 20.25 12 20.25ZM8.88 14.25C8.8 13.54 8.75 12.79 8.75 12C8.75 11.21 8.8 10.46 8.88 9.75H15.11C15.19 10.46 15.24 11.21 15.24 12C15.24 12.79 15.19 13.54 15.11 14.25H8.88ZM3.75 12C3.75 11.22 3.87 10.47 4.07 9.75H7.37C7.29 10.47 7.25 11.22 7.25 12C7.25 12.78 7.29 13.53 7.37 14.25H4.07C3.87 13.53 3.75 12.78 3.75 12ZM12 3.75C13.1 3.75 14.28 5.49 14.87 8.25H9.13C9.72 5.49 10.9 3.75 12 3.75ZM16.63 9.75H19.93C20.13 10.47 20.25 11.22 20.25 12C20.25 12.78 20.13 13.53 19.93 14.25H16.63C16.71 13.53 16.75 12.78 16.75 12C16.75 11.22 16.71 10.47 16.63 9.75ZM19.34 8.25H16.41C16.11 6.68 15.62 5.34 14.99 4.32C16.88 5.06 18.42 6.46 19.34 8.25ZM9.01 4.32C8.38 5.34 7.89 6.68 7.59 8.25H4.66C5.58 6.46 7.12 5.06 9.01 4.32ZM4.66 15.75H7.59C7.89 17.32 8.38 18.66 9.01 19.68C7.13 18.94 5.58 17.54 4.66 15.75ZM14.99 19.68C15.62 18.66 16.11 17.32 16.41 15.75H19.34C18.42 17.54 16.88 18.94 14.99 19.68Z" fill="black"/>
</svg>
