<svg width="24" height="24" viewBox="0 0 24 24" fill="none" xmlns="http://www.w3.org/2000/svg">
<path d="M9 14.25C10.2426 14.25 11.25 13.2426 11.25 12C11.25 10.7574 10.2426 9.75 9 9.75C7.75736 9.75 6.75 10.7574 6.75 12C6.75 13.2426 7.75736 14.25 9 14.25Z" fill="black"/>
<path d="M19 5.25H5C3.48 5.25 2.25 6.48 2.25 8V16C2.25 17.52 3.48 18.75 5 18.75H19C20.52 18.75 21.75 17.52 21.75 16V8C21.75 6.48 20.52 5.25 19 5.25ZM9 15.75C6.93 15.75 5.25 14.07 5.25 12C5.25 9.93 6.93 8.25 9 8.25C11.07 8.25 12.75 9.93 12.75 12C12.75 14.07 11.07 15.75 9 15.75ZM18 14.75H16C15.59 14.75 15.25 14.41 15.25 14C15.25 13.59 15.59 13.25 16 13.25H18C18.41 13.25 18.75 13.59 18.75 14C18.75 14.41 18.41 14.75 18 14.75ZM18 10.75H16C15.59 10.75 15.25 10.41 15.25 10C15.25 9.59 15.59 9.25 16 9.25H18C18.41 9.25 18.75 9.59 18.75 10C18.75 10.41 18.41 10.75 18 10.75Z" fill="black"/>
</svg>
