<svg width="24" height="24" viewBox="0 0 24 24" fill="none" xmlns="http://www.w3.org/2000/svg">
<path d="M16 2.25H8C5.93 2.25 4.25 3.93 4.25 6V18C4.25 20.07 5.93 21.75 8 21.75H16C18.07 21.75 19.75 20.07 19.75 18V6C19.75 3.93 18.07 2.25 16 2.25ZM18.25 18C18.25 19.24 17.24 20.25 16 20.25H8C6.76 20.25 5.75 19.24 5.75 18V6C5.75 4.76 6.76 3.75 8 3.75H16C17.24 3.75 18.25 4.76 18.25 6V18Z" fill="black"/>
<path d="M10.84 5.39C9.61 5.7 8.57 6.47 7.92 7.56C7.27 8.65 7.08 9.93 7.39 11.16C7.57 11.89 7.94 12.58 8.43 13.14C8.7 13.45 9.18 13.48 9.49 13.2C9.8 12.93 9.83 12.45 9.56 12.14C9.22 11.75 8.98 11.29 8.85 10.78C8.64 9.94 8.77 9.06 9.21 8.32C9.65 7.57 10.36 7.05 11.21 6.84C12.95 6.4 14.72 7.46 15.16 9.2C15.37 10.04 15.24 10.92 14.8 11.66C14.36 12.41 13.65 12.93 12.8 13.14C12.4 13.24 12.15 13.65 12.26 14.05C12.35 14.39 12.65 14.62 12.99 14.62C13.05 14.62 13.11 14.62 13.17 14.6C14.4 14.29 15.44 13.52 16.09 12.43C16.74 11.34 16.93 10.06 16.62 8.83C15.98 6.29 13.39 4.75 10.85 5.38L10.84 5.39Z" fill="black"/>
<path d="M12.45 11.4C12.12 11.15 11.65 11.22 11.4 11.55L8.4 15.55C8.15 15.88 8.22 16.35 8.55 16.6C8.69 16.7 8.84 16.75 9 16.75C9.23 16.75 9.45 16.65 9.6 16.45L12.6 12.45C12.85 12.12 12.78 11.65 12.45 11.4Z" fill="black"/>
</svg>
