<svg width="24" height="24" viewBox="0 0 24 24" fill="none" xmlns="http://www.w3.org/2000/svg">
<path d="M9 18.25H4C3.59 18.25 3.25 18.59 3.25 19C3.25 19.41 3.59 19.75 4 19.75H9C9.41 19.75 9.75 19.41 9.75 19C9.75 18.59 9.41 18.25 9 18.25Z" fill="black"/>
<path d="M20 18.25H13C12.59 18.25 12.25 18.59 12.25 19C12.25 19.41 12.59 19.75 13 19.75H20C20.41 19.75 20.75 19.41 20.75 19C20.75 18.59 20.41 18.25 20 18.25Z" fill="black"/>
<path d="M20 7.25H4C3.04 7.25 2.25 8.04 2.25 9V15C2.25 15.96 3.04 16.75 4 16.75H20C20.96 16.75 21.75 15.96 21.75 15V9C21.75 8.04 20.96 7.25 20 7.25ZM6.75 13C6.75 13.41 6.41 13.75 6 13.75C5.59 13.75 5.25 13.41 5.25 13V11C5.25 10.59 5.59 10.25 6 10.25C6.41 10.25 6.75 10.59 6.75 11V13ZM9.75 13C9.75 13.41 9.41 13.75 9 13.75C8.59 13.75 8.25 13.41 8.25 13V11C8.25 10.59 8.59 10.25 9 10.25C9.41 10.25 9.75 10.59 9.75 11V13ZM12.75 13C12.75 13.41 12.41 13.75 12 13.75C11.59 13.75 11.25 13.41 11.25 13V11C11.25 10.59 11.59 10.25 12 10.25C12.41 10.25 12.75 10.59 12.75 11V13ZM15.69 11.29C15.66 11.38 15.6 11.46 15.53 11.53C15.39 11.67 15.2 11.75 15 11.75C14.8 11.75 14.61 11.67 14.47 11.53C14.4 11.46 14.34 11.38 14.31 11.29C14.27 11.2 14.25 11.1 14.25 11C14.25 10.9 14.27 10.8 14.31 10.71C14.35 10.62 14.4 10.54 14.47 10.47C14.68 10.26 15.01 10.19 15.29 10.31C15.38 10.35 15.46 10.4 15.53 10.47C15.6 10.54 15.65 10.62 15.69 10.71C15.73 10.8 15.75 10.9 15.75 11C15.75 11.1 15.73 11.2 15.69 11.29ZM18.69 11.29C18.66 11.38 18.6 11.46 18.53 11.53C18.39 11.67 18.2 11.75 18 11.75C17.9 11.75 17.8 11.73 17.71 11.69C17.62 11.66 17.54 11.6 17.47 11.53C17.4 11.46 17.34 11.38 17.31 11.29C17.27 11.2 17.25 11.1 17.25 11C17.25 10.9 17.27 10.8 17.31 10.71C17.35 10.62 17.4 10.54 17.47 10.47C17.68 10.26 18.01 10.19 18.29 10.31C18.38 10.35 18.46 10.4 18.53 10.47C18.6 10.54 18.66 10.62 18.69 10.71C18.73 10.8 18.75 10.9 18.75 11C18.75 11.1 18.73 11.2 18.69 11.29Z" fill="black"/>
</svg>
