<svg width="24" height="24" viewBox="0 0 24 24" fill="none" xmlns="http://www.w3.org/2000/svg">
<path d="M20.78 18.75L17.94 15.96C19.07 14.61 19.75 12.88 19.75 11C19.75 6.73 16.27 3.25 12 3.25C7.73 3.25 4.25 6.73 4.25 11C4.25 12.89 4.93 14.62 6.06 15.96L3.22 18.75C2.71 19.25 2.56 20 2.83 20.66C3.1 21.32 3.74 21.75 4.45 21.75H19.56C20.27 21.75 20.91 21.32 21.18 20.66C21.45 20 21.3 19.25 20.79 18.75H20.78ZM14.25 5.18V11C14.25 12.24 13.24 13.25 12 13.25C10.76 13.25 9.75 12.24 9.75 11V5.18C10.45 4.91 11.21 4.75 12 4.75C12.79 4.75 13.55 4.9 14.25 5.18ZM8.25 11.01C8.25 13.08 9.93 14.76 12 14.76C14.07 14.76 15.75 13.08 15.75 11.01V6.01C17.26 7.15 18.25 8.96 18.25 11C18.25 14.45 15.45 17.25 12 17.25C8.55 17.25 5.75 14.45 5.75 11C5.75 8.96 6.74 7.15 8.25 6.01V11.01ZM19.79 20.1C19.77 20.16 19.71 20.26 19.56 20.26H4.45C4.3 20.26 4.24 20.16 4.22 20.1C4.2 20.04 4.17 19.93 4.28 19.83L7.14 17.03C8.47 18.11 10.17 18.76 12.01 18.76C13.85 18.76 15.55 18.11 16.89 17.03L19.75 19.84C19.85 19.94 19.83 20.05 19.81 20.11L19.79 20.1Z" fill="black"/>
<path d="M12.02 11.75C12.44 11.75 12.77 11.41 12.77 11C12.77 10.59 12.44 10.25 12.02 10.25C11.61 10.25 11.27 10.59 11.27 11C11.27 11.41 11.61 11.75 12.02 11.75Z" fill="black"/>
</svg>
