<svg width="24" height="24" viewBox="0 0 24 24" fill="none" xmlns="http://www.w3.org/2000/svg">
<path d="M6 4.25C3.93 4.25 2.25 5.93 2.25 8V14C2.25 16.07 3.93 17.75 6 17.75H13.12L14.76 20.02C15.11 20.51 15.63 20.83 16.22 20.93C16.34 20.95 16.46 20.96 16.59 20.96C17.06 20.96 17.51 20.81 17.9 20.53C18.39 20.18 18.71 19.66 18.81 19.06C18.89 18.58 18.81 18.11 18.59 17.69C20.38 17.41 21.76 15.87 21.76 14V8C21.76 5.93 20.08 4.25 18.01 4.25H6ZM17.02 19.31C16.86 19.43 16.66 19.47 16.46 19.44C16.26 19.41 16.09 19.3 15.97 19.14L11.73 13.26L11.75 12.01L12.94 12.38L17.18 18.26C17.3 18.42 17.35 18.62 17.31 18.82C17.28 19.02 17.17 19.19 17.01 19.31H17.02ZM20.25 14C20.25 15.24 19.24 16.25 18 16.25H17.58L14.01 11.31C13.92 11.18 13.78 11.08 13.63 11.03L11.24 10.29C11.01 10.22 10.77 10.26 10.58 10.4C10.39 10.54 10.27 10.76 10.27 10.99L10.22 13.49C10.22 13.65 10.27 13.81 10.36 13.94L12.03 16.25H6C4.76 16.25 3.75 15.24 3.75 14V8C3.75 6.76 4.76 5.75 6 5.75H18C19.24 5.75 20.25 6.76 20.25 8V14Z" fill="black"/>
<path d="M6 8.25C5.59 8.25 5.25 8.59 5.25 9V13C5.25 13.41 5.59 13.75 6 13.75C6.41 13.75 6.75 13.41 6.75 13V9C6.75 8.59 6.41 8.25 6 8.25Z" fill="black"/>
</svg>
