<svg width="24" height="24" viewBox="0 0 24 24" fill="none" xmlns="http://www.w3.org/2000/svg">
<path d="M15.72 10.75H8.28C8.17 10.75 8.11 10.81 8.08 10.85C8.05 10.89 8.01 10.96 8.03 11.07L8.53 13.07C8.56 13.18 8.66 13.26 8.77 13.26H15.21C15.33 13.26 15.42 13.18 15.45 13.07L15.95 11.07C15.98 10.97 15.93 10.89 15.9 10.86C15.87 10.82 15.81 10.76 15.7 10.76L15.72 10.75Z" fill="black"/>
<path d="M19 6.25H5C3.48 6.25 2.25 7.48 2.25 9V15C2.25 16.52 3.48 17.75 5 17.75H19C20.52 17.75 21.75 16.52 21.75 15V9C21.75 7.48 20.52 6.25 19 6.25ZM17.42 11.42L16.92 13.42C16.72 14.2 16.03 14.75 15.22 14.75H8.78C7.98 14.75 7.28 14.21 7.08 13.42L6.58 11.42C6.45 10.89 6.57 10.34 6.9 9.92C7.23 9.5 7.74 9.25 8.28 9.25H15.72C16.26 9.25 16.76 9.5 17.1 9.92C17.44 10.34 17.55 10.89 17.42 11.42Z" fill="black"/>
</svg>
