<svg width="24" height="24" viewBox="0 0 24 24" fill="none" xmlns="http://www.w3.org/2000/svg">
<path d="M15 15.75H7C6.86 15.75 6.75 15.86 6.75 16V21.75H15.25V16C15.25 15.86 15.14 15.75 15 15.75Z" fill="black"/>
<path d="M7 7.24999H12C12.14 7.24999 12.25 7.13999 12.25 6.99999V2.24999H6.75V6.99999C6.75 7.13999 6.86 7.24999 7 7.24999Z" fill="black"/>
<path d="M19.94 6.87999L16.11 3.04999C15.59 2.52999 14.9 2.23999 14.17 2.23999H13.75V6.99999C13.75 7.95999 12.96 8.74999 12 8.74999H7C6.04 8.74999 5.25 7.95999 5.25 6.99999V2.24999H5C3.48 2.24999 2.25 3.47999 2.25 4.99999V19C2.25 20.52 3.48 21.75 5 21.75H5.25V16C5.25 15.04 6.04 14.25 7 14.25H15C15.96 14.25 16.75 15.04 16.75 16V21.75H18C19.52 21.75 20.75 20.52 20.75 19V8.82999C20.75 8.09999 20.46 7.39999 19.94 6.88999V6.87999Z" fill="black"/>
</svg>
