<svg width="24" height="24" viewBox="0 0 24 24" fill="none" xmlns="http://www.w3.org/2000/svg">
<path d="M13.9201 11.9998C13.9201 10.9398 13.0601 10.0798 12.0001 10.0798C11.0401 10.0798 10.2401 10.7998 10.1101 11.7198C10.1101 11.7198 10.1101 11.7398 10.1101 11.7498C10.1101 11.7498 10.1101 11.7598 10.1101 11.7698C10.1101 11.8498 10.0901 11.9198 10.0901 11.9998C10.0901 12.9698 10.8101 13.7598 11.7501 13.8898C11.7501 13.8898 11.7501 13.8898 11.7601 13.8898C11.8401 13.8998 11.9201 13.9198 12.0001 13.9198C12.9701 13.9198 13.7601 13.1998 13.8901 12.2698C13.8901 12.2698 13.8901 12.2598 13.8901 12.2498C13.8901 12.1598 13.9101 12.0798 13.9101 11.9998H13.9201Z" fill="black"/>
<path d="M4.19007 8.07982C3.59007 9.25982 3.25007 10.5898 3.25007 11.9998C3.25007 12.6798 3.33007 13.3298 3.48007 13.9598L3.66007 13.6898C4.09007 12.9698 4.93007 11.9298 6.37007 11.3098C7.14007 10.9798 7.95007 10.8298 8.79007 10.8598C9.22007 9.64982 10.3201 8.75982 11.6501 8.61982C11.6501 8.03982 11.5401 7.48982 11.3101 6.95982C10.8501 5.88982 10.0801 5.26982 9.51007 4.92982L8.19007 4.13982C8.19007 4.13982 8.12007 4.16982 8.09007 4.18982L6.96007 3.05982C5.89007 1.98982 4.14007 1.98982 3.07007 3.05982C2.00007 4.12982 2.00007 5.87982 3.07007 6.94982L4.20007 8.07982H4.19007Z" fill="black"/>
<path d="M12.6901 6.36982C13.0201 7.13982 13.1701 7.94982 13.1401 8.78982C14.3501 9.21982 15.2401 10.3198 15.3801 11.6498C15.9501 11.6498 16.5101 11.5398 17.0401 11.3098C18.1101 10.8498 18.7301 10.0798 19.0701 9.50982L19.8901 8.25982C19.8601 8.19982 19.8401 8.13982 19.8101 8.07982L20.9401 6.94982C22.0101 5.87982 22.0101 4.12982 20.9401 3.05982C19.8701 1.98982 18.1201 1.98982 17.0501 3.05982L15.9201 4.18982C14.7401 3.58982 13.4101 3.24982 12.0001 3.24982C11.3101 3.24982 10.6501 3.32982 10.0101 3.48982L10.2701 3.63982C11.0301 4.08982 12.0701 4.92982 12.6901 6.36982Z" fill="black"/>
<path d="M19.8101 15.9198C20.4101 14.7398 20.7501 13.4098 20.7501 11.9998C20.7501 11.3198 20.6701 10.6698 20.5201 10.0298L20.3401 10.2998C19.9101 11.0298 19.0601 12.0698 17.6301 12.6898C16.9101 12.9998 16.1601 13.1498 15.3801 13.1498C15.3201 13.1498 15.2701 13.1398 15.2101 13.1398C14.7801 14.3498 13.6801 15.2398 12.3501 15.3798C12.3501 15.9498 12.4601 16.5098 12.6901 17.0398C13.1501 18.0998 13.9201 18.7298 14.4901 19.0698L15.7401 19.8898C15.8001 19.8598 15.8601 19.8398 15.9201 19.8098L17.0501 20.9398C17.5901 21.4798 18.2901 21.7398 18.9901 21.7398C19.6901 21.7398 20.4001 21.4698 20.9301 20.9398C22.0001 19.8698 22.0001 18.1198 20.9301 17.0498L19.8001 15.9198H19.8101Z" fill="black"/>
<path d="M11.3101 17.6298C10.9801 16.8598 10.8301 16.0498 10.8601 15.2098C9.65007 14.7798 8.76007 13.6798 8.62007 12.3598C8.05007 12.3598 7.49007 12.4698 6.96007 12.6998C5.89007 13.1598 5.27007 13.9298 4.93007 14.4998L4.10007 15.7198C4.13007 15.7898 4.16007 15.8598 4.19007 15.9298L3.06007 17.0598C1.99007 18.1298 1.99007 19.8798 3.06007 20.9498C3.60007 21.4898 4.30007 21.7498 5.00007 21.7498C5.70007 21.7498 6.41007 21.4798 6.94007 20.9498L8.07007 19.8198C9.25007 20.4198 10.5801 20.7598 11.9901 20.7598C12.6701 20.7598 13.3201 20.6798 13.9601 20.5298L13.6901 20.3498C12.9601 19.9198 11.9201 19.0698 11.3001 17.6398L11.3101 17.6298Z" fill="black"/>
</svg>
