<svg width="24" height="24" viewBox="0 0 24 24" fill="none" xmlns="http://www.w3.org/2000/svg">
<path d="M12 12.25C12.6904 12.25 13.25 11.6904 13.25 11C13.25 10.3096 12.6904 9.75 12 9.75C11.3096 9.75 10.75 10.3096 10.75 11C10.75 11.6904 11.3096 12.25 12 12.25Z" fill="black"/>
<path d="M7 6.25C4.38 6.25 2.25 8.38 2.25 11C2.25 13.62 4.38 15.75 7 15.75H9.28C9.28 15.75 9.28 15.81 9.28 15.84C9.15 16.44 8.89 16.91 8.64 17.25H8.01C7.6 17.25 7.26 17.59 7.26 18C7.26 18.41 7.6 18.75 8.01 18.75H16.01C16.42 18.75 16.76 18.41 16.76 18C16.76 17.59 16.42 17.25 16.01 17.25H15.38C15.14 16.91 14.88 16.44 14.75 15.84C14.75 15.81 14.75 15.78 14.75 15.75H17.03C19.65 15.75 21.78 13.62 21.78 11C21.78 8.38 19.65 6.25 17.03 6.25H7ZM12 13.75C10.48 13.75 9.25 12.52 9.25 11C9.25 9.48 10.48 8.25 12 8.25C13.52 8.25 14.75 9.48 14.75 11C14.75 12.52 13.52 13.75 12 13.75ZM17.02 10.75C16.61 10.75 16.27 10.41 16.27 10C16.27 9.59 16.6 9.25 17.01 9.25H17.02C17.43 9.25 17.77 9.59 17.77 10C17.77 10.41 17.43 10.75 17.02 10.75Z" fill="black"/>
</svg>
