<svg width="24" height="24" viewBox="0 0 24 24" fill="none" xmlns="http://www.w3.org/2000/svg">
<path d="M12 13.09C10.76 13.09 9.75 14.1 9.75 15.34C9.75 16.58 10.76 17.59 12 17.59C13.24 17.59 14.25 16.58 14.25 15.34C14.25 14.1 13.24 13.09 12 13.09Z" fill="black"/>
<path d="M12 8.93C12.6904 8.93 13.25 8.37036 13.25 7.68C13.25 6.98964 12.6904 6.43 12 6.43C11.3096 6.43 10.75 6.98964 10.75 7.68C10.75 8.37036 11.3096 8.93 12 8.93Z" fill="black"/>
<path d="M16 2.25H8C6.48 2.25 5.25 3.48 5.25 5V19C5.25 20.52 6.48 21.75 8 21.75H16C17.52 21.75 18.75 20.52 18.75 19V5C18.75 3.48 17.52 2.25 16 2.25ZM12 4.93C13.52 4.93 14.75 6.16 14.75 7.68C14.75 9.2 13.52 10.43 12 10.43C10.48 10.43 9.25 9.2 9.25 7.68C9.25 6.16 10.48 4.93 12 4.93ZM12 19.09C9.93 19.09 8.25 17.41 8.25 15.34C8.25 13.27 9.93 11.59 12 11.59C14.07 11.59 15.75 13.27 15.75 15.34C15.75 17.41 14.07 19.09 12 19.09Z" fill="black"/>
</svg>
