<svg width="24" height="24" viewBox="0 0 24 24" fill="none" xmlns="http://www.w3.org/2000/svg">
<path d="M16 2.25H8C5.93 2.25 4.25 3.93 4.25 6V18C4.25 20.07 5.93 21.75 8 21.75H16C18.07 21.75 19.75 20.07 19.75 18V6C19.75 3.93 18.07 2.25 16 2.25ZM9 16.75C8.84 16.75 8.69 16.7 8.55 16.6C8.22 16.35 8.15 15.88 8.4 15.55L11.4 11.55C11.65 11.22 12.12 11.15 12.45 11.4C12.78 11.65 12.85 12.12 12.6 12.45L9.6 16.45C9.45 16.65 9.23 16.75 9 16.75ZM16.08 12.44C15.43 13.53 14.39 14.3 13.16 14.61C13.1 14.63 13.04 14.63 12.98 14.63C12.64 14.63 12.34 14.4 12.25 14.06C12.15 13.66 12.39 13.25 12.79 13.15C13.63 12.94 14.34 12.41 14.79 11.67C15.24 10.92 15.36 10.05 15.15 9.21C14.71 7.47 12.94 6.41 11.2 6.85C10.36 7.06 9.65 7.59 9.2 8.33C8.75 9.08 8.63 9.95 8.84 10.79C8.97 11.3 9.21 11.76 9.55 12.15C9.82 12.46 9.8 12.93 9.48 13.21C9.17 13.49 8.7 13.45 8.42 13.15C7.92 12.59 7.56 11.9 7.38 11.17C7.07 9.94 7.26 8.66 7.91 7.57C8.56 6.48 9.6 5.71 10.83 5.4C13.37 4.76 15.96 6.31 16.6 8.85C16.91 10.08 16.72 11.36 16.07 12.45L16.08 12.44Z" fill="black"/>
</svg>
