<svg width="24" height="24" viewBox="0 0 24 24" fill="none" xmlns="http://www.w3.org/2000/svg">
<path d="M19.75 10C19.75 5.73 16.27 2.25 12 2.25C7.73 2.25 4.25 5.73 4.25 10C4.25 13.3 6.33 16.12 9.25 17.24V18C9.25 19.25 10.1 20.3 11.25 20.63V21C11.25 21.41 11.59 21.75 12 21.75C12.41 21.75 12.75 21.41 12.75 21V20.63C13.9 20.3 14.75 19.25 14.75 18V17.24C17.67 16.13 19.75 13.31 19.75 10ZM13.25 18C13.25 18.69 12.69 19.25 12 19.25C11.31 19.25 10.75 18.69 10.75 18V17.64C11.16 17.71 11.57 17.75 12 17.75C12.43 17.75 12.84 17.71 13.25 17.64V18ZM12 16.25C8.55 16.25 5.75 13.45 5.75 10C5.75 6.55 8.55 3.75 12 3.75C15.45 3.75 18.25 6.55 18.25 10C18.25 13.45 15.45 16.25 12 16.25Z" fill="black"/>
<path d="M14 9.25H11.4L12.62 7.42C12.85 7.08 12.76 6.61 12.41 6.38C12.06 6.15 11.6 6.24 11.37 6.59L9.37 9.59C9.22 9.82 9.2 10.12 9.33 10.36C9.46 10.6 9.71 10.76 9.99 10.76H12.59L11.37 12.59C11.14 12.93 11.23 13.4 11.58 13.63C11.71 13.71 11.85 13.76 12 13.76C12.24 13.76 12.48 13.64 12.63 13.43L14.63 10.43C14.78 10.2 14.8 9.9 14.67 9.66C14.54 9.42 14.29 9.26 14.01 9.26L14 9.25Z" fill="black"/>
</svg>
