<svg width="24" height="24" viewBox="0 0 24 24" fill="none" xmlns="http://www.w3.org/2000/svg">
<path d="M19.94 6.87999L16.11 3.04999C15.59 2.52999 14.9 2.23999 14.17 2.23999H5C3.48 2.23999 2.25 3.46999 2.25 4.98999V18.99C2.25 20.51 3.48 21.74 5 21.74H18C19.52 21.74 20.75 20.51 20.75 18.99V8.82999C20.75 8.09999 20.46 7.39999 19.94 6.88999V6.87999ZM12.25 3.74999V6.99999C12.25 7.13999 12.14 7.24999 12 7.24999H7C6.86 7.24999 6.75 7.13999 6.75 6.99999V3.74999H12.25ZM6.75 20.25V16C6.75 15.86 6.86 15.75 7 15.75H15C15.14 15.75 15.25 15.86 15.25 16V20.25H6.75ZM19.25 19C19.25 19.69 18.69 20.25 18 20.25H16.75V16C16.75 15.04 15.96 14.25 15 14.25H7C6.04 14.25 5.25 15.04 5.25 16V20.25H5C4.31 20.25 3.75 19.69 3.75 19V4.99999C3.75 4.30999 4.31 3.74999 5 3.74999H5.25V6.99999C5.25 7.95999 6.04 8.74999 7 8.74999H12C12.96 8.74999 13.75 7.95999 13.75 6.99999V3.74999H14.17C14.5 3.74999 14.82 3.87999 15.05 4.11999L18.88 7.94999C19.12 8.18999 19.25 8.49999 19.25 8.82999V19Z" fill="black"/>
</svg>
