<svg width="24" height="24" viewBox="0 0 24 24" fill="none" xmlns="http://www.w3.org/2000/svg">
<path d="M15.75 8.43V3.5C15.75 2.81 15.19 2.25 14.5 2.25H8.5C7.81 2.25 7.25 2.81 7.25 3.5V8.43C6.66 8.71 6.25 9.31 6.25 10V14C6.25 14.76 6.74 15.41 7.42 15.64L8.06 17.55C8.25 18.11 8.7 18.52 9.25 18.67V20.99C9.25 21.4 9.59 21.74 10 21.74H13C13.41 21.74 13.75 21.4 13.75 20.99V18.67C14.3 18.52 14.75 18.11 14.94 17.55L15.58 15.64C16.26 15.4 16.75 14.76 16.75 14V10C16.75 9.3 16.34 8.71 15.75 8.43ZM7.75 14V10C7.75 9.86 7.86 9.75 8 9.75H15C15.14 9.75 15.25 9.86 15.25 10V14C15.25 14.14 15.14 14.25 15 14.25H8C7.86 14.25 7.75 14.14 7.75 14ZM8.75 3.75H14.25V8.25H8.75V3.75ZM12.25 20.25H10.75V18.75H12.25V20.25ZM13.52 17.08C13.49 17.18 13.39 17.25 13.28 17.25H9.72C9.61 17.25 9.52 17.18 9.48 17.08L9.04 15.75H13.96L13.52 17.08Z" fill="black"/>
</svg>
