<svg width="24" height="24" viewBox="0 0 24 24" fill="none" xmlns="http://www.w3.org/2000/svg">
<path d="M21.02 8.97C20.57 8.64 19.98 8.55 19.44 8.73L18.05 9.19C17.55 8.62 16.82 8.25 16 8.25H8C7.18 8.25 6.45 8.62 5.95 9.19L4.56 8.73C4.03 8.55 3.44 8.64 2.98 8.97C2.52 9.3 2.25 9.83 2.25 10.39V12.28C2.25 13.03 2.73 13.7 3.45 13.94L5.31 14.56C5.57 15.81 6.68 16.75 8 16.75H9.38C10.05 16.75 10.65 16.38 10.95 15.78L11.4 14.89C11.44 14.81 11.53 14.75 11.62 14.75H12.38C12.48 14.75 12.56 14.8 12.6 14.89L13.05 15.78C13.35 16.38 13.95 16.75 14.62 16.75H16C17.32 16.75 18.43 15.81 18.69 14.56L20.55 13.94C21.26 13.7 21.75 13.03 21.75 12.28V10.39C21.75 9.83 21.48 9.3 21.02 8.97ZM3.75 12.28V10.39C3.75 10.28 3.82 10.22 3.85 10.19C3.88 10.17 3.93 10.14 4 10.14C4.02 10.14 4.05 10.14 4.08 10.15L5.25 10.54V12.96L3.92 12.52C3.82 12.49 3.75 12.39 3.75 12.28ZM20.25 12.28C20.25 12.39 20.18 12.48 20.08 12.52L18.75 12.96V10.54L19.92 10.15C20.03 10.11 20.11 10.15 20.15 10.18C20.19 10.21 20.25 10.27 20.25 10.38V12.28Z" fill="black"/>
</svg>
