<svg width="24" height="24" viewBox="0 0 24 24" fill="none" xmlns="http://www.w3.org/2000/svg">
<path d="M13 7.25H12.75V7C12.75 5.48 11.52 4.25 10 4.25H9C8.31 4.25 7.75 3.69 7.75 3C7.75 2.59 7.41 2.25 7 2.25C6.59 2.25 6.25 2.59 6.25 3C6.25 4.52 7.48 5.75 9 5.75H10C10.69 5.75 11.25 6.31 11.25 7V7.25H11C8.38 7.25 6.25 9.38 6.25 12V17C6.25 19.62 8.38 21.75 11 21.75H13C15.62 21.75 17.75 19.62 17.75 17V12C17.75 9.38 15.62 7.25 13 7.25ZM12.75 13C12.75 13.41 12.41 13.75 12 13.75C11.59 13.75 11.25 13.41 11.25 13V11C11.25 10.59 11.59 10.25 12 10.25C12.41 10.25 12.75 10.59 12.75 11V13Z" fill="black"/>
</svg>
