<svg width="24" height="24" viewBox="0 0 24 24" fill="none" xmlns="http://www.w3.org/2000/svg">
<path d="M18 6.25003H14.25L16.45 4.60003C16.78 4.35003 16.85 3.88003 16.6 3.55003C16.35 3.22003 15.88 3.15003 15.55 3.40003L12 6.06003L8.45 3.40003C8.12 3.15003 7.65 3.22003 7.4 3.55003C7.15 3.88003 7.22 4.35003 7.55 4.60003L9.75 6.25003H6C3.93 6.25003 2.25 7.93003 2.25 10V16C2.25 18.07 3.93 19.75 6 19.75H18C20.07 19.75 21.75 18.07 21.75 16V10C21.75 7.93003 20.07 6.25003 18 6.25003ZM3.75 16V10C3.75 8.76003 4.76 7.75003 6 7.75003H14.25V18.25H6C4.76 18.25 3.75 17.24 3.75 16ZM20.25 16C20.25 17.24 19.24 18.25 18 18.25H15.75V7.75003H18C19.24 7.75003 20.25 8.76003 20.25 10V16Z" fill="black"/>
<path d="M18.02 9.25003C17.61 9.25003 17.27 9.59003 17.27 10C17.27 10.41 17.61 10.75 18.02 10.75C18.43 10.75 18.77 10.41 18.77 10C18.77 9.59003 18.44 9.25003 18.02 9.25003Z" fill="black"/>
<path d="M18.02 12.25C17.61 12.25 17.27 12.59 17.27 13C17.27 13.41 17.61 13.75 18.02 13.75C18.43 13.75 18.77 13.41 18.77 13C18.77 12.59 18.44 12.25 18.02 12.25Z" fill="black"/>
<path d="M18.02 15.25C17.61 15.25 17.27 15.59 17.27 16C17.27 16.41 17.61 16.75 18.02 16.75C18.43 16.75 18.77 16.41 18.77 16C18.77 15.59 18.44 15.25 18.02 15.25Z" fill="black"/>
</svg>
