<svg width="24" height="24" viewBox="0 0 24 24" fill="none" xmlns="http://www.w3.org/2000/svg">
<path d="M15 8.25H8C7.0335 8.25 6.25 9.0335 6.25 10V14C6.25 14.9665 7.0335 15.75 8 15.75H15C15.9665 15.75 16.75 14.9665 16.75 14V10C16.75 9.0335 15.9665 8.25 15 8.25Z" fill="black"/>
<path d="M15 6.75C15.26 6.75 15.51 6.79 15.75 6.85V3.5C15.75 2.81 15.19 2.25 14.5 2.25H8.5C7.81 2.25 7.25 2.81 7.25 3.5V6.85C7.49 6.79 7.74 6.75 8 6.75H15Z" fill="black"/>
<path d="M8 17.25C8 17.25 7.97 17.25 7.96 17.25L8.06 17.56C8.25 18.12 8.7 18.53 9.25 18.68V21C9.25 21.41 9.59 21.75 10 21.75H13C13.41 21.75 13.75 21.41 13.75 21V18.68C14.3 18.53 14.75 18.12 14.94 17.56L15.04 17.25C15.04 17.25 15.01 17.25 15 17.25H8Z" fill="black"/>
</svg>
