<svg width="24" height="24" viewBox="0 0 24 24" fill="none" xmlns="http://www.w3.org/2000/svg">
<path d="M19 5.25H16.75V3.5C16.75 2.81 16.19 2.25 15.5 2.25H8.5C7.81 2.25 7.25 2.81 7.25 3.5V5.25H5C4.59 5.25 4.25 5.59 4.25 6C4.25 6.41 4.59 6.75 5 6.75H5.25V17C5.25 17.41 5.59 17.75 6 17.75C6.41 17.75 6.75 17.41 6.75 17V15.72C6.83 15.73 6.91 15.75 7 15.75H8.46L9.06 17.55C9.3 18.27 9.97 18.75 10.72 18.75H11.3C11.27 18.83 11.25 18.91 11.25 19V21C11.25 21.41 11.59 21.75 12 21.75C12.41 21.75 12.75 21.41 12.75 21V19C12.75 18.91 12.73 18.83 12.7 18.75H13.28C14.03 18.75 14.7 18.27 14.94 17.55L15.54 15.75H17C17.09 15.75 17.17 15.74 17.25 15.72V17C17.25 17.41 17.59 17.75 18 17.75C18.41 17.75 18.75 17.41 18.75 17V6.75H19C19.41 6.75 19.75 6.41 19.75 6C19.75 5.59 19.41 5.25 19 5.25ZM8.75 3.75H15.25V5.25H8.75V3.75ZM13.52 17.08C13.49 17.18 13.39 17.25 13.28 17.25H10.72C10.61 17.25 10.52 17.18 10.48 17.08L10.04 15.75H13.96L13.52 17.08ZM17.25 14C17.25 14.14 17.14 14.25 17 14.25H7C6.86 14.25 6.75 14.14 6.75 14V6.75H17.25V14Z" fill="black"/>
<path d="M14 9.25H10C9.59 9.25 9.25 9.59 9.25 10C9.25 10.41 9.59 10.75 10 10.75H14C14.41 10.75 14.75 10.41 14.75 10C14.75 9.59 14.41 9.25 14 9.25Z" fill="black"/>
</svg>
