<svg width="24" height="24" viewBox="0 0 24 24" fill="none" xmlns="http://www.w3.org/2000/svg">
<path d="M17 2.25H7C4.38 2.25 2.25 4.38 2.25 7V17C2.25 19.62 4.38 21.75 7 21.75H17C19.62 21.75 21.75 19.62 21.75 17V7C21.75 4.38 19.62 2.25 17 2.25ZM20.25 17C20.25 18.79 18.79 20.25 17 20.25H7C5.21 20.25 3.75 18.79 3.75 17V7C3.75 5.21 5.21 3.75 7 3.75H17C18.79 3.75 20.25 5.21 20.25 7V17Z" fill="black"/>
<path d="M15.75 13V11C15.75 9.48 14.52 8.25 13 8.25H11C9.48 8.25 8.25 9.48 8.25 11V13C8.25 14.52 9.48 15.75 11 15.75H13C14.52 15.75 15.75 14.52 15.75 13ZM14.25 13C14.25 13.69 13.69 14.25 13 14.25H11C10.31 14.25 9.75 13.69 9.75 13V11C9.75 10.31 10.31 9.75 11 9.75H13C13.69 9.75 14.25 10.31 14.25 11V13Z" fill="black"/>
<path d="M15.02 5.25H15.01C14.6 5.25 14.27 5.59 14.27 6C14.27 6.41 14.61 6.75 15.02 6.75C15.43 6.75 15.77 6.41 15.77 6C15.77 5.59 15.43 5.25 15.02 5.25Z" fill="black"/>
<path d="M15.02 17.25H15.01C14.6 17.25 14.27 17.59 14.27 18C14.27 18.41 14.61 18.75 15.02 18.75C15.43 18.75 15.77 18.41 15.77 18C15.77 17.59 15.43 17.25 15.02 17.25Z" fill="black"/>
<path d="M9.02 17.25H9.01C8.6 17.25 8.27 17.59 8.27 18C8.27 18.41 8.61 18.75 9.02 18.75C9.43 18.75 9.77 18.41 9.77 18C9.77 17.59 9.43 17.25 9.02 17.25Z" fill="black"/>
<path d="M9.02 6.75C9.43 6.75 9.77 6.41 9.77 6C9.77 5.59 9.43 5.25 9.02 5.25H9.01C8.6 5.25 8.27 5.59 8.27 6C8.27 6.41 8.61 6.75 9.02 6.75Z" fill="black"/>
<path d="M6.02 8.25H6.01C5.6 8.25 5.27 8.59 5.27 9C5.27 9.41 5.61 9.75 6.02 9.75C6.43 9.75 6.77 9.41 6.77 9C6.77 8.59 6.43 8.25 6.02 8.25Z" fill="black"/>
<path d="M6.02 14.25H6.01C5.6 14.25 5.27 14.59 5.27 15C5.27 15.41 5.61 15.75 6.02 15.75C6.43 15.75 6.77 15.41 6.77 15C6.77 14.59 6.43 14.25 6.02 14.25Z" fill="black"/>
<path d="M18.02 14.25H18.01C17.6 14.25 17.27 14.59 17.27 15C17.27 15.41 17.61 15.75 18.02 15.75C18.43 15.75 18.77 15.41 18.77 15C18.77 14.59 18.43 14.25 18.02 14.25Z" fill="black"/>
<path d="M18.02 8.25H18.01C17.6 8.25 17.27 8.59 17.27 9C17.27 9.41 17.61 9.75 18.02 9.75C18.43 9.75 18.77 9.41 18.77 9C18.77 8.59 18.43 8.25 18.02 8.25Z" fill="black"/>
</svg>
