<svg width="24" height="24" viewBox="0 0 24 24" fill="none" xmlns="http://www.w3.org/2000/svg">
<path d="M21.47 4.40996C21.29 4.26996 21.06 4.20996 20.84 4.25996C15.05 5.55996 8.96001 5.55996 3.17001 4.25996C2.95001 4.20996 2.71001 4.25996 2.54001 4.40996C2.36001 4.54996 2.26001 4.76996 2.26001 4.99996V17C2.26001 17.23 2.36001 17.44 2.54001 17.59C2.72001 17.73 2.95001 17.79 3.17001 17.74C8.96001 16.44 15.05 16.44 20.84 17.74C20.89 17.75 20.95 17.76 21 17.76C21.17 17.76 21.33 17.7 21.47 17.6C21.65 17.46 21.75 17.24 21.75 17.01V4.99996C21.75 4.76996 21.65 4.55996 21.47 4.40996Z" fill="black"/>
<path d="M12 18.25C10.47 18.25 8.94001 18.35 7.43001 18.53C7.32001 18.66 7.25001 18.82 7.25001 19C7.25001 19.41 7.59001 19.75 8.00001 19.75H16C16.41 19.75 16.75 19.41 16.75 19C16.75 18.82 16.68 18.66 16.57 18.53C15.06 18.35 13.53 18.25 12 18.25Z" fill="black"/>
</svg>
