<svg width="24" height="24" viewBox="0 0 24 24" fill="none" xmlns="http://www.w3.org/2000/svg">
<path d="M17.93 3.47997L15.9 2.25997C15.35 1.92997 14.69 1.91997 14.14 2.23997C13.58 2.54997 13.25 3.11997 13.25 3.75997V4.82997C12.44 4.54997 11.56 4.55997 10.75 4.82997V3.74997C10.75 3.10997 10.42 2.53997 9.86 2.22997C9.3 1.90997 8.64 1.91997 8.1 2.24997L6.07 3.46997C4.95 4.13997 4.25 5.37997 4.25 6.68997V13.99C4.25 18.26 7.73 21.74 12 21.74C16.27 21.74 19.75 18.26 19.75 13.99V6.69997C19.75 5.38997 19.05 4.15997 17.93 3.47997ZM13.25 6.49997V7.99997C13.25 8.68997 12.69 9.24997 12 9.24997C11.31 9.24997 10.75 8.68997 10.75 7.99997V6.49997C11.49 5.99997 12.51 6.00997 13.25 6.49997ZM13 17.75H11C10.59 17.75 10.25 17.41 10.25 17C10.25 16.59 10.59 16.25 11 16.25H13C13.41 16.25 13.75 16.59 13.75 17C13.75 17.41 13.41 17.75 13 17.75Z" fill="black"/>
</svg>
