<svg width="24" height="24" viewBox="0 0 24 24" fill="none" xmlns="http://www.w3.org/2000/svg">
<path d="M21 11.75C21 11.75 21.03 11.75 21.04 11.75L19.39 6.81C18.88 5.28 17.45 4.25 15.83 4.25H8.15C6.53 4.25 5.1 5.28 4.59 6.81L2.94 11.75C2.94 11.75 2.97 11.75 2.98 11.75H21Z" fill="black"/>
<path d="M21 13.25H3C2.59 13.25 2.25 13.59 2.25 14V17C2.25 19.07 3.93 20.75 6 20.75H18C20.07 20.75 21.75 19.07 21.75 17V14C21.75 13.59 21.41 13.25 21 13.25ZM10 17.75H6C5.59 17.75 5.25 17.41 5.25 17C5.25 16.59 5.59 16.25 6 16.25H10C10.41 16.25 10.75 16.59 10.75 17C10.75 17.41 10.41 17.75 10 17.75Z" fill="black"/>
</svg>
