<svg width="24" height="24" viewBox="0 0 24 24" fill="none" xmlns="http://www.w3.org/2000/svg">
<path d="M15.25 6V2.25H12.75V6.25H15C15.14 6.25 15.25 6.14 15.25 6Z" fill="black"/>
<path d="M15 10.75H9C8.86193 10.75 8.75 10.8619 8.75 11V17C8.75 17.1381 8.86193 17.25 9 17.25H15C15.1381 17.25 15.25 17.1381 15.25 17V11C15.25 10.8619 15.1381 10.75 15 10.75Z" fill="black"/>
<path d="M9 6.25H11.25V2.25H8.75V6C8.75 6.14 8.86 6.25 9 6.25Z" fill="black"/>
<path d="M17 2.25H16.75V6C16.75 6.96 15.96 7.75 15 7.75H9C8.04 7.75 7.25 6.96 7.25 6V2.25H7C5.48 2.25 4.25 3.48 4.25 5V19C4.25 20.52 5.48 21.75 7 21.75H17C18.52 21.75 19.75 20.52 19.75 19V5C19.75 3.48 18.52 2.25 17 2.25ZM16.75 17C16.75 17.96 15.96 18.75 15 18.75H9C8.04 18.75 7.25 17.96 7.25 17V11C7.25 10.04 8.04 9.25 9 9.25H15C15.96 9.25 16.75 10.04 16.75 11V17Z" fill="black"/>
</svg>
