<svg width="24" height="24" viewBox="0 0 24 24" fill="none" xmlns="http://www.w3.org/2000/svg">
<path d="M12 13.25C13.24 13.25 14.25 12.24 14.25 11V3.59C13.54 3.37 12.78 3.25 12 3.25C11.22 3.25 10.46 3.37 9.75 3.59V11C9.75 12.24 10.76 13.25 12 13.25ZM12 10.25C12.42 10.25 12.75 10.59 12.75 11C12.75 11.41 12.42 11.75 12 11.75C11.58 11.75 11.25 11.41 11.25 11C11.25 10.59 11.58 10.25 12 10.25Z" fill="black"/>
<path d="M12 18.75C16.27 18.75 19.75 15.27 19.75 11C19.75 8.09 18.13 5.55 15.75 4.22V11C15.75 13.07 14.07 14.75 12 14.75C9.93 14.75 8.25 13.07 8.25 11V4.22C5.87 5.54 4.25 8.08 4.25 11C4.25 15.27 7.73 18.75 12 18.75Z" fill="black"/>
<path d="M20.78 18.75L19.01 17.01C17.31 18.99 14.8 20.25 12 20.25C9.2 20.25 6.68 18.99 4.99 17.01L3.22 18.75C2.71 19.25 2.56 20 2.83 20.66C3.1 21.32 3.74 21.75 4.45 21.75H19.56C20.27 21.75 20.91 21.32 21.18 20.66C21.45 20 21.3 19.25 20.79 18.75H20.78Z" fill="black"/>
</svg>
