<svg width="24" height="24" viewBox="0 0 24 24" fill="none" xmlns="http://www.w3.org/2000/svg">
<path d="M19 5.25H5C4.59 5.25 4.25 5.59 4.25 6C4.25 6.41 4.59 6.75 5 6.75H5.25V17C5.25 17.41 5.59 17.75 6 17.75C6.41 17.75 6.75 17.41 6.75 17V15.72C6.83 15.73 6.91 15.75 7 15.75H17C17.09 15.75 17.17 15.74 17.25 15.72V17C17.25 17.41 17.59 17.75 18 17.75C18.41 17.75 18.75 17.41 18.75 17V6.75H19C19.41 6.75 19.75 6.41 19.75 6C19.75 5.59 19.41 5.25 19 5.25ZM14 10.75H10C9.59 10.75 9.25 10.41 9.25 10C9.25 9.59 9.59 9.25 10 9.25H14C14.41 9.25 14.75 9.59 14.75 10C14.75 10.41 14.41 10.75 14 10.75Z" fill="black"/>
<path d="M16.75 3.5C16.75 2.81 16.19 2.25 15.5 2.25H8.5C7.81 2.25 7.25 2.81 7.25 3.5V3.75H16.75V3.5Z" fill="black"/>
<path d="M9.06 17.55C9.3 18.27 9.97 18.75 10.72 18.75H11.3C11.27 18.83 11.25 18.91 11.25 19V21C11.25 21.41 11.59 21.75 12 21.75C12.41 21.75 12.75 21.41 12.75 21V19C12.75 18.91 12.73 18.83 12.7 18.75H13.28C14.03 18.75 14.7 18.27 14.94 17.55L15.04 17.25H8.96L9.06 17.55Z" fill="black"/>
</svg>
