<svg width="24" height="24" viewBox="0 0 24 24" fill="none" xmlns="http://www.w3.org/2000/svg">
<path d="M17 8.25H16.75V4C16.75 3.04 15.96 2.25 15 2.25H9C8.04 2.25 7.25 3.04 7.25 4V8.25H7C6.04 8.25 5.25 9.04 5.25 10V17C5.25 19.62 7.38 21.75 10 21.75H14C16.62 21.75 18.75 19.62 18.75 17V10C18.75 9.04 17.96 8.25 17 8.25ZM8.75 4C8.75 3.86 8.86 3.75 9 3.75H15C15.14 3.75 15.25 3.86 15.25 4V8.25H8.75V4ZM17.25 17C17.25 18.79 15.79 20.25 14 20.25H10C8.21 20.25 6.75 18.79 6.75 17V10C6.75 9.86 6.86 9.75 7 9.75H17C17.14 9.75 17.25 9.86 17.25 10V17Z" fill="black"/>
<path d="M11 5.25H10C9.59 5.25 9.25 5.59 9.25 6C9.25 6.41 9.59 6.75 10 6.75H11C11.41 6.75 11.75 6.41 11.75 6C11.75 5.59 11.41 5.25 11 5.25Z" fill="black"/>
<path d="M14 5.25H13C12.59 5.25 12.25 5.59 12.25 6C12.25 6.41 12.59 6.75 13 6.75H14C14.41 6.75 14.75 6.41 14.75 6C14.75 5.59 14.41 5.25 14 5.25Z" fill="black"/>
<path d="M14 17.25H10C9.59 17.25 9.25 17.59 9.25 18C9.25 18.41 9.59 18.75 10 18.75H14C14.41 18.75 14.75 18.41 14.75 18C14.75 17.59 14.41 17.25 14 17.25Z" fill="black"/>
</svg>
