<svg width="24" height="24" viewBox="0 0 24 24" fill="none" xmlns="http://www.w3.org/2000/svg">
<path d="M20.75 8.71999L21.03 8.29999C21.6 7.44999 21.46 6.32999 20.7 5.62999C17.26 2.48999 13.17 2.23999 12 2.23999C7.74 2.23999 4.73 4.35999 3.31 5.62999C2.54 6.31999 2.4 7.43999 2.97 8.29999L3.25 8.71999C2.6 10.04 2.25 11.51 2.25 13C2.25 15.67 3.31 18.15 5.22 20.01C5.5 20.28 5.87 20.45 6.27 20.49L6.65 20.53C6.73 20.53 6.81 20.54 6.89 20.54C7.58 20.54 8.23 20.25 8.7 19.73C9.22 19.15 9.44 18.38 9.28 17.61L9.05 16.45C8.79 15.17 7.66 14.24 6.35 14.24H3.99C3.94 14.24 3.89 14.24 3.84 14.26C3.78 13.85 3.74 13.42 3.74 12.99C3.74 11.84 3.98 10.74 4.44 9.69999C4.58 9.73999 4.73 9.76999 4.88 9.78999C5.51 9.83999 6.13 9.59999 6.57 9.13999C8.78 6.77999 11.97 6.74999 12 6.74999C14.56 6.74999 16.36 8.07999 17.42 9.19999C17.81 9.60999 18.34 9.83999 18.89 9.83999C18.95 9.83999 19.01 9.83999 19.07 9.83999C19.24 9.82999 19.4 9.78999 19.56 9.72999C20.01 10.76 20.25 11.86 20.25 13.01C20.25 13.44 20.22 13.86 20.15 14.28C20.1 14.28 20.05 14.26 20 14.26H17.64C16.33 14.26 15.2 15.19 14.94 16.47L14.71 17.63C14.56 18.4 14.77 19.17 15.29 19.75C15.76 20.27 16.41 20.55 17.1 20.55C17.18 20.55 17.26 20.55 17.34 20.54L17.72 20.5C18.12 20.46 18.49 20.29 18.77 20.02C20.69 18.17 21.74 15.68 21.74 13.01C21.74 11.53 21.39 10.06 20.74 8.72999L20.75 8.71999ZM6.36 15.75C6.95 15.75 7.47 16.17 7.59 16.75L7.82 17.91C7.88 18.21 7.8 18.5 7.59 18.73C7.39 18.95 7.1 19.07 6.8 19.04L6.42 19C6.36 19 6.3 18.97 6.26 18.93C5.32 18.02 4.63 16.94 4.21 15.75H6.36ZM17.74 18.93C17.74 18.93 17.65 18.99 17.58 19L17.2 19.04C16.9 19.07 16.61 18.96 16.41 18.73C16.21 18.5 16.13 18.21 16.18 17.91L16.41 16.75C16.53 16.17 17.04 15.75 17.64 15.75H19.78C19.36 16.94 18.67 18.02 17.73 18.93H17.74ZM18.94 8.32999C18.79 8.33999 18.63 8.27999 18.51 8.15999C17.25 6.82999 15.09 5.23999 12 5.23999C11.84 5.23999 8.13 5.26999 5.48 8.09999C5.36 8.22999 5.19 8.30999 5.01 8.27999C4.91 8.27999 4.73 8.22999 4.61 8.03999L4.22 7.44999C4.07 7.21999 4.1 6.91999 4.31 6.72999C5.57 5.60999 8.23 3.71999 12 3.71999C13.04 3.71999 16.65 3.93999 19.69 6.70999C19.9 6.89999 19.94 7.20999 19.79 7.43999L19.42 7.98999C19.3 8.17999 19.13 8.28999 18.94 8.29999V8.32999Z" fill="black"/>
</svg>
