<svg width="24" height="24" viewBox="0 0 24 24" fill="none" xmlns="http://www.w3.org/2000/svg">
<path d="M12 2.25C6.62 2.25 2.25 6.62 2.25 12C2.25 17.38 6.62 21.75 12 21.75C17.38 21.75 21.75 17.38 21.75 12C21.75 6.62 17.38 2.25 12 2.25ZM12 20.25C7.45 20.25 3.75 16.55 3.75 12C3.75 7.45 7.45 3.75 12 3.75C16.55 3.75 20.25 7.45 20.25 12C20.25 16.55 16.55 20.25 12 20.25Z" fill="black"/>
<path d="M12 9.25C10.48 9.25 9.25 10.48 9.25 12C9.25 13.52 10.48 14.75 12 14.75C13.52 14.75 14.75 13.52 14.75 12C14.75 10.48 13.52 9.25 12 9.25ZM12 13.25C11.31 13.25 10.75 12.69 10.75 12C10.75 11.31 11.31 10.75 12 10.75C12.69 10.75 13.25 11.31 13.25 12C13.25 12.69 12.69 13.25 12 13.25Z" fill="black"/>
<path d="M12.75 6C12.75 5.59 12.41 5.25 12 5.25C8.28 5.25 5.25 8.28 5.25 12C5.25 12.41 5.59 12.75 6 12.75C6.41 12.75 6.75 12.41 6.75 12C6.75 9.11 9.1 6.75 12 6.75C12.41 6.75 12.75 6.41 12.75 6Z" fill="black"/>
<path d="M18 11.25C17.59 11.25 17.25 11.59 17.25 12C17.25 13.49 16.61 14.92 15.5 15.91C15.19 16.19 15.17 16.66 15.44 16.97C15.59 17.14 15.79 17.22 16 17.22C16.18 17.22 16.36 17.16 16.5 17.03C17.93 15.75 18.75 13.92 18.75 12C18.75 11.59 18.41 11.25 18 11.25Z" fill="black"/>
</svg>
