<svg width="24" height="24" viewBox="0 0 24 24" fill="none" xmlns="http://www.w3.org/2000/svg">
<path d="M17 2.25H7C5.48 2.25 4.25 3.48 4.25 5V19C4.25 20.52 5.48 21.75 7 21.75H17C18.52 21.75 19.75 20.52 19.75 19V5C19.75 3.48 18.52 2.25 17 2.25ZM15.25 3.75V6C15.25 6.14 15.14 6.25 15 6.25H12.75V3.75H15.25ZM11.25 3.75V6.25H9C8.86 6.25 8.75 6.14 8.75 6V3.75H11.25ZM18.25 19C18.25 19.69 17.69 20.25 17 20.25H7C6.31 20.25 5.75 19.69 5.75 19V5C5.75 4.31 6.31 3.75 7 3.75H7.25V6C7.25 6.96 8.04 7.75 9 7.75H15C15.96 7.75 16.75 6.96 16.75 6V3.75H17C17.69 3.75 18.25 4.31 18.25 5V19Z" fill="black"/>
<path d="M15 9.25H9C8.04 9.25 7.25 10.04 7.25 11V17C7.25 17.96 8.04 18.75 9 18.75H15C15.96 18.75 16.75 17.96 16.75 17V11C16.75 10.04 15.96 9.25 15 9.25ZM15.25 17C15.25 17.14 15.14 17.25 15 17.25H9C8.86 17.25 8.75 17.14 8.75 17V11C8.75 10.86 8.86 10.75 9 10.75H15C15.14 10.75 15.25 10.86 15.25 11V17Z" fill="black"/>
</svg>
