<svg width="24" height="24" viewBox="0 0 24 24" fill="none" xmlns="http://www.w3.org/2000/svg">
<path d="M14.02 11.31C13.93 11.18 13.79 11.08 13.64 11.03L11.25 10.29C11.02 10.22 10.78 10.26 10.59 10.4C10.4 10.54 10.28 10.76 10.28 10.99L10.23 13.49C10.23 13.65 10.28 13.81 10.37 13.94L14.76 20.02C15.11 20.51 15.63 20.83 16.22 20.93C16.34 20.95 16.46 20.96 16.59 20.96C17.06 20.96 17.51 20.81 17.9 20.53C18.39 20.18 18.71 19.66 18.81 19.06C18.91 18.47 18.77 17.87 18.41 17.38L14.02 11.3V11.31Z" fill="black"/>
<path d="M18 4.24999H6C3.93 4.24999 2.25 5.92999 2.25 7.99999V14C2.25 16.07 3.93 17.75 6 17.75H11.27L9.15 14.82C8.87 14.43 8.72 13.94 8.73 13.46L8.78 10.96C8.79 10.25 9.14 9.58999 9.71 9.17999C10.09 8.89999 10.55 8.74999 11.03 8.74999C11.26 8.74999 11.48 8.77999 11.7 8.84999L14.09 9.58999C14.55 9.73999 14.96 10.03 15.25 10.42L19.64 16.5C19.79 16.71 19.91 16.92 20.02 17.15C21.07 16.48 21.77 15.32 21.77 13.99V7.98999C21.77 5.91999 20.09 4.23999 18.02 4.23999L18 4.24999ZM6.75 13C6.75 13.41 6.41 13.75 6 13.75C5.59 13.75 5.25 13.41 5.25 13V8.99999C5.25 8.58999 5.59 8.24999 6 8.24999C6.41 8.24999 6.75 8.58999 6.75 8.99999V13Z" fill="black"/>
</svg>
