<svg width="24" height="24" viewBox="0 0 24 24" fill="none" xmlns="http://www.w3.org/2000/svg">
<path d="M21 15.25H15.41C14.94 15.25 14.5 15.43 14.17 15.76L13.76 16.17C13.76 16.17 13.65 16.24 13.58 16.24H10.41C10.34 16.24 10.28 16.21 10.23 16.17L9.82 15.76C9.49 15.43 9.05 15.25 8.58 15.25H3C2.59 15.25 2.25 15.59 2.25 16V17C2.25 18.52 3.48 19.75 5 19.75H19C20.52 19.75 21.75 18.52 21.75 17V16C21.75 15.59 21.41 15.25 21 15.25Z" fill="black"/>
<path d="M10.88 14.7L10.93 14.75H13.07L13.12 14.7C13.73 14.09 14.55 13.75 15.42 13.75H20.76V8C20.76 5.93 19.08 4.25 17.01 4.25H7C4.93 4.25 3.25 5.93 3.25 8V13.75H8.59C9.46 13.75 10.27 14.09 10.89 14.7H10.88Z" fill="black"/>
</svg>
