<svg width="24" height="24" viewBox="0 0 24 24" fill="none" xmlns="http://www.w3.org/2000/svg">
<path d="M19 6.25H5C3.48 6.25 2.25 7.48 2.25 9V15C2.25 16.52 3.48 17.75 5 17.75H19C20.52 17.75 21.75 16.52 21.75 15V9C21.75 7.48 20.52 6.25 19 6.25ZM20.25 15C20.25 15.69 19.69 16.25 19 16.25H5C4.31 16.25 3.75 15.69 3.75 15V9C3.75 8.31 4.31 7.75 5 7.75H19C19.69 7.75 20.25 8.31 20.25 9V15Z" fill="black"/>
<path d="M15.72 9.25H8.28C7.74 9.25 7.24 9.5 6.9 9.92C6.56 10.34 6.45 10.89 6.58 11.42L7.08 13.42C7.28 14.2 7.97 14.75 8.78 14.75H15.22C16.02 14.75 16.72 14.21 16.92 13.42L17.42 11.42C17.55 10.89 17.43 10.35 17.1 9.92C16.77 9.49 16.26 9.25 15.72 9.25ZM15.46 13.06C15.43 13.17 15.33 13.25 15.22 13.25H8.78C8.66 13.25 8.57 13.17 8.54 13.06L8.04 11.06C8.01 10.96 8.06 10.88 8.09 10.84C8.12 10.8 8.18 10.74 8.29 10.74H15.73C15.84 10.74 15.9 10.8 15.93 10.84C15.96 10.88 16 10.95 15.98 11.05L15.48 13.05L15.46 13.06Z" fill="black"/>
</svg>
