<svg width="24" height="24" viewBox="0 0 24 24" fill="none" xmlns="http://www.w3.org/2000/svg">
<path d="M14 9.75H10C9.86193 9.75 9.75 9.86193 9.75 10V14C9.75 14.1381 9.86193 14.25 10 14.25H14C14.1381 14.25 14.25 14.1381 14.25 14V10C14.25 9.86193 14.1381 9.75 14 9.75Z" fill="black"/>
<path d="M21 12.75C21.41 12.75 21.75 12.41 21.75 12C21.75 11.59 21.41 11.25 21 11.25H18.75V9.75H21C21.41 9.75 21.75 9.41 21.75 9C21.75 8.59 21.41 8.25 21 8.25H18.75V8C18.75 6.48 17.52 5.25 16 5.25H15.75V3C15.75 2.59 15.41 2.25 15 2.25C14.59 2.25 14.25 2.59 14.25 3V5.25H12.75V3C12.75 2.59 12.41 2.25 12 2.25C11.59 2.25 11.25 2.59 11.25 3V5.25H9.75V3C9.75 2.59 9.41 2.25 9 2.25C8.59 2.25 8.25 2.59 8.25 3V5.25H8C6.48 5.25 5.25 6.48 5.25 8V8.25H3C2.59 8.25 2.25 8.59 2.25 9C2.25 9.41 2.59 9.75 3 9.75H5.25V11.25H3C2.59 11.25 2.25 11.59 2.25 12C2.25 12.41 2.59 12.75 3 12.75H5.25V14.25H3C2.59 14.25 2.25 14.59 2.25 15C2.25 15.41 2.59 15.75 3 15.75H5.25V16C5.25 17.52 6.48 18.75 8 18.75H8.25V21C8.25 21.41 8.59 21.75 9 21.75C9.41 21.75 9.75 21.41 9.75 21V18.75H11.25V21C11.25 21.41 11.59 21.75 12 21.75C12.41 21.75 12.75 21.41 12.75 21V18.75H14.25V21C14.25 21.41 14.59 21.75 15 21.75C15.41 21.75 15.75 21.41 15.75 21V18.75H16C17.52 18.75 18.75 17.52 18.75 16V15.75H21C21.41 15.75 21.75 15.41 21.75 15C21.75 14.59 21.41 14.25 21 14.25H18.75V12.75H21ZM15.75 14C15.75 14.96 14.96 15.75 14 15.75H10C9.04 15.75 8.25 14.96 8.25 14V10C8.25 9.04 9.04 8.25 10 8.25H14C14.96 8.25 15.75 9.04 15.75 10V14Z" fill="black"/>
</svg>
