<svg width="24" height="24" viewBox="0 0 24 24" fill="none" xmlns="http://www.w3.org/2000/svg">
<path d="M15 2.25H9C6.93 2.25 5.25 3.93 5.25 6V17C5.25 18.43 6.07 19.66 7.25 20.3V21C7.25 21.41 7.59 21.75 8 21.75C8.41 21.75 8.75 21.41 8.75 21V20.72C8.83 20.72 8.91 20.75 9 20.75H15C15.09 20.75 15.17 20.73 15.25 20.72V21C15.25 21.41 15.59 21.75 16 21.75C16.41 21.75 16.75 21.41 16.75 21V20.3C17.93 19.67 18.75 18.44 18.75 17V6C18.75 3.93 17.07 2.25 15 2.25ZM17.25 17C17.25 18.24 16.24 19.25 15 19.25H9C7.76 19.25 6.75 18.24 6.75 17V6C6.75 4.76 7.76 3.75 9 3.75H15C16.24 3.75 17.25 4.76 17.25 6V17Z" fill="black"/>
<path d="M13.36 7.35C13 7.56 12.88 8.02 13.09 8.37C13.2 8.56 13.26 8.78 13.26 9C13.26 9.69 12.7 10.25 12.01 10.25C11.32 10.25 10.76 9.69 10.76 9C10.76 8.78 10.82 8.56 10.93 8.37C11.14 8.01 11.01 7.55 10.66 7.35C10.3 7.14 9.84 7.27 9.64 7.62C9.4 8.04 9.27 8.51 9.27 9C9.27 10.52 10.5 11.75 12.02 11.75C13.54 11.75 14.77 10.52 14.77 9C14.77 8.52 14.64 8.04 14.4 7.62C14.19 7.26 13.73 7.14 13.38 7.35H13.36Z" fill="black"/>
<path d="M12 8.75C12.41 8.75 12.75 8.41 12.75 8V7C12.75 6.59 12.41 6.25 12 6.25C11.59 6.25 11.25 6.59 11.25 7V8C11.25 8.41 11.59 8.75 12 8.75Z" fill="black"/>
</svg>
