<svg width="24" height="24" viewBox="0 0 24 24" fill="none" xmlns="http://www.w3.org/2000/svg">
<path d="M19 9.25H15.75V8C15.75 7.3 15.34 6.71 14.75 6.43V4C14.75 3.04 13.96 2.25 13 2.25H9C8.04 2.25 7.25 3.04 7.25 4V6.43C6.66 6.71 6.25 7.31 6.25 8V18C6.25 20.07 7.93 21.75 10 21.75H12C14.07 21.75 15.75 20.07 15.75 18V16.75H19C20.52 16.75 21.75 15.52 21.75 14V12C21.75 10.48 20.52 9.25 19 9.25ZM8.75 4C8.75 3.86 8.86 3.75 9 3.75H13C13.14 3.75 13.25 3.86 13.25 4V6.25H8.75V4ZM14.25 18C14.25 19.24 13.24 20.25 12 20.25H10C8.76 20.25 7.75 19.24 7.75 18V8C7.75 7.86 7.86 7.75 8 7.75H14C14.14 7.75 14.25 7.86 14.25 8V9.25H13C10.93 9.25 9.25 10.93 9.25 13C9.25 15.07 10.93 16.75 13 16.75H14.25V18ZM20.25 14C20.25 14.69 19.69 15.25 19 15.25H13C11.76 15.25 10.75 14.24 10.75 13C10.75 11.76 11.76 10.75 13 10.75H19C19.69 10.75 20.25 11.31 20.25 12V14Z" fill="black"/>
<path d="M13.02 12.25C12.61 12.25 12.28 12.59 12.28 13C12.28 13.41 12.62 13.75 13.03 13.75C13.44 13.75 13.78 13.41 13.78 13C13.78 12.59 13.45 12.25 13.03 12.25H13.02Z" fill="black"/>
</svg>
