<svg width="24" height="24" viewBox="0 0 24 24" fill="none" xmlns="http://www.w3.org/2000/svg">
<path d="M19 9.25H13C10.93 9.25 9.25 10.93 9.25 13C9.25 15.07 10.93 16.75 13 16.75H19C20.52 16.75 21.75 15.52 21.75 14V12C21.75 10.48 20.52 9.25 19 9.25ZM13.02 13.75C12.61 13.75 12.27 13.41 12.27 13C12.27 12.59 12.6 12.25 13.01 12.25C13.43 12.25 13.76 12.59 13.76 13C13.76 13.41 13.43 13.75 13.01 13.75H13.02Z" fill="black"/>
<path d="M14 4.75C14.26 4.75 14.51 4.79 14.75 4.85V4C14.75 3.04 13.96 2.25 13 2.25H9C8.04 2.25 7.25 3.04 7.25 4V4.85C7.49 4.79 7.74 4.75 8 4.75H14Z" fill="black"/>
<path d="M7.75 13C7.75 10.1 10.1 7.75 13 7.75H15.72C15.6 6.9 14.87 6.25 14 6.25H8C7.04 6.25 6.25 7.04 6.25 8V18C6.25 20.07 7.93 21.75 10 21.75H12C13.98 21.75 15.59 20.2 15.72 18.25H13C10.1 18.25 7.75 15.9 7.75 13Z" fill="black"/>
</svg>
