<svg width="24" height="24" viewBox="0 0 24 24" fill="none" xmlns="http://www.w3.org/2000/svg">
<path d="M21 15.25H20.75V8C20.75 5.93 19.07 4.25 17 4.25H7C4.93 4.25 3.25 5.93 3.25 8V15.25H3C2.59 15.25 2.25 15.59 2.25 16V17C2.25 18.52 3.48 19.75 5 19.75H19C20.52 19.75 21.75 18.52 21.75 17V16C21.75 15.59 21.41 15.25 21 15.25ZM4.75 8C4.75 6.76 5.76 5.75 7 5.75H17C18.24 5.75 19.25 6.76 19.25 8V15.25H15.41C14.94 15.25 14.5 15.43 14.17 15.76L13.76 16.17C13.76 16.17 13.65 16.24 13.58 16.24H10.41C10.34 16.24 10.28 16.21 10.23 16.17L9.82 15.76C9.49 15.43 9.05 15.25 8.58 15.25H4.74V8H4.75ZM20.25 17C20.25 17.69 19.69 18.25 19 18.25H5C4.31 18.25 3.75 17.69 3.75 17V16.75H8.59C8.66 16.75 8.72 16.78 8.77 16.82L9.18 17.23C9.51 17.56 9.95 17.74 10.42 17.74H13.59C14.06 17.74 14.5 17.56 14.83 17.23L15.24 16.82C15.24 16.82 15.35 16.75 15.42 16.75H20.26V17H20.25Z" fill="black"/>
</svg>
