<svg width="24" height="24" viewBox="0 0 24 24" fill="none" xmlns="http://www.w3.org/2000/svg">
<path d="M12 13.25C12.6904 13.25 13.25 12.6904 13.25 12C13.25 11.3096 12.6904 10.75 12 10.75C11.3096 10.75 10.75 11.3096 10.75 12C10.75 12.6904 11.3096 13.25 12 13.25Z" fill="black"/>
<path d="M9.46 10.95C9.81 10.09 10.59 9.46 11.52 9.3C11.5 8.95 11.44 8.62 11.31 8.3C11.06 7.71 10.67 7.32 10.32 7.06C8.29 7.75 6.82 9.64 6.77 11.88C7.04 11.67 7.35 11.47 7.71 11.32C8.27 11.08 8.86 10.96 9.46 10.96V10.95Z" fill="black"/>
<path d="M13.05 9.46C13.91 9.82 14.54 10.6 14.7 11.54C15.05 11.52 15.38 11.45 15.7 11.31C16.29 11.06 16.68 10.67 16.94 10.32C16.25 8.29 14.36 6.82 12.12 6.76C12.33 7.03 12.53 7.33 12.68 7.7C12.92 8.26 13.04 8.85 13.04 9.46H13.05Z" fill="black"/>
<path d="M10.95 14.54C10.09 14.18 9.46 13.4 9.3 12.46C8.95 12.48 8.62 12.55 8.3 12.69C7.71 12.94 7.32 13.33 7.06 13.68C7.75 15.71 9.64 17.18 11.88 17.24C11.67 16.97 11.47 16.67 11.32 16.3C11.08 15.74 10.96 15.15 10.96 14.54H10.95Z" fill="black"/>
<path d="M17 2.25H7C4.38 2.25 2.25 4.38 2.25 7V17C2.25 19.62 4.38 21.75 7 21.75H17C19.62 21.75 21.75 19.62 21.75 17V7C21.75 4.38 19.62 2.25 17 2.25ZM12 18.75C8.9 18.75 6.29 16.65 5.5 13.8C5.5 13.78 5.49 13.76 5.48 13.74C5.33 13.19 5.25 12.61 5.25 12C5.25 8.9 7.35 6.29 10.2 5.5C10.22 5.5 10.24 5.49 10.26 5.48C10.82 5.33 11.4 5.24 12 5.24C15.1 5.24 17.71 7.34 18.5 10.19C18.5 10.21 18.51 10.23 18.52 10.25C18.67 10.81 18.76 11.39 18.76 11.99C18.76 15.71 15.73 18.74 12.01 18.74L12 18.75Z" fill="black"/>
<path d="M14.54 13.05C14.19 13.9 13.41 14.54 12.48 14.7C12.5 15.05 12.56 15.38 12.69 15.7C12.94 16.29 13.33 16.68 13.68 16.94C15.71 16.25 17.18 14.36 17.23 12.12C16.96 12.33 16.66 12.53 16.29 12.68C15.73 12.92 15.14 13.04 14.53 13.04L14.54 13.05Z" fill="black"/>
</svg>
