<svg width="24" height="24" viewBox="0 0 24 24" fill="none" xmlns="http://www.w3.org/2000/svg">
<path d="M15 7.25H9C8.0335 7.25 7.25 8.0335 7.25 9V14C7.25 14.9665 8.0335 15.75 9 15.75H15C15.9665 15.75 16.75 14.9665 16.75 14V9C16.75 8.0335 15.9665 7.25 15 7.25Z" fill="black"/>
<path d="M15 5.75C15.26 5.75 15.51 5.79 15.75 5.85V3.5C15.75 2.81 15.19 2.25 14.5 2.25H9.5C8.81 2.25 8.25 2.81 8.25 3.5V5.85C8.49 5.79 8.74 5.75 9 5.75H15Z" fill="black"/>
<path d="M9 17.25C9 17.25 8.97 17.25 8.96 17.25L9.06 17.56C9.3 18.28 9.97 18.76 10.72 18.76H11.25V21.01C11.25 21.42 11.59 21.76 12 21.76C12.41 21.76 12.75 21.42 12.75 21.01V18.76H13.28C14.03 18.76 14.7 18.28 14.94 17.56L15.04 17.25C15.04 17.25 15.01 17.25 15 17.25H9Z" fill="black"/>
</svg>
