<svg width="24" height="24" viewBox="0 0 24 24" fill="none" xmlns="http://www.w3.org/2000/svg">
<path d="M6 3.25C3.93 3.25 2.25 4.93 2.25 7V14C2.25 16.07 3.93 17.75 6 17.75H9.28C9.28 17.75 9.28 17.81 9.28 17.84C9.15 18.44 8.89 18.91 8.65 19.25H8.02C7.61 19.25 7.27 19.59 7.27 20C7.27 20.41 7.61 20.75 8.02 20.75H16.02C16.43 20.75 16.77 20.41 16.77 20C16.77 19.59 16.43 19.25 16.02 19.25H15.39C15.15 18.91 14.89 18.44 14.75 17.84C14.75 17.81 14.75 17.78 14.75 17.75H18.03C20.1 17.75 21.78 16.07 21.78 14V7C21.78 4.93 20.1 3.25 18.03 3.25H6ZM15 14.75H9C8.59 14.75 8.25 14.41 8.25 14C8.25 13.59 8.59 13.25 9 13.25H15C15.41 13.25 15.75 13.59 15.75 14C15.75 14.41 15.41 14.75 15 14.75Z" fill="black"/>
</svg>
