<svg width="24" height="24" viewBox="0 0 24 24" fill="none" xmlns="http://www.w3.org/2000/svg">
<path d="M19.8099 15.9198C20.4099 14.7398 20.7499 13.4098 20.7499 11.9998C20.7499 11.2198 20.6399 10.4598 20.4399 9.73982C20.4399 9.70982 20.4299 9.68982 20.4199 9.66982C20.2699 9.11982 20.0599 8.57982 19.8099 8.07982L20.9399 6.94982C22.0099 5.87982 22.0099 4.12982 20.9399 3.05982C19.8699 1.98982 18.1199 1.98982 17.0499 3.05982L15.9199 4.18982C14.7399 3.58982 13.4099 3.24982 11.9999 3.24982C11.2199 3.24982 10.4599 3.35982 9.73994 3.55982C9.70994 3.55982 9.68994 3.56982 9.65994 3.57982C9.10994 3.72982 8.57994 3.93982 8.06994 4.18982L6.93994 3.05982C5.86994 1.98982 4.11994 1.98982 3.04994 3.05982C1.97994 4.12982 1.97994 5.87982 3.04994 6.94982L4.17994 8.07982C3.57994 9.25982 3.23994 10.5898 3.23994 11.9998C3.23994 12.7798 3.34994 13.5398 3.54994 14.2598C3.54994 14.2898 3.55994 14.3098 3.56994 14.3298C3.71994 14.8798 3.92994 15.4198 4.17994 15.9198L3.04994 17.0498C1.97994 18.1198 1.97994 19.8698 3.04994 20.9398C3.58994 21.4798 4.28994 21.7398 4.98994 21.7398C5.68994 21.7398 6.39994 21.4698 6.92994 20.9398L8.05994 19.8098C9.23994 20.4098 10.5699 20.7498 11.9799 20.7498C13.3899 20.7498 14.7199 20.4098 15.8999 19.8098L17.0299 20.9398C17.5699 21.4798 18.2699 21.7398 18.9699 21.7398C19.6699 21.7398 20.3799 21.4698 20.9099 20.9398C21.9799 19.8698 21.9799 18.1198 20.9099 17.0498L19.7799 15.9198H19.8099ZM14.2299 18.8898C13.6999 18.5298 13.0799 17.9498 12.6899 17.0298C12.4599 16.4998 12.3499 15.9498 12.3499 15.3698C13.6799 15.2298 14.7699 14.3398 15.2099 13.1298C15.2699 13.1298 15.3199 13.1398 15.3799 13.1398C16.1599 13.1398 16.9199 12.9898 17.6299 12.6798C18.2899 12.3998 18.8099 12.0298 19.2299 11.6298C19.2299 11.7498 19.2499 11.8698 19.2499 11.9898C19.2499 15.2098 17.1399 17.9398 14.2299 18.8798V18.8898ZM6.36994 11.3098C5.70994 11.5898 5.18994 11.9598 4.76994 12.3598C4.76994 12.2398 4.74994 12.1198 4.74994 11.9998C4.74994 8.77982 6.85994 6.04982 9.76994 5.10982C10.2999 5.46982 10.9199 6.04982 11.3099 6.96982C11.5399 7.49982 11.6499 8.04982 11.6499 8.62982C10.3199 8.76982 9.22994 9.64982 8.78994 10.8698C7.94994 10.8498 7.13994 10.9898 6.36994 11.3198V11.3098ZM10.0999 11.7698C10.0999 11.7698 10.0999 11.7598 10.0999 11.7498C10.0999 11.7498 10.0999 11.7298 10.0999 11.7198C10.2299 10.7898 11.0299 10.0798 11.9899 10.0798C13.0499 10.0798 13.9099 10.9398 13.9099 11.9998C13.9099 12.0798 13.8999 12.1598 13.8899 12.2298V12.2598C13.7599 13.1898 12.9699 13.9098 11.9999 13.9098C11.9199 13.9098 11.8399 13.8998 11.7599 13.8898C11.7599 13.8898 11.7599 13.8898 11.7499 13.8898C10.8199 13.7598 10.0899 12.9698 10.0899 11.9998C10.0899 11.9198 10.0999 11.8498 10.1099 11.7698H10.0999ZM18.1099 4.11982C18.5999 3.62982 19.3899 3.62982 19.8799 4.11982C20.3699 4.60982 20.3699 5.39982 19.8799 5.88982L18.9899 6.77982C18.4899 6.10982 17.8899 5.50982 17.2199 5.00982L18.1099 4.11982ZM18.8899 9.76982C18.5299 10.2998 17.9499 10.9198 17.0299 11.3098C16.4999 11.5398 15.9499 11.6498 15.3699 11.6498C15.2299 10.3198 14.3399 9.22982 13.1299 8.78982C13.1499 7.94982 13.0099 7.13982 12.6799 6.36982C12.3999 5.70982 12.0299 5.18982 11.6299 4.76982C11.7499 4.76982 11.8699 4.74982 11.9899 4.74982C15.2099 4.74982 17.9399 6.85983 18.8799 9.76982H18.8899ZM4.11994 5.87982C3.62994 5.38982 3.62994 4.59982 4.11994 4.10982C4.60994 3.61982 5.39994 3.61982 5.88994 4.10982L6.77994 4.99982C6.10994 5.49982 5.50994 6.09982 5.00994 6.76982L4.11994 5.87982ZM5.88994 19.8798C5.39994 20.3698 4.60994 20.3698 4.11994 19.8798C3.62994 19.3898 3.62994 18.5998 4.11994 18.1098L5.00994 17.2198C5.50994 17.8898 6.10994 18.4898 6.77994 18.9898L5.88994 19.8798ZM5.10994 14.2298C5.46994 13.6998 6.04994 13.0798 6.96994 12.6898C7.49994 12.4598 8.04994 12.3498 8.62994 12.3498C8.76994 13.6698 9.64994 14.7698 10.8699 15.1998C10.8499 16.0398 10.9899 16.8498 11.3199 17.6198C11.5999 18.2798 11.9699 18.7998 12.3699 19.2198C12.2499 19.2198 12.1299 19.2398 12.0099 19.2398C8.78994 19.2398 6.05994 17.1298 5.11994 14.2198L5.10994 14.2298ZM19.8899 19.8798C19.3999 20.3698 18.6099 20.3698 18.1199 19.8798L17.2299 18.9898C17.8999 18.4898 18.4999 17.8898 18.9999 17.2198L19.8899 18.1098C20.3799 18.5998 20.3799 19.3898 19.8899 19.8798Z" fill="black"/>
</svg>
