<svg width="24" height="24" viewBox="0 0 24 24" fill="none" xmlns="http://www.w3.org/2000/svg">
<path d="M15.75 7.43V3.5C15.75 2.81 15.19 2.25 14.5 2.25H9.5C8.81 2.25 8.25 2.81 8.25 3.5V7.43C7.66 7.71 7.25 8.31 7.25 9V14C7.25 14.76 7.74 15.41 8.42 15.64L9.06 17.55C9.3 18.27 9.97 18.75 10.72 18.75H11.25V21C11.25 21.41 11.59 21.75 12 21.75C12.41 21.75 12.75 21.41 12.75 21V18.75H13.28C14.03 18.75 14.7 18.27 14.94 17.55L15.58 15.64C16.26 15.4 16.75 14.76 16.75 14V9C16.75 8.3 16.34 7.71 15.75 7.43ZM8.75 14V9C8.75 8.86 8.86 8.75 9 8.75H15C15.14 8.75 15.25 8.86 15.25 9V14C15.25 14.14 15.14 14.25 15 14.25H9C8.86 14.25 8.75 14.14 8.75 14ZM9.75 3.75H14.25V7.25H9.75V3.75ZM13.52 17.08C13.49 17.18 13.39 17.25 13.28 17.25H10.72C10.61 17.25 10.52 17.18 10.48 17.08L10.04 15.75H13.96L13.52 17.08Z" fill="black"/>
</svg>
