<svg width="24" height="24" viewBox="0 0 24 24" fill="none" xmlns="http://www.w3.org/2000/svg">
<path d="M15 12.75H9C8.86193 12.75 8.75 12.8619 8.75 13V16C8.75 16.1381 8.86193 16.25 9 16.25H15C15.1381 16.25 15.25 16.1381 15.25 16V13C15.25 12.8619 15.1381 12.75 15 12.75Z" fill="black"/>
<path d="M18.82 7.24L19.23 6.83C19.56 6.5 19.74 6.05 19.74 5.59V4C19.74 3.04 18.95 2.25 17.99 2.25H7.54C6.95 2.25 6.41 2.54 6.08 3.03L4.54 5.33C4.35 5.62 4.25 5.95 4.25 6.3V8.58C4.25 9.04 4.44 9.49 4.76 9.82L5.17 10.23C5.17 10.23 5.24 10.34 5.24 10.41V11.58C5.24 11.65 5.21 11.71 5.17 11.76L4.76 12.17C4.43 12.5 4.25 12.95 4.25 13.41V20C4.25 20.96 5.04 21.75 6 21.75H8.59C9.05 21.75 9.5 21.56 9.83 21.24L10.24 20.83C10.24 20.83 10.35 20.76 10.42 20.76H13.59C13.66 20.76 13.72 20.79 13.77 20.83L14.18 21.24C14.51 21.57 14.96 21.75 15.42 21.75H18.01C18.97 21.75 19.76 20.96 19.76 20V12.41C19.76 11.95 19.57 11.5 19.25 11.17L18.84 10.76C18.84 10.76 18.77 10.65 18.77 10.58V7.41C18.77 7.34 18.8 7.28 18.84 7.23L18.82 7.24ZM14.25 5C14.25 4.59 14.59 4.25 15 4.25C15.41 4.25 15.75 4.59 15.75 5V7C15.75 7.41 15.41 7.75 15 7.75C14.59 7.75 14.25 7.41 14.25 7V5ZM11.25 5C11.25 4.59 11.59 4.25 12 4.25C12.41 4.25 12.75 4.59 12.75 5V7C12.75 7.41 12.41 7.75 12 7.75C11.59 7.75 11.25 7.41 11.25 7V5ZM8.25 5C8.25 4.59 8.59 4.25 9 4.25C9.41 4.25 9.75 4.59 9.75 5V7C9.75 7.41 9.41 7.75 9 7.75C8.59 7.75 8.25 7.41 8.25 7V5ZM16.75 16C16.75 16.96 15.96 17.75 15 17.75H9C8.04 17.75 7.25 16.96 7.25 16V13C7.25 12.04 8.04 11.25 9 11.25H15C15.96 11.25 16.75 12.04 16.75 13V16Z" fill="black"/>
</svg>
