<svg width="24" height="24" viewBox="0 0 24 24" fill="none" xmlns="http://www.w3.org/2000/svg">
<path d="M17 2.25H7C4.38 2.25 2.25 4.38 2.25 7V17C2.25 19.62 4.38 21.75 7 21.75H17C19.62 21.75 21.75 19.62 21.75 17V7C21.75 4.38 19.62 2.25 17 2.25ZM20.25 17C20.25 18.79 18.79 20.25 17 20.25H7C5.21 20.25 3.75 18.79 3.75 17V7C3.75 5.21 5.21 3.75 7 3.75H17C18.79 3.75 20.25 5.21 20.25 7V17Z" fill="black"/>
<path d="M18.5 10.2C17.71 7.35 15.1 5.25 12 5.25C11.4 5.25 10.82 5.34 10.26 5.49C10.24 5.49 10.22 5.49 10.2 5.51C7.35 6.3 5.25 8.91 5.25 12.01C5.25 12.61 5.34 13.19 5.48 13.75C5.48 13.77 5.49 13.79 5.5 13.81C6.29 16.66 8.9 18.76 12 18.76C15.72 18.76 18.75 15.73 18.75 12.01C18.75 11.41 18.66 10.83 18.51 10.27C18.51 10.25 18.51 10.23 18.49 10.21L18.5 10.2ZM16.95 10.32C16.69 10.67 16.29 11.06 15.71 11.31C15.39 11.45 15.05 11.52 14.71 11.54C14.55 10.6 13.92 9.82 13.06 9.46C13.06 8.85 12.94 8.26 12.7 7.7C12.54 7.33 12.34 7.03 12.14 6.76C14.39 6.81 16.27 8.29 16.96 10.32H16.95ZM12 13.25C11.31 13.25 10.75 12.69 10.75 12C10.75 11.31 11.31 10.75 12 10.75C12.69 10.75 13.25 11.31 13.25 12C13.25 12.69 12.69 13.25 12 13.25ZM10.32 7.05C10.67 7.31 11.06 7.71 11.31 8.29C11.45 8.61 11.5 8.95 11.52 9.29C10.58 9.45 9.81 10.09 9.46 10.94C8.85 10.94 8.26 11.06 7.71 11.3C7.34 11.46 7.04 11.66 6.77 11.86C6.82 9.61 8.3 7.73 10.32 7.04V7.05ZM7.05 13.68C7.31 13.33 7.71 12.94 8.29 12.69C8.61 12.55 8.94 12.48 9.29 12.46C9.45 13.4 10.08 14.18 10.94 14.54C10.94 15.15 11.06 15.74 11.3 16.3C11.46 16.67 11.66 16.97 11.86 17.24C9.61 17.19 7.73 15.71 7.04 13.68H7.05ZM13.68 16.95C13.33 16.69 12.94 16.29 12.69 15.71C12.55 15.39 12.5 15.05 12.48 14.71C13.42 14.55 14.19 13.91 14.54 13.06C15.15 13.06 15.73 12.94 16.3 12.7C16.67 12.54 16.97 12.34 17.24 12.14C17.19 14.39 15.71 16.27 13.69 16.96L13.68 16.95Z" fill="black"/>
</svg>
