<svg width="24" height="24" viewBox="0 0 24 24" fill="none" xmlns="http://www.w3.org/2000/svg">
<path d="M15 6.75H9C8.86193 6.75 8.75 6.86193 8.75 7V10C8.75 10.1381 8.86193 10.25 9 10.25H15C15.1381 10.25 15.25 10.1381 15.25 10V7C15.25 6.86193 15.1381 6.75 15 6.75Z" fill="black"/>
<path d="M12 17.25C12.6904 17.25 13.25 16.6904 13.25 16C13.25 15.3096 12.6904 14.75 12 14.75C11.3096 14.75 10.75 15.3096 10.75 16C10.75 16.6904 11.3096 17.25 12 17.25Z" fill="black"/>
<path d="M17 2.25H7C5.48 2.25 4.25 3.48 4.25 5V19C4.25 20.52 5.48 21.75 7 21.75H17C18.52 21.75 19.75 20.52 19.75 19V5C19.75 3.48 18.52 2.25 17 2.25ZM12 18.75C10.48 18.75 9.25 17.52 9.25 16C9.25 14.48 10.48 13.25 12 13.25C13.52 13.25 14.75 14.48 14.75 16C14.75 17.52 13.52 18.75 12 18.75ZM16.75 10C16.75 10.96 15.96 11.75 15 11.75H9C8.04 11.75 7.25 10.96 7.25 10V7C7.25 6.04 8.04 5.25 9 5.25H15C15.96 5.25 16.75 6.04 16.75 7V10Z" fill="black"/>
</svg>
