<svg width="24" height="24" viewBox="0 0 24 24" fill="none" xmlns="http://www.w3.org/2000/svg">
<path d="M17 2.25H7C4.38 2.25 2.25 4.38 2.25 7V17C2.25 19.62 4.38 21.75 7 21.75H17C19.62 21.75 21.75 19.62 21.75 17V7C21.75 4.38 19.62 2.25 17 2.25ZM20.25 17C20.25 18.79 18.79 20.25 17 20.25H7C5.21 20.25 3.75 18.79 3.75 17V7C3.75 5.21 5.21 3.75 7 3.75H17C18.79 3.75 20.25 5.21 20.25 7V17Z" fill="black"/>
<path d="M16 5.25H8C6.48 5.25 5.25 6.48 5.25 8V11C5.25 12.52 6.48 13.75 8 13.75H16C17.52 13.75 18.75 12.52 18.75 11V8C18.75 6.48 17.52 5.25 16 5.25ZM17.25 11C17.25 11.69 16.69 12.25 16 12.25H8C7.31 12.25 6.75 11.69 6.75 11V8C6.75 7.31 7.31 6.75 8 6.75H16C16.69 6.75 17.25 7.31 17.25 8V11Z" fill="black"/>
<path d="M15.5 14.25C14.26 14.25 13.25 15.26 13.25 16.5C13.25 17.74 14.26 18.75 15.5 18.75C16.74 18.75 17.75 17.74 17.75 16.5C17.75 15.26 16.74 14.25 15.5 14.25ZM15.5 17.25C15.09 17.25 14.75 16.91 14.75 16.5C14.75 16.09 15.09 15.75 15.5 15.75C15.91 15.75 16.25 16.09 16.25 16.5C16.25 16.91 15.91 17.25 15.5 17.25Z" fill="black"/>
<path d="M8.5 14.25C7.26 14.25 6.25 15.26 6.25 16.5C6.25 17.74 7.26 18.75 8.5 18.75C9.74 18.75 10.75 17.74 10.75 16.5C10.75 15.26 9.74 14.25 8.5 14.25ZM8.5 17.25C8.09 17.25 7.75 16.91 7.75 16.5C7.75 16.09 8.09 15.75 8.5 15.75C8.91 15.75 9.25 16.09 9.25 16.5C9.25 16.91 8.91 17.25 8.5 17.25Z" fill="black"/>
</svg>
