<svg width="24" height="24" viewBox="0 0 24 24" fill="none" xmlns="http://www.w3.org/2000/svg">
<path d="M19 11.75C20.52 11.75 21.75 10.52 21.75 9V7C21.75 5.48 20.52 4.25 19 4.25H5C3.48 4.25 2.25 5.48 2.25 7V9C2.25 10.52 3.48 11.75 5 11.75H5.25V13.25H5C3.48 13.25 2.25 14.48 2.25 16V18C2.25 19.52 3.48 20.75 5 20.75H19C20.52 20.75 21.75 19.52 21.75 18V16C21.75 14.48 20.52 13.25 19 13.25H18.75V11.75H19ZM15 7.25H18C18.41 7.25 18.75 7.59 18.75 8C18.75 8.41 18.41 8.75 18 8.75H15C14.59 8.75 14.25 8.41 14.25 8C14.25 7.59 14.59 7.25 15 7.25ZM9.01 7.25C9.43 7.25 9.76 7.59 9.76 8C9.76 8.41 9.43 8.75 9.01 8.75C8.59 8.75 8.26 8.41 8.26 8C8.26 7.59 8.59 7.25 9.01 7.25ZM6.01 7.25C6.43 7.25 6.76 7.59 6.76 8C6.76 8.41 6.43 8.75 6.01 8.75C5.59 8.75 5.26 8.41 5.26 8C5.26 7.59 5.59 7.25 6.01 7.25ZM6.01 17.75C5.6 17.75 5.26 17.41 5.26 17C5.26 16.59 5.59 16.25 6.01 16.25C6.43 16.25 6.76 16.59 6.76 17C6.76 17.41 6.43 17.75 6.01 17.75ZM9.01 17.75C8.6 17.75 8.26 17.41 8.26 17C8.26 16.59 8.59 16.25 9.01 16.25C9.43 16.25 9.76 16.59 9.76 17C9.76 17.41 9.43 17.75 9.01 17.75ZM17.99 17.75H14.99C14.58 17.75 14.24 17.41 14.24 17C14.24 16.59 14.58 16.25 14.99 16.25H17.99C18.4 16.25 18.74 16.59 18.74 17C18.74 17.41 18.4 17.75 17.99 17.75ZM6.75 13.25V11.75H17.25V13.25H6.75Z" fill="black"/>
</svg>
