<svg width="24" height="24" viewBox="0 0 24 24" fill="none" xmlns="http://www.w3.org/2000/svg">
<path d="M21.47 4.40996C21.29 4.26996 21.06 4.20996 20.84 4.25996C15.05 5.55996 8.96001 5.55996 3.17001 4.25996C2.95001 4.20996 2.71001 4.25996 2.54001 4.40996C2.36001 4.54996 2.26001 4.76996 2.26001 4.99996V17C2.26001 17.23 2.36001 17.44 2.54001 17.59C2.72001 17.73 2.95001 17.79 3.17001 17.74C5.17001 17.29 7.21001 17.01 9.26001 16.87V18.26H8.01001C7.60001 18.26 7.26001 18.6 7.26001 19.01C7.26001 19.42 7.60001 19.76 8.01001 19.76H16.01C16.42 19.76 16.76 19.42 16.76 19.01C16.76 18.6 16.42 18.26 16.01 18.26H14.76V16.87C16.81 17.01 18.84 17.29 20.85 17.74C20.9 17.75 20.96 17.76 21.01 17.76C21.18 17.76 21.34 17.7 21.48 17.6C21.66 17.46 21.76 17.24 21.76 17.01V4.99996C21.76 4.76996 21.66 4.55996 21.48 4.40996H21.47ZM13.25 18.25H10.75V16.79C11.58 16.76 12.42 16.76 13.25 16.79V18.25ZM20.25 16.07C18.29 15.68 16.3 15.43 14.31 15.32C14.22 15.28 14.11 15.25 14 15.25C13.92 15.25 13.85 15.27 13.78 15.29C13.19 15.26 12.59 15.25 12 15.25C11.41 15.25 10.81 15.27 10.22 15.29C10.15 15.27 10.08 15.25 10 15.25C9.89001 15.25 9.79001 15.28 9.69001 15.32C7.69001 15.43 5.71001 15.68 3.75001 16.07V5.92996C9.18001 7.01996 14.82 7.01996 20.25 5.92996V16.08V16.07Z" fill="black"/>
</svg>
