<svg width="24" height="24" viewBox="0 0 24 24" fill="none" xmlns="http://www.w3.org/2000/svg">
<path d="M15 2.25H9C6.93 2.25 5.25 3.93 5.25 6V17C5.25 18.43 6.07 19.66 7.25 20.3V21C7.25 21.41 7.59 21.75 8 21.75C8.41 21.75 8.75 21.41 8.75 21V20.72C8.83 20.72 8.91 20.75 9 20.75H15C15.09 20.75 15.17 20.73 15.25 20.72V21C15.25 21.41 15.59 21.75 16 21.75C16.41 21.75 16.75 21.41 16.75 21V20.3C17.93 19.67 18.75 18.44 18.75 17V6C18.75 3.93 17.07 2.25 15 2.25ZM11.25 7C11.25 6.59 11.59 6.25 12 6.25C12.41 6.25 12.75 6.59 12.75 7V8C12.75 8.41 12.41 8.75 12 8.75C11.59 8.75 11.25 8.41 11.25 8V7ZM12 11.75C10.48 11.75 9.25 10.52 9.25 9C9.25 8.52 9.38 8.04 9.62 7.62C9.83 7.26 10.28 7.14 10.64 7.35C11 7.56 11.12 8.02 10.91 8.37C10.8 8.56 10.74 8.78 10.74 9C10.74 9.69 11.3 10.25 11.99 10.25C12.68 10.25 13.24 9.69 13.24 9C13.24 8.78 13.18 8.56 13.07 8.37C12.86 8.01 12.99 7.55 13.34 7.35C13.7 7.14 14.16 7.27 14.36 7.62C14.6 8.04 14.73 8.51 14.73 9C14.73 10.52 13.5 11.75 11.98 11.75H12Z" fill="black"/>
</svg>
