<svg width="24" height="24" viewBox="0 0 24 24" fill="none" xmlns="http://www.w3.org/2000/svg">
<path d="M18.82 7.24L19.23 6.83C19.56 6.5 19.74 6.05 19.74 5.59V4C19.74 3.04 18.95 2.25 17.99 2.25H7.54C6.95 2.25 6.41 2.54 6.08 3.03L4.54 5.33C4.35 5.62 4.25 5.95 4.25 6.3V8.58C4.25 9.04 4.44 9.49 4.76 9.82L5.17 10.23C5.17 10.23 5.24 10.34 5.24 10.41V11.58C5.24 11.65 5.21 11.71 5.17 11.76L4.76 12.17C4.43 12.5 4.25 12.95 4.25 13.41V20C4.25 20.96 5.04 21.75 6 21.75H8.59C9.05 21.75 9.5 21.56 9.83 21.24L10.24 20.83C10.24 20.83 10.35 20.76 10.42 20.76H13.59C13.66 20.76 13.72 20.79 13.77 20.83L14.18 21.24C14.51 21.57 14.96 21.75 15.42 21.75H18.01C18.97 21.75 19.76 20.96 19.76 20V12.41C19.76 11.95 19.57 11.5 19.25 11.17L18.84 10.76C18.84 10.76 18.77 10.65 18.77 10.58V7.41C18.77 7.34 18.8 7.28 18.84 7.23L18.82 7.24ZM18.25 5.59C18.25 5.66 18.22 5.72 18.18 5.77L17.77 6.18C17.44 6.51 17.26 6.96 17.26 7.42V10.59C17.26 11.05 17.45 11.5 17.77 11.83L18.18 12.24C18.18 12.24 18.25 12.35 18.25 12.42V20.01C18.25 20.15 18.14 20.26 18 20.26H15.41C15.34 20.26 15.28 20.23 15.23 20.19L14.82 19.78C14.49 19.45 14.04 19.27 13.58 19.27H10.41C9.95 19.27 9.5 19.46 9.17 19.78L8.76 20.19C8.76 20.19 8.65 20.26 8.58 20.26H5.99C5.85 20.26 5.74 20.15 5.74 20.01V13.42C5.74 13.35 5.77 13.29 5.81 13.24L6.22 12.83C6.55 12.5 6.73 12.05 6.73 11.59V10.42C6.73 9.96 6.54 9.51 6.22 9.18L5.81 8.77C5.81 8.77 5.74 8.66 5.74 8.59V6.31C5.74 6.31 5.75 6.21 5.78 6.17L7.32 3.87C7.37 3.8 7.44 3.76 7.53 3.76H17.99C18.13 3.76 18.24 3.87 18.24 4.01V5.6L18.25 5.59Z" fill="black"/>
<path d="M15 11.25H9C8.04 11.25 7.25 12.04 7.25 13V16C7.25 16.96 8.04 17.75 9 17.75H15C15.96 17.75 16.75 16.96 16.75 16V13C16.75 12.04 15.96 11.25 15 11.25ZM15.25 16C15.25 16.14 15.14 16.25 15 16.25H9C8.86 16.25 8.75 16.14 8.75 16V13C8.75 12.86 8.86 12.75 9 12.75H15C15.14 12.75 15.25 12.86 15.25 13V16Z" fill="black"/>
<path d="M12 7.75C12.41 7.75 12.75 7.41 12.75 7V5C12.75 4.59 12.41 4.25 12 4.25C11.59 4.25 11.25 4.59 11.25 5V7C11.25 7.41 11.59 7.75 12 7.75Z" fill="black"/>
<path d="M15 7.75C15.41 7.75 15.75 7.41 15.75 7V5C15.75 4.59 15.41 4.25 15 4.25C14.59 4.25 14.25 4.59 14.25 5V7C14.25 7.41 14.59 7.75 15 7.75Z" fill="black"/>
<path d="M9 7.75C9.41 7.75 9.75 7.41 9.75 7V5C9.75 4.59 9.41 4.25 9 4.25C8.59 4.25 8.25 4.59 8.25 5V7C8.25 7.41 8.59 7.75 9 7.75Z" fill="black"/>
</svg>
