<svg width="24" height="24" viewBox="0 0 24 24" fill="none" xmlns="http://www.w3.org/2000/svg">
<path d="M8 6.75H16C16.41 6.75 16.75 6.41 16.75 6V4C16.75 3.04 15.96 2.25 15 2.25H9C8.04 2.25 7.25 3.04 7.25 4V6C7.25 6.41 7.59 6.75 8 6.75Z" fill="black"/>
<path d="M17 13.25H7C6.59 13.25 6.25 13.59 6.25 14C6.25 14.41 6.59 14.75 7 14.75H7.25V19C7.25 19.96 8.04 20.75 9 20.75H15C15.96 20.75 16.75 19.96 16.75 19V14.75H17C17.41 14.75 17.75 14.41 17.75 14C17.75 13.59 17.41 13.25 17 13.25Z" fill="black"/>
<path d="M18.2 6.46C17.98 7.48 17.08 8.25 16 8.25H8C6.92 8.25 6.01 7.48 5.8 6.46C4.32 6.96 3.25 8.35 3.25 10V13C3.25 14.63 4.3 16 5.75 16.52V15.87C5.15 15.47 4.75 14.78 4.75 14C4.75 12.76 5.76 11.75 7 11.75H17C18.24 11.75 19.25 12.76 19.25 14C19.25 14.78 18.85 15.47 18.25 15.87V16.52C19.7 16 20.75 14.63 20.75 13V10C20.75 8.35 19.68 6.97 18.2 6.46ZM17.02 10.75C16.61 10.75 16.27 10.41 16.27 10C16.27 9.59 16.6 9.25 17.02 9.25C17.44 9.25 17.77 9.59 17.77 10C17.77 10.41 17.44 10.75 17.02 10.75Z" fill="black"/>
</svg>
