<svg width="24" height="24" viewBox="0 0 24 24" fill="none" xmlns="http://www.w3.org/2000/svg">
<path d="M15.06 2.26001H15.03C15.03 2.26001 15.01 2.26001 14.99 2.26001H8.99C8.99 2.26001 8.97 2.26001 8.96 2.26001C8.95 2.26001 8.94 2.26001 8.93 2.26001C6.89 2.30001 5.25 3.96001 5.25 6.00001V18C5.25 20.07 6.93 21.75 9 21.75H15C17.07 21.75 18.75 20.07 18.75 18V6.00001C18.75 3.95001 17.1 2.29001 15.06 2.26001ZM13.78 3.75001L13.6 4.11001C13.56 4.19001 13.47 4.25001 13.38 4.25001H10.62C10.52 4.25001 10.44 4.20001 10.4 4.11001L10.22 3.75001H13.79H13.78ZM17.24 18C17.24 19.24 16.23 20.25 14.99 20.25H8.99C7.75 20.25 6.74 19.24 6.74 18V6.00001C6.74 4.91001 7.52 4.00001 8.55 3.79001L9.04 4.78001C9.34 5.38001 9.94 5.75001 10.61 5.75001H13.37C14.04 5.75001 14.64 5.38001 14.94 4.78001L15.43 3.79001C16.46 4.00001 17.24 4.91001 17.24 6.00001V18Z" fill="black"/>
</svg>
