<svg width="24" height="24" viewBox="0 0 24 24" fill="none" xmlns="http://www.w3.org/2000/svg">
<path d="M19 11.25H18.75V5C18.75 4.59 18.41 4.25 18 4.25C17.59 4.25 17.25 4.59 17.25 5V11.25H6.75V5C6.75 4.59 6.41 4.25 6 4.25C5.59 4.25 5.25 4.59 5.25 5V11.25H5C3.48 11.25 2.25 12.48 2.25 14V16C2.25 17.52 3.48 18.75 5 18.75H5.25V19C5.25 19.41 5.59 19.75 6 19.75C6.41 19.75 6.75 19.41 6.75 19V18.75H17.25V19C17.25 19.41 17.59 19.75 18 19.75C18.41 19.75 18.75 19.41 18.75 19V18.75H19C20.52 18.75 21.75 17.52 21.75 16V14C21.75 12.48 20.52 11.25 19 11.25ZM20.25 16C20.25 16.69 19.69 17.25 19 17.25H5C4.31 17.25 3.75 16.69 3.75 16V14C3.75 13.31 4.31 12.75 5 12.75H19C19.69 12.75 20.25 13.31 20.25 14V16Z" fill="black"/>
<path d="M18 14.25H16C15.59 14.25 15.25 14.59 15.25 15C15.25 15.41 15.59 15.75 16 15.75H18C18.41 15.75 18.75 15.41 18.75 15C18.75 14.59 18.41 14.25 18 14.25Z" fill="black"/>
<path d="M6.02 14.25H6.01C5.6 14.25 5.27 14.59 5.27 15C5.27 15.41 5.61 15.75 6.02 15.75C6.43 15.75 6.77 15.41 6.77 15C6.77 14.59 6.43 14.25 6.02 14.25Z" fill="black"/>
<path d="M9.02 14.25H9.01C8.6 14.25 8.27 14.59 8.27 15C8.27 15.41 8.61 15.75 9.02 15.75C9.43 15.75 9.77 15.41 9.77 15C9.77 14.59 9.43 14.25 9.02 14.25Z" fill="black"/>
</svg>
