<svg width="24" height="24" viewBox="0 0 24 24" fill="none" xmlns="http://www.w3.org/2000/svg">
<path d="M12 2.25C7.73 2.25 4.25 5.73 4.25 10C4.25 14.27 7.73 17.75 12 17.75C16.27 17.75 19.75 14.27 19.75 10C19.75 5.73 16.27 2.25 12 2.25ZM14.62 10.42L12.62 13.42C12.48 13.64 12.24 13.75 11.99 13.75C11.85 13.75 11.7 13.71 11.57 13.62C11.23 13.39 11.13 12.92 11.36 12.58L12.58 10.75H9.98C9.7 10.75 9.45 10.6 9.32 10.35C9.19 10.11 9.2 9.81 9.36 9.58L11.36 6.58C11.59 6.24 12.05 6.14 12.4 6.37C12.74 6.6 12.84 7.07 12.61 7.41L11.39 9.24H13.99C14.27 9.24 14.52 9.39 14.65 9.64C14.78 9.88 14.77 10.18 14.61 10.41L14.62 10.42Z" fill="black"/>
<path d="M9.39 18.87C9.68 19.72 10.37 20.38 11.25 20.63V21C11.25 21.41 11.59 21.75 12 21.75C12.41 21.75 12.75 21.41 12.75 21V20.63C13.62 20.38 14.32 19.72 14.61 18.87C13.78 19.11 12.91 19.25 12 19.25C11.09 19.25 10.22 19.11 9.39 18.87Z" fill="black"/>
</svg>
