<svg width="24" height="24" viewBox="0 0 24 24" fill="none" xmlns="http://www.w3.org/2000/svg">
<path d="M18 9.25H12.75V9C12.75 7.48 11.52 6.25 10 6.25H9C8.31 6.25 7.75 5.69 7.75 5C7.75 4.59 7.41 4.25 7 4.25C6.59 4.25 6.25 4.59 6.25 5C6.25 6.52 7.48 7.75 9 7.75H10C10.69 7.75 11.25 8.31 11.25 9V9.25H6C3.93 9.25 2.25 10.93 2.25 13V16C2.25 18.07 3.93 19.75 6 19.75H18C20.07 19.75 21.75 18.07 21.75 16V13C21.75 10.93 20.07 9.25 18 9.25ZM20.25 16C20.25 17.24 19.24 18.25 18 18.25H6C4.76 18.25 3.75 17.24 3.75 16V13C3.75 11.76 4.76 10.75 6 10.75H18C19.24 10.75 20.25 11.76 20.25 13V16Z" fill="black"/>
<path d="M15 15.25H9C8.59 15.25 8.25 15.59 8.25 16C8.25 16.41 8.59 16.75 9 16.75H15C15.41 16.75 15.75 16.41 15.75 16C15.75 15.59 15.41 15.25 15 15.25Z" fill="black"/>
<path d="M8.75 13C8.75 12.59 8.41 12.25 8 12.25H7C6.59 12.25 6.25 12.59 6.25 13C6.25 13.41 6.59 13.75 7 13.75H8C8.41 13.75 8.75 13.41 8.75 13Z" fill="black"/>
<path d="M10 13.75H11C11.41 13.75 11.75 13.41 11.75 13C11.75 12.59 11.41 12.25 11 12.25H10C9.59 12.25 9.25 12.59 9.25 13C9.25 13.41 9.59 13.75 10 13.75Z" fill="black"/>
<path d="M13 13.75H14C14.41 13.75 14.75 13.41 14.75 13C14.75 12.59 14.41 12.25 14 12.25H13C12.59 12.25 12.25 12.59 12.25 13C12.25 13.41 12.59 13.75 13 13.75Z" fill="black"/>
<path d="M17.75 13C17.75 12.59 17.41 12.25 17 12.25H16C15.59 12.25 15.25 12.59 15.25 13C15.25 13.41 15.59 13.75 16 13.75H17C17.41 13.75 17.75 13.41 17.75 13Z" fill="black"/>
<path d="M7 15.25H6C5.59 15.25 5.25 15.59 5.25 16C5.25 16.41 5.59 16.75 6 16.75H7C7.41 16.75 7.75 16.41 7.75 16C7.75 15.59 7.41 15.25 7 15.25Z" fill="black"/>
<path d="M18 15.25H17C16.59 15.25 16.25 15.59 16.25 16C16.25 16.41 16.59 16.75 17 16.75H18C18.41 16.75 18.75 16.41 18.75 16C18.75 15.59 18.41 15.25 18 15.25Z" fill="black"/>
</svg>
