<svg width="24" height="24" viewBox="0 0 24 24" fill="none" xmlns="http://www.w3.org/2000/svg">
<path d="M16.75 4C16.75 3.04 15.96 2.25 15 2.25H9C8.04 2.25 7.25 3.04 7.25 4V6.75H16.75V4ZM11 5.75H10C9.59 5.75 9.25 5.41 9.25 5C9.25 4.59 9.59 4.25 10 4.25H11C11.41 4.25 11.75 4.59 11.75 5C11.75 5.41 11.41 5.75 11 5.75ZM14 5.75H13C12.59 5.75 12.25 5.41 12.25 5C12.25 4.59 12.59 4.25 13 4.25H14C14.41 4.25 14.75 4.59 14.75 5C14.75 5.41 14.41 5.75 14 5.75Z" fill="black"/>
<path d="M17 8.25H7C6.04 8.25 5.25 9.04 5.25 10V17C5.25 19.62 7.38 21.75 10 21.75H14C16.62 21.75 18.75 19.62 18.75 17V10C18.75 9.04 17.96 8.25 17 8.25ZM14 18.75H10C9.59 18.75 9.25 18.41 9.25 18C9.25 17.59 9.59 17.25 10 17.25H14C14.41 17.25 14.75 17.59 14.75 18C14.75 18.41 14.41 18.75 14 18.75Z" fill="black"/>
</svg>
