<svg width="24" height="24" viewBox="0 0 24 24" fill="none" xmlns="http://www.w3.org/2000/svg">
<path d="M21.72 13.84C21.72 13.84 21.72 13.79 21.72 13.76L19.4 6.81C18.89 5.28 17.46 4.25 15.84 4.25H8.16C6.54 4.25 5.11 5.28 4.6 6.81L2.28 13.76C2.28 13.76 2.28 13.81 2.28 13.84C2.27 13.89 2.25 13.94 2.25 14V17C2.25 19.07 3.93 20.75 6 20.75H18C20.07 20.75 21.75 19.07 21.75 17V14C21.75 13.94 21.73 13.9 21.72 13.84ZM6.03 7.29C6.34 6.37 7.19 5.75 8.16 5.75H15.84C16.81 5.75 17.67 6.37 17.97 7.29L19.96 13.25H4.04L6.03 7.29ZM20.25 17C20.25 18.24 19.24 19.25 18 19.25H6C4.76 19.25 3.75 18.24 3.75 17V14.75H20.25V17Z" fill="black"/>
<path d="M6 17.75H10C10.41 17.75 10.75 17.41 10.75 17C10.75 16.59 10.41 16.25 10 16.25H6C5.59 16.25 5.25 16.59 5.25 17C5.25 17.41 5.59 17.75 6 17.75Z" fill="black"/>
</svg>
