<svg width="24" height="24" viewBox="0 0 24 24" fill="none" xmlns="http://www.w3.org/2000/svg">
<path d="M20.82 10.24L21.23 9.83C21.56 9.5 21.74 9.05 21.74 8.59V7C21.74 6.04 20.95 5.25 19.99 5.25H16.4C15.94 5.25 15.49 5.44 15.16 5.76L14.75 6.17C14.75 6.17 14.64 6.24 14.57 6.24H9.39998C9.32998 6.24 9.26998 6.21 9.21998 6.17L8.80998 5.76C8.47998 5.43 8.02998 5.25 7.56998 5.25H3.97998C3.01998 5.25 2.22998 6.04 2.22998 7V8.59C2.22998 9.05 2.41998 9.5 2.73998 9.83L3.14998 10.24C3.14998 10.24 3.21998 10.35 3.21998 10.42V11.59C3.21998 11.66 3.18998 11.72 3.14998 11.77L2.73998 12.18C2.40998 12.51 2.22998 12.96 2.22998 13.42V14.01C2.22998 14.97 3.01998 15.76 3.97998 15.76H20C20.96 15.76 21.75 14.97 21.75 14.01V13.42C21.75 12.96 21.56 12.51 21.24 12.18L20.83 11.77C20.83 11.77 20.76 11.66 20.76 11.59V10.42C20.76 10.35 20.79 10.29 20.83 10.24H20.82ZM20.25 8.59C20.25 8.66 20.22 8.72 20.18 8.77L19.77 9.18C19.44 9.51 19.26 9.96 19.26 10.42V11.59C19.26 12.05 19.45 12.5 19.77 12.83L20.18 13.24C20.18 13.24 20.25 13.35 20.25 13.42V14.01C20.25 14.15 20.14 14.26 20 14.26H3.99998C3.85998 14.26 3.74998 14.15 3.74998 14.01V13.42C3.74998 13.35 3.77998 13.29 3.81998 13.24L4.22998 12.83C4.55998 12.5 4.73998 12.05 4.73998 11.59V10.42C4.73998 9.96 4.54998 9.51 4.22998 9.18L3.81998 8.77C3.81998 8.77 3.74998 8.66 3.74998 8.59V7C3.74998 6.86 3.85998 6.75 3.99998 6.75H7.58998C7.65998 6.75 7.71998 6.78 7.76998 6.82L8.17998 7.23C8.50998 7.56 8.95998 7.74 9.41998 7.74H14.59C15.05 7.74 15.5 7.55 15.83 7.23L16.24 6.82C16.24 6.82 16.35 6.75 16.42 6.75H20.01C20.15 6.75 20.26 6.86 20.26 7V8.59H20.25Z" fill="black"/>
<path d="M12 17.25H3.99998C3.58998 17.25 3.24998 17.59 3.24998 18C3.24998 18.41 3.58998 18.75 3.99998 18.75H12C12.41 18.75 12.75 18.41 12.75 18C12.75 17.59 12.41 17.25 12 17.25Z" fill="black"/>
<path d="M20 17.25H16C15.59 17.25 15.25 17.59 15.25 18C15.25 18.41 15.59 18.75 16 18.75H20C20.41 18.75 20.75 18.41 20.75 18C20.75 17.59 20.41 17.25 20 17.25Z" fill="black"/>
<path d="M16.47 8.47L15.76 9.18C15.76 9.18 15.65 9.25 15.58 9.25H8.40998C8.33998 9.25 8.27998 9.22 8.22998 9.18L7.51998 8.47C7.22998 8.18 6.74998 8.18 6.45998 8.47C6.16998 8.76 6.16998 9.24 6.45998 9.53L7.16998 10.24C7.49998 10.57 7.94998 10.75 8.40998 10.75H15.58C16.04 10.75 16.49 10.56 16.82 10.24L17.53 9.53C17.82 9.24 17.82 8.76 17.53 8.47C17.24 8.18 16.76 8.18 16.47 8.47Z" fill="black"/>
</svg>
