<svg width="24" height="24" viewBox="0 0 24 24" fill="none" xmlns="http://www.w3.org/2000/svg">
<path d="M13 9.75H11C10.3096 9.75 9.75 10.3096 9.75 11V13C9.75 13.6904 10.3096 14.25 11 14.25H13C13.6904 14.25 14.25 13.6904 14.25 13V11C14.25 10.3096 13.6904 9.75 13 9.75Z" fill="black"/>
<path d="M17 2.25H7C4.38 2.25 2.25 4.38 2.25 7V17C2.25 19.62 4.38 21.75 7 21.75H17C19.62 21.75 21.75 19.62 21.75 17V7C21.75 4.38 19.62 2.25 17 2.25ZM6.02 15.75C5.61 15.75 5.27 15.41 5.27 15C5.27 14.59 5.6 14.25 6.01 14.25H6.02C6.43 14.25 6.77 14.59 6.77 15C6.77 15.41 6.43 15.75 6.02 15.75ZM6.02 9.75C5.61 9.75 5.27 9.41 5.27 9C5.27 8.59 5.6 8.25 6.01 8.25H6.02C6.43 8.25 6.77 8.59 6.77 9C6.77 9.41 6.43 9.75 6.02 9.75ZM9.01 5.25H9.02C9.43 5.25 9.77 5.59 9.77 6C9.77 6.41 9.43 6.75 9.02 6.75C8.61 6.75 8.27 6.41 8.27 6C8.27 5.59 8.6 5.25 9.01 5.25ZM9.02 18.75C8.61 18.75 8.27 18.41 8.27 18C8.27 17.59 8.6 17.25 9.01 17.25H9.02C9.43 17.25 9.77 17.59 9.77 18C9.77 18.41 9.43 18.75 9.02 18.75ZM11 15.75C9.48 15.75 8.25 14.52 8.25 13V11C8.25 9.48 9.48 8.25 11 8.25H13C14.52 8.25 15.75 9.48 15.75 11V13C15.75 14.52 14.52 15.75 13 15.75H11ZM15.02 18.75C14.61 18.75 14.27 18.41 14.27 18C14.27 17.59 14.6 17.25 15.01 17.25H15.02C15.43 17.25 15.77 17.59 15.77 18C15.77 18.41 15.43 18.75 15.02 18.75ZM15.02 6.75C14.61 6.75 14.27 6.41 14.27 6C14.27 5.59 14.6 5.25 15.01 5.25H15.02C15.43 5.25 15.77 5.59 15.77 6C15.77 6.41 15.43 6.75 15.02 6.75ZM18.02 15.75C17.61 15.75 17.27 15.41 17.27 15C17.27 14.59 17.6 14.25 18.01 14.25H18.02C18.43 14.25 18.77 14.59 18.77 15C18.77 15.41 18.43 15.75 18.02 15.75ZM18.02 9.75C17.61 9.75 17.27 9.41 17.27 9C17.27 8.59 17.6 8.25 18.01 8.25H18.02C18.43 8.25 18.77 8.59 18.77 9C18.77 9.41 18.43 9.75 18.02 9.75Z" fill="black"/>
</svg>
