<svg width="24" height="24" viewBox="0 0 24 24" fill="none" xmlns="http://www.w3.org/2000/svg">
<path d="M19 11.75C20.52 11.75 21.75 10.52 21.75 9V7C21.75 5.48 20.52 4.25 19 4.25H5C3.48 4.25 2.25 5.48 2.25 7V9C2.25 10.52 3.48 11.75 5 11.75H5.25V13.25H5C3.48 13.25 2.25 14.48 2.25 16V18C2.25 19.52 3.48 20.75 5 20.75H19C20.52 20.75 21.75 19.52 21.75 18V16C21.75 14.48 20.52 13.25 19 13.25H18.75V11.75H19ZM3.75 9V7C3.75 6.31 4.31 5.75 5 5.75H19C19.69 5.75 20.25 6.31 20.25 7V9C20.25 9.69 19.69 10.25 19 10.25H5C4.31 10.25 3.75 9.69 3.75 9ZM20.25 16V18C20.25 18.69 19.69 19.25 19 19.25H5C4.31 19.25 3.75 18.69 3.75 18V16C3.75 15.31 4.31 14.75 5 14.75H19C19.69 14.75 20.25 15.31 20.25 16ZM17.25 13.25H6.75V11.75H17.25V13.25Z" fill="black"/>
<path d="M15 8.75H18C18.41 8.75 18.75 8.41 18.75 8C18.75 7.59 18.41 7.25 18 7.25H15C14.59 7.25 14.25 7.59 14.25 8C14.25 8.41 14.59 8.75 15 8.75Z" fill="black"/>
<path d="M6.77 8C6.77 7.59 6.44 7.25 6.02 7.25C5.61 7.25 5.27 7.59 5.27 8C5.27 8.41 5.61 8.75 6.02 8.75C6.43 8.75 6.77 8.41 6.77 8Z" fill="black"/>
<path d="M9.02 8.75C9.44 8.75 9.77 8.41 9.77 8C9.77 7.59 9.44 7.25 9.02 7.25C8.61 7.25 8.27 7.59 8.27 8C8.27 8.41 8.61 8.75 9.02 8.75Z" fill="black"/>
<path d="M15 16.25C14.59 16.25 14.25 16.59 14.25 17C14.25 17.41 14.59 17.75 15 17.75H18C18.41 17.75 18.75 17.41 18.75 17C18.75 16.59 18.41 16.25 18 16.25H15Z" fill="black"/>
<path d="M6.02 16.25C5.61 16.25 5.27 16.59 5.27 17C5.27 17.41 5.61 17.75 6.02 17.75C6.43 17.75 6.77 17.41 6.77 17C6.77 16.59 6.44 16.25 6.02 16.25Z" fill="black"/>
<path d="M9.02 16.25C8.61 16.25 8.27 16.59 8.27 17C8.27 17.41 8.61 17.75 9.02 17.75C9.43 17.75 9.77 17.41 9.77 17C9.77 16.59 9.44 16.25 9.02 16.25Z" fill="black"/>
</svg>
