<svg width="24" height="24" viewBox="0 0 24 24" fill="none" xmlns="http://www.w3.org/2000/svg">
<path d="M17 2.25H7C5.48 2.25 4.25 3.48 4.25 5V19C4.25 20.52 5.48 21.75 7 21.75H17C18.52 21.75 19.75 20.52 19.75 19V5C19.75 3.48 18.52 2.25 17 2.25ZM18.25 19C18.25 19.69 17.69 20.25 17 20.25H7C6.31 20.25 5.75 19.69 5.75 19V5C5.75 4.31 6.31 3.75 7 3.75H17C17.69 3.75 18.25 4.31 18.25 5V19Z" fill="black"/>
<path d="M15 5.25H9C8.04 5.25 7.25 6.04 7.25 7V10C7.25 10.96 8.04 11.75 9 11.75H15C15.96 11.75 16.75 10.96 16.75 10V7C16.75 6.04 15.96 5.25 15 5.25ZM15.25 10C15.25 10.14 15.14 10.25 15 10.25H9C8.86 10.25 8.75 10.14 8.75 10V7C8.75 6.86 8.86 6.75 9 6.75H15C15.14 6.75 15.25 6.86 15.25 7V10Z" fill="black"/>
<path d="M12 13.25C10.48 13.25 9.25 14.48 9.25 16C9.25 17.52 10.48 18.75 12 18.75C13.52 18.75 14.75 17.52 14.75 16C14.75 14.48 13.52 13.25 12 13.25ZM12 17.25C11.31 17.25 10.75 16.69 10.75 16C10.75 15.31 11.31 14.75 12 14.75C12.69 14.75 13.25 15.31 13.25 16C13.25 16.69 12.69 17.25 12 17.25Z" fill="black"/>
</svg>
