<svg width="24" height="24" viewBox="0 0 24 24" fill="none" xmlns="http://www.w3.org/2000/svg">
<path d="M12 2.25C6.62 2.25 2.25 6.62 2.25 12C2.25 17.38 6.62 21.75 12 21.75C17.38 21.75 21.75 17.38 21.75 12C21.75 6.62 17.38 2.25 12 2.25ZM6.75 12C6.75 12.41 6.41 12.75 6 12.75C5.59 12.75 5.25 12.41 5.25 12C5.25 8.28 8.28 5.25 12 5.25C12.41 5.25 12.75 5.59 12.75 6C12.75 6.41 12.41 6.75 12 6.75C9.1 6.75 6.75 9.11 6.75 12ZM12 14.75C10.48 14.75 9.25 13.52 9.25 12C9.25 10.48 10.48 9.25 12 9.25C13.52 9.25 14.75 10.48 14.75 12C14.75 13.52 13.52 14.75 12 14.75ZM16.5 17.03C16.36 17.16 16.18 17.22 16 17.22C15.79 17.22 15.59 17.14 15.44 16.97C15.16 16.66 15.19 16.19 15.5 15.91C16.61 14.91 17.25 13.49 17.25 12C17.25 11.59 17.59 11.25 18 11.25C18.41 11.25 18.75 11.59 18.75 12C18.75 13.92 17.93 15.75 16.5 17.03Z" fill="black"/>
<path d="M12 13.25C12.6904 13.25 13.25 12.6904 13.25 12C13.25 11.3096 12.6904 10.75 12 10.75C11.3096 10.75 10.75 11.3096 10.75 12C10.75 12.6904 11.3096 13.25 12 13.25Z" fill="black"/>
</svg>
