<svg width="24" height="24" viewBox="0 0 24 24" fill="none" xmlns="http://www.w3.org/2000/svg">
<path d="M21.02 8.97C20.57 8.64 19.98 8.55 19.44 8.73L18.05 9.19C17.55 8.62 16.82 8.25 16 8.25H8C7.18 8.25 6.45 8.62 5.95 9.19L4.56 8.73C4.03 8.55 3.44 8.64 2.98 8.97C2.52 9.3 2.25 9.83 2.25 10.39V12.28C2.25 13.03 2.73 13.7 3.45 13.94L5.31 14.56C5.57 15.81 6.68 16.75 8 16.75H9.38C10.05 16.75 10.65 16.38 10.95 15.78L11.4 14.89C11.44 14.81 11.53 14.75 11.62 14.75H12.38C12.48 14.75 12.56 14.8 12.6 14.89L13.05 15.78C13.35 16.38 13.95 16.75 14.62 16.75H16C17.32 16.75 18.43 15.81 18.69 14.56L20.55 13.94C21.26 13.7 21.75 13.03 21.75 12.28V10.39C21.75 9.83 21.48 9.3 21.02 8.97ZM3.75 12.28V10.39C3.75 10.28 3.82 10.22 3.85 10.19C3.89 10.16 3.97 10.12 4.08 10.16L5.3 10.57C5.28 10.72 5.26 10.86 5.26 11.01V12.97L3.93 12.53C3.83 12.5 3.76 12.4 3.76 12.29L3.75 12.28ZM17.25 14C17.25 14.69 16.69 15.25 16 15.25H14.62C14.52 15.25 14.44 15.2 14.4 15.11L13.95 14.22C13.65 13.62 13.05 13.25 12.38 13.25H11.62C10.95 13.25 10.35 13.62 10.05 14.22L9.6 15.11C9.56 15.19 9.47 15.25 9.38 15.25H8C7.31 15.25 6.75 14.69 6.75 14V11C6.75 10.31 7.31 9.75 8 9.75H16C16.69 9.75 17.25 10.31 17.25 11V14ZM20.25 12.28C20.25 12.39 20.18 12.48 20.08 12.52L18.75 12.96V11C18.75 10.85 18.73 10.7 18.71 10.56L19.93 10.15C20.04 10.11 20.12 10.15 20.16 10.18C20.2 10.21 20.26 10.27 20.26 10.38V12.27L20.25 12.28Z" fill="black"/>
</svg>
