<svg width="24" height="24" viewBox="0 0 24 24" fill="none" xmlns="http://www.w3.org/2000/svg">
<path d="M16 6.75H8C7.30964 6.75 6.75 7.30964 6.75 8V11C6.75 11.6904 7.30964 12.25 8 12.25H16C16.6904 12.25 17.25 11.6904 17.25 11V8C17.25 7.30964 16.6904 6.75 16 6.75Z" fill="black"/>
<path d="M8.5 18.5C8.91421 18.5 9.25 18.1642 9.25 17.75C9.25 17.3358 8.91421 17 8.5 17C8.08579 17 7.75 17.3358 7.75 17.75C7.75 18.1642 8.08579 18.5 8.5 18.5Z" fill="black"/>
<path d="M15.5 18.5C15.9142 18.5 16.25 18.1642 16.25 17.75C16.25 17.3358 15.9142 17 15.5 17C15.0858 17 14.75 17.3358 14.75 17.75C14.75 18.1642 15.0858 18.5 15.5 18.5Z" fill="black"/>
<path d="M17 2.25H7C4.38 2.25 2.25 4.38 2.25 7V17C2.25 19.62 4.38 21.75 7 21.75H17C19.62 21.75 21.75 19.62 21.75 17V7C21.75 4.38 19.62 2.25 17 2.25ZM8.5 20C7.26 20 6.25 18.99 6.25 17.75C6.25 16.51 7.26 15.5 8.5 15.5C9.74 15.5 10.75 16.51 10.75 17.75C10.75 18.99 9.74 20 8.5 20ZM15.5 20C14.26 20 13.25 18.99 13.25 17.75C13.25 16.51 14.26 15.5 15.5 15.5C16.74 15.5 17.75 16.51 17.75 17.75C17.75 18.99 16.74 20 15.5 20ZM18.75 11C18.75 12.52 17.52 13.75 16 13.75H8C6.48 13.75 5.25 12.52 5.25 11V8C5.25 6.48 6.48 5.25 8 5.25H16C17.52 5.25 18.75 6.48 18.75 8V11Z" fill="black"/>
</svg>
