<svg width="24" height="24" viewBox="0 0 24 24" fill="none" xmlns="http://www.w3.org/2000/svg">
<path d="M17 6.25H16.75V4C16.75 3.04 15.96 2.25 15 2.25H9C8.04 2.25 7.25 3.04 7.25 4V6.25H7C4.93 6.25 3.25 7.93 3.25 10V13C3.25 15.07 4.93 16.75 7 16.75H7.25V19C7.25 19.96 8.04 20.75 9 20.75H15C15.96 20.75 16.75 19.96 16.75 19V16.75H17C19.07 16.75 20.75 15.07 20.75 13V10C20.75 7.93 19.07 6.25 17 6.25ZM8.75 4C8.75 3.86 8.86 3.75 9 3.75H15C15.14 3.75 15.25 3.86 15.25 4V6.25H8.75V4ZM15.25 19C15.25 19.14 15.14 19.25 15 19.25H9C8.86 19.25 8.75 19.14 8.75 19V13.75H15.25V19ZM19.25 13C19.25 14.24 18.24 15.25 17 15.25H16.75V13.75H17C17.41 13.75 17.75 13.41 17.75 13C17.75 12.59 17.41 12.25 17 12.25H7C6.59 12.25 6.25 12.59 6.25 13C6.25 13.41 6.59 13.75 7 13.75H7.25V15.25H7C5.76 15.25 4.75 14.24 4.75 13V10C4.75 8.76 5.76 7.75 7 7.75H17C18.24 7.75 19.25 8.76 19.25 10V13Z" fill="black"/>
<path d="M17.02 9.25C16.61 9.25 16.27 9.59 16.27 10C16.27 10.41 16.61 10.75 17.02 10.75C17.43 10.75 17.77 10.41 17.77 10C17.77 9.59 17.44 9.25 17.02 9.25Z" fill="black"/>
</svg>
