<svg width="24" height="24" viewBox="0 0 24 24" fill="none" xmlns="http://www.w3.org/2000/svg">
<path d="M9.75 5.56982V16.2098L13.99 18.3298C14.07 18.3698 14.16 18.3898 14.25 18.4198V7.78982L10.01 5.66982C9.93 5.62982 9.84 5.60982 9.75 5.57982V5.56982Z" fill="black"/>
<path d="M3.49 7.91982C2.72 8.29982 2.25 9.07982 2.25 9.92982V15.5798C2.25 16.3698 2.65 17.0798 3.32 17.4898C3.99 17.8998 4.81 17.9398 5.51 17.5898L8.25 16.2198V5.56982C8.16 5.59982 8.08 5.61982 7.99 5.65982L3.49 7.91982Z" fill="black"/>
<path d="M20.68 6.50982C20.01 6.08982 19.19 6.05982 18.49 6.40982L15.75 7.77982V18.4198C15.84 18.3898 15.92 18.3698 16.01 18.3298L20.51 16.0798C21.28 15.6998 21.75 14.9198 21.75 14.0698V8.41982C21.75 7.62982 21.35 6.91982 20.68 6.50982Z" fill="black"/>
</svg>
