<svg width="24" height="24" viewBox="0 0 24 24" fill="none" xmlns="http://www.w3.org/2000/svg">
<path d="M21.6999 15.96L19.1099 5.99003C18.8699 5.06003 17.9099 4.50003 16.9799 4.74003L8.00993 7.07003C7.55993 7.19003 7.17993 7.47003 6.93993 7.88003C6.69993 8.28003 6.63993 8.75003 6.75993 9.21003L9.34993 19.18C9.46993 19.63 9.74993 20.01 10.1599 20.25C10.4299 20.41 10.7399 20.49 11.0399 20.49C11.1899 20.49 11.3399 20.47 11.4799 20.43L20.4599 18.1C21.3899 17.86 21.9599 16.9 21.7099 15.97L21.6999 15.96ZM15.1899 15.15L12.4299 15.87C12.3699 15.89 12.2999 15.89 12.2399 15.89C11.9099 15.89 11.5999 15.67 11.5199 15.33C11.4199 14.93 11.6599 14.52 12.0599 14.42L14.8199 13.7C15.2199 13.6 15.6299 13.84 15.7299 14.24C15.8299 14.64 15.5899 15.05 15.1899 15.15ZM16.4499 10.98L11.4899 12.27C11.4299 12.29 11.3599 12.29 11.2999 12.29C10.9699 12.29 10.6599 12.07 10.5799 11.73C10.4799 11.33 10.7199 10.92 11.1199 10.82L16.0799 9.53003C16.4799 9.43003 16.8899 9.67003 16.9899 10.07C17.0899 10.47 16.8499 10.88 16.4499 10.98Z" fill="black"/>
<path d="M5.63993 7.12003C6.07993 6.37003 6.78993 5.84003 7.62993 5.62003L10.9199 4.77003L6.79993 3.69003C5.83993 3.44003 4.87993 4.02003 4.63993 4.96003L2.30993 13.89C2.18993 14.35 2.25993 14.83 2.49993 15.24C2.73993 15.65 3.12993 15.94 3.57993 16.06L7.21993 17.01L5.28993 9.59003C5.06993 8.75003 5.18993 7.88003 5.62993 7.13003L5.63993 7.12003Z" fill="black"/>
</svg>
