<svg width="24" height="24" viewBox="0 0 24 24" fill="none" xmlns="http://www.w3.org/2000/svg">
<path d="M15.63 8.34983C15.99 8.13983 16.45 8.26983 16.65 8.62983C16.86 8.98983 16.73 9.44983 16.37 9.64983C13.31 11.4098 10.69 13.6998 8.59 16.4498C8.49 16.5798 8.41 16.7098 8.31 16.8298C8.95 16.9598 9.82 17.0798 10.84 17.0798C12.47 17.0798 14.45 16.7598 16.37 15.6298C16.6 15.4998 16.74 15.2498 16.74 14.9798V13.6698L18.63 13.5198C18.83 13.4998 19.02 13.4098 19.15 13.2498C21.44 10.4898 22.38 6.69983 21.73 2.84983C21.67 2.49983 21.38 2.23983 21.03 2.22983C18.6 2.10983 16.21 2.46983 14.1 3.27983C13.92 3.34983 13.77 3.48983 13.69 3.66983L12.65 5.93983L11.35 5.22983C11.09 5.08983 10.76 5.10983 10.52 5.29983C9 6.51983 7.88 8.04983 7.28 9.71983C6.62 11.5698 6.59 13.6698 7.17 15.8198C7.24 15.7198 7.31 15.6098 7.39 15.5198C9.61 12.6098 12.37 10.1898 15.61 8.31983L15.63 8.34983Z" fill="black"/>
<path d="M19 20.2498H6.19C6.8 19.0398 7.42 18.0098 8.32 16.8398L7.18 15.8498C5.97 17.4398 5.15 18.8598 4.31 20.6898C4.29 20.7498 4.29 20.7998 4.28 20.8398C4.27 20.8898 4.25 20.9398 4.25 20.9898C4.25 20.9898 4.27 21.0698 4.27 21.0998C4.27 21.1598 4.28 21.2198 4.3 21.2698C4.32 21.3098 4.35 21.3498 4.37 21.3898C4.4 21.4298 4.42 21.4798 4.45 21.5098C4.49 21.5498 4.54 21.5798 4.59 21.6098C4.62 21.6298 4.64 21.6598 4.68 21.6698H4.69C4.78 21.7098 4.88 21.7398 4.99 21.7398H19C19.41 21.7398 19.75 21.4098 19.75 20.9898C19.75 20.5698 19.41 20.2398 19 20.2398V20.2498Z" fill="black"/>
</svg>
