<svg width="24" height="24" viewBox="0 0 24 24" fill="none" xmlns="http://www.w3.org/2000/svg">
<path d="M20 13.25H17.5C16.26 13.25 15.25 14.26 15.25 15.5C15.25 15.91 14.91 16.25 14.5 16.25H9.5C9.09 16.25 8.75 15.91 8.75 15.5C8.75 14.26 7.74 13.25 6.5 13.25H4C3.04 13.25 2.25 14.04 2.25 15V19C2.25 20.52 3.48 21.75 5 21.75H19C20.52 21.75 21.75 20.52 21.75 19V15C21.75 14.04 20.96 13.25 20 13.25Z" fill="black"/>
<path d="M10.17 14.75H13.82C14.17 13.04 15.68 11.75 17.49 11.75H19.74V4C19.74 3.04 18.95 2.25 17.99 2.25H6C5.04 2.25 4.25 3.04 4.25 4V11.75H6.5C8.31 11.75 9.83 13.04 10.17 14.75ZM9 5.25H15C15.41 5.25 15.75 5.59 15.75 6C15.75 6.41 15.41 6.75 15 6.75H9C8.59 6.75 8.25 6.41 8.25 6C8.25 5.59 8.59 5.25 9 5.25ZM9 9.25H12C12.41 9.25 12.75 9.59 12.75 10C12.75 10.41 12.41 10.75 12 10.75H9C8.59 10.75 8.25 10.41 8.25 10C8.25 9.59 8.59 9.25 9 9.25Z" fill="black"/>
</svg>
