<svg width="24" height="24" viewBox="0 0 24 24" fill="none" xmlns="http://www.w3.org/2000/svg">
<path d="M19 4.25H6C3.93 4.25 2.25 5.93 2.25 8V16C2.25 18.07 3.93 19.75 6 19.75H19C19.41 19.75 19.75 19.41 19.75 19C19.75 18.59 19.41 18.25 19 18.25C18.91 18.25 18.46 18.23 18.11 17.88C17.77 17.54 17.75 17.12 17.75 17V7C17.75 6.31 18.31 5.75 19 5.75C19.69 5.75 20.25 6.31 20.25 7V10C20.25 10.41 20.59 10.75 21 10.75C21.41 10.75 21.75 10.41 21.75 10V7C21.75 5.48 20.52 4.25 19 4.25ZM10 15.75H6C5.59 15.75 5.25 15.41 5.25 15C5.25 14.59 5.59 14.25 6 14.25H10C10.41 14.25 10.75 14.59 10.75 15C10.75 15.41 10.41 15.75 10 15.75ZM14.75 11.5C14.75 12.19 14.19 12.75 13.5 12.75H6.5C5.81 12.75 5.25 12.19 5.25 11.5V9.5C5.25 8.81 5.81 8.25 6.5 8.25H13.5C14.19 8.25 14.75 8.81 14.75 9.5V11.5Z" fill="black"/>
<path d="M13.25 9.75H6.75V11.25H13.25V9.75Z" fill="black"/>
<path d="M20 13.25H19.25V16.76C20.25 16.87 21.04 17.64 21.21 18.61C21.54 18.16 21.75 17.6 21.75 16.99V14.99C21.75 14.03 20.96 13.24 20 13.24V13.25Z" fill="black"/>
</svg>
