<svg width="24" height="24" viewBox="0 0 24 24" fill="none" xmlns="http://www.w3.org/2000/svg">
<path d="M19 7.25H12.07C11.65 7.25 11.26 7.04 11.03 6.69L10.22 5.47C9.71 4.7 8.85 4.25 7.93 4.25H5C3.48 4.25 2.25 5.48 2.25 7V18C2.25 19.52 3.48 20.75 5 20.75H19C20.52 20.75 21.75 19.52 21.75 18V10C21.75 8.48 20.52 7.25 19 7.25ZM14.53 14.53L12.53 16.53C12.46 16.6 12.38 16.65 12.29 16.69C12.2 16.73 12.1 16.75 12 16.75C11.9 16.75 11.81 16.73 11.71 16.69C11.62 16.65 11.54 16.6 11.47 16.53L9.47 14.53C9.18 14.24 9.18 13.76 9.47 13.47C9.76 13.18 10.24 13.18 10.53 13.47L11.25 14.19V12C11.25 11.59 11.59 11.25 12 11.25C12.41 11.25 12.75 11.59 12.75 12V14.19L13.47 13.47C13.76 13.18 14.24 13.18 14.53 13.47C14.82 13.76 14.82 14.24 14.53 14.53Z" fill="black"/>
</svg>
