<svg width="24" height="24" viewBox="0 0 24 24" fill="none" xmlns="http://www.w3.org/2000/svg">
<path d="M18 3.25H6C3.93 3.25 2.25 4.93 2.25 7V17C2.25 19.07 3.93 20.75 6 20.75H18C20.07 20.75 21.75 19.07 21.75 17V7C21.75 4.93 20.07 3.25 18 3.25ZM6 4.75H18C19.24 4.75 20.25 5.76 20.25 7V7.25H3.75V7C3.75 5.76 4.76 4.75 6 4.75ZM18 19.25H6C4.76 19.25 3.75 18.24 3.75 17V8.75H20.25V17C20.25 18.24 19.24 19.25 18 19.25Z" fill="black"/>
<path d="M15.29 11.95C14.99 11.54 14.52 11.29 14.02 11.25C13.52 11.21 13.02 11.4 12.67 11.75L11.46 12.92L11.24 12.65C10.56 11.97 9.45 11.97 8.71 12.71L6.71 15.23C6.45 15.55 6.51 16.03 6.83 16.28C7.15 16.53 7.63 16.48 7.88 16.16L9.82 13.7C9.92 13.6 10.08 13.6 10.12 13.64L12.41 16.46C12.56 16.64 12.77 16.74 12.99 16.74C13.16 16.74 13.32 16.68 13.46 16.57C13.78 16.31 13.83 15.84 13.57 15.51L12.39 14.07L13.7 12.81C13.77 12.74 13.85 12.74 13.9 12.74C13.94 12.74 14.02 12.76 14.05 12.79L16.1 16.05C16.24 16.28 16.49 16.4 16.74 16.4C16.88 16.4 17.01 16.36 17.14 16.28C17.49 16.06 17.6 15.6 17.38 15.25L15.29 11.94V11.95Z" fill="black"/>
<path d="M17.02 6.75C17.44 6.75 17.77 6.41 17.77 6C17.77 5.59 17.44 5.25 17.02 5.25C16.61 5.25 16.27 5.59 16.27 6C16.27 6.41 16.61 6.75 17.02 6.75Z" fill="black"/>
</svg>
