<svg width="24" height="24" viewBox="0 0 24 24" fill="none" xmlns="http://www.w3.org/2000/svg">
<path d="M18 2.25H10.75V21.75H18C19.52 21.75 20.75 20.52 20.75 19V5C20.75 3.48 19.52 2.25 18 2.25ZM17 7.75H13C12.59 7.75 12.25 7.41 12.25 7C12.25 6.59 12.59 6.25 13 6.25H17C17.41 6.25 17.75 6.59 17.75 7C17.75 7.41 17.41 7.75 17 7.75Z" fill="black"/>
<path d="M4.25 5V6.25H6C6.41 6.25 6.75 6.59 6.75 7C6.75 7.41 6.41 7.75 6 7.75H4.25V11.25H6C6.41 11.25 6.75 11.59 6.75 12C6.75 12.41 6.41 12.75 6 12.75H4.25V16.25H6C6.41 16.25 6.75 16.59 6.75 17C6.75 17.41 6.41 17.75 6 17.75H4.25V19C4.25 20.52 5.48 21.75 7 21.75H9.25V2.25H7C5.48 2.25 4.25 3.48 4.25 5Z" fill="black"/>
</svg>
