<svg width="24" height="24" viewBox="0 0 24 24" fill="none" xmlns="http://www.w3.org/2000/svg">
<path d="M19.5 10.25H17.5C16.26 10.25 15.25 11.26 15.25 12.5C15.25 13.74 16.26 14.75 17.5 14.75H19.5C20.19 14.75 20.75 14.19 20.75 13.5V11.5C20.75 10.81 20.19 10.25 19.5 10.25Z" fill="black"/>
<path d="M17.5 16.25C15.43 16.25 13.75 14.57 13.75 12.5C13.75 10.43 15.43 8.75 17.5 8.75H19.5C19.59 8.75 19.67 8.77 19.75 8.78V5C19.75 3.48 18.52 2.25 17 2.25H7C5.48 2.25 4.25 3.48 4.25 5V19C4.25 20.52 5.48 21.75 7 21.75H17C18.52 21.75 19.75 20.52 19.75 19V16.22C19.67 16.22 19.59 16.25 19.5 16.25H17.5ZM9.25 8C9.25 7.59 9.59 7.25 10 7.25H14C14.41 7.25 14.75 7.59 14.75 8C14.75 8.41 14.41 8.75 14 8.75H10C9.59 8.75 9.25 8.41 9.25 8Z" fill="black"/>
</svg>
