<svg width="24" height="24" viewBox="0 0 24 24" fill="none" xmlns="http://www.w3.org/2000/svg">
<path d="M21.44 5.55008C20.84 5.12008 18.67 3.77008 15.83 4.43008C13.93 4.87008 12.7 5.99008 12 6.86008C11.3 5.99008 10.07 4.87008 8.17 4.43008C5.33 3.77008 3.16 5.12008 2.56 5.55008C2.36 5.69008 2.25 5.92008 2.25 6.16008V17.1601C2.25 17.4001 2.37 17.6301 2.57 17.7701C2.77 17.9101 3.02 17.9401 3.26 17.8601C4.31 17.4801 6.43 16.9701 8.74 17.8601C9.77 18.2501 10.68 18.8701 11.47 19.6801C11.47 19.6801 11.49 19.6901 11.5 19.7001C11.56 19.7501 11.62 19.8001 11.69 19.8301C11.7 19.8301 11.71 19.8401 11.72 19.8501C11.81 19.8901 11.91 19.9101 12 19.9101C12.09 19.9101 12.19 19.8901 12.28 19.8601C12.28 19.8601 12.3 19.8401 12.31 19.8401C12.38 19.8101 12.45 19.7601 12.5 19.7101C12.5 19.7101 12.52 19.7001 12.53 19.6901C13.31 18.8801 14.23 18.2601 15.26 17.8701C17.57 16.9901 19.68 17.4901 20.74 17.8701C20.97 17.9501 21.23 17.9201 21.43 17.7801C21.63 17.6401 21.75 17.4101 21.75 17.1701V6.16008C21.75 5.92008 21.63 5.69008 21.44 5.55008ZM6.06 15.8701C5.18 15.8701 4.4 15.9901 3.75 16.1501V6.56008C4.42 6.16008 5.96 5.45008 7.83 5.88008C9.8 6.34008 10.86 7.73008 11.25 8.35008V17.5101C10.64 17.0701 9.97 16.7201 9.27 16.4501C8.14 16.0101 7.04 15.8601 6.06 15.8601V15.8701ZM20.25 16.1501C18.88 15.8201 16.88 15.6301 14.73 16.4601C14.02 16.7301 13.36 17.0901 12.75 17.5201V8.36008C13.14 7.74008 14.2 6.34008 16.17 5.89008C18.04 5.46008 19.58 6.17008 20.25 6.57008V16.1501Z" fill="black"/>
</svg>
