<svg width="24" height="24" viewBox="0 0 24 24" fill="none" xmlns="http://www.w3.org/2000/svg">
<path d="M20.5 15.25H11.71C11.32 15.25 10.95 15.43 10.71 15.74C10.47 16.05 10.4 16.44 10.5 16.82C10.63 17.3 10.71 18 10.35 18.62C10.18 18.92 9.93 19.16 9.61 19.35C9.32 19.52 9.18 19.87 9.27 20.19C9.36 20.52 9.66 20.74 9.99 20.74H18.99C20.51 20.74 21.74 19.51 21.74 17.99V16.49C21.74 15.8 21.18 15.24 20.49 15.24L20.5 15.25Z" fill="black"/>
<path d="M9.53 14.83C10.05 14.15 10.85 13.75 11.72 13.75H19.76V6C19.76 4.48 18.53 3.25 17.01 3.25H5C3.48 3.25 2.25 4.48 2.25 6V10C2.25 10.41 2.59 10.75 3 10.75C3.41 10.75 3.75 10.41 3.75 10V6C3.75 5.31 4.31 4.75 5 4.75C5.69 4.75 6.25 5.31 6.25 6V18C6.25 19.09 6.89 20.02 7.81 20.47C7.61 19.54 8.02 18.57 8.85 18.07C8.95 18.01 9.02 17.95 9.06 17.87C9.17 17.68 9.1 17.35 9.06 17.22C8.83 16.38 9 15.51 9.53 14.83Z" fill="black"/>
</svg>
