<svg width="24" height="24" viewBox="0 0 24 24" fill="none" xmlns="http://www.w3.org/2000/svg">
<path d="M19 3.25H10C8.48 3.25 7.25 4.48 7.25 6V7.25H5C3.48 7.25 2.25 8.48 2.25 10V19C2.25 20.52 3.48 21.75 5 21.75H14C15.52 21.75 16.75 20.52 16.75 19V10C16.75 8.48 15.52 7.25 14 7.25H8.75V6C8.75 5.31 9.31 4.75 10 4.75H19C19.69 4.75 20.25 5.31 20.25 6V17C20.25 17.41 20.59 17.75 21 17.75C21.41 17.75 21.75 17.41 21.75 17V6C21.75 4.48 20.52 3.25 19 3.25ZM15.25 10V19C15.25 19.69 14.69 20.25 14 20.25H5C4.31 20.25 3.75 19.69 3.75 19V10C3.75 9.31 4.31 8.75 5 8.75H14C14.69 8.75 15.25 9.31 15.25 10Z" fill="black"/>
<path d="M5.25 13C5.25 13.41 5.59 13.75 6 13.75H13C13.41 13.75 13.75 13.41 13.75 13C13.75 12.59 13.41 12.25 13 12.25H6C5.59 12.25 5.25 12.59 5.25 13Z" fill="black"/>
<path d="M10 16.25H6C5.59 16.25 5.25 16.59 5.25 17C5.25 17.41 5.59 17.75 6 17.75H10C10.41 17.75 10.75 17.41 10.75 17C10.75 16.59 10.41 16.25 10 16.25Z" fill="black"/>
</svg>
