<svg width="24" height="24" viewBox="0 0 24 24" fill="none" xmlns="http://www.w3.org/2000/svg">
<path d="M19.44 2.39006C19.24 2.25006 18.99 2.21006 18.76 2.29006L16.05 3.19006L14.33 2.33006C14.12 2.22006 13.87 2.22006 13.66 2.33006L12 3.16006L10.34 2.33006C10.13 2.22006 9.88 2.22006 9.67 2.33006L7.95 3.19006L5.24 2.29006C5.01 2.21006 4.76 2.25006 4.56 2.39006C4.36 2.53006 4.25 2.76006 4.25 3.00006V21.0001C4.25 21.2401 4.37 21.4701 4.56 21.6101C4.76 21.7501 5.01 21.7901 5.24 21.7101L7.95 20.8101L9.67 21.6701C9.88 21.7801 10.13 21.7801 10.34 21.6701L12 20.8401L13.66 21.6701C13.87 21.7801 14.12 21.7801 14.33 21.6701L16.05 20.8101L18.76 21.7101C18.84 21.7401 18.92 21.7501 19 21.7501C19.16 21.7501 19.31 21.7001 19.44 21.6101C19.64 21.4701 19.75 21.2401 19.75 21.0001V3.00006C19.75 2.76006 19.63 2.53006 19.44 2.39006ZM12 14.7501H8C7.59 14.7501 7.25 14.4101 7.25 14.0001C7.25 13.5901 7.59 13.2501 8 13.2501H12C12.41 13.2501 12.75 13.5901 12.75 14.0001C12.75 14.4101 12.41 14.7501 12 14.7501ZM16 10.7501H8C7.59 10.7501 7.25 10.4101 7.25 10.0001C7.25 9.59006 7.59 9.25006 8 9.25006H16C16.41 9.25006 16.75 9.59006 16.75 10.0001C16.75 10.4101 16.41 10.7501 16 10.7501Z" fill="black"/>
</svg>
