<svg width="24" height="24" viewBox="0 0 24 24" fill="none" xmlns="http://www.w3.org/2000/svg">
<path d="M20.5 15.25H19.75V6C19.75 4.48 18.52 3.25 17 3.25H5C3.48 3.25 2.25 4.48 2.25 6V10C2.25 10.41 2.59 10.75 3 10.75C3.41 10.75 3.75 10.41 3.75 10V6C3.75 5.31 4.31 4.75 5 4.75C5.69 4.75 6.25 5.31 6.25 6V18C6.25 19.52 7.48 20.75 9 20.75H19C20.52 20.75 21.75 19.52 21.75 18V16.5C21.75 15.81 21.19 15.25 20.5 15.25ZM7.75 18V6C7.75 5.55 7.63 5.13 7.44 4.75H17C17.69 4.75 18.25 5.31 18.25 6V15.25H11.71C11.32 15.25 10.95 15.43 10.71 15.74C10.47 16.05 10.4 16.44 10.5 16.82C10.63 17.3 10.71 18 10.35 18.62C10.21 18.87 10 19.07 9.75 19.25H9C8.31 19.25 7.75 18.69 7.75 18ZM20.25 18C20.25 18.69 19.69 19.25 19 19.25H11.72C12.19 18.36 12.17 17.45 12.03 16.75H20.25V18Z" fill="black"/>
</svg>
