<svg width="24" height="24" viewBox="0 0 24 24" fill="none" xmlns="http://www.w3.org/2000/svg">
<path d="M8 9.25C8.69036 9.25 9.25 8.69036 9.25 8C9.25 7.30964 8.69036 6.75 8 6.75C7.30964 6.75 6.75 7.30964 6.75 8C6.75 8.69036 7.30964 9.25 8 9.25Z" fill="black"/>
<path d="M17 2.25H7C4.38 2.25 2.25 4.38 2.25 7V17C2.25 19.62 4.38 21.75 7 21.75H17C19.62 21.75 21.75 19.62 21.75 17V7C21.75 4.38 19.62 2.25 17 2.25ZM8 18.75C6.48 18.75 5.25 17.52 5.25 16C5.25 14.48 6.48 13.25 8 13.25C9.52 13.25 10.75 14.48 10.75 16C10.75 17.52 9.52 18.75 8 18.75ZM8 10.75C6.48 10.75 5.25 9.52 5.25 8C5.25 6.48 6.48 5.25 8 5.25C9.52 5.25 10.75 6.48 10.75 8C10.75 9.52 9.52 10.75 8 10.75ZM18 16.75H13C12.59 16.75 12.25 16.41 12.25 16C12.25 15.59 12.59 15.25 13 15.25H18C18.41 15.25 18.75 15.59 18.75 16C18.75 16.41 18.41 16.75 18 16.75ZM18 8.75H13C12.59 8.75 12.25 8.41 12.25 8C12.25 7.59 12.59 7.25 13 7.25H18C18.41 7.25 18.75 7.59 18.75 8C18.75 8.41 18.41 8.75 18 8.75Z" fill="black"/>
<path d="M8 17.25C8.69036 17.25 9.25 16.6904 9.25 16C9.25 15.3096 8.69036 14.75 8 14.75C7.30964 14.75 6.75 15.3096 6.75 16C6.75 16.6904 7.30964 17.25 8 17.25Z" fill="black"/>
</svg>
