<svg width="24" height="24" viewBox="0 0 24 24" fill="none" xmlns="http://www.w3.org/2000/svg">
<path d="M19.75 9C19.75 8.92 19.73 8.84 19.7 8.76C19.59 7.95 19.23 7.17 18.65 6.59L15.41 3.35C14.83 2.77 14.05 2.41 13.24 2.3C13.16 2.27 13.09 2.25 13 2.25C12.97 2.25 12.95 2.26 12.92 2.27C12.87 2.27 12.81 2.25 12.76 2.25H8C5.93 2.25 4.25 3.93 4.25 6V18C4.25 20.07 5.93 21.75 8 21.75H16C18.07 21.75 19.75 20.07 19.75 18V9.24C19.75 9.19 19.74 9.13 19.73 9.08C19.73 9.05 19.75 9.03 19.75 9ZM17.59 7.65C17.76 7.82 17.9 8.03 18.01 8.25H15C14.31 8.25 13.75 7.69 13.75 7V3.99C13.97 4.1 14.17 4.23 14.35 4.41L17.59 7.65ZM16 20.25H8C6.76 20.25 5.75 19.24 5.75 18V6C5.75 4.76 6.76 3.75 8 3.75H12.25V7C12.25 8.52 13.48 9.75 15 9.75H18.25V18C18.25 19.24 17.24 20.25 16 20.25Z" fill="black"/>
<path d="M15.5 13.25H8.5C7.81 13.25 7.25 13.81 7.25 14.5V16.5C7.25 17.19 7.81 17.75 8.5 17.75H15.5C16.19 17.75 16.75 17.19 16.75 16.5V14.5C16.75 13.81 16.19 13.25 15.5 13.25ZM15.25 16.25H8.75V14.75H15.25V16.25Z" fill="black"/>
<path d="M8 11.75H10C10.41 11.75 10.75 11.41 10.75 11C10.75 10.59 10.41 10.25 10 10.25H8C7.59 10.25 7.25 10.59 7.25 11C7.25 11.41 7.59 11.75 8 11.75Z" fill="black"/>
<path d="M8 8.75H10C10.41 8.75 10.75 8.41 10.75 8C10.75 7.59 10.41 7.25 10 7.25H8C7.59 7.25 7.25 7.59 7.25 8C7.25 8.41 7.59 8.75 8 8.75Z" fill="black"/>
</svg>
