<svg width="24" height="24" viewBox="0 0 24 24" fill="none" xmlns="http://www.w3.org/2000/svg">
<path d="M19 20.2498H6.21C6.83 19.0598 7.54 17.9198 8.32 16.8398C8.96 16.9698 9.83 17.0898 10.85 17.0898C12.48 17.0898 14.46 16.7698 16.38 15.6398C16.61 15.5098 16.75 15.2598 16.75 14.9898V13.6798L18.64 13.5298C18.84 13.5098 19.03 13.4198 19.16 13.2598C21.45 10.4998 22.39 6.70984 21.74 2.85984C21.68 2.50984 21.39 2.24984 21.04 2.23984C18.61 2.11984 16.22 2.47984 14.11 3.28984C13.93 3.35984 13.78 3.49984 13.7 3.67984L12.66 5.94984L11.36 5.23984C11.1 5.09984 10.77 5.11984 10.53 5.30984C9.01 6.52984 7.89 8.05984 7.29 9.72984C6.63 11.5798 6.6 13.6798 7.18 15.8298C6.07 17.3298 5.1 18.9598 4.31 20.6698C4.29 20.7298 4.29 20.7798 4.28 20.8198C4.27 20.8698 4.25 20.9198 4.25 20.9698C4.25 20.9698 4.27 21.0498 4.27 21.0798C4.27 21.1398 4.28 21.1998 4.3 21.2498C4.32 21.2898 4.35 21.3298 4.37 21.3698C4.4 21.4098 4.42 21.4598 4.45 21.4898C4.49 21.5298 4.54 21.5598 4.59 21.5898C4.62 21.6098 4.64 21.6398 4.68 21.6498H4.69C4.78 21.6898 4.88 21.7198 4.99 21.7198H19C19.41 21.7198 19.75 21.3898 19.75 20.9698C19.75 20.5498 19.41 20.2198 19 20.2198V20.2498ZM8.71 10.2498C9.16 8.97984 9.98 7.79984 11.09 6.80984L12.64 7.64984C12.82 7.74984 13.04 7.76984 13.23 7.69984C13.43 7.62984 13.59 7.48984 13.68 7.29984L14.93 4.57984C16.59 3.98984 18.43 3.68984 20.35 3.70984C20.73 6.79984 19.96 9.78984 18.2 12.0498L15.94 12.2298C15.55 12.2598 15.25 12.5898 15.25 12.9798V14.5398C13.1 15.6698 10.89 15.6698 9.41 15.4798C11.36 13.1598 13.68 11.1798 16.38 9.62984C16.74 9.41984 16.86 8.95984 16.66 8.60984C16.45 8.24984 15.99 8.12984 15.64 8.32984C12.86 9.92984 10.44 11.9698 8.41 14.3498C8.22 13.1398 8.2 11.6898 8.72 10.2298L8.71 10.2498Z" fill="black"/>
</svg>
