<svg width="24" height="24" viewBox="0 0 24 24" fill="none" xmlns="http://www.w3.org/2000/svg">
<path d="M11.31 10.64C11.73 10.92 12.27 10.92 12.7 10.64L19.87 5.86001L20.25 5.57001C19.88 5.38001 19.46 5.26001 19.01 5.26001H5C4.56 5.26001 4.15 5.37001 3.79 5.56001L4.42 6.06001L11.31 10.65V10.64Z" fill="black"/>
<path d="M21.35 6.59001L20.74 7.06001L15.57 10.51L18.52 13.46C18.81 13.75 18.81 14.23 18.52 14.52C18.37 14.67 18.18 14.74 17.99 14.74C17.8 14.74 17.61 14.67 17.46 14.52L14.46 11.52C14.4 11.46 14.37 11.4 14.33 11.33L13.51 11.88C13.05 12.19 12.52 12.34 11.98 12.34C11.44 12.34 10.92 12.19 10.46 11.88L9.64 11.33C9.61 11.4 9.57 11.46 9.51 11.52L6.51 14.52C6.36 14.67 6.17 14.74 5.98 14.74C5.79 14.74 5.6 14.67 5.45 14.52C5.16 14.23 5.16 13.75 5.45 13.46L8.4 10.51L3.53 7.26001L2.66 6.57001C2.4 6.99001 2.25 7.48001 2.25 8.00001V15C2.25 16.52 3.48 17.75 5 17.75H19C20.52 17.75 21.75 16.52 21.75 15V8.00001C21.75 7.48001 21.6 7.01001 21.35 6.59001Z" fill="black"/>
</svg>
