<svg width="24" height="24" viewBox="0 0 24 24" fill="none" xmlns="http://www.w3.org/2000/svg">
<path d="M15.64 13.79C14.97 13.79 14.3 13.71 13.63 13.56L11.59 15.6C11.17 16.03 10.6 16.26 10 16.26C9.4 16.26 8.83 16.03 8.41 15.6C7.98 15.18 7.75 14.61 7.75 14.01C7.75 13.41 7.98 12.84 8.41 12.42L10.45 10.38C10.14 9.01002 10 7.01002 10.98 5.02002C11.11 4.76002 11.27 4.51002 11.43 4.27002H6C3.93 4.27002 2.25 5.95002 2.25 8.02002V18.02C2.25 20.09 3.93 21.77 6 21.77H16C18.07 21.77 19.75 20.09 19.75 18.02V12.6C19.51 12.76 19.26 12.91 19 13.03C17.97 13.54 16.84 13.8 15.64 13.8V13.79ZM15 18.75H7C6.59 18.75 6.25 18.41 6.25 18C6.25 17.59 6.59 17.25 7 17.25H15C15.41 17.25 15.75 17.59 15.75 18C15.75 18.41 15.41 18.75 15 18.75Z" fill="black"/>
<path d="M21.72 2.81002C21.65 2.55002 21.45 2.35002 21.19 2.28002C17.51 1.31002 13.78 2.73002 12.33 5.67002C11.34 7.67002 11.76 9.70002 12.13 10.81L15.47 7.47002C15.76 7.18002 16.24 7.18002 16.53 7.47002C16.82 7.76002 16.82 8.24002 16.53 8.53002L13.19 11.87C13.79 12.07 14.65 12.29 15.64 12.29C16.48 12.29 17.41 12.13 18.34 11.68C21.28 10.23 22.71 6.50002 21.73 2.82002L21.72 2.81002Z" fill="black"/>
<path d="M9.47 13.47C9.18 13.76 9.18 14.24 9.47 14.53C9.62 14.68 9.81 14.75 10 14.75C10.19 14.75 10.38 14.68 10.53 14.53L13.19 11.87L12.13 10.81L9.47 13.47Z" fill="black"/>
</svg>
