<svg width="24" height="24" viewBox="0 0 24 24" fill="none" xmlns="http://www.w3.org/2000/svg">
<path d="M18 2.25H6C3.93 2.25 2.25 3.93 2.25 6V18C2.25 20.07 3.93 21.75 6 21.75H14.76C15.76 21.75 16.7 21.36 17.41 20.65L20.65 17.41C21.36 16.7 21.75 15.76 21.75 14.76V6C21.75 3.93 20.07 2.25 18 2.25ZM3.75 18V6C3.75 4.76 4.76 3.75 6 3.75H18C19.24 3.75 20.25 4.76 20.25 6V14.3C20.17 14.27 20.09 14.25 20 14.25H17C15.48 14.25 14.25 15.48 14.25 17V20C14.25 20.09 14.27 20.17 14.3 20.25H6C4.76 20.25 3.75 19.24 3.75 18ZM16.35 19.59C16.17 19.77 15.97 19.9 15.75 20.01V17C15.75 16.31 16.31 15.75 17 15.75H20.01C19.9 15.97 19.77 16.17 19.59 16.35L16.35 19.59Z" fill="black"/>
<path d="M7 9.75H17C17.41 9.75 17.75 9.41 17.75 9C17.75 8.59 17.41 8.25 17 8.25H7C6.59 8.25 6.25 8.59 6.25 9C6.25 9.41 6.59 9.75 7 9.75Z" fill="black"/>
<path d="M12 14.25H7C6.59 14.25 6.25 14.59 6.25 15C6.25 15.41 6.59 15.75 7 15.75H12C12.41 15.75 12.75 15.41 12.75 15C12.75 14.59 12.41 14.25 12 14.25Z" fill="black"/>
</svg>
