<svg width="24" height="24" viewBox="0 0 24 24" fill="none" xmlns="http://www.w3.org/2000/svg">
<path d="M19 7.25H14.44C13.9 7.25 13.42 6.91 13.25 6.4L13.16 6.13C12.78 5.01 11.74 4.25 10.55 4.25H7.99C6.47 4.25 5.24 5.48 5.24 7V15C5.24 16.52 6.47 17.75 7.99 17.75H18.99C20.51 17.75 21.74 16.52 21.74 15V10C21.74 8.48 20.51 7.25 18.99 7.25H19Z" fill="black"/>
<path d="M18 19.25H6C4.76 19.25 3.75 18.24 3.75 17V8C3.75 7.59 3.41 7.25 3 7.25C2.59 7.25 2.25 7.59 2.25 8V17C2.25 19.07 3.93 20.75 6 20.75H18C18.41 20.75 18.75 20.41 18.75 20C18.75 19.59 18.41 19.25 18 19.25Z" fill="black"/>
</svg>
