<svg width="24" height="24" viewBox="0 0 24 24" fill="none" xmlns="http://www.w3.org/2000/svg">
<path d="M19.45 17.6C19.71 17.41 19.81 17.07 19.71 16.76C19.61 16.45 19.32 16.25 19 16.25H7C5.48 16.25 4.25 17.48 4.25 19C4.25 20.52 5.48 21.75 7 21.75H19C19.32 21.75 19.61 21.54 19.71 21.24C19.81 20.93 19.71 20.6 19.45 20.4C19.38 20.35 18.75 19.85 18.75 19C18.75 18.91 18.77 18.11 19.45 17.6Z" fill="black"/>
<path d="M17.5 2.25H6.5C5.26 2.25 4.25 3.26 4.25 4.5V15.79C4.99 15.15 5.95 14.75 7 14.75H19C19.26 14.75 19.51 14.8 19.75 14.88V4.5C19.75 3.26 18.74 2.25 17.5 2.25ZM15 12.75H9C8.59 12.75 8.25 12.41 8.25 12C8.25 11.59 8.59 11.25 9 11.25H15C15.41 11.25 15.75 11.59 15.75 12C15.75 12.41 15.41 12.75 15 12.75ZM15 8.75H9C8.59 8.75 8.25 8.41 8.25 8C8.25 7.59 8.59 7.25 9 7.25H15C15.41 7.25 15.75 7.59 15.75 8C15.75 8.41 15.41 8.75 15 8.75Z" fill="black"/>
</svg>
