<svg width="24" height="24" viewBox="0 0 24 24" fill="none" xmlns="http://www.w3.org/2000/svg">
<path d="M16 8.75C15.04 8.75 14.25 7.96 14.25 7V2.25H11C9.48 2.25 8.25 3.48 8.25 5V15C8.25 16.52 9.48 17.75 11 17.75H18C19.52 17.75 20.75 16.52 20.75 15V8.75H16Z" fill="black"/>
<path d="M16 7.25H20.69C20.58 6.74 20.33 6.26 19.95 5.88L17.12 3.05C16.74 2.67 16.27 2.42 15.75 2.31V7C15.75 7.14 15.86 7.25 16 7.25Z" fill="black"/>
<path d="M6.75 15V6.28C5.35 6.41 4.25 7.57 4.25 9V19C4.25 20.52 5.48 21.75 7 21.75H14C15.43 21.75 16.6 20.65 16.72 19.25H11C8.66 19.25 6.75 17.34 6.75 15Z" fill="black"/>
</svg>
