<svg width="24" height="24" viewBox="0 0 24 24" fill="none" xmlns="http://www.w3.org/2000/svg">
<path d="M20.75 10.9V9C20.75 8.15 20.36 7.4 19.75 6.9V5C19.75 3.48 18.52 2.25 17 2.25H7C5.48 2.25 4.25 3.48 4.25 5V6.9C3.64 7.4 3.25 8.16 3.25 9V10.9C2.64 11.4 2.25 12.16 2.25 13V18C2.25 19.52 3.48 20.75 5 20.75H19C20.52 20.75 21.75 19.52 21.75 18V13C21.75 12.15 21.36 11.4 20.75 10.9ZM5.75 5C5.75 4.31 6.31 3.75 7 3.75H17C17.69 3.75 18.25 4.31 18.25 5V6.28C18.17 6.28 18.09 6.25 18 6.25H6C5.91 6.25 5.83 6.27 5.75 6.28V5ZM4.75 9C4.75 8.31 5.31 7.75 6 7.75H18C18.69 7.75 19.25 8.31 19.25 9V10.28C19.17 10.28 19.09 10.25 19 10.25H5C4.91 10.25 4.83 10.27 4.75 10.28V9ZM20.25 18C20.25 18.69 19.69 19.25 19 19.25H5C4.31 19.25 3.75 18.69 3.75 18V13C3.75 12.31 4.31 11.75 5 11.75H19C19.69 11.75 20.25 12.31 20.25 13V18Z" fill="black"/>
</svg>
