<svg width="24" height="24" viewBox="0 0 24 24" fill="none" xmlns="http://www.w3.org/2000/svg">
<path d="M21.79 12.12C21.47 11.57 20.91 11.25 20.28 11.25H8.16C7.18 11.25 6.26 11.78 5.77 12.64L3.75 16.18V8C3.75 7.31 4.31 6.75 5 6.75H8.17C8.5 6.75 8.82 6.88 9.05 7.12L10.17 8.24C10.5 8.57 10.95 8.75 11.41 8.75H18C18.41 8.75 18.75 8.41 18.75 8C18.75 7.59 18.41 7.25 18 7.25H11.41C11.34 7.25 11.28 7.22 11.23 7.18L10.11 6.06C9.59 5.54 8.9 5.25 8.17 5.25H5C3.48 5.25 2.25 6.48 2.25 8V19C2.25 19.13 2.29 19.24 2.34 19.34C2.34 19.35 2.34 19.36 2.34 19.38C2.35 19.4 2.37 19.41 2.38 19.42C2.43 19.49 2.49 19.55 2.56 19.6C2.59 19.62 2.61 19.64 2.64 19.65C2.74 19.7 2.85 19.74 2.98 19.74H17.4C18.03 19.74 18.61 19.4 18.92 18.86L21.78 13.86C22.09 13.31 22.09 12.66 21.78 12.11L21.79 12.12ZM20.49 13.12L17.63 18.12C17.59 18.2 17.5 18.25 17.41 18.25H4.29L7.07 13.38C7.29 12.99 7.71 12.75 8.16 12.75H20.28C20.41 12.75 20.47 12.83 20.5 12.88C20.53 12.93 20.56 13.02 20.5 13.13L20.49 13.12Z" fill="black"/>
</svg>
