<svg width="24" height="24" viewBox="0 0 24 24" fill="none" xmlns="http://www.w3.org/2000/svg">
<path d="M18 4.25H17.75V6C17.75 6.41 17.41 6.75 17 6.75C16.59 6.75 16.25 6.41 16.25 6V4.25H12.75V6C12.75 6.41 12.41 6.75 12 6.75C11.59 6.75 11.25 6.41 11.25 6V4.25H7.75V6C7.75 6.41 7.41 6.75 7 6.75C6.59 6.75 6.25 6.41 6.25 6V4.25H6C3.93 4.25 2.25 5.93 2.25 8V18C2.25 20.07 3.93 21.75 6 21.75H18C20.07 21.75 21.75 20.07 21.75 18V8C21.75 5.93 20.07 4.25 18 4.25ZM12 15.75H8C7.59 15.75 7.25 15.41 7.25 15C7.25 14.59 7.59 14.25 8 14.25H12C12.41 14.25 12.75 14.59 12.75 15C12.75 15.41 12.41 15.75 12 15.75ZM16 11.75H8C7.59 11.75 7.25 11.41 7.25 11C7.25 10.59 7.59 10.25 8 10.25H16C16.41 10.25 16.75 10.59 16.75 11C16.75 11.41 16.41 11.75 16 11.75Z" fill="black"/>
</svg>
