<svg width="24" height="24" viewBox="0 0 24 24" fill="none" xmlns="http://www.w3.org/2000/svg">
<path d="M19.75 9C19.75 8.92 19.73 8.85 19.7 8.77C19.6 7.95 19.24 7.18 18.65 6.59L15.41 3.35C14.81 2.75 14.05 2.4 13.23 2.3C13.16 2.28 13.08 2.25 13 2.25C12.97 2.25 12.95 2.26 12.92 2.27C12.86 2.27 12.81 2.25 12.76 2.25H8C5.93 2.25 4.25 3.93 4.25 6V10C4.25 10.41 4.59 10.75 5 10.75C5.41 10.75 5.75 10.41 5.75 10V6C5.75 4.76 6.76 3.75 8 3.75H12.25V7C12.25 8.52 13.48 9.75 15 9.75H18.25V18C18.25 19.24 17.24 20.25 16 20.25H8C6.76 20.25 5.75 19.24 5.75 18V14.75H12.19L10.47 16.47C10.18 16.76 10.18 17.24 10.47 17.53C10.62 17.68 10.81 17.75 11 17.75C11.19 17.75 11.38 17.68 11.53 17.53L14.53 14.53C14.82 14.24 14.82 13.76 14.53 13.47L11.53 10.47C11.24 10.18 10.76 10.18 10.47 10.47C10.18 10.76 10.18 11.24 10.47 11.53L12.19 13.25H5C4.59 13.25 4.25 13.59 4.25 14V18C4.25 20.07 5.93 21.75 8 21.75H16C18.07 21.75 19.75 20.07 19.75 18V9.24C19.75 9.18 19.74 9.13 19.73 9.08C19.73 9.05 19.75 9.03 19.75 9ZM13.75 7V3.99C13.97 4.1 14.17 4.23 14.35 4.41L17.59 7.65C17.77 7.83 17.9 8.03 18.01 8.25H15C14.31 8.25 13.75 7.69 13.75 7Z" fill="black"/>
</svg>
