<svg width="24" height="24" viewBox="0 0 24 24" fill="none" xmlns="http://www.w3.org/2000/svg">
<path d="M15.25 14.75H8.75V16.25H15.25V14.75Z" fill="black"/>
<path d="M15 9.75C13.48 9.75 12.25 8.52 12.25 7V2.25H8C5.93 2.25 4.25 3.93 4.25 6V18C4.25 20.07 5.93 21.75 8 21.75H16C18.07 21.75 19.75 20.07 19.75 18V9.75H15ZM8 7.25H10C10.41 7.25 10.75 7.59 10.75 8C10.75 8.41 10.41 8.75 10 8.75H8C7.59 8.75 7.25 8.41 7.25 8C7.25 7.59 7.59 7.25 8 7.25ZM8 10.25H10C10.41 10.25 10.75 10.59 10.75 11C10.75 11.41 10.41 11.75 10 11.75H8C7.59 11.75 7.25 11.41 7.25 11C7.25 10.59 7.59 10.25 8 10.25ZM16.75 16.5C16.75 17.19 16.19 17.75 15.5 17.75H8.5C7.81 17.75 7.25 17.19 7.25 16.5V14.5C7.25 13.81 7.81 13.25 8.5 13.25H15.5C16.19 13.25 16.75 13.81 16.75 14.5V16.5Z" fill="black"/>
<path d="M15 8.25H19.6C19.43 7.63 19.11 7.05 18.65 6.59L15.41 3.35C14.95 2.89 14.37 2.58 13.75 2.4V7C13.75 7.69 14.31 8.25 15 8.25Z" fill="black"/>
</svg>
