<svg width="24" height="24" viewBox="0 0 24 24" fill="none" xmlns="http://www.w3.org/2000/svg">
<path d="M14 6.25H6C4.48 6.25 3.25 7.48 3.25 9V19C3.25 20.52 4.48 21.75 6 21.75H14C15.52 21.75 16.75 20.52 16.75 19V9C16.75 7.48 15.52 6.25 14 6.25ZM12 14.75H10.75V16C10.75 16.41 10.41 16.75 10 16.75C9.59 16.75 9.25 16.41 9.25 16V14.75H8C7.59 14.75 7.25 14.41 7.25 14C7.25 13.59 7.59 13.25 8 13.25H9.25V12C9.25 11.59 9.59 11.25 10 11.25C10.41 11.25 10.75 11.59 10.75 12V13.25H12C12.41 13.25 12.75 13.59 12.75 14C12.75 14.41 12.41 14.75 12 14.75Z" fill="black"/>
<path d="M18 2.25H10C8.57 2.25 7.4 3.35 7.28 4.75H14C16.34 4.75 18.25 6.66 18.25 9V17.72C19.65 17.59 20.75 16.43 20.75 15V5C20.75 3.48 19.52 2.25 18 2.25Z" fill="black"/>
</svg>
