<svg width="24" height="24" viewBox="0 0 24 24" fill="none" xmlns="http://www.w3.org/2000/svg">
<path d="M18 4.25H17.75V4C17.75 3.59 17.41 3.25 17 3.25C16.59 3.25 16.25 3.59 16.25 4V4.25H12.75V4C12.75 3.59 12.41 3.25 12 3.25C11.59 3.25 11.25 3.59 11.25 4V4.25H7.75V4C7.75 3.59 7.41 3.25 7 3.25C6.59 3.25 6.25 3.59 6.25 4V4.25H6C3.93 4.25 2.25 5.93 2.25 8V18C2.25 20.07 3.93 21.75 6 21.75H18C20.07 21.75 21.75 20.07 21.75 18V8C21.75 5.93 20.07 4.25 18 4.25ZM20.25 18C20.25 19.24 19.24 20.25 18 20.25H6C4.76 20.25 3.75 19.24 3.75 18V8C3.75 6.76 4.76 5.75 6 5.75H6.25V6C6.25 6.41 6.59 6.75 7 6.75C7.41 6.75 7.75 6.41 7.75 6V5.75H11.25V6C11.25 6.41 11.59 6.75 12 6.75C12.41 6.75 12.75 6.41 12.75 6V5.75H16.25V6C16.25 6.41 16.59 6.75 17 6.75C17.41 6.75 17.75 6.41 17.75 6V5.75H18C19.24 5.75 20.25 6.76 20.25 8V18Z" fill="black"/>
<path d="M16 10.25H8C7.59 10.25 7.25 10.59 7.25 11C7.25 11.41 7.59 11.75 8 11.75H16C16.41 11.75 16.75 11.41 16.75 11C16.75 10.59 16.41 10.25 16 10.25Z" fill="black"/>
<path d="M12 14.25H8C7.59 14.25 7.25 14.59 7.25 15C7.25 15.41 7.59 15.75 8 15.75H12C12.41 15.75 12.75 15.41 12.75 15C12.75 14.59 12.41 14.25 12 14.25Z" fill="black"/>
</svg>
