<svg width="24" height="24" viewBox="0 0 24 24" fill="none" xmlns="http://www.w3.org/2000/svg">
<path d="M14 7.25H5C3.48 7.25 2.25 8.48 2.25 10V19C2.25 20.52 3.48 21.75 5 21.75H14C15.52 21.75 16.75 20.52 16.75 19V10C16.75 8.48 15.52 7.25 14 7.25ZM10 17.75H6C5.59 17.75 5.25 17.41 5.25 17C5.25 16.59 5.59 16.25 6 16.25H10C10.41 16.25 10.75 16.59 10.75 17C10.75 17.41 10.41 17.75 10 17.75ZM13 13.75H6C5.59 13.75 5.25 13.41 5.25 13C5.25 12.59 5.59 12.25 6 12.25H13C13.41 12.25 13.75 12.59 13.75 13C13.75 13.41 13.41 13.75 13 13.75Z" fill="black"/>
<path d="M19 3.25H10C8.57 3.25 7.4 4.35 7.28 5.75H14C16.34 5.75 18.25 7.66 18.25 10V18.75H19C20.52 18.75 21.75 17.52 21.75 16V6C21.75 4.48 20.52 3.25 19 3.25Z" fill="black"/>
</svg>
