<svg width="24" height="24" viewBox="0 0 24 24" fill="none" xmlns="http://www.w3.org/2000/svg">
<path d="M19.44 2.39006C19.24 2.25006 18.99 2.21006 18.76 2.29006L16.05 3.19006L14.33 2.33006C14.12 2.22006 13.87 2.22006 13.66 2.33006L12 3.16006L10.34 2.33006C10.13 2.22006 9.88 2.22006 9.67 2.33006L7.95 3.19006L5.24 2.29006C5.01 2.21006 4.76 2.25006 4.56 2.39006C4.36 2.53006 4.25 2.76006 4.25 3.00006V21.0001C4.25 21.2401 4.37 21.4701 4.56 21.6101C4.76 21.7501 5.01 21.7901 5.24 21.7101L7.95 20.8101L9.67 21.6701C9.88 21.7801 10.13 21.7801 10.34 21.6701L12 20.8401L13.66 21.6701C13.87 21.7801 14.12 21.7801 14.33 21.6701L16.05 20.8101L18.76 21.7101C18.84 21.7401 18.92 21.7501 19 21.7501C19.16 21.7501 19.31 21.7001 19.44 21.6101C19.64 21.4701 19.75 21.2401 19.75 21.0001V3.00006C19.75 2.76006 19.63 2.53006 19.44 2.39006ZM18.25 19.9601L16.24 19.2901C16.05 19.2301 15.85 19.2401 15.67 19.3301L14.01 20.1601L12.35 19.3301C12.24 19.2801 12.13 19.2501 12.01 19.2501C11.89 19.2501 11.78 19.2801 11.67 19.3301L10.01 20.1601L8.35 19.3301C8.17 19.2401 7.97 19.2301 7.78 19.2901L5.77 19.9601V4.04006L7.78 4.71006C7.97 4.77006 8.18 4.76006 8.35 4.67006L10.01 3.84006L11.67 4.67006C11.88 4.78006 12.13 4.78006 12.34 4.67006L14 3.84006L15.66 4.67006C15.84 4.76006 16.05 4.77006 16.23 4.71006L18.24 4.04006V19.9601H18.25Z" fill="black"/>
<path d="M8 9.25006C7.59 9.25006 7.25 9.59006 7.25 10.0001C7.25 10.4101 7.59 10.7501 8 10.7501H16C16.41 10.7501 16.75 10.4101 16.75 10.0001C16.75 9.59006 16.41 9.25006 16 9.25006H8Z" fill="black"/>
<path d="M12 13.2501H8C7.59 13.2501 7.25 13.5901 7.25 14.0001C7.25 14.4101 7.59 14.7501 8 14.7501H12C12.41 14.7501 12.75 14.4101 12.75 14.0001C12.75 13.5901 12.41 13.2501 12 13.2501Z" fill="black"/>
</svg>
