<svg width="24" height="24" viewBox="0 0 24 24" fill="none" xmlns="http://www.w3.org/2000/svg">
<path d="M20.7 5.85C20.23 5.48 19.65 5.25 19.01 5.25H5C3.48 5.25 2.25 6.48 2.25 8V15C2.25 16.52 3.48 17.75 5 17.75H19C20.52 17.75 21.75 16.52 21.75 15V8C21.75 7.13 21.33 6.36 20.7 5.85ZM12.69 10.63C12.27 10.91 11.72 10.91 11.3 10.63L5.47 6.74H18.52L12.69 10.63ZM20.25 14.99C20.25 15.68 19.69 16.24 19 16.24H5C4.31 16.24 3.75 15.68 3.75 14.99V7.99C3.75 7.8 3.8 7.63 3.87 7.47L8.42 10.51L5.47 13.46C5.18 13.75 5.18 14.23 5.47 14.52C5.62 14.67 5.81 14.74 6 14.74C6.19 14.74 6.38 14.67 6.53 14.52L9.53 11.52C9.59 11.46 9.62 11.4 9.66 11.33L10.48 11.88C10.94 12.19 11.47 12.34 12 12.34C12.53 12.34 13.06 12.19 13.53 11.88L14.35 11.33C14.38 11.4 14.42 11.46 14.48 11.52L17.48 14.52C17.63 14.67 17.82 14.74 18.01 14.74C18.2 14.74 18.39 14.67 18.54 14.52C18.83 14.23 18.83 13.75 18.54 13.46L15.59 10.51L20.14 7.47C20.21 7.63 20.26 7.8 20.26 7.99V14.99H20.25Z" fill="black"/>
</svg>
