<svg width="24" height="24" viewBox="0 0 24 24" fill="none" xmlns="http://www.w3.org/2000/svg">
<path d="M4 4.25016C3.04 4.25016 2.25 5.04016 2.25 6.00016V20.0002C2.25 20.9602 3.04 21.7502 4 21.7502H7C7.09 21.7502 7.17 21.7202 7.25 21.7102V4.29016C7.17 4.28016 7.09 4.25016 7 4.25016H4Z" fill="black"/>
<path d="M21.66 19.0402L19.29 5.24016C19.13 4.29016 18.23 3.65016 17.27 3.81016L14.31 4.32016C14.2 4.34016 14.1 4.39016 14 4.43016L16.85 21.5702C16.85 21.5702 16.93 21.5902 16.97 21.5902C17.07 21.5902 17.17 21.5902 17.26 21.5602L20.22 21.0502C20.68 20.9702 21.08 20.7202 21.35 20.3402C21.62 19.9602 21.73 19.4902 21.65 19.0302L21.66 19.0402Z" fill="black"/>
<path d="M12 4.25016H9C8.91 4.25016 8.83 4.28016 8.75 4.29016V21.7102C8.83 21.7202 8.91 21.7502 9 21.7502H12C12.96 21.7502 13.75 20.9602 13.75 20.0002V12.0702L12.46 4.32016C12.31 4.28016 12.16 4.25016 12 4.25016Z" fill="black"/>
</svg>
