<svg width="24" height="24" viewBox="0 0 24 24" fill="none" xmlns="http://www.w3.org/2000/svg">
<path d="M21.79 12.12C21.47 11.57 20.91 11.25 20.28 11.25H8.16C7.18 11.25 6.26 11.78 5.77 12.64L2.35 18.63C2.22 18.86 2.22 19.15 2.35 19.38C2.48 19.61 2.73 19.75 3 19.75H17.42C18.05 19.75 18.63 19.41 18.94 18.87L21.8 13.87C22.11 13.32 22.11 12.67 21.8 12.12H21.79Z" fill="black"/>
<path d="M8.16 9.75H19.72C19.59 8.35 18.43 7.25 17 7.25H11.41C11.34 7.25 11.28 7.22 11.23 7.18L10.11 6.06C9.59 5.54 8.9 5.25 8.17 5.25H5C3.48 5.25 2.25 6.48 2.25 8V15.78L4.47 11.89C5.23 10.57 6.64 9.75 8.16 9.75Z" fill="black"/>
</svg>
