<svg width="24" height="24" viewBox="0 0 24 24" fill="none" xmlns="http://www.w3.org/2000/svg">
<path d="M20.34 7.76993L12.36 3.33993C12.13 3.20993 11.86 3.20993 11.63 3.33993L3.67 7.76993C2.8 8.24993 2.25 9.17993 2.25 10.1699V16.9899C2.25 18.5099 3.48 19.7399 5 19.7399H19C20.52 19.7399 21.75 18.5099 21.75 16.9899V10.1699C21.75 9.16993 21.21 8.24993 20.34 7.76993ZM12 4.84993L19.46 8.98993L12.61 12.7899C12.23 12.9999 11.78 12.9999 11.4 12.7899L4.55 8.98993L12.01 4.84993H12ZM19 18.2399H5C4.31 18.2399 3.75 17.6799 3.75 16.9899V10.2599L10.66 14.0999C11.08 14.3299 11.54 14.4499 12 14.4499C12.46 14.4499 12.92 14.3299 13.34 14.0999L20.25 10.2599V16.9899C20.25 17.6799 19.69 18.2399 19 18.2399Z" fill="black"/>
</svg>
