<svg width="24" height="24" viewBox="0 0 24 24" fill="none" xmlns="http://www.w3.org/2000/svg">
<path d="M11.39 12.8002C11.77 13.0102 12.22 13.0102 12.6 12.8002L19.79 8.81018L20.86 8.16018C20.7 8.01018 20.53 7.88018 20.33 7.77018L12.36 3.34018C12.13 3.21018 11.86 3.21018 11.63 3.34018L3.67 7.77018C3.45 7.89018 3.25 8.04018 3.08 8.21018L4.07 8.73018L11.4 12.8002H11.39Z" fill="black"/>
<path d="M21.65 9.44018L20.55 10.1102L13.34 14.1202C12.92 14.3502 12.46 14.4702 12 14.4702C11.54 14.4702 11.08 14.3502 10.66 14.1202L3.36 10.0602L2.34 9.53018C2.29 9.74018 2.25 9.96018 2.25 10.1802V17.0002C2.25 18.5202 3.48 19.7502 5 19.7502H19C20.52 19.7502 21.75 18.5202 21.75 17.0002V10.1802C21.75 9.93018 21.71 9.68018 21.65 9.45018V9.44018Z" fill="black"/>
</svg>
