<svg width="24" height="24" viewBox="0 0 24 24" fill="none" xmlns="http://www.w3.org/2000/svg">
<path d="M8.33 8.67L10 7.84L11.67 8.67C11.78 8.72 11.89 8.75 12 8.75C12.14 8.75 12.27 8.71 12.39 8.64C12.61 8.5 12.75 8.26 12.75 8V4C12.75 3.04 11.96 2.25 11 2.25H9C8.04 2.25 7.25 3.04 7.25 4V8C7.25 8.26 7.38 8.5 7.61 8.64C7.83 8.78 8.11 8.79 8.34 8.67H8.33Z" fill="black"/>
<path d="M18 3.25H14.15C14.21 3.49 14.25 3.74 14.25 4V8C14.25 8.78 13.85 9.5 13.18 9.91C12.82 10.13 12.41 10.25 12 10.25C11.65 10.25 11.3 10.17 10.99 10.01L10 9.51L9.01 10.01C8.7 10.17 8.35 10.25 8 10.25C7.58 10.25 7.18 10.14 6.82 9.92C6.15 9.5 5.75 8.79 5.75 8V4C5.75 3.82 5.77 3.64 5.8 3.46C4.32 3.96 3.25 5.35 3.25 7V18C3.25 20.07 4.93 21.75 7 21.75H18C20.07 21.75 21.75 20.07 21.75 18V7C21.75 4.93 20.07 3.25 18 3.25ZM13 18H8C7.59 18 7.25 17.66 7.25 17.25C7.25 16.84 7.59 16.5 8 16.5H13C13.41 16.5 13.75 16.84 13.75 17.25C13.75 17.66 13.41 18 13 18ZM17 14H8C7.59 14 7.25 13.66 7.25 13.25C7.25 12.84 7.59 12.5 8 12.5H17C17.41 12.5 17.75 12.84 17.75 13.25C17.75 13.66 17.41 14 17 14Z" fill="black"/>
</svg>
