<svg width="24" height="24" viewBox="0 0 24 24" fill="none" xmlns="http://www.w3.org/2000/svg">
<path d="M19 7.25H12.07C11.65 7.25 11.26 7.04 11.03 6.69L10.22 5.47C9.71 4.7 8.85 4.25 7.93 4.25H5C3.48 4.25 2.25 5.48 2.25 7V18C2.25 19.52 3.48 20.75 5 20.75H19C20.52 20.75 21.75 19.52 21.75 18V10C21.75 8.48 20.52 7.25 19 7.25ZM20.25 18C20.25 18.69 19.69 19.25 19 19.25H5C4.31 19.25 3.75 18.69 3.75 18V7C3.75 6.31 4.31 5.75 5 5.75H7.93C8.35 5.75 8.74 5.96 8.97 6.31L9.78 7.53C10.29 8.3 11.15 8.75 12.07 8.75H19C19.69 8.75 20.25 9.31 20.25 10V18Z" fill="black"/>
<path d="M13.47 13.47L12.75 14.19V12C12.75 11.59 12.41 11.25 12 11.25C11.59 11.25 11.25 11.59 11.25 12V14.19L10.53 13.47C10.24 13.18 9.76 13.18 9.47 13.47C9.18 13.76 9.18 14.24 9.47 14.53L11.47 16.53C11.54 16.6 11.62 16.65 11.71 16.69C11.8 16.73 11.9 16.75 12 16.75C12.1 16.75 12.19 16.73 12.29 16.69C12.38 16.65 12.46 16.6 12.53 16.53L14.53 14.53C14.82 14.24 14.82 13.76 14.53 13.47C14.24 13.18 13.76 13.18 13.47 13.47Z" fill="black"/>
</svg>
