<svg width="24" height="24" viewBox="0 0 24 24" fill="none" xmlns="http://www.w3.org/2000/svg">
<path d="M14.13 9.74999H9.87C9.74 9.74999 9.68 9.82999 9.65 9.87999C9.62 9.92999 9.59 10.03 9.66 10.14L11.79 13.34C11.92 13.53 12.08 13.53 12.21 13.34L14.34 10.14C14.41 10.03 14.38 9.92999 14.35 9.87999C14.32 9.82999 14.26 9.74999 14.13 9.74999Z" fill="black"/>
<path d="M18.94 5.87999L16.11 3.04999C15.59 2.52999 14.9 2.23999 14.17 2.23999H8C5.93 2.23999 4.25 3.91999 4.25 5.98999V17.99C4.25 20.06 5.93 21.74 8 21.74H16C18.07 21.74 19.75 20.06 19.75 17.99V7.82999C19.75 7.09999 19.46 6.40999 18.94 5.88999V5.87999ZM15.58 10.97L13.45 14.17C13.12 14.66 12.58 14.95 11.99 14.95C11.4 14.95 10.86 14.66 10.53 14.17L8.4 10.97C8.04 10.43 8.01 9.73999 8.31 9.16999C8.61 8.59999 9.21 8.24999 9.85 8.24999H14.11C14.76 8.24999 15.35 8.59999 15.65 9.16999C15.96 9.73999 15.92 10.43 15.56 10.97H15.58Z" fill="black"/>
</svg>
