<svg width="24" height="24" viewBox="0 0 24 24" fill="none" xmlns="http://www.w3.org/2000/svg">
<path d="M17 2.25H8C5.93 2.25 4.25 3.93 4.25 6V18C4.25 20.07 5.93 21.75 8 21.75H17C19.07 21.75 20.75 20.07 20.75 18V6C20.75 3.93 19.07 2.25 17 2.25ZM9 17.75H8C7.59 17.75 7.25 17.41 7.25 17C7.25 16.59 7.59 16.25 8 16.25H9C9.41 16.25 9.75 16.59 9.75 17C9.75 17.41 9.41 17.75 9 17.75ZM9 12.75H8C7.59 12.75 7.25 12.41 7.25 12C7.25 11.59 7.59 11.25 8 11.25H9C9.41 11.25 9.75 11.59 9.75 12C9.75 12.41 9.41 12.75 9 12.75ZM9 7.75H8C7.59 7.75 7.25 7.41 7.25 7C7.25 6.59 7.59 6.25 8 6.25H9C9.41 6.25 9.75 6.59 9.75 7C9.75 7.41 9.41 7.75 9 7.75ZM17 17.75H12C11.59 17.75 11.25 17.41 11.25 17C11.25 16.59 11.59 16.25 12 16.25H17C17.41 16.25 17.75 16.59 17.75 17C17.75 17.41 17.41 17.75 17 17.75ZM17 12.75H12C11.59 12.75 11.25 12.41 11.25 12C11.25 11.59 11.59 11.25 12 11.25H17C17.41 11.25 17.75 11.59 17.75 12C17.75 12.41 17.41 12.75 17 12.75ZM17 7.75H12C11.59 7.75 11.25 7.41 11.25 7C11.25 6.59 11.59 6.25 12 6.25H17C17.41 6.25 17.75 6.59 17.75 7C17.75 7.41 17.41 7.75 17 7.75Z" fill="black"/>
</svg>
