<svg width="24" height="24" viewBox="0 0 24 24" fill="none" xmlns="http://www.w3.org/2000/svg">
<path d="M16.0001 20.25H8.00006C6.76006 20.25 5.75006 19.24 5.75006 18V10C5.75006 9.59 5.41006 9.25 5.00006 9.25C4.59006 9.25 4.25006 9.59 4.25006 10V18C4.25006 20.07 5.93006 21.75 8.00006 21.75H16.0001C16.4101 21.75 16.7501 21.41 16.7501 21C16.7501 20.59 16.4101 20.25 16.0001 20.25Z" fill="black"/>
<path d="M21.5301 20.47L19.7501 18.69V7.83C19.7501 7.1 19.4601 6.4 18.9401 5.89L16.1101 3.06C15.5901 2.54 14.9001 2.25 14.1701 2.25H8.00006C6.76006 2.25 5.61006 2.88 4.92006 3.86L3.53006 2.47C3.24006 2.18 2.76006 2.18 2.47006 2.47C2.18006 2.76 2.18006 3.24 2.47006 3.53L20.4601 21.53C20.6101 21.68 20.8001 21.75 20.9901 21.75C21.1801 21.75 21.3701 21.68 21.5201 21.53C21.8101 21.24 21.8101 20.76 21.5201 20.47H21.5301ZM8.00006 3.75H14.1701C14.5001 3.75 14.8201 3.88 15.0501 4.12L17.8801 6.95C18.1201 7.19 18.2501 7.5 18.2501 7.83V17.19L6.01006 4.95C6.39006 4.23 7.16006 3.75 8.00006 3.75Z" fill="black"/>
</svg>
