<svg width="24" height="24" viewBox="0 0 24 24" fill="none" xmlns="http://www.w3.org/2000/svg">
<path d="M20.75 13C20.75 11.57 19.93 10.34 18.75 9.7V5C18.75 3.48 17.52 2.25 16 2.25H7C5.48 2.25 4.25 3.48 4.25 5V17C4.25 18.52 5.48 19.75 7 19.75H11C11.41 19.75 11.75 19.41 11.75 19C11.75 18.59 11.41 18.25 11 18.25H7C6.31 18.25 5.75 17.69 5.75 17V5C5.75 4.31 6.31 3.75 7 3.75H16C16.69 3.75 17.25 4.31 17.25 5V9.28C17.17 9.28 17.09 9.25 17 9.25C14.93 9.25 13.25 10.93 13.25 13C13.25 13.98 13.63 14.86 14.25 15.53V21C14.25 21.3 14.43 21.58 14.71 21.69C14.99 21.81 15.31 21.74 15.53 21.53L17 20.06L18.47 21.53C18.61 21.67 18.81 21.75 19 21.75C19.1 21.75 19.19 21.73 19.29 21.69C19.57 21.57 19.75 21.3 19.75 21V15.53C20.37 14.86 20.75 13.98 20.75 13ZM17 10.75C18.24 10.75 19.25 11.76 19.25 13C19.25 14.24 18.24 15.25 17 15.25C15.76 15.25 14.75 14.24 14.75 13C14.75 11.76 15.76 10.75 17 10.75ZM17.53 18.47C17.24 18.18 16.76 18.18 16.47 18.47L15.75 19.19V16.52C16.14 16.66 16.56 16.75 17 16.75C17.44 16.75 17.86 16.66 18.25 16.52V19.19L17.53 18.47Z" fill="black"/>
</svg>
