<svg width="24" height="24" viewBox="0 0 24 24" fill="none" xmlns="http://www.w3.org/2000/svg">
<path d="M19 3.25H5C3.48 3.25 2.25 4.48 2.25 6V7.25H21.75V6C21.75 4.48 20.52 3.25 19 3.25ZM18.02 6.75C17.61 6.75 17.27 6.41 17.27 6C17.27 5.59 17.6 5.25 18.01 5.25H18.02C18.43 5.25 18.77 5.59 18.77 6C18.77 6.41 18.43 6.75 18.02 6.75Z" fill="black"/>
<path d="M2.25 18C2.25 19.52 3.48 20.75 5 20.75H19C20.52 20.75 21.75 19.52 21.75 18V8.75H2.25V18ZM7 11.25H17C17.41 11.25 17.75 11.59 17.75 12C17.75 12.41 17.41 12.75 17 12.75H7C6.59 12.75 6.25 12.41 6.25 12C6.25 11.59 6.59 11.25 7 11.25ZM7 15.25H12C12.41 15.25 12.75 15.59 12.75 16C12.75 16.41 12.41 16.75 12 16.75H7C6.59 16.75 6.25 16.41 6.25 16C6.25 15.59 6.59 15.25 7 15.25Z" fill="black"/>
</svg>
