<svg width="24" height="24" viewBox="0 0 24 24" fill="none" xmlns="http://www.w3.org/2000/svg">
<path d="M21.5 6.43994C21.34 6.29994 21.13 6.22994 20.92 6.24994C20.31 6.30994 19.69 6.30994 19.08 6.24994C18.08 6.14994 17.37 5.89994 16.68 5.65994C15.8 5.35994 14.96 5.06994 13.88 5.24994C13.23 5.35994 12.6 5.62994 12.01 6.03994C11.41 5.61994 10.78 5.35994 10.14 5.24994C9.06002 5.05994 8.22002 5.34994 7.34002 5.65994C6.65002 5.89994 5.94002 6.13994 4.94002 6.24994C4.33002 6.30994 3.71002 6.30994 3.10002 6.24994C2.89002 6.22994 2.68002 6.29994 2.52002 6.43994C2.36002 6.57994 2.27002 6.77994 2.27002 6.99994V17.9999C2.27002 18.3799 2.56002 18.7099 2.94002 18.7499C3.66002 18.8199 4.38002 18.8199 5.10002 18.7499C6.27002 18.6299 7.14002 18.3299 7.83002 18.0899C8.62002 17.8199 9.18002 17.6199 9.89002 17.7399C10.45 17.8299 11 18.1099 11.53 18.5699C11.81 18.8099 12.23 18.8099 12.51 18.5699C13.04 18.1099 13.59 17.8399 14.15 17.7399C14.86 17.6199 15.43 17.8199 16.21 18.0899C16.91 18.3299 17.78 18.6299 18.94 18.7499C19.3 18.7899 19.66 18.8099 20.02 18.8099C20.38 18.8099 20.74 18.7899 21.1 18.7499C21.48 18.7099 21.77 18.3899 21.77 17.9999V6.99994C21.77 6.78994 21.68 6.57994 21.52 6.43994H21.5ZM7.32002 16.6699C6.63002 16.9099 5.92002 17.1499 4.92002 17.2599C4.53002 17.2999 4.14002 17.3199 3.75002 17.2999V7.79994C4.19002 7.79994 4.64002 7.79994 5.08002 7.74994C6.25002 7.62994 7.12002 7.32994 7.81002 7.08994C8.60002 6.81994 9.16002 6.61994 9.87002 6.73994C10.34 6.81994 10.8 7.03994 11.25 7.36994V16.6299C10.88 16.4599 10.51 16.3299 10.13 16.2699C9.05002 16.0799 8.21002 16.3699 7.33002 16.6799L7.32002 16.6699ZM20.25 17.2999C19.86 17.3099 19.47 17.2999 19.08 17.2599C18.08 17.1599 17.37 16.9099 16.68 16.6699C15.99 16.4299 15.33 16.2099 14.56 16.2099C14.34 16.2099 14.12 16.2299 13.88 16.2699C13.5 16.3399 13.12 16.4599 12.76 16.6299V7.36994C13.21 7.03994 13.67 6.81994 14.14 6.73994C14.85 6.61994 15.42 6.80994 16.2 7.08994C16.9 7.32994 17.77 7.62994 18.93 7.74994C19.37 7.79994 19.81 7.80994 20.26 7.79994V17.2999H20.25Z" fill="black"/>
</svg>
