<svg width="24" height="24" viewBox="0 0 24 24" fill="none" xmlns="http://www.w3.org/2000/svg">
<path d="M12.71 9.69C12.99 9.81 13.31 9.74 13.53 9.53L15 8.06L16.47 9.53C16.61 9.67 16.8 9.75 17 9.75C17.1 9.75 17.19 9.73 17.29 9.69C17.57 9.57 17.75 9.3 17.75 9V1C17.75 0.59 17.41 0.25 17 0.25H13C12.59 0.25 12.25 0.59 12.25 1V9C12.25 9.3 12.43 9.58 12.71 9.69Z" fill="black"/>
<path d="M19.25 2.56V9C19.25 9.91 18.71 10.73 17.86 11.08C17.59 11.19 17.3 11.25 17 11.25C16.4 11.25 15.83 11.02 15.41 10.59L15 10.18L14.59 10.59C14.16 11.02 13.6 11.25 13 11.25C12.7 11.25 12.41 11.19 12.14 11.08C11.3 10.73 10.75 9.91 10.75 9V2.25H7C5.48 2.25 4.25 3.48 4.25 5V19C4.25 20.52 5.48 21.75 7 21.75H18C19.52 21.75 20.75 20.52 20.75 19V5C20.75 3.94 20.14 3.02 19.25 2.56Z" fill="black"/>
</svg>
