<svg width="24" height="24" viewBox="0 0 24 24" fill="none" xmlns="http://www.w3.org/2000/svg">
<path d="M16.25 15.6L16.16 15.86C15.78 16.99 14.74 17.74 13.55 17.74H10.43C9.24 17.74 8.2 16.98 7.82 15.86L7.73 15.59C7.56 15.08 7.08 14.74 6.54 14.74H2.25V16.99C2.25 19.61 4.38 21.74 7 21.74H17C19.62 21.74 21.75 19.61 21.75 16.99V14.74H17.44C16.9 14.74 16.42 15.08 16.25 15.59V15.6Z" fill="black"/>
<path d="M7 2.25C4.38 2.25 2.25 4.38 2.25 7V13.25H6.56C7.75 13.25 8.79 14.01 9.17 15.13L9.26 15.4C9.43 15.91 9.91 16.25 10.45 16.25H13.57C14.11 16.25 14.59 15.91 14.76 15.4L14.85 15.14C15.23 14.01 16.27 13.26 17.46 13.26H21.77V7C21.77 4.38 19.64 2.25 17.02 2.25H7Z" fill="black"/>
</svg>
