<svg width="24" height="24" viewBox="0 0 24 24" fill="none" xmlns="http://www.w3.org/2000/svg">
<path d="M19 10.25H5C3.48122 10.25 2.25 11.4812 2.25 13V18C2.25 19.5188 3.48122 20.75 5 20.75H19C20.5188 20.75 21.75 19.5188 21.75 18V13C21.75 11.4812 20.5188 10.25 19 10.25Z" fill="black"/>
<path d="M19 8.75C19.63 8.75 20.21 8.89 20.75 9.14V9C20.75 7.48 19.52 6.25 18 6.25H6C4.48 6.25 3.25 7.48 3.25 9V9.14C3.79 8.9 4.37 8.75 5 8.75H19Z" fill="black"/>
<path d="M18 4.75C18.63 4.75 19.21 4.89 19.75 5.14V5C19.75 3.48 18.52 2.25 17 2.25H7C5.48 2.25 4.25 3.48 4.25 5V5.14C4.79 4.9 5.37 4.75 6 4.75H18Z" fill="black"/>
</svg>
