<svg width="24" height="24" viewBox="0 0 24 24" fill="none" xmlns="http://www.w3.org/2000/svg">
<path d="M18 2.25H7C5.48 2.25 4.25 3.48 4.25 5V19C4.25 20.52 5.48 21.75 7 21.75H18C19.52 21.75 20.75 20.52 20.75 19V5C20.75 3.48 19.52 2.25 18 2.25ZM16.25 3.75V7.19L15.53 6.47C15.38 6.32 15.19 6.25 15 6.25C14.81 6.25 14.62 6.32 14.47 6.47L13.75 7.19V3.75H16.25ZM19.25 19C19.25 19.69 18.69 20.25 18 20.25H7C6.31 20.25 5.75 19.69 5.75 19V5C5.75 4.31 6.31 3.75 7 3.75H12.25V9C12.25 9.3 12.43 9.58 12.71 9.69C12.99 9.81 13.31 9.74 13.53 9.53L15 8.06L16.47 9.53C16.61 9.67 16.8 9.75 17 9.75C17.1 9.75 17.19 9.73 17.29 9.69C17.57 9.57 17.75 9.3 17.75 9V3.75H18C18.69 3.75 19.25 4.31 19.25 5V19Z" fill="black"/>
</svg>
