<svg width="24" height="24" viewBox="0 0 24 24" fill="none" xmlns="http://www.w3.org/2000/svg">
<path d="M17.75 16.88V11C17.75 10.04 16.96 9.24999 16 9.24999H4C3.04 9.24999 2.25 10.04 2.25 11V18C2.25 18.96 3.04 19.75 4 19.75H18C18.32 19.75 18.61 19.54 18.71 19.24C18.81 18.93 18.71 18.6 18.45 18.4C18.01 18.07 17.75 17.51 17.75 16.88Z" fill="black"/>
<path d="M13.83 6.24999C13.5 6.24999 13.18 6.11999 12.95 5.87999L12.12 5.04999C11.6 4.52999 10.91 4.23999 10.18 4.23999H7.01C5.49 4.23999 4.26 5.46999 4.26 6.98999V7.73999H16.01C17.8 7.73999 19.26 9.19999 19.26 10.99V16.87C19.26 17.06 19.33 17.17 19.36 17.19C20.07 17.72 20.39 18.61 20.21 19.46C21.13 19.01 21.76 18.08 21.76 16.99V8.99999C21.76 7.47999 20.53 6.24999 19.01 6.24999H13.83Z" fill="black"/>
</svg>
