<svg width="24" height="24" viewBox="0 0 24 24" fill="none" xmlns="http://www.w3.org/2000/svg">
<path d="M16 13.17L15.49 12.62L12.75 15.36C12.42 15.69 12.24 16.13 12.24 16.6V19.01C12.24 19.42 12.58 19.76 12.99 19.76H15.4C15.87 19.76 16.31 19.58 16.64 19.25L19.38 16.51L18.85 16.03L15.99 13.18L16 13.17Z" fill="black"/>
<path d="M20.6 11.4C19.53 10.33 17.78 10.33 16.71 11.4L16.56 11.55L17.09 12.13L19.89 14.93L20.45 15.43L20.6 15.28C21.67 14.21 21.67 12.46 20.6 11.39V11.4Z" fill="black"/>
<path d="M15 10.75H6C5.59 10.75 5.25 10.41 5.25 9.99999C5.25 9.58999 5.59 9.24999 6 9.24999H15C15.41 9.24999 15.75 9.58999 15.75 9.99999C15.75 10.12 15.72 10.22 15.67 10.32C16.47 9.52999 17.53 9.08999 18.66 9.08999C18.69 9.08999 18.72 9.08999 18.75 9.08999V7.98999C18.75 7.02999 17.96 6.23999 17 6.23999H4C3.04 6.23999 2.25 7.02999 2.25 7.98999V14.99C2.25 15.95 3.04 16.74 4 16.74H10.75V16.58C10.75 15.71 11.09 14.89 11.7 14.28L15.31 10.67C15.21 10.71 15.11 10.74 15 10.74V10.75ZM11 13.75H6C5.59 13.75 5.25 13.41 5.25 13C5.25 12.59 5.59 12.25 6 12.25H11C11.41 12.25 11.75 12.59 11.75 13C11.75 13.41 11.41 13.75 11 13.75Z" fill="black"/>
</svg>
