<svg width="24" height="24" viewBox="0 0 24 24" fill="none" xmlns="http://www.w3.org/2000/svg">
<path d="M5 4.25C3.48 4.25 2.25 5.48 2.25 7V15C2.25 16.52 3.48 17.75 5 17.75H11.65C11.71 17.75 11.76 17.77 11.81 17.8L16.54 21.58C16.68 21.69 16.84 21.74 17.01 21.74C17.12 21.74 17.23 21.72 17.33 21.67C17.59 21.55 17.76 21.28 17.76 20.99V17.99C17.76 17.85 17.87 17.74 18.01 17.74H19.01C20.53 17.74 21.76 16.51 21.76 14.99V7C21.76 5.48 20.53 4.25 19.01 4.25H5ZM20.25 15C20.25 15.69 19.69 16.25 19 16.25H18C17.04 16.25 16.25 17.04 16.25 18V19.44L12.74 16.63C12.43 16.38 12.04 16.25 11.65 16.25H5C4.31 16.25 3.75 15.69 3.75 15V7C3.75 6.31 4.31 5.75 5 5.75H19C19.69 5.75 20.25 6.31 20.25 7V15Z" fill="black"/>
<path d="M17 8.25H7C6.59 8.25 6.25 8.59 6.25 9C6.25 9.41 6.59 9.75 7 9.75H17C17.41 9.75 17.75 9.41 17.75 9C17.75 8.59 17.41 8.25 17 8.25Z" fill="black"/>
<path d="M13 12.25H7C6.59 12.25 6.25 12.59 6.25 13C6.25 13.41 6.59 13.75 7 13.75H13C13.41 13.75 13.75 13.41 13.75 13C13.75 12.59 13.41 12.25 13 12.25Z" fill="black"/>
</svg>
