<svg width="24" height="24" viewBox="0 0 24 24" fill="none" xmlns="http://www.w3.org/2000/svg">
<path d="M17 2.25H7C5.48 2.25 4.25 3.48 4.25 5V19C4.25 20.52 5.48 21.75 7 21.75H14.17C14.9 21.75 15.6 21.46 16.11 20.94L18.94 18.11C19.46 17.59 19.75 16.9 19.75 16.17V5C19.75 3.48 18.52 2.25 17 2.25ZM5.75 19V5C5.75 4.31 6.31 3.75 7 3.75H17C17.69 3.75 18.25 4.31 18.25 5V15.25H15C14.04 15.25 13.25 16.04 13.25 17V20.25H7C6.31 20.25 5.75 19.69 5.75 19ZM15.06 19.88C14.97 19.97 14.86 20.03 14.75 20.08V16.99C14.75 16.85 14.86 16.74 15 16.74H18.09C18.03 16.85 17.97 16.96 17.89 17.05L15.06 19.88Z" fill="black"/>
<path d="M9 9.75H15C15.41 9.75 15.75 9.41 15.75 9C15.75 8.59 15.41 8.25 15 8.25H9C8.59 8.25 8.25 8.59 8.25 9C8.25 9.41 8.59 9.75 9 9.75Z" fill="black"/>
<path d="M12 12.25H9C8.59 12.25 8.25 12.59 8.25 13C8.25 13.41 8.59 13.75 9 13.75H12C12.41 13.75 12.75 13.41 12.75 13C12.75 12.59 12.41 12.25 12 12.25Z" fill="black"/>
</svg>
