<svg width="24" height="24" viewBox="0 0 24 24" fill="none" xmlns="http://www.w3.org/2000/svg">
<path d="M17.5 2.25H6.5C5.26 2.25 4.25 3.26 4.25 4.5V19C4.25 20.52 5.48 21.75 7 21.75H19C19.32 21.75 19.61 21.54 19.71 21.24C19.81 20.93 19.71 20.6 19.45 20.4C19.38 20.35 18.75 19.85 18.75 19C18.75 18.91 18.77 18.11 19.45 17.6C19.47 17.59 19.48 17.57 19.49 17.56C19.51 17.54 19.54 17.52 19.56 17.49C19.6 17.44 19.63 17.4 19.66 17.34C19.67 17.31 19.69 17.29 19.7 17.26C19.73 17.18 19.75 17.1 19.75 17.01V4.5C19.75 3.26 18.74 2.25 17.5 2.25ZM6.5 3.75H17.5C17.91 3.75 18.25 4.09 18.25 4.5V16.25H7C6.55 16.25 6.13 16.37 5.75 16.56V4.5C5.75 4.09 6.09 3.75 6.5 3.75ZM17.51 20.25H7C6.31 20.25 5.75 19.69 5.75 19C5.75 18.31 6.31 17.75 7 17.75H17.51C17.27 18.33 17.25 18.85 17.25 19C17.25 19.48 17.35 19.9 17.51 20.25Z" fill="black"/>
<path d="M9 8.75H15C15.41 8.75 15.75 8.41 15.75 8C15.75 7.59 15.41 7.25 15 7.25H9C8.59 7.25 8.25 7.59 8.25 8C8.25 8.41 8.59 8.75 9 8.75Z" fill="black"/>
<path d="M9 12.75H15C15.41 12.75 15.75 12.41 15.75 12C15.75 11.59 15.41 11.25 15 11.25H9C8.59 11.25 8.25 11.59 8.25 12C8.25 12.41 8.59 12.75 9 12.75Z" fill="black"/>
</svg>
