<svg width="24" height="24" viewBox="0 0 24 24" fill="none" xmlns="http://www.w3.org/2000/svg">
<path d="M20.94 3.05982C19.87 1.98982 18.12 1.98982 17.05 3.05982L10.69 9.41982C10.59 9.51982 10.51 9.65982 10.48 9.79982L9.77 13.3398C9.72 13.5898 9.8 13.8398 9.98 14.0198C10.12 14.1598 10.31 14.2398 10.51 14.2398C10.56 14.2398 10.61 14.2398 10.66 14.2298L14.2 13.5198C14.34 13.4898 14.48 13.4198 14.58 13.3098L20.94 6.94982C22.01 5.87982 22.01 4.12982 20.94 3.05982ZM19.88 5.88982L13.68 12.0898L11.47 12.5298L11.91 10.3198L18.11 4.11982C18.6 3.62982 19.39 3.62982 19.88 4.11982C20.37 4.60982 20.37 5.39982 19.88 5.88982Z" fill="black"/>
<path d="M19 11.2498C18.59 11.2498 18.25 11.5898 18.25 11.9998V17.9998C18.25 19.2398 17.24 20.2498 16 20.2498H6C4.76 20.2498 3.75 19.2398 3.75 17.9998V7.99982C3.75 6.75982 4.76 5.74982 6 5.74982H12C12.41 5.74982 12.75 5.40982 12.75 4.99982C12.75 4.58982 12.41 4.24982 12 4.24982H6C3.93 4.24982 2.25 5.92982 2.25 7.99982V17.9998C2.25 20.0698 3.93 21.7498 6 21.7498H16C18.07 21.7498 19.75 20.0698 19.75 17.9998V11.9998C19.75 11.5898 19.41 11.2498 19 11.2498Z" fill="black"/>
</svg>
