<svg width="24" height="24" viewBox="0 0 24 24" fill="none" xmlns="http://www.w3.org/2000/svg">
<path d="M17 2.25H8C5.93 2.25 4.25 3.93 4.25 6V18C4.25 20.07 5.93 21.75 8 21.75H17C19.07 21.75 20.75 20.07 20.75 18V6C20.75 3.93 19.07 2.25 17 2.25ZM19.25 18C19.25 19.24 18.24 20.25 17 20.25H8C6.76 20.25 5.75 19.24 5.75 18V6C5.75 4.76 6.76 3.75 8 3.75H17C18.24 3.75 19.25 4.76 19.25 6V18Z" fill="black"/>
<path d="M17 6.25H12C11.59 6.25 11.25 6.59 11.25 7C11.25 7.41 11.59 7.75 12 7.75H17C17.41 7.75 17.75 7.41 17.75 7C17.75 6.59 17.41 6.25 17 6.25Z" fill="black"/>
<path d="M17 11.25H12C11.59 11.25 11.25 11.59 11.25 12C11.25 12.41 11.59 12.75 12 12.75H17C17.41 12.75 17.75 12.41 17.75 12C17.75 11.59 17.41 11.25 17 11.25Z" fill="black"/>
<path d="M17 16.25H12C11.59 16.25 11.25 16.59 11.25 17C11.25 17.41 11.59 17.75 12 17.75H17C17.41 17.75 17.75 17.41 17.75 17C17.75 16.59 17.41 16.25 17 16.25Z" fill="black"/>
<path d="M9 6.25H8C7.59 6.25 7.25 6.59 7.25 7C7.25 7.41 7.59 7.75 8 7.75H9C9.41 7.75 9.75 7.41 9.75 7C9.75 6.59 9.41 6.25 9 6.25Z" fill="black"/>
<path d="M9 11.25H8C7.59 11.25 7.25 11.59 7.25 12C7.25 12.41 7.59 12.75 8 12.75H9C9.41 12.75 9.75 12.41 9.75 12C9.75 11.59 9.41 11.25 9 11.25Z" fill="black"/>
<path d="M9 16.25H8C7.59 16.25 7.25 16.59 7.25 17C7.25 17.41 7.59 17.75 8 17.75H9C9.41 17.75 9.75 17.41 9.75 17C9.75 16.59 9.41 16.25 9 16.25Z" fill="black"/>
</svg>
