<svg width="24" height="24" viewBox="0 0 24 24" fill="none" xmlns="http://www.w3.org/2000/svg">
<path d="M7.25 7V2.31C6.74 2.42 6.26 2.67 5.88 3.05L3.05 5.88C2.67 6.26 2.42 6.73 2.31 7.25H7C7.14 7.25 7.25 7.14 7.25 7Z" fill="black"/>
<path d="M12.34 17.71C10.29 15.66 10.29 12.33 12.34 10.29C13.33 9.3 14.65 8.75 16.05 8.75C16.64 8.75 17.21 8.87 17.75 9.05V5C17.75 3.48 16.52 2.25 15 2.25H8.75V7C8.75 7.96 7.96 8.75 7 8.75H2.25V19C2.25 20.52 3.48 21.75 5 21.75H15C16.52 21.75 17.75 20.52 17.75 19V18.96C17.21 19.15 16.63 19.25 16.05 19.25C14.65 19.25 13.33 18.7 12.34 17.71ZM11 7.25H14C14.41 7.25 14.75 7.59 14.75 8C14.75 8.41 14.41 8.75 14 8.75H11C10.59 8.75 10.25 8.41 10.25 8C10.25 7.59 10.59 7.25 11 7.25ZM10 16.75H7C6.59 16.75 6.25 16.41 6.25 16C6.25 15.59 6.59 15.25 7 15.25H10C10.41 15.25 10.75 15.59 10.75 16C10.75 16.41 10.41 16.75 10 16.75ZM10 12.75H7C6.59 12.75 6.25 12.41 6.25 12C6.25 11.59 6.59 11.25 7 11.25H10C10.41 11.25 10.75 11.59 10.75 12C10.75 12.41 10.41 12.75 10 12.75Z" fill="black"/>
<path d="M21.53 18.42L19.18 16.07C20.14 14.61 19.98 12.63 18.7 11.35C17.24 9.89 14.86 9.89 13.4 11.35C11.94 12.81 11.94 15.19 13.4 16.65C14.13 17.38 15.09 17.75 16.05 17.75C16.77 17.75 17.49 17.54 18.12 17.13L20.47 19.48C20.62 19.63 20.81 19.7 21 19.7C21.19 19.7 21.38 19.63 21.53 19.48C21.82 19.19 21.82 18.71 21.53 18.42Z" fill="black"/>
</svg>
