<svg width="24" height="24" viewBox="0 0 24 24" fill="none" xmlns="http://www.w3.org/2000/svg">
<path d="M12.21 9.65999C12.15 9.55999 12.05 9.54999 12 9.54999C11.95 9.54999 11.86 9.55999 11.79 9.65999L9.66 12.86C9.59 12.97 9.62 13.07 9.65 13.12C9.68 13.17 9.74 13.25 9.87 13.25H14.13C14.26 13.25 14.32 13.17 14.35 13.12C14.38 13.07 14.41 12.97 14.34 12.86L12.21 9.65999Z" fill="black"/>
<path d="M18.94 5.87999L16.11 3.04999C15.59 2.52999 14.9 2.23999 14.17 2.23999H8C5.93 2.23999 4.25 3.91999 4.25 5.98999V17.99C4.25 20.06 5.93 21.74 8 21.74H16C18.07 21.74 19.75 20.06 19.75 17.99V7.82999C19.75 7.09999 19.46 6.40999 18.94 5.88999V5.87999ZM15.67 13.82C15.37 14.39 14.77 14.74 14.13 14.74H9.87C9.22 14.74 8.63 14.39 8.33 13.82C8.02 13.25 8.06 12.56 8.42 12.02L10.55 8.81999C10.88 8.32999 11.42 8.03999 12.01 8.03999C12.6 8.03999 13.14 8.32999 13.47 8.81999L15.6 12.02C15.96 12.56 15.99 13.25 15.69 13.82H15.67Z" fill="black"/>
</svg>
