<svg width="24" height="24" viewBox="0 0 24 24" fill="none" xmlns="http://www.w3.org/2000/svg">
<path d="M20 13.25H19.75V4C19.75 3.04 18.96 2.25 18 2.25H6C5.04 2.25 4.25 3.04 4.25 4V13.25H4C3.04 13.25 2.25 14.04 2.25 15V19C2.25 20.52 3.48 21.75 5 21.75H19C20.52 21.75 21.75 20.52 21.75 19V15C21.75 14.04 20.96 13.25 20 13.25ZM5.75 4C5.75 3.86 5.86 3.75 6 3.75H18C18.14 3.75 18.25 3.86 18.25 4V13.25H17.5C16.26 13.25 15.25 14.26 15.25 15.5C15.25 15.91 14.91 16.25 14.5 16.25H9.5C9.09 16.25 8.75 15.91 8.75 15.5C8.75 14.26 7.74 13.25 6.5 13.25H5.75V4ZM20.25 19C20.25 19.69 19.69 20.25 19 20.25H5C4.31 20.25 3.75 19.69 3.75 19V15C3.75 14.86 3.86 14.75 4 14.75H6.5C6.91 14.75 7.25 15.09 7.25 15.5C7.25 16.74 8.26 17.75 9.5 17.75H14.5C15.74 17.75 16.75 16.74 16.75 15.5C16.75 15.09 17.09 14.75 17.5 14.75H20C20.14 14.75 20.25 14.86 20.25 15V19Z" fill="black"/>
<path d="M9 7.75H15C15.41 7.75 15.75 7.41 15.75 7C15.75 6.59 15.41 6.25 15 6.25H9C8.59 6.25 8.25 6.59 8.25 7C8.25 7.41 8.59 7.75 9 7.75Z" fill="black"/>
<path d="M9 11.75H12C12.41 11.75 12.75 11.41 12.75 11C12.75 10.59 12.41 10.25 12 10.25H9C8.59 10.25 8.25 10.59 8.25 11C8.25 11.41 8.59 11.75 9 11.75Z" fill="black"/>
</svg>
