<svg width="24" height="24" viewBox="0 0 24 24" fill="none" xmlns="http://www.w3.org/2000/svg">
<path d="M19.75 11.3V5C19.75 3.48 18.52 2.25 17 2.25H9.67C9.08 2.25 8.49 2.45 8.02 2.8L5.35 4.8C4.66 5.32 4.25 6.14 4.25 7V11.3C3.68 11.42 3.25 11.9 3.25 12.5V19C3.25 20.52 4.48 21.75 6 21.75H18C19.52 21.75 20.75 20.52 20.75 19V12.5C20.75 11.9 20.32 11.42 19.75 11.3ZM5.75 7C5.75 6.61 5.94 6.23 6.25 6L8.92 4C9.13 3.84 9.4 3.75 9.67 3.75H17C17.69 3.75 18.25 4.31 18.25 5V11.25H5.75V7ZM19.25 19C19.25 19.69 18.69 20.25 18 20.25H6C5.31 20.25 4.75 19.69 4.75 19V12.75H19.25V19Z" fill="black"/>
<path d="M15 7.25H9C8.59 7.25 8.25 7.59 8.25 8C8.25 8.41 8.59 8.75 9 8.75H15C15.41 8.75 15.75 8.41 15.75 8C15.75 7.59 15.41 7.25 15 7.25Z" fill="black"/>
<path d="M14 15.25H10C9.59 15.25 9.25 15.59 9.25 16C9.25 16.41 9.59 16.75 10 16.75H14C14.41 16.75 14.75 16.41 14.75 16C14.75 15.59 14.41 15.25 14 15.25Z" fill="black"/>
</svg>
