<svg width="24" height="24" viewBox="0 0 24 24" fill="none" xmlns="http://www.w3.org/2000/svg">
<path d="M18 2.25H7C5.48 2.25 4.25 3.48 4.25 5V6.25H4C3.59 6.25 3.25 6.59 3.25 7C3.25 7.41 3.59 7.75 4 7.75H4.25V11.25H4C3.59 11.25 3.25 11.59 3.25 12C3.25 12.41 3.59 12.75 4 12.75H4.25V16.25H4C3.59 16.25 3.25 16.59 3.25 17C3.25 17.41 3.59 17.75 4 17.75H4.25V19C4.25 20.52 5.48 21.75 7 21.75H18C19.52 21.75 20.75 20.52 20.75 19V5C20.75 3.48 19.52 2.25 18 2.25ZM5.75 19V17.75H6C6.41 17.75 6.75 17.41 6.75 17C6.75 16.59 6.41 16.25 6 16.25H5.75V12.75H6C6.41 12.75 6.75 12.41 6.75 12C6.75 11.59 6.41 11.25 6 11.25H5.75V7.75H6C6.41 7.75 6.75 7.41 6.75 7C6.75 6.59 6.41 6.25 6 6.25H5.75V5C5.75 4.31 6.31 3.75 7 3.75H9.25V20.25H7C6.31 20.25 5.75 19.69 5.75 19ZM19.25 19C19.25 19.69 18.69 20.25 18 20.25H10.75V3.75H18C18.69 3.75 19.25 4.31 19.25 5V19Z" fill="black"/>
<path d="M17 6.25H13C12.59 6.25 12.25 6.59 12.25 7C12.25 7.41 12.59 7.75 13 7.75H17C17.41 7.75 17.75 7.41 17.75 7C17.75 6.59 17.41 6.25 17 6.25Z" fill="black"/>
</svg>
