<svg width="24" height="24" viewBox="0 0 24 24" fill="none" xmlns="http://www.w3.org/2000/svg">
<path d="M19 6.25H12.07C11.65 6.25 11.26 6.04 11.03 5.69L10.22 4.47C9.71 3.7 8.85 3.25 7.93 3.25H5C3.48 3.25 2.25 4.48 2.25 6V17C2.25 18.52 3.48 19.75 5 19.75H19C20.52 19.75 21.75 18.52 21.75 17V9C21.75 7.48 20.52 6.25 19 6.25ZM20.25 17C20.25 17.69 19.69 18.25 19 18.25H5C4.31 18.25 3.75 17.69 3.75 17V6C3.75 5.31 4.31 4.75 5 4.75H7.93C8.35 4.75 8.74 4.96 8.97 5.31L9.78 6.53C10.29 7.3 11.15 7.75 12.07 7.75H19C19.69 7.75 20.25 8.31 20.25 9V17Z" fill="black"/>
<path d="M12.53 10.47C12.46 10.4 12.38 10.35 12.29 10.31C12.11 10.23 11.9 10.23 11.72 10.31C11.63 10.35 11.55 10.4 11.48 10.47L9.48 12.47C9.19 12.76 9.19 13.24 9.48 13.53C9.77 13.82 10.25 13.82 10.54 13.53L11.26 12.81V15C11.26 15.41 11.6 15.75 12.01 15.75C12.42 15.75 12.76 15.41 12.76 15V12.81L13.48 13.53C13.63 13.68 13.82 13.75 14.01 13.75C14.2 13.75 14.39 13.68 14.54 13.53C14.83 13.24 14.83 12.76 14.54 12.47L12.54 10.47H12.53Z" fill="black"/>
</svg>
