<svg width="24" height="24" viewBox="0 0 24 24" fill="none" xmlns="http://www.w3.org/2000/svg">
<path d="M19 6.25H13.07C12.65 6.25 12.26 6.04 12.03 5.69L11.22 4.47C10.71 3.7 9.85 3.25 8.93 3.25H5C3.48 3.25 2.25 4.48 2.25 6V17C2.25 18.52 3.48 19.75 5 19.75H19C20.52 19.75 21.75 18.52 21.75 17V9C21.75 7.48 20.52 6.25 19 6.25ZM8.02 13.75C7.61 13.75 7.27 13.41 7.27 13C7.27 12.59 7.6 12.25 8.02 12.25C8.44 12.25 8.77 12.59 8.77 13C8.77 13.41 8.44 13.75 8.02 13.75ZM12.02 13.75C11.61 13.75 11.27 13.41 11.27 13C11.27 12.59 11.6 12.25 12.02 12.25C12.44 12.25 12.77 12.59 12.77 13C12.77 13.41 12.44 13.75 12.02 13.75ZM16.02 13.75C15.61 13.75 15.27 13.41 15.27 13C15.27 12.59 15.6 12.25 16.02 12.25C16.44 12.25 16.77 12.59 16.77 13C16.77 13.41 16.44 13.75 16.02 13.75Z" fill="black"/>
</svg>
