<svg width="24" height="24" viewBox="0 0 24 24" fill="none" xmlns="http://www.w3.org/2000/svg">
<path d="M21.5 6.43983C21.34 6.29983 21.13 6.22983 20.92 6.24983C20.31 6.30983 19.69 6.30983 19.08 6.24983C18.08 6.14983 17.37 5.89983 16.68 5.65983C15.8 5.35983 14.96 5.06983 13.88 5.24983C13.5 5.31983 13.12 5.43983 12.76 5.60983V18.3498C13.21 18.0198 13.67 17.7998 14.14 17.7198C14.85 17.5998 15.42 17.7998 16.2 18.0698C16.9 18.3098 17.77 18.6098 18.93 18.7298C19.29 18.7698 19.65 18.7898 20.01 18.7898C20.37 18.7898 20.73 18.7698 21.09 18.7298C21.47 18.6898 21.76 18.3698 21.76 17.9798V6.99983C21.76 6.78983 21.67 6.57983 21.51 6.43983H21.5Z" fill="black"/>
<path d="M7.32 5.66983C6.63 5.90983 5.92 6.14983 4.92 6.25983C4.31 6.31983 3.69 6.31983 3.08 6.25983C2.87 6.23983 2.66 6.30983 2.5 6.44983C2.34 6.58983 2.25 6.78983 2.25 7.00983V18.0098C2.25 18.3898 2.54 18.7198 2.92 18.7598C3.64 18.8298 4.36 18.8298 5.08 18.7598C6.25 18.6398 7.12 18.3398 7.81 18.0998C8.6 17.8298 9.16 17.6298 9.87 17.7498C10.34 17.8298 10.8 18.0498 11.25 18.3798V5.61983C10.88 5.44983 10.51 5.31983 10.13 5.25983C9.05 5.06983 8.21 5.35983 7.33 5.66983H7.32Z" fill="black"/>
</svg>
