<svg width="24" height="24" viewBox="0 0 24 24" fill="none" xmlns="http://www.w3.org/2000/svg">
<path d="M17 2.25H7C4.38 2.25 2.25 4.38 2.25 7V17C2.25 19.62 4.38 21.75 7 21.75H17C19.62 21.75 21.75 19.62 21.75 17V7C21.75 4.38 19.62 2.25 17 2.25ZM7 3.75H17C18.79 3.75 20.25 5.21 20.25 7V13.25H17.44C16.25 13.25 15.21 14.01 14.83 15.13L14.74 15.39C14.57 15.9 14.09 16.24 13.55 16.24H10.43C9.89 16.24 9.41 15.9 9.24 15.39L9.15 15.12C8.77 14 7.73 13.24 6.54 13.24H3.75V7C3.75 5.21 5.21 3.75 7 3.75ZM17 20.25H7C5.21 20.25 3.75 18.79 3.75 17V14.75H6.56C7.1 14.75 7.58 15.09 7.75 15.6L7.84 15.87C8.22 16.99 9.26 17.75 10.45 17.75H13.57C14.76 17.75 15.8 16.99 16.18 15.87L16.27 15.61C16.44 15.1 16.92 14.76 17.46 14.76H20.27V17.01C20.27 18.8 18.81 20.26 17.02 20.26L17 20.25Z" fill="black"/>
</svg>
