<svg width="24" height="24" viewBox="0 0 24 24" fill="none" xmlns="http://www.w3.org/2000/svg">
<path d="M17 4.25H15.63C15.3 3.1 14.25 2.25 13 2.25H11C9.75 2.25 8.7 3.1 8.37 4.25H7C5.48 4.25 4.25 5.48 4.25 7V19C4.25 20.52 5.48 21.75 7 21.75H17C18.52 21.75 19.75 20.52 19.75 19V7C19.75 5.48 18.52 4.25 17 4.25ZM11 3.75H13C13.69 3.75 14.25 4.31 14.25 5V5.25H9.75V5C9.75 4.31 10.31 3.75 11 3.75ZM18.25 19C18.25 19.69 17.69 20.25 17 20.25H7C6.31 20.25 5.75 19.69 5.75 19V7C5.75 6.31 6.31 5.75 7 5.75H8.3C8.42 6.32 8.9 6.75 9.5 6.75H14.5C15.1 6.75 15.58 6.32 15.7 5.75H17C17.69 5.75 18.25 6.31 18.25 7V19Z" fill="black"/>
</svg>
