<svg width="24" height="24" viewBox="0 0 24 24" fill="none" xmlns="http://www.w3.org/2000/svg">
<path d="M21.72 2.80991C21.65 2.54991 21.45 2.34991 21.19 2.27991C18.17 1.47991 15.14 2.31991 13.34 4.25991H6C3.93 4.25991 2.25 5.93991 2.25 8.00991V18.0099C2.25 20.0799 3.93 21.7599 6 21.7599H16C18.07 21.7599 19.75 20.0799 19.75 18.0099V15.0099C19.75 14.5999 19.41 14.2599 19 14.2599C18.59 14.2599 18.25 14.5999 18.25 15.0099V18.0099C18.25 19.2499 17.24 20.2599 16 20.2599H6C4.76 20.2599 3.75 19.2499 3.75 18.0099V7.99991C3.75 6.75991 4.76 5.74991 6 5.74991H12.3C11.36 7.71991 11.77 9.70991 12.14 10.8099L9.48 13.4699C9.19 13.7599 9.19 14.2399 9.48 14.5299C9.63 14.6799 9.82 14.7499 10.01 14.7499C10.2 14.7499 10.39 14.6799 10.54 14.5299L13.2 11.8699C13.8 12.0699 14.66 12.2899 15.65 12.2899C16.49 12.2899 17.42 12.1299 18.35 11.6799C21.29 10.2299 22.72 6.49991 21.74 2.81991L21.72 2.80991ZM14.41 10.6499L16.53 8.52991C16.82 8.23991 16.82 7.75991 16.53 7.46991C16.24 7.17991 15.76 7.17991 15.47 7.46991L13.35 9.58991C13.17 8.70991 13.1 7.48991 13.67 6.33991C14.73 4.17991 17.56 3.05991 20.37 3.62991C20.94 6.43991 19.82 9.26991 17.66 10.3299C16.5 10.8999 15.29 10.8299 14.41 10.6499Z" fill="black"/>
<path d="M15 16.2499H7C6.59 16.2499 6.25 16.5899 6.25 16.9999C6.25 17.4099 6.59 17.7499 7 17.7499H15C15.41 17.7499 15.75 17.4099 15.75 16.9999C15.75 16.5899 15.41 16.2499 15 16.2499Z" fill="black"/>
</svg>
