<svg width="24" height="24" viewBox="0 0 24 24" fill="none" xmlns="http://www.w3.org/2000/svg">
<path d="M21.66 19.0399L19.29 5.23991C19.13 4.28991 18.23 3.64991 17.27 3.80991L14.31 4.31991C13.92 4.38991 13.58 4.57991 13.32 4.86991C13 4.48991 12.53 4.24991 12 4.24991H9C8.63 4.24991 8.28 4.36991 8 4.56991C7.72 4.36991 7.37 4.24991 7 4.24991H4C3.04 4.24991 2.25 5.03991 2.25 5.99991V19.9999C2.25 20.9599 3.04 21.7499 4 21.7499H7C7.37 21.7499 7.72 21.6299 8 21.4299C8.28 21.6299 8.63 21.7499 9 21.7499H12C12.96 21.7499 13.75 20.9599 13.75 19.9999V11.3999L15.25 20.1399C15.4 20.9899 16.14 21.5899 16.98 21.5899C17.08 21.5899 17.18 21.5899 17.27 21.5599L20.23 21.0499C20.69 20.9699 21.09 20.7199 21.36 20.3399C21.63 19.9599 21.74 19.4899 21.66 19.0299V19.0399ZM7 20.2499H4C3.86 20.2499 3.75 20.1399 3.75 19.9999V5.99991C3.75 5.85991 3.86 5.74991 4 5.74991H7C7.14 5.74991 7.25 5.85991 7.25 5.99991V19.9999C7.25 20.1399 7.14 20.2499 7 20.2499ZM12.25 19.9999C12.25 20.1399 12.14 20.2499 12 20.2499H9C8.86 20.2499 8.75 20.1399 8.75 19.9999V5.99991C8.75 5.85991 8.86 5.74991 9 5.74991H12C12.14 5.74991 12.25 5.85991 12.25 5.99991V19.9999ZM20.14 19.4799C20.14 19.4799 20.07 19.5699 19.98 19.5799L17.02 20.0899C16.87 20.1099 16.75 20.0199 16.73 19.8899L14.36 6.08991C14.34 5.99991 14.38 5.93991 14.4 5.89991C14.42 5.86991 14.47 5.80991 14.56 5.79991L17.52 5.28991C17.52 5.28991 17.55 5.28991 17.56 5.28991C17.68 5.28991 17.79 5.37991 17.81 5.49991L20.18 19.2999C20.2 19.3899 20.16 19.4599 20.14 19.4899V19.4799Z" fill="black"/>
</svg>
