<svg width="24" height="24" viewBox="0 0 24 24" fill="none" xmlns="http://www.w3.org/2000/svg">
<path d="M18 2.25H14C13.55 2.25 13.13 2.37 12.75 2.56V21.44C13.13 21.63 13.55 21.75 14 21.75H18C19.52 21.75 20.75 20.52 20.75 19V5C20.75 3.48 19.52 2.25 18 2.25ZM15.25 6C15.25 5.59 15.59 5.25 16 5.25C16.41 5.25 16.75 5.59 16.75 6V14C16.75 14.41 16.41 14.75 16 14.75C15.59 14.75 15.25 14.41 15.25 14V6ZM16.02 17.75C15.61 17.75 15.27 17.41 15.27 17C15.27 16.59 15.6 16.25 16.02 16.25C16.44 16.25 16.77 16.59 16.77 17C16.77 17.41 16.44 17.75 16.02 17.75Z" fill="black"/>
<path d="M6 2.25C4.48 2.25 3.25 3.48 3.25 5V19C3.25 20.52 4.48 21.75 6 21.75H10C10.45 21.75 10.87 21.63 11.25 21.44V2.56C10.87 2.37 10.45 2.25 10 2.25H6ZM7.25 6C7.25 5.59 7.59 5.25 8 5.25C8.41 5.25 8.75 5.59 8.75 6V14C8.75 14.41 8.41 14.75 8 14.75C7.59 14.75 7.25 14.41 7.25 14V6ZM8.02 17.75C7.61 17.75 7.27 17.41 7.27 17C7.27 16.59 7.6 16.25 8.01 16.25H8.02C8.43 16.25 8.77 16.59 8.77 17C8.77 17.41 8.43 17.75 8.02 17.75Z" fill="black"/>
</svg>
