<svg width="24" height="24" viewBox="0 0 24 24" fill="none" xmlns="http://www.w3.org/2000/svg">
<path d="M19 4.25H15.62C15.52 4.25 15.44 4.2 15.4 4.11L14.95 3.22C14.65 2.62 14.05 2.25 13.38 2.25H12C11.04 2.25 10.25 3.04 10.25 4V9C10.25 9.96 11.04 10.75 12 10.75H19C19.96 10.75 20.75 9.96 20.75 9V6C20.75 5.04 19.96 4.25 19 4.25ZM19.25 9C19.25 9.14 19.14 9.25 19 9.25H12C11.86 9.25 11.75 9.14 11.75 9V4C11.75 3.86 11.86 3.75 12 3.75H13.38C13.48 3.75 13.56 3.8 13.6 3.89L14.05 4.78C14.35 5.38 14.95 5.75 15.62 5.75H19C19.14 5.75 19.25 5.86 19.25 6V9Z" fill="black"/>
<path d="M19 15.25H15.62C15.52 15.25 15.44 15.2 15.4 15.11L14.95 14.22C14.65 13.62 14.05 13.25 13.38 13.25H12C11.04 13.25 10.25 14.04 10.25 15V20C10.25 20.96 11.04 21.75 12 21.75H19C19.96 21.75 20.75 20.96 20.75 20V17C20.75 16.04 19.96 15.25 19 15.25ZM19.25 20C19.25 20.14 19.14 20.25 19 20.25H12C11.86 20.25 11.75 20.14 11.75 20V15C11.75 14.86 11.86 14.75 12 14.75H13.38C13.48 14.75 13.56 14.8 13.6 14.89L14.05 15.78C14.35 16.38 14.95 16.75 15.62 16.75H19C19.14 16.75 19.25 16.86 19.25 17V20Z" fill="black"/>
<path d="M8 7.75C8.41 7.75 8.75 7.41 8.75 7C8.75 6.59 8.41 6.25 8 6.25H4.75V3C4.75 2.59 4.41 2.25 4 2.25C3.59 2.25 3.25 2.59 3.25 3V17C3.25 17.96 4.04 18.75 5 18.75H8C8.41 18.75 8.75 18.41 8.75 18C8.75 17.59 8.41 17.25 8 17.25H5C4.86 17.25 4.75 17.14 4.75 17V7.75H8Z" fill="black"/>
</svg>
