<svg width="24" height="24" viewBox="0 0 24 24" fill="none" xmlns="http://www.w3.org/2000/svg">
<path d="M2.56 5.54983C2.36 5.68983 2.25 5.91983 2.25 6.15983V17.1598C2.25 17.3998 2.37 17.6298 2.57 17.7698C2.77 17.9098 3.02 17.9398 3.26 17.8598C4.31 17.4798 6.43 16.9698 8.74 17.8598C9.68 18.2198 10.52 18.7698 11.26 19.4798V6.05983C10.54 5.39983 9.53 4.73983 8.18 4.41983C5.34 3.75983 3.17 5.10983 2.57 5.53983L2.56 5.54983Z" fill="black"/>
<path d="M21.44 5.54983C20.84 5.11983 18.67 3.76983 15.83 4.42983C14.48 4.73983 13.47 5.39983 12.75 6.06983V19.4898C13.49 18.7798 14.33 18.2298 15.27 17.8698C17.58 16.9898 19.69 17.4898 20.75 17.8698C20.98 17.9498 21.24 17.9198 21.44 17.7798C21.64 17.6398 21.76 17.4098 21.76 17.1698V6.15983C21.76 5.91983 21.64 5.68983 21.45 5.54983H21.44Z" fill="black"/>
</svg>
