<svg width="24" height="24" viewBox="0 0 24 24" fill="none" xmlns="http://www.w3.org/2000/svg">
<path d="M20.68 6.50999C20.01 6.08999 19.19 6.05999 18.49 6.40999L15.33 7.98999C15.12 8.09999 14.87 8.09999 14.66 7.98999L10 5.65999C9.37 5.34999 8.62 5.34999 7.99 5.65999L3.49 7.91999C2.72 8.29999 2.25 9.07999 2.25 9.92999V15.58C2.25 16.37 2.65 17.08 3.32 17.49C3.99 17.9 4.81 17.94 5.51 17.59L8.67 16.01C8.88 15.9 9.13 15.9 9.34 16.01L14 18.34C14.32 18.5 14.66 18.58 15.01 18.58C15.36 18.58 15.7 18.5 16.02 18.34L20.52 16.09C21.29 15.71 21.76 14.93 21.76 14.08V8.42999C21.76 7.63999 21.36 6.92999 20.69 6.51999L20.68 6.50999ZM4.84 16.24C4.5 16.41 4.22 16.27 4.11 16.21C4 16.14 3.75 15.95 3.75 15.57V9.91999C3.75 9.62999 3.91 9.37999 4.16 9.24999L8.25 7.20999V14.57C8.16 14.6 8.08 14.62 7.99 14.66L4.83 16.24H4.84ZM10.01 14.66C9.93 14.62 9.84 14.6 9.75 14.57V7.20999L13.99 9.32999C14.07 9.36999 14.16 9.38999 14.25 9.41999V16.78L10.01 14.66ZM20.25 14.07C20.25 14.36 20.09 14.61 19.84 14.74L15.75 16.78V9.41999C15.84 9.38999 15.92 9.36999 16.01 9.32999L19.17 7.74999C19.51 7.57999 19.79 7.71999 19.9 7.77999C20.01 7.84999 20.26 8.03999 20.26 8.41999V14.07H20.25Z" fill="black"/>
</svg>
