<svg width="24" height="24" viewBox="0 0 24 24" fill="none" xmlns="http://www.w3.org/2000/svg">
<path d="M18.75 8.99999C18.75 7.06999 17.92 5.22999 16.48 3.94999C15.04 2.66999 13.11 2.05999 11.18 2.28999C8.25004 2.63999 5.78004 4.99999 5.33004 7.90999C5.00004 10.04 5.65004 12.14 7.13004 13.67C7.76004 14.32 8.12004 15.23 8.21004 16.24H8.00004C7.59004 16.24 7.25004 16.58 7.25004 16.99C7.25004 17.4 7.59004 17.74 8.00004 17.74H8.25004V18.99C8.25004 20.51 9.48004 21.74 11 21.74H13C14.52 21.74 15.75 20.51 15.75 18.99V17.74H16C16.41 17.74 16.75 17.4 16.75 16.99C16.75 16.58 16.41 16.24 16 16.24H15.77C15.85 15.05 16.47 14.11 17 13.53C18.13 12.29 18.75 10.67 18.75 8.98999V8.99999ZM14.25 19C14.25 19.69 13.69 20.25 13 20.25H11C10.31 20.25 9.75004 19.69 9.75004 19V17.75H14.25V19ZM9.71004 16.25C9.62004 14.85 9.11004 13.57 8.22004 12.64C7.07004 11.45 6.56004 9.80999 6.82004 8.14999C7.17004 5.88999 9.08004 4.05999 11.36 3.78999C11.58 3.75999 11.79 3.74999 12.01 3.74999C13.3 3.74999 14.52 4.20999 15.49 5.07999C16.61 6.07999 17.25 7.50999 17.25 8.99999C17.25 10.31 16.77 11.56 15.89 12.53C14.88 13.64 14.34 14.92 14.28 16.25H9.71004Z" fill="black"/>
</svg>
