<svg width="24" height="24" viewBox="0 0 24 24" fill="none" xmlns="http://www.w3.org/2000/svg">
<path d="M8 14.75C8.41 14.75 8.75 14.41 8.75 14V6C8.75 5.59 8.41 5.25 8 5.25C7.59 5.25 7.25 5.59 7.25 6V14C7.25 14.41 7.59 14.75 8 14.75Z" fill="black"/>
<path d="M18 2.25H14C13.21 2.25 12.5 2.59 12 3.12C11.5 2.58 10.79 2.25 10 2.25H6C4.48 2.25 3.25 3.48 3.25 5V19C3.25 20.52 4.48 21.75 6 21.75H10C10.79 21.75 11.5 21.41 12 20.88C12.5 21.42 13.21 21.75 14 21.75H18C19.52 21.75 20.75 20.52 20.75 19V5C20.75 3.48 19.52 2.25 18 2.25ZM10 20.25H6C5.31 20.25 4.75 19.69 4.75 19V5C4.75 4.31 5.31 3.75 6 3.75H10C10.69 3.75 11.25 4.31 11.25 5V19C11.25 19.69 10.69 20.25 10 20.25ZM19.25 19C19.25 19.69 18.69 20.25 18 20.25H14C13.31 20.25 12.75 19.69 12.75 19V5C12.75 4.31 13.31 3.75 14 3.75H18C18.69 3.75 19.25 4.31 19.25 5V19Z" fill="black"/>
<path d="M16 14.75C16.41 14.75 16.75 14.41 16.75 14V6C16.75 5.59 16.41 5.25 16 5.25C15.59 5.25 15.25 5.59 15.25 6V14C15.25 14.41 15.59 14.75 16 14.75Z" fill="black"/>
<path d="M8.02 16.25H8.01C7.6 16.25 7.27 16.59 7.27 17C7.27 17.41 7.61 17.75 8.02 17.75C8.43 17.75 8.77 17.41 8.77 17C8.77 16.59 8.43 16.25 8.02 16.25Z" fill="black"/>
<path d="M16.02 16.25C15.61 16.25 15.27 16.59 15.27 17C15.27 17.41 15.61 17.75 16.02 17.75C16.43 17.75 16.77 17.41 16.77 17C16.77 16.59 16.44 16.25 16.02 16.25Z" fill="black"/>
</svg>
