<svg width="24" height="24" viewBox="0 0 24 24" fill="none" xmlns="http://www.w3.org/2000/svg">
<path d="M19.5 9.75C19.59 9.75 19.67 9.77 19.75 9.78V5C19.75 3.48 18.52 2.25 17 2.25H9.67C9.08 2.25 8.49 2.45 8.02 2.8L5.35 4.8C4.66 5.32 4.25 6.14 4.25 7V9.78C4.33 9.78 4.41 9.75 4.5 9.75H19.5ZM9 7.25H15C15.41 7.25 15.75 7.59 15.75 8C15.75 8.41 15.41 8.75 15 8.75H9C8.59 8.75 8.25 8.41 8.25 8C8.25 7.59 8.59 7.25 9 7.25Z" fill="black"/>
<path d="M19.5 11.25H4.5C3.81 11.25 3.25 11.81 3.25 12.5V19C3.25 20.52 4.48 21.75 6 21.75H18C19.52 21.75 20.75 20.52 20.75 19V12.5C20.75 11.81 20.19 11.25 19.5 11.25ZM14 16.75H10C9.59 16.75 9.25 16.41 9.25 16C9.25 15.59 9.59 15.25 10 15.25H14C14.41 15.25 14.75 15.59 14.75 16C14.75 16.41 14.41 16.75 14 16.75Z" fill="black"/>
</svg>
