<svg width="24" height="24" viewBox="0 0 24 24" fill="none" xmlns="http://www.w3.org/2000/svg">
<path d="M8 5.14995C7.03 5.14995 6.25 5.93995 6.25 6.89995V14.8999C6.25 15.3699 6.43 15.8099 6.76 16.1399C7.09 16.4699 7.56 16.6599 7.99 16.6399C8.28 16.6499 8.57 16.6699 8.84 16.7299C10.03 16.9899 10.82 17.7299 11.25 18.2499V6.21995C10.7 5.81995 10.01 5.44995 9.16 5.26995C8.78 5.18995 8.44 5.13995 8 5.14995Z" fill="black"/>
<path d="M16.01 16.6499C16.49 16.6799 16.91 16.4699 17.24 16.1499C17.57 15.8199 17.75 15.3799 17.75 14.9099V6.89995C17.75 5.92995 16.96 5.14995 16 5.14995C15.6 5.14995 15.22 5.18995 14.84 5.26995C13.99 5.44995 13.3 5.81995 12.75 6.21995V18.2599C13.17 17.7399 13.96 16.9899 15.16 16.7399C15.43 16.6799 15.71 16.6399 16.01 16.6499Z" fill="black"/>
<path d="M7.97 18.1499H7.94C7.14 18.1499 6.3 17.7999 5.71 17.2099C5.09 16.5899 4.75 15.7799 4.75 14.8999V7.78995L3.58 8.07995C2.8 8.27995 2.25 8.96995 2.25 9.77995V16.9999C2.25 17.9599 3.04 18.7499 4 18.7499H9.63C9.35 18.5199 8.98 18.3 8.52 18.2C8.37 18.17 8.18 18.1599 7.96 18.1499H7.97Z" fill="black"/>
<path d="M20.42 8.07995L19.25 7.78995V14.8999C19.25 15.7699 18.91 16.59 18.29 17.2C17.67 17.82 16.91 18.1499 16.09 18.1499H15.9C15.77 18.1499 15.64 18.16 15.46 18.2C15 18.3 14.63 18.5199 14.35 18.7499H19.98C20.94 18.7499 21.73 17.9599 21.73 16.9999V9.77995C21.73 8.97995 21.19 8.27995 20.4 8.07995H20.42Z" fill="black"/>
</svg>
