<svg width="24" height="24" viewBox="0 0 24 24" fill="none" xmlns="http://www.w3.org/2000/svg">
<path d="M19 14.25C18.59 14.25 18.25 14.59 18.25 15V19C18.25 19.69 17.69 20.25 17 20.25H7C6.31 20.25 5.75 19.69 5.75 19V15C5.75 14.59 5.41 14.25 5 14.25C4.59 14.25 4.25 14.59 4.25 15V19C4.25 20.52 5.48 21.75 7 21.75H17C18.52 21.75 19.75 20.52 19.75 19V15C19.75 14.59 19.41 14.25 19 14.25Z" fill="black"/>
<path d="M14 12.75C14.41 12.75 14.75 12.41 14.75 12C14.75 11.59 14.41 11.25 14 11.25H10C9.59 11.25 9.25 11.59 9.25 12C9.25 12.41 9.59 12.75 10 12.75H14Z" fill="black"/>
<path d="M21 11.25H19.75V7.83C19.75 7.1 19.46 6.41 18.94 5.89L16.11 3.06C15.59 2.54 14.9 2.25 14.17 2.25H7C5.48 2.25 4.25 3.48 4.25 5V11.25H3C2.59 11.25 2.25 11.59 2.25 12C2.25 12.41 2.59 12.75 3 12.75H7C7.41 12.75 7.75 12.41 7.75 12C7.75 11.59 7.41 11.25 7 11.25H5.75V5C5.75 4.31 6.31 3.75 7 3.75H13.25V7C13.25 7.96 14.04 8.75 15 8.75H18.25V11.25H17C16.59 11.25 16.25 11.59 16.25 12C16.25 12.41 16.59 12.75 17 12.75H21C21.41 12.75 21.75 12.41 21.75 12C21.75 11.59 21.41 11.25 21 11.25ZM14.75 7V3.91C14.86 3.97 14.97 4.03 15.06 4.11L17.89 6.94C17.98 7.03 18.04 7.14 18.09 7.25H15C14.86 7.25 14.75 7.14 14.75 7Z" fill="black"/>
</svg>
