<svg width="24" height="24" viewBox="0 0 24 24" fill="none" xmlns="http://www.w3.org/2000/svg">
<path d="M17 16.75C19.0711 16.75 20.75 15.0711 20.75 13C20.75 10.9289 19.0711 9.25 17 9.25C14.9289 9.25 13.25 10.9289 13.25 13C13.25 15.0711 14.9289 16.75 17 16.75Z" fill="black"/>
<path d="M14.25 17.45V21C14.25 21.3 14.43 21.58 14.71 21.69C14.99 21.81 15.31 21.74 15.53 21.53L17 20.06L18.47 21.53C18.61 21.67 18.81 21.75 19 21.75C19.1 21.75 19.19 21.73 19.29 21.69C19.57 21.57 19.75 21.3 19.75 21V17.45C18.95 17.95 18.01 18.25 17 18.25C15.99 18.25 15.05 17.95 14.25 17.45Z" fill="black"/>
<path d="M17 7.75C17.62 7.75 18.2 7.88 18.75 8.07V5C18.75 3.48 17.52 2.25 16 2.25H7C5.48 2.25 4.25 3.48 4.25 5V17C4.25 18.52 5.48 19.75 7 19.75H12.75V16.05C12.13 15.19 11.75 14.14 11.75 13C11.75 10.11 14.1 7.75 17 7.75Z" fill="black"/>
</svg>
