<svg width="24" height="24" viewBox="0 0 24 24" fill="none" xmlns="http://www.w3.org/2000/svg">
<path d="M18 3.25H12.57C12.29 2.66 11.69 2.25 11 2.25H9C8.3 2.25 7.71 2.66 7.43 3.25H7C4.93 3.25 3.25 4.93 3.25 7V18C3.25 20.07 4.93 21.75 7 21.75H18C20.07 21.75 21.75 20.07 21.75 18V7C21.75 4.93 20.07 3.25 18 3.25ZM9 3.75H11C11.14 3.75 11.25 3.86 11.25 4V6.79L10.33 6.33C10.22 6.28 10.11 6.25 10 6.25C9.89 6.25 9.77 6.28 9.67 6.33L8.75 6.79V4C8.75 3.86 8.86 3.75 9 3.75ZM20.25 18C20.25 19.24 19.24 20.25 18 20.25H7C5.76 20.25 4.75 19.24 4.75 18V7C4.75 5.76 5.76 4.75 7 4.75H7.25V8C7.25 8.26 7.38 8.5 7.61 8.64C7.83 8.78 8.11 8.79 8.34 8.67L10.01 7.84L11.68 8.67C11.79 8.72 11.9 8.75 12.01 8.75C12.15 8.75 12.28 8.71 12.4 8.64C12.62 8.5 12.76 8.26 12.76 8V4.75H18.01C19.25 4.75 20.26 5.76 20.26 7V18H20.25Z" fill="black"/>
<path d="M17 11.25H8C7.59 11.25 7.25 11.59 7.25 12C7.25 12.41 7.59 12.75 8 12.75H17C17.41 12.75 17.75 12.41 17.75 12C17.75 11.59 17.41 11.25 17 11.25Z" fill="black"/>
<path d="M13 15.25H8C7.59 15.25 7.25 15.59 7.25 16C7.25 16.41 7.59 16.75 8 16.75H13C13.41 16.75 13.75 16.41 13.75 16C13.75 15.59 13.41 15.25 13 15.25Z" fill="black"/>
</svg>
