<svg width="24" height="24" viewBox="0 0 24 24" fill="none" xmlns="http://www.w3.org/2000/svg">
<path d="M18.94 5.87999L16.11 3.04999C15.59 2.52999 14.9 2.23999 14.17 2.23999H8C5.93 2.23999 4.25 3.91999 4.25 5.98999V17.99C4.25 20.06 5.93 21.74 8 21.74H16C18.07 21.74 19.75 20.06 19.75 17.99V7.82999C19.75 7.09999 19.46 6.40999 18.94 5.88999V5.87999ZM18.25 18C18.25 19.24 17.24 20.25 16 20.25H8C6.76 20.25 5.75 19.24 5.75 18V5.99999C5.75 4.75999 6.76 3.74999 8 3.74999H14.17C14.5 3.74999 14.82 3.87999 15.05 4.11999L17.88 6.94999C18.11 7.17999 18.25 7.49999 18.25 7.82999V18Z" fill="black"/>
<path d="M13.46 8.82999C13.13 8.33999 12.59 8.04999 12 8.04999C11.41 8.04999 10.87 8.33999 10.54 8.82999L8.41 12.03C8.05 12.57 8.02 13.26 8.32 13.83C8.62 14.4 9.22 14.75 9.86 14.75H14.12C14.77 14.75 15.36 14.4 15.66 13.83C15.97 13.26 15.93 12.57 15.57 12.03L13.44 8.82999H13.46ZM14.36 13.12C14.36 13.12 14.27 13.25 14.14 13.25H9.88C9.75 13.25 9.69 13.17 9.66 13.12C9.63 13.07 9.6 12.97 9.67 12.86L11.8 9.65999C11.86 9.55999 11.96 9.54999 12.01 9.54999C12.06 9.54999 12.15 9.55999 12.22 9.65999L14.35 12.86C14.42 12.97 14.39 13.07 14.36 13.12Z" fill="black"/>
</svg>
