<svg width="24" height="24" viewBox="0 0 24 24" fill="none" xmlns="http://www.w3.org/2000/svg">
<path d="M15 9.75C13.48 9.75 12.25 8.52 12.25 7V2.25H8C5.93 2.25 4.25 3.93 4.25 6V13.25H12.19L10.47 11.53C10.18 11.24 10.18 10.76 10.47 10.47C10.76 10.18 11.24 10.18 11.53 10.47L14.53 13.47C14.82 13.76 14.82 14.24 14.53 14.53L11.53 17.53C11.38 17.68 11.19 17.75 11 17.75C10.81 17.75 10.62 17.68 10.47 17.53C10.18 17.24 10.18 16.76 10.47 16.47L12.19 14.75H4.25V18C4.25 20.07 5.93 21.75 8 21.75H16C18.07 21.75 19.75 20.07 19.75 18V9.75H15Z" fill="black"/>
<path d="M15 8.25H19.6C19.43 7.63 19.12 7.06 18.65 6.59L15.41 3.35C14.94 2.88 14.37 2.57 13.75 2.4V7C13.75 7.69 14.31 8.25 15 8.25Z" fill="black"/>
</svg>
