<svg width="24" height="24" viewBox="0 0 24 24" fill="none" xmlns="http://www.w3.org/2000/svg">
<path d="M13.83 6.24999C13.5 6.24999 13.18 6.11999 12.95 5.87999L12.12 5.04999C11.6 4.52999 10.91 4.23999 10.18 4.23999H7.01001C5.49001 4.23999 4.26001 5.46999 4.26001 6.98999V9.23999H4.01001C3.05001 9.23999 2.26001 10.03 2.26001 10.99V17.99C2.26001 18.95 3.05001 19.74 4.01001 19.74H19.01C20.53 19.74 21.76 18.51 21.76 16.99V8.99999C21.76 7.47999 20.53 6.24999 19.01 6.24999H13.83ZM4.00001 18.25C3.86001 18.25 3.75001 18.14 3.75001 18V11C3.75001 10.86 3.86001 10.75 4.00001 10.75H16C16.14 10.75 16.25 10.86 16.25 11V16.88C16.25 17.36 16.34 17.83 16.52 18.25H4.00001ZM20.25 17C20.25 17.69 19.69 18.25 19 18.25H18.3C17.96 17.91 17.75 17.42 17.75 16.88V11C17.75 10.04 16.96 9.24999 16 9.24999H5.75001V6.99999C5.75001 6.30999 6.31001 5.74999 7.00001 5.74999H10.17C10.5 5.74999 10.82 5.87999 11.05 6.11999L11.88 6.94999C12.4 7.46999 13.09 7.75999 13.82 7.75999H18.99C19.68 7.75999 20.24 8.31999 20.24 9.00999V17.01L20.25 17Z" fill="black"/>
</svg>
