<svg width="24" height="24" viewBox="0 0 24 24" fill="none" xmlns="http://www.w3.org/2000/svg">
<path d="M17 6.25008H16.75V4.58008C16.75 3.76008 16.33 3.01008 15.64 2.58008C14.94 2.15008 14.09 2.11008 13.36 2.48008L5.78 6.27008C4.37 6.38008 3.25 7.56008 3.25 9.00008V19.0001C3.25 20.5201 4.48 21.7501 6 21.7501H17C18.52 21.7501 19.75 20.5201 19.75 19.0001V9.00008C19.75 7.48008 18.52 6.25008 17 6.25008ZM14.02 3.83008C14.29 3.70008 14.59 3.71008 14.84 3.87008C15.09 4.03008 15.24 4.29008 15.24 4.59008V6.26008H9.17L14.02 3.84008V3.83008ZM18.25 19.0001C18.25 19.6901 17.69 20.2501 17 20.2501H6C5.31 20.2501 4.75 19.6901 4.75 19.0001V9.00008C4.75 8.31008 5.31 7.75008 6 7.75008H17C17.69 7.75008 18.25 8.31008 18.25 9.00008V19.0001Z" fill="black"/>
</svg>
