<svg width="24" height="24" viewBox="0 0 24 24" fill="none" xmlns="http://www.w3.org/2000/svg">
<path d="M20 13.25H18.75V5C18.75 3.48 17.52 2.25 16 2.25H8C6.48 2.25 5.25 3.48 5.25 5V13.25H4C3.59 13.25 3.25 13.59 3.25 14C3.25 14.41 3.59 14.75 4 14.75H20C20.41 14.75 20.75 14.41 20.75 14C20.75 13.59 20.41 13.25 20 13.25ZM6.75 13.25V5C6.75 4.31 7.31 3.75 8 3.75H16C16.69 3.75 17.25 4.31 17.25 5V13.25H6.75Z" fill="black"/>
<path d="M6 16.25C5.59 16.25 5.25 16.59 5.25 17V21C5.25 21.41 5.59 21.75 6 21.75C6.41 21.75 6.75 21.41 6.75 21V17C6.75 16.59 6.41 16.25 6 16.25Z" fill="black"/>
<path d="M18 16.25C17.59 16.25 17.25 16.59 17.25 17V21C17.25 21.41 17.59 21.75 18 21.75C18.41 21.75 18.75 21.41 18.75 21V17C18.75 16.59 18.41 16.25 18 16.25Z" fill="black"/>
<path d="M12 16.25C11.59 16.25 11.25 16.59 11.25 17V21C11.25 21.41 11.59 21.75 12 21.75C12.41 21.75 12.75 21.41 12.75 21V17C12.75 16.59 12.41 16.25 12 16.25Z" fill="black"/>
<path d="M15 16.25C14.59 16.25 14.25 16.59 14.25 17V20C14.25 20.41 14.59 20.75 15 20.75C15.41 20.75 15.75 20.41 15.75 20V17C15.75 16.59 15.41 16.25 15 16.25Z" fill="black"/>
<path d="M9 16.25C8.59 16.25 8.25 16.59 8.25 17V20C8.25 20.41 8.59 20.75 9 20.75C9.41 20.75 9.75 20.41 9.75 20V17C9.75 16.59 9.41 16.25 9 16.25Z" fill="black"/>
<path d="M15 6.25H9C8.59 6.25 8.25 6.59 8.25 7C8.25 7.41 8.59 7.75 9 7.75H15C15.41 7.75 15.75 7.41 15.75 7C15.75 6.59 15.41 6.25 15 6.25Z" fill="black"/>
<path d="M12 9.25H9C8.59 9.25 8.25 9.59 8.25 10C8.25 10.41 8.59 10.75 9 10.75H12C12.41 10.75 12.75 10.41 12.75 10C12.75 9.59 12.41 9.25 12 9.25Z" fill="black"/>
</svg>
