<svg width="24" height="24" viewBox="0 0 24 24" fill="none" xmlns="http://www.w3.org/2000/svg">
<path d="M18 3.25H6C3.93 3.25 2.25 4.93 2.25 7V7.25H21.75V7C21.75 4.93 20.07 3.25 18 3.25ZM17.02 6.75C16.61 6.75 16.27 6.41 16.27 6C16.27 5.59 16.6 5.25 17.02 5.25C17.44 5.25 17.77 5.59 17.77 6C17.77 6.41 17.44 6.75 17.02 6.75Z" fill="black"/>
<path d="M2.25 17C2.25 19.07 3.93 20.75 6 20.75H18C20.07 20.75 21.75 19.07 21.75 17V8.75H2.25V17ZM6.71 15.24L8.71 12.72C9.45 11.97 10.56 11.97 11.24 12.66L11.46 12.93L12.67 11.76C13.02 11.41 13.52 11.22 14.02 11.26C14.53 11.3 14.99 11.55 15.29 11.96L17.38 15.27C17.6 15.62 17.5 16.08 17.14 16.3C17.02 16.38 16.88 16.42 16.74 16.42C16.49 16.42 16.25 16.3 16.1 16.07L14.05 12.81C14.05 12.81 13.95 12.76 13.9 12.76C13.86 12.76 13.78 12.76 13.7 12.83L12.39 14.09L13.57 15.53C13.83 15.85 13.78 16.32 13.46 16.59C13.32 16.7 13.15 16.76 12.99 16.76C12.77 16.76 12.56 16.67 12.41 16.48L10.12 13.66C10.12 13.66 9.91 13.62 9.82 13.72L7.88 16.18C7.62 16.5 7.15 16.56 6.83 16.3C6.51 16.04 6.45 15.57 6.71 15.25V15.24Z" fill="black"/>
</svg>
