<svg width="24" height="24" viewBox="0 0 24 24" fill="none" xmlns="http://www.w3.org/2000/svg">
<path d="M19 5.25H17.67C17.32 3.54 15.81 2.25 14 2.25H7.75V21.75H14C15.81 21.75 17.33 20.46 17.67 18.75H19C19.96 18.75 20.75 17.96 20.75 17V7C20.75 6.04 19.96 5.25 19 5.25ZM17.75 10.75H19.25V13.25H17.75V10.75ZM19.25 7V9.25H17.75V6.75H19C19.14 6.75 19.25 6.86 19.25 7ZM19 17.25H17.75V14.75H19.25V17C19.25 17.14 19.14 17.25 19 17.25Z" fill="black"/>
<path d="M2.25 6V18C2.25 20.07 3.93 21.75 6 21.75H6.25V2.25H6C3.93 2.25 2.25 3.93 2.25 6Z" fill="black"/>
</svg>
