<svg width="24" height="24" viewBox="0 0 24 24" fill="none" xmlns="http://www.w3.org/2000/svg">
<path d="M16.48 3.94987C15.04 2.66987 13.11 2.05987 11.18 2.28987C8.25004 2.63987 5.78004 4.99986 5.33004 7.90986C5.00004 10.0399 5.65004 12.1399 7.13004 13.6699C7.76004 14.3199 8.12004 15.2299 8.21004 16.2399H15.76C15.84 15.0499 16.46 14.1099 16.99 13.5299C18.12 12.2899 18.74 10.6699 18.74 8.98986C18.74 7.05986 17.91 5.21987 16.47 3.93987L16.48 3.94987Z" fill="black"/>
<path d="M8.25004 18.9999C8.25004 20.5199 9.48004 21.7499 11 21.7499H13C14.52 21.7499 15.75 20.5199 15.75 18.9999V17.7499H8.25004V18.9999Z" fill="black"/>
</svg>
