<svg width="24" height="24" viewBox="0 0 24 24" fill="none" xmlns="http://www.w3.org/2000/svg">
<path d="M19 14.25H5C4.59 14.25 4.25 14.59 4.25 15V19C4.25 20.52 5.48 21.75 7 21.75H17C18.52 21.75 19.75 20.52 19.75 19V15C19.75 14.59 19.41 14.25 19 14.25Z" fill="black"/>
<path d="M7.75 12C7.75 11.59 7.41 11.25 7 11.25H3C2.59 11.25 2.25 11.59 2.25 12C2.25 12.41 2.59 12.75 3 12.75H7C7.41 12.75 7.75 12.41 7.75 12Z" fill="black"/>
<path d="M10 11.25C9.59 11.25 9.25 11.59 9.25 12C9.25 12.41 9.59 12.75 10 12.75H14C14.41 12.75 14.75 12.41 14.75 12C14.75 11.59 14.41 11.25 14 11.25H10Z" fill="black"/>
<path d="M21 11.25H17C16.59 11.25 16.25 11.59 16.25 12C16.25 12.41 16.59 12.75 17 12.75H21C21.41 12.75 21.75 12.41 21.75 12C21.75 11.59 21.41 11.25 21 11.25Z" fill="black"/>
<path d="M15 7.25H19.69C19.58 6.74 19.33 6.26 18.95 5.88L16.12 3.05C15.74 2.67 15.27 2.42 14.75 2.31V7C14.75 7.14 14.86 7.25 15 7.25Z" fill="black"/>
<path d="M19.75 9.75V8.75H15C14.04 8.75 13.25 7.96 13.25 7V2.25H7C5.48 2.25 4.25 3.48 4.25 5V9.75C4.25 9.75 4.33 9.75 4.37 9.75H19.75Z" fill="black"/>
</svg>
