<svg width="24" height="24" viewBox="0 0 24 24" fill="none" xmlns="http://www.w3.org/2000/svg">
<path d="M20.42 8.08006L17.75 7.41006V6.89006C17.75 5.92006 16.96 5.14006 16 5.14006C15.6 5.14006 15.22 5.18006 14.84 5.26006C13.55 5.54006 12.61 6.22006 12 6.84006C11.38 6.22006 10.45 5.54006 9.16 5.26006C8.78 5.18006 8.44 5.13006 8 5.14006C7.03 5.14006 6.25 5.93006 6.25 6.89006V7.41006L3.58 8.08006C2.8 8.28006 2.25 8.97006 2.25 9.78006V17.0001C2.25 17.9601 3.04 18.7501 4 18.7501H20C20.96 18.7501 21.75 17.9601 21.75 17.0001V9.78006C21.75 8.98006 21.21 8.28006 20.42 8.08006ZM15.15 6.73006C15.42 6.67006 15.7 6.64006 15.98 6.64006C16.12 6.64006 16.25 6.75006 16.25 6.89006V14.9001C16.25 14.9901 16.2 15.0501 16.18 15.0801C16.15 15.1101 16.1 15.1501 16.02 15.1501C15.62 15.1401 15.23 15.1901 14.85 15.2701C14 15.4501 13.31 15.8201 12.76 16.2201V8.26006C13.18 7.74006 13.97 6.99006 15.17 6.74006L15.15 6.73006ZM7.74 6.90006C7.74 6.76006 7.85 6.65006 8 6.65006C8.27 6.66006 8.56 6.68006 8.84 6.74006C10.03 7.00006 10.82 7.74006 11.25 8.26006V16.2201C10.7 15.8201 10.01 15.4501 9.16 15.2701C8.79 15.1901 8.4 15.1501 8.01 15.1501H7.99C7.91 15.1501 7.86 15.1101 7.83 15.0801C7.8 15.0501 7.76 14.9901 7.76 14.9001V6.90006H7.74ZM3.75 17.0001V9.78006C3.75 9.66006 3.83 9.57006 3.94 9.54006L6.25 8.96006V14.9001C6.25 15.3701 6.43 15.8101 6.76 16.1401C7.09 16.4701 7.56 16.6601 7.99 16.6401C8.28 16.6501 8.57 16.6701 8.84 16.7301C9.33 16.8401 9.75 17.0201 10.11 17.2501H4C3.86 17.2501 3.75 17.1401 3.75 17.0001ZM20.25 17.0001C20.25 17.1401 20.14 17.2501 20 17.2501H13.89C14.25 17.0301 14.67 16.8401 15.16 16.7301C15.43 16.6701 15.71 16.6301 16.01 16.6401C16.49 16.6701 16.91 16.4601 17.24 16.1401C17.57 15.8101 17.75 15.3701 17.75 14.9001V8.96006L20.06 9.54006C20.17 9.57006 20.25 9.67006 20.25 9.78006V17.0001Z" fill="black"/>
</svg>
