<svg width="24" height="24" viewBox="0 0 24 24" fill="none" xmlns="http://www.w3.org/2000/svg">
<path d="M20.94 3.05982C19.87 1.98982 18.12 1.98982 17.05 3.05982L10.69 9.41982C10.59 9.51982 10.51 9.65982 10.48 9.79982L9.77 13.3398C9.72 13.5898 9.8 13.8398 9.98 14.0198C10.12 14.1598 10.31 14.2398 10.51 14.2398C10.56 14.2398 10.61 14.2398 10.66 14.2298L14.2 13.5198C14.34 13.4898 14.48 13.4198 14.58 13.3098L20.94 6.94982C22.01 5.87982 22.01 4.12982 20.94 3.05982Z" fill="black"/>
<path d="M14.5 14.9798L10.96 15.6898C10.81 15.7198 10.67 15.7298 10.52 15.7298C9.92 15.7298 9.35 15.4898 8.93 15.0698C8.4 14.5398 8.17 13.7798 8.32 13.0398L9.03 9.49982C9.12 9.05982 9.33 8.65982 9.65 8.34982L13.76 4.23982H6C3.93 4.23982 2.25 5.91982 2.25 7.98982V17.9898C2.25 20.0598 3.93 21.7398 6 21.7398H16C18.07 21.7398 19.75 20.0598 19.75 17.9898V10.2498L15.64 14.3598C15.33 14.6698 14.93 14.8898 14.49 14.9698L14.5 14.9798Z" fill="black"/>
</svg>
