<svg width="24" height="24" viewBox="0 0 24 24" fill="none" xmlns="http://www.w3.org/2000/svg">
<path d="M21.24 5.18001L18.83 2.77001C18.5 2.44001 18.05 2.26001 17.59 2.26001H14C13.04 2.26001 12.25 3.05001 12.25 4.01001V12C12.25 12.96 13.04 13.75 14 13.75H20C20.96 13.75 21.75 12.96 21.75 12V6.41001C21.75 5.95001 21.56 5.50001 21.24 5.17001V5.18001Z" fill="black"/>
<path d="M8.81999 10.76C8.48999 10.43 8.03999 10.25 7.57999 10.25H3.98999C3.02999 10.25 2.23999 11.04 2.23999 12V20C2.23999 20.96 3.02999 21.75 3.98999 21.75H9.98999C10.95 21.75 11.74 20.96 11.74 20V14.41C11.74 13.95 11.55 13.5 11.23 13.17L8.81999 10.76Z" fill="black"/>
<path d="M19 15.25C18.59 15.25 18.25 15.59 18.25 16V17C18.25 17.14 18.14 17.25 18 17.25H15.81L16.53 16.53C16.82 16.24 16.82 15.76 16.53 15.47C16.24 15.18 15.76 15.18 15.47 15.47L13.47 17.47C13.18 17.76 13.18 18.24 13.47 18.53L15.47 20.53C15.62 20.68 15.81 20.75 16 20.75C16.19 20.75 16.38 20.68 16.53 20.53C16.82 20.24 16.82 19.76 16.53 19.47L15.81 18.75H18C18.96 18.75 19.75 17.96 19.75 17V16C19.75 15.59 19.41 15.25 19 15.25Z" fill="black"/>
<path d="M4.99999 8.75001C5.40999 8.75001 5.74999 8.41001 5.74999 8.00001V7.00001C5.74999 6.86001 5.85999 6.75001 5.99999 6.75001H8.18999L7.46999 7.47001C7.17999 7.76001 7.17999 8.24001 7.46999 8.53001C7.61999 8.68001 7.80999 8.75001 7.99999 8.75001C8.18999 8.75001 8.37999 8.68001 8.52999 8.53001L10.53 6.53001C10.82 6.24001 10.82 5.76001 10.53 5.47001L8.52999 3.47001C8.23999 3.18001 7.75999 3.18001 7.46999 3.47001C7.17999 3.76001 7.17999 4.24001 7.46999 4.53001L8.18999 5.25001H5.99999C5.03999 5.25001 4.24999 6.04001 4.24999 7.00001V8.00001C4.24999 8.41001 4.58999 8.75001 4.99999 8.75001Z" fill="black"/>
</svg>
