<svg width="24" height="24" viewBox="0 0 24 24" fill="none" xmlns="http://www.w3.org/2000/svg">
<path d="M17 2.25H7C5.48 2.25 4.25 3.48 4.25 5V19C4.25 20.52 5.48 21.75 7 21.75H13.25V17C13.25 16.04 14.04 15.25 15 15.25H19.75V5C19.75 3.48 18.52 2.25 17 2.25ZM12 13.75H9C8.59 13.75 8.25 13.41 8.25 13C8.25 12.59 8.59 12.25 9 12.25H12C12.41 12.25 12.75 12.59 12.75 13C12.75 13.41 12.41 13.75 12 13.75ZM15 9.75H9C8.59 9.75 8.25 9.41 8.25 9C8.25 8.59 8.59 8.25 9 8.25H15C15.41 8.25 15.75 8.59 15.75 9C15.75 9.41 15.41 9.75 15 9.75Z" fill="black"/>
<path d="M14.75 17V21.69C15.26 21.58 15.74 21.33 16.12 20.95L18.95 18.12C19.33 17.74 19.58 17.27 19.69 16.75H15C14.86 16.75 14.75 16.86 14.75 17Z" fill="black"/>
</svg>
