<svg width="24" height="24" viewBox="0 0 24 24" fill="none" xmlns="http://www.w3.org/2000/svg">
<path d="M19 6.25H12.07C11.65 6.25 11.26 6.04 11.03 5.69L10.22 4.47C9.71 3.7 8.85 3.25 7.93 3.25H5C3.48 3.25 2.25 4.48 2.25 6V17C2.25 18.52 3.48 19.75 5 19.75H19C20.52 19.75 21.75 18.52 21.75 17V9C21.75 7.48 20.52 6.25 19 6.25ZM14.53 13.53C14.38 13.68 14.19 13.75 14 13.75C13.81 13.75 13.62 13.68 13.47 13.53L12.75 12.81V15C12.75 15.41 12.41 15.75 12 15.75C11.59 15.75 11.25 15.41 11.25 15V12.81L10.53 13.53C10.24 13.82 9.76 13.82 9.47 13.53C9.18 13.24 9.18 12.76 9.47 12.47L11.47 10.47C11.54 10.4 11.62 10.35 11.71 10.31C11.89 10.23 12.1 10.23 12.28 10.31C12.37 10.35 12.45 10.4 12.52 10.47L14.52 12.47C14.81 12.76 14.81 13.24 14.52 13.53H14.53Z" fill="black"/>
</svg>
