<svg width="24" height="24" viewBox="0 0 24 24" fill="none" xmlns="http://www.w3.org/2000/svg">
<path d="M18.94 5.87999L16.11 3.04999C15.59 2.52999 14.9 2.23999 14.17 2.23999H8C5.93 2.23999 4.25 3.91999 4.25 5.98999V17.99C4.25 20.06 5.93 21.74 8 21.74H16C18.07 21.74 19.75 20.06 19.75 17.99V7.82999C19.75 7.09999 19.46 6.40999 18.94 5.88999V5.87999ZM18.25 18C18.25 19.24 17.24 20.25 16 20.25H8C6.76 20.25 5.75 19.24 5.75 18V5.99999C5.75 4.75999 6.76 3.74999 8 3.74999H14.17C14.5 3.74999 14.82 3.87999 15.05 4.11999L17.88 6.94999C18.11 7.17999 18.25 7.49999 18.25 7.82999V18Z" fill="black"/>
<path d="M9.87 8.24999C9.22 8.24999 8.63 8.59999 8.33 9.16999C8.02 9.73999 8.06 10.43 8.42 10.97L10.55 14.17C10.88 14.66 11.42 14.95 12.01 14.95C12.6 14.95 13.14 14.66 13.47 14.17L15.6 10.97C15.96 10.43 15.99 9.73999 15.69 9.16999C15.39 8.59999 14.79 8.24999 14.15 8.24999H9.87ZM14.34 10.14L12.21 13.34C12.08 13.53 11.92 13.53 11.79 13.34L9.66 10.14C9.59 10.03 9.62 9.92999 9.65 9.87999C9.68 9.82999 9.74 9.74999 9.87 9.74999H14.13C14.26 9.74999 14.32 9.82999 14.35 9.87999C14.38 9.92999 14.41 10.03 14.34 10.14Z" fill="black"/>
</svg>
