<svg width="24" height="24" viewBox="0 0 24 24" fill="none" xmlns="http://www.w3.org/2000/svg">
<path d="M18 2.25H6C3.93 2.25 2.25 3.93 2.25 6V18C2.25 20.07 3.93 21.75 6 21.75H14.25V17C14.25 15.48 15.48 14.25 17 14.25H21.75V6C21.75 3.93 20.07 2.25 18 2.25ZM12 15.75H7C6.59 15.75 6.25 15.41 6.25 15C6.25 14.59 6.59 14.25 7 14.25H12C12.41 14.25 12.75 14.59 12.75 15C12.75 15.41 12.41 15.75 12 15.75ZM17 9.75H7C6.59 9.75 6.25 9.41 6.25 9C6.25 8.59 6.59 8.25 7 8.25H17C17.41 8.25 17.75 8.59 17.75 9C17.75 9.41 17.41 9.75 17 9.75Z" fill="black"/>
<path d="M15.75 17V21.6C16.37 21.43 16.94 21.12 17.41 20.65L20.65 17.41C21.12 16.94 21.43 16.37 21.6 15.75H17C16.31 15.75 15.75 16.31 15.75 17Z" fill="black"/>
</svg>
