<svg width="24" height="24" viewBox="0 0 24 24" fill="none" xmlns="http://www.w3.org/2000/svg">
<path d="M19.75 10.3V5C19.75 3.48 18.52 2.25 17 2.25H7C5.48 2.25 4.25 3.48 4.25 5V19C4.25 20.52 5.48 21.75 7 21.75H17C18.52 21.75 19.75 20.52 19.75 19V14.7C20.32 14.58 20.75 14.1 20.75 13.5V11.5C20.75 10.9 20.32 10.42 19.75 10.3ZM17.5 13.25C17.09 13.25 16.75 12.91 16.75 12.5C16.75 12.09 17.09 11.75 17.5 11.75H19.25V13.25H17.5ZM17 20.25H7C6.31 20.25 5.75 19.69 5.75 19V5C5.75 4.31 6.31 3.75 7 3.75H17C17.69 3.75 18.25 4.31 18.25 5V10.25H17.5C16.26 10.25 15.25 11.26 15.25 12.5C15.25 13.74 16.26 14.75 17.5 14.75H18.25V19C18.25 19.69 17.69 20.25 17 20.25Z" fill="black"/>
<path d="M14 7.25H10C9.59 7.25 9.25 7.59 9.25 8C9.25 8.41 9.59 8.75 10 8.75H14C14.41 8.75 14.75 8.41 14.75 8C14.75 7.59 14.41 7.25 14 7.25Z" fill="black"/>
</svg>
