<svg width="24" height="24" viewBox="0 0 24 24" fill="none" xmlns="http://www.w3.org/2000/svg">
<path d="M17 2.25H7C4.38 2.25 2.25 4.38 2.25 7V17C2.25 19.62 4.38 21.75 7 21.75H17C19.62 21.75 21.75 19.62 21.75 17V7C21.75 4.38 19.62 2.25 17 2.25ZM20.25 17C20.25 18.79 18.79 20.25 17 20.25H7C5.21 20.25 3.75 18.79 3.75 17V7C3.75 5.21 5.21 3.75 7 3.75H17C18.79 3.75 20.25 5.21 20.25 7V17Z" fill="black"/>
<path d="M8 5.25C6.48 5.25 5.25 6.48 5.25 8C5.25 9.52 6.48 10.75 8 10.75C9.52 10.75 10.75 9.52 10.75 8C10.75 6.48 9.52 5.25 8 5.25ZM8 9.25C7.31 9.25 6.75 8.69 6.75 8C6.75 7.31 7.31 6.75 8 6.75C8.69 6.75 9.25 7.31 9.25 8C9.25 8.69 8.69 9.25 8 9.25Z" fill="black"/>
<path d="M18 7.25H13C12.59 7.25 12.25 7.59 12.25 8C12.25 8.41 12.59 8.75 13 8.75H18C18.41 8.75 18.75 8.41 18.75 8C18.75 7.59 18.41 7.25 18 7.25Z" fill="black"/>
<path d="M8 13.25C6.48 13.25 5.25 14.48 5.25 16C5.25 17.52 6.48 18.75 8 18.75C9.52 18.75 10.75 17.52 10.75 16C10.75 14.48 9.52 13.25 8 13.25ZM8 17.25C7.31 17.25 6.75 16.69 6.75 16C6.75 15.31 7.31 14.75 8 14.75C8.69 14.75 9.25 15.31 9.25 16C9.25 16.69 8.69 17.25 8 17.25Z" fill="black"/>
<path d="M18 15.25H13C12.59 15.25 12.25 15.59 12.25 16C12.25 16.41 12.59 16.75 13 16.75H18C18.41 16.75 18.75 16.41 18.75 16C18.75 15.59 18.41 15.25 18 15.25Z" fill="black"/>
</svg>
