<svg width="24" height="24" viewBox="0 0 24 24" fill="none" xmlns="http://www.w3.org/2000/svg">
<path d="M19.45 17.6C19.45 17.6 19.48 17.57 19.49 17.56C19.51 17.54 19.54 17.52 19.56 17.49C19.6 17.44 19.63 17.4 19.66 17.34C19.67 17.31 19.69 17.29 19.7 17.26C19.73 17.18 19.75 17.1 19.75 17.01V4C19.75 3.04 18.96 2.25 18 2.25H6C4.48 2.25 3.25 3.48 3.25 5V19C3.25 20.52 4.48 21.75 6 21.75H19C19.32 21.75 19.61 21.54 19.71 21.24C19.81 20.94 19.71 20.6 19.45 20.4C19.38 20.35 18.75 19.85 18.75 19C18.75 18.91 18.77 18.11 19.45 17.6ZM6 3.75H18C18.14 3.75 18.25 3.86 18.25 4V16.25H6C5.55 16.25 5.13 16.37 4.75 16.56V5C4.75 4.31 5.31 3.75 6 3.75ZM17.51 20.25H6C5.31 20.25 4.75 19.69 4.75 19C4.75 18.31 5.31 17.75 6 17.75H17.51C17.27 18.33 17.25 18.85 17.25 19C17.25 19.48 17.36 19.9 17.51 20.25Z" fill="black"/>
<path d="M9 8.75H14C14.41 8.75 14.75 8.41 14.75 8C14.75 7.59 14.41 7.25 14 7.25H9C8.59 7.25 8.25 7.59 8.25 8C8.25 8.41 8.59 8.75 9 8.75Z" fill="black"/>
</svg>
