<svg width="24" height="24" viewBox="0 0 24 24" fill="none" xmlns="http://www.w3.org/2000/svg">
<path d="M19 4.25H15.62C15.52 4.25 15.44 4.2 15.4 4.11L14.95 3.22C14.65 2.62 14.05 2.25 13.38 2.25H12C11.04 2.25 10.25 3.04 10.25 4V9C10.25 9.96 11.04 10.75 12 10.75H19C19.96 10.75 20.75 9.96 20.75 9V6C20.75 5.04 19.96 4.25 19 4.25Z" fill="black"/>
<path d="M19 15.25H15.62C15.52 15.25 15.44 15.2 15.4 15.11L14.95 14.22C14.65 13.62 14.05 13.25 13.38 13.25H12C11.04 13.25 10.25 14.04 10.25 15V20C10.25 20.96 11.04 21.75 12 21.75H19C19.96 21.75 20.75 20.96 20.75 20V17C20.75 16.04 19.96 15.25 19 15.25Z" fill="black"/>
<path d="M8 7.75C8.41 7.75 8.75 7.41 8.75 7C8.75 6.59 8.41 6.25 8 6.25H4.75V3C4.75 2.59 4.41 2.25 4 2.25C3.59 2.25 3.25 2.59 3.25 3V17C3.25 17.96 4.04 18.75 5 18.75H8C8.41 18.75 8.75 18.41 8.75 18C8.75 17.59 8.41 17.25 8 17.25H5C4.86 17.25 4.75 17.14 4.75 17V7.75H8Z" fill="black"/>
</svg>
