<svg width="24" height="24" viewBox="0 0 24 24" fill="none" xmlns="http://www.w3.org/2000/svg">
<path d="M21.6999 15.96L19.1099 5.99003C18.8699 5.06003 17.9099 4.50003 16.9799 4.74003L8.00993 7.07003C7.55993 7.19003 7.17993 7.47003 6.93993 7.88003C6.69993 8.28003 6.63993 8.75003 6.75993 9.21003L8.45993 15.77L3.96993 14.6C3.86993 14.58 3.81993 14.51 3.79993 14.47C3.77993 14.43 3.74993 14.36 3.76993 14.26L6.07993 5.34003C6.11993 5.19003 6.26993 5.10003 6.41993 5.14003L8.65993 5.72003C9.05993 5.82003 9.46993 5.58003 9.56993 5.18003C9.66993 4.78003 9.42993 4.37003 9.02993 4.27003L6.78993 3.69003C5.82993 3.44003 4.86993 4.02003 4.62993 4.96003L2.30993 13.89C2.18993 14.35 2.25993 14.83 2.49993 15.24C2.73993 15.65 3.12993 15.94 3.57993 16.06L8.87993 17.44L9.32993 19.18C9.44993 19.63 9.72993 20.01 10.1399 20.25C10.4099 20.41 10.7199 20.49 11.0199 20.49C11.1699 20.49 11.3199 20.47 11.4599 20.43L20.4399 18.1C21.3699 17.86 21.9399 16.9 21.6899 15.97L21.6999 15.96ZM20.0699 16.64L11.0899 18.97C10.9999 18.99 10.9299 18.97 10.8999 18.94C10.8699 18.92 10.8099 18.87 10.7799 18.79L8.18993 8.82003C8.16993 8.73003 8.18993 8.66003 8.21993 8.63003C8.23993 8.59003 8.28993 8.54003 8.36993 8.52003L17.3399 6.19003C17.3399 6.19003 17.3799 6.19003 17.3999 6.19003C17.5099 6.19003 17.6099 6.27003 17.6399 6.38003L20.2299 16.35C20.2599 16.48 20.1799 16.62 20.0499 16.65L20.0699 16.64Z" fill="black"/>
<path d="M16.0699 9.53003L11.1099 10.82C10.7099 10.92 10.4699 11.33 10.5699 11.73C10.6599 12.07 10.9599 12.29 11.2899 12.29C11.3499 12.29 11.4199 12.29 11.4799 12.27L16.4399 10.98C16.8399 10.88 17.0799 10.47 16.9799 10.07C16.8799 9.67003 16.4699 9.43003 16.0699 9.53003Z" fill="black"/>
<path d="M14.8099 13.7L12.0499 14.42C11.6499 14.52 11.4099 14.93 11.5099 15.33C11.5999 15.67 11.8999 15.89 12.2299 15.89C12.2899 15.89 12.3599 15.89 12.4199 15.87L15.1799 15.15C15.5799 15.05 15.8199 14.64 15.7199 14.24C15.6199 13.84 15.2099 13.6 14.8099 13.7Z" fill="black"/>
</svg>
