<svg width="24" height="24" viewBox="0 0 24 24" fill="none" xmlns="http://www.w3.org/2000/svg">
<path d="M5.53006 9.47C5.32006 9.26 4.99006 9.19 4.71006 9.31C4.43006 9.43 4.25006 9.7 4.25006 10V18C4.25006 20.07 5.93006 21.75 8.00006 21.75H16.0001C16.3001 21.75 16.5801 21.57 16.6901 21.29C16.8101 21.01 16.7401 20.69 16.5301 20.47L5.53006 9.47Z" fill="black"/>
<path d="M21.5301 20.47L19.7501 18.69V7.83C19.7501 7.1 19.4601 6.4 18.9401 5.89L16.1101 3.06C15.5901 2.54 14.9001 2.25 14.1701 2.25H8.00006C6.76006 2.25 5.61006 2.88 4.92006 3.86L3.53006 2.47C3.24006 2.18 2.76006 2.18 2.47006 2.47C2.18006 2.76 2.18006 3.24 2.47006 3.53L20.4601 21.53C20.6101 21.68 20.8001 21.75 20.9901 21.75C21.1801 21.75 21.3701 21.68 21.5201 21.53C21.8101 21.24 21.8101 20.76 21.5201 20.47H21.5301Z" fill="black"/>
</svg>
