<svg width="24" height="24" viewBox="0 0 24 24" fill="none" xmlns="http://www.w3.org/2000/svg">
<path d="M17 3.25H7C4.38 3.25 2.25 5.38 2.25 8V21C2.25 21.41 2.59 21.75 3 21.75C3.41 21.75 3.75 21.41 3.75 21V19.75H10.25V21C10.25 21.41 10.59 21.75 11 21.75C11.41 21.75 11.75 21.41 11.75 21V19.75H20.25V21C20.25 21.41 20.59 21.75 21 21.75C21.41 21.75 21.75 21.41 21.75 21V8C21.75 5.38 19.62 3.25 17 3.25ZM20.25 8V18.25H11.75V8C11.75 6.74 11.25 5.6 10.45 4.75H17C18.79 4.75 20.25 6.21 20.25 8ZM3.75 8C3.75 6.21 5.21 4.75 7 4.75C8.79 4.75 10.25 6.21 10.25 8V18.25H3.75V8Z" fill="black"/>
<path d="M15 16.75H17C17.96 16.75 18.75 15.96 18.75 15V14C18.75 13.04 17.96 12.25 17 12.25H15C14.04 12.25 13.25 13.04 13.25 14V15C13.25 15.96 14.04 16.75 15 16.75ZM14.75 14C14.75 13.86 14.86 13.75 15 13.75H17C17.14 13.75 17.25 13.86 17.25 14V15C17.25 15.14 17.14 15.25 17 15.25H15C14.86 15.25 14.75 15.14 14.75 15V14Z" fill="black"/>
<path d="M14 10.75H18C18.41 10.75 18.75 10.41 18.75 10C18.75 9.59 18.41 9.25 18 9.25H14C13.59 9.25 13.25 9.59 13.25 10C13.25 10.41 13.59 10.75 14 10.75Z" fill="black"/>
</svg>
