<svg width="24" height="24" viewBox="0 0 24 24" fill="none" xmlns="http://www.w3.org/2000/svg">
<path d="M18 4.25H9C7.17 4.25 5.64 5.58 5.32 7.32C3.58 7.64 2.25 9.17 2.25 11V15C2.25 17.07 3.93 18.75 6 18.75H15C16.83 18.75 18.36 17.42 18.68 15.68C20.42 15.36 21.75 13.83 21.75 12V8C21.75 5.93 20.07 4.25 18 4.25ZM15 17.25H6C4.76 17.25 3.75 16.24 3.75 15V11C3.75 9.76 4.76 8.75 6 8.75H15C16.24 8.75 17.25 9.76 17.25 11V15C17.25 16.24 16.24 17.25 15 17.25ZM20.25 12C20.25 12.98 19.62 13.8 18.75 14.11V11C18.75 8.93 17.07 7.25 15 7.25H6.89C7.2 6.38 8.03 5.75 9 5.75H18C19.24 5.75 20.25 6.76 20.25 8V12Z" fill="black"/>
<path d="M13.54 12.19L11.88 13.48C11.07 14.11 9.93 14.11 9.12 13.48L7.46 12.19C7.13 11.94 6.66 12 6.41 12.32C6.16 12.65 6.21 13.12 6.54 13.37L8.2 14.66C8.88 15.19 9.69 15.45 10.5 15.45C11.31 15.45 12.13 15.19 12.8 14.66L14.46 13.37C14.79 13.12 14.85 12.64 14.59 12.32C14.34 11.99 13.87 11.93 13.54 12.19Z" fill="black"/>
</svg>
