<svg width="24" height="24" viewBox="0 0 24 24" fill="none" xmlns="http://www.w3.org/2000/svg">
<path d="M21.73 10.1203C21.75 10.0103 21.74 9.89031 21.71 9.78031C21.53 8.28031 20.64 6.95031 19.31 6.20031L14.31 3.42031C12.86 2.62031 11.14 2.62031 9.70001 3.42031L4.70001 6.20031C3.36001 6.94031 2.48001 8.28031 2.30001 9.78031C2.26001 9.89031 2.26001 10.0103 2.28001 10.1203C2.28001 10.2003 2.26001 10.2703 2.26001 10.3503V16.0003C2.26001 18.6203 4.39001 20.7503 7.01001 20.7503H17.01C19.63 20.7503 21.76 18.6203 21.76 16.0003V10.3503C21.76 10.2703 21.75 10.2003 21.74 10.1203H21.73ZM5.42001 7.51031L10.42 4.73031C10.91 4.46031 11.46 4.32031 12 4.32031C12.54 4.32031 13.08 4.46031 13.58 4.73031L18.58 7.51031C19.41 7.97031 19.99 8.78031 20.18 9.69031L17.76 11.5803V10.0003C17.76 9.04031 16.97 8.25031 16.01 8.25031H8.00001C7.04001 8.25031 6.25001 9.04031 6.25001 10.0003V11.5803L3.83001 9.69031C4.02001 8.78031 4.59001 7.97031 5.43001 7.51031H5.42001ZM16.25 12.7403L14 14.4903C12.83 15.4003 11.18 15.4003 10.01 14.4903L7.76001 12.7403V10.0003C7.76001 9.86031 7.87001 9.75031 8.01001 9.75031H16.01C16.15 9.75031 16.26 9.86031 16.26 10.0003V12.7403H16.25ZM17 19.2503H7.00001C5.21001 19.2503 3.75001 17.7903 3.75001 16.0003V11.5303L9.08001 15.6803C9.94001 16.3503 10.97 16.6803 12 16.6803C13.03 16.6803 14.06 16.3503 14.92 15.6803L20.25 11.5303V16.0003C20.25 17.7903 18.79 19.2503 17 19.2503Z" fill="black"/>
</svg>
