<svg width="24" height="24" viewBox="0 0 24 24" fill="none" xmlns="http://www.w3.org/2000/svg">
<path d="M9.05 10.6003C10.2 11.4603 11.8 11.4603 12.95 10.6003L18.05 6.78025L18.79 6.17025C17.92 5.02025 16.56 4.26025 15 4.26025H7C5.45 4.26025 4.09 5.02025 3.22 6.17025L3.88 6.74025L9.05 10.6203V10.6003Z" fill="black"/>
<path d="M17.5 13.2503C15.16 13.2503 13.25 15.1603 13.25 17.5003C13.25 19.8403 15.16 21.7503 17.5 21.7503C19.84 21.7503 21.75 19.8403 21.75 17.5003C21.75 15.1603 19.84 13.2503 17.5 13.2503ZM19.17 16.8403L18.17 18.8403C18.06 19.0603 17.86 19.2103 17.62 19.2403C17.58 19.2403 17.54 19.2403 17.5 19.2403C17.3 19.2403 17.11 19.1603 16.97 19.0203L15.97 18.0203C15.68 17.7303 15.68 17.2503 15.97 16.9603C16.26 16.6703 16.74 16.6703 17.03 16.9603L17.29 17.2203L17.82 16.1503C18.01 15.7803 18.46 15.6303 18.83 15.8103C19.2 16.0003 19.35 16.4503 19.17 16.8203V16.8403Z" fill="black"/>
<path d="M17.5 12.2503C18.31 12.2503 19.07 12.4503 19.75 12.7803V9.00025C19.75 8.48025 19.65 7.99025 19.49 7.53025L18.98 7.96025L13.85 11.8103C13.01 12.4403 12.01 12.7503 11 12.7503C9.99 12.7503 8.99 12.4403 8.15 11.8103L2.94 7.89025L2.51 7.52025C2.36 7.99025 2.25 8.48025 2.25 9.00025V12.0003C2.25 14.6203 4.38 16.7503 7 16.7503H12.33C12.7 14.2103 14.87 12.2503 17.5 12.2503Z" fill="black"/>
</svg>
