<svg width="24" height="24" viewBox="0 0 24 24" fill="none" xmlns="http://www.w3.org/2000/svg">
<path d="M19.75 13.91V9C19.75 6.38 17.62 4.25 15 4.25H7C5.17 4.25 3.59 5.31 2.8 6.83H2.79C2.79 6.83 2.76 6.9 2.75 6.93C2.44 7.56 2.25 8.26 2.25 9V12C2.25 14.62 4.38 16.75 7 16.75H13.33C13.29 16.99 13.25 17.24 13.25 17.5C13.25 19.84 15.16 21.75 17.5 21.75C19.84 21.75 21.75 19.84 21.75 17.5C21.75 15.98 20.95 14.66 19.75 13.91ZM7 5.75H15C16.08 5.75 17.03 6.28 17.62 7.1L12.95 10.6C11.8 11.46 10.2 11.46 9.05 10.6L4.38 7.1C4.97 6.29 5.92 5.75 7 5.75ZM7 15.25C5.21 15.25 3.75 13.79 3.75 12V9C3.75 8.84 3.77 8.69 3.8 8.53L8.15 11.79C8.99 12.42 9.99 12.73 11 12.73C12.01 12.73 13.01 12.42 13.85 11.79L18.2 8.53C18.22 8.68 18.25 8.84 18.25 9V13.33C18.01 13.29 17.76 13.25 17.5 13.25C15.99 13.25 14.66 14.05 13.91 15.25H7ZM17.5 20.25C15.98 20.25 14.75 19.02 14.75 17.5C14.75 15.98 15.98 14.75 17.5 14.75C19.02 14.75 20.25 15.98 20.25 17.5C20.25 19.02 19.02 20.25 17.5 20.25Z" fill="black"/>
<path d="M18.84 15.83C18.47 15.65 18.02 15.8 17.83 16.17L17.3 17.24L17.04 16.98C16.75 16.69 16.27 16.69 15.98 16.98C15.69 17.27 15.69 17.75 15.98 18.04L16.98 19.04C17.12 19.18 17.31 19.26 17.51 19.26C17.55 19.26 17.59 19.26 17.63 19.26C17.87 19.22 18.07 19.07 18.18 18.86L19.18 16.86C19.37 16.49 19.22 16.04 18.84 15.85V15.83Z" fill="black"/>
</svg>
