<svg width="24" height="24" viewBox="0 0 24 24" fill="none" xmlns="http://www.w3.org/2000/svg">
<path d="M16.08 12.78L20.29 16.27L20.86 16.76C21.42 15.98 21.75 15.04 21.75 14.01V10.01C21.75 9.51 21.65 9.04 21.51 8.59L21.06 8.92L16.08 12.79V12.78Z" fill="black"/>
<path d="M3.86 7.72L10 12.5C11.17 13.41 12.82 13.41 13.99 12.5L20.15 7.71L20.82 7.22C19.96 6.03 18.57 5.25 16.99 5.25H7C5.44 5.25 4.07 6.01 3.21 7.17L3.87 7.72H3.86Z" fill="black"/>
<path d="M19.32 17.41L14.86 13.71C14.01 14.35 13 14.68 12 14.68C11 14.68 9.98 14.35 9.13 13.71L4.17 17.8C4.96 18.39 5.93 18.75 6.99 18.75H16.99C18.04 18.75 19 18.4 19.79 17.82L19.32 17.41Z" fill="black"/>
<path d="M2.92 8.89L2.5 8.54C2.35 9 2.25 9.49 2.25 10V14C2.25 15.02 2.58 15.96 3.13 16.74L3.71 16.27L7.91 12.78L2.91 8.89H2.92Z" fill="black"/>
</svg>
