<svg width="24" height="24" viewBox="0 0 24 24" fill="none" xmlns="http://www.w3.org/2000/svg">
<path d="M18 5.25H6C3.93 5.25 2.25 6.93 2.25 9V15C2.25 17.07 3.93 18.75 6 18.75H18C20.07 18.75 21.75 17.07 21.75 15V9C21.75 6.93 20.07 5.25 18 5.25ZM20.25 15C20.25 16.24 19.24 17.25 18 17.25H6C4.76 17.25 3.75 16.24 3.75 15V9C3.75 7.76 4.76 6.75 6 6.75H18C19.24 6.75 20.25 7.76 20.25 9V15Z" fill="black"/>
<path d="M17 8.25H15C14.04 8.25 13.25 9.04 13.25 10V11C13.25 11.96 14.04 12.75 15 12.75H17C17.96 12.75 18.75 11.96 18.75 11V10C18.75 9.04 17.96 8.25 17 8.25ZM17.25 11C17.25 11.14 17.14 11.25 17 11.25H15C14.86 11.25 14.75 11.14 14.75 11V10C14.75 9.86 14.86 9.75 15 9.75H17C17.14 9.75 17.25 9.86 17.25 10V11Z" fill="black"/>
<path d="M6 12.75H9C9.41 12.75 9.75 12.41 9.75 12C9.75 11.59 9.41 11.25 9 11.25H6C5.59 11.25 5.25 11.59 5.25 12C5.25 12.41 5.59 12.75 6 12.75Z" fill="black"/>
<path d="M11 14.25H6C5.59 14.25 5.25 14.59 5.25 15C5.25 15.41 5.59 15.75 6 15.75H11C11.41 15.75 11.75 15.41 11.75 15C11.75 14.59 11.41 14.25 11 14.25Z" fill="black"/>
</svg>
