<svg width="24" height="24" viewBox="0 0 24 24" fill="none" xmlns="http://www.w3.org/2000/svg">
<path d="M18 5.25H6C3.93 5.25 2.25 6.93 2.25 9V15C2.25 17.07 3.93 18.75 6 18.75H18C20.07 18.75 21.75 17.07 21.75 15V9C21.75 6.93 20.07 5.25 18 5.25ZM6 11.25H9C9.41 11.25 9.75 11.59 9.75 12C9.75 12.41 9.41 12.75 9 12.75H6C5.59 12.75 5.25 12.41 5.25 12C5.25 11.59 5.59 11.25 6 11.25ZM11 15.75H6C5.59 15.75 5.25 15.41 5.25 15C5.25 14.59 5.59 14.25 6 14.25H11C11.41 14.25 11.75 14.59 11.75 15C11.75 15.41 11.41 15.75 11 15.75ZM18.75 11C18.75 11.96 17.96 12.75 17 12.75H15C14.04 12.75 13.25 11.96 13.25 11V10C13.25 9.04 14.04 8.25 15 8.25H17C17.96 8.25 18.75 9.04 18.75 10V11Z" fill="black"/>
<path d="M17 9.75H15C14.8619 9.75 14.75 9.86193 14.75 10V11C14.75 11.1381 14.8619 11.25 15 11.25H17C17.1381 11.25 17.25 11.1381 17.25 11V10C17.25 9.86193 17.1381 9.75 17 9.75Z" fill="black"/>
</svg>
