<svg width="24" height="24" viewBox="0 0 24 24" fill="none" xmlns="http://www.w3.org/2000/svg">
<path d="M4 7.25C4.16 7.25 4.32 7.3 4.45 7.4L7.65 9.8C8.04 10.09 8.52 10.25 9 10.25H11.25V9.63C10.1 9.3 9.25 8.25 9.25 7C9.25 5.48 10.48 4.25 12 4.25C13.52 4.25 14.75 5.48 14.75 7C14.75 8.25 13.9 9.3 12.75 9.63V10.25H15C15.48 10.25 15.96 10.09 16.35 9.8L19.55 7.4C19.68 7.3 19.84 7.25 20 7.25H20.7C20.33 4.43 17.92 2.25 15 2.25H9C6.08 2.25 3.67 4.43 3.3 7.25H4Z" fill="black"/>
<path d="M12 8.25C12.6904 8.25 13.25 7.69036 13.25 7C13.25 6.30964 12.6904 5.75 12 5.75C11.3096 5.75 10.75 6.30964 10.75 7C10.75 7.69036 11.3096 8.25 12 8.25Z" fill="black"/>
<path d="M12 16.25C12.6904 16.25 13.25 15.6904 13.25 15C13.25 14.3096 12.6904 13.75 12 13.75C11.3096 13.75 10.75 14.3096 10.75 15C10.75 15.6904 11.3096 16.25 12 16.25Z" fill="black"/>
<path d="M20.25 8.75L17.25 11C16.61 11.48 15.81 11.75 15 11.75H12.75V12.37C13.9 12.7 14.75 13.75 14.75 15C14.75 16.52 13.52 17.75 12 17.75C10.48 17.75 9.25 16.52 9.25 15C9.25 13.75 10.1 12.7 11.25 12.37V11.75H9C8.19 11.75 7.39 11.48 6.75 11L3.75 8.75H3.25V16C3.25 19.17 5.83 21.75 9 21.75H15C18.17 21.75 20.75 19.17 20.75 16V8.75H20.25Z" fill="black"/>
</svg>
