<svg width="24" height="24" viewBox="0 0 24 24" fill="none" xmlns="http://www.w3.org/2000/svg">
<path d="M12 13.92C13.0604 13.92 13.92 13.0604 13.92 12C13.92 10.9396 13.0604 10.08 12 10.08C10.9396 10.08 10.08 10.9396 10.08 12C10.08 13.0604 10.9396 13.92 12 13.92Z" fill="black"/>
<path d="M12 2.25C6.62 2.25 2.25 6.62 2.25 12C2.25 17.38 6.62 21.75 12 21.75C17.38 21.75 21.75 17.38 21.75 12C21.75 6.62 17.38 2.25 12 2.25ZM18.54 13.67C18.28 14.7 17.34 15.42 16.26 15.42C15.48 15.42 14.8 15.04 14.37 14.45C13.75 15.05 12.92 15.42 12 15.42C10.12 15.42 8.58 13.89 8.58 12C8.58 10.11 10.11 8.58 12 8.58C12.72 8.58 13.39 8.81 13.94 9.19C14.01 8.84 14.3 8.58 14.66 8.58C15.07 8.58 15.41 8.92 15.41 9.33V13.06C15.41 13.53 15.79 13.91 16.26 13.91C16.65 13.91 16.99 13.66 17.08 13.29C17.24 12.68 17.28 12.04 17.21 11.4C16.94 8.98 14.91 6.99 12.49 6.77C10.85 6.62 9.27 7.22 8.15 8.42C7.03 9.62 6.55 11.25 6.82 12.89C7.19 15.12 9.02 16.89 11.27 17.2C12.56 17.37 13.85 17.08 14.91 16.37C15.25 16.14 15.72 16.23 15.95 16.58C16.18 16.92 16.09 17.39 15.74 17.62C14.63 18.37 13.32 18.76 11.98 18.76C11.68 18.76 11.37 18.74 11.06 18.7C8.16 18.31 5.8 16.03 5.33 13.15C4.98 11.05 5.61 8.96 7.04 7.42C8.47 5.88 10.51 5.11 12.61 5.29C15.79 5.58 18.34 8.09 18.69 11.25C18.78 12.07 18.72 12.89 18.52 13.68L18.54 13.67Z" fill="black"/>
</svg>
