<svg width="24" height="24" viewBox="0 0 24 24" fill="none" xmlns="http://www.w3.org/2000/svg">
<path d="M20.5599 4.51003L9.29991 14.25L8.48991 14.88L10.2399 19.13C10.6999 20.25 11.7399 20.95 12.9599 20.95C14.1699 20.95 15.2099 20.26 15.6799 19.14L21.6599 4.76003C21.8299 4.36003 21.8299 3.94003 21.7099 3.54003L20.5599 4.52003V4.51003Z" fill="black"/>
<path d="M8.34991 13.09L20.7699 2.40003C20.3799 2.21003 19.9399 2.14003 19.4999 2.25003L4.40991 6.10003C3.22991 6.40003 2.39991 7.33003 2.21991 8.53003C2.03991 9.73003 2.58991 10.86 3.62991 11.48L7.46991 13.76L8.33991 13.09H8.34991Z" fill="black"/>
</svg>
