<svg width="24" height="24" viewBox="0 0 24 24" fill="none" xmlns="http://www.w3.org/2000/svg">
<path d="M21.25 4.18025L19.84 2.77025C19.16 2.09025 18.05 2.09025 17.36 2.77025L13.87 6.26025H8C4.83 6.26025 2.25 8.84025 2.25 12.0103V16.0103C2.25 19.1803 4.83 21.7603 8 21.7603H12C15.17 21.7603 17.75 19.1803 17.75 16.0103V10.1603L21.25 6.66025C21.58 6.33025 21.76 5.89025 21.76 5.42025C21.76 4.95025 21.58 4.51025 21.25 4.18025ZM10.58 15.2003C10.58 15.2003 10.47 15.2703 10.4 15.2703H8.99C8.85 15.2703 8.74 15.1603 8.74 15.0203V13.6103C8.74 13.5403 8.77 13.4803 8.81 13.4303L16.47 5.77025L18.24 7.54025L10.58 15.2003ZM16.25 16.0003C16.25 18.3403 14.34 20.2503 12 20.2503H8C5.66 20.2503 3.75 18.3403 3.75 16.0003V12.0003C3.75 9.66025 5.66 7.75025 8 7.75025H12.37L7.75 12.3703C7.42 12.7003 7.24 13.1403 7.24 13.6103V15.0203C7.24 15.9803 8.03 16.7703 8.99 16.7703H10.4C10.86 16.7703 11.31 16.5803 11.64 16.2603L16.25 11.6503V16.0003ZM20.19 5.59025L19.31 6.47025L17.54 4.70025L18.42 3.82025C18.42 3.82025 18.53 3.75025 18.6 3.75025C18.67 3.75025 18.73 3.77025 18.78 3.82025L20.19 5.23025C20.25 5.29025 20.26 5.37025 20.26 5.41025C20.26 5.45025 20.26 5.52025 20.19 5.59025Z" fill="black"/>
</svg>
