<svg width="24" height="24" viewBox="0 0 24 24" fill="none" xmlns="http://www.w3.org/2000/svg">
<path d="M20.36 6.3L17.7 3.64C16.8 2.74 15.61 2.25 14.34 2.25H9.64999C8.37999 2.25 7.18999 2.74 6.28999 3.64L3.62999 6.3C2.72999 7.2 2.23999 8.39 2.23999 9.66V14.35C2.23999 15.62 2.72999 16.81 3.62999 17.71L6.28999 20.37C7.18999 21.27 8.37999 21.76 9.64999 21.76H14.34C15.61 21.76 16.8 21.27 17.7 20.37L20.36 17.71C21.26 16.81 21.75 15.62 21.75 14.35V9.66C21.75 8.39 21.26 7.2 20.36 6.3ZM20.25 14.34C20.25 15.21 19.91 16.02 19.3 16.64L16.64 19.3C16.03 19.91 15.21 20.25 14.34 20.25H9.64999C8.77999 20.25 7.96999 19.91 7.34999 19.3L4.68999 16.64C4.07999 16.03 3.73999 15.21 3.73999 14.34V9.65C3.73999 8.78 4.07999 7.97 4.68999 7.35L7.34999 4.69C7.95999 4.08 8.77999 3.74 9.64999 3.74H14.34C15.21 3.74 16.02 4.08 16.64 4.69L19.3 7.35C19.91 7.96 20.25 8.78 20.25 9.65V14.34Z" fill="black"/>
<path d="M15 8.25H8.99999C7.47999 8.25 6.24999 9.48 6.24999 11V13C6.24999 14.52 7.47999 15.75 8.99999 15.75H15C16.52 15.75 17.75 14.52 17.75 13V11C17.75 9.48 16.52 8.25 15 8.25ZM16.25 13C16.25 13.69 15.69 14.25 15 14.25H8.99999C8.30999 14.25 7.74999 13.69 7.74999 13V11C7.74999 10.31 8.30999 9.75 8.99999 9.75H15C15.69 9.75 16.25 10.31 16.25 11V13Z" fill="black"/>
<path d="M13.76 10.62L12.08 11.18C12.03 11.2 11.97 11.2 11.92 11.18L10.24 10.62C9.83999 10.49 9.41999 10.7 9.28999 11.09C9.15999 11.48 9.36999 11.91 9.75999 12.04L11.44 12.6C11.62 12.66 11.81 12.69 11.99 12.69C12.17 12.69 12.37 12.66 12.54 12.6L14.22 12.04C14.61 11.91 14.83 11.48 14.69 11.09C14.56 10.7 14.14 10.49 13.74 10.62H13.76Z" fill="black"/>
</svg>
