<svg width="24" height="24" viewBox="0 0 24 24" fill="none" xmlns="http://www.w3.org/2000/svg">
<path d="M21.75 10.3503C21.75 10.2703 21.74 10.2003 21.73 10.1203C21.75 10.0103 21.74 9.89031 21.71 9.78031C21.53 8.28031 20.64 6.95031 19.31 6.20031L14.31 3.42031C12.87 2.62031 11.14 2.62031 9.70001 3.42031L4.70001 6.20031C3.36001 6.94031 2.48001 8.28031 2.30001 9.78031C2.26001 9.89031 2.26001 10.0103 2.28001 10.1203C2.28001 10.2003 2.26001 10.2703 2.26001 10.3503V16.0003C2.26001 17.2903 2.78001 18.4503 3.61001 19.3103V19.3303C4.48001 20.2003 5.68001 20.7503 7.00001 20.7503H17C18.32 20.7503 19.52 20.2103 20.38 19.3303H20.39V19.3103C21.23 18.4503 21.75 17.2903 21.75 16.0003V10.3503ZM20.25 16.0003C20.25 16.6603 20.05 17.2703 19.71 17.7903L16.08 14.7803L20.25 11.5403V16.0103V16.0003ZM5.42001 7.51031L10.42 4.73031C10.91 4.46031 11.46 4.32031 12 4.32031C12.54 4.32031 13.08 4.46031 13.58 4.73031L18.58 7.51031C19.41 7.97031 19.99 8.78031 20.18 9.69031L14 14.5003C12.83 15.4103 11.18 15.4103 10.01 14.5003L3.83001 9.69031C4.02001 8.78031 4.59001 7.97031 5.43001 7.51031H5.42001ZM4.29001 17.7803C3.95001 17.2703 3.75001 16.6503 3.75001 15.9903V11.5203L7.92001 14.7603L4.29001 17.7703V17.7803ZM7.00001 19.2403C6.42001 19.2403 5.88001 19.0703 5.40001 18.8003L9.13001 15.7003C9.98001 16.3403 10.99 16.6703 11.99 16.6703C12.99 16.6703 14.01 16.3403 14.85 15.7003L18.58 18.8003C18.11 19.0703 17.57 19.2403 16.98 19.2403H7.00001Z" fill="black"/>
</svg>
