<svg width="24" height="24" viewBox="0 0 24 24" fill="none" xmlns="http://www.w3.org/2000/svg">
<path d="M7 3.25C4.38 3.25 2.25 5.38 2.25 8V19C2.25 19.41 2.59 19.75 3 19.75H11C11.41 19.75 11.75 19.41 11.75 19V8C11.75 5.38 9.62 3.25 7 3.25Z" fill="black"/>
<path d="M18 13.75H16C15.8619 13.75 15.75 13.8619 15.75 14V15C15.75 15.1381 15.8619 15.25 16 15.25H18C18.1381 15.25 18.25 15.1381 18.25 15V14C18.25 13.8619 18.1381 13.75 18 13.75Z" fill="black"/>
<path d="M17 3.25H10.23C11.75 4.29 12.75 6.03 12.75 8V19C12.75 19.27 12.68 19.52 12.57 19.75H21C21.41 19.75 21.75 19.41 21.75 19V8C21.75 5.38 19.62 3.25 17 3.25ZM19.75 15C19.75 15.96 18.96 16.75 18 16.75H16C15.04 16.75 14.25 15.96 14.25 15V14C14.25 13.04 15.04 12.25 16 12.25H18C18.96 12.25 19.75 13.04 19.75 14V15ZM19 10.75H15C14.59 10.75 14.25 10.41 14.25 10C14.25 9.59 14.59 9.25 15 9.25H19C19.41 9.25 19.75 9.59 19.75 10C19.75 10.41 19.41 10.75 19 10.75Z" fill="black"/>
<path d="M10.17 20.75L10.27 21.17C10.35 21.51 10.66 21.75 11 21.75C11.03 21.75 11.06 21.75 11.09 21.75C11.47 21.71 11.75 21.39 11.75 21V20.57C11.52 20.68 11.27 20.75 11 20.75H10.17Z" fill="black"/>
<path d="M20.25 20.75V21C20.25 21.41 20.59 21.75 21 21.75C21.41 21.75 21.75 21.41 21.75 21V20.57C21.52 20.68 21.27 20.75 21 20.75H20.25Z" fill="black"/>
<path d="M2.25 20.57V21C2.25 21.41 2.59 21.75 3 21.75C3.41 21.75 3.75 21.41 3.75 21V20.75H3C2.73 20.75 2.48 20.68 2.25 20.57Z" fill="black"/>
</svg>
