<svg width="24" height="24" viewBox="0 0 24 24" fill="none" xmlns="http://www.w3.org/2000/svg">
<path d="M6.88 14.25C7.86 14.25 8.73 14.79 9.17 15.66C9.35 16.02 9.71 16.25 10.12 16.25H13.88C14.28 16.25 14.65 16.03 14.83 15.66C15.27 14.79 16.14 14.25 17.12 14.25H20.75V8C20.75 4.83 18.17 2.25 15 2.25H9C5.83 2.25 3.25 4.83 3.25 8V14.25H6.88ZM8 6.25H16C16.41 6.25 16.75 6.59 16.75 7C16.75 7.41 16.41 7.75 16 7.75H8C7.59 7.75 7.25 7.41 7.25 7C7.25 6.59 7.59 6.25 8 6.25ZM8 10.25H16C16.41 10.25 16.75 10.59 16.75 11C16.75 11.41 16.41 11.75 16 11.75H8C7.59 11.75 7.25 11.41 7.25 11C7.25 10.59 7.59 10.25 8 10.25Z" fill="black"/>
<path d="M17.12 15.75C16.72 15.75 16.35 15.97 16.17 16.34C15.73 17.21 14.86 17.75 13.88 17.75H10.12C9.14 17.75 8.27 17.21 7.83 16.34C7.65 15.98 7.29 15.75 6.88 15.75H3.25V16C3.25 19.17 5.83 21.75 9 21.75H15C18.17 21.75 20.75 19.17 20.75 16V15.75H17.12Z" fill="black"/>
</svg>
