<svg width="24" height="24" viewBox="0 0 24 24" fill="none" xmlns="http://www.w3.org/2000/svg">
<path d="M8 3.75H16C16.41 3.75 16.75 3.41 16.75 3C16.75 2.59 16.41 2.25 16 2.25H8C7.59 2.25 7.25 2.59 7.25 3C7.25 3.41 7.59 3.75 8 3.75Z" fill="black"/>
<path d="M20 5.25H4C3.59 5.25 3.25 5.59 3.25 6C3.25 6.41 3.59 6.75 4 6.75H4.3L5 17.32C5.17 19.81 7.25 21.75 9.74 21.75H14.26C16.75 21.75 18.83 19.8 19 17.32L19.7 6.75H20C20.41 6.75 20.75 6.41 20.75 6C20.75 5.59 20.41 5.25 20 5.25ZM9.75 17C9.75 17.41 9.41 17.75 9 17.75C8.59 17.75 8.25 17.41 8.25 17V10C8.25 9.59 8.59 9.25 9 9.25C9.41 9.25 9.75 9.59 9.75 10V17ZM12.75 17C12.75 17.41 12.41 17.75 12 17.75C11.59 17.75 11.25 17.41 11.25 17V10C11.25 9.59 11.59 9.25 12 9.25C12.41 9.25 12.75 9.59 12.75 10V17ZM15.75 17C15.75 17.41 15.41 17.75 15 17.75C14.59 17.75 14.25 17.41 14.25 17V10C14.25 9.59 14.59 9.25 15 9.25C15.41 9.25 15.75 9.59 15.75 10V17Z" fill="black"/>
</svg>
