<svg width="24" height="24" viewBox="0 0 24 24" fill="none" xmlns="http://www.w3.org/2000/svg">
<path d="M11.75 18V13C11.75 10.38 9.62 8.25 7 8.25C4.38 8.25 2.25 10.38 2.25 13V16C2.25 17.52 3.48 18.75 5 18.75H11C11.41 18.75 11.75 18.41 11.75 18ZM8 13.75H6C5.59 13.75 5.25 13.41 5.25 13C5.25 12.59 5.59 12.25 6 12.25H8C8.41 12.25 8.75 12.59 8.75 13C8.75 13.41 8.41 13.75 8 13.75Z" fill="black"/>
<path d="M18 13.75C18.41 13.75 18.75 13.41 18.75 13C18.75 12.59 18.41 12.25 18 12.25H17.75V6.75H20.13C20.78 6.75 21.37 6.4 21.67 5.83C21.97 5.26 21.94 4.57 21.58 4.03L20.91 3.03C20.58 2.54 20.04 2.25 19.45 2.25H16.99C16.58 2.25 16.24 2.59 16.24 3V12.25H15.99C15.58 12.25 15.24 12.59 15.24 13C15.24 13.41 15.58 13.75 15.99 13.75H18Z" fill="black"/>
<path d="M10.25 19.75V21C10.25 21.41 10.59 21.75 11 21.75H15C15.41 21.75 15.75 21.41 15.75 21V19.75H10.25Z" fill="black"/>
<path d="M18.75 8.59V11.42C19.34 11.7 19.75 12.3 19.75 13C19.75 13.96 18.96 14.75 18 14.75H16C15.04 14.75 14.25 13.96 14.25 13C14.25 12.3 14.66 11.7 15.25 11.42V8.25H10.23C11.75 9.29 12.75 11.03 12.75 13V18C12.75 18.27 12.68 18.52 12.57 18.75H19C20.52 18.75 21.75 17.52 21.75 16V13C21.75 11 20.5 9.29 18.75 8.59Z" fill="black"/>
</svg>
