<svg width="24" height="24" viewBox="0 0 24 24" fill="none" xmlns="http://www.w3.org/2000/svg">
<path d="M16.5 14.25C16.9142 14.25 17.25 13.9142 17.25 13.5C17.25 13.0858 16.9142 12.75 16.5 12.75C16.0858 12.75 15.75 13.0858 15.75 13.5C15.75 13.9142 16.0858 14.25 16.5 14.25Z" fill="black"/>
<path d="M17 8.25H7C4.38 8.25 2.25 10.38 2.25 13V17C2.25 19.62 4.38 21.75 7 21.75H17C19.62 21.75 21.75 19.62 21.75 17V13C21.75 10.38 19.62 8.25 17 8.25ZM6 14.25H8C8.41 14.25 8.75 14.59 8.75 15C8.75 15.41 8.41 15.75 8 15.75H6C5.59 15.75 5.25 15.41 5.25 15C5.25 14.59 5.59 14.25 6 14.25ZM10 18.75H6C5.59 18.75 5.25 18.41 5.25 18C5.25 17.59 5.59 17.25 6 17.25H10C10.41 17.25 10.75 17.59 10.75 18C10.75 18.41 10.41 18.75 10 18.75ZM16.5 15.75C15.26 15.75 14.25 14.74 14.25 13.5C14.25 12.26 15.26 11.25 16.5 11.25C17.74 11.25 18.75 12.26 18.75 13.5C18.75 14.74 17.74 15.75 16.5 15.75Z" fill="black"/>
<path d="M17 7.25C17.61 7.25 18.2 7.35 18.75 7.52V6C18.75 3.93 17.07 2.25 15 2.25H9C6.93 2.25 5.25 3.93 5.25 6V7.52C5.8 7.34 6.39 7.25 7 7.25H17Z" fill="black"/>
</svg>
