<svg width="24" height="24" viewBox="0 0 24 24" fill="none" xmlns="http://www.w3.org/2000/svg">
<path d="M15 2.25H9C5.83 2.25 3.25 4.83 3.25 8V16C3.25 19.17 5.83 21.75 9 21.75H15C18.17 21.75 20.75 19.17 20.75 16V8C20.75 4.83 18.17 2.25 15 2.25ZM9 3.75H15C17.34 3.75 19.25 5.66 19.25 8V14.25H17.12C16.14 14.25 15.27 14.79 14.83 15.66C14.65 16.02 14.29 16.25 13.88 16.25H10.12C9.72 16.25 9.35 16.03 9.17 15.66C8.73 14.79 7.86 14.25 6.88 14.25H4.75V8C4.75 5.66 6.66 3.75 9 3.75ZM15 20.25H9C6.66 20.25 4.75 18.34 4.75 16V15.75H6.88C7.28 15.75 7.65 15.97 7.83 16.34C8.27 17.21 9.14 17.75 10.12 17.75H13.88C14.86 17.75 15.73 17.21 16.17 16.34C16.35 15.98 16.71 15.75 17.12 15.75H19.25V16C19.25 18.34 17.34 20.25 15 20.25Z" fill="black"/>
<path d="M8 7.75H16C16.41 7.75 16.75 7.41 16.75 7C16.75 6.59 16.41 6.25 16 6.25H8C7.59 6.25 7.25 6.59 7.25 7C7.25 7.41 7.59 7.75 8 7.75Z" fill="black"/>
<path d="M8 11.75H16C16.41 11.75 16.75 11.41 16.75 11C16.75 10.59 16.41 10.25 16 10.25H8C7.59 10.25 7.25 10.59 7.25 11C7.25 11.41 7.59 11.75 8 11.75Z" fill="black"/>
</svg>
