<svg width="24" height="24" viewBox="0 0 24 24" fill="none" xmlns="http://www.w3.org/2000/svg">
<path d="M19 10.75C16.93 10.75 15.25 9.07 15.25 7C15.25 6.74 15.28 6.49 15.33 6.25H7C4.38 6.25 2.25 8.38 2.25 11V15C2.25 17.62 4.38 19.75 7 19.75H16C18.62 19.75 20.75 17.62 20.75 15V11C20.75 10.77 20.71 10.55 20.68 10.33C20.17 10.59 19.61 10.75 19 10.75ZM16.47 12.59L14.19 14.42C13.32 15.11 12.27 15.45 11.23 15.45C10.05 15.45 8.87 15.02 7.96 14.16L6.26 12.55C5.96 12.27 5.95 11.79 6.23 11.49C6.51 11.19 6.99 11.18 7.29 11.46L8.99 13.07C10.16 14.18 11.99 14.25 13.25 13.25L15.53 11.42C15.85 11.16 16.33 11.21 16.58 11.54C16.84 11.86 16.79 12.34 16.46 12.59H16.47Z" fill="black"/>
<path d="M19 9.75C20.5188 9.75 21.75 8.51878 21.75 7C21.75 5.48122 20.5188 4.25 19 4.25C17.4812 4.25 16.25 5.48122 16.25 7C16.25 8.51878 17.4812 9.75 19 9.75Z" fill="black"/>
</svg>
