<svg width="24" height="24" viewBox="0 0 24 24" fill="none" xmlns="http://www.w3.org/2000/svg">
<path d="M17 8.25H15.75V6.75H18.13C18.78 6.75 19.37 6.4 19.67 5.83C19.97 5.26 19.94 4.57 19.58 4.03L18.91 3.03C18.58 2.54 18.04 2.25 17.45 2.25H14.99C14.58 2.25 14.24 2.59 14.24 3V8.25H7C4.38 8.25 2.25 10.38 2.25 13V16C2.25 17.52 3.48 18.75 5 18.75H10.25V21C10.25 21.41 10.59 21.75 11 21.75H15C15.41 21.75 15.75 21.41 15.75 21V18.75H19C20.52 18.75 21.75 17.52 21.75 16V13C21.75 10.38 19.62 8.25 17 8.25ZM15.75 3.75H17.46C17.54 3.75 17.62 3.79 17.67 3.86L18.34 4.86C18.41 4.97 18.38 5.07 18.35 5.12C18.32 5.17 18.26 5.25 18.13 5.25H15.75V3.75ZM3.75 16V13C3.75 11.21 5.21 9.75 7 9.75C8.79 9.75 10.25 11.21 10.25 13V17.25H5C4.31 17.25 3.75 16.69 3.75 16ZM14.25 20.25H11.75V18.75H14.25V20.25ZM20.25 16C20.25 16.69 19.69 17.25 19 17.25H11.75V13C11.75 11.74 11.25 10.6 10.45 9.75H14.25V12.25H14C13.59 12.25 13.25 12.59 13.25 13C13.25 13.41 13.59 13.75 14 13.75H16C16.41 13.75 16.75 13.41 16.75 13C16.75 12.59 16.41 12.25 16 12.25H15.75V9.75H17C18.79 9.75 20.25 11.21 20.25 13V16Z" fill="black"/>
<path d="M8 12.25H6C5.59 12.25 5.25 12.59 5.25 13C5.25 13.41 5.59 13.75 6 13.75H8C8.41 13.75 8.75 13.41 8.75 13C8.75 12.59 8.41 12.25 8 12.25Z" fill="black"/>
</svg>
