<svg width="24" height="24" viewBox="0 0 24 24" fill="none" xmlns="http://www.w3.org/2000/svg">
<path d="M20 11.25C19.59 11.25 19.25 11.59 19.25 12V15C19.25 16.79 17.79 18.25 16 18.25H7C5.21 18.25 3.75 16.79 3.75 15V11C3.75 9.21 5.21 7.75 7 7.75H14C14.41 7.75 14.75 7.41 14.75 7C14.75 6.59 14.41 6.25 14 6.25H7C4.38 6.25 2.25 8.38 2.25 11V15C2.25 17.62 4.38 19.75 7 19.75H16C18.62 19.75 20.75 17.62 20.75 15V12C20.75 11.59 20.41 11.25 20 11.25Z" fill="black"/>
<path d="M8.99 13.06L7.29 11.45C6.99 11.17 6.51 11.18 6.23 11.48C5.95 11.78 5.96 12.26 6.26 12.54L7.96 14.15C8.87 15.01 10.05 15.44 11.23 15.44C12.28 15.44 13.33 15.1 14.19 14.41L16.47 12.58C16.79 12.32 16.85 11.85 16.59 11.53C16.33 11.21 15.86 11.16 15.54 11.41L13.26 13.24C12 14.25 10.17 14.17 9 13.06H8.99Z" fill="black"/>
<path d="M19 4.25C17.48 4.25 16.25 5.48 16.25 7C16.25 8.52 17.48 9.75 19 9.75C20.52 9.75 21.75 8.52 21.75 7C21.75 5.48 20.52 4.25 19 4.25ZM19 8.25C18.31 8.25 17.75 7.69 17.75 7C17.75 6.31 18.31 5.75 19 5.75C19.69 5.75 20.25 6.31 20.25 7C20.25 7.69 19.69 8.25 19 8.25Z" fill="black"/>
</svg>
