<svg width="24" height="24" viewBox="0 0 24 24" fill="none" xmlns="http://www.w3.org/2000/svg">
<path d="M21.45 12.06L19.68 7.33C18.99 5.49 17.2 4.25 15.23 4.25H8.77C6.8 4.25 5.01 5.49 4.32 7.33L2.55 12.05C2.35 12.58 2.25 13.15 2.25 13.72V15.99C2.25 18.61 4.38 20.74 7 20.74H17C19.62 20.74 21.75 18.61 21.75 15.99V13.72C21.75 13.15 21.65 12.59 21.45 12.05V12.06ZM6.88 9.75C7.28 9.75 7.65 9.98 7.83 10.34C8.27 11.21 9.14 11.75 10.12 11.75H13.88C14.86 11.75 15.73 11.21 16.17 10.34C16.35 9.98 16.71 9.75 17.12 9.75H18.98L20.04 12.58C20.12 12.8 20.17 13.02 20.2 13.24H17.11C16.13 13.24 15.26 13.78 14.82 14.66C14.64 15.02 14.28 15.25 13.87 15.25H10.11C9.71 15.25 9.34 15.03 9.16 14.66C8.72 13.79 7.85 13.25 6.87 13.25H3.79C3.82 13.02 3.87 12.8 3.95 12.58L5.01 9.75H6.88ZM8.77 5.75H15.23C16.58 5.75 17.8 6.6 18.27 7.86L18.42 8.25H17.12C16.14 8.25 15.27 8.79 14.83 9.66C14.65 10.02 14.29 10.25 13.88 10.25H10.12C9.72 10.25 9.35 10.03 9.17 9.66C8.73 8.79 7.86 8.25 6.88 8.25H5.58L5.73 7.86C6.2 6.6 7.43 5.75 8.77 5.75ZM17 19.25H7C5.21 19.25 3.75 17.79 3.75 16V14.75H6.88C7.28 14.75 7.65 14.98 7.83 15.34C8.27 16.21 9.14 16.75 10.12 16.75H13.88C14.86 16.75 15.73 16.21 16.17 15.34C16.35 14.98 16.71 14.75 17.12 14.75H20.25V16C20.25 17.79 18.79 19.25 17 19.25Z" fill="black"/>
</svg>
