<svg width="24" height="24" viewBox="0 0 24 24" fill="none" xmlns="http://www.w3.org/2000/svg">
<path d="M20.36 6.3L17.7 3.64C16.8 2.74 15.61 2.25 14.34 2.25H9.64999C8.37999 2.25 7.18999 2.74 6.28999 3.64L3.62999 6.3C2.72999 7.2 2.23999 8.39 2.23999 9.66V14.35C2.23999 15.62 2.72999 16.81 3.62999 17.71L6.28999 20.37C7.18999 21.27 8.37999 21.76 9.64999 21.76H14.34C15.61 21.76 16.8 21.27 17.7 20.37L20.36 17.71C21.26 16.81 21.75 15.62 21.75 14.35V9.66C21.75 8.39 21.26 7.2 20.36 6.3ZM17.75 13C17.75 14.52 16.52 15.75 15 15.75H8.99999C7.47999 15.75 6.24999 14.52 6.24999 13V11C6.24999 9.48 7.47999 8.25 8.99999 8.25H15C16.52 8.25 17.75 9.48 17.75 11V13Z" fill="black"/>
<path d="M15 9.75H8.99999C8.30999 9.75 7.74999 10.31 7.74999 11V13C7.74999 13.69 8.30999 14.25 8.99999 14.25H15C15.69 14.25 16.25 13.69 16.25 13V11C16.25 10.31 15.69 9.75 15 9.75ZM14.24 12.04L12.56 12.6C12.38 12.66 12.19 12.69 12.01 12.69C11.83 12.69 11.63 12.66 11.46 12.6L9.77999 12.04C9.38999 11.91 9.16999 11.48 9.30999 11.09C9.44999 10.7 9.85999 10.49 10.26 10.62L11.94 11.18C11.99 11.2 12.05 11.2 12.1 11.18L13.78 10.62C14.18 10.49 14.6 10.7 14.73 11.09C14.86 11.48 14.65 11.91 14.26 12.04H14.24Z" fill="black"/>
</svg>
