<svg width="24" height="24" viewBox="0 0 24 24" fill="none" xmlns="http://www.w3.org/2000/svg">
<path d="M21.75 10C21.75 9.28 21.58 8.6 21.29 7.99C21.27 7.94 21.25 7.88 21.21 7.83C21.21 7.83 21.21 7.83 21.2 7.82C20.41 6.3 18.83 5.25 17 5.25H7C5.17 5.25 3.59 6.3 2.8 7.83H2.79C2.76 7.88 2.74 7.93 2.72 7.98C2.43 8.6 2.25 9.28 2.25 10V14C2.25 15.29 2.77 16.45 3.6 17.31V17.33C4.47 18.2 5.67 18.75 6.99 18.75H16.99C18.31 18.75 19.51 18.2 20.37 17.33V17.31C21.21 16.45 21.73 15.29 21.73 14V10H21.75ZM20.25 10V14C20.25 14.66 20.05 15.27 19.71 15.79L16.08 12.78L20.21 9.57C20.23 9.71 20.25 9.86 20.25 10ZM17 6.75C18.09 6.75 19.04 7.29 19.63 8.11L13.99 12.5C12.81 13.41 11.17 13.41 10 12.5L4.36 8.11C4.95 7.29 5.91 6.75 6.99 6.75H17ZM4.29 15.79C3.95 15.28 3.75 14.66 3.75 14V10C3.75 9.85 3.77 9.71 3.79 9.57L7.92 12.78L4.29 15.79ZM7 17.25C6.42 17.25 5.88 17.08 5.4 16.81L9.13 13.71C9.98 14.35 10.99 14.68 11.99 14.68C12.99 14.68 14.01 14.35 14.85 13.71L18.58 16.81C18.11 17.08 17.57 17.25 16.98 17.25H7Z" fill="black"/>
</svg>
