<svg width="24" height="24" viewBox="0 0 24 24" fill="none" xmlns="http://www.w3.org/2000/svg">
<path d="M3.86 9.72008L10 14.5001C11.17 15.4101 12.82 15.4101 13.99 14.5001L20.15 9.71008L21.46 8.77008C21.08 7.70008 20.33 6.78008 19.3 6.21008L14.3 3.43008C12.86 2.63008 11.13 2.63008 9.69 3.43008L4.69 6.21008C3.7 6.76008 2.97 7.63008 2.57 8.65008L3.86 9.73008V9.72008Z" fill="black"/>
<path d="M19.32 19.4101L14.86 15.7101C14.01 16.3501 13 16.6801 12 16.6801C11 16.6801 9.98 16.3501 9.13 15.7101L4.17 19.8001C4.96 20.3901 5.93 20.7501 6.99 20.7501H16.99C18.04 20.7501 19 20.4001 19.79 19.8201L19.32 19.4101Z" fill="black"/>
<path d="M16.08 14.7801L20.29 18.2701L20.86 18.7601C21.42 17.9801 21.75 17.0401 21.75 16.0101V10.4101L21.06 10.9101L16.08 14.7801Z" fill="black"/>
<path d="M2.92 10.8901L2.25 10.3301V16.0001C2.25 17.0201 2.58 17.9601 3.13 18.7401L3.71 18.2701L7.91 14.7801L2.91 10.8901H2.92Z" fill="black"/>
</svg>
