<svg width="24" height="24" viewBox="0 0 24 24" fill="none" xmlns="http://www.w3.org/2000/svg">
<path d="M15 7.25H6C3.93 7.25 2.25 8.93 2.25 11V15C2.25 17.07 3.93 18.75 6 18.75H15C17.07 18.75 18.75 17.07 18.75 15V11C18.75 8.93 17.07 7.25 15 7.25ZM14.46 13.37L12.8 14.66C12.12 15.19 11.31 15.45 10.5 15.45C9.69 15.45 8.88 15.19 8.2 14.66L6.54 13.37C6.21 13.12 6.15 12.64 6.41 12.32C6.66 11.99 7.13 11.93 7.46 12.19L9.12 13.48C9.93 14.11 11.07 14.11 11.88 13.48L13.54 12.19C13.87 11.93 14.34 12 14.59 12.32C14.84 12.65 14.79 13.12 14.46 13.37Z" fill="black"/>
<path d="M18 4.25H9C7.56 4.25 6.31 5.08 5.69 6.28C5.8 6.28 5.9 6.25 6 6.25H15C17.62 6.25 19.75 8.38 19.75 11V15C19.75 15.11 19.73 15.21 19.72 15.31C20.92 14.68 21.75 13.44 21.75 12V8C21.75 5.93 20.07 4.25 18 4.25Z" fill="black"/>
</svg>
