<svg width="24" height="24" viewBox="0 0 24 24" fill="none" xmlns="http://www.w3.org/2000/svg">
<path d="M8 3.75H16C16.41 3.75 16.75 3.41 16.75 3C16.75 2.59 16.41 2.25 16 2.25H8C7.59 2.25 7.25 2.59 7.25 3C7.25 3.41 7.59 3.75 8 3.75Z" fill="black"/>
<path d="M20 5.25H4C3.59 5.25 3.25 5.59 3.25 6C3.25 6.41 3.59 6.75 4 6.75H4.3L5 17.32C5.17 19.81 7.25 21.75 9.74 21.75H14.26C16.75 21.75 18.83 19.8 19 17.32L19.7 6.75H20C20.41 6.75 20.75 6.41 20.75 6C20.75 5.59 20.41 5.25 20 5.25ZM17.5 17.22C17.39 18.92 15.96 20.25 14.26 20.25H9.74C8.03 20.25 6.61 18.92 6.5 17.22L5.8 6.75H18.2L17.5 17.22Z" fill="black"/>
<path d="M12 17.75C12.41 17.75 12.75 17.41 12.75 17V10C12.75 9.59 12.41 9.25 12 9.25C11.59 9.25 11.25 9.59 11.25 10V17C11.25 17.41 11.59 17.75 12 17.75Z" fill="black"/>
<path d="M15 17.75C15.41 17.75 15.75 17.41 15.75 17V10C15.75 9.59 15.41 9.25 15 9.25C14.59 9.25 14.25 9.59 14.25 10V17C14.25 17.41 14.59 17.75 15 17.75Z" fill="black"/>
<path d="M9 17.75C9.41 17.75 9.75 17.41 9.75 17V10C9.75 9.59 9.41 9.25 9 9.25C8.59 9.25 8.25 9.59 8.25 10V17C8.25 17.41 8.59 17.75 9 17.75Z" fill="black"/>
</svg>
