<svg width="24" height="24" viewBox="0 0 24 24" fill="none" xmlns="http://www.w3.org/2000/svg">
<path d="M20.34 7.77L18.75 6.89V6C18.75 3.93 17.07 2.25 15 2.25H9C6.93 2.25 5.25 3.93 5.25 6V6.89L3.66 7.77C2.79 8.25 2.25 9.18 2.25 10.17V16.99C2.25 19.61 4.38 21.74 7 21.74H17C19.62 21.74 21.75 19.61 21.75 16.99V10.17C21.75 9.17 21.21 8.25 20.34 7.77ZM19.61 9.08C20.01 9.3 20.25 9.72 20.25 10.17V10.63L18.75 11.8V8.61L19.61 9.09V9.08ZM9 3.75H15C16.24 3.75 17.25 4.76 17.25 6V12.97L14 15.5C12.83 16.41 11.18 16.41 10.01 15.5L6.76 12.97V6C6.76 4.76 7.77 3.75 9.01 3.75H9ZM4.39 9.08L5.25 8.6V11.79L3.75 10.62V10.16C3.75 9.71 4 9.29 4.39 9.07V9.08ZM17 20.25H7C5.21 20.25 3.75 18.79 3.75 17V12.53L9.08 16.68C9.94 17.35 10.97 17.68 12 17.68C13.03 17.68 14.06 17.35 14.92 16.68L20.25 12.53V17C20.25 18.79 18.79 20.25 17 20.25Z" fill="black"/>
<path d="M9 7.75H15C15.41 7.75 15.75 7.41 15.75 7C15.75 6.59 15.41 6.25 15 6.25H9C8.59 6.25 8.25 6.59 8.25 7C8.25 7.41 8.59 7.75 9 7.75Z" fill="black"/>
<path d="M9 11.75H15C15.41 11.75 15.75 11.41 15.75 11C15.75 10.59 15.41 10.25 15 10.25H9C8.59 10.25 8.25 10.59 8.25 11C8.25 11.41 8.59 11.75 9 11.75Z" fill="black"/>
</svg>
