<svg width="24" height="24" viewBox="0 0 24 24" fill="none" xmlns="http://www.w3.org/2000/svg">
<path d="M10.4 17.7703H8.99C7.47 17.7703 6.24 16.5403 6.24 15.0203V13.6103C6.24 12.8703 6.53 12.1803 7.05 11.6703L12.46 6.26025H8C4.83 6.26025 2.25 8.84025 2.25 12.0103V16.0103C2.25 19.1803 4.83 21.7603 8 21.7603H12C15.17 21.7603 17.75 19.1803 17.75 16.0103V11.5703L12.35 16.9703C11.84 17.4803 11.13 17.7803 10.4 17.7803V17.7703Z" fill="black"/>
<path d="M21.25 4.18025L19.84 2.77025C19.16 2.09025 18.05 2.09025 17.36 2.77025L16.49 3.64025L19.84 7.01025L20.35 7.56025L21.25 6.66025C21.58 6.33025 21.76 5.89025 21.76 5.42025C21.76 4.95025 21.58 4.51025 21.25 4.18025Z" fill="black"/>
<path d="M15.43 4.69025L7.76 12.3603C7.43 12.6903 7.25 13.1303 7.25 13.6003V15.0103C7.25 15.9703 8.04 16.7603 9 16.7603H10.41C10.87 16.7603 11.32 16.5703 11.65 16.2503L19.29 8.61025L18.76 8.04025L15.43 4.69025Z" fill="black"/>
</svg>
