<svg width="24" height="24" viewBox="0 0 24 24" fill="none" xmlns="http://www.w3.org/2000/svg">
<path d="M19.49 11.5397C17.07 8.38972 13.72 7.53972 11.93 7.31972C11.8 7.29972 11.7 7.19972 11.7 7.06972V6.41972C11.7 5.70972 11.27 5.06972 10.62 4.79972C9.96002 4.52972 9.21002 4.67972 8.71002 5.18972L3.28002 10.6597C2.92002 11.0197 2.74002 11.5097 2.78002 12.0197C2.82002 12.5297 3.07002 12.9897 3.47002 13.2897L8.90002 17.3897C9.43002 17.7897 10.14 17.8597 10.73 17.5597C11.33 17.2597 11.7 16.6597 11.7 15.9897V14.8197C11.7 14.6897 11.8 14.5897 11.93 14.5697C12.89 14.4297 13.84 14.4797 14.73 14.7197C18.54 15.7397 20.02 19.7797 20.17 20.2397C20.27 20.5497 20.56 20.7497 20.88 20.7497C20.9 20.7497 20.92 20.7497 20.94 20.7497C21.28 20.7197 21.56 20.4597 21.62 20.1197C21.8 18.9997 22.19 15.0597 19.49 11.5397ZM15.12 13.2697C14.42 13.0797 13.7 12.9897 12.97 12.9897C12.55 12.9897 12.14 13.0197 11.71 13.0797C10.83 13.2097 10.2 13.9397 10.2 14.8197V15.9897C10.2 16.1197 10.11 16.1897 10.06 16.2097C10.01 16.2297 9.91002 16.2697 9.80002 16.1897L4.37002 12.0897C4.29002 12.0297 4.27002 11.9497 4.27002 11.9097C4.27002 11.8697 4.27002 11.7897 4.34002 11.7197L9.77002 6.24972C9.87002 6.14972 9.98002 6.16972 10.04 6.18972C10.1 6.20972 10.19 6.27972 10.19 6.41972V7.06972C10.19 7.94972 10.86 8.69972 11.74 8.80972C13.29 8.99972 16.21 9.72972 18.29 12.4497C19.48 13.9997 19.97 15.6397 20.15 16.9997C19.13 15.5297 17.51 13.9097 15.1 13.2697H15.12Z" fill="black"/>
</svg>
