<svg width="24" height="24" viewBox="0 0 24 24" fill="none" xmlns="http://www.w3.org/2000/svg">
<path d="M15 2.25H9C5.83 2.25 3.25 4.83 3.25 8V16C3.25 19.17 5.83 21.75 9 21.75H15C18.17 21.75 20.75 19.17 20.75 16V8C20.75 4.83 18.17 2.25 15 2.25ZM15 3.75C17.22 3.75 19.03 5.47 19.21 7.65L16.34 9.8C15.95 10.09 15.47 10.25 14.99 10.25H12.74V9.63C13.89 9.3 14.74 8.25 14.74 7C14.74 5.48 13.51 4.25 11.99 4.25C10.47 4.25 9.24 5.48 9.24 7C9.24 8.25 10.09 9.3 11.24 9.63V10.25H8.99C8.51 10.25 8.03 10.09 7.64 9.8L4.77 7.65C4.95 5.47 6.76 3.75 8.98 3.75H15ZM12 8.25C11.31 8.25 10.75 7.69 10.75 7C10.75 6.31 11.31 5.75 12 5.75C12.69 5.75 13.25 6.31 13.25 7C13.25 7.69 12.69 8.25 12 8.25ZM15 20.25H9C6.66 20.25 4.75 18.34 4.75 16V9.5L6.75 11C7.39 11.48 8.19 11.75 9 11.75H11.25V12.37C10.1 12.7 9.25 13.75 9.25 15C9.25 16.52 10.48 17.75 12 17.75C13.52 17.75 14.75 16.52 14.75 15C14.75 13.75 13.9 12.7 12.75 12.37V11.75H15C15.81 11.75 16.6 11.48 17.25 11L19.25 9.5V16C19.25 18.34 17.34 20.25 15 20.25ZM12 13.75C12.69 13.75 13.25 14.31 13.25 15C13.25 15.69 12.69 16.25 12 16.25C11.31 16.25 10.75 15.69 10.75 15C10.75 14.31 11.31 13.75 12 13.75Z" fill="black"/>
</svg>
