<svg width="24" height="24" viewBox="0 0 24 24" fill="none" xmlns="http://www.w3.org/2000/svg">
<path d="M21.6899 10.9004C21.1899 6.33035 17.4999 2.71035 12.9099 2.29035C9.86993 2.02035 6.92993 3.13035 4.85993 5.36035C2.78993 7.59035 1.88993 10.6104 2.37993 13.6504C3.05993 17.8104 6.46993 21.1104 10.6599 21.6604C11.0999 21.7204 11.5399 21.7504 11.9799 21.7504C13.9199 21.7504 15.8099 21.1904 17.4099 20.1104C17.7499 19.8804 17.8499 19.4104 17.6199 19.0704C17.3899 18.7304 16.9199 18.6304 16.5799 18.8604C14.9099 19.9804 12.8699 20.4404 10.8599 20.1704C7.31993 19.7004 4.43993 16.9104 3.85993 13.4004C3.43993 10.8204 4.19993 8.26035 5.94993 6.38035C7.69993 4.50035 10.1799 3.55035 12.7699 3.78035C16.5899 4.13035 19.7799 7.26035 20.1899 11.0604C20.2999 12.0704 20.2299 13.0704 19.9899 14.0304C19.8099 14.7404 19.1499 15.2404 18.3899 15.2404C17.4799 15.2404 16.7399 14.5004 16.7399 13.5904V7.99035C16.7399 7.58035 16.3999 7.24035 15.9899 7.24035C15.5799 7.24035 15.2399 7.58035 15.2399 7.99035V8.54035C14.3899 7.74035 13.2499 7.24035 11.9899 7.24035C9.36993 7.24035 7.23993 9.37035 7.23993 11.9904C7.23993 14.6104 9.36993 16.7404 11.9899 16.7404C13.4499 16.7404 14.7299 16.0704 15.6099 15.0304C16.1399 16.0404 17.1799 16.7404 18.3899 16.7404C19.8399 16.7404 21.0899 15.7804 21.4399 14.4004C21.7299 13.2604 21.8099 12.0904 21.6799 10.9004H21.6899ZM11.9999 15.2504C10.2099 15.2504 8.74993 13.7904 8.74993 12.0004C8.74993 10.2104 10.2099 8.75035 11.9999 8.75035C13.7899 8.75035 15.2499 10.2104 15.2499 12.0004C15.2499 13.7904 13.7899 15.2504 11.9999 15.2504Z" fill="black"/>
</svg>
