<svg width="24" height="24" viewBox="0 0 24 24" fill="none" xmlns="http://www.w3.org/2000/svg">
<path d="M21.45 11.6L14.92 16.68C14.06 17.35 13.03 17.68 12 17.68C10.97 17.68 9.94 17.35 9.08 16.68L2.54 11.59L2.25 11.34V17C2.25 19.62 4.38 21.75 7 21.75H17C19.62 21.75 21.75 19.62 21.75 17V11.38L21.45 11.61V11.6Z" fill="black"/>
<path d="M14 15.5L18.75 11.8V6C18.75 3.93 17.07 2.25 15 2.25H9C6.93 2.25 5.25 3.93 5.25 6V11.8L10 15.5C11.17 16.41 12.82 16.41 13.99 15.5H14ZM9 6.25H15C15.41 6.25 15.75 6.59 15.75 7C15.75 7.41 15.41 7.75 15 7.75H9C8.59 7.75 8.25 7.41 8.25 7C8.25 6.59 8.59 6.25 9 6.25ZM8.25 11C8.25 10.59 8.59 10.25 9 10.25H15C15.41 10.25 15.75 10.59 15.75 11C15.75 11.41 15.41 11.75 15 11.75H9C8.59 11.75 8.25 11.41 8.25 11Z" fill="black"/>
<path d="M4.25 7.45L3.66 7.78C3.01 8.14 2.54 8.75 2.35 9.45L3.49 10.44L4.25 11.03V7.45Z" fill="black"/>
<path d="M21.67 9.57C21.5 8.82 21.03 8.16 20.34 7.77L19.75 7.44V11.01L20.54 10.4L21.67 9.56V9.57Z" fill="black"/>
</svg>
