<svg width="24" height="24" viewBox="0 0 24 24" fill="none" xmlns="http://www.w3.org/2000/svg">
<path d="M21.3499 2.83028C20.8899 2.30028 20.1799 2.08028 19.4999 2.25028L4.40991 6.10028C3.22991 6.40028 2.39991 7.33028 2.21991 8.53028C2.03991 9.73028 2.58991 10.8603 3.62991 11.4803L8.10991 14.1403C8.16991 14.1803 8.21991 14.2403 8.24991 14.3103L10.2399 19.1303C10.6999 20.2503 11.7399 20.9503 12.9599 20.9503C14.1699 20.9503 15.2099 20.2603 15.6799 19.1403L21.6599 4.76028C21.9299 4.11028 21.8099 3.37028 21.3499 2.84028V2.83028ZM3.70991 8.74028C3.79991 8.14028 4.19991 7.70028 4.77991 7.55028L18.9099 3.95028L8.72991 12.7603L4.39991 10.1903C3.87991 9.88028 3.61991 9.34028 3.70991 8.74028ZM14.2999 18.5503C14.0699 19.1103 13.5699 19.4403 12.9699 19.4403C12.3699 19.4403 11.8699 19.1103 11.6399 18.5503L9.71991 13.9003L19.8999 5.08028L14.2999 18.5503Z" fill="black"/>
</svg>
