<svg width="24" height="24" viewBox="0 0 24 24" fill="none" xmlns="http://www.w3.org/2000/svg">
<path d="M9.17 14.66C9.35 15.02 9.71 15.25 10.12 15.25H13.88C14.28 15.25 14.65 15.03 14.83 14.66C15.27 13.79 16.14 13.25 17.12 13.25H21.71C21.67 12.84 21.59 12.44 21.45 12.06L20.59 9.75H17.13C16.73 9.75 16.36 9.97 16.18 10.34C15.74 11.21 14.87 11.75 13.89 11.75H10.13C9.15 11.75 8.28 11.21 7.84 10.34C7.66 9.98 7.3 9.75 6.89 9.75H3.42L2.55 12.06C2.41 12.44 2.33 12.85 2.29 13.25H6.88C7.86 13.25 8.73 13.79 9.17 14.67V14.66Z" fill="black"/>
<path d="M6.88 8.25C7.85 8.25 8.73 8.79 9.17 9.66C9.35 10.02 9.71 10.25 10.12 10.25H13.88C14.28 10.25 14.65 10.03 14.83 9.66C15.27 8.79 16.14 8.25 17.12 8.25H20.02L19.68 7.33C18.99 5.49 17.2 4.25 15.23 4.25H8.77C6.8 4.25 5.01 5.49 4.32 7.33L3.98 8.25H6.88Z" fill="black"/>
<path d="M17.12 14.75C16.72 14.75 16.35 14.97 16.17 15.34C15.73 16.21 14.86 16.75 13.88 16.75H10.12C9.14 16.75 8.27 16.21 7.83 15.34C7.65 14.98 7.29 14.75 6.88 14.75H2.25V16C2.25 18.62 4.38 20.75 7 20.75H17C19.62 20.75 21.75 18.62 21.75 16V14.75H17.12Z" fill="black"/>
</svg>
