<svg width="24" height="24" viewBox="0 0 24 24" fill="none" xmlns="http://www.w3.org/2000/svg">
<path d="M3.43 9.39031L6.25 11.5803V10.0003C6.25 9.04031 7.04 8.25031 8 8.25031H16C16.96 8.25031 17.75 9.04031 17.75 10.0003V11.5803L20.54 9.41031L21.42 8.64031C21.02 7.62031 20.29 6.75031 19.3 6.20031L14.3 3.42031C12.85 2.62031 11.13 2.62031 9.69 3.42031L4.69 6.20031C3.67 6.77031 2.92 7.69031 2.53 8.76031L3.42 9.39031H3.43Z" fill="black"/>
<path d="M21.49 10.5703L14.92 15.6903C14.06 16.3603 13.03 16.6903 12 16.6903C10.97 16.6903 9.94 16.3603 9.08 15.6903L2.54 10.5903L2.25 10.3903V16.0003C2.25 18.6203 4.38 20.7503 7 20.7503H17C19.62 20.7503 21.75 18.6203 21.75 16.0003V10.3503L21.49 10.5603V10.5703Z" fill="black"/>
<path d="M16 9.75031H8C7.86 9.75031 7.75 9.86031 7.75 10.0003V12.7503L10 14.5003C11.17 15.4103 12.82 15.4103 13.99 14.5003L16.24 12.7503V10.0103C16.24 9.87031 16.13 9.76031 15.99 9.76031L16 9.75031Z" fill="black"/>
</svg>
