<svg width="24" height="24" viewBox="0 0 24 24" fill="none" xmlns="http://www.w3.org/2000/svg">
<path d="M9.17 16.33C9.08 16.51 9.15 16.73 9.33 16.82C9.45 16.88 9.56 16.86 9.61 16.84C9.66 16.82 9.76 16.77 9.82 16.66L10.35 15.59C10.11 15.55 9.86 15.49 9.61 15.43L9.16 16.33H9.17Z" fill="black"/>
<path d="M12 2.25C6.62 2.25 2.25 6.62 2.25 12C2.25 17.38 6.62 21.75 12 21.75C17.38 21.75 21.75 17.38 21.75 12C21.75 6.62 17.38 2.25 12 2.25ZM6.6 10.47C6.25 10.25 6.15 9.79 6.37 9.45C6.45 9.33 7.15 8.26 8.51 8.26H8.56C9.88 8.29 10.57 9.33 10.65 9.45C10.87 9.8 10.76 10.26 10.41 10.48C10.29 10.56 10.15 10.59 10.01 10.59C9.76 10.59 9.52 10.46 9.37 10.24C9.36 10.22 9.06 9.76 8.53 9.75H8.51C7.97 9.75 7.65 10.22 7.64 10.24C7.41 10.58 6.95 10.69 6.61 10.46L6.6 10.47ZM16.35 14.67C15.42 15.17 13.91 15.76 12 15.76H11.96L11.17 17.34C10.95 17.79 10.56 18.12 10.09 18.28C9.9 18.34 9.7 18.38 9.5 18.38C9.21 18.38 8.93 18.31 8.67 18.18C7.75 17.72 7.37 16.6 7.83 15.67L8.2 14.93C8.02 14.85 7.83 14.76 7.65 14.66C7.28 14.46 7.15 14.01 7.34 13.65C7.53 13.28 7.99 13.15 8.35 13.34C9.76 14.09 11.11 14.25 12 14.25C13.6 14.25 14.87 13.75 15.65 13.34C16.01 13.15 16.47 13.28 16.66 13.65C16.85 14.02 16.72 14.47 16.35 14.66V14.67ZM17.39 10.48C17.27 10.56 17.13 10.59 16.99 10.59C16.74 10.59 16.5 10.46 16.35 10.24C16.34 10.22 16.04 9.76 15.51 9.75C14.94 9.78 14.64 10.22 14.62 10.24C14.39 10.58 13.93 10.69 13.59 10.46C13.24 10.24 13.14 9.78 13.36 9.44C13.44 9.32 14.14 8.25 15.5 8.25H15.55C16.87 8.28 17.56 9.32 17.64 9.44C17.86 9.79 17.75 10.25 17.4 10.47L17.39 10.48Z" fill="black"/>
</svg>
