<svg width="24" height="24" viewBox="0 0 24 24" fill="none" xmlns="http://www.w3.org/2000/svg">
<path d="M12 2.25C6.62 2.25 2.25 6.62 2.25 12C2.25 17.38 6.62 21.75 12 21.75C17.38 21.75 21.75 17.38 21.75 12C21.75 6.62 17.38 2.25 12 2.25ZM6.6 10.47C6.25 10.25 6.15 9.79 6.37 9.45C6.45 9.32 7.17 8.24 8.56 8.26C9.88 8.29 10.57 9.33 10.64 9.45C10.86 9.8 10.75 10.26 10.4 10.48C10.28 10.56 10.14 10.59 10 10.59C9.75 10.59 9.5 10.46 9.36 10.24C9.35 10.22 9.05 9.76 8.52 9.75H8.5C7.96 9.75 7.64 10.22 7.63 10.24C7.41 10.58 6.94 10.69 6.6 10.46V10.47ZM16.72 14.21C16.11 16.29 14.17 17.75 12 17.75C9.83 17.75 7.89 16.29 7.28 14.21C7.16 13.81 7.39 13.4 7.79 13.28C8.19 13.16 8.6 13.39 8.72 13.79C9.14 15.24 10.49 16.25 12 16.25C13.51 16.25 14.86 15.24 15.28 13.79C15.4 13.39 15.81 13.16 16.21 13.28C16.61 13.4 16.84 13.81 16.72 14.21ZM17.4 10.47C17.28 10.55 17.14 10.58 17 10.58C16.75 10.58 16.5 10.45 16.36 10.23C16.35 10.21 16.05 9.75 15.52 9.74H15.5C14.96 9.74 14.64 10.21 14.63 10.23C14.4 10.57 13.94 10.68 13.6 10.45C13.25 10.23 13.15 9.77 13.37 9.43C13.45 9.3 14.17 8.22 15.56 8.24C16.88 8.27 17.57 9.31 17.64 9.43C17.86 9.78 17.75 10.24 17.4 10.46V10.47Z" fill="black"/>
</svg>
