<svg width="24" height="24" viewBox="0 0 24 24" fill="none" xmlns="http://www.w3.org/2000/svg">
<path d="M15 14.75H9C8.86 14.75 8.75 14.86 8.75 15C8.75 16.24 9.76 17.25 11 17.25H13C14.24 17.25 15.25 16.24 15.25 15C15.25 14.86 15.14 14.75 15 14.75Z" fill="black"/>
<path d="M18.1 11.39L17.5 11.09L17.34 11.74C17.27 12.03 17.43 12.21 17.51 12.28C17.59 12.35 17.79 12.48 18.06 12.37C18.35 12.25 18.39 12 18.4 11.89C18.41 11.78 18.38 11.53 18.1 11.39Z" fill="black"/>
<path d="M6.5 11.09L5.9 11.39C5.62 11.53 5.6 11.79 5.6 11.89C5.6 11.99 5.65 12.25 5.94 12.37C6.22 12.48 6.42 12.34 6.49 12.28C6.56 12.22 6.73 12.03 6.66 11.74L6.5 11.09Z" fill="black"/>
<path d="M12 2.25C6.62 2.25 2.25 6.62 2.25 12C2.25 17.38 6.62 21.75 12 21.75C17.38 21.75 21.75 17.38 21.75 12C21.75 6.62 17.38 2.25 12 2.25ZM5.38 13.76C4.63 13.46 4.13 12.77 4.1 11.95C4.07 11.14 4.5 10.41 5.22 10.04L6.34 9.48C6.34 9.48 6.34 9.45 6.36 9.44C6.64 8.99 7.44 8.24 8.55 8.24C9.88 8.27 10.56 9.32 10.64 9.43C10.86 9.78 10.75 10.24 10.4 10.46C10.28 10.54 10.14 10.57 10.01 10.57C9.76 10.57 9.51 10.44 9.37 10.22C9.36 10.2 9.06 9.75 8.53 9.74C8.19 9.72 7.95 9.9 7.8 10.05L8.13 11.36C8.32 12.11 8.07 12.88 7.49 13.39C7.11 13.72 6.64 13.89 6.15 13.89C5.89 13.89 5.64 13.84 5.39 13.74L5.38 13.76ZM13 18.75H11C8.93 18.75 7.25 17.07 7.25 15C7.25 14.04 8.04 13.25 9 13.25H15C15.96 13.25 16.75 14.04 16.75 15C16.75 17.07 15.07 18.75 13 18.75ZM18.62 13.76C18.37 13.86 18.12 13.91 17.86 13.91C17.38 13.91 16.9 13.74 16.52 13.41C15.94 12.9 15.7 12.13 15.88 11.38L16.21 10.07C16.07 9.93 15.85 9.76 15.52 9.76C15 9.73 14.65 10.23 14.63 10.25C14.4 10.59 13.94 10.7 13.6 10.48C13.25 10.26 13.15 9.81 13.36 9.46C13.64 9.01 14.43 8.26 15.55 8.26C16.88 8.29 17.56 9.34 17.64 9.45C17.64 9.46 17.64 9.48 17.66 9.49L18.78 10.05C19.51 10.41 19.94 11.15 19.9 11.96C19.87 12.77 19.38 13.46 18.62 13.77V13.76Z" fill="black"/>
</svg>
