<svg width="24" height="24" viewBox="0 0 24 24" fill="none" xmlns="http://www.w3.org/2000/svg">
<path d="M12 2.25C6.62 2.25 2.25 6.62 2.25 12C2.25 17.38 6.62 21.75 12 21.75C17.38 21.75 21.75 17.38 21.75 12C21.75 6.62 17.38 2.25 12 2.25ZM8.5 8.75C9.19 8.75 9.75 9.31 9.75 10C9.75 10.69 9.19 11.25 8.5 11.25C7.81 11.25 7.25 10.69 7.25 10C7.25 9.31 7.81 8.75 8.5 8.75ZM16.72 14.21C16.11 16.29 14.17 17.75 12 17.75C9.83 17.75 7.89 16.29 7.28 14.21C7.16 13.81 7.39 13.4 7.79 13.28C8.19 13.16 8.6 13.39 8.72 13.79C9.14 15.24 10.49 16.25 12 16.25C13.51 16.25 14.86 15.24 15.28 13.79C15.4 13.39 15.82 13.16 16.21 13.28C16.61 13.4 16.84 13.81 16.72 14.21ZM17.4 10.47C17.28 10.55 17.14 10.58 17 10.58C16.75 10.58 16.51 10.45 16.36 10.23C16.35 10.21 16.05 9.75 15.52 9.74C14.97 9.75 14.65 10.21 14.63 10.23C14.4 10.57 13.94 10.68 13.6 10.45C13.25 10.23 13.15 9.77 13.37 9.43C13.45 9.31 14.15 8.24 15.51 8.24H15.56C16.88 8.27 17.57 9.31 17.65 9.43C17.87 9.78 17.76 10.24 17.41 10.46L17.4 10.47Z" fill="black"/>
</svg>
