<svg width="24" height="24" viewBox="0 0 24 24" fill="none" xmlns="http://www.w3.org/2000/svg">
<path d="M8.5 11.25C8.91421 11.25 9.25 10.9142 9.25 10.5C9.25 10.0858 8.91421 9.75 8.5 9.75C8.08579 9.75 7.75 10.0858 7.75 10.5C7.75 10.9142 8.08579 11.25 8.5 11.25Z" fill="black"/>
<path d="M15.5 11.25C15.9142 11.25 16.25 10.9142 16.25 10.5C16.25 10.0858 15.9142 9.75 15.5 9.75C15.0858 9.75 14.75 10.0858 14.75 10.5C14.75 10.9142 15.0858 11.25 15.5 11.25Z" fill="black"/>
<path d="M12 2.25C6.62 2.25 2.25 6.62 2.25 12C2.25 17.38 6.62 21.75 12 21.75C17.38 21.75 21.75 17.38 21.75 12C21.75 6.62 17.38 2.25 12 2.25ZM6.25 10.5C6.25 9.26 7.26 8.25 8.5 8.25C9.74 8.25 10.75 9.26 10.75 10.5C10.75 11.74 9.74 12.75 8.5 12.75C7.26 12.75 6.25 11.74 6.25 10.5ZM14.45 17.4C14.78 17.65 14.85 18.12 14.6 18.45C14.45 18.65 14.23 18.75 14 18.75C13.84 18.75 13.69 18.7 13.55 18.6L12 17.44L10.45 18.6C10.32 18.7 10.16 18.75 10 18.75C9.77 18.75 9.55 18.65 9.4 18.45C9.15 18.12 9.22 17.65 9.55 17.4L10.75 16.5L9.55 15.6C9.22 15.35 9.15 14.88 9.4 14.55C9.65 14.22 10.12 14.15 10.45 14.4L12 15.56L13.55 14.4C13.88 14.15 14.35 14.22 14.6 14.55C14.85 14.88 14.78 15.35 14.45 15.6L13.25 16.5L14.45 17.4ZM15.5 12.75C14.26 12.75 13.25 11.74 13.25 10.5C13.25 9.26 14.26 8.25 15.5 8.25C16.74 8.25 17.75 9.26 17.75 10.5C17.75 11.74 16.74 12.75 15.5 12.75Z" fill="black"/>
</svg>
