<svg width="24" height="24" viewBox="0 0 24 24" fill="none" xmlns="http://www.w3.org/2000/svg">
<path d="M12 2.25C6.62 2.25 2.25 6.62 2.25 12C2.25 17.38 6.62 21.75 12 21.75C17.38 21.75 21.75 17.38 21.75 12C21.75 6.62 17.38 2.25 12 2.25ZM12 20.25C7.45 20.25 3.75 16.55 3.75 12C3.75 7.45 7.45 3.75 12 3.75C16.55 3.75 20.25 7.45 20.25 12C20.25 16.55 16.55 20.25 12 20.25Z" fill="black"/>
<path d="M16 13.25H8C7.59 13.25 7.25 13.59 7.25 14V15C7.25 17.07 8.93 18.75 11 18.75H13C15.07 18.75 16.75 17.07 16.75 15V14C16.75 13.59 16.41 13.25 16 13.25ZM15.25 15C15.25 16.24 14.24 17.25 13 17.25H11C9.76 17.25 8.75 16.24 8.75 15V14.75H15.25V15Z" fill="black"/>
<path d="M8.73 9.79L7.66 10.32C7.29 10.51 7.14 10.96 7.32 11.33C7.45 11.59 7.72 11.74 7.99 11.74C8.1 11.74 8.22 11.71 8.32 11.66L10.32 10.66C10.54 10.55 10.69 10.35 10.72 10.11C10.75 9.87 10.68 9.63 10.51 9.46L8.51 7.46C8.22 7.17 7.74 7.17 7.45 7.46C7.16 7.75 7.16 8.23 7.45 8.52L8.71 9.78L8.73 9.79Z" fill="black"/>
<path d="M15.47 7.47L13.47 9.47C13.3 9.64 13.22 9.88 13.26 10.12C13.3 10.36 13.45 10.56 13.67 10.67L15.67 11.67C15.78 11.72 15.89 11.75 16 11.75C16.28 11.75 16.54 11.6 16.67 11.34C16.86 10.97 16.71 10.52 16.33 10.33L15.26 9.8L16.52 8.54C16.81 8.25 16.81 7.77 16.52 7.48C16.23 7.19 15.75 7.19 15.46 7.48L15.47 7.47Z" fill="black"/>
</svg>
