<svg width="24" height="24" viewBox="0 0 24 24" fill="none" xmlns="http://www.w3.org/2000/svg">
<path d="M12 2.25C6.62 2.25 2.25 6.62 2.25 12C2.25 17.38 6.62 21.75 12 21.75C17.38 21.75 21.75 17.38 21.75 12C21.75 6.62 17.38 2.25 12 2.25ZM6.36 9.4C6.14 9.05 6.25 8.59 6.6 8.37C6.95 8.15 7.41 8.26 7.63 8.61C7.65 8.64 7.96 9.1 8.5 9.1H8.52C9.05 9.09 9.35 8.63 9.36 8.61C9.58 8.26 10.04 8.16 10.4 8.38C10.75 8.6 10.86 9.06 10.64 9.41C10.57 9.53 9.87 10.58 8.56 10.6H8.51C7.16 10.6 6.45 9.53 6.38 9.41L6.36 9.4ZM16.6 15.45C14.96 17.64 12.48 17.75 12 17.75C9.26 17.75 7.69 15.83 7.4 15.45C7.15 15.12 7.22 14.65 7.55 14.4C7.88 14.15 8.35 14.22 8.6 14.55C8.73 14.72 9.93 16.25 12 16.25C12.22 16.25 14.16 16.2 15.4 14.55C15.65 14.22 16.12 14.15 16.45 14.4C16.78 14.65 16.85 15.12 16.6 15.45ZM17.64 9.4C17.57 9.52 16.87 10.57 15.56 10.59H15.51C14.16 10.59 13.45 9.52 13.38 9.4C13.16 9.05 13.27 8.59 13.62 8.37C13.97 8.15 14.43 8.26 14.65 8.61C14.67 8.64 14.98 9.1 15.52 9.1H15.54C16.07 9.09 16.37 8.63 16.38 8.61C16.6 8.26 17.06 8.16 17.42 8.38C17.77 8.6 17.88 9.06 17.66 9.41L17.64 9.4Z" fill="black"/>
</svg>
