<svg width="24" height="24" viewBox="0 0 24 24" fill="none" xmlns="http://www.w3.org/2000/svg">
<path d="M12 2.25C6.62 2.25 2.25 6.62 2.25 12C2.25 17.38 6.62 21.75 12 21.75C17.38 21.75 21.75 17.38 21.75 12C21.75 6.62 17.38 2.25 12 2.25ZM12 20.25C7.45 20.25 3.75 16.55 3.75 12C3.75 7.45 7.45 3.75 12 3.75C16.55 3.75 20.25 7.45 20.25 12C20.25 16.55 16.55 20.25 12 20.25Z" fill="black"/>
<path d="M7.47 12.53C7.62 12.68 7.81 12.75 8 12.75C8.19 12.75 8.38 12.68 8.53 12.53L10.53 10.53C10.82 10.24 10.82 9.76 10.53 9.47L8.53 7.47C8.24 7.18 7.76 7.18 7.47 7.47C7.18 7.76 7.18 8.24 7.47 8.53L8.94 10L7.47 11.47C7.18 11.76 7.18 12.24 7.47 12.53Z" fill="black"/>
<path d="M16.53 7.47C16.24 7.18 15.76 7.18 15.47 7.47L13.47 9.47C13.18 9.76 13.18 10.24 13.47 10.53L15.47 12.53C15.62 12.68 15.81 12.75 16 12.75C16.19 12.75 16.38 12.68 16.53 12.53C16.82 12.24 16.82 11.76 16.53 11.47L15.06 10L16.53 8.53C16.82 8.24 16.82 7.76 16.53 7.47Z" fill="black"/>
<path d="M16.34 15.33L14.56 14.44C14.21 14.26 13.79 14.27 13.44 14.44L12 15.16L10.56 14.44C10.21 14.26 9.79 14.27 9.44 14.44L7.66 15.33C7.29 15.52 7.14 15.97 7.33 16.34C7.52 16.71 7.96 16.86 8.34 16.67L10 15.84L11.44 16.56C11.79 16.74 12.21 16.73 12.56 16.56L14 15.84L15.66 16.67C15.77 16.72 15.88 16.75 15.99 16.75C16.27 16.75 16.53 16.6 16.66 16.34C16.85 15.97 16.7 15.52 16.33 15.33H16.34Z" fill="black"/>
</svg>
