<svg width="24" height="24" viewBox="0 0 24 24" fill="none" xmlns="http://www.w3.org/2000/svg">
<path d="M12 2.25C6.62 2.25 2.25 6.62 2.25 12C2.25 17.38 6.62 21.75 12 21.75C17.38 21.75 21.75 17.38 21.75 12C21.75 6.62 17.38 2.25 12 2.25ZM12 20.25C7.45 20.25 3.75 16.55 3.75 12C3.75 7.45 7.45 3.75 12 3.75C16.55 3.75 20.25 7.45 20.25 12C20.25 16.55 16.55 20.25 12 20.25Z" fill="black"/>
<path d="M16.21 13.28C15.81 13.16 15.4 13.39 15.28 13.79C14.86 15.24 13.51 16.25 12 16.25C10.49 16.25 9.14 15.24 8.72 13.79C8.6 13.39 8.19 13.16 7.79 13.28C7.39 13.4 7.16 13.81 7.28 14.21C7.89 16.29 9.83 17.75 12 17.75C14.17 17.75 16.11 16.29 16.72 14.21C16.84 13.81 16.61 13.4 16.21 13.28Z" fill="black"/>
<path d="M7.63 10.24C7.63 10.24 7.96 9.75 8.5 9.75H8.52C9.05 9.76 9.35 10.22 9.36 10.24C9.5 10.47 9.75 10.59 10 10.59C10.14 10.59 10.27 10.55 10.4 10.48C10.75 10.26 10.86 9.8 10.64 9.45C10.57 9.33 9.87 8.28 8.56 8.26C7.18 8.25 6.45 9.33 6.37 9.45C6.15 9.8 6.26 10.25 6.6 10.47C6.95 10.69 7.41 10.59 7.63 10.25V10.24Z" fill="black"/>
<path d="M15.55 8.25C14.17 8.24 13.44 9.32 13.36 9.44C13.14 9.79 13.25 10.24 13.59 10.46C13.94 10.68 14.4 10.58 14.62 10.24C14.63 10.22 14.95 9.75 15.49 9.75H15.51C16.04 9.76 16.34 10.22 16.35 10.24C16.49 10.47 16.74 10.59 16.99 10.59C17.13 10.59 17.26 10.55 17.39 10.48C17.74 10.26 17.85 9.8 17.63 9.45C17.56 9.33 16.86 8.28 15.55 8.26V8.25Z" fill="black"/>
</svg>
