<svg width="24" height="24" viewBox="0 0 24 24" fill="none" xmlns="http://www.w3.org/2000/svg">
<path d="M12 2.25C6.62 2.25 2.25 6.62 2.25 12C2.25 17.38 6.62 21.75 12 21.75C17.38 21.75 21.75 17.38 21.75 12C21.75 6.62 17.38 2.25 12 2.25ZM12 20.25C7.45 20.25 3.75 16.55 3.75 12C3.75 7.45 7.45 3.75 12 3.75C16.55 3.75 20.25 7.45 20.25 12C20.25 16.55 16.55 20.25 12 20.25Z" fill="black"/>
<path d="M12 13.25C9.83 13.25 7.89 14.71 7.28 16.79C7.16 17.19 7.39 17.6 7.79 17.72C8.19 17.84 8.6 17.61 8.72 17.21C9.14 15.76 10.49 14.75 12 14.75C13.51 14.75 14.86 15.76 15.28 17.21C15.38 17.54 15.68 17.75 16 17.75C16.07 17.75 16.14 17.75 16.21 17.72C16.61 17.6 16.84 17.19 16.72 16.79C16.11 14.71 14.17 13.25 12 13.25Z" fill="black"/>
<path d="M8.67 9.67C9.05 9.86 9.25 10.17 9.34 10.34C9.47 10.6 9.74 10.75 10.01 10.75C10.13 10.75 10.24 10.72 10.35 10.67C10.72 10.48 10.86 10.03 10.68 9.66C10.38 9.08 9.91 8.61 9.35 8.33C8.15 7.73 7.02 8.17 6.7 8.33C6.32 8.5 6.16 8.95 6.34 9.33C6.51 9.71 6.96 9.87 7.34 9.69C7.41 9.66 8.06 9.37 8.69 9.69L8.67 9.67Z" fill="black"/>
<path d="M17.32 8.32C17 8.17 15.87 7.73 14.67 8.32C14.11 8.6 13.63 9.07 13.34 9.65C13.15 10.02 13.3 10.47 13.67 10.66C13.78 10.72 13.9 10.74 14.01 10.74C14.28 10.74 14.55 10.59 14.68 10.33C14.77 10.16 14.97 9.85 15.35 9.66C15.98 9.35 16.63 9.64 16.7 9.66C17.08 9.84 17.52 9.67 17.7 9.3C17.88 8.92 17.71 8.48 17.34 8.3L17.32 8.32Z" fill="black"/>
</svg>
