<svg width="24" height="24" viewBox="0 0 24 24" fill="none" xmlns="http://www.w3.org/2000/svg">
<path d="M12 2.25C6.62 2.25 2.25 6.62 2.25 12C2.25 17.38 6.62 21.75 12 21.75C17.38 21.75 21.75 17.38 21.75 12C21.75 6.62 17.38 2.25 12 2.25ZM8.5 8.25C9.19 8.25 9.75 8.81 9.75 9.5C9.75 10.19 9.19 10.75 8.5 10.75C7.81 10.75 7.25 10.19 7.25 9.5C7.25 8.81 7.81 8.25 8.5 8.25ZM16.21 17.72C15.81 17.83 15.4 17.61 15.28 17.21C14.86 15.76 13.51 14.75 12 14.75C10.49 14.75 9.14 15.76 8.72 17.21C8.62 17.54 8.32 17.75 8 17.75C7.93 17.75 7.86 17.75 7.79 17.72C7.39 17.6 7.16 17.19 7.28 16.79C7.89 14.71 9.83 13.25 12 13.25C14.17 13.25 16.11 14.71 16.72 16.79C16.84 17.19 16.61 17.6 16.21 17.72ZM15.5 10.75C14.81 10.75 14.25 10.19 14.25 9.5C14.25 8.81 14.81 8.25 15.5 8.25C16.19 8.25 16.75 8.81 16.75 9.5C16.75 10.19 16.19 10.75 15.5 10.75Z" fill="black"/>
</svg>
