<svg width="24" height="24" viewBox="0 0 24 24" fill="none" xmlns="http://www.w3.org/2000/svg">
<path d="M12 2.25C6.62 2.25 2.25 6.62 2.25 12C2.25 17.38 6.62 21.75 12 21.75C17.38 21.75 21.75 17.38 21.75 12C21.75 6.62 17.38 2.25 12 2.25ZM12 20.25C7.45 20.25 3.75 16.55 3.75 12C3.75 7.45 7.45 3.75 12 3.75C16.55 3.75 20.25 7.45 20.25 12C20.25 16.55 16.55 20.25 12 20.25Z" fill="black"/>
<path d="M8.5 10.75C9.19 10.75 9.75 10.19 9.75 9.5C9.75 8.81 9.19 8.25 8.5 8.25C7.81 8.25 7.25 8.81 7.25 9.5C7.25 10.19 7.81 10.75 8.5 10.75ZM8.5 9.25C8.64 9.25 8.75 9.36 8.75 9.5C8.75 9.78 8.25 9.78 8.25 9.5C8.25 9.36 8.36 9.25 8.5 9.25Z" fill="black"/>
<path d="M15.5 8.25C14.81 8.25 14.25 8.81 14.25 9.5C14.25 10.19 14.81 10.75 15.5 10.75C16.19 10.75 16.75 10.19 16.75 9.5C16.75 8.81 16.19 8.25 15.5 8.25ZM15.25 9.5C15.25 9.36 15.36 9.25 15.5 9.25C15.64 9.25 15.75 9.36 15.75 9.5C15.75 9.78 15.25 9.78 15.25 9.5Z" fill="black"/>
<path d="M15 13.25H9C8.04 13.25 7.25 14.04 7.25 15C7.25 17.07 8.93 18.75 11 18.75H13C15.07 18.75 16.75 17.07 16.75 15C16.75 14.04 15.96 13.25 15 13.25ZM13 17.25H11C9.76 17.25 8.75 16.24 8.75 15C8.75 14.86 8.86 14.75 9 14.75H15C15.14 14.75 15.25 14.86 15.25 15C15.25 16.24 14.24 17.25 13 17.25Z" fill="black"/>
</svg>
