<svg width="24" height="24" viewBox="0 0 24 24" fill="none" xmlns="http://www.w3.org/2000/svg">
<path d="M12 2.25C6.62 2.25 2.25 6.62 2.25 12C2.25 17.38 6.62 21.75 12 21.75C17.38 21.75 21.75 17.38 21.75 12C21.75 6.62 17.38 2.25 12 2.25ZM12 3.75C15.27 3.75 18.1 5.67 19.43 8.44L18.52 8.9C18.1 7.93 17.13 7.25 16 7.25C14.75 7.25 13.7 8.1 13.37 9.25H10.64C10.31 8.1 9.26 7.25 8.01 7.25C6.88 7.25 5.92 7.93 5.49 8.9L4.58 8.44C5.91 5.67 8.74 3.75 12.01 3.75H12ZM17.25 10C17.25 10.69 16.69 11.25 16 11.25C15.31 11.25 14.75 10.69 14.75 10C14.75 9.31 15.31 8.75 16 8.75C16.69 8.75 17.25 9.31 17.25 10ZM9.25 10C9.25 10.69 8.69 11.25 8 11.25C7.31 11.25 6.75 10.69 6.75 10C6.75 9.31 7.31 8.75 8 8.75C8.69 8.75 9.25 9.31 9.25 10ZM12 20.25C7.45 20.25 3.75 16.55 3.75 12C3.75 11.26 3.86 10.54 4.04 9.86L5.3 10.49C5.53 11.77 6.65 12.75 8 12.75C9.25 12.75 10.3 11.9 10.63 10.75H13.36C13.69 11.9 14.74 12.75 15.99 12.75C17.34 12.75 18.46 11.77 18.69 10.49L19.95 9.86C20.13 10.54 20.24 11.26 20.24 12C20.24 16.55 16.54 20.25 11.99 20.25H12Z" fill="black"/>
<path d="M15.95 14.36C15.6 14.14 15.14 14.26 14.92 14.61C14.3 15.62 13.18 16.25 12 16.25C11.43 16.25 10.86 16.1 10.36 15.83C10 15.63 9.54 15.76 9.34 16.13C9.14 16.49 9.27 16.95 9.64 17.15C10.36 17.55 11.18 17.76 12 17.76C13.7 17.76 15.31 16.86 16.2 15.4C16.42 15.05 16.3 14.58 15.95 14.37V14.36Z" fill="black"/>
</svg>
