<svg width="24" height="24" viewBox="0 0 24 24" fill="none" xmlns="http://www.w3.org/2000/svg">
<path d="M12 2.25C6.62 2.25 2.25 6.62 2.25 12C2.25 17.38 6.62 21.75 12 21.75C17.38 21.75 21.75 17.38 21.75 12C21.75 6.62 17.38 2.25 12 2.25ZM8.5 8.25C9.19 8.25 9.75 8.81 9.75 9.5C9.75 10.19 9.19 10.75 8.5 10.75C7.81 10.75 7.25 10.19 7.25 9.5C7.25 8.81 7.81 8.25 8.5 8.25ZM16 15.75H8C7.59 15.75 7.25 15.41 7.25 15C7.25 14.59 7.59 14.25 8 14.25H16C16.41 14.25 16.75 14.59 16.75 15C16.75 15.41 16.41 15.75 16 15.75ZM15.5 10.75C14.81 10.75 14.25 10.19 14.25 9.5C14.25 8.81 14.81 8.25 15.5 8.25C16.19 8.25 16.75 8.81 16.75 9.5C16.75 10.19 16.19 10.75 15.5 10.75Z" fill="black"/>
</svg>
