<svg width="24" height="24" viewBox="0 0 24 24" fill="none" xmlns="http://www.w3.org/2000/svg">
<path d="M12 2.25C6.62 2.25 2.25 6.62 2.25 12C2.25 17.38 6.62 21.75 12 21.75C17.38 21.75 21.75 17.38 21.75 12C21.75 6.62 17.38 2.25 12 2.25ZM12 20.25C7.45 20.25 3.75 16.55 3.75 12C3.75 7.45 7.45 3.75 12 3.75C16.55 3.75 20.25 7.45 20.25 12C20.25 16.55 16.55 20.25 12 20.25Z" fill="black"/>
<path d="M8.55 8.25C7.18 8.25 6.44 9.32 6.36 9.44C6.14 9.79 6.25 10.24 6.59 10.46C6.94 10.68 7.4 10.58 7.62 10.23C7.63 10.21 7.96 9.71 8.51 9.74C9.04 9.75 9.34 10.21 9.35 10.23C9.49 10.46 9.74 10.58 9.99 10.58C10.13 10.58 10.26 10.54 10.39 10.47C10.74 10.25 10.85 9.79 10.63 9.44C10.56 9.32 9.86 8.27 8.54 8.25H8.55Z" fill="black"/>
<path d="M15.55 8.25C14.17 8.25 13.44 9.32 13.36 9.44C13.14 9.79 13.25 10.24 13.59 10.46C13.94 10.68 14.4 10.58 14.62 10.23C14.63 10.21 14.98 9.71 15.51 9.74C16.04 9.75 16.34 10.21 16.35 10.23C16.49 10.46 16.74 10.58 16.99 10.58C17.13 10.58 17.26 10.54 17.39 10.47C17.74 10.25 17.85 9.79 17.63 9.44C17.56 9.32 16.86 8.27 15.54 8.25H15.55Z" fill="black"/>
<path d="M13 12.25H12C11.59 12.25 11.25 12.59 11.25 13C11.25 13.41 11.59 13.75 12 13.75H13C13.14 13.75 13.25 13.86 13.25 14C13.25 14.14 13.14 14.25 13 14.25C12.59 14.25 12.25 14.59 12.25 15C12.25 15.41 12.59 15.75 13 15.75C13.14 15.75 13.25 15.86 13.25 16C13.25 16.14 13.14 16.25 13 16.25H12C11.59 16.25 11.25 16.59 11.25 17C11.25 17.41 11.59 17.75 12 17.75H13C13.96 17.75 14.75 16.96 14.75 16C14.75 15.63 14.63 15.28 14.43 15C14.63 14.72 14.75 14.37 14.75 14C14.75 13.04 13.96 12.25 13 12.25Z" fill="black"/>
</svg>
