<svg width="24" height="24" viewBox="0 0 24 24" fill="none" xmlns="http://www.w3.org/2000/svg">
<path d="M12 2.25C6.62 2.25 2.25 6.62 2.25 12C2.25 17.38 6.62 21.75 12 21.75C17.38 21.75 21.75 17.38 21.75 12C21.75 6.62 17.38 2.25 12 2.25ZM12 20.25C7.45 20.25 3.75 16.55 3.75 12C3.75 7.45 7.45 3.75 12 3.75C16.55 3.75 20.25 7.45 20.25 12C20.25 16.55 16.55 20.25 12 20.25Z" fill="black"/>
<path d="M10.75 10.5C10.75 9.26 9.74 8.25 8.5 8.25C7.26 8.25 6.25 9.26 6.25 10.5C6.25 11.74 7.26 12.75 8.5 12.75C9.74 12.75 10.75 11.74 10.75 10.5ZM8.5 11.25C8.09 11.25 7.75 10.91 7.75 10.5C7.75 10.09 8.09 9.75 8.5 9.75C8.91 9.75 9.25 10.09 9.25 10.5C9.25 10.91 8.91 11.25 8.5 11.25Z" fill="black"/>
<path d="M15.5 8.25C14.26 8.25 13.25 9.26 13.25 10.5C13.25 11.74 14.26 12.75 15.5 12.75C16.74 12.75 17.75 11.74 17.75 10.5C17.75 9.26 16.74 8.25 15.5 8.25ZM15.5 11.25C15.09 11.25 14.75 10.91 14.75 10.5C14.75 10.09 15.09 9.75 15.5 9.75C15.91 9.75 16.25 10.09 16.25 10.5C16.25 10.91 15.91 11.25 15.5 11.25Z" fill="black"/>
<path d="M14.6 14.55C14.35 14.22 13.88 14.15 13.55 14.4L12 15.56L10.45 14.4C10.12 14.15 9.65 14.22 9.4 14.55C9.15 14.88 9.22 15.35 9.55 15.6L10.75 16.5L9.55 17.4C9.22 17.65 9.15 18.12 9.4 18.45C9.55 18.65 9.77 18.75 10 18.75C10.16 18.75 10.31 18.7 10.45 18.6L12 17.44L13.55 18.6C13.68 18.7 13.84 18.75 14 18.75C14.23 18.75 14.45 18.65 14.6 18.45C14.85 18.12 14.78 17.65 14.45 17.4L13.25 16.5L14.45 15.6C14.78 15.35 14.85 14.88 14.6 14.55Z" fill="black"/>
</svg>
