<svg width="24" height="24" viewBox="0 0 24 24" fill="none" xmlns="http://www.w3.org/2000/svg">
<path d="M12 2.25C6.62 2.25 2.25 6.62 2.25 12C2.25 17.38 6.62 21.75 12 21.75C17.38 21.75 21.75 17.38 21.75 12C21.75 6.62 17.38 2.25 12 2.25ZM8.5 8.25C9.19 8.25 9.75 8.81 9.75 9.5C9.75 10.19 9.19 10.75 8.5 10.75C7.81 10.75 7.25 10.19 7.25 9.5C7.25 8.81 7.81 8.25 8.5 8.25ZM13 18.75H11C8.93 18.75 7.25 17.07 7.25 15C7.25 14.04 8.04 13.25 9 13.25H15C15.96 13.25 16.75 14.04 16.75 15C16.75 17.07 15.07 18.75 13 18.75ZM15.5 10.75C14.81 10.75 14.25 10.19 14.25 9.5C14.25 8.81 14.81 8.25 15.5 8.25C16.19 8.25 16.75 8.81 16.75 9.5C16.75 10.19 16.19 10.75 15.5 10.75Z" fill="black"/>
</svg>
