<svg width="24" height="24" viewBox="0 0 24 24" fill="none" xmlns="http://www.w3.org/2000/svg">
<path d="M12 2.25C6.62 2.25 2.25 6.62 2.25 12C2.25 17.38 6.62 21.75 12 21.75C17.38 21.75 21.75 17.38 21.75 12C21.75 6.62 17.38 2.25 12 2.25ZM7.25 9.5C7.25 8.81 7.81 8.25 8.5 8.25C9.19 8.25 9.75 8.81 9.75 9.5C9.75 10.19 9.19 10.75 8.5 10.75C7.81 10.75 7.25 10.19 7.25 9.5ZM14.66 14.88C14.46 15.24 14.01 15.38 13.64 15.18C12.33 14.46 10.58 14.73 9.54 15.81C9.39 15.96 9.2 16.04 9 16.04C8.8 16.04 8.62 15.97 8.48 15.83C8.18 15.54 8.17 15.07 8.46 14.77C9.96 13.22 12.47 12.83 14.36 13.87C14.72 14.07 14.86 14.53 14.66 14.89V14.88ZM15.5 10.75C14.81 10.75 14.25 10.19 14.25 9.5C14.25 8.81 14.81 8.25 15.5 8.25C16.19 8.25 16.75 8.81 16.75 9.5C16.75 10.19 16.19 10.75 15.5 10.75Z" fill="black"/>
</svg>
