<svg width="24" height="24" viewBox="0 0 24 24" fill="none" xmlns="http://www.w3.org/2000/svg">
<path d="M12 2.25C6.62 2.25 2.25 6.62 2.25 12C2.25 17.38 6.62 21.75 12 21.75C17.38 21.75 21.75 17.38 21.75 12C21.75 6.62 17.38 2.25 12 2.25ZM6.25 10C6.25 9.59 6.59 9.25 7 9.25H10C10.41 9.25 10.75 9.59 10.75 10C10.75 10.41 10.41 10.75 10 10.75H7C6.59 10.75 6.25 10.41 6.25 10ZM16 15.75H8C7.59 15.75 7.25 15.41 7.25 15C7.25 14.59 7.59 14.25 8 14.25H16C16.41 14.25 16.75 14.59 16.75 15C16.75 15.41 16.41 15.75 16 15.75ZM17 10.75H14C13.59 10.75 13.25 10.41 13.25 10C13.25 9.59 13.59 9.25 14 9.25H17C17.41 9.25 17.75 9.59 17.75 10C17.75 10.41 17.41 10.75 17 10.75Z" fill="black"/>
</svg>
