<svg width="24" height="24" viewBox="0 0 24 24" fill="none" xmlns="http://www.w3.org/2000/svg">
<path d="M12 2.25C6.62 2.25 2.25 6.62 2.25 12C2.25 17.38 6.62 21.75 12 21.75C17.38 21.75 21.75 17.38 21.75 12C21.75 6.62 17.38 2.25 12 2.25ZM12 20.25C7.45 20.25 3.75 16.55 3.75 12C3.75 7.45 7.45 3.75 12 3.75C16.55 3.75 20.25 7.45 20.25 12C20.25 16.55 16.55 20.25 12 20.25Z" fill="black"/>
<path d="M9.33 9.56C9.46 9.82 9.73 9.97 10 9.97C10.11 9.97 10.23 9.94 10.34 9.89C10.71 9.7 10.85 9.25 10.67 8.88C10.37 8.3 9.9 7.83 9.34 7.55C8.14 6.96 7.01 7.39 6.69 7.55C6.31 7.72 6.15 8.17 6.33 8.55C6.5 8.93 6.95 9.09 7.33 8.91C7.4 8.88 8.06 8.59 8.68 8.91C9.06 9.1 9.26 9.41 9.35 9.58L9.33 9.56Z" fill="black"/>
<path d="M17.32 7.54C17 7.39 15.87 6.95 14.67 7.54C14.1 7.82 13.63 8.29 13.34 8.87C13.15 9.24 13.3 9.69 13.67 9.88C13.78 9.94 13.9 9.96 14.01 9.96C14.28 9.96 14.55 9.81 14.68 9.55C14.77 9.38 14.97 9.07 15.35 8.88C15.98 8.57 16.63 8.85 16.7 8.88C17.08 9.06 17.52 8.89 17.7 8.52C17.87 8.14 17.71 7.7 17.34 7.52L17.32 7.54Z" fill="black"/>
<path d="M12 11.25C9.93 11.25 8.25 12.93 8.25 15C8.25 17.07 9.93 18.75 12 18.75C14.07 18.75 15.75 17.07 15.75 15C15.75 12.93 14.07 11.25 12 11.25ZM12 12.75C13.24 12.75 14.25 13.76 14.25 15C14.25 15.05 14.24 15.09 14.24 15.14C13.35 14.3 12.24 14.25 12 14.25C10.93 14.25 10.18 14.77 9.77 15.16C9.77 15.11 9.75 15.06 9.75 15C9.75 13.76 10.76 12.75 12 12.75ZM10.42 16.6C10.48 16.56 10.55 16.52 10.6 16.45C10.65 16.38 11.15 15.75 12 15.75C12.09 15.75 12.89 15.77 13.4 16.45C13.45 16.51 13.51 16.56 13.57 16.6C13.16 17 12.61 17.25 12 17.25C11.39 17.25 10.83 17 10.42 16.6Z" fill="black"/>
</svg>
