<svg width="24" height="24" viewBox="0 0 24 24" fill="none" xmlns="http://www.w3.org/2000/svg">
<path d="M12 2.25C6.62 2.25 2.25 6.62 2.25 12C2.25 17.38 6.62 21.75 12 21.75C17.38 21.75 21.75 17.38 21.75 12C21.75 6.62 17.38 2.25 12 2.25ZM12 20.25C7.45 20.25 3.75 16.55 3.75 12C3.75 7.45 7.45 3.75 12 3.75C16.55 3.75 20.25 7.45 20.25 12C20.25 16.55 16.55 20.25 12 20.25Z" fill="black"/>
<path d="M8.55 10.59C9.87 10.56 10.56 9.52 10.63 9.4C10.85 9.05 10.74 8.59 10.39 8.37C10.04 8.15 9.58 8.25 9.35 8.6C9.34 8.62 9.04 9.08 8.51 9.09H8.49C7.96 9.09 7.64 8.63 7.62 8.6C7.4 8.25 6.94 8.15 6.59 8.36C6.24 8.58 6.13 9.04 6.35 9.39C6.43 9.51 7.13 10.58 8.48 10.58H8.53L8.55 10.59Z" fill="black"/>
<path d="M17.4 8.37C17.05 8.15 16.59 8.25 16.36 8.6C16.35 8.62 16.05 9.08 15.52 9.09H15.5C14.97 9.09 14.65 8.63 14.63 8.6C14.41 8.25 13.95 8.15 13.6 8.36C13.25 8.58 13.14 9.04 13.36 9.39C13.44 9.51 14.14 10.58 15.49 10.58H15.54C16.86 10.55 17.55 9.51 17.62 9.39C17.84 9.04 17.73 8.58 17.38 8.36L17.4 8.37Z" fill="black"/>
<path d="M15.4 14.55C14.16 16.2 12.22 16.25 12 16.25C9.93 16.25 8.73 14.72 8.6 14.55C8.35 14.22 7.88 14.15 7.55 14.4C7.22 14.65 7.15 15.12 7.4 15.45C7.69 15.83 9.26 17.75 12 17.75C12.48 17.75 14.96 17.64 16.6 15.45C16.85 15.12 16.78 14.65 16.45 14.4C16.12 14.15 15.65 14.22 15.4 14.55Z" fill="black"/>
</svg>
