<svg width="24" height="24" viewBox="0 0 24 24" fill="none" xmlns="http://www.w3.org/2000/svg">
<path d="M15 14.75H9C8.86 14.75 8.75 14.86 8.75 15C8.75 16.24 9.76 17.25 11 17.25H13C14.24 17.25 15.25 16.24 15.25 15C15.25 14.86 15.14 14.75 15 14.75Z" fill="black"/>
<path d="M12 2.25C6.62 2.25 2.25 6.62 2.25 12C2.25 17.38 6.62 21.75 12 21.75C17.38 21.75 21.75 17.38 21.75 12C21.75 6.62 17.38 2.25 12 2.25ZM5.84 9.93C5.71 9.74 5.6 9.56 5.49 9.39C5.17 8.84 5.16 8.18 5.49 7.62C5.81 7.06 6.41 6.71 7.05 6.71C7.52 6.71 7.98 6.9 8.32 7.24L8.51 7.43L8.7 7.24C9.03 6.91 9.49 6.72 9.96 6.72C10.6 6.72 11.2 7.07 11.52 7.63C11.84 8.19 11.84 8.85 11.52 9.39C11.41 9.57 11.3 9.75 11.17 9.93C10.74 10.55 10.24 11.11 9.67 11.6C9.34 11.89 8.92 12.03 8.51 12.03C8.1 12.03 7.69 11.89 7.35 11.6C6.78 11.11 6.27 10.54 5.85 9.93H5.84ZM13 18.75H11C8.93 18.75 7.25 17.07 7.25 15C7.25 14.04 8.04 13.25 9 13.25H15C15.96 13.25 16.75 14.04 16.75 15C16.75 17.07 15.07 18.75 13 18.75ZM18.51 9.38C18.4 9.56 18.29 9.74 18.16 9.92C17.73 10.54 17.23 11.1 16.66 11.59C16.33 11.88 15.91 12.02 15.5 12.02C15.09 12.02 14.68 11.88 14.34 11.59C13.77 11.1 13.26 10.53 12.84 9.92C12.71 9.73 12.6 9.55 12.49 9.38C12.17 8.83 12.16 8.17 12.49 7.61C12.81 7.05 13.41 6.7 14.05 6.7C14.52 6.7 14.98 6.89 15.32 7.23L15.51 7.42L15.7 7.23C16.03 6.9 16.49 6.71 16.96 6.71C17.6 6.71 18.2 7.06 18.52 7.62C18.84 8.18 18.84 8.84 18.52 9.38H18.51Z" fill="black"/>
</svg>
