<svg width="24" height="24" viewBox="0 0 24 24" fill="none" xmlns="http://www.w3.org/2000/svg">
<path d="M12 2.25C6.62 2.25 2.25 6.62 2.25 12C2.25 17.38 6.62 21.75 12 21.75C17.38 21.75 21.75 17.38 21.75 12C21.75 6.62 17.38 2.25 12 2.25ZM7.47 8.53C7.18 8.24 7.18 7.76 7.47 7.47C7.76 7.18 8.24 7.18 8.53 7.47L10.53 9.47C10.82 9.76 10.82 10.24 10.53 10.53L8.53 12.53C8.38 12.68 8.19 12.75 8 12.75C7.81 12.75 7.62 12.68 7.47 12.53C7.18 12.24 7.18 11.76 7.47 11.47L8.94 10L7.47 8.53ZM16.67 16.34C16.54 16.6 16.27 16.75 16 16.75C15.89 16.75 15.77 16.72 15.67 16.67L14.01 15.84L12.57 16.56C12.22 16.73 11.8 16.74 11.45 16.56L10.01 15.84L8.35 16.67C7.98 16.86 7.53 16.71 7.34 16.34C7.15 15.97 7.3 15.52 7.67 15.33L9.45 14.44C9.8 14.27 10.22 14.26 10.57 14.44L12.01 15.16L13.45 14.44C13.8 14.27 14.22 14.26 14.57 14.44L16.35 15.33C16.72 15.52 16.87 15.97 16.68 16.34H16.67ZM16.53 11.47C16.82 11.76 16.82 12.24 16.53 12.53C16.38 12.68 16.19 12.75 16 12.75C15.81 12.75 15.62 12.68 15.47 12.53L13.47 10.53C13.18 10.24 13.18 9.76 13.47 9.47L15.47 7.47C15.76 7.18 16.24 7.18 16.53 7.47C16.82 7.76 16.82 8.24 16.53 8.53L15.06 10L16.53 11.47Z" fill="black"/>
</svg>
