<svg width="24" height="24" viewBox="0 0 24 24" fill="none" xmlns="http://www.w3.org/2000/svg">
<path d="M12 12.75C10.76 12.75 9.75 13.76 9.75 15C9.75 15.05 9.76 15.1 9.77 15.16C10.19 14.77 10.94 14.25 12 14.25C12.24 14.25 13.34 14.3 14.24 15.14C14.24 15.09 14.25 15.05 14.25 15C14.25 13.76 13.24 12.75 12 12.75Z" fill="black"/>
<path d="M12 15.75C11.15 15.75 10.65 16.38 10.6 16.45C10.55 16.51 10.48 16.55 10.42 16.6C10.83 17 11.38 17.25 12 17.25C12.62 17.25 13.17 17 13.57 16.6C13.51 16.56 13.45 16.51 13.4 16.45C12.89 15.77 12.09 15.75 12 15.75Z" fill="black"/>
<path d="M12 2.25C6.62 2.25 2.25 6.62 2.25 12C2.25 17.38 6.62 21.75 12 21.75C17.38 21.75 21.75 17.38 21.75 12C21.75 6.62 17.38 2.25 12 2.25ZM7.32 8.9C6.94 9.08 6.5 8.91 6.32 8.54C6.15 8.16 6.31 7.72 6.68 7.54C7 7.39 8.13 6.95 9.33 7.54C9.9 7.82 10.37 8.29 10.66 8.87C10.85 9.24 10.7 9.69 10.33 9.88C10.22 9.94 10.1 9.96 9.99 9.96C9.72 9.96 9.45 9.81 9.32 9.55C9.23 9.38 9.03 9.07 8.65 8.88C8.02 8.57 7.37 8.85 7.3 8.88L7.32 8.9ZM12 18.75C9.93 18.75 8.25 17.07 8.25 15C8.25 12.93 9.93 11.25 12 11.25C14.07 11.25 15.75 12.93 15.75 15C15.75 17.07 14.07 18.75 12 18.75ZM17.68 8.54C17.51 8.92 17.06 9.08 16.68 8.9C16.61 8.87 15.95 8.58 15.33 8.9C14.95 9.09 14.75 9.4 14.66 9.57C14.53 9.83 14.26 9.98 13.99 9.98C13.88 9.98 13.76 9.95 13.65 9.9C13.28 9.71 13.14 9.26 13.32 8.89C13.62 8.31 14.09 7.84 14.65 7.56C15.85 6.96 16.98 7.4 17.3 7.56C17.68 7.73 17.84 8.18 17.66 8.56L17.68 8.54Z" fill="black"/>
</svg>
