<svg width="24" height="24" viewBox="0 0 24 24" fill="none" xmlns="http://www.w3.org/2000/svg">
<path d="M12 2.25C6.62 2.25 2.25 6.62 2.25 12C2.25 17.38 6.62 21.75 12 21.75C17.38 21.75 21.75 17.38 21.75 12C21.75 6.62 17.38 2.25 12 2.25ZM12 20.25C7.45 20.25 3.75 16.55 3.75 12C3.75 7.45 7.45 3.75 12 3.75C16.55 3.75 20.25 7.45 20.25 12C20.25 16.55 16.55 20.25 12 20.25Z" fill="black"/>
<path d="M7.63 10.24C7.63 10.24 7.96 9.75 8.5 9.75H8.52C9.05 9.76 9.35 10.22 9.36 10.24C9.5 10.47 9.75 10.59 10 10.59C10.14 10.59 10.27 10.55 10.4 10.48C10.75 10.26 10.86 9.8 10.64 9.45C10.57 9.33 9.87 8.28 8.55 8.26H8.5C7.15 8.26 6.44 9.33 6.36 9.45C6.14 9.8 6.25 10.25 6.59 10.47C6.94 10.69 7.4 10.59 7.62 10.25L7.63 10.24Z" fill="black"/>
<path d="M15.55 8.25H15.5C14.15 8.25 13.44 9.32 13.36 9.44C13.14 9.79 13.25 10.24 13.59 10.46C13.94 10.68 14.4 10.58 14.62 10.24C14.63 10.22 14.94 9.77 15.51 9.75C16.04 9.76 16.34 10.22 16.35 10.24C16.49 10.47 16.74 10.59 16.99 10.59C17.13 10.59 17.26 10.55 17.39 10.48C17.74 10.26 17.85 9.8 17.63 9.45C17.56 9.33 16.86 8.28 15.54 8.26L15.55 8.25Z" fill="black"/>
<path d="M15.65 13.34C14.87 13.76 13.6 14.25 12 14.25C11.12 14.25 9.77 14.09 8.35 13.34C7.98 13.15 7.53 13.28 7.34 13.65C7.14 14.02 7.28 14.47 7.65 14.66C7.83 14.76 8.02 14.85 8.2 14.93L7.83 15.67C7.37 16.59 7.74 17.71 8.67 18.18C8.93 18.31 9.22 18.38 9.5 18.38C9.7 18.38 9.9 18.35 10.09 18.28C10.56 18.12 10.95 17.79 11.17 17.34L11.96 15.75H12C13.91 15.75 15.42 15.16 16.35 14.66C16.72 14.46 16.85 14.01 16.66 13.65C16.46 13.28 16.01 13.15 15.65 13.34ZM9.83 16.67C9.77 16.79 9.67 16.84 9.62 16.85C9.57 16.87 9.46 16.89 9.34 16.83C9.16 16.74 9.08 16.52 9.18 16.34L9.63 15.44C9.89 15.51 10.13 15.56 10.37 15.6L9.84 16.67H9.83Z" fill="black"/>
</svg>
