<svg width="24" height="24" viewBox="0 0 24 24" fill="none" xmlns="http://www.w3.org/2000/svg">
<path d="M12 2.25C6.62 2.25 2.25 6.62 2.25 12C2.25 17.38 6.62 21.75 12 21.75C17.38 21.75 21.75 17.38 21.75 12C21.75 6.62 17.38 2.25 12 2.25ZM12 20.25C7.45 20.25 3.75 16.55 3.75 12C3.75 7.45 7.45 3.75 12 3.75C16.55 3.75 20.25 7.45 20.25 12C20.25 16.55 16.55 20.25 12 20.25Z" fill="black"/>
<path d="M15 13.25H9C8.04 13.25 7.25 14.04 7.25 15C7.25 17.07 8.93 18.75 11 18.75H13C15.07 18.75 16.75 17.07 16.75 15C16.75 14.04 15.96 13.25 15 13.25ZM13 17.25H11C9.76 17.25 8.75 16.24 8.75 15C8.75 14.86 8.86 14.75 9 14.75H15C15.14 14.75 15.25 14.86 15.25 15C15.25 16.24 14.24 17.25 13 17.25Z" fill="black"/>
<path d="M8.5 12.03C8.91 12.03 9.32 11.89 9.66 11.6C10.23 11.11 10.74 10.54 11.16 9.93C11.29 9.75 11.4 9.57 11.51 9.39C11.83 8.84 11.83 8.18 11.51 7.63C11.19 7.07 10.59 6.72 9.95 6.72C9.48 6.72 9.02 6.91 8.69 7.24L8.5 7.43L8.31 7.24C7.98 6.91 7.52 6.71 7.04 6.71C6.4 6.71 5.8 7.06 5.48 7.62C5.16 8.18 5.16 8.84 5.48 9.39C5.59 9.57 5.7 9.75 5.83 9.93C6.25 10.54 6.76 11.1 7.33 11.6C7.66 11.89 8.08 12.03 8.49 12.03H8.5ZM6.79 8.63C6.73 8.53 6.76 8.43 6.79 8.37C6.82 8.32 6.89 8.22 7.05 8.22C7.13 8.22 7.2 8.25 7.25 8.3L7.97 9.02C8.26 9.31 8.74 9.31 9.03 9.02L9.75 8.3C9.8 8.25 9.88 8.22 9.95 8.22C10.11 8.22 10.18 8.33 10.21 8.37C10.25 8.43 10.27 8.53 10.21 8.63C10.12 8.78 10.02 8.93 9.92 9.09C9.57 9.6 9.15 10.06 8.67 10.47C8.56 10.56 8.42 10.56 8.31 10.47C7.83 10.06 7.41 9.59 7.06 9.09C6.95 8.94 6.86 8.78 6.77 8.64L6.79 8.63Z" fill="black"/>
<path d="M18.51 7.62C18.19 7.06 17.59 6.71 16.95 6.71C16.48 6.71 16.02 6.9 15.69 7.23L15.5 7.42L15.31 7.23C14.98 6.9 14.52 6.7 14.04 6.7C13.4 6.7 12.8 7.05 12.48 7.61C12.16 8.17 12.16 8.83 12.48 9.38C12.59 9.56 12.7 9.74 12.83 9.92C13.25 10.53 13.76 11.09 14.33 11.59C14.66 11.88 15.08 12.02 15.49 12.02C15.9 12.02 16.31 11.88 16.65 11.59C17.22 11.1 17.73 10.53 18.15 9.92C18.28 9.74 18.39 9.56 18.5 9.38C18.82 8.83 18.82 8.17 18.5 7.62H18.51ZM17.21 8.62C17.12 8.77 17.02 8.92 16.92 9.08C16.57 9.59 16.15 10.05 15.67 10.46C15.56 10.55 15.42 10.55 15.31 10.46C14.83 10.05 14.41 9.58 14.06 9.08C13.95 8.93 13.86 8.77 13.77 8.63C13.71 8.53 13.74 8.43 13.77 8.37C13.8 8.32 13.87 8.22 14.03 8.22C14.11 8.22 14.18 8.25 14.23 8.3L14.95 9.02C15.24 9.31 15.72 9.31 16.01 9.02L16.73 8.3C16.78 8.25 16.86 8.22 16.93 8.22C17.09 8.22 17.16 8.33 17.19 8.37C17.23 8.43 17.25 8.53 17.19 8.63L17.21 8.62Z" fill="black"/>
</svg>
