<svg width="24" height="24" viewBox="0 0 24 24" fill="none" xmlns="http://www.w3.org/2000/svg">
<path d="M12 2.25C6.62 2.25 2.25 6.62 2.25 12C2.25 17.38 6.62 21.75 12 21.75C17.38 21.75 21.75 17.38 21.75 12C21.75 6.62 17.38 2.25 12 2.25ZM12 20.25C7.45 20.25 3.75 16.55 3.75 12C3.75 7.45 7.45 3.75 12 3.75C16.55 3.75 20.25 7.45 20.25 12C20.25 16.55 16.55 20.25 12 20.25Z" fill="black"/>
<path d="M15 13.25H9C8.04 13.25 7.25 14.04 7.25 15C7.25 17.07 8.93 18.75 11 18.75H13C15.07 18.75 16.75 17.07 16.75 15C16.75 14.04 15.96 13.25 15 13.25ZM13 17.25H11C9.76 17.25 8.75 16.24 8.75 15C8.75 14.86 8.86 14.75 9 14.75H15C15.14 14.75 15.25 14.86 15.25 15C15.25 16.24 14.24 17.25 13 17.25Z" fill="black"/>
<path d="M8.12 11.38L7.79 10.07C7.94 9.92 8.18 9.74 8.52 9.76C9.05 9.77 9.35 10.23 9.36 10.24C9.5 10.47 9.75 10.59 10 10.59C10.14 10.59 10.27 10.55 10.39 10.48C10.74 10.26 10.85 9.8 10.63 9.45C10.56 9.33 9.87 8.28 8.54 8.26C7.43 8.26 6.63 9 6.35 9.46C6.35 9.47 6.35 9.49 6.33 9.5L5.21 10.06C4.48 10.42 4.05 11.16 4.09 11.97C4.12 12.78 4.61 13.47 5.37 13.78C5.62 13.88 5.87 13.93 6.13 13.93C6.61 13.93 7.09 13.76 7.47 13.43C8.05 12.92 8.29 12.15 8.11 11.4L8.12 11.38ZM6.5 12.28C6.43 12.34 6.22 12.48 5.95 12.37C5.66 12.25 5.62 12 5.61 11.89C5.6 11.78 5.63 11.53 5.91 11.39L6.51 11.09L6.67 11.74C6.74 12.03 6.58 12.21 6.5 12.28Z" fill="black"/>
<path d="M18.77 10.05L17.65 9.49C17.65 9.49 17.65 9.46 17.63 9.45C17.56 9.33 16.87 8.28 15.54 8.26C14.42 8.26 13.63 9 13.35 9.46C13.13 9.81 13.24 10.26 13.59 10.48C13.94 10.7 14.4 10.6 14.62 10.25C14.63 10.23 14.98 9.73 15.51 9.76C15.84 9.76 16.06 9.94 16.2 10.07L15.87 11.38C15.68 12.13 15.93 12.9 16.51 13.41C16.89 13.74 17.36 13.91 17.85 13.91C18.11 13.91 18.36 13.86 18.61 13.76C19.37 13.46 19.86 12.77 19.89 11.95C19.92 11.14 19.49 10.41 18.77 10.04V10.05ZM18.06 12.37C17.79 12.48 17.58 12.34 17.51 12.28C17.44 12.22 17.27 12.03 17.34 11.74L17.5 11.09L18.1 11.39C18.38 11.53 18.4 11.79 18.4 11.89C18.4 11.99 18.35 12.25 18.06 12.37Z" fill="black"/>
</svg>
