<svg width="24" height="24" viewBox="0 0 24 24" fill="none" xmlns="http://www.w3.org/2000/svg">
<path d="M12 2.25C6.62 2.25 2.25 6.62 2.25 12C2.25 17.38 6.62 21.75 12 21.75C17.38 21.75 21.75 17.38 21.75 12C21.75 6.62 17.38 2.25 12 2.25ZM6.32 9.32C6.14 8.94 6.31 8.5 6.68 8.32C7 8.17 8.13 7.73 9.33 8.32C9.89 8.6 10.37 9.07 10.66 9.65C10.85 10.02 10.7 10.47 10.33 10.66C10.22 10.72 10.1 10.74 9.99 10.74C9.72 10.74 9.45 10.59 9.32 10.33C9.23 10.16 9.03 9.85 8.65 9.66C8.02 9.35 7.37 9.63 7.3 9.66C6.93 9.84 6.48 9.67 6.3 9.3L6.32 9.32ZM16.21 17.72C16.14 17.74 16.07 17.75 16 17.75C15.68 17.75 15.38 17.54 15.28 17.21C14.86 15.76 13.51 14.75 12 14.75C10.49 14.75 9.14 15.76 8.72 17.21C8.6 17.61 8.18 17.84 7.79 17.72C7.39 17.6 7.16 17.19 7.28 16.79C7.89 14.71 9.83 13.25 12 13.25C14.17 13.25 16.11 14.71 16.72 16.79C16.84 17.19 16.61 17.6 16.21 17.72ZM17.68 9.32C17.51 9.7 17.06 9.86 16.68 9.68C16.61 9.65 15.96 9.36 15.33 9.68C14.95 9.87 14.75 10.18 14.66 10.35C14.53 10.61 14.26 10.76 13.99 10.76C13.87 10.76 13.76 10.73 13.65 10.68C13.28 10.49 13.14 10.04 13.32 9.67C13.62 9.09 14.09 8.62 14.65 8.34C15.85 7.74 16.98 8.18 17.3 8.34C17.68 8.51 17.84 8.96 17.66 9.34L17.68 9.32Z" fill="black"/>
</svg>
