<svg width="24" height="24" viewBox="0 0 24 24" fill="none" xmlns="http://www.w3.org/2000/svg">
<path d="M12 2.25C6.62 2.25 2.25 6.62 2.25 12C2.25 17.38 6.62 21.75 12 21.75C17.38 21.75 21.75 17.38 21.75 12C21.75 6.62 17.38 2.25 12 2.25ZM12 20.25C7.45 20.25 3.75 16.55 3.75 12C3.75 7.45 7.45 3.75 12 3.75C16.55 3.75 20.25 7.45 20.25 12C20.25 16.55 16.55 20.25 12 20.25Z" fill="black"/>
<path d="M8.5 10.75C9.19 10.75 9.75 10.19 9.75 9.5C9.75 8.81 9.19 8.25 8.5 8.25C7.81 8.25 7.25 8.81 7.25 9.5C7.25 10.19 7.81 10.75 8.5 10.75ZM8.5 9.25C8.64 9.25 8.75 9.36 8.75 9.5C8.75 9.78 8.25 9.78 8.25 9.5C8.25 9.36 8.36 9.25 8.5 9.25Z" fill="black"/>
<path d="M15.5 8.25C14.81 8.25 14.25 8.81 14.25 9.5C14.25 10.19 14.81 10.75 15.5 10.75C16.19 10.75 16.75 10.19 16.75 9.5C16.75 8.81 16.19 8.25 15.5 8.25ZM15.25 9.5C15.25 9.36 15.36 9.25 15.5 9.25C15.64 9.25 15.75 9.36 15.75 9.5C15.75 9.78 15.25 9.78 15.25 9.5Z" fill="black"/>
<path d="M16.21 13.28C15.82 13.17 15.4 13.39 15.28 13.79C14.86 15.24 13.51 16.25 12 16.25C10.49 16.25 9.14 15.24 8.72 13.79C8.6 13.39 8.18 13.17 7.79 13.28C7.39 13.4 7.16 13.81 7.28 14.21C7.89 16.29 9.83 17.75 12 17.75C14.17 17.75 16.11 16.29 16.72 14.21C16.84 13.81 16.61 13.4 16.21 13.28Z" fill="black"/>
</svg>
