<svg width="24" height="24" viewBox="0 0 24 24" fill="none" xmlns="http://www.w3.org/2000/svg">
<path d="M8.75 15C8.75 16.24 9.76 17.25 11 17.25H13C14.24 17.25 15.25 16.24 15.25 15V14.75H8.75V15Z" fill="black"/>
<path d="M12 2.25C6.62 2.25 2.25 6.62 2.25 12C2.25 17.38 6.62 21.75 12 21.75C17.38 21.75 21.75 17.38 21.75 12C21.75 6.62 17.38 2.25 12 2.25ZM7.47 7.47C7.76 7.18 8.24 7.18 8.53 7.47L10.53 9.47C10.7 9.64 10.78 9.88 10.74 10.12C10.7 10.36 10.55 10.56 10.34 10.67L8.34 11.67C8.23 11.72 8.12 11.75 8.01 11.75C7.74 11.75 7.47 11.6 7.34 11.34C7.15 10.97 7.3 10.52 7.68 10.33L8.75 9.8L7.49 8.54C7.2 8.25 7.2 7.77 7.49 7.48L7.47 7.47ZM16.75 15C16.75 17.07 15.07 18.75 13 18.75H11C8.93 18.75 7.25 17.07 7.25 15V14C7.25 13.59 7.59 13.25 8 13.25H16C16.41 13.25 16.75 13.59 16.75 14V15ZM15.27 9.79L16.34 10.32C16.71 10.51 16.86 10.96 16.68 11.33C16.55 11.59 16.28 11.74 16.01 11.74C15.9 11.74 15.78 11.71 15.68 11.66L13.68 10.66C13.46 10.55 13.31 10.35 13.27 10.11C13.23 9.87 13.31 9.63 13.48 9.46L15.48 7.46C15.77 7.17 16.25 7.17 16.54 7.46C16.83 7.75 16.83 8.23 16.54 8.52L15.27 9.79Z" fill="black"/>
</svg>
