<svg width="24" height="24" viewBox="0 0 24 24" fill="none" xmlns="http://www.w3.org/2000/svg">
<path d="M12 2.25C6.62 2.25 2.25 6.62 2.25 12C2.25 17.38 6.62 21.75 12 21.75C17.38 21.75 21.75 17.38 21.75 12C21.75 6.62 17.38 2.25 12 2.25ZM12 20.25C7.45 20.25 3.75 16.55 3.75 12C3.75 7.45 7.45 3.75 12 3.75C16.55 3.75 20.25 7.45 20.25 12C20.25 16.55 16.55 20.25 12 20.25Z" fill="black"/>
<path d="M8.5 10.75C9.19 10.75 9.75 10.19 9.75 9.5C9.75 8.81 9.19 8.25 8.5 8.25C7.81 8.25 7.25 8.81 7.25 9.5C7.25 10.19 7.81 10.75 8.5 10.75ZM8.5 9.25C8.64 9.25 8.75 9.36 8.75 9.5C8.75 9.78 8.25 9.78 8.25 9.5C8.25 9.36 8.36 9.25 8.5 9.25Z" fill="black"/>
<path d="M15.5 8.25C14.81 8.25 14.25 8.81 14.25 9.5C14.25 10.19 14.81 10.75 15.5 10.75C16.19 10.75 16.75 10.19 16.75 9.5C16.75 8.81 16.19 8.25 15.5 8.25ZM15.25 9.5C15.25 9.36 15.36 9.25 15.5 9.25C15.64 9.25 15.75 9.36 15.75 9.5C15.75 9.78 15.25 9.78 15.25 9.5Z" fill="black"/>
<path d="M12 13.25C9.83 13.25 7.89 14.71 7.28 16.79C7.16 17.19 7.39 17.6 7.79 17.72C7.86 17.74 7.93 17.75 8 17.75C8.32 17.75 8.62 17.54 8.72 17.21C9.14 15.76 10.49 14.75 12 14.75C13.51 14.75 14.86 15.76 15.28 17.21C15.4 17.61 15.81 17.83 16.21 17.72C16.61 17.6 16.84 17.19 16.72 16.79C16.11 14.71 14.17 13.25 12 13.25Z" fill="black"/>
</svg>
