<svg width="24" height="24" viewBox="0 0 24 24" fill="none" xmlns="http://www.w3.org/2000/svg">
<path d="M13 13.75H11C9.76 13.75 8.75 14.76 8.75 16C8.75 16.14 8.86 16.25 9 16.25H15C15.14 16.25 15.25 16.14 15.25 16C15.25 14.76 14.24 13.75 13 13.75Z" fill="black"/>
<path d="M12 2.25C6.62 2.25 2.25 6.62 2.25 12C2.25 17.38 6.62 21.75 12 21.75C17.38 21.75 21.75 17.38 21.75 12C21.75 6.62 17.38 2.25 12 2.25ZM7.47 7.47C7.76 7.18 8.24 7.18 8.53 7.47L10.53 9.47C10.7 9.64 10.78 9.88 10.74 10.12C10.7 10.36 10.55 10.56 10.34 10.67L8.34 11.67C8.23 11.72 8.12 11.75 8.01 11.75C7.74 11.75 7.47 11.6 7.34 11.33C7.15 10.96 7.3 10.51 7.68 10.32L8.75 9.79L7.49 8.53C7.2 8.24 7.2 7.76 7.49 7.47H7.47ZM15 17.75H9C8.04 17.75 7.25 16.96 7.25 16C7.25 13.93 8.93 12.25 11 12.25H13C15.07 12.25 16.75 13.93 16.75 16C16.75 16.96 15.96 17.75 15 17.75ZM16.53 8.53L15.27 9.79L16.34 10.32C16.71 10.51 16.86 10.96 16.68 11.33C16.55 11.59 16.28 11.75 16.01 11.75C15.9 11.75 15.78 11.72 15.68 11.67L13.68 10.67C13.46 10.56 13.31 10.36 13.27 10.12C13.23 9.88 13.31 9.64 13.48 9.47L15.48 7.47C15.77 7.18 16.25 7.18 16.54 7.47C16.83 7.76 16.83 8.24 16.54 8.53H16.53Z" fill="black"/>
</svg>
