<svg width="24" height="24" viewBox="0 0 24 24" fill="none" xmlns="http://www.w3.org/2000/svg">
<path d="M16 11.25C16.6904 11.25 17.25 10.6904 17.25 10C17.25 9.30964 16.6904 8.75 16 8.75C15.3097 8.75 14.75 9.30964 14.75 10C14.75 10.6904 15.3097 11.25 16 11.25Z" fill="black"/>
<path d="M5.48002 8.9C5.90002 7.93 6.87002 7.25 8.00002 7.25C9.25002 7.25 10.3 8.1 10.63 9.25H13.36C13.69 8.1 14.74 7.25 15.99 7.25C17.12 7.25 18.08 7.93 18.51 8.9L20.77 7.77C19.19 4.51 15.86 2.25 12 2.25C8.14002 2.25 4.86002 4.47 3.27002 7.69L4.39002 8.36L5.49002 8.91L5.48002 8.9Z" fill="black"/>
<path d="M21.33 9.17L18.7 10.48C18.47 11.76 17.35 12.74 16 12.74C14.75 12.74 13.7 11.89 13.37 10.74H10.64C10.31 11.89 9.26002 12.74 8.01002 12.74C6.66002 12.74 5.54002 11.76 5.31002 10.48L3.68002 9.66L2.71002 9.08C2.42002 10 2.27002 10.98 2.27002 11.99C2.27002 17.37 6.64002 21.74 12.02 21.74C17.4 21.74 21.77 17.37 21.77 11.99C21.77 11.01 21.62 10.06 21.35 9.16L21.33 9.17ZM16.2 15.39C15.31 16.85 13.7 17.75 12 17.75C11.18 17.75 10.36 17.54 9.64002 17.14C9.28002 16.94 9.14002 16.48 9.34002 16.12C9.54002 15.76 10 15.62 10.36 15.82C10.86 16.1 11.43 16.24 12 16.24C13.18 16.24 14.3 15.61 14.92 14.6C15.14 14.25 15.6 14.13 15.95 14.35C16.3 14.57 16.41 15.03 16.2 15.38V15.39Z" fill="black"/>
<path d="M8.00002 11.25C8.69038 11.25 9.25002 10.6904 9.25002 10C9.25002 9.30964 8.69038 8.75 8.00002 8.75C7.30966 8.75 6.75002 9.30964 6.75002 10C6.75002 10.6904 7.30966 11.25 8.00002 11.25Z" fill="black"/>
</svg>
