<svg width="24" height="24" viewBox="0 0 24 24" fill="none" xmlns="http://www.w3.org/2000/svg">
<path d="M12 2.25C6.62 2.25 2.25 6.62 2.25 12C2.25 17.38 6.62 21.75 12 21.75C17.38 21.75 21.75 17.38 21.75 12C21.75 6.62 17.38 2.25 12 2.25ZM8.5 8.25C9.19 8.25 9.75 8.81 9.75 9.5C9.75 10.19 9.19 10.75 8.5 10.75C7.81 10.75 7.25 10.19 7.25 9.5C7.25 8.81 7.81 8.25 8.5 8.25ZM16.72 14.21C16.11 16.29 14.17 17.75 12 17.75C9.83 17.75 7.89 16.29 7.28 14.21C7.16 13.81 7.39 13.4 7.79 13.28C8.19 13.17 8.6 13.39 8.72 13.79C9.14 15.24 10.49 16.25 12 16.25C13.51 16.25 14.86 15.24 15.28 13.79C15.4 13.39 15.82 13.17 16.21 13.28C16.61 13.4 16.84 13.81 16.72 14.21ZM15.5 10.75C14.81 10.75 14.25 10.19 14.25 9.5C14.25 8.81 14.81 8.25 15.5 8.25C16.19 8.25 16.75 8.81 16.75 9.5C16.75 10.19 16.19 10.75 15.5 10.75Z" fill="black"/>
</svg>
