<svg width="24" height="24" viewBox="0 0 24 24" fill="none" xmlns="http://www.w3.org/2000/svg">
<path d="M12 2.25C6.62 2.25 2.25 6.62 2.25 12C2.25 17.38 6.62 21.75 12 21.75C17.38 21.75 21.75 17.38 21.75 12C21.75 6.62 17.38 2.25 12 2.25ZM10.4 10.48C10.28 10.56 10.14 10.59 10 10.59C9.75 10.59 9.51 10.46 9.36 10.24C9.35 10.22 9.05 9.76 8.52 9.75C7.97 9.72 7.65 10.22 7.63 10.24C7.4 10.58 6.94 10.69 6.6 10.47C6.25 10.25 6.15 9.79 6.37 9.45C6.45 9.32 7.18 8.25 8.56 8.26C9.88 8.29 10.57 9.33 10.65 9.45C10.87 9.8 10.76 10.26 10.41 10.48H10.4ZM14.75 16C14.75 16.96 13.96 17.75 13 17.75H12C11.59 17.75 11.25 17.41 11.25 17C11.25 16.59 11.59 16.25 12 16.25H13C13.14 16.25 13.25 16.14 13.25 16C13.25 15.86 13.14 15.75 13 15.75C12.59 15.75 12.25 15.41 12.25 15C12.25 14.59 12.59 14.25 13 14.25C13.14 14.25 13.25 14.14 13.25 14C13.25 13.86 13.14 13.75 13 13.75H12C11.59 13.75 11.25 13.41 11.25 13C11.25 12.59 11.59 12.25 12 12.25H13C13.96 12.25 14.75 13.04 14.75 14C14.75 14.37 14.63 14.72 14.43 15C14.63 15.28 14.75 15.63 14.75 16ZM17.4 10.48C17.28 10.56 17.14 10.59 17 10.59C16.75 10.59 16.51 10.46 16.36 10.24C16.35 10.22 16.05 9.76 15.52 9.75C15 9.72 14.65 10.22 14.63 10.24C14.4 10.58 13.94 10.69 13.6 10.47C13.25 10.25 13.15 9.79 13.37 9.45C13.45 9.32 14.17 8.25 15.56 8.26C16.88 8.29 17.57 9.33 17.65 9.45C17.87 9.8 17.76 10.26 17.41 10.48H17.4Z" fill="black"/>
</svg>
