<svg width="24" height="24" viewBox="0 0 24 24" fill="none" xmlns="http://www.w3.org/2000/svg">
<path d="M15.6762 5.11849C15.2299 4.87944 14.758 4.68278 14.2658 4.53366L14.8312 2.66743C15.4479 2.85425 16.0386 3.1005 16.5969 3.39953L15.6762 5.11849Z" fill="black"/>
<path d="M18.0305 7.05248C17.7057 6.65719 17.3428 6.29431 16.9475 5.96953L18.1854 4.46286C18.6788 4.86826 19.1317 5.32116 19.5371 5.81457L18.0305 7.05248Z" fill="black"/>
<path d="M19.4663 9.73418C19.3172 9.24196 19.1206 8.77007 18.8815 8.32377L20.6005 7.40306C20.8995 7.96135 21.1458 8.55214 21.3326 9.16876L19.4663 9.73418Z" fill="black"/>
<path d="M19.7629 12.7672C19.7874 12.5153 19.8 12.2594 19.8 12C19.8 11.7406 19.7874 11.4847 19.7629 11.2328L21.7037 11.044C21.7343 11.3585 21.75 11.6774 21.75 12C21.75 12.3226 21.7343 12.6415 21.7037 12.956L19.7629 12.7672Z" fill="black"/>
<path d="M18.8815 15.6762C19.1206 15.2299 19.3172 14.758 19.4663 14.2658L21.3326 14.8312C21.1458 15.4479 20.8995 16.0386 20.6005 16.5969L18.8815 15.6762Z" fill="black"/>
<path d="M16.9475 18.0305C17.3428 17.7057 17.7057 17.3428 18.0305 16.9475L19.5371 18.1854C19.1317 18.6788 18.6788 19.1317 18.1854 19.5371L16.9475 18.0305Z" fill="black"/>
<path d="M14.2658 19.4663C14.758 19.3172 15.2299 19.1206 15.6762 18.8815L16.5969 20.6005C16.0386 20.8995 15.4479 21.1458 14.8312 21.3326L14.2658 19.4663Z" fill="black"/>
<path d="M11.2328 19.7629C11.4847 19.7874 11.7406 19.8 12 19.8C12.2594 19.8 12.5153 19.7874 12.7672 19.7629L12.956 21.7037C12.6415 21.7343 12.3226 21.75 12 21.75C11.6774 21.75 11.3585 21.7343 11.044 21.7037L11.2328 19.7629Z" fill="black"/>
<path d="M8.32377 18.8815C8.77007 19.1206 9.24196 19.3172 9.73418 19.4663L9.16876 21.3326C8.55214 21.1458 7.96135 20.8995 7.40306 20.6005L8.32377 18.8815Z" fill="black"/>
<path d="M5.96953 16.9475C6.29431 17.3428 6.6572 17.7057 7.05248 18.0305L5.81457 19.5371C5.32116 19.1317 4.86826 18.6788 4.46286 18.1854L5.96953 16.9475Z" fill="black"/>
<path d="M4.53366 14.2658C4.68278 14.758 4.87944 15.2299 5.11849 15.6762L3.39953 16.5969C3.1005 16.0386 2.85425 15.4479 2.66743 14.8312L4.53366 14.2658Z" fill="black"/>
<path d="M2.29628 11.044C2.26567 11.3585 2.25 11.6774 2.25 12C2.25 12.3226 2.26567 12.6415 2.29628 12.956L4.23711 12.7672C4.2126 12.5153 4.2 12.2594 4.2 12C4.2 11.7406 4.2126 11.4847 4.23711 11.2328L2.29628 11.044Z" fill="black"/>
<path d="M5.11849 8.32377C4.87944 8.77007 4.68279 9.24196 4.53366 9.73418L2.66743 9.16876C2.85425 8.55214 3.10051 7.96135 3.39954 7.40306L5.11849 8.32377Z" fill="black"/>
<path d="M7.05248 5.96953C6.6572 6.29431 6.29431 6.6572 5.96954 7.05248L4.46286 5.81457C4.86826 5.32116 5.32116 4.86826 5.81457 4.46286L7.05248 5.96953Z" fill="black"/>
<path d="M9.73418 4.53366C9.24196 4.68278 8.77007 4.87944 8.32377 5.11849L7.40307 3.39953C7.96135 3.1005 8.55214 2.85425 9.16877 2.66743L9.73418 4.53366Z" fill="black"/>
<path d="M12.7672 4.23711C12.5153 4.2126 12.2594 4.2 12 4.2C11.7406 4.2 11.4847 4.2126 11.2328 4.23711L11.044 2.29628C11.3585 2.26567 11.6774 2.25 12 2.25C12.3226 2.25 12.6415 2.26567 12.956 2.29628L12.7672 4.23711Z" fill="black"/>
</svg>
