<svg width="24" height="24" viewBox="0 0 24 24" fill="none" xmlns="http://www.w3.org/2000/svg">
<path d="M18.57 5.76023C17.87 5.27023 17.13 4.80023 16.38 4.35023C15.06 3.58023 13.69 2.89023 12.29 2.30023C12.11 2.22023 11.9 2.22023 11.71 2.30023C10.31 2.88023 8.93 3.57023 7.62 4.35023C6.87 4.80023 6.13 5.27023 5.43 5.76023C4.69 6.28023 4.25 7.12023 4.25 8.02024V12.4002C4.25 14.4702 4.88 16.4502 6.02 17.9702C6.15 18.1402 6.28 18.3102 6.43 18.4802C8.29 20.6402 10.61 21.4402 11.83 21.7202C11.89 21.7302 11.94 21.7402 12 21.7402C12.06 21.7402 12.11 21.7402 12.17 21.7202C13.39 21.4402 15.71 20.6402 17.57 18.4802C17.72 18.3102 17.85 18.1402 17.98 17.9702C19.12 16.4402 19.75 14.4702 19.75 12.4002V8.02024C19.75 7.12023 19.31 6.28023 18.57 5.76023ZM11.5 11.2502H12.5C13.74 11.2502 14.75 12.2602 14.75 13.5002C14.75 14.6502 13.87 15.6002 12.75 15.7202V16.0002C12.75 16.4102 12.41 16.7502 12 16.7502C11.59 16.7502 11.25 16.4102 11.25 16.0002V15.7502H10C9.59 15.7502 9.25 15.4102 9.25 15.0002C9.25 14.5902 9.59 14.2502 10 14.2502H12.5C12.91 14.2502 13.25 13.9102 13.25 13.5002C13.25 13.0902 12.91 12.7502 12.5 12.7502H11.5C10.26 12.7502 9.25 11.7402 9.25 10.5002C9.25 9.35023 10.13 8.40023 11.25 8.28023V8.00023C11.25 7.59023 11.59 7.25023 12 7.25023C12.41 7.25023 12.75 7.59023 12.75 8.00023V8.25023H14C14.41 8.25023 14.75 8.59023 14.75 9.00023C14.75 9.41023 14.41 9.75023 14 9.75023H11.5C11.09 9.75023 10.75 10.0902 10.75 10.5002C10.75 10.9102 11.09 11.2502 11.5 11.2502Z" fill="black"/>
</svg>
