<svg width="24" height="24" viewBox="0 0 24 24" fill="none" xmlns="http://www.w3.org/2000/svg">
<path d="M20.53 9.78002L19.76 9.26002C19.13 8.84002 18.76 8.14002 18.76 7.39002V5.00002C18.76 4.78002 18.67 4.58002 18.5 4.43002C18.34 4.29002 18.12 4.22002 17.9 4.25002C16.67 4.43002 15.85 5.08002 15.48 5.46002C15.03 5.91002 14.69 6.44002 14.48 7.05002C14.44 7.17002 14.34 7.24002 14.23 7.24002H9.01001C6.39001 7.24002 4.26001 9.37002 4.26001 11.99V12.24H4.01001C3.87001 12.24 3.76001 12.13 3.76001 11.99V10.99C3.76001 10.58 3.42001 10.24 3.01001 10.24C2.60001 10.24 2.26001 10.58 2.26001 10.99V11.99C2.26001 12.95 3.05001 13.74 4.01001 13.74H4.26001V14.24C4.26001 16 5.57001 17.46 7.26001 17.7V18.49C7.26001 19.18 7.82001 19.74 8.51001 19.74H10.51C11.2 19.74 11.76 19.18 11.76 18.49V17.99C11.76 17.85 11.87 17.74 12.01 17.74H14.01C14.15 17.74 14.26 17.85 14.26 17.99V18.49C14.26 19.18 14.82 19.74 15.51 19.74H17.51C18.2 19.74 18.76 19.18 18.76 18.49V17.76C18.76 17.41 18.9 17.09 19.13 16.86C19.23 16.76 19.34 16.67 19.47 16.57C19.71 16.38 19.98 16.21 20.26 16.07C21.19 15.6 21.76 14.66 21.76 13.62V12.04C21.76 11.12 21.3 10.26 20.54 9.75002L20.53 9.78002ZM17 12.75H16C15.59 12.75 15.25 12.41 15.25 12C15.25 11.59 15.59 11.25 16 11.25H17C17.41 11.25 17.75 11.59 17.75 12C17.75 12.41 17.41 12.75 17 12.75Z" fill="black"/>
</svg>
