<svg width="24" height="24" viewBox="0 0 24 24" fill="none" xmlns="http://www.w3.org/2000/svg">
<path d="M18.9399 18.45C18.6999 17.73 18.0299 17.25 17.2799 17.25H5.71992C4.96992 17.25 4.29992 17.73 4.05992 18.45L3.28992 20.77C3.20992 21 3.24992 21.25 3.38992 21.45C3.52992 21.65 3.75992 21.76 3.99992 21.76H18.9999C19.2399 21.76 19.4699 21.64 19.6099 21.45C19.7499 21.26 19.7899 21 19.7099 20.77L18.9399 18.45Z" fill="black"/>
<path d="M16.4999 2.25C15.8099 2.25 15.2499 2.81 15.2499 3.5V5.25H13.7499V3.5C13.7499 2.81 13.1899 2.25 12.4999 2.25H10.4999C9.80992 2.25 9.24992 2.81 9.24992 3.5V5.25H7.74992V3.5C7.74992 2.81 7.18992 2.25 6.49992 2.25H4.49992C3.80992 2.25 3.24992 2.81 3.24992 3.5V8C3.24992 9.52 4.47992 10.75 5.99992 10.75H6.86992C6.96992 10.75 7.02992 10.8 7.05992 10.83C7.08992 10.86 7.12992 10.93 7.11992 11.03L6.52992 15.75H16.4799L15.8899 11.03C15.8799 10.93 15.9199 10.87 15.9499 10.83C15.9799 10.8 16.0399 10.75 16.1399 10.75H17.0099C18.5299 10.75 19.7599 9.52 19.7599 8V3.5C19.7599 2.81 19.1999 2.25 18.5099 2.25H16.4999Z" fill="black"/>
</svg>
