<svg width="24" height="24" viewBox="0 0 24 24" fill="none" xmlns="http://www.w3.org/2000/svg">
<path d="M16 7.25H8C7.04 7.25 6.25 8.04 6.25 9V19C6.25 19.96 7.04 20.75 8 20.75H16C16.96 20.75 17.75 19.96 17.75 19V9C17.75 8.04 16.96 7.25 16 7.25ZM12 16.75H10C9.59 16.75 9.25 16.41 9.25 16C9.25 15.59 9.59 15.25 10 15.25H12C12.41 15.25 12.75 15.59 12.75 16C12.75 16.41 12.41 16.75 12 16.75ZM14 12.75H10C9.59 12.75 9.25 12.41 9.25 12C9.25 11.59 9.59 11.25 10 11.25H14C14.41 11.25 14.75 11.59 14.75 12C14.75 12.41 14.41 12.75 14 12.75Z" fill="black"/>
<path d="M19 4.25H5C3.48 4.25 2.25 5.48 2.25 7V9C2.25 10.43 3.35 11.6 4.75 11.72V9C4.75 7.21 6.21 5.75 8 5.75H16C17.79 5.75 19.25 7.21 19.25 9V11.72C20.65 11.59 21.75 10.43 21.75 9V7C21.75 5.48 20.52 4.25 19 4.25Z" fill="black"/>
</svg>
