<svg width="24" height="24" viewBox="0 0 24 24" fill="none" xmlns="http://www.w3.org/2000/svg">
<path d="M9 15.25H5C4.31 15.25 3.75 14.69 3.75 14V8C3.75 7.31 4.31 6.75 5 6.75H18C18.41 6.75 18.75 6.41 18.75 6C18.75 5.59 18.41 5.25 18 5.25H5C3.48 5.25 2.25 6.48 2.25 8V14C2.25 15.52 3.48 16.75 5 16.75H9C9.41 16.75 9.75 16.41 9.75 16C9.75 15.59 9.41 15.25 9 15.25Z" fill="black"/>
<path d="M10 12.25H7C6.59 12.25 6.25 12.59 6.25 13C6.25 13.41 6.59 13.75 7 13.75H10C10.41 13.75 10.75 13.41 10.75 13C10.75 12.59 10.41 12.25 10 12.25Z" fill="black"/>
<path d="M7 8.25C6.59 8.25 6.25 8.59 6.25 9C6.25 9.41 6.59 9.75 7 9.75H14C14.41 9.75 14.75 9.41 14.75 9C14.75 8.59 14.41 8.25 14 8.25H7Z" fill="black"/>
<path d="M21.03 8.97C19.96 7.9 18.08 8.03 16.86 9.26L12.46 13.66C11.88 14.24 11.53 14.98 11.46 15.74L11.26 17.94C11.24 18.16 11.32 18.38 11.48 18.54C11.62 18.68 11.81 18.76 12.01 18.76C12.03 18.76 12.06 18.76 12.08 18.76L14.28 18.56C15.04 18.49 15.78 18.13 16.36 17.56L20.76 13.16C21.99 11.93 22.12 10.06 21.05 8.99L21.03 8.97ZM15.29 16.48C14.96 16.81 14.54 17.01 14.14 17.05L12.84 17.17L12.96 15.87C13 15.46 13.21 15.04 13.53 14.72L16.55 11.7L18.32 13.47L15.3 16.49L15.29 16.48ZM19.69 12.08L19.37 12.4L17.6 10.63L17.92 10.31C18.3 9.93 18.78 9.74 19.21 9.74C19.51 9.74 19.78 9.83 19.97 10.03C20.45 10.51 20.32 11.45 19.68 12.08H19.69Z" fill="black"/>
</svg>
