<svg width="24" height="24" viewBox="0 0 24 24" fill="none" xmlns="http://www.w3.org/2000/svg">
<path d="M21 18H6C4.9 18 4 17.1 4 16V4C4 3.45 3.55 3 3 3C2.45 3 2 3.45 2 4V16C2 18.21 3.79 20 6 20H21C21.55 20 22 19.55 22 19C22 18.45 21.55 18 21 18Z" fill="black"/>
<path d="M7 16C7.26 16 7.51 15.9 7.71 15.71L10.13 13.29L11.77 14.38C12.56 14.91 13.62 14.8 14.29 14.13L17 11.42V12.01C17 12.56 17.45 13.01 18 13.01C18.55 13.01 19 12.56 19 12.01V9.01C19 8.46 18.55 8.01 18 8.01H15C14.45 8.01 14 8.46 14 9.01C14 9.56 14.45 10.01 15 10.01H15.59L12.88 12.72L11.24 11.63C10.45 11.1 9.39 11.21 8.72 11.88L6.3 14.3C5.91 14.69 5.91 15.32 6.3 15.71C6.5 15.91 6.75 16 7.01 16H7Z" fill="black"/>
</svg>
