<svg width="24" height="24" viewBox="0 0 24 24" fill="none" xmlns="http://www.w3.org/2000/svg">
<path d="M14.75 10.2495V8.99951C14.75 8.10951 14.32 7.26951 13.59 6.74951C13.42 6.62951 13.27 6.50951 13.13 6.40951C12.66 6.04951 12.22 5.71951 11.31 5.30951C10.32 4.86951 9.42001 3.95951 8.66001 2.61951C8.45001 2.25951 8.00001 2.13951 7.64001 2.33951C7.28001 2.54951 7.16001 2.99951 7.36001 3.35951C8.29001 4.97951 9.42001 6.09951 10.71 6.66951C11.46 7.00951 11.79 7.24951 12.24 7.58951C12.39 7.70951 12.55 7.82951 12.74 7.95951C13.07 8.19951 13.27 8.57951 13.27 8.98951V10.2395H10.02C9.61001 10.2395 9.27001 10.5795 9.27001 10.9895V12.5795C9.27001 13.0395 9.46001 13.4895 9.78001 13.8195L10.35 14.3895C10.68 14.7195 10.68 15.2595 10.35 15.5995C10.08 15.8695 9.66001 15.9295 9.32001 15.7395L5.40001 13.4995C4.39001 12.9195 3.76001 11.8395 3.76001 10.6795V9.99951C3.76001 9.58951 3.42001 9.24951 3.01001 9.24951C2.60001 9.24951 2.26001 9.58951 2.26001 9.99951V10.6795C2.26001 12.3795 3.18001 13.9595 4.65001 14.7995L6.31001 15.7495C6.28001 15.8295 6.26001 15.9095 6.26001 15.9995V17.9995C6.26001 19.5195 7.49001 20.7495 9.01001 20.7495H19.01C20.53 20.7495 21.76 19.5195 21.76 17.9995V12.9995C21.76 11.4795 20.53 10.2495 19.01 10.2495H14.75ZM19 19.2495H9.00001C8.31001 19.2495 7.75001 18.6895 7.75001 17.9995V16.5795L8.56001 17.0495C8.92001 17.2595 9.33001 17.3595 9.72001 17.3595C10.33 17.3595 10.93 17.1195 11.39 16.6695C12.31 15.7495 12.31 14.2595 11.39 13.3395L10.82 12.7695C10.82 12.7695 10.75 12.6595 10.75 12.5895V11.7495H19C19.69 11.7495 20.25 12.3095 20.25 12.9995V14.2495H15C14.59 14.2495 14.25 14.5895 14.25 14.9995C14.25 15.4095 14.59 15.7495 15 15.7495H20.25V17.9995C20.25 18.6895 19.69 19.2495 19 19.2495Z" fill="black"/>
</svg>
