<svg width="24" height="24" viewBox="0 0 24 24" fill="none" xmlns="http://www.w3.org/2000/svg">
<path d="M15.5 14.2507C15.9142 14.2507 16.25 13.2433 16.25 12.0007C16.25 10.7581 15.9142 9.7507 15.5 9.7507C15.0858 9.7507 14.75 10.7581 14.75 12.0007C14.75 13.2433 15.0858 14.2507 15.5 14.2507Z" fill="black"/>
<path d="M19.54 4.9407L12.34 3.5007C11.83 3.4007 11.29 3.5307 10.89 3.8607C10.48 4.1907 10.25 4.6907 10.25 5.2107V18.7707C10.25 19.3007 10.48 19.7907 10.89 20.1207C11.21 20.3807 11.6 20.5207 12 20.5207C12.11 20.5207 12.23 20.5107 12.35 20.4907L19.26 19.1107V19.9907C19.26 20.4007 19.6 20.7407 20.01 20.7407C20.42 20.7407 20.76 20.4007 20.76 19.9907V18.4607C21.37 17.9507 21.76 17.1907 21.76 16.3507V7.6407C21.76 6.3307 20.83 5.2007 19.55 4.9407H19.54ZM15.5 15.7507C14.22 15.7507 13.25 14.1407 13.25 12.0007C13.25 9.8607 14.22 8.2507 15.5 8.2507C16.78 8.2507 17.75 9.8607 17.75 12.0007C17.75 14.1407 16.78 15.7507 15.5 15.7507Z" fill="black"/>
<path d="M2.25 7.0007V17.0007C2.25 17.7007 2.66 18.2907 3.25 18.5707V20.0007C3.25 20.4107 3.59 20.7507 4 20.7507C4.41 20.7507 4.75 20.4107 4.75 20.0007V18.7507H8.75V5.2507H4C3.04 5.2507 2.25 6.0407 2.25 7.0007Z" fill="black"/>
</svg>
