<svg width="24" height="24" viewBox="0 0 24 24" fill="none" xmlns="http://www.w3.org/2000/svg">
<path d="M7 13.75C6.59 13.75 6.25 13.41 6.25 13C6.25 12.59 6.59 12.25 7 12.25H11.74L14.24 9.75H7C6.59 9.75 6.25 9.41 6.25 9C6.25 8.59 6.59 8.25 7 8.25H15.74L15.8 8.19C16.72 7.27 17.97 6.74 19.21 6.74C19.29 6.74 19.37 6.76 19.45 6.76C19 5.87 18.08 5.25 17.01 5.25H5C3.48 5.25 2.25 6.48 2.25 8V14C2.25 15.52 3.48 16.75 5 16.75H9.86L9.97 15.59C10.03 14.95 10.24 14.32 10.56 13.75H7Z" fill="black"/>
<path d="M21.03 8.97C19.96 7.9 18.08 8.03 16.86 9.26L16.54 9.58L20.43 13.47L20.75 13.15C21.98 11.92 22.11 10.05 21.04 8.98L21.03 8.97Z" fill="black"/>
<path d="M12.46 13.65C11.88 14.23 11.53 14.97 11.46 15.73L11.26 17.93C11.24 18.15 11.32 18.37 11.48 18.53C11.62 18.67 11.81 18.75 12.01 18.75C12.03 18.75 12.06 18.75 12.08 18.75L14.28 18.55C15.04 18.48 15.78 18.12 16.36 17.55L19.38 14.53L15.49 10.64L12.47 13.66L12.46 13.65Z" fill="black"/>
</svg>
