<svg width="24" height="24" viewBox="0 0 24 24" fill="none" xmlns="http://www.w3.org/2000/svg">
<path d="M9.73 17.3495C10.34 17.3495 10.94 17.1095 11.4 16.6595C12.32 15.7395 12.32 14.2495 11.4 13.3295L10.83 12.7595C10.83 12.7595 10.76 12.6495 10.76 12.5795V11.7395H14.01C14.42 11.7395 14.76 11.3995 14.76 10.9895V8.98949C14.76 8.09949 14.33 7.25949 13.6 6.73949C13.43 6.61949 13.28 6.49949 13.14 6.39949C12.67 6.03949 12.23 5.70949 11.32 5.29949C10.33 4.85949 9.43 3.94949 8.67 2.60949C8.54 2.37949 8.29 2.22949 8.02 2.22949H3C2.59 2.22949 2.25 2.56949 2.25 2.97949V10.6595C2.25 12.3595 3.17 13.9395 4.64 14.7795L8.56 17.0195C8.92 17.2295 9.33 17.3295 9.72 17.3295L9.73 17.3495Z" fill="black"/>
<path d="M16.25 10.2495V10.9995C16.25 12.2395 15.24 13.2495 14 13.2495H13.17C13.33 13.5695 13.44 13.9095 13.51 14.2495H21.76V12.9995C21.76 11.4795 20.53 10.2495 19.01 10.2495H16.25Z" fill="black"/>
<path d="M12.46 17.7195C11.73 18.4495 10.76 18.8495 9.73 18.8495C9.06 18.8495 8.4 18.6795 7.82 18.3395L6.25 17.4395V17.9895C6.25 19.5095 7.48 20.7395 9 20.7395H19C20.52 20.7395 21.75 19.5095 21.75 17.9895V15.7395H13.5C13.36 16.4595 13.02 17.1595 12.46 17.7095V17.7195Z" fill="black"/>
</svg>
