<svg width="24" height="24" viewBox="0 0 24 24" fill="none" xmlns="http://www.w3.org/2000/svg">
<path d="M19.8999 10.77C19.7799 9.36 18.5799 8.25 17.1599 8.25H8.74993V6.75H11.4999C12.1899 6.75 12.7499 6.19 12.7499 5.5V3.5C12.7499 2.81 12.1899 2.25 11.4999 2.25H4.49993C3.80993 2.25 3.24993 2.81 3.24993 3.5V5.5C3.24993 6.19 3.80993 6.75 4.49993 6.75H7.24993V8.25H5.83993C4.41993 8.25 3.21993 9.36 3.09993 10.77L2.55993 17.25H20.4399L19.8999 10.77ZM7.01993 15.75C6.60993 15.75 6.26993 15.41 6.26993 15C6.26993 14.59 6.59993 14.25 7.01993 14.25C7.43993 14.25 7.76993 14.59 7.76993 15C7.76993 15.41 7.43993 15.75 7.01993 15.75ZM7.01993 12.75C6.60993 12.75 6.26993 12.41 6.26993 12C6.26993 11.59 6.59993 11.25 7.01993 11.25C7.43993 11.25 7.76993 11.59 7.76993 12C7.76993 12.41 7.43993 12.75 7.01993 12.75ZM10.0199 15.75C9.60993 15.75 9.26993 15.41 9.26993 15C9.26993 14.59 9.59993 14.25 10.0199 14.25C10.4399 14.25 10.7699 14.59 10.7699 15C10.7699 15.41 10.4399 15.75 10.0199 15.75ZM10.0199 12.75C9.60993 12.75 9.26993 12.41 9.26993 12C9.26993 11.59 9.59993 11.25 10.0199 11.25C10.4399 11.25 10.7699 11.59 10.7699 12C10.7699 12.41 10.4399 12.75 10.0199 12.75ZM13.0199 15.75C12.6099 15.75 12.2699 15.41 12.2699 15C12.2699 14.59 12.5999 14.25 13.0199 14.25C13.4399 14.25 13.7699 14.59 13.7699 15C13.7699 15.41 13.4399 15.75 13.0199 15.75ZM13.0199 12.75C12.6099 12.75 12.2699 12.41 12.2699 12C12.2699 11.59 12.5999 11.25 13.0199 11.25C13.4399 11.25 13.7699 11.59 13.7699 12C13.7699 12.41 13.4399 12.75 13.0199 12.75ZM16.0199 15.75C15.6099 15.75 15.2699 15.41 15.2699 15C15.2699 14.59 15.5999 14.25 16.0199 14.25C16.4399 14.25 16.7699 14.59 16.7699 15C16.7699 15.41 16.4399 15.75 16.0199 15.75ZM16.0199 12.75C15.6099 12.75 15.2699 12.41 15.2699 12C15.2699 11.59 15.5999 11.25 16.0199 11.25C16.4399 11.25 16.7699 11.59 16.7699 12C16.7699 12.41 16.4399 12.75 16.0199 12.75Z" fill="black"/>
<path d="M20.5599 18.75H2.43993V18.77C2.36993 19.53 2.62993 20.3 3.14993 20.86C3.66993 21.42 4.40993 21.75 5.16993 21.75H17.8199C18.5899 21.75 19.3199 21.43 19.8399 20.86C20.3599 20.3 20.6199 19.53 20.5599 18.77V18.75Z" fill="black"/>
</svg>
