<svg width="24" height="24" viewBox="0 0 24 24" fill="none" xmlns="http://www.w3.org/2000/svg">
<path d="M16.1299 10.75H16.9999C18.5199 10.75 19.7499 9.52 19.7499 8V3.5C19.7499 2.81 19.1899 2.25 18.4999 2.25H16.4999C15.8099 2.25 15.2499 2.81 15.2499 3.5V5.25H13.7499V3.5C13.7499 2.81 13.1899 2.25 12.4999 2.25H10.4999C9.80992 2.25 9.24992 2.81 9.24992 3.5V5.25H7.74992V3.5C7.74992 2.81 7.18992 2.25 6.49992 2.25H4.49992C3.80992 2.25 3.24992 2.81 3.24992 3.5V8C3.24992 9.52 4.47992 10.75 5.99992 10.75H6.86992C6.96992 10.75 7.02992 10.8 7.05992 10.83C7.08992 10.86 7.12992 10.93 7.11992 11.03L6.33992 17.25H5.71992C4.96992 17.25 4.29992 17.73 4.05992 18.45L3.28992 20.77C3.20992 21 3.24992 21.25 3.38992 21.45C3.52992 21.65 3.75992 21.76 3.99992 21.76H18.9999C19.2399 21.76 19.4699 21.64 19.6099 21.45C19.7499 21.26 19.7899 21 19.7099 20.77L18.9399 18.45C18.6999 17.73 18.0299 17.25 17.2799 17.25H16.6599L15.8799 11.03C15.8699 10.93 15.9099 10.87 15.9399 10.83C15.9699 10.8 16.0299 10.75 16.1299 10.75ZM17.5099 18.92L17.9499 20.25H5.03992L5.47992 18.92C5.50992 18.82 5.60992 18.75 5.71992 18.75H17.2799C17.3899 18.75 17.4799 18.82 17.5199 18.92H17.5099ZM14.3899 11.22L15.1399 17.25H7.84992L8.59992 11.22C8.65992 10.72 8.50992 10.22 8.17992 9.84C7.84992 9.46 7.36992 9.25 6.86992 9.25H5.99992C5.30992 9.25 4.74992 8.69 4.74992 8V3.75H6.24992V6C6.24992 6.41 6.58992 6.75 6.99992 6.75H9.99992C10.4099 6.75 10.7499 6.41 10.7499 6V3.75H12.2499V6C12.2499 6.41 12.5899 6.75 12.9999 6.75H15.9999C16.4099 6.75 16.7499 6.41 16.7499 6V3.75H18.2499V8C18.2499 8.69 17.6899 9.25 16.9999 9.25H16.1299C15.6299 9.25 15.1499 9.47 14.8199 9.84C14.4899 10.22 14.3299 10.72 14.3999 11.21L14.3899 11.22Z" fill="black"/>
</svg>
