<svg width="24" height="24" viewBox="0 0 24 24" fill="none" xmlns="http://www.w3.org/2000/svg">
<path d="M11.11 19.9502C7.06 19.5002 4 16.0802 4 12.0002C4 7.59023 7.59 4.00023 12 4.00023C15.38 4.00023 18.42 6.14023 19.55 9.33023C19.73 9.85023 20.31 10.1202 20.83 9.94023C21.35 9.76023 21.62 9.19023 21.44 8.66023C20.03 4.67023 16.24 1.99023 12.01 1.99023C6.49 2.00023 2 6.49023 2 12.0002C2 17.1102 5.82 21.3802 10.89 21.9402C10.93 21.9402 10.97 21.9402 11 21.9402C11.5 21.9402 11.94 21.5602 11.99 21.0502C12.05 20.5002 11.66 20.0102 11.11 19.9502Z" fill="black"/>
<path d="M12 6.00023C11.45 6.00023 11 6.45023 11 7.00023V10.7602C11 11.1402 10.79 11.4802 10.45 11.6502L7.56 13.1002C7.07 13.3502 6.87 13.9502 7.11 14.4402C7.29 14.7902 7.64 14.9902 8.01 14.9902C8.16 14.9902 8.31 14.9602 8.46 14.8802L11.35 13.4302C12.37 12.9202 13.01 11.8902 13.01 10.7502V6.99023C13.01 6.44023 12.56 5.99023 12.01 5.99023L12 6.00023Z" fill="black"/>
<path d="M17.5 16.7402C19.8472 16.7402 21.75 15.509 21.75 13.9902C21.75 12.4715 19.8472 11.2402 17.5 11.2402C15.1528 11.2402 13.25 12.4715 13.25 13.9902C13.25 15.509 15.1528 16.7402 17.5 16.7402Z" fill="black"/>
<path d="M13.25 16.9002V18.9902C13.25 20.5302 15.12 21.7402 17.5 21.7402C19.88 21.7402 21.75 20.5302 21.75 18.9902V16.9002C20.71 17.7302 19.22 18.2402 17.5 18.2402C15.78 18.2402 14.29 17.7302 13.25 16.9002Z" fill="black"/>
</svg>
