<svg width="24" height="24" viewBox="0 0 24 24" fill="none" xmlns="http://www.w3.org/2000/svg">
<path d="M21 3.25H5C3.48 3.25 2.25 4.48 2.25 6V18C2.25 19.52 3.48 20.75 5 20.75H18C19.52 20.75 20.75 19.52 20.75 18V10C20.75 8.48 19.52 7.25 18 7.25H5C4.31 7.25 3.75 6.69 3.75 6C3.75 5.31 4.31 4.75 5 4.75H21C21.41 4.75 21.75 4.41 21.75 4C21.75 3.59 21.41 3.25 21 3.25ZM5 8.75H18C18.69 8.75 19.25 9.31 19.25 10V18C19.25 18.69 18.69 19.25 18 19.25H5C4.31 19.25 3.75 18.69 3.75 18V8.45C4.13 8.64 4.55 8.75 5 8.75Z" fill="black"/>
<path d="M17.02 14.75C17.43 14.75 17.77 14.41 17.77 14C17.77 13.59 17.43 13.25 17.02 13.25H17.01C16.6 13.25 16.27 13.59 16.27 14C16.27 14.41 16.61 14.75 17.02 14.75Z" fill="black"/>
</svg>
