<svg width="24" height="24" viewBox="0 0 24 24" fill="none" xmlns="http://www.w3.org/2000/svg">
<path d="M20 14.25H15.41C14.94 14.25 14.5 14.43 14.17 14.76L13.76 15.17C13.76 15.17 13.65 15.24 13.58 15.24H10.41C10.34 15.24 10.28 15.21 10.23 15.17L9.82 14.76C9.49 14.43 9.05 14.25 8.58 14.25H4C3.04 14.25 2.25 15.04 2.25 16V18C2.25 18.96 3.04 19.75 4 19.75H20C20.96 19.75 21.75 18.96 21.75 18V16C21.75 15.04 20.96 14.25 20 14.25Z" fill="black"/>
<path d="M20 6.25H15C14.0335 6.25 13.25 7.0335 13.25 8V11C13.25 11.9665 14.0335 12.75 15 12.75H20C20.9665 12.75 21.75 11.9665 21.75 11V8C21.75 7.0335 20.9665 6.25 20 6.25Z" fill="black"/>
<path d="M8.59 12.75C9.46 12.75 10.28 13.09 10.89 13.7L10.94 13.75H13.08L13.13 13.7C13.13 13.7 13.16 13.68 13.17 13.67C12.32 13.08 11.76 12.11 11.76 11V8C11.76 6.21 13.22 4.75 15.01 4.75H20.01C20.17 4.75 20.32 4.77 20.47 4.8C20.02 3.89 19.09 3.25 18.01 3.25H6C4.48 3.25 3.25 4.48 3.25 6V12.85C3.49 12.79 3.74 12.75 4 12.75H8.59Z" fill="black"/>
</svg>
