<svg width="24" height="24" viewBox="0 0 24 24" fill="none" xmlns="http://www.w3.org/2000/svg">
<path d="M21.7001 16.72L19.9501 12.35C19.6801 11.68 19.0501 11.25 18.3301 11.25H14.0101C13.7001 11.25 13.4301 11.44 13.3101 11.72L12.0101 14.98L10.7101 11.72C10.6001 11.43 10.3201 11.25 10.0101 11.25H5.68008C4.96008 11.25 4.32008 11.68 4.06008 12.35L2.31008 16.72C2.22008 16.95 2.25008 17.21 2.39008 17.42C2.53008 17.63 2.76008 17.75 3.01008 17.75H21.0001C21.2501 17.75 21.4801 17.63 21.6201 17.42C21.7601 17.21 21.7901 16.95 21.7001 16.72Z" fill="black"/>
<path d="M12.0001 11.01C12.3801 10.24 13.1401 9.75 14.0001 9.75H16.4101L15.4501 7.35C15.1801 6.68 14.5501 6.25 13.8301 6.25H10.1801C9.46008 6.25 8.82008 6.68 8.56008 7.35L7.60008 9.75H10.0101C10.8701 9.75 11.6301 10.25 12.0101 11.01H12.0001Z" fill="black"/>
</svg>
