<svg width="24" height="24" viewBox="0 0 24 24" fill="none" xmlns="http://www.w3.org/2000/svg">
<path d="M19.9 10.77C19.78 9.36 18.58 8.25 17.16 8.25H8.75V6.75H11.5C12.19 6.75 12.75 6.19 12.75 5.5V3.5C12.75 2.81 12.19 2.25 11.5 2.25H4.5C3.81 2.25 3.25 2.81 3.25 3.5V5.5C3.25 6.19 3.81 6.75 4.5 6.75H7.25V8.25H5.84C4.42 8.25 3.22 9.36 3.1 10.77L2.43 18.77C2.37 19.53 2.63 20.3 3.15 20.86C3.67 21.42 4.41 21.75 5.17 21.75H17.82C18.59 21.75 19.32 21.43 19.84 20.86C20.36 20.3 20.62 19.53 20.56 18.77L19.89 10.77H19.9ZM4.75 3.75H11.25V5.25H4.75V3.75ZM5.84 9.75H17.16C17.8 9.75 18.35 10.25 18.41 10.9L18.94 17.25H4.07L4.6 10.9C4.65 10.26 5.2 9.75 5.85 9.75H5.84ZM18.75 19.85C18.51 20.11 18.18 20.25 17.83 20.25H5.17C4.82 20.25 4.49 20.11 4.25 19.85C4.01 19.59 3.89 19.25 3.92 18.9V18.74C3.92 18.74 3.97 18.75 3.99 18.75H18.99C18.99 18.75 19.03 18.74 19.05 18.74V18.9C19.09 19.25 18.98 19.59 18.74 19.85H18.75Z" fill="black"/>
<path d="M7.02 12.75C7.44 12.75 7.77 12.41 7.77 12C7.77 11.59 7.44 11.25 7.02 11.25C6.61 11.25 6.27 11.59 6.27 12C6.27 12.41 6.61 12.75 7.02 12.75Z" fill="black"/>
<path d="M16.02 12.75C16.44 12.75 16.77 12.41 16.77 12C16.77 11.59 16.44 11.25 16.02 11.25C15.61 11.25 15.27 11.59 15.27 12C15.27 12.41 15.61 12.75 16.02 12.75Z" fill="black"/>
<path d="M13.02 12.75C13.44 12.75 13.77 12.41 13.77 12C13.77 11.59 13.44 11.25 13.02 11.25C12.61 11.25 12.27 11.59 12.27 12C12.27 12.41 12.61 12.75 13.02 12.75Z" fill="black"/>
<path d="M10.02 12.75C10.44 12.75 10.77 12.41 10.77 12C10.77 11.59 10.44 11.25 10.02 11.25C9.61 11.25 9.27 11.59 9.27 12C9.27 12.41 9.61 12.75 10.02 12.75Z" fill="black"/>
<path d="M7.02 15.75C7.44 15.75 7.77 15.41 7.77 15C7.77 14.59 7.44 14.25 7.02 14.25C6.61 14.25 6.27 14.59 6.27 15C6.27 15.41 6.61 15.75 7.02 15.75Z" fill="black"/>
<path d="M16.02 15.75C16.44 15.75 16.77 15.41 16.77 15C16.77 14.59 16.44 14.25 16.02 14.25C15.61 14.25 15.27 14.59 15.27 15C15.27 15.41 15.61 15.75 16.02 15.75Z" fill="black"/>
<path d="M13.02 15.75C13.44 15.75 13.77 15.41 13.77 15C13.77 14.59 13.44 14.25 13.02 14.25C12.61 14.25 12.27 14.59 12.27 15C12.27 15.41 12.61 15.75 13.02 15.75Z" fill="black"/>
<path d="M10.02 15.75C10.44 15.75 10.77 15.41 10.77 15C10.77 14.59 10.44 14.25 10.02 14.25C9.61 14.25 9.27 14.59 9.27 15C9.27 15.41 9.61 15.75 10.02 15.75Z" fill="black"/>
</svg>
