<svg width="24" height="24" viewBox="0 0 24 24" fill="none" xmlns="http://www.w3.org/2000/svg">
<path d="M18 4.25H6C3.93 4.25 2.25 5.93 2.25 8V15C2.25 17.07 3.93 18.75 6 18.75H12C12.41 18.75 12.75 18.41 12.75 18C12.75 17.59 12.41 17.25 12 17.25H6C4.76 17.25 3.75 16.24 3.75 15V9.75H20.25V14C20.25 14.41 20.59 14.75 21 14.75C21.41 14.75 21.75 14.41 21.75 14V8C21.75 5.93 20.07 4.25 18 4.25ZM3.75 8.25V8C3.75 6.76 4.76 5.75 6 5.75H18C19.24 5.75 20.25 6.76 20.25 8V8.25H3.75Z" fill="black"/>
<path d="M7 14.25C6.59 14.25 6.25 14.59 6.25 15C6.25 15.41 6.59 15.75 7 15.75H10C10.41 15.75 10.75 15.41 10.75 15C10.75 14.59 10.41 14.25 10 14.25H7Z" fill="black"/>
<path d="M20 17.25H18.75V16C18.75 15.59 18.41 15.25 18 15.25C17.59 15.25 17.25 15.59 17.25 16V17.25H16C15.59 17.25 15.25 17.59 15.25 18C15.25 18.41 15.59 18.75 16 18.75H17.25V20C17.25 20.41 17.59 20.75 18 20.75C18.41 20.75 18.75 20.41 18.75 20V18.75H20C20.41 18.75 20.75 18.41 20.75 18C20.75 17.59 20.41 17.25 20 17.25Z" fill="black"/>
</svg>
