<svg width="24" height="24" viewBox="0 0 24 24" fill="none" xmlns="http://www.w3.org/2000/svg">
<path d="M12 2.25H6C3.93 2.25 2.25 3.93 2.25 6V18C2.25 20.07 3.93 21.75 6 21.75H12C14.07 21.75 15.75 20.07 15.75 18V6C15.75 3.93 14.07 2.25 12 2.25ZM6.02 17.75C5.61 17.75 5.27 17.41 5.27 17C5.27 16.59 5.6 16.25 6.01 16.25H6.02C6.43 16.25 6.77 16.59 6.77 17C6.77 17.41 6.43 17.75 6.02 17.75ZM6.02 14.75C5.61 14.75 5.27 14.41 5.27 14C5.27 13.59 5.6 13.25 6.01 13.25H6.02C6.43 13.25 6.77 13.59 6.77 14C6.77 14.41 6.43 14.75 6.02 14.75ZM9.02 17.75C8.61 17.75 8.27 17.41 8.27 17C8.27 16.59 8.6 16.25 9.01 16.25H9.02C9.43 16.25 9.77 16.59 9.77 17C9.77 17.41 9.43 17.75 9.02 17.75ZM9.02 14.75C8.61 14.75 8.27 14.41 8.27 14C8.27 13.59 8.6 13.25 9.01 13.25H9.02C9.43 13.25 9.77 13.59 9.77 14C9.77 14.41 9.43 14.75 9.02 14.75ZM7 10.75C6.04 10.75 5.25 9.96 5.25 9V7C5.25 6.04 6.04 5.25 7 5.25H11C11.96 5.25 12.75 6.04 12.75 7V9C12.75 9.96 11.96 10.75 11 10.75H7ZM12.02 17.75C11.61 17.75 11.27 17.41 11.27 17C11.27 16.59 11.6 16.25 12.01 16.25H12.02C12.43 16.25 12.77 16.59 12.77 17C12.77 17.41 12.43 17.75 12.02 17.75ZM12.02 14.75C11.61 14.75 11.27 14.41 11.27 14C11.27 13.59 11.6 13.25 12.01 13.25H12.02C12.43 13.25 12.77 13.59 12.77 14C12.77 14.41 12.43 14.75 12.02 14.75Z" fill="black"/>
<path d="M11 6.75H7C6.86193 6.75 6.75 6.86193 6.75 7V9C6.75 9.13807 6.86193 9.25 7 9.25H11C11.1381 9.25 11.25 9.13807 11.25 9V7C11.25 6.86193 11.1381 6.75 11 6.75Z" fill="black"/>
<path d="M19 7.25H17.25V16.75H19C20.52 16.75 21.75 15.52 21.75 14V10C21.75 8.48 20.52 7.25 19 7.25Z" fill="black"/>
</svg>
