<svg width="24" height="24" viewBox="0 0 24 24" fill="none" xmlns="http://www.w3.org/2000/svg">
<path d="M14 9.75C13.76 9.75 13.52 9.79 13.3 9.85C13.89 10.58 14.25 11.49 14.25 12.5C14.25 13.51 13.88 14.42 13.3 15.15C13.53 15.21 13.76 15.25 14 15.25C15.52 15.25 16.75 14.02 16.75 12.5C16.75 10.98 15.52 9.75 14 9.75Z" fill="black"/>
<path d="M11.25 12.5C11.25 13.23 11.54 13.88 12 14.38C12.46 13.89 12.75 13.23 12.75 12.5C12.75 11.77 12.46 11.12 12 10.62C11.54 11.11 11.25 11.77 11.25 12.5Z" fill="black"/>
<path d="M10 9.75C8.48 9.75 7.25 10.98 7.25 12.5C7.25 14.02 8.48 15.25 10 15.25C10.24 15.25 10.48 15.21 10.7 15.15C10.11 14.42 9.75 13.51 9.75 12.5C9.75 11.49 10.12 10.58 10.7 9.85C10.47 9.79 10.24 9.75 10 9.75Z" fill="black"/>
<path d="M18 5.25H6C3.93 5.25 2.25 6.93 2.25 9V16C2.25 18.07 3.93 19.75 6 19.75H18C20.07 19.75 21.75 18.07 21.75 16V9C21.75 6.93 20.07 5.25 18 5.25ZM14 16.75C13.27 16.75 12.6 16.55 12 16.23C11.4 16.55 10.73 16.75 10 16.75C7.66 16.75 5.75 14.84 5.75 12.5C5.75 10.16 7.66 8.25 10 8.25C10.73 8.25 11.4 8.45 12 8.77C12.6 8.45 13.27 8.25 14 8.25C16.34 8.25 18.25 10.16 18.25 12.5C18.25 14.84 16.34 16.75 14 16.75Z" fill="black"/>
</svg>
