<svg width="24" height="24" viewBox="0 0 24 24" fill="none" xmlns="http://www.w3.org/2000/svg">
<path d="M20.53 9.78002L19.76 9.26002C19.13 8.84002 18.76 8.14002 18.76 7.39002V5.00002C18.76 4.78002 18.67 4.58002 18.5 4.43002C18.34 4.29002 18.12 4.22002 17.9 4.25002C16.67 4.43002 15.85 5.08002 15.48 5.46002C15.03 5.91002 14.69 6.44002 14.48 7.05002C14.44 7.17002 14.34 7.24002 14.23 7.24002H9.01001C6.39001 7.24002 4.26001 9.37002 4.26001 11.99V12.24H4.01001C3.87001 12.24 3.76001 12.13 3.76001 11.99V10.99C3.76001 10.58 3.42001 10.24 3.01001 10.24C2.60001 10.24 2.26001 10.58 2.26001 10.99V11.99C2.26001 12.95 3.05001 13.74 4.01001 13.74H4.26001V14.24C4.26001 16 5.57001 17.46 7.26001 17.7V18.49C7.26001 19.18 7.82001 19.74 8.51001 19.74H10.51C11.2 19.74 11.76 19.18 11.76 18.49V17.99C11.76 17.85 11.87 17.74 12.01 17.74H14.01C14.15 17.74 14.26 17.85 14.26 17.99V18.49C14.26 19.18 14.82 19.74 15.51 19.74H17.51C18.2 19.74 18.76 19.18 18.76 18.49V17.76C18.76 17.41 18.9 17.09 19.13 16.86C19.23 16.76 19.34 16.67 19.47 16.57C19.71 16.38 19.98 16.21 20.26 16.07C21.19 15.6 21.76 14.66 21.76 13.62V12.04C21.76 11.12 21.3 10.26 20.54 9.75002L20.53 9.78002ZM20.25 13.64C20.25 14.11 19.99 14.54 19.56 14.75C19.2 14.94 18.85 15.16 18.53 15.4C18.37 15.52 18.22 15.65 18.09 15.77C17.55 16.27 17.24 17 17.24 17.76V18.24H15.74V17.99C15.74 17.03 14.95 16.24 13.99 16.24H11.99C11.03 16.24 10.24 17.03 10.24 17.99V18.24H8.74001V17.24C8.74001 16.69 8.29001 16.24 7.74001 16.24C6.64001 16.24 5.74001 15.34 5.74001 14.24V11.99C5.74001 10.2 7.20001 8.74002 8.99001 8.74002H14.21C14.95 8.74002 15.61 8.26002 15.87 7.55002C16.01 7.16002 16.23 6.81002 16.52 6.52002C16.66 6.38002 16.9 6.17002 17.24 6.00002V7.38002C17.24 8.64002 17.86 9.80002 18.91 10.5L19.68 11.02C20.03 11.25 20.24 11.64 20.24 12.06V13.64H20.25Z" fill="black"/>
<path d="M17 11.25H16C15.59 11.25 15.25 11.59 15.25 12C15.25 12.41 15.59 12.75 16 12.75H17C17.41 12.75 17.75 12.41 17.75 12C17.75 11.59 17.41 11.25 17 11.25Z" fill="black"/>
</svg>
