<svg width="24" height="24" viewBox="0 0 24 24" fill="none" xmlns="http://www.w3.org/2000/svg">
<path d="M19 7.25H15.75V6C15.75 3.93 14.07 2.25 12 2.25H6C3.93 2.25 2.25 3.93 2.25 6V18C2.25 20.07 3.93 21.75 6 21.75H12C14.07 21.75 15.75 20.07 15.75 18V16.75H19C20.52 16.75 21.75 15.52 21.75 14V10C21.75 8.48 20.52 7.25 19 7.25ZM14.25 18C14.25 19.24 13.24 20.25 12 20.25H6C4.76 20.25 3.75 19.24 3.75 18V6C3.75 4.76 4.76 3.75 6 3.75H12C13.24 3.75 14.25 4.76 14.25 6V18ZM20.25 14C20.25 14.69 19.69 15.25 19 15.25H15.75V8.75H19C19.69 8.75 20.25 9.31 20.25 10V14Z" fill="black"/>
<path d="M9.02 13.25H9.01C8.6 13.25 8.27 13.59 8.27 14C8.27 14.41 8.61 14.75 9.02 14.75C9.43 14.75 9.77 14.41 9.77 14C9.77 13.59 9.43 13.25 9.02 13.25Z" fill="black"/>
<path d="M9.02 16.25H9.01C8.6 16.25 8.27 16.59 8.27 17C8.27 17.41 8.61 17.75 9.02 17.75C9.43 17.75 9.77 17.41 9.77 17C9.77 16.59 9.43 16.25 9.02 16.25Z" fill="black"/>
<path d="M12.02 13.25H12.01C11.6 13.25 11.27 13.59 11.27 14C11.27 14.41 11.61 14.75 12.02 14.75C12.43 14.75 12.77 14.41 12.77 14C12.77 13.59 12.43 13.25 12.02 13.25Z" fill="black"/>
<path d="M12.02 16.25H12.01C11.6 16.25 11.27 16.59 11.27 17C11.27 17.41 11.61 17.75 12.02 17.75C12.43 17.75 12.77 17.41 12.77 17C12.77 16.59 12.43 16.25 12.02 16.25Z" fill="black"/>
<path d="M6.02 13.25H6.01C5.6 13.25 5.27 13.59 5.27 14C5.27 14.41 5.61 14.75 6.02 14.75C6.43 14.75 6.77 14.41 6.77 14C6.77 13.59 6.43 13.25 6.02 13.25Z" fill="black"/>
<path d="M6.02 16.25H6.01C5.6 16.25 5.27 16.59 5.27 17C5.27 17.41 5.61 17.75 6.02 17.75C6.43 17.75 6.77 17.41 6.77 17C6.77 16.59 6.43 16.25 6.02 16.25Z" fill="black"/>
<path d="M12.75 9V7C12.75 6.04 11.96 5.25 11 5.25H7C6.04 5.25 5.25 6.04 5.25 7V9C5.25 9.96 6.04 10.75 7 10.75H11C11.96 10.75 12.75 9.96 12.75 9ZM11.25 9C11.25 9.14 11.14 9.25 11 9.25H7C6.86 9.25 6.75 9.14 6.75 9V7C6.75 6.86 6.86 6.75 7 6.75H11C11.14 6.75 11.25 6.86 11.25 7V9Z" fill="black"/>
</svg>
