<svg width="24" height="24" viewBox="0 0 24 24" fill="none" xmlns="http://www.w3.org/2000/svg">
<path d="M18 5.25H6C3.93 5.25 2.25 6.93 2.25 9V16C2.25 18.07 3.93 19.75 6 19.75H18C20.07 19.75 21.75 18.07 21.75 16V9C21.75 6.93 20.07 5.25 18 5.25ZM20.25 16C20.25 17.24 19.24 18.25 18 18.25H6C4.76 18.25 3.75 17.24 3.75 16V9C3.75 7.76 4.76 6.75 6 6.75H18C19.24 6.75 20.25 7.76 20.25 9V16Z" fill="black"/>
<path d="M14 8.25C13.27 8.25 12.6 8.45 12 8.77C11.4 8.45 10.73 8.25 10 8.25C7.66 8.25 5.75 10.16 5.75 12.5C5.75 14.84 7.66 16.75 10 16.75C10.73 16.75 11.4 16.55 12 16.23C12.6 16.55 13.27 16.75 14 16.75C16.34 16.75 18.25 14.84 18.25 12.5C18.25 10.16 16.34 8.25 14 8.25ZM12 14.38C11.54 13.89 11.25 13.23 11.25 12.5C11.25 11.77 11.54 11.12 12 10.62C12.46 11.11 12.75 11.77 12.75 12.5C12.75 13.23 12.46 13.88 12 14.38ZM7.25 12.5C7.25 10.98 8.48 9.75 10 9.75C10.24 9.75 10.48 9.79 10.7 9.85C10.11 10.58 9.75 11.49 9.75 12.5C9.75 13.51 10.12 14.42 10.7 15.15C10.47 15.21 10.24 15.25 10 15.25C8.48 15.25 7.25 14.02 7.25 12.5ZM14 15.25C13.76 15.25 13.52 15.21 13.3 15.15C13.89 14.42 14.25 13.51 14.25 12.5C14.25 11.49 13.88 10.58 13.3 9.85C13.53 9.79 13.76 9.75 14 9.75C15.52 9.75 16.75 10.98 16.75 12.5C16.75 14.02 15.52 15.25 14 15.25Z" fill="black"/>
</svg>
