<svg width="24" height="24" viewBox="0 0 24 24" fill="none" xmlns="http://www.w3.org/2000/svg">
<path d="M18 4.25H6C3.93 4.25 2.25 5.93 2.25 8V15C2.25 16.81 3.54 18.33 5.25 18.67V20C5.25 20.41 5.59 20.75 6 20.75C6.41 20.75 6.75 20.41 6.75 20V18.75H17.25V20C17.25 20.41 17.59 20.75 18 20.75C18.41 20.75 18.75 20.41 18.75 20V18.67C20.46 18.32 21.75 16.81 21.75 15V8C21.75 5.93 20.07 4.25 18 4.25ZM20.25 15C20.25 16.24 19.24 17.25 18 17.25H6C4.76 17.25 3.75 16.24 3.75 15V8C3.75 6.76 4.76 5.75 6 5.75H18C19.24 5.75 20.25 6.76 20.25 8V15Z" fill="black"/>
<path d="M9.5 7.25C7.16 7.25 5.25 9.16 5.25 11.5C5.25 13.84 7.16 15.75 9.5 15.75C11.84 15.75 13.75 13.84 13.75 11.5C13.75 9.16 11.84 7.25 9.5 7.25ZM9.5 14.25C7.98 14.25 6.75 13.02 6.75 11.5C6.75 9.98 7.98 8.75 9.5 8.75C11.02 8.75 12.25 9.98 12.25 11.5C12.25 13.02 11.02 14.25 9.5 14.25Z" fill="black"/>
<path d="M17 7.25C16.59 7.25 16.25 7.59 16.25 8V15C16.25 15.41 16.59 15.75 17 15.75C17.41 15.75 17.75 15.41 17.75 15V8C17.75 7.59 17.41 7.25 17 7.25Z" fill="black"/>
<path d="M9.5 10.25C8.81 10.25 8.25 10.81 8.25 11.5C8.25 12.19 8.81 12.75 9.5 12.75C10.19 12.75 10.75 12.19 10.75 11.5C10.75 10.81 10.19 10.25 9.5 10.25ZM9.25 11.5C9.25 11.36 9.36 11.25 9.5 11.25C9.64 11.25 9.75 11.36 9.75 11.5C9.75 11.78 9.25 11.78 9.25 11.5Z" fill="black"/>
</svg>
