<svg width="24" height="24" viewBox="0 0 24 24" fill="none" xmlns="http://www.w3.org/2000/svg">
<path d="M19 12.25H12C10.48 12.25 9.25 13.48 9.25 15V15.25H21.75V15C21.75 13.48 20.52 12.25 19 12.25Z" fill="black"/>
<path d="M9.25 19C9.25 20.52 10.48 21.75 12 21.75H19C20.52 21.75 21.75 20.52 21.75 19V16.75H9.25V19Z" fill="black"/>
<path d="M7.72 5.25H10.28C10.39 5.25 10.48 5.18 10.52 5.08L11.46 2.25H6.57L7.49 5.09C7.52 5.19 7.62 5.25 7.72 5.25Z" fill="black"/>
<path d="M12 10.75H15.75V5C15.75 3.49 14.53 2.27 13.03 2.25L11.94 5.55C11.7 6.27 11.03 6.75 10.28 6.75H7.72C6.97 6.75 6.3 6.27 6.06 5.55L4.99 2.25C3.48 2.25 2.25 3.48 2.25 5V19C2.25 20.52 3.48 21.75 5 21.75H8.79C8.15 21.01 7.75 20.05 7.75 19V15C7.75 12.66 9.66 10.75 12 10.75Z" fill="black"/>
</svg>
