<svg width="24" height="24" viewBox="0 0 24 24" fill="none" xmlns="http://www.w3.org/2000/svg">
<path d="M7 20.25H5C4.31 20.25 3.75 19.69 3.75 19V5C3.75 4.31 4.31 3.75 5 3.75H5.46L6.06 5.55C6.3 6.27 6.97 6.75 7.72 6.75H10.28C11.03 6.75 11.7 6.27 11.94 5.55L12.54 3.75H13C13.69 3.75 14.25 4.31 14.25 5V10C14.25 10.41 14.59 10.75 15 10.75C15.41 10.75 15.75 10.41 15.75 10V5C15.75 3.48 14.52 2.25 13 2.25H5C3.48 2.25 2.25 3.48 2.25 5V19C2.25 20.52 3.48 21.75 5 21.75H7C7.41 21.75 7.75 21.41 7.75 21C7.75 20.59 7.41 20.25 7 20.25ZM10.96 3.75L10.52 5.08C10.49 5.18 10.39 5.25 10.28 5.25H7.72C7.61 5.25 7.52 5.18 7.48 5.08L7.04 3.75H10.96Z" fill="black"/>
<path d="M19 12.25H12C10.48 12.25 9.25 13.48 9.25 15V19C9.25 20.52 10.48 21.75 12 21.75H19C20.52 21.75 21.75 20.52 21.75 19V15C21.75 13.48 20.52 12.25 19 12.25ZM12 13.75H19C19.69 13.75 20.25 14.31 20.25 15V15.25H10.75V15C10.75 14.31 11.31 13.75 12 13.75ZM19 20.25H12C11.31 20.25 10.75 19.69 10.75 19V16.75H20.25V19C20.25 19.69 19.69 20.25 19 20.25Z" fill="black"/>
</svg>
