<svg width="24" height="24" viewBox="0 0 24 24" fill="none" xmlns="http://www.w3.org/2000/svg">
<path d="M21.7001 16.72L19.9501 12.35C19.6801 11.68 19.0501 11.25 18.3301 11.25H17.0101L15.4501 7.35C15.1801 6.68 14.5501 6.25 13.8301 6.25H10.1801C9.46008 6.25 8.82008 6.68 8.56008 7.35L7.00008 11.25H5.68008C4.96008 11.25 4.32008 11.68 4.06008 12.35L2.31008 16.72C2.22008 16.95 2.25008 17.21 2.39008 17.42C2.53008 17.63 2.76008 17.75 3.01008 17.75H21.0001C21.2501 17.75 21.4801 17.63 21.6201 17.42C21.7601 17.21 21.7901 16.95 21.7001 16.72ZM9.95008 7.91C9.99008 7.82 10.0801 7.75 10.1801 7.75H13.8301C13.9301 7.75 14.0201 7.81 14.0601 7.91L15.4001 11.25H8.62008L9.96008 7.91H9.95008ZM12.0001 14.98L11.1101 12.75H12.8901L12.0001 14.98ZM4.11008 16.25L5.45008 12.91C5.49008 12.82 5.58008 12.75 5.68008 12.75H9.50008L10.9001 16.25H4.11008ZM13.1101 16.25L14.5101 12.75H18.3301C18.4301 12.75 18.5201 12.81 18.5601 12.91L19.9001 16.25H13.1101Z" fill="black"/>
</svg>
