<svg width="24" height="24" viewBox="0 0 24 24" fill="none" xmlns="http://www.w3.org/2000/svg">
<path d="M20 14.25H15.41C14.94 14.25 14.5 14.43 14.17 14.76L13.76 15.17C13.76 15.17 13.65 15.24 13.58 15.24H10.41C10.34 15.24 10.28 15.21 10.23 15.17L9.82 14.76C9.49 14.43 9.05 14.25 8.58 14.25H4.74V6C4.74 5.31 5.3 4.75 5.99 4.75H18.99C19.4 4.75 19.74 4.41 19.74 4C19.74 3.59 19.4 3.25 18.99 3.25H6C4.48 3.25 3.25 4.48 3.25 6V14.43C2.66 14.71 2.25 15.31 2.25 16V18C2.25 18.96 3.04 19.75 4 19.75H20C20.96 19.75 21.75 18.96 21.75 18V16C21.75 15.04 20.96 14.25 20 14.25ZM20.25 18C20.25 18.14 20.14 18.25 20 18.25H4C3.86 18.25 3.75 18.14 3.75 18V16C3.75 15.86 3.86 15.75 4 15.75H8.59C8.66 15.75 8.72 15.78 8.77 15.82L9.18 16.23C9.51 16.56 9.95 16.74 10.42 16.74H13.59C14.06 16.74 14.5 16.56 14.83 16.23L15.24 15.82C15.24 15.82 15.35 15.75 15.42 15.75H20.01C20.15 15.75 20.26 15.86 20.26 16V18H20.25Z" fill="black"/>
<path d="M20 6.25H15C14.04 6.25 13.25 7.04 13.25 8V11C13.25 11.96 14.04 12.75 15 12.75H20C20.96 12.75 21.75 11.96 21.75 11V8C21.75 7.04 20.96 6.25 20 6.25ZM20.25 11C20.25 11.14 20.14 11.25 20 11.25H15C14.86 11.25 14.75 11.14 14.75 11V8C14.75 7.86 14.86 7.75 15 7.75H20C20.14 7.75 20.25 7.86 20.25 8V11Z" fill="black"/>
</svg>
