<svg width="24" height="24" viewBox="0 0 24 24" fill="none" xmlns="http://www.w3.org/2000/svg">
<path d="M21 18.25H6C4.76 18.25 3.75 17.24 3.75 16V4C3.75 3.59 3.41 3.25 3 3.25C2.59 3.25 2.25 3.59 2.25 4V16C2.25 18.07 3.93 19.75 6 19.75H21C21.41 19.75 21.75 19.41 21.75 19C21.75 18.59 21.41 18.25 21 18.25Z" fill="black"/>
<path d="M7 15.75C7.19 15.75 7.38 15.68 7.53 15.53L9.95 13.11C10.03 13.03 10.16 13.01 10.26 13.08L11.9 14.17C12.59 14.63 13.52 14.54 14.11 13.95L17.25 10.81V12C17.25 12.41 17.59 12.75 18 12.75C18.41 12.75 18.75 12.41 18.75 12V9C18.75 8.59 18.41 8.25 18 8.25H15C14.59 8.25 14.25 8.59 14.25 9C14.25 9.41 14.59 9.75 15 9.75H16.19L13.05 12.89C12.97 12.97 12.83 12.99 12.73 12.92L11.09 11.83C10.4 11.37 9.47 11.46 8.88 12.05L6.46 14.47C6.17 14.76 6.17 15.24 6.46 15.53C6.61 15.68 6.8 15.75 6.99 15.75H7Z" fill="black"/>
</svg>
