<svg width="24" height="24" viewBox="0 0 24 24" fill="none" xmlns="http://www.w3.org/2000/svg">
<path d="M19.54 4.9407L12.34 3.5007C11.83 3.4007 11.29 3.5307 10.89 3.8607C10.48 4.1907 10.25 4.6907 10.25 5.2107V5.2407H4C3.04 5.2407 2.25 6.0307 2.25 6.9907V16.9907C2.25 17.6907 2.66 18.2807 3.25 18.5607V19.9907C3.25 20.4007 3.59 20.7407 4 20.7407C4.41 20.7407 4.75 20.4007 4.75 19.9907V18.7407H10.25V18.7707C10.25 19.3007 10.48 19.7907 10.89 20.1207C11.21 20.3807 11.6 20.5207 12 20.5207C12.11 20.5207 12.23 20.5107 12.35 20.4907L19.26 19.1107V19.9907C19.26 20.4007 19.6 20.7407 20.01 20.7407C20.42 20.7407 20.76 20.4007 20.76 19.9907V18.4607C21.37 17.9507 21.76 17.1907 21.76 16.3507V7.6407C21.76 6.3307 20.83 5.2007 19.55 4.9407H19.54ZM4 17.2507C3.86 17.2507 3.75 17.1407 3.75 17.0007V7.0007C3.75 6.8607 3.86 6.7507 4 6.7507H10.25V17.2507H4ZM12.05 19.0307C11.95 19.0507 11.88 19.0107 11.84 18.9807C11.81 18.9507 11.75 18.8907 11.75 18.7907V5.2207C11.75 5.1207 11.81 5.0507 11.84 5.0307C11.87 5.0107 11.92 4.9707 12 4.9707C12.02 4.9707 12.03 4.9707 12.05 4.9707L19.25 6.4107C19.83 6.5307 20.25 7.0407 20.25 7.6407V16.3607C20.25 16.9507 19.83 17.4707 19.25 17.5907L12.05 19.0307Z" fill="black"/>
<path d="M15.5 8.2507C14.22 8.2507 13.25 9.8607 13.25 12.0007C13.25 14.1407 14.22 15.7507 15.5 15.7507C16.78 15.7507 17.75 14.1407 17.75 12.0007C17.75 9.8607 16.78 8.2507 15.5 8.2507ZM15.5 14.2507C15.31 14.2507 14.75 13.4507 14.75 12.0007C14.75 10.5507 15.31 9.7507 15.5 9.7507C15.69 9.7507 16.25 10.5507 16.25 12.0007C16.25 13.4507 15.69 14.2507 15.5 14.2507Z" fill="black"/>
</svg>
