<svg width="24" height="24" viewBox="0 0 24 24" fill="none" xmlns="http://www.w3.org/2000/svg">
<path d="M11.08 20.2C6.9 19.74 3.75 16.21 3.75 12C3.75 7.45 7.45 3.75 12 3.75C15.49 3.75 18.62 5.96 19.78 9.25C19.92 9.64 20.35 9.85 20.74 9.71C21.13 9.57 21.33 9.14 21.2 8.75C19.82 4.86 16.13 2.25 12 2.25C6.62 2.25 2.25 6.62 2.25 12C2.25 16.98 5.98 21.14 10.92 21.69C10.95 21.69 10.98 21.69 11 21.69C11.38 21.69 11.7 21.41 11.74 21.02C11.79 20.61 11.49 20.24 11.08 20.19V20.2Z" fill="black"/>
<path d="M17.5 11.25C15.12 11.25 13.25 12.46 13.25 14V19C13.25 20.54 15.12 21.75 17.5 21.75C19.88 21.75 21.75 20.54 21.75 19V14C21.75 12.46 19.88 11.25 17.5 11.25ZM17.5 12.75C19.18 12.75 20.25 13.49 20.25 14C20.25 14.51 19.18 15.25 17.5 15.25C15.82 15.25 14.75 14.51 14.75 14C14.75 13.49 15.82 12.75 17.5 12.75ZM17.5 20.25C15.82 20.25 14.75 19.51 14.75 19V16.1C15.49 16.5 16.44 16.75 17.5 16.75C18.56 16.75 19.51 16.5 20.25 16.1V19C20.25 19.51 19.18 20.25 17.5 20.25Z" fill="black"/>
<path d="M12 5.25C11.59 5.25 11.25 5.59 11.25 6V10.76C11.25 11.24 10.99 11.67 10.56 11.88L7.67 13.33C7.3 13.52 7.15 13.97 7.33 14.34C7.46 14.6 7.73 14.76 8 14.76C8.11 14.76 8.23 14.73 8.33 14.68L11.22 13.23C12.16 12.76 12.74 11.82 12.74 10.77V6C12.74 5.59 12.4 5.25 11.99 5.25H12Z" fill="black"/>
</svg>
