<svg width="24" height="24" viewBox="0 0 24 24" fill="none" xmlns="http://www.w3.org/2000/svg">
<path d="M18.86 14.9C16.02 13.66 13.22 14.31 12 15.64C10.79 14.31 7.98002 13.66 5.14002 14.9C4.80002 15.05 4.62002 15.42 4.72002 15.78C5.55002 18.86 7.95002 20.69 9.77002 20.69C9.83002 20.69 9.88002 20.69 9.94002 20.69C10.71 20.64 11.42 20.26 12 19.62C12.58 20.26 13.29 20.64 14.06 20.69C14.11 20.69 14.17 20.69 14.23 20.69C16.05 20.69 18.45 18.86 19.28 15.78C19.38 15.42 19.2 15.05 18.86 14.9Z" fill="black"/>
<path d="M12 13.73C15.17 13.73 17.75 11.15 17.75 7.97998C17.75 4.80998 15.17 2.22998 12 2.22998C8.83002 2.22998 6.25002 4.80998 6.25002 7.97998C6.25002 11.15 8.83002 13.73 12 13.73ZM11 7.22998H13C13.41 7.22998 13.75 7.56998 13.75 7.97998C13.75 8.38998 13.41 8.72998 13 8.72998H11C10.59 8.72998 10.25 8.38998 10.25 7.97998C10.25 7.56998 10.59 7.22998 11 7.22998Z" fill="black"/>
</svg>
