<svg width="24" height="24" viewBox="0 0 24 24" fill="none" xmlns="http://www.w3.org/2000/svg">
<path d="M16 8.25H9.81L10.53 7.53C10.82 7.24 10.82 6.76 10.53 6.47C10.24 6.18 9.76 6.18 9.47 6.47L7.47 8.47C7.26 8.68 7.19 9.01 7.31 9.29C7.43 9.57 7.7 9.75 8 9.75H16C16.41 9.75 16.75 9.41 16.75 9C16.75 8.59 16.41 8.25 16 8.25Z" fill="black"/>
<path d="M16 11.25H8C7.59 11.25 7.25 11.59 7.25 12C7.25 12.41 7.59 12.75 8 12.75H14.19L13.47 13.47C13.18 13.76 13.18 14.24 13.47 14.53C13.62 14.68 13.81 14.75 14 14.75C14.19 14.75 14.38 14.68 14.53 14.53L16.53 12.53C16.74 12.32 16.81 11.99 16.69 11.71C16.57 11.43 16.3 11.25 16 11.25Z" fill="black"/>
<path d="M21 16.25H20.75V7C20.75 4.93 19.07 3.25 17 3.25H7C4.93 3.25 3.25 4.93 3.25 7V16.25H3C2.59 16.25 2.25 16.59 2.25 17V18C2.25 19.52 3.48 20.75 5 20.75H19C20.52 20.75 21.75 19.52 21.75 18V17C21.75 16.59 21.41 16.25 21 16.25ZM4.75 7C4.75 5.76 5.76 4.75 7 4.75H17C18.24 4.75 19.25 5.76 19.25 7V16.25H4.75V7ZM20.25 18C20.25 18.69 19.69 19.25 19 19.25H5C4.31 19.25 3.75 18.69 3.75 18V17.75H20.25V18Z" fill="black"/>
</svg>
