<svg width="24" height="24" viewBox="0 0 24 24" fill="none" xmlns="http://www.w3.org/2000/svg">
<path d="M12 1.97998C9.36 1.97998 6.85 3.03998 5 4.83998V3.97998C5 3.42998 4.55 2.97998 4 2.97998C3.45 2.97998 3 3.42998 3 3.97998V7.97998C3 8.52998 3.45 8.97998 4 8.97998H7C7.55 8.97998 8 8.52998 8 7.97998C8 7.42998 7.55 6.97998 7 6.97998H5.76C7.27 5.10998 9.56 3.97998 12 3.97998C16.41 3.97998 20 7.56998 20 11.98C20 16.39 16.41 19.98 12 19.98C7.59 19.98 4 16.39 4 11.98C4 11.43 3.55 10.98 3 10.98C2.45 10.98 2 11.43 2 11.98C2 17.49 6.49 21.98 12 21.98C17.51 21.98 22 17.49 22 11.98C22 6.46998 17.51 1.97998 12 1.97998Z" fill="black"/>
<path d="M12 6.97998C11.45 6.97998 11 7.42998 11 7.97998V11.98C11 12.31 11.17 12.63 11.45 12.81L14.45 14.81C14.62 14.92 14.81 14.98 15 14.98C15.32 14.98 15.64 14.82 15.83 14.53C16.14 14.07 16.01 13.45 15.55 13.14L13 11.44V7.97998C13 7.42998 12.55 6.97998 12 6.97998Z" fill="black"/>
</svg>
