<svg width="24" height="24" viewBox="0 0 24 24" fill="none" xmlns="http://www.w3.org/2000/svg">
<path d="M6 7.22999H4C3.0335 7.22999 2.25 8.01349 2.25 8.97999V18.98C2.25 19.9465 3.0335 20.73 4 20.73H6C6.9665 20.73 7.75 19.9465 7.75 18.98V8.97999C7.75 8.01349 6.9665 7.22999 6 7.22999Z" fill="black"/>
<path d="M13 11.23H11C10.0335 11.23 9.25 12.0135 9.25 12.98V18.98C9.25 19.9465 10.0335 20.73 11 20.73H13C13.9665 20.73 14.75 19.9465 14.75 18.98V12.98C14.75 12.0135 13.9665 11.23 13 11.23Z" fill="black"/>
<path d="M20 15.23H18C17.0335 15.23 16.25 16.0135 16.25 16.98V18.98C16.25 19.9465 17.0335 20.73 18 20.73H20C20.9665 20.73 21.75 19.9465 21.75 18.98V16.98C21.75 16.0135 20.9665 15.23 20 15.23Z" fill="black"/>
<path d="M19.17 9.70999C19.17 9.70999 19.25 9.66999 19.29 9.65999C19.32 9.64999 19.36 9.62999 19.39 9.60999C19.48 9.54999 19.56 9.47999 19.62 9.38999C19.62 9.38999 19.63 9.38999 19.64 9.36999C19.69 9.27999 19.73 9.18999 19.74 9.09999C19.75 9.01999 19.74 8.92999 19.74 8.83999C19.74 8.82999 19.74 8.81999 19.74 8.80999L19.09 6.05999C18.99 5.65999 18.59 5.40999 18.19 5.49999C17.79 5.58999 17.54 5.99999 17.63 6.39999L17.86 7.38999L14.3 5.17999C13.95 4.95999 13.49 5.06999 13.27 5.41999C13.05 5.76999 13.16 6.22999 13.51 6.44999L17.07 8.65999L16.08 8.88999C15.68 8.97999 15.43 9.38999 15.52 9.78999C15.6 10.14 15.91 10.37 16.25 10.37C16.31 10.37 16.36 10.37 16.42 10.35L19.17 9.69999V9.70999Z" fill="black"/>
</svg>
