<svg width="24" height="24" viewBox="0 0 24 24" fill="none" xmlns="http://www.w3.org/2000/svg">
<path d="M15 17.25C14.59 17.25 14.25 17.59 14.25 18V19C14.25 19.69 13.69 20.25 13 20.25H5C4.31 20.25 3.75 19.69 3.75 19V5C3.75 4.31 4.31 3.75 5 3.75H13C13.69 3.75 14.25 4.31 14.25 5C14.25 5.41 14.59 5.75 15 5.75C15.41 5.75 15.75 5.41 15.75 5C15.75 3.48 14.52 2.25 13 2.25H5C3.48 2.25 2.25 3.48 2.25 5V19C2.25 20.52 3.48 21.75 5 21.75H13C14.52 21.75 15.75 20.52 15.75 19V18C15.75 17.59 15.41 17.25 15 17.25Z" fill="black"/>
<path d="M8 18.75H10C10.41 18.75 10.75 18.41 10.75 18C10.75 17.59 10.41 17.25 10 17.25H8C7.59 17.25 7.25 17.59 7.25 18C7.25 18.41 7.59 18.75 8 18.75Z" fill="black"/>
<path d="M20 7.25H11C10.04 7.25 9.25 8.04 9.25 9V14C9.25 14.96 10.04 15.75 11 15.75H20C20.96 15.75 21.75 14.96 21.75 14V9C21.75 8.04 20.96 7.25 20 7.25ZM11 8.75H20C20.14 8.75 20.25 8.86 20.25 9V10.25H10.75V9C10.75 8.86 10.86 8.75 11 8.75ZM20 14.25H11C10.86 14.25 10.75 14.14 10.75 14V11.75H20.25V14C20.25 14.14 20.14 14.25 20 14.25Z" fill="black"/>
</svg>
