<svg width="24" height="24" viewBox="0 0 24 24" fill="none" xmlns="http://www.w3.org/2000/svg">
<path d="M19 2.25H7C5.48 2.25 4.25 3.48 4.25 5V6.25H3C2.59 6.25 2.25 6.59 2.25 7C2.25 7.41 2.59 7.75 3 7.75H4.25V11.25H3C2.59 11.25 2.25 11.59 2.25 12C2.25 12.41 2.59 12.75 3 12.75H4.25V16.25H3C2.59 16.25 2.25 16.59 2.25 17C2.25 17.41 2.59 17.75 3 17.75H4.25V19C4.25 20.52 5.48 21.75 7 21.75H19C20.52 21.75 21.75 20.52 21.75 19V5C21.75 3.48 20.52 2.25 19 2.25ZM20.25 19C20.25 19.69 19.69 20.25 19 20.25H7C6.31 20.25 5.75 19.69 5.75 19V17.75H6C6.41 17.75 6.75 17.41 6.75 17C6.75 16.59 6.41 16.25 6 16.25H5.75V12.75H6C6.41 12.75 6.75 12.41 6.75 12C6.75 11.59 6.41 11.25 6 11.25H5.75V7.75H6C6.41 7.75 6.75 7.41 6.75 7C6.75 6.59 6.41 6.25 6 6.25H5.75V5C5.75 4.31 6.31 3.75 7 3.75H19C19.69 3.75 20.25 4.31 20.25 5V19Z" fill="black"/>
<path d="M13 11.75C14.52 11.75 15.75 10.52 15.75 9C15.75 7.48 14.52 6.25 13 6.25C11.48 6.25 10.25 7.48 10.25 9C10.25 10.52 11.48 11.75 13 11.75ZM13 7.75C13.69 7.75 14.25 8.31 14.25 9C14.25 9.69 13.69 10.25 13 10.25C12.31 10.25 11.75 9.69 11.75 9C11.75 8.31 12.31 7.75 13 7.75Z" fill="black"/>
<path d="M14 13.25H12C10.48 13.25 9.25 14.48 9.25 16V17C9.25 17.41 9.59 17.75 10 17.75C10.41 17.75 10.75 17.41 10.75 17V16C10.75 15.31 11.31 14.75 12 14.75H14C14.69 14.75 15.25 15.31 15.25 16V17C15.25 17.41 15.59 17.75 16 17.75C16.41 17.75 16.75 17.41 16.75 17V16C16.75 14.48 15.52 13.25 14 13.25Z" fill="black"/>
</svg>
