<svg width="24" height="24" viewBox="0 0 24 24" fill="none" xmlns="http://www.w3.org/2000/svg">
<path d="M10.53 5.50998L11.25 4.78998V7.97998C11.25 8.38998 11.59 8.72998 12 8.72998C12.41 8.72998 12.75 8.38998 12.75 7.97998V4.78998L13.47 5.50998C13.62 5.65998 13.81 5.72998 14 5.72998C14.19 5.72998 14.38 5.65998 14.53 5.50998C14.82 5.21998 14.82 4.73998 14.53 4.44998L12.53 2.44998C12.46 2.37998 12.38 2.32998 12.29 2.28998C12.11 2.20998 11.9 2.20998 11.72 2.28998C11.63 2.32998 11.55 2.37998 11.48 2.44998L9.48 4.44998C9.19 4.73998 9.19 5.21998 9.48 5.50998C9.77 5.79998 10.25 5.79998 10.54 5.50998H10.53Z" fill="black"/>
<path d="M20.18 9.30998C18.74 9.17998 17.29 9.20998 15.89 9.41998C14.11 9.68998 12.84 10.17 11.71 10.59C10.43 11.07 9.42 11.44 8.03 11.38C6.97 11.33 5.89 11.01 4.83 10.45C4.27 10.16 3.62 10.17 3.09 10.49C2.56 10.81 2.25 11.36 2.25 11.97V19.33C2.25 20.05 2.7 20.7 3.37 20.95C4.77 21.47 6.17 21.74 7.56 21.74C7.72 21.74 7.88 21.74 8.04 21.73C9.81 21.65 11.06 21.17 12.27 20.7C13.42 20.26 14.51 19.83 16.04 19.77C17.16 19.72 18.32 19.88 19.48 20.23C20.02 20.4 20.61 20.3 21.06 19.97C21.5 19.64 21.76 19.14 21.76 18.59V11.05C21.76 10.15 21.09 9.40998 20.19 9.32998L20.18 9.30998ZM7 18.73H6C5.59 18.73 5.25 18.39 5.25 17.98C5.25 17.57 5.59 17.23 6 17.23H7C7.41 17.23 7.75 17.57 7.75 17.98C7.75 18.39 7.41 18.73 7 18.73ZM12 17.73C10.76 17.73 9.75 16.72 9.75 15.48C9.75 14.24 10.76 13.23 12 13.23C13.24 13.23 14.25 14.24 14.25 15.48C14.25 16.72 13.24 17.73 12 17.73ZM18 13.73H17C16.59 13.73 16.25 13.39 16.25 12.98C16.25 12.57 16.59 12.23 17 12.23H18C18.41 12.23 18.75 12.57 18.75 12.98C18.75 13.39 18.41 13.73 18 13.73Z" fill="black"/>
<path d="M12 16.23C12.4142 16.23 12.75 15.8942 12.75 15.48C12.75 15.0658 12.4142 14.73 12 14.73C11.5858 14.73 11.25 15.0658 11.25 15.48C11.25 15.8942 11.5858 16.23 12 16.23Z" fill="black"/>
</svg>
