<svg width="24" height="24" viewBox="0 0 24 24" fill="none" xmlns="http://www.w3.org/2000/svg">
<path d="M13.45 18.45L12.73 19.17V15.98C12.73 15.57 12.39 15.23 11.98 15.23C11.57 15.23 11.23 15.57 11.23 15.98V19.17L10.51 18.45C10.22 18.16 9.73999 18.16 9.44999 18.45C9.15999 18.74 9.15999 19.22 9.44999 19.51L11.45 21.51C11.52 21.58 11.6 21.63 11.69 21.67C11.78 21.71 11.88 21.73 11.98 21.73C12.08 21.73 12.17 21.71 12.27 21.67C12.36 21.63 12.44 21.58 12.51 21.51L14.51 19.51C14.8 19.22 14.8 18.74 14.51 18.45C14.22 18.16 13.74 18.16 13.45 18.45Z" fill="black"/>
<path d="M11.98 9.23005C12.3942 9.23005 12.73 8.89426 12.73 8.48005C12.73 8.06583 12.3942 7.73005 11.98 7.73005C11.5658 7.73005 11.23 8.06583 11.23 8.48005C11.23 8.89426 11.5658 9.23005 11.98 9.23005Z" fill="black"/>
<path d="M20.16 2.31005C18.72 2.17005 17.27 2.21005 15.87 2.42005C14.09 2.69005 12.82 3.17005 11.7 3.59005C10.42 4.07005 9.40999 4.45005 8.01999 4.38005C6.95999 4.33005 5.87999 4.01005 4.81999 3.45005C4.25999 3.15005 3.60999 3.17005 3.07999 3.49005C2.54999 3.80005 2.23999 4.36005 2.23999 4.96005V12.32C2.23999 13.04 2.68999 13.69 3.35999 13.94C4.75999 14.46 6.15999 14.73 7.53999 14.73C7.69999 14.73 7.85999 14.73 8.01999 14.72C9.78999 14.64 11.04 14.16 12.25 13.69C13.4 13.25 14.49 12.82 16.02 12.76C17.15 12.71 18.31 12.87 19.46 13.22C20 13.39 20.59 13.29 21.04 12.96C21.48 12.63 21.74 12.13 21.74 11.58V4.03005C21.74 3.13005 21.07 2.39005 20.17 2.31005H20.16ZM6.97999 11.73H5.97999C5.56999 11.73 5.22999 11.39 5.22999 10.98C5.22999 10.57 5.56999 10.23 5.97999 10.23H6.97999C7.38999 10.23 7.72999 10.57 7.72999 10.98C7.72999 11.39 7.38999 11.73 6.97999 11.73ZM11.98 10.73C10.74 10.73 9.72999 9.72005 9.72999 8.48005C9.72999 7.24005 10.74 6.23005 11.98 6.23005C13.22 6.23005 14.23 7.24005 14.23 8.48005C14.23 9.72005 13.22 10.73 11.98 10.73ZM17.98 6.73005H16.98C16.57 6.73005 16.23 6.39005 16.23 5.98005C16.23 5.57005 16.57 5.23005 16.98 5.23005H17.98C18.39 5.23005 18.73 5.57005 18.73 5.98005C18.73 6.39005 18.39 6.73005 17.98 6.73005Z" fill="black"/>
</svg>
