<svg width="24" height="24" viewBox="0 0 24 24" fill="none" xmlns="http://www.w3.org/2000/svg">
<path d="M2.22998 17.98C2.22998 20.05 3.90998 21.73 5.97998 21.73H11.23V12.73H2.22998V17.98ZM5.47998 15.73H9.47998C9.88998 15.73 10.23 16.07 10.23 16.48C10.23 16.89 9.88998 17.23 9.47998 17.23H5.47998C5.06998 17.23 4.72998 16.89 4.72998 16.48C4.72998 16.07 5.06998 15.73 5.47998 15.73Z" fill="black"/>
<path d="M2.22998 5.97998V11.23H11.23V2.22998H5.97998C3.90998 2.22998 2.22998 3.90998 2.22998 5.97998ZM6.72998 5.47998C6.72998 5.06998 7.06998 4.72998 7.47998 4.72998C7.88998 4.72998 8.22998 5.06998 8.22998 5.47998V6.72998H9.47998C9.88998 6.72998 10.23 7.06998 10.23 7.47998C10.23 7.88998 9.88998 8.22998 9.47998 8.22998H8.22998V9.47998C8.22998 9.88998 7.88998 10.23 7.47998 10.23C7.06998 10.23 6.72998 9.88998 6.72998 9.47998V8.22998H5.47998C5.06998 8.22998 4.72998 7.88998 4.72998 7.47998C4.72998 7.06998 5.06998 6.72998 5.47998 6.72998H6.72998V5.47998Z" fill="black"/>
<path d="M17.98 2.22998H12.73V21.73H17.98C20.05 21.73 21.73 20.05 21.73 17.98V5.97998C21.73 3.90998 20.05 2.22998 17.98 2.22998ZM17.98 13.73H14.98C14.57 13.73 14.23 13.39 14.23 12.98C14.23 12.57 14.57 12.23 14.98 12.23H17.98C18.39 12.23 18.73 12.57 18.73 12.98C18.73 13.39 18.39 13.73 17.98 13.73ZM17.98 11.73H14.98C14.57 11.73 14.23 11.39 14.23 10.98C14.23 10.57 14.57 10.23 14.98 10.23H17.98C18.39 10.23 18.73 10.57 18.73 10.98C18.73 11.39 18.39 11.73 17.98 11.73Z" fill="black"/>
</svg>
