<svg width="24" height="24" viewBox="0 0 24 24" fill="none" xmlns="http://www.w3.org/2000/svg">
<path d="M20 20.23H7.75V18.73H15.25V11.23H7.75V9.72998H15.25V2.22998H5C3.48 2.22998 2.25 3.45998 2.25 4.97998V6.97998C2.25 8.49998 3.48 9.72998 5 9.72998H6.25V11.23H5C3.48 11.23 2.25 12.46 2.25 13.98V15.98C2.25 17.5 3.48 18.73 5 18.73H6.25V20.23H4C3.59 20.23 3.25 20.57 3.25 20.98C3.25 21.39 3.59 21.73 4 21.73H20C20.41 21.73 20.75 21.39 20.75 20.98C20.75 20.57 20.41 20.23 20 20.23ZM6 6.72998C5.59 6.72998 5.25 6.38998 5.25 5.97998C5.25 5.56998 5.59 5.22998 6 5.22998H7C7.41 5.22998 7.75 5.56998 7.75 5.97998C7.75 6.38998 7.41 6.72998 7 6.72998H6ZM7 15.73H6C5.59 15.73 5.25 15.39 5.25 14.98C5.25 14.57 5.59 14.23 6 14.23H7C7.41 14.23 7.75 14.57 7.75 14.98C7.75 15.39 7.41 15.73 7 15.73Z" fill="black"/>
<path d="M19 2.22998H16.75V9.72998H19C20.52 9.72998 21.75 8.49998 21.75 6.97998V4.97998C21.75 3.45998 20.52 2.22998 19 2.22998Z" fill="black"/>
<path d="M19 11.23H16.75V18.73H19C20.52 18.73 21.75 17.5 21.75 15.98V13.98C21.75 12.46 20.52 11.23 19 11.23Z" fill="black"/>
</svg>
