<svg width="24" height="24" viewBox="0 0 24 24" fill="none" xmlns="http://www.w3.org/2000/svg">
<path d="M19.3401 16.9C19.0601 14.1 17.2601 11.82 14.8101 10.81C15.9801 9.94 16.7501 8.57 16.7501 7C16.7501 4.38 14.6201 2.25 12.0001 2.25C9.38008 2.25 7.25008 4.38 7.25008 7C7.25008 8.56 8.02008 9.94 9.19008 10.81C6.74008 11.82 4.94008 14.1 4.66008 16.9L4.37008 19.83C4.32008 20.32 4.48008 20.81 4.81008 21.18C5.14008 21.55 5.61008 21.76 6.11008 21.76H17.9001C18.3901 21.76 18.8701 21.55 19.2001 21.18C19.5301 20.81 19.6901 20.32 19.6401 19.83L19.3501 16.9H19.3401ZM8.75008 7C8.75008 5.21 10.2101 3.75 12.0001 3.75C13.7901 3.75 15.2501 5.21 15.2501 7C15.2501 8.79 13.7901 10.25 12.0001 10.25C10.2101 10.25 8.75008 8.79 8.75008 7ZM18.0801 20.17C18.0801 20.17 17.9901 20.25 17.8901 20.25H6.10008C6.00008 20.25 5.94008 20.2 5.91008 20.17C5.88008 20.14 5.84008 20.07 5.85008 19.98L6.14008 17.05C6.44008 14.03 8.96008 11.76 11.9901 11.76C15.0201 11.76 17.5401 14.04 17.8401 17.05L18.1301 19.98C18.1301 20.08 18.0901 20.14 18.0701 20.17H18.0801Z" fill="black"/>
</svg>
