<svg width="24" height="24" viewBox="0 0 24 24" fill="none" xmlns="http://www.w3.org/2000/svg">
<path d="M19 7.25014H15.81L16.58 6.48014C17.18 5.88014 17.4 5.04014 17.17 4.23014C16.94 3.42014 16.32 2.81014 15.5 2.60014C14.38 2.32014 13.22 2.92014 12.79 3.98014L11.99 5.97014L11.19 3.98014C10.76 2.91014 9.59998 2.31014 8.47998 2.60014C7.65998 2.81014 7.03998 3.41014 6.80998 4.23014C6.57998 5.05014 6.80998 5.89014 7.39998 6.48014L8.16998 7.25014H4.97998C4.01998 7.25014 3.22998 8.04014 3.22998 9.00014V10.0001C3.22998 10.7001 3.63998 11.2901 4.22998 11.5701V19.0001C4.22998 20.5201 5.45998 21.7501 6.97998 21.7501H16.98C18.5 21.7501 19.73 20.5201 19.73 19.0001V11.5701C20.32 11.2901 20.73 10.6901 20.73 10.0001V9.00014C20.73 8.04014 19.94 7.25014 18.98 7.25014H19ZM19.25 9.00014V10.0001C19.25 10.1401 19.14 10.2501 19 10.2501H14.75V8.75014H19C19.14 8.75014 19.25 8.86014 19.25 9.00014ZM10.75 8.75014H13.25V10.2501H10.75V8.75014ZM14.19 4.54014C14.34 4.16014 14.75 3.95014 15.14 4.05014C15.55 4.15014 15.69 4.48014 15.73 4.62014C15.77 4.76014 15.82 5.11014 15.52 5.41014L13.69 7.24014H13.11L14.19 4.53014V4.54014ZM8.26998 4.63014C8.30998 4.49014 8.43998 4.16014 8.85998 4.06014C9.25998 3.96014 9.65998 4.17014 9.80998 4.55014L10.89 7.26014H10.31L8.47998 5.43014C8.17998 5.13014 8.22998 4.78014 8.26998 4.64014V4.63014ZM4.74998 9.00014C4.74998 8.86014 4.85998 8.75014 4.99998 8.75014H9.24998V10.2501H4.99998C4.85998 10.2501 4.74998 10.1401 4.74998 10.0001V9.00014ZM5.74998 19.0001V11.7501H9.24998V20.2501H6.99998C6.30998 20.2501 5.74998 19.6901 5.74998 19.0001ZM10.75 20.2501V11.7501H13.3C13.27 11.8301 13.25 11.9101 13.25 12.0001V20.2501H10.75ZM18.25 19.0001C18.25 19.6901 17.69 20.2501 17 20.2501H14.75V12.0001C14.75 11.9101 14.73 11.8301 14.7 11.7501H18.25V19.0001Z" fill="black"/>
</svg>
