<svg width="24" height="24" viewBox="0 0 24 24" fill="none" xmlns="http://www.w3.org/2000/svg">
<path d="M15.48 16.23C15.8942 16.23 16.23 15.8942 16.23 15.48C16.23 15.0658 15.8942 14.73 15.48 14.73C15.0658 14.73 14.73 15.0658 14.73 15.48C14.73 15.8942 15.0658 16.23 15.48 16.23Z" fill="black"/>
<path d="M8.47998 9.22998C8.89419 9.22998 9.22998 8.89419 9.22998 8.47998C9.22998 8.06577 8.89419 7.72998 8.47998 7.72998C8.06577 7.72998 7.72998 8.06577 7.72998 8.47998C7.72998 8.89419 8.06577 9.22998 8.47998 9.22998Z" fill="black"/>
<path d="M11.98 2.22998C6.60998 2.22998 2.22998 6.59998 2.22998 11.98C2.22998 17.36 6.59998 21.73 11.98 21.73C17.36 21.73 21.73 17.36 21.73 11.98C21.73 6.59998 17.36 2.22998 11.98 2.22998ZM6.22998 8.47998C6.22998 7.23998 7.23998 6.22998 8.47998 6.22998C9.71998 6.22998 10.73 7.23998 10.73 8.47998C10.73 9.71998 9.71998 10.73 8.47998 10.73C7.23998 10.73 6.22998 9.71998 6.22998 8.47998ZM8.42998 15.58C8.29998 15.68 8.13998 15.73 7.97998 15.73C7.74998 15.73 7.52998 15.63 7.37998 15.43C7.12998 15.1 7.19998 14.63 7.52998 14.38L15.53 8.37998C15.86 8.12998 16.33 8.19998 16.58 8.52998C16.83 8.85998 16.76 9.32998 16.43 9.57998L8.42998 15.58ZM15.48 17.73C14.24 17.73 13.23 16.72 13.23 15.48C13.23 14.24 14.24 13.23 15.48 13.23C16.72 13.23 17.73 14.24 17.73 15.48C17.73 16.72 16.72 17.73 15.48 17.73Z" fill="black"/>
</svg>
