<svg width="24" height="24" viewBox="0 0 24 24" fill="none" xmlns="http://www.w3.org/2000/svg">
<path d="M19 9.75C20.52 9.75 21.75 8.52 21.75 7V5C21.75 3.48 20.52 2.25 19 2.25H5C3.48 2.25 2.25 3.48 2.25 5V7C2.25 8.52 3.48 9.75 5 9.75H6.25V11.25H5C3.48 11.25 2.25 12.48 2.25 14V16C2.25 17.52 3.48 18.75 5 18.75H6.25V20.25H4C3.59 20.25 3.25 20.59 3.25 21C3.25 21.41 3.59 21.75 4 21.75H20C20.41 21.75 20.75 21.41 20.75 21C20.75 20.59 20.41 20.25 20 20.25H7.75V18.75H19C20.52 18.75 21.75 17.52 21.75 16V14C21.75 12.48 20.52 11.25 19 11.25H7.75V9.75H19ZM3.75 16V14C3.75 13.31 4.31 12.75 5 12.75H15.25V17.25H5C4.31 17.25 3.75 16.69 3.75 16ZM20.25 14V16C20.25 16.69 19.69 17.25 19 17.25H16.75V12.75H19C19.69 12.75 20.25 13.31 20.25 14ZM20.25 5V7C20.25 7.69 19.69 8.25 19 8.25H16.75V3.75H19C19.69 3.75 20.25 4.31 20.25 5ZM3.75 7V5C3.75 4.31 4.31 3.75 5 3.75H15.25V8.25H5C4.31 8.25 3.75 7.69 3.75 7Z" fill="black"/>
<path d="M7.75 6C7.75 5.59 7.41 5.25 7 5.25H6C5.59 5.25 5.25 5.59 5.25 6C5.25 6.41 5.59 6.75 6 6.75H7C7.41 6.75 7.75 6.41 7.75 6Z" fill="black"/>
<path d="M7.75 15C7.75 14.59 7.41 14.25 7 14.25H6C5.59 14.25 5.25 14.59 5.25 15C5.25 15.41 5.59 15.75 6 15.75H7C7.41 15.75 7.75 15.41 7.75 15Z" fill="black"/>
</svg>
