<svg width="24" height="24" viewBox="0 0 24 24" fill="none" xmlns="http://www.w3.org/2000/svg">
<path d="M9 2.25H4C3.04 2.25 2.25 3.04 2.25 4V9C2.25 9.96 3.04 10.75 4 10.75H9C9.96 10.75 10.75 9.96 10.75 9V4C10.75 3.04 9.96 2.25 9 2.25ZM9.25 9C9.25 9.14 9.14 9.25 9 9.25H4C3.86 9.25 3.75 9.14 3.75 9V4C3.75 3.86 3.86 3.75 4 3.75H9C9.14 3.75 9.25 3.86 9.25 4V9Z" fill="black"/>
<path d="M7 5.25H6C5.58579 5.25 5.25 5.58579 5.25 6V7C5.25 7.41421 5.58579 7.75 6 7.75H7C7.41421 7.75 7.75 7.41421 7.75 7V6C7.75 5.58579 7.41421 5.25 7 5.25Z" fill="black"/>
<path d="M9 12.25H4C3.04 12.25 2.25 13.04 2.25 14V19C2.25 19.96 3.04 20.75 4 20.75H9C9.96 20.75 10.75 19.96 10.75 19V14C10.75 13.04 9.96 12.25 9 12.25ZM9.25 19C9.25 19.14 9.14 19.25 9 19.25H4C3.86 19.25 3.75 19.14 3.75 19V14C3.75 13.86 3.86 13.75 4 13.75H9C9.14 13.75 9.25 13.86 9.25 14V19Z" fill="black"/>
<path d="M7 15.25H6C5.58579 15.25 5.25 15.5858 5.25 16V17C5.25 17.4142 5.58579 17.75 6 17.75H7C7.41421 17.75 7.75 17.4142 7.75 17V16C7.75 15.5858 7.41421 15.25 7 15.25Z" fill="black"/>
<path d="M19 2.25H14C13.04 2.25 12.25 3.04 12.25 4V9C12.25 9.96 13.04 10.75 14 10.75H19C19.96 10.75 20.75 9.96 20.75 9V4C20.75 3.04 19.96 2.25 19 2.25ZM19.25 9C19.25 9.14 19.14 9.25 19 9.25H14C13.86 9.25 13.75 9.14 13.75 9V4C13.75 3.86 13.86 3.75 14 3.75H19C19.14 3.75 19.25 3.86 19.25 4V9Z" fill="black"/>
<path d="M17 5.25H16C15.5858 5.25 15.25 5.58579 15.25 6V7C15.25 7.41421 15.5858 7.75 16 7.75H17C17.4142 7.75 17.75 7.41421 17.75 7V6C17.75 5.58579 17.4142 5.25 17 5.25Z" fill="black"/>
<path d="M20 17.25C19.59 17.25 19.25 17.59 19.25 18V19C19.25 19.14 19.14 19.25 19 19.25H18C17.59 19.25 17.25 19.59 17.25 20C17.25 20.41 17.59 20.75 18 20.75H19C19.96 20.75 20.75 19.96 20.75 19V18C20.75 17.59 20.41 17.25 20 17.25Z" fill="black"/>
<path d="M16 15.25H13.75V13C13.75 12.59 13.41 12.25 13 12.25C12.59 12.25 12.25 12.59 12.25 13V19C12.25 19.96 13.04 20.75 14 20.75H15C15.41 20.75 15.75 20.41 15.75 20C15.75 19.59 15.41 19.25 15 19.25H14C13.86 19.25 13.75 19.14 13.75 19V16.75H16C16.41 16.75 16.75 16.41 16.75 16C16.75 15.59 16.41 15.25 16 15.25Z" fill="black"/>
<path d="M20 12.25H16C15.59 12.25 15.25 12.59 15.25 13C15.25 13.41 15.59 13.75 16 13.75H20C20.41 13.75 20.75 13.41 20.75 13C20.75 12.59 20.41 12.25 20 12.25Z" fill="black"/>
<path d="M19.77 16C19.77 15.59 19.43 15.25 19.02 15.25H19.01C18.6 15.25 18.27 15.59 18.27 16C18.27 16.41 18.61 16.75 19.02 16.75C19.43 16.75 19.77 16.41 19.77 16Z" fill="black"/>
</svg>
