<svg width="24" height="24" viewBox="0 0 24 24" fill="none" xmlns="http://www.w3.org/2000/svg">
<path d="M13 10.23C13.6904 10.23 14.25 9.67034 14.25 8.97998C14.25 8.28962 13.6904 7.72998 13 7.72998C12.3096 7.72998 11.75 8.28962 11.75 8.97998C11.75 9.67034 12.3096 10.23 13 10.23Z" fill="black"/>
<path d="M19 2.22998H7C5.48 2.22998 4.25 3.45998 4.25 4.97998V6.22998H6C6.41 6.22998 6.75 6.56998 6.75 6.97998C6.75 7.38998 6.41 7.72998 6 7.72998H4.25V11.23H6C6.41 11.23 6.75 11.57 6.75 11.98C6.75 12.39 6.41 12.73 6 12.73H4.25V16.23H6C6.41 16.23 6.75 16.57 6.75 16.98C6.75 17.39 6.41 17.73 6 17.73H4.25V18.98C4.25 20.5 5.48 21.73 7 21.73H19C20.52 21.73 21.75 20.5 21.75 18.98V4.97998C21.75 3.45998 20.52 2.22998 19 2.22998ZM13 6.22998C14.52 6.22998 15.75 7.45998 15.75 8.97998C15.75 10.5 14.52 11.73 13 11.73C11.48 11.73 10.25 10.5 10.25 8.97998C10.25 7.45998 11.48 6.22998 13 6.22998ZM16.75 16.98C16.75 17.39 16.41 17.73 16 17.73C15.59 17.73 15.25 17.39 15.25 16.98V15.98C15.25 15.29 14.69 14.73 14 14.73H12C11.31 14.73 10.75 15.29 10.75 15.98V16.98C10.75 17.39 10.41 17.73 10 17.73C9.59 17.73 9.25 17.39 9.25 16.98V15.98C9.25 14.46 10.48 13.23 12 13.23H14C15.52 13.23 16.75 14.46 16.75 15.98V16.98Z" fill="black"/>
<path d="M3 6.22998C2.59 6.22998 2.25 6.56998 2.25 6.97998C2.25 7.38998 2.59 7.72998 3 7.72998H4.25V6.22998H3Z" fill="black"/>
<path d="M3 11.23C2.59 11.23 2.25 11.57 2.25 11.98C2.25 12.39 2.59 12.73 3 12.73H4.25V11.23H3Z" fill="black"/>
<path d="M3 16.23C2.59 16.23 2.25 16.57 2.25 16.98C2.25 17.39 2.59 17.73 3 17.73H4.25V16.23H3Z" fill="black"/>
</svg>
