<svg width="24" height="24" viewBox="0 0 24 24" fill="none" xmlns="http://www.w3.org/2000/svg">
<path d="M11.67 10.9C11.95 10.75 12.29 10.57 12.79 10.43C13.54 10.21 14.37 10.15 15.25 10.26V8.56998C14.5 8.45998 13.82 8.48998 13.21 8.66998C12.86 8.76998 12.62 8.89998 12.37 9.02998C12.04 9.19998 11.67 9.39998 11.12 9.48998C10.38 9.60998 9.59 9.49998 8.75 9.16998V10.72C9.55 11.15 10.27 11.32 10.88 11.22C11.19 11.17 11.39 11.06 11.67 10.91V10.9Z" fill="black"/>
<path d="M9.82 15.75L10.23 16.16C10.23 16.16 10.34 16.23 10.41 16.23H13.58C13.65 16.23 13.71 16.2 13.76 16.16L14.18 15.74C14.51 15.41 14.95 15.23 15.42 15.23H20.76V7.97998C20.76 5.90998 19.08 4.22998 17.01 4.22998H7C4.93 4.22998 3.25 5.90998 3.25 7.97998V15.23H8.58C9.05 15.23 9.49 15.41 9.82 15.74V15.75ZM7.25 7.92998C7.25 7.65998 7.4 7.40998 7.63 7.27998C7.87 7.14998 8.16 7.14998 8.39 7.28998C9.34 7.86998 10.18 8.10998 10.88 7.98998C11.19 7.93998 11.39 7.82998 11.67 7.67998C11.95 7.52998 12.29 7.34998 12.79 7.20998C13.8 6.90998 14.94 6.90998 16.17 7.20998C16.51 7.28998 16.75 7.58998 16.75 7.93998V11.15C16.75 11.38 16.65 11.6 16.47 11.74C16.29 11.88 16.05 11.93 15.83 11.88C14.85 11.65 13.97 11.65 13.21 11.88C12.86 11.98 12.62 12.11 12.37 12.24C12.04 12.41 11.67 12.61 11.12 12.7C10.92 12.73 10.72 12.75 10.52 12.75C9.62 12.75 8.64 12.43 7.61 11.8C7.39 11.66 7.25 11.42 7.25 11.16V7.92998Z" fill="black"/>
<path d="M21.72 16.73H15.41C15.34 16.73 15.28 16.76 15.23 16.8L14.81 17.22C14.48 17.55 14.04 17.73 13.57 17.73H10.4C9.93 17.73 9.49 17.55 9.16 17.22L8.75 16.81C8.75 16.81 8.64 16.74 8.57 16.74H2.28C2.27 16.82 2.25 16.9 2.25 16.99V17.99C2.25 19.51 3.48 20.74 5 20.74H19C20.52 20.74 21.75 19.51 21.75 17.99V16.99C21.75 16.9 21.74 16.82 21.72 16.74V16.73Z" fill="black"/>
</svg>
