<svg width="24" height="24" viewBox="0 0 24 24" fill="none" xmlns="http://www.w3.org/2000/svg">
<path d="M14.23 11.9803C14.23 12.2603 14.38 12.5103 14.63 12.6403C14.74 12.7003 14.86 12.7303 14.98 12.7303C15.13 12.7303 15.27 12.6903 15.4 12.6003L21.4 8.60032C21.61 8.46032 21.73 8.23032 21.73 7.98032C21.73 7.73032 21.6 7.50032 21.4 7.36032L15.4 3.35032C15.17 3.20032 14.87 3.18032 14.63 3.31032C14.39 3.44032 14.23 3.69032 14.23 3.97032V5.22032H4.97998C4.01998 5.22032 3.22998 6.01032 3.22998 6.97032V8.97032C3.22998 9.93032 4.01998 10.7203 4.97998 10.7203H14.23V11.9803Z" fill="black"/>
<path d="M20.98 14.2303H11.73V12.9803C11.73 12.7003 11.58 12.4503 11.33 12.3203C11.09 12.1903 10.79 12.2003 10.56 12.3603L4.55998 16.3603C4.34998 16.5003 4.22998 16.7303 4.22998 16.9803C4.22998 17.2303 4.35998 17.4703 4.55998 17.6003L10.56 21.6003C10.69 21.6803 10.83 21.7303 10.98 21.7303C11.1 21.7303 11.22 21.7003 11.33 21.6403C11.57 21.5103 11.73 21.2603 11.73 20.9803V19.7303H20.98C21.94 19.7303 22.73 18.9403 22.73 17.9803V15.9803C22.73 15.0203 21.94 14.2303 20.98 14.2303Z" fill="black"/>
</svg>
