<svg width="24" height="24" viewBox="0 0 24 24" fill="none" xmlns="http://www.w3.org/2000/svg">
<path d="M7.72998 13.98V8.97998C7.72998 7.18998 9.18998 5.72998 10.98 5.72998H15.73V4.97998C15.73 3.45998 14.5 2.22998 12.98 2.22998H4.97998C3.45998 2.22998 2.22998 3.45998 2.22998 4.97998V18.98C2.22998 20.5 3.45998 21.73 4.97998 21.73H12.98C14.5 21.73 15.73 20.5 15.73 18.98V17.23H10.98C9.18998 17.23 7.72998 15.77 7.72998 13.98ZM9.97998 18.73H7.97998C7.56998 18.73 7.22998 18.39 7.22998 17.98C7.22998 17.57 7.56998 17.23 7.97998 17.23H9.97998C10.39 17.23 10.73 17.57 10.73 17.98C10.73 18.39 10.39 18.73 9.97998 18.73Z" fill="black"/>
<path d="M19.98 7.22998H10.98C10.02 7.22998 9.22998 8.01998 9.22998 8.97998V10.23H21.73V8.97998C21.73 8.01998 20.94 7.22998 19.98 7.22998Z" fill="black"/>
<path d="M9.22998 13.98C9.22998 14.94 10.02 15.73 10.98 15.73H19.98C20.94 15.73 21.73 14.94 21.73 13.98V11.73H9.22998V13.98Z" fill="black"/>
</svg>
