<svg width="24" height="24" viewBox="0 0 24 24" fill="none" xmlns="http://www.w3.org/2000/svg">
<path d="M9 2.22998H4C3.04 2.22998 2.25 3.01998 2.25 3.97998V8.97998C2.25 9.93998 3.04 10.73 4 10.73H9C9.96 10.73 10.75 9.93998 10.75 8.97998V3.97998C10.75 3.01998 9.96 2.22998 9 2.22998ZM7.75 6.97998C7.75 7.38998 7.41 7.72998 7 7.72998H6C5.59 7.72998 5.25 7.38998 5.25 6.97998V5.97998C5.25 5.56998 5.59 5.22998 6 5.22998H7C7.41 5.22998 7.75 5.56998 7.75 5.97998V6.97998Z" fill="black"/>
<path d="M9 12.23H4C3.04 12.23 2.25 13.02 2.25 13.98V18.98C2.25 19.94 3.04 20.73 4 20.73H9C9.96 20.73 10.75 19.94 10.75 18.98V13.98C10.75 13.02 9.96 12.23 9 12.23ZM7.75 16.98C7.75 17.39 7.41 17.73 7 17.73H6C5.59 17.73 5.25 17.39 5.25 16.98V15.98C5.25 15.57 5.59 15.23 6 15.23H7C7.41 15.23 7.75 15.57 7.75 15.98V16.98Z" fill="black"/>
<path d="M19 2.22998H14C13.04 2.22998 12.25 3.01998 12.25 3.97998V8.97998C12.25 9.93998 13.04 10.73 14 10.73H19C19.96 10.73 20.75 9.93998 20.75 8.97998V3.97998C20.75 3.01998 19.96 2.22998 19 2.22998ZM17.75 6.97998C17.75 7.38998 17.41 7.72998 17 7.72998H16C15.59 7.72998 15.25 7.38998 15.25 6.97998V5.97998C15.25 5.56998 15.59 5.22998 16 5.22998H17C17.41 5.22998 17.75 5.56998 17.75 5.97998V6.97998Z" fill="black"/>
<path d="M20 17.23C19.59 17.23 19.25 17.57 19.25 17.98V18.98C19.25 19.12 19.14 19.23 19 19.23H18C17.59 19.23 17.25 19.57 17.25 19.98C17.25 20.39 17.59 20.73 18 20.73H19C19.96 20.73 20.75 19.94 20.75 18.98V17.98C20.75 17.57 20.41 17.23 20 17.23Z" fill="black"/>
<path d="M16 15.23H13.75V12.98C13.75 12.57 13.41 12.23 13 12.23C12.59 12.23 12.25 12.57 12.25 12.98V18.98C12.25 19.94 13.04 20.73 14 20.73H15C15.41 20.73 15.75 20.39 15.75 19.98C15.75 19.57 15.41 19.23 15 19.23H14C13.86 19.23 13.75 19.12 13.75 18.98V16.73H16C16.41 16.73 16.75 16.39 16.75 15.98C16.75 15.57 16.41 15.23 16 15.23Z" fill="black"/>
<path d="M20 12.23H16C15.59 12.23 15.25 12.57 15.25 12.98C15.25 13.39 15.59 13.73 16 13.73H20C20.41 13.73 20.75 13.39 20.75 12.98C20.75 12.57 20.41 12.23 20 12.23Z" fill="black"/>
<path d="M19.77 15.98C19.77 15.57 19.43 15.23 19.02 15.23H19.01C18.6 15.23 18.27 15.57 18.27 15.98C18.27 16.39 18.61 16.73 19.02 16.73C19.43 16.73 19.77 16.39 19.77 15.98Z" fill="black"/>
</svg>
