<svg width="24" height="24" viewBox="0 0 24 24" fill="none" xmlns="http://www.w3.org/2000/svg">
<path d="M19.98 8.22972H17.98C17.0135 8.22972 16.23 9.01322 16.23 9.97972V19.9797C16.23 20.9462 17.0135 21.7297 17.98 21.7297H19.98C20.9465 21.7297 21.73 20.9462 21.73 19.9797V9.97972C21.73 9.01322 20.9465 8.22972 19.98 8.22972Z" fill="black"/>
<path d="M12.98 12.2297H10.98C10.0135 12.2297 9.22998 13.0132 9.22998 13.9797V19.9797C9.22998 20.9462 10.0135 21.7297 10.98 21.7297H12.98C13.9465 21.7297 14.73 20.9462 14.73 19.9797V13.9797C14.73 13.0132 13.9465 12.2297 12.98 12.2297Z" fill="black"/>
<path d="M5.97998 16.2297H3.97998C3.01348 16.2297 2.22998 17.0132 2.22998 17.9797V19.9797C2.22998 20.9462 3.01348 21.7297 3.97998 21.7297H5.97998C6.94648 21.7297 7.72998 20.9462 7.72998 19.9797V17.9797C7.72998 17.0132 6.94648 16.2297 5.97998 16.2297Z" fill="black"/>
<path d="M9.43998 10.3197C9.77998 10.3197 10.09 10.0897 10.17 9.73972L10.82 6.98972C10.82 6.98972 10.82 6.96972 10.82 6.95972C10.84 6.86972 10.84 6.77972 10.82 6.69972C10.8 6.60972 10.77 6.50972 10.72 6.42972C10.67 6.33972 10.6 6.26972 10.52 6.21972C10.45 6.16972 10.37 6.13972 10.29 6.10972C10.28 6.10972 10.27 6.09972 10.25 6.08972L7.49998 5.43972C7.09998 5.34972 6.68998 5.59972 6.59998 5.99972C6.50998 6.39972 6.75998 6.80972 7.15998 6.89972L8.14998 7.12972L4.58998 9.33972C4.23998 9.55972 4.12998 10.0197 4.34998 10.3697C4.48998 10.5997 4.73998 10.7197 4.98998 10.7197C5.12998 10.7197 5.25998 10.6797 5.38998 10.6097L8.94998 8.39972L8.71998 9.38972C8.62998 9.78972 8.87998 10.1997 9.27998 10.2897C9.33998 10.2997 9.38998 10.3097 9.44998 10.3097L9.43998 10.3197Z" fill="black"/>
</svg>
