<svg width="24" height="24" viewBox="0 0 24 24" fill="none" xmlns="http://www.w3.org/2000/svg">
<path d="M20.67 7.38031C20.59 6.57031 19.97 5.92031 19.17 5.81031C18.15 5.67031 17.16 5.37031 16.23 4.93031C15.11 4.40031 14.1 3.67031 13.21 2.76031C12.56 2.09031 11.44 2.09031 10.79 2.76031C9.90001 3.67031 8.89001 4.40031 7.77001 4.93031C6.84001 5.37031 5.85001 5.67031 4.83001 5.81031C4.03001 5.92031 3.41001 6.57031 3.33001 7.38031C3.12001 9.41031 3.03001 14.5603 6.56001 18.4203C7.89001 19.8703 9.54001 20.9403 11.46 21.6003C11.64 21.6603 11.82 21.6903 12 21.6903C12.18 21.6903 12.36 21.6603 12.54 21.6003C14.46 20.9403 16.11 19.8703 17.44 18.4203C20.98 14.5603 20.88 9.42031 20.67 7.38031ZM15.6 10.4403L12.6 14.4403C12.47 14.6103 12.27 14.7203 12.05 14.7403C12.03 14.7403 12.01 14.7403 12 14.7403C11.8 14.7403 11.61 14.6603 11.47 14.5203L9.47001 12.5203C9.18001 12.2303 9.18001 11.7503 9.47001 11.4603C9.76001 11.1703 10.24 11.1703 10.53 11.4603L11.92 12.8503L14.4 9.54031C14.65 9.21031 15.12 9.14031 15.45 9.39031C15.78 9.64031 15.85 10.1103 15.6 10.4403Z" fill="black"/>
</svg>
