<svg width="24" height="24" viewBox="0 0 24 24" fill="none" xmlns="http://www.w3.org/2000/svg">
<path d="M13.25 10.7499V11.9999C13.25 12.2799 13.4 12.5299 13.65 12.6599C13.76 12.7199 13.88 12.7499 14 12.7499C14.15 12.7499 14.29 12.7099 14.42 12.6199L20.42 8.61986C20.63 8.47986 20.75 8.24986 20.75 7.99986C20.75 7.74986 20.62 7.51986 20.42 7.37986L14.42 3.37986C14.19 3.22986 13.89 3.20986 13.65 3.33986C13.41 3.46986 13.25 3.71986 13.25 3.99986V5.24986H4C3.04 5.24986 2.25 6.03986 2.25 6.99986V8.99986C2.25 9.95986 3.04 10.7499 4 10.7499H13.25ZM3.75 8.99986V6.99986C3.75 6.85986 3.86 6.74986 4 6.74986H14C14.41 6.74986 14.75 6.40986 14.75 5.99986V5.39986L18.65 7.99986L14.75 10.5999V9.99986C14.75 9.58986 14.41 9.24986 14 9.24986H4C3.86 9.24986 3.75 9.13986 3.75 8.99986Z" fill="black"/>
<path d="M20 14.2499H10.75V12.9999C10.75 12.7199 10.6 12.4699 10.35 12.3399C10.11 12.2099 9.81 12.2199 9.58 12.3799L3.58 16.3799C3.37 16.5199 3.25 16.7499 3.25 16.9999C3.25 17.2499 3.38 17.4799 3.58 17.6199L9.58 21.6199C9.71 21.6999 9.85 21.7499 10 21.7499C10.12 21.7499 10.24 21.7199 10.35 21.6599C10.59 21.5299 10.75 21.2799 10.75 20.9999V19.7499H20C20.96 19.7499 21.75 18.9599 21.75 17.9999V15.9999C21.75 15.0399 20.96 14.2499 20 14.2499ZM20.25 17.9999C20.25 18.1399 20.14 18.2499 20 18.2499H10C9.59 18.2499 9.25 18.5899 9.25 18.9999V19.5999L5.35 16.9999L9.25 14.3999V14.9999C9.25 15.4099 9.59 15.7499 10 15.7499H20C20.14 15.7499 20.25 15.8599 20.25 15.9999V17.9999Z" fill="black"/>
</svg>
