<svg width="24" height="24" viewBox="0 0 24 24" fill="none" xmlns="http://www.w3.org/2000/svg">
<path d="M20.18 2.32982C18.74 2.18982 17.29 2.22982 15.89 2.43982C14.11 2.70982 12.84 3.18982 11.72 3.60982C10.44 4.08982 9.43001 4.46982 8.04001 4.39982C6.98001 4.34982 5.90001 4.02982 4.84001 3.46982C4.28001 3.16982 3.63001 3.18982 3.10001 3.50982C2.57001 3.81982 2.26001 4.37982 2.26001 4.97982V12.3398C2.26001 13.0598 2.71001 13.7098 3.38001 13.9598C4.78001 14.4798 6.18001 14.7498 7.57001 14.7498C7.73001 14.7498 7.89001 14.7498 8.05001 14.7398C9.82001 14.6598 11.07 14.1798 12.28 13.7098C13.43 13.2698 14.52 12.8398 16.05 12.7798C17.18 12.7298 18.34 12.8898 19.49 13.2398C20.03 13.4098 20.62 13.3098 21.07 12.9798C21.51 12.6498 21.77 12.1498 21.77 11.5998V4.04982C21.77 3.14982 21.1 2.40982 20.2 2.32982H20.18ZM20.25 11.5898C20.25 11.6798 20.2 11.7298 20.16 11.7598C20.13 11.7798 20.04 11.8398 19.92 11.7998C18.6 11.3898 17.27 11.2098 15.97 11.2698C14.2 11.3498 12.94 11.8298 11.73 12.2998C10.58 12.7398 9.49001 13.1598 7.97001 13.2298C6.64001 13.2898 5.26001 13.0598 3.90001 12.5498C3.82001 12.5198 3.76001 12.4298 3.76001 12.3298V4.97982C3.76001 4.87982 3.82001 4.81982 3.87001 4.78982C3.89001 4.77982 3.94001 4.74982 4.01001 4.74982C4.05001 4.74982 4.09001 4.74982 4.14001 4.77982C5.40001 5.44982 6.69001 5.81982 7.98001 5.88982C9.68001 5.96982 10.93 5.49982 12.26 5.00982C13.31 4.60982 14.5 4.16982 16.13 3.91982C17.41 3.72982 18.73 3.68982 20.06 3.81982C20.18 3.82982 20.27 3.92982 20.27 4.04982V11.5898H20.25Z" fill="black"/>
<path d="M13.47 18.4698L12.75 19.1898V15.9998C12.75 15.5898 12.41 15.2498 12 15.2498C11.59 15.2498 11.25 15.5898 11.25 15.9998V19.1898L10.53 18.4698C10.24 18.1798 9.76001 18.1798 9.47001 18.4698C9.18001 18.7598 9.18001 19.2398 9.47001 19.5298L11.47 21.5298C11.54 21.5998 11.62 21.6498 11.71 21.6898C11.8 21.7298 11.9 21.7498 12 21.7498C12.1 21.7498 12.19 21.7298 12.29 21.6898C12.38 21.6498 12.46 21.5998 12.53 21.5298L14.53 19.5298C14.82 19.2398 14.82 18.7598 14.53 18.4698C14.24 18.1798 13.76 18.1798 13.47 18.4698Z" fill="black"/>
<path d="M12 6.24982C10.76 6.24982 9.75001 7.25982 9.75001 8.49982C9.75001 9.73982 10.76 10.7498 12 10.7498C13.24 10.7498 14.25 9.73982 14.25 8.49982C14.25 7.25982 13.24 6.24982 12 6.24982ZM12 9.24982C11.59 9.24982 11.25 8.90982 11.25 8.49982C11.25 8.08982 11.59 7.74982 12 7.74982C12.41 7.74982 12.75 8.08982 12.75 8.49982C12.75 8.90982 12.41 9.24982 12 9.24982Z" fill="black"/>
<path d="M18 5.24982H17C16.59 5.24982 16.25 5.58982 16.25 5.99982C16.25 6.40982 16.59 6.74982 17 6.74982H18C18.41 6.74982 18.75 6.40982 18.75 5.99982C18.75 5.58982 18.41 5.24982 18 5.24982Z" fill="black"/>
<path d="M7.00001 10.2498H6.00001C5.59001 10.2498 5.25001 10.5898 5.25001 10.9998C5.25001 11.4098 5.59001 11.7498 6.00001 11.7498H7.00001C7.41001 11.7498 7.75001 11.4098 7.75001 10.9998C7.75001 10.5898 7.41001 10.2498 7.00001 10.2498Z" fill="black"/>
</svg>
