<svg width="24" height="24" viewBox="0 0 24 24" fill="none" xmlns="http://www.w3.org/2000/svg">
<path d="M20.67 7.38983C20.59 6.57983 19.97 5.92983 19.17 5.81983C18.15 5.67983 17.16 5.37983 16.23 4.93983C15.11 4.40983 14.1 3.67983 13.21 2.76983C12.56 2.09983 11.44 2.09983 10.79 2.76983C9.90001 3.67983 8.89001 4.40983 7.77001 4.93983C6.84001 5.37983 5.85001 5.67983 4.83001 5.81983C4.03001 5.92983 3.41001 6.57983 3.33001 7.38983C3.12001 9.41983 3.03001 14.5698 6.56001 18.4298C7.89001 19.8798 9.54001 20.9498 11.46 21.6098C11.64 21.6698 11.82 21.6998 12 21.6998C12.18 21.6998 12.36 21.6698 12.54 21.6098C14.46 20.9498 16.11 19.8798 17.44 18.4298C20.98 14.5698 20.88 9.42983 20.67 7.38983ZM16.33 17.4098C15.17 18.6798 13.73 19.6098 11.95 20.1898C10.27 19.6098 8.83001 18.6798 7.67001 17.4098C4.55001 13.9998 4.64001 9.36983 4.82001 7.53983C4.83001 7.40983 4.92001 7.31983 5.03001 7.29983C6.20001 7.13983 7.34001 6.79983 8.41001 6.28983C9.69001 5.67983 10.85 4.84983 11.85 3.80983C11.89 3.76983 11.94 3.74983 11.99 3.74983C12.04 3.74983 12.09 3.76983 12.13 3.80983C13.14 4.84983 14.3 5.67983 15.58 6.28983C16.65 6.79983 17.79 7.13983 18.96 7.29983C19.08 7.31983 19.16 7.40983 19.17 7.53983C19.36 9.36983 19.45 14.0098 16.33 17.4098Z" fill="black"/>
<path d="M14.4 9.54983L11.92 12.8598L10.53 11.4698C10.24 11.1798 9.76001 11.1798 9.47001 11.4698C9.18001 11.7598 9.18001 12.2398 9.47001 12.5298L11.47 14.5298C11.61 14.6698 11.8 14.7498 12 14.7498C12.02 14.7498 12.04 14.7498 12.05 14.7498C12.27 14.7298 12.47 14.6298 12.6 14.4498L15.6 10.4498C15.85 10.1198 15.78 9.64983 15.45 9.39983C15.12 9.14983 14.65 9.21983 14.4 9.54983Z" fill="black"/>
</svg>
