<svg width="24" height="24" viewBox="0 0 24 24" fill="none" xmlns="http://www.w3.org/2000/svg">
<path d="M10 10.6597L12.02 18.0597L14.04 10.6597H10Z" fill="black"/>
<path d="M21.28 9.15967C21.22 9.02967 21.17 8.89967 21.07 8.77967L17.9 4.81967C17.57 4.39967 17.07 4.15967 16.53 4.15967H12.97L15.47 9.15967H21.28Z" fill="black"/>
<path d="M13.81 9.15967L12.02 5.57967L10.23 9.15967H13.81Z" fill="black"/>
<path d="M11.06 4.15967H7.5C6.96 4.15967 6.47 4.39967 6.13 4.81967L2.96 8.77967C2.87 8.89967 2.81 9.02967 2.75 9.15967H8.55L11.05 4.15967H11.06Z" fill="black"/>
<path d="M13.09 19.8397L21.01 11.0397C21.11 10.9197 21.18 10.7897 21.25 10.6597H15.6L13.1 19.8397H13.09Z" fill="black"/>
<path d="M2.79 10.6597C2.86 10.7897 2.92 10.9297 3.03 11.0397L10.95 19.8397L8.44 10.6597H2.79Z" fill="black"/>
</svg>
