<svg width="24" height="24" viewBox="0 0 24 24" fill="none" xmlns="http://www.w3.org/2000/svg">
<path d="M12.4899 14.4199C12.3499 14.2899 12.1699 14.2299 11.9899 14.2299C10.7499 14.2299 9.73993 13.2199 9.73993 11.9799C9.73993 11.7799 9.65993 11.5799 9.50993 11.4399L6.42993 8.43992C6.16993 8.18992 5.75993 8.15992 5.46993 8.36992C3.49993 9.78992 2.45993 11.3999 2.34993 11.5799C2.19993 11.8199 2.19993 12.1299 2.34993 12.3699C2.48993 12.5899 5.74993 17.7199 11.9899 17.7199C12.7099 17.7199 13.4299 17.6499 14.1399 17.5099C14.4199 17.4599 14.6399 17.2499 14.7199 16.9699C14.7999 16.6999 14.7199 16.3999 14.4999 16.2099L12.4999 14.4099L12.4899 14.4199Z" fill="black"/>
<path d="M21.6199 12.3699C21.7699 12.1299 21.7699 11.8199 21.6199 11.5799C21.4799 11.3599 18.2199 6.22992 11.9799 6.22992C10.6199 6.22992 9.29993 6.48992 8.03993 6.97992L4.50993 3.44992C4.21993 3.15992 3.73993 3.15992 3.44993 3.44992C3.15993 3.73992 3.15993 4.21992 3.44993 4.50992L13.5699 14.6299L15.5699 16.6399L19.4399 20.5099C19.5899 20.6599 19.7799 20.7299 19.9699 20.7299C20.1599 20.7299 20.3499 20.6599 20.4999 20.5099C20.7899 20.2199 20.7899 19.7399 20.4999 19.4499L17.3499 16.2999C20.0199 14.7999 21.4399 12.6399 21.5999 12.3699H21.6199ZM11.0199 9.94992C11.3199 9.80992 11.6399 9.71992 11.9799 9.71992C13.2199 9.71992 14.2299 10.7299 14.2299 11.9699C14.2299 12.3099 14.1499 12.6399 13.9999 12.9299L11.0099 9.93992L11.0199 9.94992Z" fill="black"/>
</svg>
