<svg width="24" height="24" viewBox="0 0 24 24" fill="none" xmlns="http://www.w3.org/2000/svg">
<path d="M19 7.22998H5C3.48 7.22998 2.25 8.45998 2.25 9.97998V13.98C2.25 15.5 3.48 16.73 5 16.73H19C20.52 16.73 21.75 15.5 21.75 13.98V9.97998C21.75 8.45998 20.52 7.22998 19 7.22998ZM7.94 12.16C8.23 12.45 8.23 12.93 7.94 13.22C7.79 13.37 7.6 13.44 7.41 13.44C7.22 13.44 7.03 13.37 6.88 13.22L6.7 13.04L6.52 13.22C6.37 13.37 6.18 13.44 5.99 13.44C5.8 13.44 5.61 13.37 5.46 13.22C5.17 12.93 5.17 12.45 5.46 12.16L5.64 11.98L5.46 11.8C5.17 11.51 5.17 11.03 5.46 10.74C5.75 10.45 6.23 10.45 6.52 10.74L6.7 10.92L6.88 10.74C7.17 10.45 7.65 10.45 7.94 10.74C8.23 11.03 8.23 11.51 7.94 11.8L7.76 11.98L7.94 12.16ZM13.23 12.16C13.52 12.45 13.52 12.93 13.23 13.22C13.08 13.37 12.89 13.44 12.7 13.44C12.51 13.44 12.32 13.37 12.17 13.22L11.99 13.04L11.81 13.22C11.66 13.37 11.47 13.44 11.28 13.44C11.09 13.44 10.9 13.37 10.75 13.22C10.46 12.93 10.46 12.45 10.75 12.16L10.93 11.98L10.75 11.8C10.46 11.51 10.46 11.03 10.75 10.74C11.04 10.45 11.52 10.45 11.81 10.74L11.99 10.92L12.17 10.74C12.46 10.45 12.94 10.45 13.23 10.74C13.52 11.03 13.52 11.51 13.23 11.8L13.05 11.98L13.23 12.16ZM18.52 12.16C18.81 12.45 18.81 12.93 18.52 13.22C18.37 13.37 18.18 13.44 17.99 13.44C17.8 13.44 17.61 13.37 17.46 13.22L17.28 13.04L17.1 13.22C16.95 13.37 16.76 13.44 16.57 13.44C16.38 13.44 16.19 13.37 16.04 13.22C15.75 12.93 15.75 12.45 16.04 12.16L16.22 11.98L16.04 11.8C15.75 11.51 15.75 11.03 16.04 10.74C16.33 10.45 16.81 10.45 17.1 10.74L17.28 10.92L17.46 10.74C17.75 10.45 18.23 10.45 18.52 10.74C18.81 11.03 18.81 11.51 18.52 11.8L18.34 11.98L18.52 12.16Z" fill="black"/>
</svg>
