<svg width="24" height="24" viewBox="0 0 24 24" fill="none" xmlns="http://www.w3.org/2000/svg">
<path d="M9.5 15.75H5.5C5.09 15.75 4.75 16.09 4.75 16.5C4.75 16.91 5.09 17.25 5.5 17.25H9.5C9.91 17.25 10.25 16.91 10.25 16.5C10.25 16.09 9.91 15.75 9.5 15.75Z" fill="black"/>
<path d="M5.5 8.25H6.75V9.5C6.75 9.91 7.09 10.25 7.5 10.25C7.91 10.25 8.25 9.91 8.25 9.5V8.25H9.5C9.91 8.25 10.25 7.91 10.25 7.5C10.25 7.09 9.91 6.75 9.5 6.75H8.25V5.5C8.25 5.09 7.91 4.75 7.5 4.75C7.09 4.75 6.75 5.09 6.75 5.5V6.75H5.5C5.09 6.75 4.75 7.09 4.75 7.5C4.75 7.91 5.09 8.25 5.5 8.25Z" fill="black"/>
<path d="M18 10.25H15C14.59 10.25 14.25 10.59 14.25 11C14.25 11.41 14.59 11.75 15 11.75H18C18.41 11.75 18.75 11.41 18.75 11C18.75 10.59 18.41 10.25 18 10.25Z" fill="black"/>
<path d="M18 12.25H15C14.59 12.25 14.25 12.59 14.25 13C14.25 13.41 14.59 13.75 15 13.75H18C18.41 13.75 18.75 13.41 18.75 13C18.75 12.59 18.41 12.25 18 12.25Z" fill="black"/>
<path d="M18 2.25H6C3.93 2.25 2.25 3.93 2.25 6V18C2.25 20.07 3.93 21.75 6 21.75H18C20.07 21.75 21.75 20.07 21.75 18V6C21.75 3.93 20.07 2.25 18 2.25ZM6 3.75H11.25V11.25H3.75V6C3.75 4.76 4.76 3.75 6 3.75ZM3.75 18V12.75H11.25V20.25H6C4.76 20.25 3.75 19.24 3.75 18ZM20.25 18C20.25 19.24 19.24 20.25 18 20.25H12.75V3.75H18C19.24 3.75 20.25 4.76 20.25 6V18Z" fill="black"/>
</svg>
