<svg width="24" height="24" viewBox="0 0 24 24" fill="none" xmlns="http://www.w3.org/2000/svg">
<path d="M19 7.25H5C3.48 7.25 2.25 8.48 2.25 10V14C2.25 15.52 3.48 16.75 5 16.75H19C20.52 16.75 21.75 15.52 21.75 14V10C21.75 8.48 20.52 7.25 19 7.25ZM20.25 14C20.25 14.69 19.69 15.25 19 15.25H5C4.31 15.25 3.75 14.69 3.75 14V10C3.75 9.31 4.31 8.75 5 8.75H19C19.69 8.75 20.25 9.31 20.25 10V14Z" fill="black"/>
<path d="M13.24 10.76C12.95 10.47 12.47 10.47 12.18 10.76L12 10.94L11.82 10.76C11.53 10.47 11.05 10.47 10.76 10.76C10.47 11.05 10.47 11.53 10.76 11.82L10.94 12L10.76 12.18C10.47 12.47 10.47 12.95 10.76 13.24C10.91 13.39 11.1 13.46 11.29 13.46C11.48 13.46 11.67 13.39 11.82 13.24L12 13.06L12.18 13.24C12.33 13.39 12.52 13.46 12.71 13.46C12.9 13.46 13.09 13.39 13.24 13.24C13.53 12.95 13.53 12.47 13.24 12.18L13.06 12L13.24 11.82C13.53 11.53 13.53 11.05 13.24 10.76Z" fill="black"/>
<path d="M18.53 10.76C18.24 10.47 17.76 10.47 17.47 10.76L17.29 10.94L17.11 10.76C16.82 10.47 16.34 10.47 16.05 10.76C15.76 11.05 15.76 11.53 16.05 11.82L16.23 12L16.05 12.18C15.76 12.47 15.76 12.95 16.05 13.24C16.2 13.39 16.39 13.46 16.58 13.46C16.77 13.46 16.96 13.39 17.11 13.24L17.29 13.06L17.47 13.24C17.62 13.39 17.81 13.46 18 13.46C18.19 13.46 18.38 13.39 18.53 13.24C18.82 12.95 18.82 12.47 18.53 12.18L18.35 12L18.53 11.82C18.82 11.53 18.82 11.05 18.53 10.76Z" fill="black"/>
<path d="M7.94 10.76C7.65 10.47 7.17 10.47 6.88 10.76L6.7 10.94L6.52 10.76C6.23 10.47 5.75 10.47 5.46 10.76C5.17 11.05 5.17 11.53 5.46 11.82L5.64 12L5.46 12.18C5.17 12.47 5.17 12.95 5.46 13.24C5.61 13.39 5.8 13.46 5.99 13.46C6.18 13.46 6.37 13.39 6.52 13.24L6.7 13.06L6.88 13.24C7.03 13.39 7.22 13.46 7.41 13.46C7.6 13.46 7.79 13.39 7.94 13.24C8.23 12.95 8.23 12.47 7.94 12.18L7.76 12L7.94 11.82C8.23 11.53 8.23 11.05 7.94 10.76Z" fill="black"/>
</svg>
