<svg width="24" height="24" viewBox="0 0 24 24" fill="none" xmlns="http://www.w3.org/2000/svg">
<path d="M21.6699 15.09C21.5699 14.53 21.3999 13.98 21.1399 13.48L19.5699 10.38C18.5799 8.43998 16.5999 7.22998 14.3999 7.22998H9.60993C7.40993 7.22998 5.42993 8.43998 4.43993 10.38L2.86993 13.48C2.60993 13.99 2.42993 14.53 2.33993 15.09C2.05993 16.73 2.51993 18.4 3.59993 19.68C4.69993 20.98 6.31993 21.73 8.03994 21.73H15.9799C17.6999 21.73 19.3199 20.98 20.4199 19.68C21.4999 18.4 21.9599 16.73 21.6799 15.09H21.6699Z" fill="black"/>
<path d="M8.17994 5.88998C8.64994 5.79998 9.11994 5.73998 9.60993 5.73998H14.3999C14.8899 5.73998 15.3599 5.79998 15.8299 5.88998L16.2799 4.53998C16.4599 4.00998 16.3699 3.41998 16.0399 2.95998C15.7099 2.49998 15.1799 2.22998 14.6199 2.22998H9.38994C8.82994 2.22998 8.29993 2.49998 7.96993 2.95998C7.63994 3.41998 7.54994 3.99998 7.72994 4.53998L8.17994 5.88998Z" fill="black"/>
</svg>
