<svg width="24" height="24" viewBox="0 0 24 24" fill="none" xmlns="http://www.w3.org/2000/svg">
<path d="M20.6 12.45C20.8 12.18 20.8 11.82 20.6 11.55C17.53 7.46 12.9 7.25 12 7.25C6.88 7.25 3.94 10.83 3.4 11.55C3.2 11.82 3.2 12.18 3.4 12.45C6.47 16.54 11.1 16.75 12 16.75C17.12 16.75 20.06 13.17 20.6 12.45ZM12 15.25C11.55 15.25 7.67 15.16 4.97 12.01C5.87 11 8.3 8.75 12 8.75C12.45 8.75 16.33 8.84 19.03 11.99C18.13 13 15.7 15.25 12 15.25Z" fill="black"/>
<path d="M3 7.75C3.41 7.75 3.75 7.41 3.75 7V4C3.75 3.86 3.86 3.75 4 3.75H7C7.41 3.75 7.75 3.41 7.75 3C7.75 2.59 7.41 2.25 7 2.25H4C3.04 2.25 2.25 3.04 2.25 4V7C2.25 7.41 2.59 7.75 3 7.75Z" fill="black"/>
<path d="M20 2.25H17C16.59 2.25 16.25 2.59 16.25 3C16.25 3.41 16.59 3.75 17 3.75H20C20.14 3.75 20.25 3.86 20.25 4V7C20.25 7.41 20.59 7.75 21 7.75C21.41 7.75 21.75 7.41 21.75 7V4C21.75 3.04 20.96 2.25 20 2.25Z" fill="black"/>
<path d="M7 20.25H4C3.86 20.25 3.75 20.14 3.75 20V17C3.75 16.59 3.41 16.25 3 16.25C2.59 16.25 2.25 16.59 2.25 17V20C2.25 20.96 3.04 21.75 4 21.75H7C7.41 21.75 7.75 21.41 7.75 21C7.75 20.59 7.41 20.25 7 20.25Z" fill="black"/>
<path d="M21 16.25C20.59 16.25 20.25 16.59 20.25 17V20C20.25 20.14 20.14 20.25 20 20.25H17C16.59 20.25 16.25 20.59 16.25 21C16.25 21.41 16.59 21.75 17 21.75H20C20.96 21.75 21.75 20.96 21.75 20V17C21.75 16.59 21.41 16.25 21 16.25Z" fill="black"/>
<path d="M12 9.75C10.76 9.75 9.75 10.76 9.75 12C9.75 13.24 10.76 14.25 12 14.25C13.24 14.25 14.25 13.24 14.25 12C14.25 10.76 13.24 9.75 12 9.75ZM12 12.75C11.59 12.75 11.25 12.41 11.25 12C11.25 11.59 11.59 11.25 12 11.25C12.41 11.25 12.75 11.59 12.75 12C12.75 12.41 12.41 12.75 12 12.75Z" fill="black"/>
</svg>
