<svg width="24" height="24" viewBox="0 0 24 24" fill="none" xmlns="http://www.w3.org/2000/svg">
<path d="M20 9.22994H18.16C17.82 8.46994 17.35 7.76994 16.74 7.16994C15.44 5.88994 13.74 5.19994 11.9 5.22994C9.22999 5.26994 6.88999 6.89994 5.83999 9.22994H3.98999C3.02999 9.22994 2.23999 10.0199 2.23999 10.9799V12.9799C2.23999 13.9399 3.02999 14.7299 3.98999 14.7299H5.98999C6.04999 14.7299 6.09999 14.7099 6.15999 14.6999C6.29999 14.7299 6.43999 14.7399 6.57999 14.6999C6.96999 14.5599 7.16999 14.1299 7.03999 13.7399C6.79999 13.0599 6.69999 12.3399 6.74999 11.6099C6.93999 8.95994 9.24999 6.77994 11.91 6.73994C13.32 6.70994 14.66 7.25994 15.67 8.24994C16.68 9.23994 17.23 10.5699 17.23 11.9899C17.23 13.9199 16.17 15.6999 14.47 16.6099C14.17 16.7699 13.81 16.7999 13.48 16.6899L12.21 16.2699C11.82 16.1399 11.39 16.3499 11.26 16.7499C11.13 17.1399 11.34 17.5699 11.74 17.6999L13.01 18.1199C13.29 18.2099 13.59 18.2599 13.88 18.2599C14.33 18.2599 14.78 18.1499 15.18 17.9399C16.52 17.2199 17.54 16.0799 18.14 14.7499H19.98C20.94 14.7499 21.73 13.9599 21.73 12.9999V10.9999C21.73 10.0399 20.94 9.24994 19.98 9.24994L20 9.22994Z" fill="black"/>
</svg>
