<svg width="24" height="24" viewBox="0 0 24 24" fill="none" xmlns="http://www.w3.org/2000/svg">
<path d="M20 9.24987H18.16C17.82 8.48987 17.35 7.78987 16.74 7.18987C15.44 5.90987 13.74 5.23987 11.9 5.24987C9.22999 5.28987 6.88999 6.91987 5.83999 9.24987H3.98999C3.02999 9.24987 2.23999 10.0399 2.23999 10.9999V12.9999C2.23999 13.9599 3.02999 14.7499 3.98999 14.7499H5.98999C6.04999 14.7499 6.09999 14.7299 6.15999 14.7199C6.29999 14.7499 6.43999 14.7599 6.57999 14.7199C6.96999 14.5799 7.16999 14.1499 7.03999 13.7599C6.79999 13.0799 6.69999 12.3599 6.74999 11.6299C6.93999 8.97987 9.24999 6.79987 11.91 6.75987C13.32 6.71987 14.66 7.27987 15.67 8.26987C16.68 9.25987 17.23 10.5899 17.23 12.0099C17.23 13.9399 16.17 15.7199 14.47 16.6299C14.17 16.7899 13.81 16.8199 13.48 16.7099L12.21 16.2899C11.82 16.1599 11.39 16.3699 11.26 16.7699C11.13 17.1599 11.34 17.5899 11.74 17.7199L13.01 18.1399C13.29 18.2299 13.59 18.2799 13.88 18.2799C14.33 18.2799 14.78 18.1699 15.18 17.9599C16.52 17.2399 17.54 16.0999 18.14 14.7699H19.98C20.94 14.7699 21.73 13.9799 21.73 13.0199V11.0199C21.73 10.0599 20.94 9.26987 19.98 9.26987L20 9.24987ZM3.74999 12.9999V10.9999C3.74999 10.8599 3.85999 10.7499 3.99999 10.7499H5.36999C5.31999 10.9999 5.28999 11.2499 5.26999 11.5099C5.22999 12.0999 5.26999 12.6799 5.37999 13.2499H4.00999C3.86999 13.2499 3.75999 13.1399 3.75999 12.9999H3.74999ZM20.25 12.9999C20.25 13.1399 20.14 13.2499 20 13.2499H18.62C18.7 12.8399 18.75 12.4299 18.75 11.9999C18.75 11.5699 18.71 11.1599 18.63 10.7499H20C20.14 10.7499 20.25 10.8599 20.25 10.9999V12.9999Z" fill="black"/>
</svg>
