<svg width="24" height="24" viewBox="0 0 24 24" fill="none" xmlns="http://www.w3.org/2000/svg">
<path d="M21 11.25H20.75V9C20.75 8.3 20.34 7.71 19.75 7.43V6C19.75 5.04 18.96 4.25 18 4.25H4.5C3.26 4.25 2.25 5.26 2.25 6.5C2.25 6.61 2.27 6.72 2.28 6.83C2.27 6.89 2.25 6.94 2.25 7V19C2.25 19.96 3.04 20.75 4 20.75H19C19.96 20.75 20.75 19.96 20.75 19V16.75H21C21.41 16.75 21.75 16.41 21.75 16V12C21.75 11.59 21.41 11.25 21 11.25ZM16 15.25C15.31 15.25 14.75 14.69 14.75 14C14.75 13.31 15.31 12.75 16 12.75H20.25V15.25H16ZM4.5 5.75H18C18.14 5.75 18.25 5.86 18.25 6V7.25H4.5C4.09 7.25 3.75 6.91 3.75 6.5C3.75 6.09 4.09 5.75 4.5 5.75ZM19.25 19C19.25 19.14 19.14 19.25 19 19.25H4C3.86 19.25 3.75 19.14 3.75 19V8.61C3.99 8.69 4.24 8.75 4.5 8.75H19C19.14 8.75 19.25 8.86 19.25 9V11.25H16C14.48 11.25 13.25 12.48 13.25 14C13.25 15.52 14.48 16.75 16 16.75H19.25V19Z" fill="black"/>
<path d="M17.02 13.25C16.61 13.25 16.27 13.59 16.27 14C16.27 14.41 16.61 14.75 17.02 14.75C17.43 14.75 17.77 14.41 17.77 14C17.77 13.59 17.44 13.25 17.02 13.25Z" fill="black"/>
</svg>
