<svg width="24" height="24" viewBox="0 0 24 24" fill="none" xmlns="http://www.w3.org/2000/svg">
<path d="M6 17.23C4.99 17.23 4.05 16.93 3.25 16.43V18.98C3.25 19.94 4.04 20.73 5 20.73H19C19.96 20.73 20.75 19.94 20.75 18.98V16.43C19.95 16.93 19.01 17.23 18 17.23H6Z" fill="black"/>
<path d="M20 6.22998H16.75V4.97998C16.75 4.01998 15.96 3.22998 15 3.22998H9C8.04 3.22998 7.25 4.01998 7.25 4.97998V6.22998H4C3.04 6.22998 2.25 7.01998 2.25 7.97998V11.98C2.25 14.05 3.93 15.73 6 15.73H11.25V13.98C11.25 13.57 11.59 13.23 12 13.23C12.41 13.23 12.75 13.57 12.75 13.98V15.73H18C20.07 15.73 21.75 14.05 21.75 11.98V7.97998C21.75 7.01998 20.96 6.22998 20 6.22998ZM8.75 4.97998C8.75 4.83998 8.86 4.72998 9 4.72998H15C15.14 4.72998 15.25 4.83998 15.25 4.97998V6.22998H8.75V4.97998Z" fill="black"/>
</svg>
