<svg width="24" height="24" viewBox="0 0 24 24" fill="none" xmlns="http://www.w3.org/2000/svg">
<path d="M21.74 9.94999C21.74 9.89999 21.72 9.84999 21.71 9.79999C21.7 9.74999 21.68 9.70999 21.66 9.65999C21.66 9.63999 21.66 9.62999 21.64 9.60999L18.64 4.60999C18.64 4.60999 18.61 4.58999 18.6 4.56999C18.46 4.37999 18.25 4.23999 18 4.23999H6C5.75 4.23999 5.53 4.36999 5.4 4.56999C5.39 4.58999 5.37 4.58999 5.36 4.60999L2.36 9.60999C2.36 9.60999 2.36 9.63999 2.34 9.65999C2.32 9.69999 2.3 9.74999 2.29 9.79999C2.28 9.84999 2.26 9.89999 2.26 9.94999C2.26 9.96999 2.25 9.97999 2.25 9.99999V11C2.25 13.07 3.93 14.75 6 14.75C8.07 14.75 9.75 13.07 9.75 11V9.99999C9.75 9.99999 9.75 9.96999 9.74 9.94999C9.74 9.89999 9.72 9.84999 9.71 9.79999C9.7 9.74999 9.68 9.69999 9.66 9.65999C9.66 9.63999 9.66 9.62999 9.64 9.60999L7.32 5.74999H11.25V17.25H8.72C7.97 17.25 7.3 17.73 7.06 18.45L6.73 19.45C6.55 19.98 6.64 20.57 6.97 21.03C7.3 21.49 7.83 21.76 8.39 21.76H15.62C16.18 21.76 16.71 21.49 17.04 21.03C17.37 20.57 17.46 19.99 17.28 19.45L16.95 18.45C16.71 17.73 16.04 17.25 15.29 17.25H12.76V5.74999H16.68L14.36 9.60999C14.36 9.60999 14.36 9.63999 14.34 9.65999C14.32 9.69999 14.3 9.74999 14.29 9.79999C14.28 9.84999 14.26 9.89999 14.26 9.94999C14.26 9.96999 14.26 9.97999 14.26 9.99999V11C14.26 13.07 15.94 14.75 18.01 14.75C20.08 14.75 21.76 13.07 21.76 11V9.99999C21.76 9.99999 21.76 9.96999 21.76 9.94999H21.74ZM15.52 18.92L15.85 19.92C15.89 20.03 15.85 20.11 15.82 20.14C15.79 20.18 15.73 20.24 15.62 20.24H8.39C8.28 20.24 8.22 20.17 8.19 20.14C8.16 20.1 8.12 20.02 8.16 19.91L8.49 18.91C8.52 18.81 8.62 18.74 8.73 18.74H15.29C15.4 18.74 15.49 18.81 15.53 18.91L15.52 18.92ZM16.33 9.24999L18.01 6.45999L19.69 9.24999H16.33ZM6 6.45999L7.68 9.24999H4.33L6.01 6.45999H6ZM8.25 11C8.25 12.24 7.24 13.25 6 13.25C4.76 13.25 3.75 12.24 3.75 11V10.75H8.25V11ZM20.25 11C20.25 12.24 19.24 13.25 18 13.25C16.76 13.25 15.75 12.24 15.75 11V10.75H20.25V11Z" fill="black"/>
</svg>
