<svg width="24" height="24" viewBox="0 0 24 24" fill="none" xmlns="http://www.w3.org/2000/svg">
<path d="M21.75 8C21.75 7.04 20.96 6.25 20 6.25H16.75V5C16.75 4.04 15.96 3.25 15 3.25H9C8.04 3.25 7.25 4.04 7.25 5V6.25H4C3.04 6.25 2.25 7.04 2.25 8V12C2.25 12.99 2.64 13.88 3.27 14.55C3.27 14.58 3.25 14.62 3.25 14.65V18.99C3.25 19.95 4.04 20.74 5 20.74H19C19.96 20.74 20.75 19.95 20.75 18.99V14.65C20.75 14.65 20.73 14.58 20.73 14.55C21.36 13.88 21.75 12.98 21.75 12V8ZM8.75 5C8.75 4.86 8.86 4.75 9 4.75H15C15.14 4.75 15.25 4.86 15.25 5V6.25H8.75V5ZM3.75 8C3.75 7.86 3.86 7.75 4 7.75H20C20.14 7.75 20.25 7.86 20.25 8V12C20.25 13.24 19.24 14.25 18 14.25H12.75V14C12.75 13.59 12.41 13.25 12 13.25C11.59 13.25 11.25 13.59 11.25 14V14.25H6C4.76 14.25 3.75 13.24 3.75 12V8ZM19 19.25H5C4.86 19.25 4.75 19.14 4.75 19V15.52C5.14 15.66 5.56 15.75 6 15.75H11.25V16C11.25 16.41 11.59 16.75 12 16.75C12.41 16.75 12.75 16.41 12.75 16V15.75H18C18.44 15.75 18.86 15.66 19.25 15.52V19C19.25 19.14 19.14 19.25 19 19.25Z" fill="black"/>
</svg>
