<svg width="24" height="24" viewBox="0 0 24 24" fill="none" xmlns="http://www.w3.org/2000/svg">
<path d="M8 12.23C8.69036 12.23 9.25 11.6703 9.25 10.98C9.25 10.2896 8.69036 9.72998 8 9.72998C7.30964 9.72998 6.75 10.2896 6.75 10.98C6.75 11.6703 7.30964 12.23 8 12.23Z" fill="black"/>
<path d="M19 5.22998H5C3.48 5.22998 2.25 6.45998 2.25 7.97998V15.98C2.25 17.5 3.48 18.73 5 18.73H19C20.52 18.73 21.75 17.5 21.75 15.98V7.97998C21.75 6.45998 20.52 5.22998 19 5.22998ZM8 13.73C6.48 13.73 5.25 12.5 5.25 10.98C5.25 9.45998 6.48 8.22998 8 8.22998C9.52 8.22998 10.75 9.45998 10.75 10.98C10.75 12.5 9.52 13.73 8 13.73ZM14 15.73H13C12.59 15.73 12.25 15.39 12.25 14.98C12.25 14.57 12.59 14.23 13 14.23H14C14.41 14.23 14.75 14.57 14.75 14.98C14.75 15.39 14.41 15.73 14 15.73ZM18 15.73H17C16.59 15.73 16.25 15.39 16.25 14.98C16.25 14.57 16.59 14.23 17 14.23H18C18.41 14.23 18.75 14.57 18.75 14.98C18.75 15.39 18.41 15.73 18 15.73Z" fill="black"/>
</svg>
