<svg width="24" height="24" viewBox="0 0 24 24" fill="none" xmlns="http://www.w3.org/2000/svg">
<path d="M12.0899 11.73C14.7133 11.73 16.8399 9.60333 16.8399 6.97998C16.8399 4.35663 14.7133 2.22998 12.0899 2.22998C9.46657 2.22998 7.33993 4.35663 7.33993 6.97998C7.33993 9.60333 9.46657 11.73 12.0899 11.73Z" fill="black"/>
<path d="M19.4299 16.87C19.2099 14.65 18.0299 12.75 16.3199 11.56C15.2099 12.59 13.7199 13.23 12.0899 13.23C10.4599 13.23 8.96992 12.59 7.85993 11.56C6.14992 12.75 4.96992 14.65 4.74992 16.87L4.45992 19.8C4.40992 20.29 4.56993 20.78 4.89993 21.15C5.22993 21.52 5.69992 21.73 6.19992 21.73H17.9899C18.4799 21.73 18.9599 21.52 19.2899 21.15C19.6199 20.78 19.7799 20.29 19.7299 19.8L19.4399 16.87H19.4299Z" fill="black"/>
</svg>
