<svg width="24" height="24" viewBox="0 0 24 24" fill="none" xmlns="http://www.w3.org/2000/svg">
<path d="M20.98 4.22998H2.97998C2.56998 4.22998 2.22998 4.56998 2.22998 4.97998C2.22998 5.38998 2.56998 5.72998 2.97998 5.72998H6.22998V17.98C6.22998 19.5 7.45998 20.73 8.97998 20.73H14.98C16.5 20.73 17.73 19.5 17.73 17.98V5.72998H20.98C21.39 5.72998 21.73 5.38998 21.73 4.97998C21.73 4.56998 21.39 4.22998 20.98 4.22998ZM11.98 14.73C10.46 14.73 9.22998 13.5 9.22998 11.98C9.22998 10.46 10.46 9.22998 11.98 9.22998C13.5 9.22998 14.73 10.46 14.73 11.98C14.73 13.5 13.5 14.73 11.98 14.73Z" fill="black"/>
<path d="M11.98 13.23C12.6703 13.23 13.23 12.6703 13.23 11.98C13.23 11.2896 12.6703 10.73 11.98 10.73C11.2896 10.73 10.73 11.2896 10.73 11.98C10.73 12.6703 11.2896 13.23 11.98 13.23Z" fill="black"/>
</svg>
