<svg width="24" height="24" viewBox="0 0 24 24" fill="none" xmlns="http://www.w3.org/2000/svg">
<path d="M17.98 2.22998H5.98004C3.91004 2.22998 2.23004 3.90998 2.23004 5.97998V13.98C2.23004 15.79 3.52004 17.31 5.23004 17.65V20.98C5.23004 21.26 5.38004 21.51 5.63004 21.64C5.74004 21.7 5.86004 21.73 5.98004 21.73C6.13004 21.73 6.27004 21.69 6.40004 21.6L11.64 18.1C12.01 17.85 12.44 17.72 12.89 17.72H17.98C20.05 17.72 21.73 16.04 21.73 13.97V5.97998C21.73 3.90998 20.05 2.22998 17.98 2.22998ZM11.48 9.22998H12.48C13.72 9.22998 14.73 10.24 14.73 11.48C14.73 12.63 13.85 13.58 12.73 13.7V13.98C12.73 14.39 12.39 14.73 11.98 14.73C11.57 14.73 11.23 14.39 11.23 13.98V13.73H10.98C10.02 13.73 9.23004 12.94 9.23004 11.98C9.23004 11.57 9.57004 11.23 9.98004 11.23C10.39 11.23 10.73 11.57 10.73 11.98C10.73 12.12 10.84 12.23 10.98 12.23H12.48C12.89 12.23 13.23 11.89 13.23 11.48C13.23 11.07 12.89 10.73 12.48 10.73H11.48C10.24 10.73 9.23004 9.71998 9.23004 8.47998C9.23004 7.32998 10.11 6.37998 11.23 6.25998V5.97998C11.23 5.56998 11.57 5.22998 11.98 5.22998C12.39 5.22998 12.73 5.56998 12.73 5.97998V6.22998H12.98C13.94 6.22998 14.73 7.01998 14.73 7.97998C14.73 8.38998 14.39 8.72998 13.98 8.72998C13.57 8.72998 13.23 8.38998 13.23 7.97998C13.23 7.83998 13.12 7.72998 12.98 7.72998H11.48C11.07 7.72998 10.73 8.06998 10.73 8.47998C10.73 8.88998 11.07 9.22998 11.48 9.22998Z" fill="black"/>
</svg>
