<svg width="24" height="24" viewBox="0 0 24 24" fill="none" xmlns="http://www.w3.org/2000/svg">
<path d="M21.13 18.33L19.93 15.33C19.66 14.66 19.03 14.23 18.31 14.23H13.99C13.68 14.23 13.41 14.42 13.29 14.7L11.99 17.96L10.69 14.7C10.58 14.41 10.3 14.23 9.99004 14.23H5.66004C4.94004 14.23 4.30004 14.66 4.03004 15.33L2.83004 18.33C2.61004 18.87 2.68004 19.48 3.01004 19.96C3.34004 20.44 3.88004 20.73 4.46004 20.73H19.51C20.09 20.73 20.63 20.44 20.96 19.96C21.29 19.48 21.35 18.87 21.14 18.33H21.13Z" fill="black"/>
<path d="M15.98 6.72998H17.23V7.97998C17.23 8.38998 17.57 8.72998 17.98 8.72998C18.39 8.72998 18.73 8.38998 18.73 7.97998V6.72998H19.98C20.39 6.72998 20.73 6.38998 20.73 5.97998C20.73 5.56998 20.39 5.22998 19.98 5.22998H18.73V3.97998C18.73 3.56998 18.39 3.22998 17.98 3.22998C17.57 3.22998 17.23 3.56998 17.23 3.97998V5.22998H15.98C15.57 5.22998 15.23 5.56998 15.23 5.97998C15.23 6.38998 15.57 6.72998 15.98 6.72998Z" fill="black"/>
<path d="M4.23004 8.72998V9.97998C4.23004 10.39 4.57004 10.73 4.98004 10.73C5.39004 10.73 5.73004 10.39 5.73004 9.97998V8.72998H6.98004C7.39004 8.72998 7.73004 8.38998 7.73004 7.97998C7.73004 7.56998 7.39004 7.22998 6.98004 7.22998H5.73004V5.97998C5.73004 5.56998 5.39004 5.22998 4.98004 5.22998C4.57004 5.22998 4.23004 5.56998 4.23004 5.97998V7.22998H2.98004C2.57004 7.22998 2.23004 7.56998 2.23004 7.97998C2.23004 8.38998 2.57004 8.72998 2.98004 8.72998H4.23004Z" fill="black"/>
<path d="M9.98004 12.73C10.85 12.73 11.6 13.23 11.98 13.99C12.36 13.22 13.12 12.73 13.98 12.73H16.89L15.93 10.33C15.66 9.65998 15.03 9.22998 14.31 9.22998H9.66004C8.94004 9.22998 8.30004 9.65998 8.03004 10.33L7.07004 12.73H9.98004Z" fill="black"/>
</svg>
