<svg width="24" height="24" viewBox="0 0 24 24" fill="none" xmlns="http://www.w3.org/2000/svg">
<path d="M13.25 13.23H10.75V21.73H13.25V13.23Z" fill="black"/>
<path d="M4.24998 18.99C4.24998 20.51 5.47998 21.74 6.99998 21.74H9.24998V13.23H4.99998C4.73998 13.23 4.48998 13.19 4.24998 13.13V18.99Z" fill="black"/>
<path d="M14.75 13.23V21.73H17C18.52 21.73 19.75 20.5 19.75 18.98V13.13C19.51 13.19 19.26 13.23 19 13.23H14.75Z" fill="black"/>
<path d="M19 7.23005H15.81L16.58 6.46005C17.18 5.86005 17.4 5.02005 17.17 4.21005C16.94 3.40005 16.32 2.79005 15.5 2.58005C14.38 2.30005 13.22 2.90005 12.79 3.96005L11.99 5.95005L11.19 3.96005C10.76 2.89005 9.59998 2.30005 8.47998 2.58005C7.65998 2.79005 7.03998 3.39005 6.80998 4.21005C6.57998 5.03005 6.80998 5.87005 7.39998 6.46005L8.16998 7.23005H4.97998C4.01998 7.23005 3.22998 8.02005 3.22998 8.98005V9.98005C3.22998 10.94 4.01998 11.73 4.97998 11.73H9.22998V7.23005H10.29L8.45998 5.40005C8.15998 5.10005 8.20998 4.75005 8.24998 4.61005C8.28998 4.47005 8.41998 4.14005 8.83998 4.04005C9.23998 3.94005 9.63998 4.15005 9.78998 4.53005L10.87 7.24005H10.73V11.74H13.23V7.23005H13.09L14.17 4.52005C14.32 4.14005 14.73 3.93005 15.12 4.03005C15.53 4.13005 15.67 4.46005 15.71 4.60005C15.75 4.74005 15.8 5.09005 15.5 5.39005L13.67 7.22005H14.73V11.72H18.98C19.94 11.72 20.73 10.93 20.73 9.97005V8.97005C20.73 8.01005 19.94 7.22005 18.98 7.22005L19 7.23005Z" fill="black"/>
</svg>
