<svg width="24" height="24" viewBox="0 0 24 24" fill="none" xmlns="http://www.w3.org/2000/svg">
<path d="M20.6 12.43C20.8 12.16 20.8 11.8 20.6 11.53C17.53 7.43998 12.9 7.22998 12 7.22998C6.88 7.22998 3.94 10.81 3.4 11.53C3.2 11.8 3.2 12.16 3.4 12.43C6.47 16.52 11.1 16.73 12 16.73C17.12 16.73 20.06 13.15 20.6 12.43ZM12 14.23C10.76 14.23 9.75 13.22 9.75 11.98C9.75 10.74 10.76 9.72998 12 9.72998C13.24 9.72998 14.25 10.74 14.25 11.98C14.25 13.22 13.24 14.23 12 14.23Z" fill="black"/>
<path d="M3 7.72998C3.41 7.72998 3.75 7.38998 3.75 6.97998V3.97998C3.75 3.83998 3.86 3.72998 4 3.72998H7C7.41 3.72998 7.75 3.38998 7.75 2.97998C7.75 2.56998 7.41 2.22998 7 2.22998H4C3.04 2.22998 2.25 3.01998 2.25 3.97998V6.97998C2.25 7.38998 2.59 7.72998 3 7.72998Z" fill="black"/>
<path d="M20 2.22998H17C16.59 2.22998 16.25 2.56998 16.25 2.97998C16.25 3.38998 16.59 3.72998 17 3.72998H20C20.14 3.72998 20.25 3.83998 20.25 3.97998V6.97998C20.25 7.38998 20.59 7.72998 21 7.72998C21.41 7.72998 21.75 7.38998 21.75 6.97998V3.97998C21.75 3.01998 20.96 2.22998 20 2.22998Z" fill="black"/>
<path d="M7 20.23H4C3.86 20.23 3.75 20.12 3.75 19.98V16.98C3.75 16.57 3.41 16.23 3 16.23C2.59 16.23 2.25 16.57 2.25 16.98V19.98C2.25 20.94 3.04 21.73 4 21.73H7C7.41 21.73 7.75 21.39 7.75 20.98C7.75 20.57 7.41 20.23 7 20.23Z" fill="black"/>
<path d="M21 16.23C20.59 16.23 20.25 16.57 20.25 16.98V19.98C20.25 20.12 20.14 20.23 20 20.23H17C16.59 20.23 16.25 20.57 16.25 20.98C16.25 21.39 16.59 21.73 17 21.73H20C20.96 21.73 21.75 20.94 21.75 19.98V16.98C21.75 16.57 21.41 16.23 21 16.23Z" fill="black"/>
</svg>
