<svg width="24" height="24" viewBox="0 0 24 24" fill="none" xmlns="http://www.w3.org/2000/svg">
<path d="M17.81 3.12017C17.24 2.82017 16.56 2.86017 16.02 3.22017L15.13 3.83017C15.05 3.88017 14.95 3.89017 14.87 3.83017L12.98 2.54017C12.39 2.13017 11.62 2.13017 11.03 2.54017L9.14001 3.83017C9.06001 3.88017 8.96001 3.88017 8.88001 3.83017L7.99001 3.22017C7.46001 2.86017 6.77001 2.82017 6.20001 3.12017C5.62001 3.43017 5.26001 4.03017 5.26001 4.69017V19.2802C5.26001 19.9402 5.62001 20.5502 6.20001 20.8502C6.77001 21.1502 7.45001 21.1102 7.99001 20.7502L8.88001 20.1402C8.96001 20.0902 9.06001 20.0802 9.14001 20.1402L11.03 21.4302C11.33 21.6302 11.67 21.7302 12.01 21.7302C12.35 21.7302 12.69 21.6302 12.99 21.4302L14.88 20.1402C14.96 20.0902 15.06 20.0902 15.14 20.1402L16.03 20.7502C16.56 21.1102 17.25 21.1502 17.82 20.8502C18.4 20.5402 18.76 19.9402 18.76 19.2802V4.69017C18.76 4.03017 18.4 3.42017 17.82 3.12017H17.81ZM12 15.7402H9.00001C8.59001 15.7402 8.25001 15.4002 8.25001 14.9902C8.25001 14.5802 8.59001 14.2402 9.00001 14.2402H12C12.41 14.2402 12.75 14.5802 12.75 14.9902C12.75 15.4002 12.41 15.7402 12 15.7402ZM14 12.7402H9.00001C8.59001 12.7402 8.25001 12.4002 8.25001 11.9902C8.25001 11.5802 8.59001 11.2402 9.00001 11.2402H14C14.41 11.2402 14.75 11.5802 14.75 11.9902C14.75 12.4002 14.41 12.7402 14 12.7402ZM15 9.74017H9.00001C8.59001 9.74017 8.25001 9.40017 8.25001 8.99017C8.25001 8.58017 8.59001 8.24017 9.00001 8.24017H15C15.41 8.24017 15.75 8.58017 15.75 8.99017C15.75 9.40017 15.41 9.74017 15 9.74017Z" fill="black"/>
</svg>
