<svg width="24" height="24" viewBox="0 0 24 24" fill="none" xmlns="http://www.w3.org/2000/svg">
<path d="M21.0599 8.87L17.8899 4.91C17.5599 4.49 17.0599 4.25 16.5199 4.25H7.47991C6.93991 4.25 6.44991 4.49 6.10991 4.91L2.93991 8.87C2.39991 9.54 2.42991 10.49 3.00991 11.13L11.4399 20.5C11.5799 20.66 11.7799 20.75 11.9999 20.75C12.2199 20.75 12.4199 20.66 12.5599 20.5L20.9899 11.13C21.5599 10.49 21.5899 9.54 21.0599 8.87ZM8.42991 10.75L10.0599 16.72L4.68991 10.75H8.42991ZM12.0399 5.75L13.7899 9.25H10.2199L11.9699 5.75H12.0399ZM14.0199 10.75L11.9999 18.15L9.97991 10.75H14.0199ZM15.5699 10.75H19.3099L13.9399 16.72L15.5699 10.75ZM16.7099 5.84L19.4399 9.25H15.4599L13.7099 5.75H16.5199C16.5999 5.75 16.6699 5.78 16.7099 5.84ZM7.27991 5.84C7.32991 5.78 7.39991 5.75 7.46991 5.75H10.2799L8.52991 9.25H4.54991L7.27991 5.84Z" fill="black"/>
</svg>
