<svg width="24" height="24" viewBox="0 0 24 24" fill="none" xmlns="http://www.w3.org/2000/svg">
<path d="M21.1201 16.98C20.7701 15.92 19.7201 15.29 18.6201 15.47L15.4101 16C14.5001 16.15 13.5801 16.12 12.6901 15.89L11.4701 15.58C11.0501 15.48 10.7601 15.1 10.7601 14.67C10.7601 14.15 11.1801 13.74 11.6901 13.74H12.5101C13.7501 13.74 14.7601 12.73 14.7601 11.49C14.7601 10.25 13.7501 9.24 12.5101 9.24H9.44008C8.39008 9.24 7.37008 9.44 6.40008 9.83L2.73008 11.3C2.35008 11.45 2.16008 11.89 2.31008 12.27C2.46008 12.65 2.90008 12.84 3.28008 12.69L6.95008 11.22C7.74008 10.9 8.58008 10.74 9.43008 10.74H12.5001C12.9101 10.74 13.2501 11.08 13.2501 11.49C13.2501 11.9 12.9101 12.24 12.5001 12.24H11.6801C10.3401 12.24 9.25008 13.33 9.25008 14.67C9.25008 15.79 10.0101 16.76 11.0901 17.03L12.3101 17.34C13.4101 17.61 14.5301 17.66 15.6401 17.47L18.8501 16.94C19.2301 16.88 19.5701 17.09 19.6901 17.44L19.7501 17.61C19.8201 17.82 19.8001 18.04 19.6901 18.22C19.5801 18.4 19.4001 18.54 19.1901 18.58L12.5001 19.92C11.5401 20.11 10.5201 20.09 9.57008 19.85L3.19008 18.26C2.79008 18.16 2.38008 18.4 2.28008 18.81C2.18008 19.22 2.42008 19.62 2.83008 19.72L9.21008 21.31C9.86008 21.47 10.5301 21.55 11.2001 21.55C11.7401 21.55 12.2801 21.5 12.8001 21.39L19.4901 20.05C20.1201 19.92 20.6701 19.53 20.9901 18.97C21.3101 18.41 21.3801 17.74 21.1801 17.13L21.1201 16.96V16.98Z" fill="black"/>
<path d="M7.35008 7.68C7.73008 7.86 8.17008 7.7 8.35008 7.32C9.38008 5.15 11.6001 3.75 14.0001 3.75C17.4501 3.75 20.2501 6.55 20.2501 10C20.2501 10.94 20.0501 11.84 19.6501 12.68C19.4701 13.05 19.6301 13.5 20.0001 13.68C20.1001 13.73 20.2101 13.75 20.3201 13.75C20.6001 13.75 20.8701 13.59 21.0001 13.32C21.5001 12.28 21.7501 11.16 21.7501 10C21.7501 5.73 18.2701 2.25 14.0001 2.25C11.0201 2.25 8.27008 3.99 7.00008 6.68C6.82008 7.05 6.98008 7.5 7.36008 7.68H7.35008Z" fill="black"/>
</svg>
