<svg width="24" height="24" viewBox="0 0 24 24" fill="none" xmlns="http://www.w3.org/2000/svg">
<path d="M20.98 18.23H16.98C16.84 18.23 16.73 18.12 16.73 17.98V15.73H17.48C19.82 15.73 21.73 13.82 21.73 11.48C21.73 9.13998 19.82 7.22998 17.48 7.22998C17.47 7.22998 17.45 7.22998 17.44 7.22998C16.69 4.87998 14.49 3.22998 11.98 3.22998C9.05998 3.22998 6.63998 5.42998 6.27998 8.25998C6.17998 8.25998 6.07998 8.22998 5.97998 8.22998C3.90998 8.22998 2.22998 9.90998 2.22998 11.98C2.22998 14.05 3.90998 15.73 5.97998 15.73H7.22998V17.98C7.22998 18.12 7.11998 18.23 6.97998 18.23H2.97998C2.56998 18.23 2.22998 18.57 2.22998 18.98C2.22998 19.39 2.56998 19.73 2.97998 19.73H6.97998C7.93998 19.73 8.72998 18.94 8.72998 17.98V15.73H11.23V18.98C11.23 19.39 11.57 19.73 11.98 19.73C12.39 19.73 12.73 19.39 12.73 18.98V15.73H15.23V17.98C15.23 18.94 16.02 19.73 16.98 19.73H20.98C21.39 19.73 21.73 19.39 21.73 18.98C21.73 18.57 21.39 18.23 20.98 18.23Z" fill="black"/>
</svg>
