<svg width="24" height="24" viewBox="0 0 24 24" fill="none" xmlns="http://www.w3.org/2000/svg">
<path d="M16 16.25C15.59 16.25 15.25 16.59 15.25 17V19C15.25 19.69 14.69 20.25 14 20.25H6C5.31 20.25 4.75 19.69 4.75 19V5C4.75 4.31 5.31 3.75 6 3.75H14C14.69 3.75 15.25 4.31 15.25 5V7C15.25 7.41 15.59 7.75 16 7.75C16.41 7.75 16.75 7.41 16.75 7V5C16.75 3.48 15.52 2.25 14 2.25H6C4.48 2.25 3.25 3.48 3.25 5V19C3.25 20.52 4.48 21.75 6 21.75H14C15.52 21.75 16.75 20.52 16.75 19V17C16.75 16.59 16.41 16.25 16 16.25Z" fill="black"/>
<path d="M14.53 9.53C14.82 9.24 14.82 8.76 14.53 8.47C14.24 8.18 13.76 8.18 13.47 8.47L11.47 10.47C11.26 10.68 11.19 11.01 11.31 11.29C11.43 11.57 11.7 11.75 12 11.75H20C20.41 11.75 20.75 11.41 20.75 11C20.75 10.59 20.41 10.25 20 10.25H13.81L14.53 9.53Z" fill="black"/>
<path d="M20 13.25H12C11.59 13.25 11.25 13.59 11.25 14C11.25 14.41 11.59 14.75 12 14.75H18.19L17.47 15.47C17.18 15.76 17.18 16.24 17.47 16.53C17.62 16.68 17.81 16.75 18 16.75C18.19 16.75 18.38 16.68 18.53 16.53L20.53 14.53C20.74 14.32 20.81 13.99 20.69 13.71C20.57 13.43 20.3 13.25 20 13.25Z" fill="black"/>
<path d="M8.25 18C8.25 18.41 8.59 18.75 9 18.75H11C11.41 18.75 11.75 18.41 11.75 18C11.75 17.59 11.41 17.25 11 17.25H9C8.59 17.25 8.25 17.59 8.25 18Z" fill="black"/>
</svg>
