<svg width="24" height="24" viewBox="0 0 24 24" fill="none" xmlns="http://www.w3.org/2000/svg">
<path d="M19.98 17.23H3.97998C3.01348 17.23 2.22998 18.0135 2.22998 18.98V19.98C2.22998 20.9465 3.01348 21.73 3.97998 21.73H19.98C20.9465 21.73 21.73 20.9465 21.73 19.98V18.98C21.73 18.0135 20.9465 17.23 19.98 17.23Z" fill="black"/>
<path d="M20.54 6.04003L12.54 3.37003C12.18 3.25003 11.79 3.25003 11.43 3.37003L3.42998 6.04003C2.70998 6.28003 2.22998 6.95003 2.22998 7.70003V8.98003C2.22998 9.94003 3.01998 10.73 3.97998 10.73H4.22998V15.73H8.72998V10.73H15.23V15.73H19.73V10.73H19.98C20.94 10.73 21.73 9.94003 21.73 8.98003V7.70003C21.73 6.95003 21.25 6.28003 20.53 6.04003H20.54Z" fill="black"/>
</svg>
