<svg width="24" height="24" viewBox="0 0 24 24" fill="none" xmlns="http://www.w3.org/2000/svg">
<path d="M21.15 18.35L19.95 15.35C19.68 14.68 19.05 14.25 18.33 14.25H17.51L15.95 10.35C15.68 9.68 15.05 9.25 14.33 9.25H9.68C8.96 9.25 8.32 9.68 8.05 10.35L6.49 14.25H5.67C4.95 14.25 4.31 14.68 4.04 15.35L2.84 18.35C2.62 18.89 2.69 19.5 3.02 19.98C3.35 20.46 3.89 20.75 4.47 20.75H19.52C20.1 20.75 20.64 20.46 20.97 19.98C21.3 19.5 21.36 18.89 21.15 18.35ZM9.45 10.91C9.49 10.81 9.58 10.75 9.68 10.75H14.33C14.43 10.75 14.52 10.81 14.56 10.91L15.9 14.25H8.12L9.46 10.91H9.45ZM12.01 17.98L11.12 15.75H12.9L12.01 17.98ZM4.49 19.25C4.37 19.25 4.31 19.18 4.28 19.14C4.25 19.1 4.21 19.01 4.25 18.91L5.45 15.91C5.49 15.81 5.58 15.75 5.68 15.75H9.49L10.89 19.25H4.48H4.49ZM19.74 19.14C19.74 19.14 19.65 19.25 19.53 19.25H13.11L14.51 15.75H18.33C18.43 15.75 18.52 15.81 18.56 15.91L19.76 18.91C19.8 19.02 19.76 19.1 19.73 19.14H19.74Z" fill="black"/>
<path d="M16 6.75H17.25V8C17.25 8.41 17.59 8.75 18 8.75C18.41 8.75 18.75 8.41 18.75 8V6.75H20C20.41 6.75 20.75 6.41 20.75 6C20.75 5.59 20.41 5.25 20 5.25H18.75V4C18.75 3.59 18.41 3.25 18 3.25C17.59 3.25 17.25 3.59 17.25 4V5.25H16C15.59 5.25 15.25 5.59 15.25 6C15.25 6.41 15.59 6.75 16 6.75Z" fill="black"/>
<path d="M4.25 8.75V10C4.25 10.41 4.59 10.75 5 10.75C5.41 10.75 5.75 10.41 5.75 10V8.75H7C7.41 8.75 7.75 8.41 7.75 8C7.75 7.59 7.41 7.25 7 7.25H5.75V6C5.75 5.59 5.41 5.25 5 5.25C4.59 5.25 4.25 5.59 4.25 6V7.25H3C2.59 7.25 2.25 7.59 2.25 8C2.25 8.41 2.59 8.75 3 8.75H4.25Z" fill="black"/>
</svg>
