<svg width="24" height="24" viewBox="0 0 24 24" fill="none" xmlns="http://www.w3.org/2000/svg">
<path d="M12 2.25C9.21 2.25 6.58 3.48 4.75 5.51V4C4.75 3.59 4.41 3.25 4 3.25C3.59 3.25 3.25 3.59 3.25 4V8C3.25 8.41 3.59 8.75 4 8.75H7C7.41 8.75 7.75 8.41 7.75 8C7.75 7.59 7.41 7.25 7 7.25H5.28C6.82 5.08 9.33 3.75 12 3.75C16.55 3.75 20.25 7.45 20.25 12C20.25 16.55 16.55 20.25 12 20.25C7.45 20.25 3.75 16.55 3.75 12C3.75 11.59 3.41 11.25 3 11.25C2.59 11.25 2.25 11.59 2.25 12C2.25 17.38 6.62 21.75 12 21.75C17.38 21.75 21.75 17.38 21.75 12C21.75 6.62 17.38 2.25 12 2.25Z" fill="black"/>
<path d="M12 7.25C11.59 7.25 11.25 7.59 11.25 8V12C11.25 12.25 11.38 12.48 11.58 12.62L14.58 14.62C14.71 14.71 14.85 14.75 15 14.75C15.24 14.75 15.48 14.63 15.63 14.42C15.86 14.08 15.77 13.61 15.42 13.38L12.75 11.6V8C12.75 7.59 12.41 7.25 12 7.25Z" fill="black"/>
</svg>
