<svg width="24" height="24" viewBox="0 0 24 24" fill="none" xmlns="http://www.w3.org/2000/svg">
<path d="M20.73 6.97998C20.73 4.90998 19.05 3.22998 16.98 3.22998H6.98004C4.91004 3.22998 3.23004 4.90998 3.23004 6.97998V16.23H20.73V6.97998ZM16.51 12.51L14.51 14.51C14.36 14.66 14.17 14.73 13.98 14.73C13.79 14.73 13.6 14.66 13.45 14.51C13.16 14.22 13.16 13.74 13.45 13.45L14.17 12.73H7.98004C7.57004 12.73 7.23004 12.39 7.23004 11.98C7.23004 11.57 7.57004 11.23 7.98004 11.23H15.98C16.28 11.23 16.56 11.41 16.67 11.69C16.79 11.97 16.72 12.29 16.51 12.51ZM15.98 9.72998H7.98004C7.68004 9.72998 7.40004 9.54998 7.29004 9.26998C7.17004 8.98998 7.24004 8.66998 7.45004 8.44998L9.45004 6.44998C9.74004 6.15998 10.22 6.15998 10.51 6.44998C10.8 6.73998 10.8 7.21998 10.51 7.50998L9.79004 8.22998H15.98C16.39 8.22998 16.73 8.56998 16.73 8.97998C16.73 9.38998 16.39 9.72998 15.98 9.72998Z" fill="black"/>
<path d="M2.23004 17.73V17.98C2.23004 19.5 3.46004 20.73 4.98004 20.73H18.98C20.5 20.73 21.73 19.5 21.73 17.98V17.73H2.23004Z" fill="black"/>
</svg>
