<svg width="24" height="24" viewBox="0 0 24 24" fill="none" xmlns="http://www.w3.org/2000/svg">
<path d="M21.72 9.92973C21.72 9.87973 21.7 9.82973 21.69 9.77973C21.68 9.72973 21.66 9.68973 21.64 9.63973C21.64 9.61973 21.64 9.60973 21.62 9.58973L18.62 4.58973C18.62 4.58973 18.59 4.56973 18.58 4.54973C18.44 4.35973 18.23 4.21973 17.98 4.21973H5.97998C5.72998 4.21973 5.50998 4.34973 5.37998 4.54973C5.36998 4.56973 5.34998 4.56973 5.33998 4.58973L2.33998 9.58973C2.33998 9.58973 2.33998 9.61973 2.31998 9.63973C2.29998 9.67973 2.27998 9.72973 2.26998 9.77973C2.25998 9.82973 2.23998 9.87973 2.23998 9.92973C2.23998 9.94973 2.22998 9.95973 2.22998 9.97973V10.9797C2.22998 13.0497 3.90998 14.7297 5.97998 14.7297C8.04998 14.7297 9.72998 13.0497 9.72998 10.9797V9.97973C9.72998 9.97973 9.72998 9.94973 9.71998 9.92973C9.71998 9.87973 9.69998 9.82973 9.68998 9.77973C9.67998 9.72973 9.65998 9.67973 9.63998 9.63973C9.63998 9.61973 9.63998 9.60973 9.61998 9.58973L7.29998 5.72973H11.23V17.2297H8.69998C7.94998 17.2297 7.27998 17.7097 7.03998 18.4297L6.70998 19.4297C6.52998 19.9597 6.61998 20.5497 6.94998 21.0097C7.27998 21.4697 7.80998 21.7397 8.36998 21.7397H15.6C16.16 21.7397 16.69 21.4697 17.02 21.0097C17.35 20.5497 17.44 19.9697 17.26 19.4297L16.93 18.4297C16.69 17.7097 16.02 17.2297 15.27 17.2297H12.74V5.72973H16.66L14.34 9.58973C14.34 9.58973 14.34 9.61973 14.32 9.63973C14.3 9.67973 14.28 9.72973 14.27 9.77973C14.26 9.82973 14.24 9.87973 14.24 9.92973C14.24 9.94973 14.24 9.95973 14.24 9.97973V10.9797C14.24 13.0497 15.92 14.7297 17.99 14.7297C20.06 14.7297 21.74 13.0497 21.74 10.9797V9.97973C21.74 9.97973 21.74 9.94973 21.74 9.92973H21.72ZM4.29998 9.22973L5.97998 6.43973L7.65998 9.22973H4.29998ZM16.3 9.22973L17.98 6.43973L19.66 9.22973H16.3Z" fill="black"/>
</svg>
