<svg width="24" height="24" viewBox="0 0 24 24" fill="none" xmlns="http://www.w3.org/2000/svg">
<path d="M20 8.24998H18C17.04 8.24998 16.25 9.03998 16.25 9.99998V20C16.25 20.96 17.04 21.75 18 21.75H20C20.96 21.75 21.75 20.96 21.75 20V9.99998C21.75 9.03998 20.96 8.24998 20 8.24998ZM20.25 20C20.25 20.14 20.14 20.25 20 20.25H18C17.86 20.25 17.75 20.14 17.75 20V9.99998C17.75 9.85998 17.86 9.74998 18 9.74998H20C20.14 9.74998 20.25 9.85998 20.25 9.99998V20Z" fill="black"/>
<path d="M13 12.25H11C10.04 12.25 9.25 13.04 9.25 14V20C9.25 20.96 10.04 21.75 11 21.75H13C13.96 21.75 14.75 20.96 14.75 20V14C14.75 13.04 13.96 12.25 13 12.25ZM13.25 20C13.25 20.14 13.14 20.25 13 20.25H11C10.86 20.25 10.75 20.14 10.75 20V14C10.75 13.86 10.86 13.75 11 13.75H13C13.14 13.75 13.25 13.86 13.25 14V20Z" fill="black"/>
<path d="M6 16.25H4C3.04 16.25 2.25 17.04 2.25 18V20C2.25 20.96 3.04 21.75 4 21.75H6C6.96 21.75 7.75 20.96 7.75 20V18C7.75 17.04 6.96 16.25 6 16.25ZM6.25 20C6.25 20.14 6.14 20.25 6 20.25H4C3.86 20.25 3.75 20.14 3.75 20V18C3.75 17.86 3.86 17.75 4 17.75H6C6.14 17.75 6.25 17.86 6.25 18V20Z" fill="black"/>
<path d="M9.45 10.34C9.79 10.34 10.1 10.11 10.18 9.75998L10.83 7.00998C10.83 7.00998 10.83 6.98998 10.83 6.97998C10.85 6.88998 10.85 6.80998 10.83 6.71998C10.8 6.51998 10.69 6.34998 10.53 6.22998C10.46 6.17998 10.38 6.14998 10.3 6.11998C10.29 6.11998 10.28 6.10998 10.27 6.09998L7.52 5.44998C7.12 5.35998 6.71 5.60998 6.62 6.00998C6.53 6.40998 6.78 6.81998 7.18 6.90998L8.17 7.13998L4.61 9.34998C4.26 9.56998 4.15 10.03 4.37 10.38C4.51 10.61 4.76 10.73 5.01 10.73C5.15 10.73 5.28 10.69 5.41 10.62L8.97 8.40998L8.74 9.39998C8.65 9.79997 8.9 10.21 9.3 10.3C9.36 10.31 9.41 10.32 9.47 10.32L9.45 10.34Z" fill="black"/>
</svg>
