<svg width="24" height="24" viewBox="0 0 24 24" fill="none" xmlns="http://www.w3.org/2000/svg">
<path d="M21 18.25H17C16.86 18.25 16.75 18.14 16.75 18V15.75H17.5C19.84 15.75 21.75 13.84 21.75 11.5C21.75 9.16 19.84 7.25 17.5 7.25C17.49 7.25 17.47 7.25 17.46 7.25C16.71 4.9 14.51 3.25 12 3.25C9.08 3.25 6.66 5.45 6.3 8.28C6.2 8.28 6.1 8.25 6 8.25C3.93 8.25 2.25 9.93 2.25 12C2.25 14.07 3.93 15.75 6 15.75H7.25V18C7.25 18.14 7.14 18.25 7 18.25H3C2.59 18.25 2.25 18.59 2.25 19C2.25 19.41 2.59 19.75 3 19.75H7C7.96 19.75 8.75 18.96 8.75 18V15.75H11.25V19C11.25 19.41 11.59 19.75 12 19.75C12.41 19.75 12.75 19.41 12.75 19V15.75H15.25V18C15.25 18.96 16.04 19.75 17 19.75H21C21.41 19.75 21.75 19.41 21.75 19C21.75 18.59 21.41 18.25 21 18.25ZM3.75 12C3.75 10.76 4.76 9.75 6 9.75C6.26 9.75 6.51 9.79 6.75 9.88C7.14 10.02 7.57 9.81 7.71 9.42C7.75 9.3 7.75 9.19 7.74 9.07C7.74 9.04 7.75 9.02 7.75 9C7.75 6.66 9.66 4.75 12 4.75C14.01 4.75 15.76 6.18 16.17 8.15C16.23 8.45 16.47 8.68 16.75 8.73C16.86 8.77 16.98 8.79 17.11 8.77C17.24 8.75 17.37 8.74 17.5 8.74C19.02 8.74 20.25 9.97 20.25 11.49C20.25 13.01 19.02 14.24 17.5 14.24H6C4.76 14.24 3.75 13.23 3.75 11.99V12Z" fill="black"/>
</svg>
