<svg width="24" height="24" viewBox="0 0 24 24" fill="none" xmlns="http://www.w3.org/2000/svg">
<path d="M12 8.25H4C3.04 8.25 2.25 9.04 2.25 10V14C2.25 14.96 3.04 15.75 4 15.75H11C11.41 15.75 11.75 15.41 11.75 15C11.75 14.59 11.41 14.25 11 14.25H4C3.86 14.25 3.75 14.14 3.75 14V10C3.75 9.86 3.86 9.75 4 9.75H12C12.41 9.75 12.75 9.41 12.75 9C12.75 8.59 12.41 8.25 12 8.25Z" fill="black"/>
<path d="M20.75 11.43V10.5C20.75 8.71 19.29 7.25 17.5 7.25C15.71 7.25 14.25 8.71 14.25 10.5V11.43C13.66 11.71 13.25 12.31 13.25 13V16C13.25 16.96 14.04 17.75 15 17.75H20C20.96 17.75 21.75 16.96 21.75 16V13C21.75 12.3 21.34 11.71 20.75 11.43ZM15.75 10.5C15.75 9.54 16.54 8.75 17.5 8.75C18.46 8.75 19.25 9.54 19.25 10.5V11.25H15.75V10.5ZM20.25 16C20.25 16.14 20.14 16.25 20 16.25H15C14.86 16.25 14.75 16.14 14.75 16V13C14.75 12.86 14.86 12.75 15 12.75H20C20.14 12.75 20.25 12.86 20.25 13V16Z" fill="black"/>
</svg>
