<svg width="24" height="24" viewBox="0 0 24 24" fill="none" xmlns="http://www.w3.org/2000/svg">
<path d="M16.99 13.23C16.58 13.23 16.24 13.57 16.24 13.98C16.24 14.39 16.58 14.73 16.99 14.73C17.4 14.73 17.74 14.39 17.74 13.98C17.74 13.57 17.41 13.23 16.99 13.23Z" fill="black"/>
<path d="M20.73 8.97998C20.73 8.48998 20.53 8.04998 20.2 7.72998H4.98004C4.57004 7.72998 4.23004 7.38998 4.23004 6.97998C4.23004 6.88998 4.25004 6.80998 4.28004 6.72998C4.29004 6.69998 4.30004 6.66998 4.32004 6.63998C4.34004 6.59998 4.36004 6.56998 4.39004 6.53998C4.45004 6.45998 4.53004 6.38998 4.62004 6.33998C4.73004 6.27998 4.85004 6.22998 4.98004 6.22998H19.73V5.97998C19.73 5.01998 18.94 4.22998 17.98 4.22998H4.48004C3.24004 4.22998 2.23004 5.23998 2.23004 6.47998C2.23004 6.58998 2.25004 6.69998 2.26004 6.80998C2.26004 6.80998 2.23004 6.88998 2.23004 6.92998V6.94998C2.23004 6.94998 2.23004 6.96998 2.23004 6.97998V18.98C2.23004 19.94 3.02004 20.73 3.98004 20.73H18.98C19.94 20.73 20.73 19.94 20.73 18.98V16.73H15.98C14.46 16.73 13.23 15.5 13.23 13.98C13.23 12.46 14.46 11.23 15.98 11.23H20.73V8.97998Z" fill="black"/>
</svg>
