<svg width="24" height="24" viewBox="0 0 24 24" fill="none" xmlns="http://www.w3.org/2000/svg">
<path d="M21.6399 12.4C21.7899 12.16 21.7899 11.85 21.6399 11.61C21.4999 11.39 18.2399 6.25995 11.9999 6.25995C10.6399 6.25995 9.31993 6.51995 8.05993 7.00995L4.52993 3.47995C4.23993 3.18995 3.75993 3.18995 3.46993 3.47995C3.17993 3.76995 3.17993 4.24995 3.46993 4.53995L19.4699 20.53C19.6199 20.68 19.8099 20.75 19.9999 20.75C20.1899 20.75 20.3799 20.68 20.5299 20.53C20.8199 20.24 20.8199 19.76 20.5299 19.4699L17.3799 16.32C20.0499 14.82 21.4699 12.66 21.6299 12.39L21.6399 12.4ZM14.0299 12.97L11.0399 9.97995C11.3399 9.83995 11.6599 9.74995 11.9999 9.74995C13.2399 9.74995 14.2499 10.76 14.2499 12C14.2499 12.34 14.1699 12.67 14.0199 12.96L14.0299 12.97ZM16.2799 15.22L15.1299 14.07C15.5299 13.46 15.7499 12.75 15.7499 12C15.7499 9.92995 14.0699 8.24995 11.9999 8.24995C11.2499 8.24995 10.5399 8.46995 9.92993 8.86995L9.22993 8.16995C10.1199 7.88995 11.0499 7.74995 11.9999 7.74995C16.5199 7.74995 19.2499 10.87 20.0899 12C19.5599 12.71 18.2799 14.2 16.2799 15.22Z" fill="black"/>
<path d="M13.8499 16.07C13.2499 16.19 12.6199 16.25 11.9999 16.25C7.46993 16.25 4.74993 13.13 3.90993 12C4.29993 11.47 5.11993 10.5 6.34993 9.60995C6.68993 9.36995 6.75993 8.89995 6.51993 8.55995C6.27993 8.21995 5.80993 8.14995 5.46993 8.38995C3.49993 9.80995 2.45993 11.42 2.34993 11.6C2.19993 11.84 2.19993 12.15 2.34993 12.39C2.48993 12.61 5.74993 17.74 11.9899 17.74C12.7199 17.74 13.4399 17.67 14.1399 17.53C14.5499 17.45 14.8099 17.05 14.7299 16.65C14.6499 16.25 14.2499 15.98 13.8499 16.06V16.07Z" fill="black"/>
<path d="M12.7499 15C12.7499 14.59 12.4099 14.25 11.9999 14.25C10.7599 14.25 9.74993 13.24 9.74993 12C9.74993 11.59 9.40993 11.25 8.99993 11.25C8.58993 11.25 8.24993 11.59 8.24993 12C8.24993 14.07 9.92993 15.75 11.9999 15.75C12.4099 15.75 12.7499 15.41 12.7499 15Z" fill="black"/>
</svg>
