<svg width="24" height="24" viewBox="0 0 24 24" fill="none" xmlns="http://www.w3.org/2000/svg">
<path d="M16.98 9.72998C19.051 9.72998 20.73 8.05105 20.73 5.97998C20.73 3.90891 19.051 2.22998 16.98 2.22998C14.9089 2.22998 13.23 3.90891 13.23 5.97998C13.23 8.05105 14.9089 9.72998 16.98 9.72998Z" fill="black"/>
<path d="M11.73 5.97998C11.73 5.35998 11.86 4.77998 12.05 4.22998H5.97998C4.45998 4.22998 3.22998 5.45998 3.22998 6.97998V18.98C3.22998 20.5 4.45998 21.73 5.97998 21.73H14.98C16.5 21.73 17.73 20.5 17.73 18.98V11.15C17.48 11.19 17.24 11.23 16.98 11.23C14.09 11.23 11.73 8.87998 11.73 5.97998ZM6.97998 8.22998H10.98C11.39 8.22998 11.73 8.56998 11.73 8.97998C11.73 9.38998 11.39 9.72998 10.98 9.72998H6.97998C6.56998 9.72998 6.22998 9.38998 6.22998 8.97998C6.22998 8.56998 6.56998 8.22998 6.97998 8.22998ZM6.97998 12.23H12.98C13.39 12.23 13.73 12.57 13.73 12.98C13.73 13.39 13.39 13.73 12.98 13.73H6.97998C6.56998 13.73 6.22998 13.39 6.22998 12.98C6.22998 12.57 6.56998 12.23 6.97998 12.23ZM13.98 17.73H6.97998C6.56998 17.73 6.22998 17.39 6.22998 16.98C6.22998 16.57 6.56998 16.23 6.97998 16.23H13.98C14.39 16.23 14.73 16.57 14.73 16.98C14.73 17.39 14.39 17.73 13.98 17.73Z" fill="black"/>
</svg>
