<svg width="24" height="24" viewBox="0 0 24 24" fill="none" xmlns="http://www.w3.org/2000/svg">
<path d="M12 2.22998C10.71 2.22998 9.45999 2.47998 8.27999 2.96998C8.27999 2.96998 8.23999 2.98998 8.21999 2.99998C8.15999 3.01998 8.11999 3.05998 8.06999 3.09998C8.05999 3.10998 8.03999 3.10998 8.02999 3.12998C7.78999 3.34998 7.69999 3.67998 7.82999 3.98998C7.85999 4.04998 7.90999 4.09998 7.94999 4.14998C7.95999 4.15998 7.95999 4.17998 7.97999 4.19998L8.04999 4.27998L10.94 7.52998C10.94 7.52998 10.98 7.54998 10.99 7.56998C11.03 7.60998 11.07 7.63998 11.12 7.65998C11.16 7.67998 11.2 7.70998 11.24 7.72998C11.29 7.74998 11.34 7.74998 11.39 7.75998C11.43 7.75998 11.46 7.77998 11.5 7.77998C11.51 7.77998 11.53 7.77998 11.54 7.77998C11.55 7.77998 11.56 7.77998 11.57 7.77998C11.72 7.76998 11.87 7.75998 12.03 7.75998C14.37 7.75998 16.28 9.66998 16.28 12.01C16.28 13.36 15.66 14.6 14.58 15.41C14.57 15.41 14.56 15.43 14.55 15.44C14.5 15.48 14.46 15.53 14.42 15.58C14.4 15.61 14.38 15.63 14.36 15.67C14.33 15.72 14.32 15.77 14.31 15.83C14.3 15.87 14.29 15.91 14.28 15.95C14.28 15.97 14.27 15.99 14.27 16.01V20.5C14.27 20.5 14.29 20.59 14.3 20.64C14.3 20.68 14.3 20.72 14.32 20.76C14.32 20.76 14.32 20.77 14.33 20.78C14.34 20.81 14.36 20.83 14.37 20.85C14.4 20.91 14.43 20.96 14.48 21.01C14.5 21.03 14.52 21.05 14.54 21.07C14.59 21.11 14.64 21.15 14.7 21.18C14.72 21.19 14.74 21.2 14.76 21.21C14.85 21.24 14.93 21.27 15.03 21.27C15.11 21.27 15.2 21.26 15.28 21.23C19.17 19.86 21.78 16.16 21.78 12.04C21.78 6.65998 17.41 2.28998 12.03 2.28998L12 2.22998Z" fill="black"/>
<path d="M12 16.23C9.65999 16.23 7.74999 14.32 7.74999 11.98C7.74999 10.84 8.18999 9.77998 8.98999 8.97998C9.27999 8.68998 9.27999 8.20998 8.98999 7.91998L6.15999 5.08998C5.86999 4.79998 5.38999 4.79998 5.09999 5.08998C3.25999 6.92998 2.23999 9.37998 2.23999 11.98C2.23999 17.36 6.60999 21.73 11.99 21.73C12.4 21.73 12.74 21.39 12.74 20.98V16.98C12.74 16.57 12.4 16.23 11.99 16.23H12Z" fill="black"/>
</svg>
