<svg width="24" height="24" viewBox="0 0 24 24" fill="none" xmlns="http://www.w3.org/2000/svg">
<path d="M20.75 15.43V8C20.75 5.93 19.07 4.25 17 4.25H7C4.93 4.25 3.25 5.93 3.25 8V15.43C2.66 15.71 2.25 16.31 2.25 17V18C2.25 19.52 3.48 20.75 5 20.75H19C20.52 20.75 21.75 19.52 21.75 18V17C21.75 16.3 21.34 15.71 20.75 15.43ZM17 5.75C18.24 5.75 19.25 6.76 19.25 8V15.25H15.41C14.95 15.25 14.5 15.44 14.17 15.76L13.76 16.17C13.76 16.17 13.65 16.24 13.58 16.24H10.41C10.34 16.24 10.28 16.21 10.23 16.17L9.82 15.76C9.49 15.43 9.04 15.25 8.58 15.25H4.74V8C4.74 6.76 5.75 5.75 6.99 5.75H17ZM20.25 18C20.25 18.69 19.69 19.25 19 19.25H5C4.31 19.25 3.75 18.69 3.75 18V17C3.75 16.86 3.86 16.75 4 16.75H8.59C8.66 16.75 8.72 16.78 8.77 16.82L9.18 17.23C9.51 17.56 9.96 17.74 10.42 17.74H13.59C14.05 17.74 14.5 17.55 14.83 17.23L15.24 16.82C15.24 16.82 15.35 16.75 15.42 16.75H20.01C20.15 16.75 20.26 16.86 20.26 17V18H20.25Z" fill="black"/>
<path d="M10.52 12.75C10.72 12.75 10.92 12.73 11.12 12.7C11.67 12.61 12.04 12.41 12.37 12.24C12.62 12.11 12.86 11.98 13.21 11.88C13.97 11.66 14.85 11.66 15.83 11.88C16.05 11.93 16.29 11.88 16.47 11.74C16.65 11.6 16.75 11.38 16.75 11.15V7.94C16.75 7.59 16.51 7.29 16.17 7.21C14.94 6.92 13.8 6.92 12.78 7.21C12.29 7.36 11.94 7.54 11.67 7.68C11.39 7.83 11.19 7.94 10.87 7.99C10.18 8.11 9.34 7.87 8.38 7.29C8.15 7.15 7.86 7.14 7.62 7.28C7.38 7.41 7.24 7.66 7.24 7.93V11.14C7.24 11.4 7.38 11.64 7.6 11.78C8.64 12.41 9.61 12.73 10.51 12.73L10.52 12.75ZM8.75 9.17C9.59 9.51 10.38 9.61 11.12 9.49C11.67 9.4 12.04 9.2 12.37 9.03C12.62 8.9 12.86 8.77 13.21 8.67C13.82 8.49 14.5 8.46 15.25 8.57V10.26C14.37 10.16 13.54 10.22 12.79 10.44C12.29 10.59 11.95 10.77 11.67 10.91C11.39 11.06 11.19 11.17 10.88 11.22C10.27 11.32 9.56 11.16 8.75 10.72V9.17Z" fill="black"/>
</svg>
