<svg width="24" height="24" viewBox="0 0 24 24" fill="none" xmlns="http://www.w3.org/2000/svg">
<path d="M12 2.25C10.71 2.25 9.45999 2.5 8.27999 2.99C8.27999 2.99 8.23999 3.01 8.21999 3.02C8.15999 3.04 8.11999 3.08 8.06999 3.12C8.05999 3.13 8.03999 3.13 8.02999 3.15C7.78999 3.37 7.69999 3.7 7.82999 4.01C7.87999 4.12 7.95999 4.21 8.03999 4.29L10.93 7.54C10.93 7.54 10.96 7.56 10.98 7.58C11.02 7.62 11.07 7.65 11.12 7.68C11.16 7.7 11.19 7.72 11.23 7.74C11.28 7.76 11.34 7.77 11.4 7.77C11.43 7.77 11.46 7.79 11.5 7.79C11.51 7.79 11.53 7.79 11.54 7.79C11.55 7.79 11.56 7.79 11.57 7.79C11.72 7.78 11.87 7.77 12.03 7.77C14.37 7.77 16.28 9.68 16.28 12.02C16.28 13.37 15.66 14.61 14.58 15.42C14.57 15.42 14.56 15.44 14.55 15.45C14.5 15.49 14.46 15.54 14.42 15.59C14.4 15.62 14.38 15.64 14.36 15.68C14.33 15.73 14.32 15.78 14.31 15.84C14.3 15.88 14.29 15.92 14.28 15.96C14.28 15.98 14.27 16 14.27 16.02V20.51C14.27 20.51 14.29 20.6 14.3 20.65C14.3 20.69 14.3 20.73 14.32 20.77C14.32 20.77 14.32 20.78 14.33 20.79C14.34 20.82 14.36 20.84 14.37 20.86C14.4 20.92 14.43 20.97 14.48 21.02C14.5 21.04 14.52 21.06 14.54 21.08C14.59 21.12 14.64 21.16 14.7 21.19C14.72 21.2 14.74 21.21 14.76 21.22C14.85 21.25 14.93 21.28 15.03 21.28C15.11 21.28 15.2 21.27 15.28 21.24C19.17 19.87 21.78 16.17 21.78 12.05C21.78 6.67 17.41 2.3 12.03 2.3L12 2.25ZM15.75 19.34V16.35C17.02 15.26 17.75 13.7 17.75 12C17.75 8.83 15.17 6.25 12 6.25C11.93 6.25 11.86 6.25 11.79 6.26L9.81999 4.05C10.53 3.86 11.25 3.75 12 3.75C16.55 3.75 20.25 7.45 20.25 12C20.25 15.12 18.48 17.94 15.75 19.34Z" fill="black"/>
<path d="M12 16.25C9.65999 16.25 7.74999 14.34 7.74999 12C7.74999 10.86 8.18999 9.8 8.98999 9C9.27999 8.71 9.27999 8.23 8.98999 7.94L6.15999 5.11C5.86999 4.82 5.38999 4.82 5.09999 5.11C3.25999 6.95 2.23999 9.4 2.23999 12C2.23999 17.38 6.60999 21.75 11.99 21.75C12.4 21.75 12.74 21.41 12.74 21V17C12.74 16.59 12.4 16.25 11.99 16.25H12ZM3.74999 12C3.74999 10.05 4.42999 8.2 5.65999 6.72L7.44999 8.51C6.67999 9.51 6.23999 10.71 6.23999 11.99C6.23999 14.91 8.41999 17.32 11.24 17.69V20.21C7.03999 19.83 3.73999 16.29 3.73999 12H3.74999Z" fill="black"/>
</svg>
