<svg width="24" height="24" viewBox="0 0 24 24" fill="none" xmlns="http://www.w3.org/2000/svg">
<path d="M17.81 3.13018C17.24 2.83018 16.56 2.87018 16.02 3.23018L15.13 3.84018C15.05 3.89018 14.95 3.90018 14.87 3.84018L12.98 2.55018C12.39 2.14018 11.62 2.14018 11.03 2.55018L9.14001 3.84018C9.06001 3.89018 8.96001 3.89018 8.88001 3.84018L7.99001 3.23018C7.46001 2.87018 6.77001 2.83018 6.20001 3.13018C5.62001 3.44018 5.26001 4.04018 5.26001 4.70018V19.2902C5.26001 19.9502 5.62001 20.5602 6.20001 20.8602C6.77001 21.1602 7.45001 21.1202 7.99001 20.7602L8.88001 20.1502C8.96001 20.1002 9.06001 20.0902 9.14001 20.1502L11.03 21.4402C11.33 21.6402 11.67 21.7402 12.01 21.7402C12.35 21.7402 12.69 21.6402 12.99 21.4402L14.88 20.1502C14.96 20.1002 15.06 20.1002 15.14 20.1502L16.03 20.7602C16.56 21.1202 17.25 21.1602 17.82 20.8602C18.4 20.5502 18.76 19.9502 18.76 19.2902V4.71018C18.76 4.05018 18.4 3.44018 17.82 3.14018L17.81 3.13018ZM17.25 19.2902C17.25 19.4402 17.15 19.5102 17.11 19.5402C17.05 19.5702 16.97 19.5902 16.87 19.5302L15.98 18.9202C15.39 18.5102 14.62 18.5102 14.03 18.9202L12.14 20.2102C12.06 20.2602 11.96 20.2702 11.88 20.2102L9.99001 18.9202C9.69001 18.7202 9.35001 18.6202 9.01001 18.6202C8.67001 18.6202 8.33001 18.7202 8.03001 18.9202L7.14001 19.5302C7.04001 19.6002 6.96001 19.5702 6.90001 19.5402C6.86001 19.5202 6.76001 19.4502 6.76001 19.2902V4.71018C6.76001 4.56018 6.86001 4.49018 6.90001 4.46018C6.96001 4.43018 7.04001 4.41018 7.14001 4.47018L8.03001 5.08018C8.62001 5.49018 9.39001 5.49018 9.98001 5.08018L11.87 3.79018C11.95 3.74018 12.05 3.73018 12.13 3.79018L14.02 5.08018C14.61 5.49018 15.38 5.49018 15.97 5.08018L16.86 4.47018C16.96 4.40018 17.05 4.43018 17.1 4.46018C17.14 4.48018 17.24 4.55018 17.24 4.71018V19.3002L17.25 19.2902Z" fill="black"/>
<path d="M14 11.2502H9.00001C8.59001 11.2502 8.25001 11.5902 8.25001 12.0002C8.25001 12.4102 8.59001 12.7502 9.00001 12.7502H14C14.41 12.7502 14.75 12.4102 14.75 12.0002C14.75 11.5902 14.41 11.2502 14 11.2502Z" fill="black"/>
<path d="M15 8.25018H9.00001C8.59001 8.25018 8.25001 8.59018 8.25001 9.00018C8.25001 9.41018 8.59001 9.75018 9.00001 9.75018H15C15.41 9.75018 15.75 9.41018 15.75 9.00018C15.75 8.59018 15.41 8.25018 15 8.25018Z" fill="black"/>
<path d="M12 14.2502H9.00001C8.59001 14.2502 8.25001 14.5902 8.25001 15.0002C8.25001 15.4102 8.59001 15.7502 9.00001 15.7502H12C12.41 15.7502 12.75 15.4102 12.75 15.0002C12.75 14.5902 12.41 14.2502 12 14.2502Z" fill="black"/>
</svg>
