<svg width="24" height="24" viewBox="0 0 24 24" fill="none" xmlns="http://www.w3.org/2000/svg">
<path d="M17 11.25C16.59 11.25 16.25 11.59 16.25 12V19C16.25 19.69 15.69 20.25 15 20.25H6C5.31 20.25 4.75 19.69 4.75 19V7C4.75 6.31 5.31 5.75 6 5.75H11C11.41 5.75 11.75 5.41 11.75 5C11.75 4.59 11.41 4.25 11 4.25H6C4.48 4.25 3.25 5.48 3.25 7V19C3.25 20.52 4.48 21.75 6 21.75H15C16.52 21.75 17.75 20.52 17.75 19V12C17.75 11.59 17.41 11.25 17 11.25Z" fill="black"/>
<path d="M17 2.25C14.93 2.25 13.25 3.93 13.25 6C13.25 8.07 14.93 9.75 17 9.75C19.07 9.75 20.75 8.07 20.75 6C20.75 3.93 19.07 2.25 17 2.25ZM17 8.25C15.76 8.25 14.75 7.24 14.75 6C14.75 4.76 15.76 3.75 17 3.75C18.24 3.75 19.25 4.76 19.25 6C19.25 7.24 18.24 8.25 17 8.25Z" fill="black"/>
<path d="M7 9.75H11C11.41 9.75 11.75 9.41 11.75 9C11.75 8.59 11.41 8.25 11 8.25H7C6.59 8.25 6.25 8.59 6.25 9C6.25 9.41 6.59 9.75 7 9.75Z" fill="black"/>
<path d="M13 12.25H7C6.59 12.25 6.25 12.59 6.25 13C6.25 13.41 6.59 13.75 7 13.75H13C13.41 13.75 13.75 13.41 13.75 13C13.75 12.59 13.41 12.25 13 12.25Z" fill="black"/>
<path d="M6.25 17C6.25 17.41 6.59 17.75 7 17.75H14C14.41 17.75 14.75 17.41 14.75 17C14.75 16.59 14.41 16.25 14 16.25H7C6.59 16.25 6.25 16.59 6.25 17Z" fill="black"/>
</svg>
