<svg width="24" height="24" viewBox="0 0 24 24" fill="none" xmlns="http://www.w3.org/2000/svg">
<path d="M12 13.75C15.17 13.75 17.75 11.17 17.75 8C17.75 4.83 15.17 2.25 12 2.25C8.83002 2.25 6.25002 4.83 6.25002 8C6.25002 11.17 8.83002 13.75 12 13.75ZM12 3.75C14.34 3.75 16.25 5.66 16.25 8C16.25 10.34 14.34 12.25 12 12.25C9.66002 12.25 7.75002 10.34 7.75002 8C7.75002 5.66 9.66002 3.75 12 3.75Z" fill="black"/>
<path d="M18.86 14.92C16.02 13.68 13.22 14.33 12 15.66C10.79 14.33 7.98002 13.68 5.14002 14.92C4.80002 15.07 4.62002 15.44 4.72002 15.8C5.55002 18.88 7.95002 20.71 9.77002 20.71C9.83002 20.71 9.88002 20.71 9.94002 20.71C10.71 20.66 11.42 20.28 12 19.64C12.58 20.28 13.29 20.66 14.06 20.71C14.11 20.71 14.17 20.71 14.23 20.71C16.05 20.71 18.45 18.88 19.28 15.8C19.38 15.44 19.2 15.07 18.86 14.92ZM11.14 18.34C10.87 18.74 10.43 19.18 9.85002 19.21C8.89002 19.25 7.19002 18.18 6.38002 16.05C8.55002 15.35 10.45 15.98 11.01 16.78C11.35 17.26 11.27 17.87 11.14 18.33V18.34ZM14.16 19.21C13.58 19.17 13.14 18.73 12.87 18.34C12.73 17.88 12.66 17.26 13 16.79C13.56 16 15.46 15.36 17.63 16.06C16.82 18.19 15.18 19.25 14.16 19.22V19.21Z" fill="black"/>
<path d="M11 8.75H13C13.41 8.75 13.75 8.41 13.75 8C13.75 7.59 13.41 7.25 13 7.25H11C10.59 7.25 10.25 7.59 10.25 8C10.25 8.41 10.59 8.75 11 8.75Z" fill="black"/>
</svg>
