<svg width="24" height="24" viewBox="0 0 24 24" fill="none" xmlns="http://www.w3.org/2000/svg">
<path d="M11.98 8.22973H3.97998C3.01998 8.22973 2.22998 9.01973 2.22998 9.97973V13.9797C2.22998 14.9397 3.01998 15.7297 3.97998 15.7297H10.98C11.35 15.7297 11.66 15.4697 11.72 15.0997L12.72 9.09973C12.76 8.87973 12.7 8.65973 12.55 8.48973C12.41 8.31973 12.2 8.21973 11.98 8.21973V8.22973Z" fill="black"/>
<path d="M20.73 11.3997V10.4697C20.73 8.67973 19.27 7.21973 17.48 7.21973C15.69 7.21973 14.23 8.67973 14.23 10.4697V11.3997C13.64 11.6797 13.23 12.2797 13.23 12.9697V15.9697C13.23 16.9297 14.02 17.7197 14.98 17.7197H19.98C20.94 17.7197 21.73 16.9297 21.73 15.9697V12.9697C21.73 12.2697 21.32 11.6797 20.73 11.3997ZM15.73 10.4697C15.73 9.50973 16.52 8.71973 17.48 8.71973C18.44 8.71973 19.23 9.50973 19.23 10.4697V11.2197H15.73V10.4697Z" fill="black"/>
</svg>
