<svg width="24" height="24" viewBox="0 0 24 24" fill="none" xmlns="http://www.w3.org/2000/svg">
<path d="M18 2.25H6C3.93 2.25 2.25 3.93 2.25 6V14C2.25 15.81 3.54 17.33 5.25 17.67V21C5.25 21.28 5.4 21.53 5.65 21.66C5.76 21.72 5.88 21.75 6 21.75C6.15 21.75 6.29 21.71 6.42 21.62L11.66 18.12C12.03 17.87 12.46 17.74 12.91 17.74H18C20.07 17.74 21.75 16.06 21.75 13.99V6C21.75 3.93 20.07 2.25 18 2.25ZM20.25 14C20.25 15.24 19.24 16.25 18 16.25H12.91C12.17 16.25 11.45 16.47 10.83 16.88L6.75 19.6V17C6.75 16.59 6.41 16.25 6 16.25C4.76 16.25 3.75 15.24 3.75 14V6C3.75 4.76 4.76 3.75 6 3.75H18C19.24 3.75 20.25 4.76 20.25 6V14Z" fill="black"/>
<path d="M11.5 7.75H13C13.14 7.75 13.25 7.86 13.25 8C13.25 8.41 13.59 8.75 14 8.75C14.41 8.75 14.75 8.41 14.75 8C14.75 7.04 13.96 6.25 13 6.25H12.75V6C12.75 5.59 12.41 5.25 12 5.25C11.59 5.25 11.25 5.59 11.25 6V6.28C10.13 6.41 9.25 7.35 9.25 8.5C9.25 9.74 10.26 10.75 11.5 10.75H12.5C12.91 10.75 13.25 11.09 13.25 11.5C13.25 11.91 12.91 12.25 12.5 12.25H11C10.86 12.25 10.75 12.14 10.75 12C10.75 11.59 10.41 11.25 10 11.25C9.59 11.25 9.25 11.59 9.25 12C9.25 12.96 10.04 13.75 11 13.75H11.25V14C11.25 14.41 11.59 14.75 12 14.75C12.41 14.75 12.75 14.41 12.75 14V13.72C13.87 13.59 14.75 12.65 14.75 11.5C14.75 10.26 13.74 9.25 12.5 9.25H11.5C11.09 9.25 10.75 8.91 10.75 8.5C10.75 8.09 11.09 7.75 11.5 7.75Z" fill="black"/>
</svg>
