<svg width="24" height="24" viewBox="0 0 24 24" fill="none" xmlns="http://www.w3.org/2000/svg">
<path d="M19 5.25H5C3.48 5.25 2.25 6.48 2.25 8V16C2.25 17.52 3.48 18.75 5 18.75H19C20.52 18.75 21.75 17.52 21.75 16V8C21.75 6.48 20.52 5.25 19 5.25ZM20.25 16C20.25 16.69 19.69 17.25 19 17.25H5C4.31 17.25 3.75 16.69 3.75 16V8C3.75 7.31 4.31 6.75 5 6.75H19C19.69 6.75 20.25 7.31 20.25 8V16Z" fill="black"/>
<path d="M8 8.25C6.48 8.25 5.25 9.48 5.25 11C5.25 12.52 6.48 13.75 8 13.75C9.52 13.75 10.75 12.52 10.75 11C10.75 9.48 9.52 8.25 8 8.25ZM8 12.25C7.31 12.25 6.75 11.69 6.75 11C6.75 10.31 7.31 9.75 8 9.75C8.69 9.75 9.25 10.31 9.25 11C9.25 11.69 8.69 12.25 8 12.25Z" fill="black"/>
<path d="M18 14.25H17C16.59 14.25 16.25 14.59 16.25 15C16.25 15.41 16.59 15.75 17 15.75H18C18.41 15.75 18.75 15.41 18.75 15C18.75 14.59 18.41 14.25 18 14.25Z" fill="black"/>
<path d="M14 14.25H13C12.59 14.25 12.25 14.59 12.25 15C12.25 15.41 12.59 15.75 13 15.75H14C14.41 15.75 14.75 15.41 14.75 15C14.75 14.59 14.41 14.25 14 14.25Z" fill="black"/>
</svg>
