<svg width="24" height="24" viewBox="0 0 24 24" fill="none" xmlns="http://www.w3.org/2000/svg">
<path d="M21.6699 15.11C21.5699 14.55 21.3999 14 21.1399 13.5L19.5699 10.4C18.7299 8.74 17.1599 7.63 15.3499 7.34L16.2799 4.56C16.4599 4.03 16.3699 3.44 16.0399 2.98C15.7099 2.52 15.1799 2.25 14.6199 2.25H9.38994C8.82994 2.25 8.29993 2.52 7.96993 2.98C7.63994 3.44 7.54994 4.02 7.72994 4.56L8.65993 7.34C6.84994 7.63 5.27993 8.75 4.43993 10.4L2.86993 13.5C2.60993 14.01 2.42993 14.55 2.33993 15.11C2.05993 16.75 2.51993 18.42 3.59993 19.7C4.69993 21 6.31993 21.75 8.03994 21.75H15.9799C17.6999 21.75 19.3199 21 20.4199 19.7C21.4999 18.42 21.9599 16.75 21.6799 15.11H21.6699ZM9.17994 3.85C9.17994 3.85 9.26994 3.75 9.37994 3.75H14.6099C14.7199 3.75 14.7799 3.81 14.8099 3.85C14.8399 3.89 14.8799 3.97 14.8399 4.08L13.7799 7.25H10.1899L9.12994 4.08C9.08994 3.97 9.12993 3.89 9.15993 3.85H9.17994ZM19.2599 18.73C18.4399 19.7 17.2399 20.25 15.9599 20.25H8.01994C6.73994 20.25 5.53993 19.7 4.71993 18.73C3.92993 17.79 3.58993 16.56 3.78993 15.36C3.85994 14.95 3.98993 14.55 4.17993 14.17L5.74993 11.07C6.47993 9.63 7.94993 8.74 9.57994 8.74H14.3699C15.9999 8.74 17.4699 9.63 18.1999 11.07L19.7699 14.17C19.9599 14.54 20.0899 14.94 20.1599 15.36C20.3599 16.56 20.0299 17.79 19.2299 18.73H19.2599Z" fill="black"/>
</svg>
