<svg width="24" height="24" viewBox="0 0 24 24" fill="none" xmlns="http://www.w3.org/2000/svg">
<path d="M10.86 15.02C11.21 15.15 11.59 15.23 11.98 15.23C13.77 15.23 15.23 13.77 15.23 11.98C15.23 11.13 14.89 10.35 14.35 9.76998L10.85 15.01L10.86 15.02Z" fill="black"/>
<path d="M11.98 8.72998C10.19 8.72998 8.72998 10.19 8.72998 11.98C8.72998 12.83 9.06998 13.61 9.60998 14.19L13.11 8.94998C12.76 8.81998 12.38 8.73998 11.99 8.73998L11.98 8.72998Z" fill="black"/>
<path d="M17.98 4.22998H5.97998C3.90998 4.22998 2.22998 5.90998 2.22998 7.97998V15.98C2.22998 18.05 3.90998 19.73 5.97998 19.73H17.98C20.05 19.73 21.73 18.05 21.73 15.98V7.97998C21.73 5.90998 20.05 4.22998 17.98 4.22998ZM11.98 16.73C9.35998 16.73 7.22998 14.6 7.22998 11.98C7.22998 9.35998 9.35998 7.22998 11.98 7.22998C14.6 7.22998 16.73 9.35998 16.73 11.98C16.73 14.6 14.6 16.73 11.98 16.73Z" fill="black"/>
</svg>
