<svg width="24" height="24" viewBox="0 0 24 24" fill="none" xmlns="http://www.w3.org/2000/svg">
<path d="M6 7.25001H4C3.04 7.25001 2.25 8.04001 2.25 9.00001V19C2.25 19.96 3.04 20.75 4 20.75H6C6.96 20.75 7.75 19.96 7.75 19V9.00001C7.75 8.04001 6.96 7.25001 6 7.25001ZM6.25 19C6.25 19.14 6.14 19.25 6 19.25H4C3.86 19.25 3.75 19.14 3.75 19V9.00001C3.75 8.86001 3.86 8.75001 4 8.75001H6C6.14 8.75001 6.25 8.86001 6.25 9.00001V19Z" fill="black"/>
<path d="M13 11.25H11C10.04 11.25 9.25 12.04 9.25 13V19C9.25 19.96 10.04 20.75 11 20.75H13C13.96 20.75 14.75 19.96 14.75 19V13C14.75 12.04 13.96 11.25 13 11.25ZM13.25 19C13.25 19.14 13.14 19.25 13 19.25H11C10.86 19.25 10.75 19.14 10.75 19V13C10.75 12.86 10.86 12.75 11 12.75H13C13.14 12.75 13.25 12.86 13.25 13V19Z" fill="black"/>
<path d="M20 15.25H18C17.04 15.25 16.25 16.04 16.25 17V19C16.25 19.96 17.04 20.75 18 20.75H20C20.96 20.75 21.75 19.96 21.75 19V17C21.75 16.04 20.96 15.25 20 15.25ZM20.25 19C20.25 19.14 20.14 19.25 20 19.25H18C17.86 19.25 17.75 19.14 17.75 19V17C17.75 16.86 17.86 16.75 18 16.75H20C20.14 16.75 20.25 16.86 20.25 17V19Z" fill="black"/>
<path d="M19.17 9.73001C19.17 9.73001 19.25 9.69001 19.29 9.68001C19.32 9.67001 19.36 9.65001 19.39 9.63001C19.58 9.52001 19.71 9.33001 19.74 9.12001C19.75 9.03001 19.74 8.95001 19.74 8.86001C19.74 8.85001 19.74 8.84001 19.74 8.83001L19.09 6.08001C18.99 5.68001 18.59 5.43001 18.19 5.52001C17.79 5.61001 17.54 6.02001 17.63 6.42001L17.86 7.41001L14.3 5.20001C13.95 4.98001 13.49 5.09001 13.27 5.44001C13.05 5.79001 13.16 6.25001 13.51 6.47001L17.07 8.68001L16.08 8.91001C15.68 9.00001 15.43 9.41001 15.52 9.81001C15.6 10.16 15.91 10.39 16.25 10.39C16.31 10.39 16.36 10.39 16.42 10.37L19.17 9.72001V9.73001Z" fill="black"/>
</svg>
