<svg width="24" height="24" viewBox="0 0 24 24" fill="none" xmlns="http://www.w3.org/2000/svg">
<path d="M12 2.25C6.62 2.25 2.25 6.62 2.25 12C2.25 17.38 6.62 21.75 12 21.75C17.38 21.75 21.75 17.38 21.75 12C21.75 6.62 17.38 2.25 12 2.25ZM12 20.25C7.45 20.25 3.75 16.55 3.75 12C3.75 7.45 7.45 3.75 12 3.75C16.55 3.75 20.25 7.45 20.25 12C20.25 16.55 16.55 20.25 12 20.25Z" fill="black"/>
<path d="M10.75 8.5C10.75 7.26 9.74 6.25 8.5 6.25C7.26 6.25 6.25 7.26 6.25 8.5C6.25 9.74 7.26 10.75 8.5 10.75C9.74 10.75 10.75 9.74 10.75 8.5ZM7.75 8.5C7.75 8.09 8.09 7.75 8.5 7.75C8.91 7.75 9.25 8.09 9.25 8.5C9.25 8.91 8.91 9.25 8.5 9.25C8.09 9.25 7.75 8.91 7.75 8.5Z" fill="black"/>
<path d="M15.5 13.25C14.26 13.25 13.25 14.26 13.25 15.5C13.25 16.74 14.26 17.75 15.5 17.75C16.74 17.75 17.75 16.74 17.75 15.5C17.75 14.26 16.74 13.25 15.5 13.25ZM15.5 16.25C15.09 16.25 14.75 15.91 14.75 15.5C14.75 15.09 15.09 14.75 15.5 14.75C15.91 14.75 16.25 15.09 16.25 15.5C16.25 15.91 15.91 16.25 15.5 16.25Z" fill="black"/>
<path d="M16.6 8.55C16.35 8.22 15.88 8.15 15.55 8.4L7.55 14.4C7.22 14.65 7.15 15.12 7.4 15.45C7.55 15.65 7.77 15.75 8 15.75C8.16 15.75 8.31 15.7 8.45 15.6L16.45 9.6C16.78 9.35 16.85 8.88 16.6 8.55Z" fill="black"/>
</svg>
