<svg width="24" height="24" viewBox="0 0 24 24" fill="none" xmlns="http://www.w3.org/2000/svg">
<path d="M11.25 13.98C11.25 13.57 11.59 13.23 12 13.23H16.75V11.73H12C11.7 11.73 11.42 11.55 11.31 11.27C11.19 10.99 11.26 10.67 11.47 10.45L13.47 8.44998C13.76 8.15998 14.24 8.15998 14.53 8.44998C14.82 8.73998 14.82 9.21998 14.53 9.50998L13.81 10.23H16.75V4.97998C16.75 3.45998 15.52 2.22998 14 2.22998H6C4.48 2.22998 3.25 3.45998 3.25 4.97998V18.98C3.25 20.5 4.48 21.73 6 21.73H14C15.52 21.73 16.75 20.5 16.75 18.98V14.73H12C11.59 14.73 11.25 14.39 11.25 13.98ZM11 18.73H9C8.59 18.73 8.25 18.39 8.25 17.98C8.25 17.57 8.59 17.23 9 17.23H11C11.41 17.23 11.75 17.57 11.75 17.98C11.75 18.39 11.41 18.73 11 18.73Z" fill="black"/>
<path d="M20 11.73C20.41 11.73 20.75 11.39 20.75 10.98C20.75 10.57 20.41 10.23 20 10.23H16.75V11.73H20Z" fill="black"/>
<path d="M20 13.23H16.75V14.73H18.19L17.47 15.45C17.18 15.74 17.18 16.22 17.47 16.51C17.62 16.66 17.81 16.73 18 16.73C18.19 16.73 18.38 16.66 18.53 16.51L20.53 14.51C20.74 14.3 20.81 13.97 20.69 13.69C20.57 13.41 20.3 13.23 20 13.23Z" fill="black"/>
</svg>
