<svg width="24" height="24" viewBox="0 0 24 24" fill="none" xmlns="http://www.w3.org/2000/svg">
<path d="M7.40003 19.0399C8.36003 20.3799 9.91003 21.1799 11.56 21.1799H14.41C16.68 21.1799 18.7 19.6599 19.32 17.4699L19.94 15.2999C20.21 14.3699 20.34 13.3999 20.34 12.4199V11.2399C20.34 10.4899 19.73 9.87988 18.98 9.87988C18.23 9.87988 17.62 10.4899 17.62 11.2399V11.7799C17.62 11.9199 17.51 12.0299 17.37 12.0299C17.23 12.0299 17.12 11.9199 17.12 11.7799V10.1699C17.12 9.41988 16.51 8.80988 15.76 8.80988C15.01 8.80988 14.4 9.41988 14.4 10.1699V11.7799C14.4 11.9199 14.29 12.0299 14.15 12.0299C14.01 12.0299 13.9 11.9199 13.9 11.7799V10.1699C13.9 9.41988 13.29 8.80988 12.54 8.80988C11.79 8.80988 11.18 9.41988 11.18 10.1699V11.7799C11.18 11.9199 11.07 12.0299 10.93 12.0299C10.79 12.0299 10.68 11.9199 10.68 11.7799V3.73988C10.68 2.98988 10.07 2.37988 9.32003 2.37988C8.57003 2.37988 7.96003 2.98988 7.96003 3.73988V13.9199C7.96003 14.0199 7.90003 14.1099 7.81003 14.1499C7.72003 14.1899 7.61003 14.1699 7.54003 14.0999L6.15003 12.7099C5.89003 12.4499 5.55003 12.3199 5.20003 12.3199C5.10003 12.3199 4.99003 12.3299 4.89003 12.3599C4.43003 12.4699 4.07003 12.7999 3.92003 13.2399C3.78003 13.6499 3.85003 14.0999 4.10003 14.4499L7.39003 19.0499L7.40003 19.0399Z" fill="black"/>
</svg>
