<svg width="24" height="24" viewBox="0 0 24 24" fill="none" xmlns="http://www.w3.org/2000/svg">
<path d="M17.5001 9.25C17.2401 9.25 16.9801 9.3 16.7501 9.38V6.5C16.7501 5.26 15.7401 4.25 14.5001 4.25C14.2401 4.25 13.9801 4.3 13.7501 4.38C13.6901 3.19 12.7001 2.25 11.5001 2.25C10.3001 2.25 9.25006 3.26 9.25006 4.5V5.38C9.02006 5.3 8.76007 5.25 8.50006 5.25C7.26006 5.25 6.25007 6.26 6.25007 7.5V9.62C5.53007 10.17 4.90006 10.83 4.37006 11.6C3.51006 12.84 3.36007 14.41 3.95007 15.79L5.01007 18.27C5.92007 20.39 7.99007 21.75 10.3001 21.75H13.2301C15.7801 21.75 18.0601 20.04 18.7601 17.58L19.3401 15.55C19.6101 14.59 19.7501 13.59 19.7501 12.6V11.5C19.7501 10.26 18.7401 9.25 17.5001 9.25ZM18.2501 12.6C18.2501 13.46 18.1301 14.31 17.8901 15.14L17.3101 17.17C16.7901 18.98 15.1101 20.25 13.2201 20.25H10.2901C8.59007 20.25 7.05007 19.24 6.38007 17.67L5.32007 15.19C4.93007 14.28 5.03007 13.26 5.61007 12.42C5.80007 12.14 6.01006 11.88 6.24006 11.63V13.99C6.24006 14.4 6.58006 14.74 6.99006 14.74C7.40006 14.74 7.74006 14.4 7.74006 13.99V7.5C7.74006 7.09 8.08006 6.75 8.49006 6.75C8.90006 6.75 9.24006 7.09 9.24006 7.5V12C9.24006 12.41 9.58006 12.75 9.99006 12.75C10.4001 12.75 10.7401 12.41 10.7401 12V4.5C10.7401 4.09 11.0801 3.75 11.4901 3.75C11.9001 3.75 12.2401 4.09 12.2401 4.5V12C12.2401 12.41 12.5801 12.75 12.9901 12.75C13.4001 12.75 13.7401 12.41 13.7401 12V6.5C13.7401 6.09 14.0801 5.75 14.4901 5.75C14.9001 5.75 15.2401 6.09 15.2401 6.5V12C15.2401 12.41 15.5801 12.75 15.9901 12.75C16.4001 12.75 16.7401 12.41 16.7401 12V11.5C16.7401 11.09 17.0801 10.75 17.4901 10.75C17.9001 10.75 18.2401 11.09 18.2401 11.5V12.6H18.2501Z" fill="black"/>
</svg>
