<svg width="24" height="24" viewBox="0 0 24 24" fill="none" xmlns="http://www.w3.org/2000/svg">
<path d="M18.5 9.25C18.14 9.25 17.81 9.33 17.51 9.48C17.14 8.75 16.38 8.25 15.5 8.25C14.92 8.25 14.4 8.47 14 8.82C13.41 8.29 12.46 8.1 11.71 8.39C11.56 7.11 10.99 5.93 10.07 5L7.88998 2.82C7.51998 2.45 7.02998 2.25 6.50998 2.25C5.74998 2.25 5.07998 2.67 4.74998 3.36C4.41998 4.05 4.50998 4.83 4.98998 5.42L6.32998 7.1C6.92998 7.85 7.25998 8.79 7.25998 9.75V12.19L6.22998 11.16C5.67998 10.61 4.89998 10.39 4.13998 10.57C3.37998 10.75 2.78998 11.3 2.53998 12.03C2.30998 12.72 2.42998 13.49 2.86998 14.07L6.90998 19.45C7.98998 20.89 9.70998 21.75 11.51 21.75H14.24C16.79 21.75 19.07 20.04 19.77 17.58L20.35 15.55C20.62 14.59 20.76 13.6 20.76 12.6V11.5C20.76 10.26 19.75 9.25 18.51 9.25H18.5ZM19.25 12.6C19.25 13.46 19.13 14.31 18.89 15.14L18.31 17.17C17.79 18.98 16.11 20.25 14.22 20.25H11.49C10.16 20.25 8.88998 19.61 8.08998 18.55L4.04998 13.17C3.90998 12.98 3.86998 12.73 3.93998 12.51C4.05998 12.16 4.33998 12.06 4.45998 12.03C4.49998 12.03 4.55998 12.01 4.62998 12.01C4.76998 12.01 4.96998 12.05 5.13998 12.22L7.44998 14.53C7.65998 14.75 7.98998 14.81 8.26998 14.69C8.54998 14.57 8.72998 14.3 8.72998 14V9.75C8.72998 8.45 8.27998 7.17 7.46998 6.16L6.12998 4.48C5.96998 4.28 6.03998 4.08 6.07998 4C6.11998 3.92 6.22998 3.74 6.48998 3.74C6.60998 3.74 6.71998 3.79 6.80998 3.87L8.98998 6.05C9.78998 6.85 10.23 7.92 10.23 9.06V11.99C10.23 12.4 10.57 12.74 10.98 12.74C11.39 12.74 11.73 12.4 11.73 11.99V10.49C11.73 10.08 12.07 9.74 12.48 9.74C12.89 9.74 13.23 10.08 13.23 10.49V11.99C13.23 12.4 13.57 12.74 13.98 12.74C14.39 12.74 14.73 12.4 14.73 11.99V10.49C14.73 10.08 15.07 9.74 15.48 9.74C15.89 9.74 16.23 10.08 16.23 10.49V11.99C16.23 12.4 16.57 12.74 16.98 12.74C17.39 12.74 17.73 12.4 17.73 11.99V11.49C17.73 11.08 18.07 10.74 18.48 10.74C18.89 10.74 19.23 11.08 19.23 11.49V12.59L19.25 12.6Z" fill="black"/>
</svg>
