<svg width="24" height="24" viewBox="0 0 24 24" fill="none" xmlns="http://www.w3.org/2000/svg">
<path d="M20.27 8.69L16.53 6.44C15.85 4.02 13.63 2.25 11 2.25H9C5.83 2.25 3.25 4.83 3.25 8V15.5C3.25 16.74 4.26 17.75 5.5 17.75C5.76 17.75 6.02 17.7 6.25 17.62C6.31 18.81 7.3 19.75 8.5 19.75C8.76 19.75 9.02 19.7 9.25 19.62C9.31 20.81 10.3 21.75 11.5 21.75C12.7 21.75 13.68 20.81 13.75 19.62C13.99 19.7 14.24 19.75 14.5 19.75C15.74 19.75 16.75 18.74 16.75 17.5V12.21L18 12.83C18.33 13 18.7 13.08 19.06 13.08C19.37 13.08 19.67 13.02 19.97 12.9C20.6 12.64 21.09 12.11 21.31 11.46C21.66 10.4 21.24 9.26 20.28 8.68L20.27 8.69ZM15.25 17.5C15.25 17.91 14.91 18.25 14.5 18.25C14.09 18.25 13.75 17.91 13.75 17.5V12C13.75 11.59 13.41 11.25 13 11.25C12.59 11.25 12.25 11.59 12.25 12V19.5C12.25 19.91 11.91 20.25 11.5 20.25C11.09 20.25 10.75 19.91 10.75 19.5V12C10.75 11.59 10.41 11.25 10 11.25C9.59 11.25 9.25 11.59 9.25 12V17.5C9.25 17.91 8.91 18.25 8.5 18.25C8.09 18.25 7.75 17.91 7.75 17.5V12C7.75 11.59 7.41 11.25 7 11.25C6.59 11.25 6.25 11.59 6.25 12V15.5C6.25 15.91 5.91 16.25 5.5 16.25C5.09 16.25 4.75 15.91 4.75 15.5V8C4.75 5.66 6.66 3.75 9 3.75H11C13.34 3.75 15.25 5.66 15.25 8V17.5ZM19.88 10.99C19.8 11.23 19.62 11.42 19.39 11.52C19.15 11.62 18.9 11.61 18.67 11.49L16.75 10.53V8.32L19.5 9.97C19.85 10.18 20.01 10.6 19.88 10.99Z" fill="black"/>
</svg>
