<svg width="24" height="24" viewBox="0 0 24 24" fill="none" xmlns="http://www.w3.org/2000/svg">
<path d="M5.30008 9.9898L4.59008 9.8098C4.40008 9.7598 4.20008 9.7298 4.01008 9.7298C3.61008 9.7298 3.21008 9.8398 2.85008 10.0498C2.56008 10.2198 2.38008 10.4998 2.34008 10.8298C2.30008 11.1598 2.42008 11.4898 2.67008 11.7198C3.86008 12.8398 5.08008 14.3898 5.56008 15.0498C5.88008 15.4898 6.04008 15.8498 6.23008 16.3098C6.34008 16.5798 6.48008 16.8798 6.67008 17.2598C6.75008 17.4198 6.84008 17.5898 6.93008 17.7598C7.82008 19.3798 9.55008 20.3898 11.4401 20.3898H14.9401C17.6501 20.3898 19.7401 18.9498 20.4101 16.6198L21.0401 14.4098C21.3101 13.4598 21.4501 12.4698 21.4501 11.4898V9.1998C21.4501 8.4398 20.8301 7.8198 20.0701 7.8198C19.3101 7.8198 18.6901 8.4398 18.6901 9.1998C18.6901 9.3398 18.5801 9.4498 18.4401 9.4498C18.3001 9.4498 18.1901 9.3398 18.1901 9.1998V7.0198C18.1901 6.2598 17.5701 5.6398 16.8101 5.6398C16.0501 5.6398 15.4301 6.2598 15.4301 7.0198V8.6498C15.4301 8.7898 15.3201 8.8998 15.1801 8.8998C15.0401 8.8998 14.9301 8.7898 14.9301 8.6498V5.9298C14.9301 5.1698 14.3101 4.5498 13.5501 4.5498C12.7901 4.5498 12.1701 5.1698 12.1701 5.9298V8.6498C12.1701 8.7898 12.0601 8.8998 11.9201 8.8998C11.7801 8.8998 11.6701 8.7898 11.6701 8.6498V7.0198C11.6701 6.2598 11.0501 5.6398 10.2901 5.6398C9.53008 5.6398 8.91008 6.2598 8.91008 7.0198V13.0098C8.91008 13.1298 8.82008 13.2398 8.70008 13.2598C8.58008 13.2698 8.46008 13.2098 8.42008 13.0898C8.33008 12.8298 7.50008 10.5598 5.32008 9.9798L5.30008 9.9898Z" fill="black"/>
</svg>
