<svg width="24" height="24" viewBox="0 0 24 24" fill="none" xmlns="http://www.w3.org/2000/svg">
<path d="M14.16 18.2605H17.96C18.72 18.2605 19.34 17.6405 19.34 16.8805C19.34 16.1205 18.72 15.5005 17.96 15.5005H14.16C14.02 15.5005 13.91 15.3905 13.91 15.2505C13.91 15.1105 14.02 15.0005 14.16 15.0005H19.05C19.81 15.0005 20.43 14.3805 20.43 13.6205C20.43 12.8605 19.81 12.2405 19.05 12.2405H14.16C14.02 12.2405 13.91 12.1305 13.91 11.9905C13.91 11.8505 14.02 11.7405 14.16 11.7405H17.96C18.72 11.7405 19.34 11.1205 19.34 10.3605C19.34 9.60055 18.72 8.98055 17.96 8.98055H11.98C11.84 8.98055 11.73 8.87055 11.73 8.73055V5.21055C11.73 4.10055 11.18 3.06055 10.25 2.45055C10.11 2.36055 9.95003 2.31055 9.79003 2.31055C9.66003 2.31055 9.52003 2.34055 9.40003 2.41055C9.13003 2.56055 8.96003 2.83055 8.96003 3.14055V6.07055C8.96003 7.74055 7.77003 9.18055 6.14003 9.51055C4.63003 9.81055 3.53003 11.1505 3.53003 12.7005V16.2205C3.53003 17.5205 4.30003 18.6905 5.50003 19.2105L8.94003 20.6805C10.27 21.2505 11.68 21.5405 13.12 21.5405H15.78C16.54 21.5405 17.16 20.9205 17.16 20.1605C17.16 19.4005 16.54 18.7805 15.78 18.7805H14.15C14.01 18.7805 13.9 18.6705 13.9 18.5305C13.9 18.3905 14.01 18.2805 14.15 18.2805L14.16 18.2605Z" fill="black"/>
</svg>
