<svg width="24" height="24" viewBox="0 0 24 24" fill="none" xmlns="http://www.w3.org/2000/svg">
<path d="M19.51 7.25C19.25 7.25 18.99 7.3 18.76 7.38C18.7 6.19 17.71 5.25 16.51 5.25C16.15 5.25 15.82 5.33 15.52 5.48C15.15 4.75 14.39 4.25 13.51 4.25C12.63 4.25 11.88 4.75 11.5 5.48C11.2 5.33 10.86 5.25 10.51 5.25C9.26997 5.25 8.25997 6.26 8.25997 7.5V10.46C7.73997 9.96 7.06997 9.51 6.19997 9.28L5.54997 9.11C4.74997 8.9 3.91997 9.02 3.20997 9.43C2.67997 9.74 2.32997 10.27 2.25997 10.88C2.18997 11.5 2.40997 12.09 2.85997 12.52C3.81997 13.42 4.89997 14.76 5.38997 15.44C5.61997 15.76 5.72997 16.02 5.89997 16.41C6.00997 16.67 6.13997 16.96 6.31997 17.33C6.39997 17.49 6.47997 17.65 6.57997 17.82C7.56997 19.62 9.47997 20.74 11.58 20.74H14.79C17.69 20.74 20.03 19.1 20.75 16.57L21.33 14.54C21.6 13.58 21.74 12.58 21.74 11.59V9.49C21.74 8.25 20.73 7.24 19.49 7.24L19.51 7.25ZM20.26 11.6C20.26 12.46 20.14 13.31 19.9 14.14L19.32 16.17C18.78 18.07 17.05 19.25 14.8 19.25H11.59C10.04 19.25 8.62997 18.43 7.89997 17.11C7.81997 16.95 7.73997 16.81 7.66997 16.67C7.49997 16.33 7.37997 16.06 7.27997 15.82C7.08997 15.39 6.92997 15.01 6.59997 14.56C6.14997 13.94 4.99997 12.48 3.87997 11.43C3.76997 11.33 3.71997 11.19 3.73997 11.05C3.73997 10.97 3.78997 10.82 3.94997 10.72C4.19997 10.58 4.46997 10.5 4.74997 10.5C4.87997 10.5 5.01997 10.52 5.14997 10.55L5.79997 10.72C7.52997 11.18 8.20997 13.03 8.27997 13.24C8.39997 13.58 8.74997 13.8 9.10997 13.74C9.46997 13.68 9.73997 13.37 9.73997 13V7.5C9.73997 7.09 10.08 6.75 10.49 6.75C10.9 6.75 11.24 7.09 11.24 7.5V9C11.24 9.41 11.58 9.75 11.99 9.75C12.4 9.75 12.74 9.41 12.74 9V6.5C12.74 6.09 13.08 5.75 13.49 5.75C13.9 5.75 14.24 6.09 14.24 6.5V9C14.24 9.41 14.58 9.75 14.99 9.75C15.4 9.75 15.74 9.41 15.74 9V7.5C15.74 7.09 16.08 6.75 16.49 6.75C16.9 6.75 17.24 7.09 17.24 7.5V9.5C17.24 9.91 17.58 10.25 17.99 10.25C18.4 10.25 18.74 9.91 18.74 9.5C18.74 9.09 19.08 8.75 19.49 8.75C19.9 8.75 20.24 9.09 20.24 9.5V11.6H20.26Z" fill="black"/>
</svg>
