<svg width="24" height="24" viewBox="0 0 24 24" fill="none" xmlns="http://www.w3.org/2000/svg">
<path d="M18.5 9.25C18.14 9.25 17.81 9.33 17.51 9.48C17.14 8.75 16.38 8.25 15.5 8.25C15.24 8.25 14.98 8.29 14.75 8.38V4.5C14.75 3.26 13.74 2.25 12.5 2.25C11.26 2.25 10.32 3.19 10.25 4.38C10.01 4.3 9.76001 4.25 9.50001 4.25C8.26001 4.25 7.25001 5.26 7.25001 6.5V12.19L7.23001 12.17C6.68001 11.62 5.90001 11.39 5.14001 11.57C4.38001 11.75 3.78001 12.3 3.53001 13.04C3.30001 13.72 3.42001 14.47 3.83001 15.05L6.89001 19.34C7.97001 20.85 9.72001 21.75 11.57 21.75H14.23C16.78 21.75 19.06 20.04 19.76 17.58L20.34 15.55C20.61 14.59 20.75 13.6 20.75 12.6V11.5C20.75 10.26 19.74 9.25 18.5 9.25ZM19.25 12.6C19.25 13.46 19.13 14.31 18.89 15.14L18.31 17.17C17.79 18.98 16.11 20.25 14.22 20.25H11.56C10.19 20.25 8.90001 19.58 8.10001 18.47L5.04001 14.18C4.90001 13.99 4.87001 13.74 4.94001 13.52C5.06001 13.17 5.35001 13.06 5.47001 13.04C5.51001 13.04 5.57001 13.02 5.64001 13.02C5.79001 13.02 5.98001 13.06 6.16001 13.24L7.46001 14.54C7.67001 14.75 8.00001 14.82 8.28001 14.7C8.56001 14.58 8.74001 14.31 8.74001 14.01V6.5C8.74001 6.09 9.08001 5.75 9.49001 5.75C9.90001 5.75 10.24 6.09 10.24 6.5V12C10.24 12.41 10.58 12.75 10.99 12.75C11.4 12.75 11.74 12.41 11.74 12V4.5C11.74 4.09 12.08 3.75 12.49 3.75C12.9 3.75 13.24 4.09 13.24 4.5V12C13.24 12.41 13.58 12.75 13.99 12.75C14.4 12.75 14.74 12.41 14.74 12V10.5C14.74 10.09 15.08 9.75 15.49 9.75C15.9 9.75 16.24 10.09 16.24 10.5V12C16.24 12.41 16.58 12.75 16.99 12.75C17.4 12.75 17.74 12.41 17.74 12V11.5C17.74 11.09 18.08 10.75 18.49 10.75C18.9 10.75 19.24 11.09 19.24 11.5V12.6H19.25Z" fill="black"/>
</svg>
