<svg width="24" height="24" viewBox="0 0 24 24" fill="none" xmlns="http://www.w3.org/2000/svg">
<path d="M13.3 3.01934C13.04 2.72934 12.67 2.56934 12.29 2.56934C11.6 2.56934 11.01 3.08934 10.94 3.77934L10.02 12.0693C10.01 12.1893 9.91002 12.2793 9.79002 12.2893C9.67002 12.2893 9.56002 12.2193 9.53002 12.1093L7.70002 5.71934C7.53002 5.13934 6.99002 4.72934 6.39002 4.72934C5.96002 4.72934 5.57002 4.91934 5.31002 5.23934C5.05002 5.55934 4.95002 5.97934 5.04002 6.38934L6.77002 14.1493C6.80002 14.2793 6.72002 14.4193 6.58002 14.4493C6.56002 14.4493 6.54002 14.4493 6.53002 14.4493C6.41002 14.4493 6.31002 14.3693 6.29002 14.2493L5.57002 11.0193C5.21002 11.3793 4.87002 11.7593 4.58002 12.1793C3.85002 13.2393 3.72002 14.5493 4.21002 15.7093L5.36002 18.3893C6.17002 20.2893 8.03003 21.5093 10.1 21.5093H13.27C15.56 21.5093 17.6 19.9693 18.22 17.7693L18.85 15.5793C19.12 14.6393 19.26 13.6593 19.26 12.6793V11.4893C19.26 10.7293 18.65 10.1193 17.89 10.1193C17.13 10.1193 16.52 10.7293 16.52 11.4893V12.0293C16.52 12.1693 16.41 12.2793 16.27 12.2793C16.13 12.2793 16.02 12.1693 16.02 12.0293V10.4093C16.02 9.64934 15.41 9.03934 14.65 9.03934C14.22 9.03934 13.83 9.22934 13.57 9.56934C13.57 9.56934 13.57 9.56934 13.56 9.56934L13.28 12.0493C13.27 12.1893 13.14 12.2793 13 12.2693C12.86 12.2493 12.76 12.1293 12.78 11.9893L13.66 4.05934C13.7 3.67934 13.58 3.28934 13.32 2.99934L13.3 3.01934Z" fill="black"/>
</svg>
