<svg width="24" height="24" viewBox="0 0 24 24" fill="none" xmlns="http://www.w3.org/2000/svg">
<path d="M7.54002 14.2L6.15002 12.81C5.90002 12.56 5.57002 12.42 5.22002 12.42C5.12002 12.42 5.02002 12.43 4.91002 12.46C4.46002 12.57 4.11002 12.89 3.96002 13.33C3.83002 13.73 3.89002 14.17 4.14002 14.52L7.41002 19.1C8.36002 20.43 9.90002 21.22 11.54 21.22H14.37C16.62 21.22 18.63 19.71 19.25 17.54L19.87 15.38C20.14 14.45 20.27 13.49 20.27 12.52V8.14004C20.27 7.40004 19.67 6.81004 18.94 6.81004C18.21 6.81004 17.61 7.41004 17.61 8.14004V11.88C17.61 12.03 17.49 12.15 17.34 12.15C17.19 12.15 17.07 12.03 17.07 11.88V6.00004C17.07 5.26004 16.47 4.67004 15.74 4.67004C15.01 4.67004 14.41 5.27004 14.41 6.00004V11.87C14.41 12.02 14.29 12.14 14.14 12.14C13.99 12.14 13.87 12.02 13.87 11.87V3.87004C13.87 3.13004 13.27 2.54004 12.54 2.54004C11.81 2.54004 11.21 3.14004 11.21 3.87004V11.88C11.21 12.03 11.09 12.15 10.94 12.15C10.79 12.15 10.67 12.03 10.67 11.88V7.07004C10.67 6.33004 10.07 5.74004 9.34002 5.74004C8.61002 5.74004 8.01002 6.34004 8.01002 7.07004V14.01C8.01002 14.12 7.94002 14.22 7.85002 14.26C7.75002 14.3 7.64002 14.28 7.56002 14.2H7.54002Z" fill="black"/>
</svg>
