<svg width="24" height="24" viewBox="0 0 24 24" fill="none" xmlns="http://www.w3.org/2000/svg">
<path d="M12.0201 9.70937H20.1001C20.8501 9.70937 21.4701 9.09937 21.4701 8.33938C21.4701 7.57938 20.8601 6.96937 20.1001 6.96937H9.86007C9.72007 6.96937 9.61007 6.85937 9.61007 6.71937C9.61007 6.57937 9.72007 6.46937 9.86007 6.46937H13.6701C13.1601 5.80937 12.5501 5.23937 11.8701 4.76937C11.2301 4.32937 10.5101 4.10938 9.78007 4.10938C9.30007 4.10938 8.81007 4.20937 8.35007 4.40937L5.68007 5.55937C3.79007 6.36937 2.57007 8.21937 2.57007 10.2794V13.4394C2.57007 15.7194 4.10007 17.7494 6.30007 18.3794L8.48007 18.9994C9.42007 19.2694 10.3901 19.3994 11.3701 19.3994H12.5501C13.3001 19.3994 13.9201 18.7894 13.9201 18.0294C13.9201 17.2694 13.3101 16.6594 12.5501 16.6594H12.0101C11.8701 16.6594 11.7601 16.5494 11.7601 16.4094C11.7601 16.2694 11.8701 16.1594 12.0101 16.1594H13.6301C14.3801 16.1594 15.0001 15.5494 15.0001 14.7894C15.0001 14.0294 14.3901 13.4194 13.6301 13.4194H12.0101C11.8701 13.4194 11.7601 13.3094 11.7601 13.1694C11.7601 13.0294 11.8701 12.9194 12.0101 12.9194H13.6301C14.3801 12.9194 15.0001 12.3094 15.0001 11.5494C15.0001 10.7894 14.3901 10.1794 13.6301 10.1794H12.0101C11.8701 10.1794 11.7601 10.0694 11.7601 9.92938C11.7601 9.78938 11.8701 9.67938 12.0101 9.67938L12.0201 9.70937Z" fill="black"/>
</svg>
