<svg width="24" height="24" viewBox="0 0 24 24" fill="none" xmlns="http://www.w3.org/2000/svg">
<path d="M14.6699 8.8598C13.8999 8.8598 13.2799 9.4798 13.2799 10.2498V11.8898C13.2799 12.0298 13.1699 12.1398 13.0299 12.1398C12.8899 12.1398 12.7799 12.0298 12.7799 11.8898V3.6898C12.7799 2.9198 12.1599 2.2998 11.3899 2.2998C10.6199 2.2998 9.99993 2.9198 9.99993 3.6898V11.8798C9.99993 12.0198 9.88993 12.1298 9.74993 12.1298C9.60993 12.1298 9.49993 12.0198 9.49993 11.8798V5.8798C9.49993 5.1098 8.87993 4.4898 8.10993 4.4898C7.33993 4.4898 6.71993 5.1098 6.71993 5.8798V14.0698C6.71993 14.2098 6.60993 14.3198 6.46993 14.3198C6.32993 14.3198 6.21993 14.2098 6.21993 14.0698V10.1998C5.54993 10.7198 4.96993 11.3398 4.48993 12.0298C3.74993 13.0998 3.61993 14.4298 4.11993 15.5998L5.27993 18.3098C6.09993 20.2298 7.97993 21.4698 10.0699 21.4698H13.2699C15.5799 21.4698 17.6499 19.9198 18.2799 17.6898L18.9099 15.4798C19.1799 14.5298 19.3199 13.5398 19.3199 12.5498V8.0698C19.3199 7.2998 18.6999 6.6798 17.9299 6.6798C17.1599 6.6798 16.5399 7.2998 16.5399 8.0698V11.8898C16.5399 12.0298 16.4299 12.1398 16.2899 12.1398C16.1499 12.1398 16.0399 12.0298 16.0399 11.8898V10.2498C16.0399 9.4798 15.4199 8.8598 14.6499 8.8598H14.6699Z" fill="black"/>
</svg>
