<svg width="24" height="24" viewBox="0 0 24 24" fill="none" xmlns="http://www.w3.org/2000/svg">
<path d="M8.85993 2.62988C5.99993 2.62988 3.67993 4.94988 3.67993 7.80988V15.9499C3.67993 16.7099 4.29993 17.3299 5.05993 17.3299C5.81993 17.3299 6.43993 16.7099 6.43993 15.9499V12.1499C6.43993 12.0099 6.54993 11.8999 6.68993 11.8999C6.82993 11.8999 6.93993 12.0099 6.93993 12.1499V18.1299C6.93993 18.8899 7.55993 19.5099 8.31993 19.5099C9.07993 19.5099 9.69993 18.8899 9.69993 18.1299V12.1499C9.69993 12.0099 9.80993 11.8999 9.94993 11.8999C10.0899 11.8999 10.1999 12.0099 10.1999 12.1499V20.2999C10.1999 21.0599 10.8199 21.6799 11.5799 21.6799C12.3399 21.6799 12.9599 21.0599 12.9599 20.2999V12.1499C12.9599 12.0099 13.0699 11.8999 13.2099 11.8999C13.3499 11.8999 13.4599 12.0099 13.4599 12.1499V18.1299C13.4599 18.8899 14.0799 19.5099 14.8399 19.5099C15.5999 19.5099 16.2199 18.8899 16.2199 18.1299V7.80988C16.2199 4.94988 13.8999 2.62988 11.0399 2.62988H8.85993Z" fill="black"/>
<path d="M20.5499 9.46988L16.6599 7.13988C16.6899 7.35988 16.6999 7.57988 16.6999 7.80988V10.9099L19.0999 12.1099C19.4899 12.3099 19.9499 12.3199 20.3499 12.1499C20.7499 11.9799 21.0599 11.6499 21.1999 11.2299C21.4299 10.5599 21.1599 9.82988 20.5499 9.45988V9.46988Z" fill="black"/>
</svg>
