<svg width="24" height="24" viewBox="0 0 24 24" fill="none" xmlns="http://www.w3.org/2000/svg">
<path d="M17.5 7.25C17.14 7.25 16.81 7.33 16.51 7.48C16.14 6.75 15.38 6.25 14.5 6.25C14.14 6.25 13.81 6.33 13.51 6.48C13.14 5.75 12.38 5.25 11.5 5.25C10.62 5.25 9.86998 5.75 9.48998 6.48C9.18998 6.33 8.84998 6.25 8.49998 6.25C7.25998 6.25 6.24998 7.26 6.24998 8.5V8.62C5.52998 9.17 4.89998 9.83 4.36998 10.6C3.51998 11.84 3.35998 13.4 3.94998 14.79L5.00998 17.27C5.91999 19.39 7.98998 20.75 10.3 20.75H13.23C15.78 20.75 18.06 19.04 18.76 16.58L19.34 14.55C19.61 13.59 19.75 12.59 19.75 11.6V9.5C19.75 8.26 18.74 7.25 17.5 7.25ZM18.25 11.6C18.25 12.46 18.13 13.31 17.89 14.14L17.31 16.17C16.79 17.98 15.11 19.25 13.22 19.25H10.29C8.58998 19.25 7.04998 18.24 6.37998 16.67L5.31998 14.19C4.92998 13.28 5.02998 12.26 5.60998 11.42C5.79998 11.14 6.00998 10.88 6.23998 10.63V12.99C6.23998 13.4 6.57998 13.74 6.98998 13.74C7.39998 13.74 7.73998 13.4 7.73998 12.99V8.49C7.73998 8.08 8.07998 7.74 8.48998 7.74C8.89998 7.74 9.23998 8.08 9.23998 8.49V10.99C9.23998 11.4 9.57998 11.74 9.98998 11.74C10.4 11.74 10.74 11.4 10.74 10.99V7.49C10.74 7.08 11.08 6.74 11.49 6.74C11.9 6.74 12.24 7.08 12.24 7.49V10.99C12.24 11.4 12.58 11.74 12.99 11.74C13.4 11.74 13.74 11.4 13.74 10.99V8.49C13.74 8.08 14.08 7.74 14.49 7.74C14.9 7.74 15.24 8.08 15.24 8.49V10.99C15.24 11.4 15.58 11.74 15.99 11.74C16.4 11.74 16.74 11.4 16.74 10.99V9.49C16.74 9.08 17.08 8.74 17.49 8.74C17.9 8.74 18.24 9.08 18.24 9.49V11.59L18.25 11.6Z" fill="black"/>
</svg>
