<svg width="24" height="24" viewBox="0 0 24 24" fill="none" xmlns="http://www.w3.org/2000/svg">
<path d="M4.71992 11.0207C3.98992 12.0807 3.85992 13.3907 4.34992 14.5407L5.49992 17.2207C6.30992 19.1107 8.16992 20.3407 10.2299 20.3407H13.3899C15.6799 20.3407 17.7099 18.8107 18.3399 16.6107L18.9599 14.4207C19.2299 13.4807 19.3699 12.5007 19.3699 11.5207V9.2507C19.3699 8.5007 18.7599 7.8807 17.9999 7.8807C17.2399 7.8807 16.6299 8.4907 16.6299 9.2507V10.8707C16.6299 11.0107 16.5199 11.1207 16.3799 11.1207C16.2399 11.1207 16.1299 11.0107 16.1299 10.8707V8.1707C16.1299 7.4207 15.5199 6.8007 14.7599 6.8007C13.9999 6.8007 13.3899 7.4107 13.3899 8.1707V10.8707C13.3899 11.0107 13.2799 11.1207 13.1399 11.1207C12.9999 11.1207 12.8899 11.0107 12.8899 10.8707V7.0907C12.8899 6.3407 12.2799 5.7207 11.5199 5.7207C10.7599 5.7207 10.1499 6.3307 10.1499 7.0907V10.8707C10.1499 11.0107 10.0399 11.1207 9.89992 11.1207C9.75992 11.1207 9.64992 11.0107 9.64992 10.8707V8.1707C9.64992 7.4207 9.03992 6.8007 8.27992 6.8007C7.51992 6.8007 6.90992 7.4107 6.90992 8.1707V13.0307C6.90992 13.1707 6.79992 13.2807 6.65992 13.2807C6.51992 13.2807 6.40992 13.1707 6.40992 13.0307V9.2107C5.74992 9.7207 5.17992 10.3307 4.70992 11.0207H4.71992Z" fill="black"/>
</svg>
