<svg width="24" height="24" viewBox="0 0 24 24" fill="none" xmlns="http://www.w3.org/2000/svg">
<path d="M19.5 6.2495H14.38C13.83 5.5295 13.17 4.8995 12.4 4.3695C11.16 3.5195 9.6 3.3595 8.21 3.9495L5.73 5.0095C3.61 5.9195 2.25 7.9895 2.25 10.2995V13.2295C2.25 15.7795 3.96 18.0595 6.42 18.7595L8.45 19.3395C9.41 19.6095 10.4 19.7495 11.4 19.7495H12.5C13.74 19.7495 14.75 18.7395 14.75 17.4995C14.75 17.1395 14.67 16.8095 14.52 16.5095C15.25 16.1395 15.75 15.3795 15.75 14.4995C15.75 13.9195 15.53 13.3995 15.18 12.9995C15.54 12.5995 15.75 12.0795 15.75 11.4995C15.75 11.2395 15.7 10.9795 15.62 10.7495H19.5C20.74 10.7495 21.75 9.7395 21.75 8.4995C21.75 7.2595 20.74 6.2495 19.5 6.2495ZM19.5 9.2495H12C11.59 9.2495 11.25 9.5895 11.25 9.9995C11.25 10.4095 11.59 10.7495 12 10.7495H13.5C13.91 10.7495 14.25 11.0895 14.25 11.4995C14.25 11.9095 13.91 12.2495 13.5 12.2495H12C11.59 12.2495 11.25 12.5895 11.25 12.9995C11.25 13.4095 11.59 13.7495 12 13.7495H13.5C13.91 13.7495 14.25 14.0895 14.25 14.4995C14.25 14.9095 13.91 15.2495 13.5 15.2495H12C11.59 15.2495 11.25 15.5895 11.25 15.9995C11.25 16.4095 11.59 16.7495 12 16.7495H12.5C12.91 16.7495 13.25 17.0895 13.25 17.4995C13.25 17.9095 12.91 18.2495 12.5 18.2495H11.4C10.54 18.2495 9.69 18.1295 8.86 17.8895L6.83 17.3095C5.02 16.7895 3.75 15.1095 3.75 13.2195V10.2895C3.75 8.5895 4.76 7.0495 6.33 6.3795L8.81 5.3195C9.17 5.1695 9.55 5.0895 9.93 5.0895C10.5 5.0895 11.07 5.2595 11.58 5.6095C11.86 5.7995 12.12 6.0095 12.37 6.2395H10.01C9.6 6.2395 9.26 6.5795 9.26 6.9895C9.26 7.3995 9.6 7.7395 10.01 7.7395H19.51C19.92 7.7395 20.26 8.0795 20.26 8.4895C20.26 8.8995 19.92 9.2395 19.51 9.2395L19.5 9.2495Z" fill="black"/>
</svg>
