<svg width="24" height="24" viewBox="0 0 24 24" fill="none" xmlns="http://www.w3.org/2000/svg">
<path d="M4.63007 12.2094C3.90007 13.2694 3.77007 14.5794 4.26007 15.7294L5.41007 18.3994C6.22007 20.2894 8.08007 21.5194 10.1301 21.5194H13.2901C15.5701 21.5194 17.6101 19.9894 18.2301 17.7894L18.8501 15.5994C19.1201 14.6594 19.2601 13.6894 19.2601 12.7094V3.97938C19.2601 3.22938 18.6501 2.60938 17.8901 2.60938C17.1301 2.60938 16.5201 3.21938 16.5201 3.97938V12.0694C16.5201 12.2094 16.4101 12.3194 16.2701 12.3194C16.1301 12.3194 16.0201 12.2094 16.0201 12.0694V9.36938C16.0201 8.61938 15.4101 7.99938 14.6501 7.99938C13.8901 7.99938 13.2801 8.60938 13.2801 9.36938V12.0694C13.2801 12.2094 13.1701 12.3194 13.0301 12.3194C12.8901 12.3194 12.7801 12.2094 12.7801 12.0694V8.29938C12.7801 7.54938 12.1701 6.92937 11.4101 6.92937C10.6501 6.92937 10.0401 7.53938 10.0401 8.29938V12.0694C10.0401 12.2094 9.93007 12.3194 9.79007 12.3194C9.65007 12.3194 9.54007 12.2094 9.54007 12.0694V9.36938C9.54007 8.61938 8.93007 7.99938 8.17007 7.99938C7.41007 7.99938 6.80007 8.60938 6.80007 9.36938V14.2194C6.80007 14.3594 6.69007 14.4694 6.55007 14.4694C6.41007 14.4694 6.30007 14.3594 6.30007 14.2194V10.3994C5.64007 10.9094 5.07007 11.5194 4.60007 12.1994L4.63007 12.2094Z" fill="black"/>
</svg>
