<svg width="24" height="24" viewBox="0 0 24 24" fill="none" xmlns="http://www.w3.org/2000/svg">
<path d="M4.61993 12.13C3.87993 13.2 3.74993 14.51 4.24993 15.68L5.40993 18.37C6.22993 20.28 8.09993 21.51 10.1699 21.51H13.3499C15.6499 21.51 17.6999 19.97 18.3299 17.75L18.9599 15.55C19.2299 14.6 19.3699 13.62 19.3699 12.63V7.09996C19.3699 6.33996 18.7499 5.71996 17.9899 5.71996C17.2299 5.71996 16.6099 6.33996 16.6099 7.09996V11.99C16.6099 12.13 16.4999 12.24 16.3599 12.24C16.2199 12.24 16.1099 12.13 16.1099 11.99V10.36C16.1099 9.59996 15.4899 8.97996 14.7299 8.97996C13.9699 8.97996 13.3499 9.59996 13.3499 10.36V11.99C13.3499 12.13 13.2399 12.24 13.0999 12.24C12.9599 12.24 12.8499 12.13 12.8499 11.99V10.31C12.8499 9.57996 12.2499 8.97996 11.5199 8.97996C10.7099 8.97996 10.0899 9.59996 10.0899 10.36V11.99C10.0899 12.13 9.97993 12.24 9.83993 12.24C9.69993 12.24 9.58993 12.13 9.58993 11.99V3.83996C9.58993 3.07996 8.96993 2.45996 8.20993 2.45996C7.44993 2.45996 6.82993 3.07996 6.82993 3.83996V14.16C6.82993 14.3 6.71993 14.41 6.57993 14.41C6.43993 14.41 6.32993 14.3 6.32993 14.16V10.31C5.66993 10.83 5.08993 11.44 4.60993 12.13H4.61993Z" fill="black"/>
</svg>
