<svg width="24" height="24" viewBox="0 0 24 24" fill="none" xmlns="http://www.w3.org/2000/svg">
<path d="M4.70002 12.1793C3.97002 13.2393 3.84002 14.5493 4.33002 15.6993L5.48002 18.3793C6.29002 20.2693 8.15002 21.4993 10.21 21.4993H13.37C15.66 21.4993 17.69 19.9693 18.32 17.7693L18.95 15.5793C19.22 14.6393 19.36 13.6593 19.36 12.6793V11.4893C19.36 10.7393 18.75 10.1193 17.99 10.1193C17.23 10.1193 16.62 10.7293 16.62 11.4893V12.0293C16.62 12.1693 16.51 12.2793 16.37 12.2793C16.23 12.2793 16.12 12.1693 16.12 12.0293V10.4093C16.12 9.65934 15.51 9.03934 14.75 9.03934C13.99 9.03934 13.38 9.64934 13.38 10.4093V12.0293C13.38 12.1693 13.27 12.2793 13.13 12.2793C12.99 12.2793 12.88 12.1693 12.88 12.0293V10.4093C12.88 9.65934 12.27 9.03934 11.51 9.03934C10.75 9.03934 10.14 9.64934 10.14 10.4093V12.0293C10.14 12.1693 10.03 12.2793 9.89002 12.2793C9.75002 12.2793 9.64002 12.1693 9.64002 12.0293V3.93934C9.64002 3.18934 9.03002 2.56934 8.27002 2.56934C7.51002 2.56934 6.90002 3.17934 6.90002 3.93934V14.1893C6.90002 14.3293 6.79002 14.4393 6.65002 14.4393C6.51002 14.4393 6.40002 14.3293 6.40002 14.1893V10.3693C5.74002 10.8893 5.17002 11.4893 4.70002 12.1793Z" fill="black"/>
</svg>
