<svg width="24" height="24" viewBox="0 0 24 24" fill="none" xmlns="http://www.w3.org/2000/svg">
<path d="M18.5 6.25C18.24 6.25 17.98 6.3 17.75 6.38C17.69 5.19 16.7 4.25 15.5 4.25C15.24 4.25 14.98 4.3 14.75 4.38C14.69 3.19 13.7 2.25 12.5 2.25C11.3 2.25 10.25 3.26 10.25 4.5V5.38C10.02 5.3 9.76 5.25 9.5 5.25C8.26 5.25 7.25 6.26 7.25 7.5V12.19L7.23 12.17C6.68 11.62 5.9 11.4 5.13 11.57C4.37 11.75 3.77 12.3 3.52 13.04C3.29 13.72 3.41 14.47 3.82 15.05L6.88 19.34C7.96 20.85 9.71 21.75 11.56 21.75H14.22C16.77 21.75 19.05 20.04 19.75 17.58L20.33 15.55C20.6 14.59 20.74 13.6 20.74 12.6V8.5C20.74 7.26 19.73 6.25 18.49 6.25H18.5ZM19.25 12.6C19.25 13.46 19.13 14.31 18.89 15.14L18.31 17.17C17.79 18.98 16.11 20.25 14.22 20.25H11.56C10.19 20.25 8.9 19.58 8.1 18.47L5.04 14.18C4.9 13.99 4.87 13.74 4.94 13.52C5.06 13.17 5.35 13.06 5.47 13.04C5.51 13.04 5.57 13.02 5.64 13.02C5.79 13.02 5.98 13.06 6.16 13.24L7.46 14.54C7.67 14.76 8 14.82 8.28 14.7C8.56 14.58 8.74 14.31 8.74 14.01V7.5C8.74 7.09 9.08 6.75 9.49 6.75C9.9 6.75 10.24 7.09 10.24 7.5V12C10.24 12.41 10.58 12.75 10.99 12.75C11.4 12.75 11.74 12.41 11.74 12V4.5C11.74 4.09 12.08 3.75 12.49 3.75C12.9 3.75 13.24 4.09 13.24 4.5V12C13.24 12.41 13.58 12.75 13.99 12.75C14.4 12.75 14.74 12.41 14.74 12V6.5C14.74 6.09 15.08 5.75 15.49 5.75C15.9 5.75 16.24 6.09 16.24 6.5V12C16.24 12.41 16.58 12.75 16.99 12.75C17.4 12.75 17.74 12.41 17.74 12V8.5C17.74 8.09 18.08 7.75 18.49 7.75C18.9 7.75 19.24 8.09 19.24 8.5V12.6H19.25Z" fill="black"/>
</svg>
