<svg width="24" height="24" viewBox="0 0 24 24" fill="none" xmlns="http://www.w3.org/2000/svg">
<path d="M17.4999 9.25C17.1399 9.25 16.8099 9.33 16.5099 9.48C16.1399 8.75 15.3799 8.25 14.4999 8.25C14.3899 8.25 14.2799 8.27 14.1699 8.29L14.5599 4.74C14.6299 4.11 14.4299 3.47 13.9999 3C13.5699 2.53 12.9699 2.25 12.3299 2.25C11.1899 2.25 10.2299 3.11 10.0999 4.24L9.66993 8.13L9.01993 5.87C8.74993 4.91 7.85993 4.24 6.84993 4.24C6.16993 4.24 5.52993 4.55 5.09993 5.08C4.66993 5.61 4.50993 6.3 4.65993 6.97L5.40993 10.35C5.02993 10.73 4.66993 11.13 4.35993 11.59C3.49993 12.83 3.34993 14.4 3.93993 15.78L4.99993 18.26C5.90993 20.38 7.97993 21.74 10.2899 21.74H13.2199C15.7699 21.74 18.0499 20.03 18.7499 17.57L19.3299 15.54C19.5999 14.58 19.7399 13.58 19.7399 12.59V11.49C19.7399 10.25 18.7299 9.24 17.4899 9.24L17.4999 9.25ZM18.2499 12.6C18.2499 13.46 18.1299 14.31 17.8899 15.14L17.3099 17.17C16.7899 18.98 15.1099 20.25 13.2199 20.25H10.2899C8.58993 20.25 7.04993 19.24 6.37993 17.67L5.31993 15.19C4.92993 14.28 5.02993 13.26 5.60993 12.42C5.66993 12.33 5.74993 12.24 5.81993 12.16L6.25993 14.16C6.33993 14.51 6.64993 14.75 6.98993 14.75C7.03993 14.75 7.09993 14.75 7.14993 14.73C7.54993 14.64 7.80993 14.24 7.71993 13.84L6.11993 6.65C6.06993 6.43 6.11993 6.2 6.25993 6.03C6.58993 5.61 7.40993 5.74 7.56993 6.29L9.25993 12.21C9.35993 12.55 9.68993 12.78 10.0399 12.75C10.3999 12.72 10.6799 12.44 10.7199 12.09L11.5699 4.42C11.6099 4.04 11.9299 3.76 12.3099 3.76C12.5199 3.76 12.7199 3.85 12.8599 4.01C12.9999 4.17 13.0699 4.37 13.0399 4.59L12.2199 11.93C12.1699 12.34 12.4699 12.71 12.8799 12.76C13.2999 12.8 13.6599 12.51 13.7099 12.1L13.9399 10C14.0799 9.86 14.2599 9.77 14.4599 9.77C14.8699 9.77 15.2099 10.11 15.2099 10.52V12.02C15.2099 12.43 15.5499 12.77 15.9599 12.77C16.3699 12.77 16.7099 12.43 16.7099 12.02V11.52C16.7099 11.11 17.0499 10.77 17.4599 10.77C17.8699 10.77 18.2099 11.11 18.2099 11.52V12.62L18.2499 12.6Z" fill="black"/>
</svg>
