<svg width="24" height="24" viewBox="0 0 24 24" fill="none" xmlns="http://www.w3.org/2000/svg">
<path d="M17.5 5.24977C16.26 5.24977 15.25 6.25977 15.25 7.49977V8.37977C14.51 8.10977 13.59 8.29977 13.01 8.81977C12.43 8.30976 11.51 8.11977 10.75 8.38977V4.50977C10.75 3.26977 9.73998 2.25977 8.49998 2.25977C7.25998 2.25977 6.24998 3.26977 6.24998 4.50977V9.62977C5.52998 10.1798 4.89998 10.8398 4.36998 11.6098C3.51998 12.8498 3.35998 14.4098 3.94998 15.7998L5.00998 18.2798C5.91999 20.3998 7.98998 21.7598 10.3 21.7598H13.23C15.78 21.7598 18.06 20.0498 18.76 17.5898L19.34 15.5598C19.61 14.5998 19.75 13.5998 19.75 12.6098V7.49977C19.75 6.25977 18.74 5.24977 17.5 5.24977ZM18.25 12.5998C18.25 13.4598 18.13 14.3098 17.89 15.1398L17.31 17.1698C16.79 18.9798 15.11 20.2498 13.22 20.2498H10.29C8.58998 20.2498 7.04998 19.2398 6.37998 17.6698L5.31998 15.1898C4.92998 14.2798 5.02998 13.2598 5.60998 12.4198C5.79998 12.1398 6.00998 11.8798 6.23998 11.6298V13.9898C6.23998 14.3998 6.57998 14.7398 6.98998 14.7398C7.39998 14.7398 7.73998 14.3998 7.73998 13.9898V4.49977C7.73998 4.08977 8.07998 3.74977 8.48998 3.74977C8.89998 3.74977 9.23998 4.08977 9.23998 4.49977V11.9998C9.23998 12.4098 9.57998 12.7498 9.98998 12.7498C10.4 12.7498 10.74 12.4098 10.74 11.9998V10.4998C10.74 10.0898 11.08 9.74977 11.53 9.74977C11.92 9.74977 12.24 10.0698 12.24 10.4598V11.9998C12.24 12.4098 12.58 12.7498 12.99 12.7498C13.4 12.7498 13.74 12.4098 13.74 11.9998V10.4998C13.74 10.0898 14.08 9.74977 14.49 9.74977C14.9 9.74977 15.24 10.0898 15.24 10.4998V11.9998C15.24 12.4098 15.58 12.7498 15.99 12.7498C16.4 12.7498 16.74 12.4098 16.74 11.9998V7.49977C16.74 7.08977 17.08 6.74977 17.49 6.74977C17.9 6.74977 18.24 7.08977 18.24 7.49977V12.5998H18.25Z" fill="black"/>
</svg>
