<svg width="24" height="24" viewBox="0 0 24 24" fill="none" xmlns="http://www.w3.org/2000/svg">
<path d="M20.75 13.5C20.75 12.63 20.25 11.87 19.52 11.49C19.67 11.19 19.75 10.85 19.75 10.5C19.75 9.26001 18.74 8.25001 17.5 8.25001H12.75V5.76001C12.75 4.41001 12.08 3.15001 10.95 2.40001C10.42 2.04001 9.72999 2.01001 9.15999 2.31001C8.58999 2.61001 8.23999 3.20001 8.23999 3.84001V6.53001C8.23999 7.60001 7.47999 8.53001 6.42999 8.74001C4.57999 9.11001 3.23999 10.75 3.23999 12.63V15.87C3.23999 17.46 4.17999 18.89 5.64999 19.52L8.80999 20.88C10.16 21.46 11.58 21.75 13.04 21.75H15.49C16.73 21.75 17.74 20.74 17.74 19.5C17.74 19.24 17.69 18.98 17.61 18.75C18.8 18.69 19.74 17.7 19.74 16.5C19.74 16.14 19.66 15.81 19.51 15.51C20.24 15.14 20.74 14.38 20.74 13.5H20.75ZM18.5 14.25H14C13.59 14.25 13.25 14.59 13.25 15C13.25 15.41 13.59 15.75 14 15.75H17.5C17.91 15.75 18.25 16.09 18.25 16.5C18.25 16.91 17.91 17.25 17.5 17.25H14C13.59 17.25 13.25 17.59 13.25 18C13.25 18.41 13.59 18.75 14 18.75H15.5C15.91 18.75 16.25 19.09 16.25 19.5C16.25 19.91 15.91 20.25 15.5 20.25H13.05C11.79 20.25 10.56 20 9.40999 19.5L6.24999 18.14C5.33999 17.75 4.74999 16.86 4.74999 15.87V12.63C4.74999 11.46 5.57999 10.44 6.73999 10.21C8.48999 9.86001 9.74999 8.31001 9.74999 6.53001V3.85001C9.74999 3.72001 9.82999 3.66001 9.87999 3.64001C9.90999 3.63001 9.94999 3.61001 9.98999 3.61001C10.03 3.61001 10.07 3.61001 10.12 3.65001C10.83 4.12001 11.25 4.91001 11.25 5.76001V9.00001C11.25 9.41001 11.59 9.75001 12 9.75001H17.5C17.91 9.75001 18.25 10.09 18.25 10.5C18.25 10.91 17.91 11.25 17.5 11.25H14C13.59 11.25 13.25 11.59 13.25 12C13.25 12.41 13.59 12.75 14 12.75H18.5C18.91 12.75 19.25 13.09 19.25 13.5C19.25 13.91 18.91 14.25 18.5 14.25Z" fill="black"/>
</svg>
