<svg width="24" height="24" viewBox="0 0 24 24" fill="none" xmlns="http://www.w3.org/2000/svg">
<path d="M4.65998 12.1305C3.92998 13.1905 3.79998 14.5005 4.28998 15.6605L5.43998 18.3405C6.24998 20.2405 8.10998 21.4605 10.18 21.4605H13.35C15.64 21.4605 17.68 19.9205 18.3 17.7205L18.93 15.5305C19.2 14.5905 19.34 13.6105 19.34 12.6305V11.4405C19.34 10.6805 18.73 10.0705 17.97 10.0705C17.21 10.0705 16.6 10.6805 16.6 11.4405V11.9805C16.6 12.1205 16.49 12.2305 16.35 12.2305C16.21 12.2305 16.1 12.1205 16.1 11.9805V6.05051C16.1 5.29051 15.48 4.68051 14.73 4.68051C13.98 4.68051 13.36 5.29051 13.36 6.05051V11.9905C13.36 12.1305 13.25 12.2405 13.11 12.2405C12.97 12.2405 12.86 12.1305 12.86 11.9905V3.89051C12.86 3.13051 12.24 2.52051 11.49 2.52051C10.74 2.52051 10.12 3.13051 10.12 3.89051V11.9905C10.12 12.1305 10.01 12.2405 9.86998 12.2405C9.72998 12.2405 9.61998 12.1305 9.61998 11.9905V7.13051C9.61998 6.37051 8.99998 5.76051 8.24998 5.76051C7.49998 5.76051 6.87998 6.37051 6.87998 7.13051V14.1505C6.87998 14.2905 6.76998 14.4005 6.62998 14.4005C6.48998 14.4005 6.37998 14.2905 6.37998 14.1505V10.3205C5.71998 10.8305 5.14998 11.4405 4.66998 12.1305H4.65998Z" fill="black"/>
</svg>
