<svg width="24" height="24" viewBox="0 0 24 24" fill="none" xmlns="http://www.w3.org/2000/svg">
<path d="M5.02993 12.4198C4.91993 12.4198 4.81993 12.4298 4.70993 12.4598C4.23993 12.5698 3.86993 12.9098 3.71993 13.3598C3.57993 13.7798 3.64993 14.2398 3.90993 14.5898L7.25993 19.2798C8.23993 20.6498 9.81993 21.4598 11.4999 21.4598H14.3999C16.7099 21.4598 18.7799 19.9098 19.4099 17.6798L20.0399 15.4698C20.3099 14.5198 20.4499 13.5298 20.4499 12.5398V6.9698C20.4499 6.1998 19.8299 5.5798 19.0599 5.5798C18.2899 5.5798 17.6699 6.1998 17.6699 6.9698V11.8898C17.6699 12.0298 17.5599 12.1398 17.4199 12.1398C17.2799 12.1398 17.1699 12.0298 17.1699 11.8898V10.2498C17.1699 9.4798 16.5499 8.8598 15.7799 8.8598C15.0099 8.8598 14.3899 9.4798 14.3899 10.2498V11.8898C14.3899 12.0298 14.2799 12.1398 14.1399 12.1398C13.9999 12.1398 13.8899 12.0298 13.8899 11.8898V10.2498C13.8899 9.4798 13.2699 8.8598 12.4999 8.8598C11.7299 8.8598 11.1099 9.4798 11.1099 10.2498V11.8898C11.1099 12.0298 10.9999 12.1398 10.8599 12.1398C10.7199 12.1398 10.6099 12.0298 10.6099 11.8898V3.6898C10.6099 2.9198 9.98993 2.2998 9.21993 2.2998C8.44993 2.2998 7.82993 2.9198 7.82993 3.6898V14.0698C7.82993 14.1698 7.76993 14.2598 7.67993 14.2998C7.57993 14.3398 7.47993 14.3198 7.40993 14.2498L5.98993 12.8298C5.72993 12.5698 5.37993 12.4298 5.01993 12.4298L5.02993 12.4198Z" fill="black"/>
</svg>
