<svg width="24" height="24" viewBox="0 0 24 24" fill="none" xmlns="http://www.w3.org/2000/svg">
<path d="M20.3299 13.1701L21.0799 7.18012C21.1299 6.78012 21.0099 6.39012 20.7399 6.09012C20.4799 5.79012 20.0999 5.62012 19.6999 5.62012C19.0199 5.62012 18.4399 6.11012 18.3299 6.78012L17.4799 11.9101C17.4599 12.0401 17.3499 12.1401 17.2099 12.1201C17.0799 12.1101 16.9799 12.0001 16.9799 11.8701V10.2401C16.9799 9.48012 16.3599 8.86012 15.5999 8.86012C14.8399 8.86012 14.2199 9.48012 14.2199 10.2401V11.8701C14.2199 12.0101 14.1099 12.1201 13.9699 12.1201C13.8299 12.1201 13.7199 12.0101 13.7199 11.8701V10.2401C13.7199 9.48012 13.0999 8.86012 12.3399 8.86012C11.5799 8.86012 10.9599 9.48012 10.9599 10.2401V11.8701C10.9599 12.0101 10.8499 12.1201 10.7099 12.1201C10.5699 12.1201 10.4599 12.0101 10.4599 11.8701V10.2401C10.4599 9.48012 9.83991 8.86012 9.07991 8.86012C8.31991 8.86012 7.69991 9.48012 7.69991 10.2401V14.0301C7.69991 14.1201 7.64991 14.2101 7.55991 14.2501C7.46991 14.2901 7.37991 14.2801 7.29991 14.2301L4.90991 12.4401C4.63991 12.2401 4.32991 12.1401 4.00991 12.1401C3.85991 12.1401 3.70991 12.1601 3.55991 12.2101C3.08991 12.3601 2.73991 12.7101 2.57991 13.1701C2.40991 13.6701 2.51991 14.2201 2.86991 14.6201L7.09991 19.5601C8.07991 20.7101 9.50991 21.3601 11.0199 21.3601H14.1899C16.4799 21.3601 18.5299 19.8201 19.1599 17.6101L19.9799 14.7601C20.1299 14.2401 20.2399 13.7001 20.3099 13.1601L20.3299 13.1701Z" fill="black"/>
</svg>
