<svg width="24" height="24" viewBox="0 0 24 24" fill="none" xmlns="http://www.w3.org/2000/svg">
<path d="M4.77 6.88934C4.34 7.01934 4.02 7.33934 3.87 7.76934C3.69 8.31934 3.87 8.91934 4.32 9.27934L8.4 12.5393V8.88934L6.01 7.09934C5.65 6.82934 5.2 6.74934 4.77 6.88934Z" fill="black"/>
<path d="M19.93 11.1693C19.18 11.1693 18.57 11.7793 18.57 12.5293V14.1393C18.57 14.2793 18.46 14.3893 18.32 14.3893C18.18 14.3893 18.07 14.2793 18.07 14.1393V10.3793C18.07 9.62934 17.46 9.01934 16.71 9.01934C15.96 9.01934 15.35 9.62934 15.35 10.3793V14.1393C15.35 14.2793 15.24 14.3893 15.1 14.3893C14.96 14.3893 14.85 14.2793 14.85 14.1393V9.30934C14.85 8.55934 14.24 7.94934 13.49 7.94934C12.74 7.94934 12.13 8.55934 12.13 9.30934V14.1393C12.13 14.2793 12.02 14.3893 11.88 14.3893C11.74 14.3893 11.63 14.2793 11.63 14.1393V3.92934C11.63 3.17934 11.02 2.56934 10.27 2.56934C9.52 2.56934 8.91 3.17934 8.91 3.92934V16.2893C8.91 19.1093 11.21 21.4093 14.03 21.4093H16.18C19 21.4093 21.3 19.1093 21.3 16.2893V12.5293C21.3 11.7793 20.69 11.1693 19.94 11.1693H19.93Z" fill="black"/>
</svg>
