<svg width="24" height="24" viewBox="0 0 24 24" fill="none" xmlns="http://www.w3.org/2000/svg">
<path d="M20.9801 6.02C20.5501 5.53 19.9301 5.25 19.2801 5.25C18.1701 5.25 17.2301 6.05 17.0501 7.14L16.8001 8.66C16.0001 8.09 14.7401 8.17 14.0001 8.82C13.2001 8.11 11.8001 8.11 11.0001 8.82C10.6001 8.46 10.0801 8.25 9.50007 8.25C8.26007 8.25 7.25007 9.26 7.25007 10.5V12.5L6.25007 11.75C5.63007 11.29 4.85007 11.15 4.12007 11.38C3.38007 11.61 2.82007 12.16 2.58007 12.89C2.32007 13.67 2.49007 14.55 3.03007 15.18L6.94007 19.74C8.03007 21.02 9.63007 21.75 11.3101 21.75H14.2401C16.7901 21.75 19.0701 20.04 19.7701 17.58L20.5201 14.95C20.6701 14.42 20.7801 13.87 20.8501 13.33L21.5401 7.8C21.6201 7.16 21.4201 6.51 20.9901 6.02H20.9801ZM19.3501 13.15C19.2901 13.62 19.2001 14.09 19.0701 14.54L18.3201 17.17C17.8001 18.98 16.1201 20.25 14.2301 20.25H11.3001C10.0601 20.25 8.88007 19.71 8.07007 18.77L4.16007 14.21C3.96007 13.98 3.90007 13.66 3.99007 13.37C4.08007 13.1 4.28007 12.9 4.55007 12.82C4.64007 12.79 4.72007 12.78 4.81007 12.78C4.99007 12.78 5.18007 12.84 5.33007 12.95L7.53007 14.6C7.76007 14.77 8.06007 14.8 8.32007 14.67C8.57007 14.54 8.74007 14.28 8.74007 14V10.5C8.74007 10.09 9.08007 9.75 9.49007 9.75C9.90007 9.75 10.2401 10.09 10.2401 10.5V12C10.2401 12.41 10.5801 12.75 10.9901 12.75C11.4001 12.75 11.7401 12.41 11.7401 12V10.5C11.7401 10.09 12.0801 9.75 12.4901 9.75C12.9001 9.75 13.2401 10.09 13.2401 10.5V12C13.2401 12.41 13.5801 12.75 13.9901 12.75C14.4001 12.75 14.7401 12.41 14.7401 12V10.5C14.7401 10.09 15.0801 9.75 15.4901 9.75C15.9001 9.75 16.2401 10.09 16.2401 10.5V12C16.2401 12.39 16.5401 12.71 16.9301 12.75C17.3001 12.79 17.6701 12.51 17.7301 12.13L18.5201 7.4C18.6201 6.81 19.4501 6.57 19.8501 7.02C20.0001 7.19 20.0601 7.4 20.0401 7.62L19.3501 13.15Z" fill="black"/>
</svg>
