<svg width="24" height="24" viewBox="0 0 24 24" fill="none" xmlns="http://www.w3.org/2000/svg">
<path d="M17.5001 9.25023C17.1401 9.25023 16.8101 9.33023 16.5101 9.48023C16.1401 8.75023 15.3801 8.25023 14.5001 8.25023C13.9201 8.25023 13.4001 8.47023 13.0001 8.82023C12.4201 8.30023 11.5001 8.11023 10.7501 8.37023V4.49023C10.7501 3.25023 9.74006 2.24023 8.50006 2.24023C7.26006 2.24023 6.25007 3.25023 6.25007 4.49023V9.61023C5.53007 10.1602 4.90006 10.8202 4.37006 11.5902C3.51006 12.8302 3.36007 14.4002 3.95007 15.7802L5.01007 18.2602C5.92007 20.3802 7.99007 21.7402 10.3001 21.7402H13.2301C15.7801 21.7402 18.0601 20.0302 18.7601 17.5702L19.3401 15.5402C19.6101 14.5802 19.7501 13.5802 19.7501 12.5902V11.4902C19.7501 10.2502 18.7401 9.24023 17.5001 9.24023V9.25023ZM18.2501 12.6002C18.2501 13.4602 18.1301 14.3102 17.8901 15.1402L17.3101 17.1702C16.7901 18.9802 15.1101 20.2502 13.2201 20.2502H10.2901C8.59007 20.2502 7.05007 19.2402 6.38007 17.6702L5.32007 15.1902C4.93007 14.2802 5.03007 13.2602 5.61007 12.4202C5.80007 12.1402 6.01006 11.8802 6.24006 11.6302V13.9902C6.24006 14.4002 6.58006 14.7402 6.99006 14.7402C7.40006 14.7402 7.74006 14.4002 7.74006 13.9902V4.50023C7.74006 4.09023 8.08006 3.75023 8.49006 3.75023C8.90006 3.75023 9.24006 4.09023 9.24006 4.50023V12.0002C9.24006 12.4102 9.58006 12.7502 9.99006 12.7502C10.4001 12.7502 10.7401 12.4102 10.7401 12.0002V10.5002C10.7401 10.0902 11.0801 9.75023 11.4901 9.75023C11.9001 9.75023 12.2401 10.0902 12.2401 10.5002V12.0002C12.2401 12.4102 12.5801 12.7502 12.9901 12.7502C13.4001 12.7502 13.7401 12.4102 13.7401 12.0002V10.5002C13.7401 10.0902 14.0801 9.75023 14.4901 9.75023C14.9001 9.75023 15.2401 10.0902 15.2401 10.5002V12.0002C15.2401 12.4102 15.5801 12.7502 15.9901 12.7502C16.4001 12.7502 16.7401 12.4102 16.7401 12.0002V11.5002C16.7401 11.0902 17.0801 10.7502 17.4901 10.7502C17.9001 10.7502 18.2401 11.0902 18.2401 11.5002V12.6002H18.2501Z" fill="black"/>
</svg>
