<svg width="24" height="24" viewBox="0 0 24 24" fill="none" xmlns="http://www.w3.org/2000/svg">
<path d="M18.5 9.25023C18.14 9.25023 17.81 9.33023 17.51 9.48023C17.14 8.75023 16.38 8.25023 15.5 8.25023C14.92 8.25023 14.4 8.47023 14 8.82023C13.42 8.30023 12.5 8.11023 11.75 8.37023V4.49023C11.75 3.25023 10.74 2.24023 9.5 2.24023C8.26 2.24023 7.25 3.25023 7.25 4.49023V12.1802L7.23 12.1602C6.68 11.6102 5.9 11.3902 5.13 11.5602C4.37 11.7402 3.77 12.2902 3.52 13.0302C3.29 13.7102 3.41 14.4602 3.82 15.0402L6.88 19.3302C7.96 20.8402 9.71 21.7402 11.56 21.7402H14.22C16.77 21.7402 19.05 20.0302 19.75 17.5702L20.33 15.5402C20.6 14.5802 20.74 13.5902 20.74 12.5902V11.4902C20.74 10.2502 19.73 9.24023 18.49 9.24023L18.5 9.25023ZM19.25 12.6002C19.25 13.4602 19.13 14.3102 18.89 15.1402L18.31 17.1702C17.79 18.9802 16.11 20.2502 14.22 20.2502H11.56C10.19 20.2502 8.9 19.5802 8.1 18.4702L5.04 14.1802C4.9 13.9902 4.87 13.7402 4.94 13.5202C5.06 13.1702 5.35 13.0602 5.47 13.0402C5.51 13.0402 5.57 13.0202 5.64 13.0202C5.79 13.0202 5.98 13.0602 6.16 13.2402L7.46 14.5402C7.67 14.7602 8 14.8202 8.28 14.7002C8.56 14.5802 8.74 14.3102 8.74 14.0102V4.50023C8.74 4.09023 9.08 3.75023 9.49 3.75023C9.9 3.75023 10.24 4.09023 10.24 4.50023V12.0002C10.24 12.4102 10.58 12.7502 10.99 12.7502C11.4 12.7502 11.74 12.4102 11.74 12.0002V10.5002C11.74 10.0902 12.08 9.75023 12.49 9.75023C12.9 9.75023 13.24 10.0902 13.24 10.5002V12.0002C13.24 12.4102 13.58 12.7502 13.99 12.7502C14.4 12.7502 14.74 12.4102 14.74 12.0002V10.5002C14.74 10.0902 15.08 9.75023 15.49 9.75023C15.9 9.75023 16.24 10.0902 16.24 10.5002V12.0002C16.24 12.4102 16.58 12.7502 16.99 12.7502C17.4 12.7502 17.74 12.4102 17.74 12.0002V11.5002C17.74 11.0902 18.08 10.7502 18.49 10.7502C18.9 10.7502 19.24 11.0902 19.24 11.5002V12.6002H19.25Z" fill="black"/>
</svg>
