<svg width="24" height="24" viewBox="0 0 24 24" fill="none" xmlns="http://www.w3.org/2000/svg">
<path d="M7.52008 14.4105L6.11008 13.0005C5.85008 12.7405 5.50008 12.6005 5.15008 12.6005C5.04008 12.6005 4.94008 12.6105 4.83008 12.6405C4.37008 12.7505 4.00008 13.0905 3.85008 13.5405C3.71008 13.9505 3.78008 14.4105 4.03008 14.7705L7.36008 19.4405C8.33008 20.8005 9.91008 21.6105 11.5801 21.6105H14.4701C16.7801 21.6105 18.8301 20.0605 19.4601 17.8505L20.0901 15.6405C20.3601 14.6905 20.5001 13.7105 20.5001 12.7205V11.5205C20.5001 10.7605 19.8801 10.1405 19.1201 10.1405C18.3601 10.1405 17.7401 10.7605 17.7401 11.5205V12.0605C17.7401 12.2005 17.6301 12.3105 17.4901 12.3105C17.3501 12.3105 17.2401 12.2005 17.2401 12.0605V10.4305C17.2401 9.67051 16.6201 9.05051 15.8601 9.05051C15.1001 9.05051 14.4801 9.67051 14.4801 10.4305V12.0605C14.4801 12.2005 14.3701 12.3105 14.2301 12.3105C14.0901 12.3105 13.9801 12.2005 13.9801 12.0605V3.90051C13.9801 3.14051 13.3601 2.52051 12.6001 2.52051C11.8401 2.52051 11.2201 3.14051 11.2201 3.90051V12.0605C11.2201 12.2005 11.1101 12.3105 10.9701 12.3105C10.8301 12.3105 10.7201 12.2005 10.7201 12.0605V6.08051C10.7201 5.32051 10.1001 4.70051 9.34008 4.70051C8.58008 4.70051 7.96008 5.32051 7.96008 6.08051V14.2405C7.96008 14.3405 7.90008 14.4305 7.81008 14.4705C7.72008 14.5105 7.61008 14.4905 7.54008 14.4205L7.52008 14.4105Z" fill="black"/>
</svg>
