<svg width="24" height="24" viewBox="0 0 24 24" fill="none" xmlns="http://www.w3.org/2000/svg">
<path d="M20.75 10.5C20.75 9.63 20.25 8.87 19.52 8.49C19.67 8.19 19.75 7.85 19.75 7.5C19.75 6.3 18.81 5.32 17.62 5.25C17.7 5.01 17.75 4.76 17.75 4.5C17.75 3.26 16.74 2.25 15.5 2.25H13.4C12.4 2.25 11.41 2.39 10.45 2.66L8.42 3.24C5.89 3.96 4.25 6.3 4.25 9.2V12.41C4.25 14.51 5.37 16.43 7.17 17.41C7.34 17.5 7.51 17.59 7.66 17.67C8.03 17.85 8.32 17.98 8.58 18.09C8.98 18.26 9.24 18.37 9.56 18.6C10.24 19.09 11.57 20.17 12.48 21.13C12.86 21.53 13.36 21.75 13.9 21.75C13.97 21.75 14.05 21.75 14.12 21.74C14.73 21.67 15.26 21.33 15.57 20.79C15.99 20.08 16.1 19.25 15.89 18.45L15.72 17.8C15.49 16.93 15.04 16.26 14.54 15.74H17.5C18.74 15.74 19.75 14.73 19.75 13.49C19.75 13.13 19.67 12.8 19.52 12.5C20.25 12.13 20.75 11.37 20.75 10.49V10.5ZM18.5 11.25H14C13.59 11.25 13.25 11.59 13.25 12C13.25 12.41 13.59 12.75 14 12.75H17.5C17.91 12.75 18.25 13.09 18.25 13.5C18.25 13.91 17.91 14.25 17.5 14.25H12C11.63 14.25 11.32 14.51 11.26 14.88C11.2 15.25 11.41 15.59 11.76 15.71C11.97 15.78 13.82 16.47 14.28 18.19L14.45 18.84C14.56 19.25 14.5 19.68 14.28 20.04C14.18 20.21 14.03 20.24 13.95 20.25C13.82 20.27 13.67 20.21 13.57 20.11C12.52 18.99 11.06 17.84 10.44 17.39C9.99 17.06 9.61 16.9 9.18 16.71C8.94 16.61 8.67 16.49 8.33 16.32C8.19 16.25 8.04 16.17 7.89 16.09C6.57 15.37 5.75 13.96 5.75 12.4V9.19C5.75 6.95 6.93 5.22 8.83 4.67L10.86 4.09C11.69 3.85 12.54 3.73 13.4 3.73H15.5C15.91 3.73 16.25 4.07 16.25 4.48C16.25 4.89 15.91 5.23 15.5 5.23H14C13.59 5.23 13.25 5.57 13.25 5.98C13.25 6.39 13.59 6.73 14 6.73H17.5C17.91 6.73 18.25 7.07 18.25 7.48C18.25 7.89 17.91 8.23 17.5 8.23H14C13.59 8.23 13.25 8.57 13.25 8.98C13.25 9.39 13.59 9.73 14 9.73H18.5C18.91 9.73 19.25 10.07 19.25 10.48C19.25 10.89 18.91 11.23 18.5 11.23V11.25Z" fill="black"/>
</svg>
