<svg width="24" height="24" viewBox="0 0 24 24" fill="none" xmlns="http://www.w3.org/2000/svg">
<path d="M4.61993 12.13C3.87993 13.2 3.74993 14.51 4.24993 15.68L5.39993 18.37C6.21993 20.28 8.08993 21.51 10.1599 21.51H13.3399C15.6399 21.51 17.6899 19.96 18.3199 17.75L18.9499 15.55C19.2199 14.6 19.3599 13.62 19.3599 12.63V8.17996C19.3599 7.41996 18.7399 6.79996 17.9799 6.79996C17.2199 6.79996 16.5999 7.41996 16.5999 8.17996V11.98C16.5999 12.12 16.4899 12.23 16.3499 12.23C16.2099 12.23 16.0999 12.12 16.0999 11.98V6.01996C16.0999 5.25996 15.4799 4.63996 14.7199 4.63996C13.9599 4.63996 13.3399 5.25996 13.3399 6.01996V11.99C13.3399 12.13 13.2299 12.24 13.0899 12.24C12.9499 12.24 12.8399 12.13 12.8399 11.99V3.83996C12.8399 3.07996 12.2199 2.45996 11.4599 2.45996C10.6999 2.45996 10.0799 3.07996 10.0799 3.83996V11.99C10.0799 12.13 9.96993 12.24 9.82993 12.24C9.68993 12.24 9.57993 12.13 9.57993 11.99V7.09996C9.57993 6.33996 8.95993 5.71996 8.19993 5.71996C7.43993 5.71996 6.81993 6.33996 6.81993 7.09996V14.16C6.81993 14.3 6.70993 14.41 6.56993 14.41C6.42993 14.41 6.31993 14.3 6.31993 14.16V10.31C5.65993 10.83 5.07993 11.44 4.59993 12.13H4.61993Z" fill="black"/>
</svg>
