<svg width="24" height="24" viewBox="0 0 24 24" fill="none" xmlns="http://www.w3.org/2000/svg">
<path d="M19.5001 10.25C19.2401 10.25 18.9801 10.3 18.7501 10.38C18.6901 9.19 17.7001 8.25 16.5001 8.25C16.1401 8.25 15.8101 8.33 15.5101 8.48C15.1401 7.75 14.3801 7.25 13.5001 7.25C13.2401 7.25 12.9801 7.29 12.7501 7.38V4.5C12.7501 3.26 11.7401 2.25 10.5001 2.25C9.26007 2.25 8.25007 3.26 8.25007 4.5V7.5L7.13007 6.66C6.54007 6.22 5.80007 6.09 5.09007 6.31C4.39007 6.53 3.85007 7.06 3.62007 7.76C3.32007 8.66 3.62007 9.66 4.35007 10.25L8.24007 13.36V16C8.24007 19.17 10.8201 21.75 13.9901 21.75H15.9901C19.1601 21.75 21.7401 19.17 21.7401 16V12.5C21.7401 11.26 20.7301 10.25 19.4901 10.25H19.5001ZM5.29007 9.08C5.04007 8.88 4.94007 8.54 5.04007 8.24C5.12007 8 5.30007 7.82 5.54007 7.75C5.78007 7.68 6.03007 7.72 6.23007 7.87L8.25007 9.38V11.44L5.29007 9.08ZM20.2501 16C20.2501 18.34 18.3401 20.25 16.0001 20.25H14.0001C11.6601 20.25 9.75007 18.34 9.75007 16V4.5C9.75007 4.09 10.0901 3.75 10.5001 3.75C10.9101 3.75 11.2501 4.09 11.2501 4.5V14C11.2501 14.41 11.5901 14.75 12.0001 14.75C12.4101 14.75 12.7501 14.41 12.7501 14V9.5C12.7501 9.09 13.0901 8.75 13.5001 8.75C13.9101 8.75 14.2501 9.09 14.2501 9.5V14C14.2501 14.41 14.5901 14.75 15.0001 14.75C15.4101 14.75 15.7501 14.41 15.7501 14V10.5C15.7501 10.09 16.0901 9.75 16.5001 9.75C16.9101 9.75 17.2501 10.09 17.2501 10.5V14C17.2501 14.41 17.5901 14.75 18.0001 14.75C18.4101 14.75 18.7501 14.41 18.7501 14V12.5C18.7501 12.09 19.0901 11.75 19.5001 11.75C19.9101 11.75 20.2501 12.09 20.2501 12.5V16Z" fill="black"/>
</svg>
