<svg width="24" height="24" viewBox="0 0 24 24" fill="none" xmlns="http://www.w3.org/2000/svg">
<path d="M14.24 11.8894H19.12C19.88 11.8894 20.5 11.2694 20.5 10.5094C20.5 9.74938 19.88 9.12938 19.12 9.12938H14.24C14.1 9.12938 13.99 9.01938 13.99 8.87938C13.99 8.73938 14.1 8.62938 14.24 8.62938H18.04C18.8 8.62938 19.42 8.00938 19.42 7.24938C19.42 6.48938 18.8 5.86937 18.04 5.86937H14.24C14.1 5.86937 13.99 5.75938 13.99 5.61937C13.99 5.47937 14.1 5.36937 14.24 5.36937H15.87C16.63 5.36937 17.25 4.74938 17.25 3.98938C17.25 3.22938 16.63 2.60938 15.87 2.60938H13.59C12.61 2.60938 11.63 2.74938 10.68 3.01938L8.47998 3.64938C6.16998 4.30938 4.72998 6.39938 4.72998 9.08938V12.5694C4.72998 14.4594 5.72998 16.1794 7.34998 17.0594C7.51998 17.1494 7.68998 17.2394 7.84998 17.3194C8.22998 17.5094 8.52998 17.6394 8.79998 17.7494C9.25998 17.9494 9.61998 18.0994 10.06 18.4194C10.83 18.9694 12.34 20.1994 13.38 21.2994C13.61 21.5494 13.94 21.6594 14.27 21.6294C14.6 21.5894 14.88 21.4094 15.05 21.1194C15.36 20.5994 15.44 19.9794 15.29 19.3894L15.11 18.6794C14.54 16.5194 12.27 15.6894 12.02 15.5994C11.9 15.5594 11.83 15.4394 11.85 15.3194C11.87 15.1994 11.97 15.1094 12.1 15.1094H18.07C18.83 15.1094 19.45 14.4894 19.45 13.7294C19.45 12.9694 18.83 12.3494 18.07 12.3494H14.27C14.13 12.3494 14.02 12.2394 14.02 12.0994C14.02 11.9594 14.13 11.8494 14.27 11.8494L14.24 11.8894Z" fill="black"/>
<path d="M12.46 21.1194L12.48 21.1394H12.49L12.46 21.1194Z" fill="black"/>
</svg>
