<svg width="24" height="24" viewBox="0 0 24 24" fill="none" xmlns="http://www.w3.org/2000/svg">
<path d="M7.83993 14.3801C7.74993 14.4201 7.63993 14.4001 7.56993 14.3301L5.08993 11.8501C4.83993 11.6001 4.49993 11.4601 4.14993 11.4601C4.04993 11.4601 3.93993 11.4701 3.83993 11.5001C3.38993 11.6101 3.02993 11.9301 2.87993 12.3801C2.73993 12.8001 2.81993 13.2501 3.07993 13.6001L7.40993 19.3701C8.36993 20.6501 9.89993 21.4201 11.4999 21.4201H14.4299C16.6999 21.4201 18.7199 19.9001 19.3499 17.7101L19.9699 15.5401C20.2399 14.6001 20.3699 13.6301 20.3699 12.6601V11.4801C20.3699 10.7301 19.7599 10.1201 19.0099 10.1201C18.2599 10.1201 17.6499 10.7301 17.6499 11.4801V12.0201C17.6499 12.1601 17.5399 12.2701 17.3999 12.2701C17.2599 12.2701 17.1499 12.1601 17.1499 12.0201V10.4101C17.1499 9.66012 16.5399 9.05012 15.7899 9.05012C15.0399 9.05012 14.4299 9.66012 14.4299 10.4101V12.0201C14.4299 12.1601 14.3199 12.2701 14.1799 12.2701C14.0399 12.2701 13.9299 12.1601 13.9299 12.0201V10.4101C13.9299 9.66012 13.3199 9.05012 12.5699 9.05012C11.8199 9.05012 11.2099 9.66012 11.2099 10.4101V12.0201C11.2099 12.1601 11.0999 12.2701 10.9599 12.2701C10.8199 12.2701 10.7099 12.1601 10.7099 12.0201V8.88012C10.7099 7.51012 10.1799 6.23012 9.20993 5.26012L6.86993 2.92012C6.66993 2.72012 6.40993 2.62012 6.12993 2.62012C5.71993 2.62012 5.36993 2.84012 5.18993 3.21012C5.00993 3.58012 5.05993 3.99012 5.31993 4.31012L6.75993 6.11012C7.54993 7.10012 7.98993 8.35012 7.98993 9.62012V14.1701C7.98993 14.2701 7.92993 14.3601 7.83993 14.4001V14.3801Z" fill="black"/>
</svg>
