<svg width="24" height="24" viewBox="0 0 24 24" fill="none" xmlns="http://www.w3.org/2000/svg">
<path d="M17.5 6.25C17.24 6.25 16.98 6.3 16.75 6.38C16.69 5.19 15.7 4.25 14.5 4.25C14.24 4.25 13.98 4.3 13.75 4.38C13.69 3.19 12.7 2.25 11.5 2.25C10.3 2.25 9.24998 3.26 9.24998 4.5V5.38C9.01998 5.3 8.75998 5.25 8.49998 5.25C7.25998 5.25 6.24998 6.26 6.24998 7.5V9.62C5.52998 10.17 4.89998 10.83 4.36998 11.6C3.51998 12.84 3.35998 14.4 3.94998 15.79L5.00998 18.27C5.91999 20.39 7.98998 21.75 10.3 21.75H13.23C15.78 21.75 18.06 20.04 18.76 17.58L19.34 15.55C19.61 14.59 19.75 13.6 19.75 12.6V8.5C19.75 7.26 18.74 6.25 17.5 6.25ZM18.25 12.6C18.25 13.46 18.13 14.31 17.89 15.14L17.31 17.17C16.79 18.98 15.11 20.25 13.22 20.25H10.29C8.58998 20.25 7.04998 19.24 6.37998 17.67L5.31998 15.19C4.92998 14.28 5.02998 13.26 5.60998 12.42C5.79998 12.14 6.00998 11.88 6.23998 11.63V13.99C6.23998 14.4 6.57998 14.74 6.98998 14.74C7.39998 14.74 7.73998 14.4 7.73998 13.99V7.5C7.73998 7.09 8.07998 6.75 8.48998 6.75C8.89998 6.75 9.23998 7.09 9.23998 7.5V12C9.23998 12.41 9.57998 12.75 9.98998 12.75C10.4 12.75 10.74 12.41 10.74 12V4.5C10.74 4.09 11.08 3.75 11.49 3.75C11.9 3.75 12.24 4.09 12.24 4.5V12C12.24 12.41 12.58 12.75 12.99 12.75C13.4 12.75 13.74 12.41 13.74 12V6.5C13.74 6.09 14.08 5.75 14.49 5.75C14.9 5.75 15.24 6.09 15.24 6.5V12C15.24 12.41 15.58 12.75 15.99 12.75C16.4 12.75 16.74 12.41 16.74 12V8.5C16.74 8.09 17.08 7.75 17.49 7.75C17.9 7.75 18.24 8.09 18.24 8.5V12.6H18.25Z" fill="black"/>
</svg>
