<svg width="24" height="24" viewBox="0 0 24 24" fill="none" xmlns="http://www.w3.org/2000/svg">
<path d="M18 6.63965H17.59L17.3 5.47965C16.88 3.80965 15.39 2.63965 13.66 2.63965H10.34C8.62 2.63965 7.12 3.80965 6.7 5.47965L6.41 6.63965H6C3.93 6.63965 2.25 8.31965 2.25 10.3896V16.3896C2.25 18.4596 3.93 20.1396 6 20.1396H18C20.07 20.1396 21.75 18.4596 21.75 16.3896V10.3896C21.75 8.31965 20.07 6.63965 18 6.63965ZM14 14.1396H12.75V15.3896C12.75 15.7996 12.41 16.1396 12 16.1396C11.59 16.1396 11.25 15.7996 11.25 15.3896V14.1396H10C9.59 14.1396 9.25 13.7996 9.25 13.3896C9.25 12.9796 9.59 12.6396 10 12.6396H11.25V11.3896C11.25 10.9796 11.59 10.6396 12 10.6396C12.41 10.6396 12.75 10.9796 12.75 11.3896V12.6396H14C14.41 12.6396 14.75 12.9796 14.75 13.3896C14.75 13.7996 14.41 14.1396 14 14.1396ZM7.96 6.63965L8.16 5.83965C8.41 4.83965 9.31 4.13965 10.34 4.13965H13.66C14.69 4.13965 15.59 4.83965 15.84 5.83965L16.04 6.63965H7.96Z" fill="black"/>
</svg>
