<svg width="24" height="24" viewBox="0 0 24 24" fill="none" xmlns="http://www.w3.org/2000/svg">
<path d="M18 7.25H17.59L17.3 6.09C16.88 4.42 15.39 3.25 13.66 3.25H10.34C8.62 3.25 7.12 4.42 6.7 6.09L6.41 7.25H6C3.93 7.25 2.25 8.93 2.25 11V17C2.25 19.07 3.93 20.75 6 20.75H18C20.07 20.75 21.75 19.07 21.75 17V11C21.75 8.93 20.07 7.25 18 7.25ZM8.16 6.45C8.41 5.45 9.31 4.75 10.34 4.75H13.66C14.69 4.75 15.59 5.45 15.84 6.45L16.04 7.25H7.96L8.16 6.45ZM20.25 17C20.25 18.24 19.24 19.25 18 19.25H6C4.76 19.25 3.75 18.24 3.75 17V11C3.75 9.76 4.76 8.75 6 8.75H18C19.24 8.75 20.25 9.76 20.25 11V17Z" fill="black"/>
<path d="M14 13.25H12.75V12C12.75 11.59 12.41 11.25 12 11.25C11.59 11.25 11.25 11.59 11.25 12V13.25H10C9.59 13.25 9.25 13.59 9.25 14C9.25 14.41 9.59 14.75 10 14.75H11.25V16C11.25 16.41 11.59 16.75 12 16.75C12.41 16.75 12.75 16.41 12.75 16V14.75H14C14.41 14.75 14.75 14.41 14.75 14C14.75 13.59 14.41 13.25 14 13.25Z" fill="black"/>
</svg>
