<svg width="24" height="24" viewBox="0 0 24 24" fill="none" xmlns="http://www.w3.org/2000/svg">
<path d="M16.5 17.25C16.9142 17.25 17.25 16.9142 17.25 16.5C17.25 16.0858 16.9142 15.75 16.5 15.75C16.0858 15.75 15.75 16.0858 15.75 16.5C15.75 16.9142 16.0858 17.25 16.5 17.25Z" fill="black"/>
<path d="M7.5 17.25C7.91421 17.25 8.25 16.9142 8.25 16.5C8.25 16.0858 7.91421 15.75 7.5 15.75C7.08579 15.75 6.75 16.0858 6.75 16.5C6.75 16.9142 7.08579 17.25 7.5 17.25Z" fill="black"/>
<path d="M17 2.25H7C4.38 2.25 2.25 4.38 2.25 7V17C2.25 19.62 4.38 21.75 7 21.75H17C19.62 21.75 21.75 19.62 21.75 17V7C21.75 4.38 19.62 2.25 17 2.25ZM15.59 10.25C16.05 10.25 16.5 10.44 16.83 10.76L17.54 11.47C17.83 11.76 17.83 12.24 17.54 12.53C17.39 12.68 17.2 12.75 17.01 12.75C16.82 12.75 16.63 12.68 16.48 12.53L15.77 11.82C15.77 11.82 15.66 11.75 15.59 11.75H12.75V14.25H16C16.06 14.25 16.11 14.27 16.17 14.28C16.28 14.26 16.39 14.25 16.5 14.25C17.74 14.25 18.75 15.26 18.75 16.5C18.75 17.74 17.74 18.75 16.5 18.75C15.26 18.75 14.25 17.74 14.25 16.5C14.25 16.24 14.3 15.99 14.39 15.75H9.61C9.69 15.99 9.75 16.24 9.75 16.5C9.75 17.74 8.74 18.75 7.5 18.75C6.26 18.75 5.25 17.74 5.25 16.5C5.25 15.26 6.26 14.25 7.5 14.25C7.61 14.25 7.72 14.27 7.83 14.28C7.89 14.27 7.94 14.25 8 14.25H11.25V11.75H8.41C8.34 11.75 8.28 11.78 8.23 11.82L7.52 12.53C7.23 12.82 6.75 12.82 6.46 12.53C6.17 12.24 6.17 11.76 6.46 11.47L7.17 10.76C7.5 10.43 7.95 10.25 8.41 10.25H11.25V8.75H7.41C7.34 8.75 7.28 8.78 7.23 8.82L6.52 9.53C6.23 9.82 5.75 9.82 5.46 9.53C5.17 9.24 5.17 8.76 5.46 8.47L6.17 7.76C6.5 7.43 6.95 7.25 7.41 7.25H11.25V6C11.25 5.59 11.59 5.25 12 5.25C12.41 5.25 12.75 5.59 12.75 6V7.25H16.59C17.05 7.25 17.5 7.44 17.83 7.76L18.54 8.47C18.83 8.76 18.83 9.24 18.54 9.53C18.39 9.68 18.2 9.75 18.01 9.75C17.82 9.75 17.63 9.68 17.48 9.53L16.77 8.82C16.77 8.82 16.66 8.75 16.59 8.75H12.75V10.25H15.59Z" fill="black"/>
</svg>
