<svg width="24" height="24" viewBox="0 0 24 24" fill="none" xmlns="http://www.w3.org/2000/svg">
<path d="M17 2.25H7C4.38 2.25 2.25 4.38 2.25 7V17C2.25 19.62 4.38 21.75 7 21.75H17C19.62 21.75 21.75 19.62 21.75 17V7C21.75 4.38 19.62 2.25 17 2.25ZM20.25 17C20.25 18.79 18.79 20.25 17 20.25H7C5.21 20.25 3.75 18.79 3.75 17V7C3.75 5.21 5.21 3.75 7 3.75H17C18.79 3.75 20.25 5.21 20.25 7V17Z" fill="black"/>
<path d="M16.59 8.75C16.66 8.75 16.72 8.78 16.77 8.82L17.48 9.53C17.63 9.68 17.82 9.75 18.01 9.75C18.2 9.75 18.39 9.68 18.54 9.53C18.83 9.24 18.83 8.76 18.54 8.47L17.83 7.76C17.5 7.43 17.05 7.25 16.59 7.25H12.75V6C12.75 5.59 12.41 5.25 12 5.25C11.59 5.25 11.25 5.59 11.25 6V7.25H7.41C6.95 7.25 6.5 7.44 6.17 7.76L5.46 8.47C5.17 8.76 5.17 9.24 5.46 9.53C5.75 9.82 6.23 9.82 6.52 9.53L7.23 8.82C7.23 8.82 7.34 8.75 7.41 8.75H11.25V10.25H8.41C7.95 10.25 7.5 10.44 7.17 10.76L6.46 11.47C6.17 11.76 6.17 12.24 6.46 12.53C6.75 12.82 7.23 12.82 7.52 12.53L8.23 11.82C8.23 11.82 8.34 11.75 8.41 11.75H11.25V14.25H8C7.94 14.25 7.89 14.27 7.83 14.28C7.72 14.26 7.61 14.25 7.5 14.25C6.26 14.25 5.25 15.26 5.25 16.5C5.25 17.74 6.26 18.75 7.5 18.75C8.74 18.75 9.75 17.74 9.75 16.5C9.75 16.24 9.7 15.99 9.61 15.75H14.39C14.31 15.99 14.25 16.24 14.25 16.5C14.25 17.74 15.26 18.75 16.5 18.75C17.74 18.75 18.75 17.74 18.75 16.5C18.75 15.26 17.74 14.25 16.5 14.25C16.39 14.25 16.28 14.27 16.17 14.28C16.11 14.27 16.06 14.25 16 14.25H12.75V11.75H15.59C15.66 11.75 15.72 11.78 15.77 11.82L16.48 12.53C16.63 12.68 16.82 12.75 17.01 12.75C17.2 12.75 17.39 12.68 17.54 12.53C17.83 12.24 17.83 11.76 17.54 11.47L16.83 10.76C16.5 10.43 16.05 10.25 15.59 10.25H12.75V8.75H16.59ZM7.5 17.25C7.09 17.25 6.75 16.91 6.75 16.5C6.75 16.09 7.09 15.75 7.5 15.75C7.91 15.75 8.25 16.09 8.25 16.5C8.25 16.91 7.91 17.25 7.5 17.25ZM17.25 16.5C17.25 16.91 16.91 17.25 16.5 17.25C16.09 17.25 15.75 16.91 15.75 16.5C15.75 16.09 16.09 15.75 16.5 15.75C16.91 15.75 17.25 16.09 17.25 16.5Z" fill="black"/>
</svg>
