<svg width="24" height="24" viewBox="0 0 24 24" fill="none" xmlns="http://www.w3.org/2000/svg">
<path d="M13.39 6.92C12.72 6.07 11.28 6.07 10.61 6.92L9.02 8.94C8.52 9.57 8.25 10.36 8.25 11.15C8.25 12.45 8.92 13.62 9.99 14.23C10.6 14.57 11.3 14.75 12 14.75C12.7 14.75 13.4 14.57 14.01 14.23C15.08 13.63 15.75 12.45 15.75 11.15C15.75 10.36 15.48 9.57 14.98 8.94L13.39 6.92ZM13.28 12.92C12.51 13.35 11.5 13.35 10.73 12.92C10.13 12.58 9.76 11.91 9.76 11.15C9.76 10.69 9.92 10.24 10.21 9.87L11.8 7.85C11.87 7.76 11.97 7.75 12.01 7.75C12.05 7.75 12.15 7.75 12.22 7.85L13.81 9.87C14.1 10.24 14.26 10.69 14.26 11.15C14.26 11.9 13.89 12.58 13.29 12.92H13.28Z" fill="black"/>
<path d="M15 16.25H9C8.59 16.25 8.25 16.59 8.25 17C8.25 17.41 8.59 17.75 9 17.75H15C15.41 17.75 15.75 17.41 15.75 17C15.75 16.59 15.41 16.25 15 16.25Z" fill="black"/>
<path d="M12 2.25C6.62 2.25 2.25 6.62 2.25 12C2.25 17.38 6.62 21.75 12 21.75C17.38 21.75 21.75 17.38 21.75 12C21.75 6.62 17.38 2.25 12 2.25ZM12 20.25C7.45 20.25 3.75 16.55 3.75 12C3.75 7.45 7.45 3.75 12 3.75C16.55 3.75 20.25 7.45 20.25 12C20.25 16.55 16.55 20.25 12 20.25Z" fill="black"/>
</svg>
