<svg width="24" height="24" viewBox="0 0 24 24" fill="none" xmlns="http://www.w3.org/2000/svg">
<path d="M9 10.2497H8.75V9.99975C8.75 9.58975 8.41 9.24975 8 9.24975C7.59 9.24975 7.25 9.58975 7.25 9.99975V10.2497H7C6.59 10.2497 6.25 10.5897 6.25 10.9997C6.25 11.4097 6.59 11.7497 7 11.7497H7.25V12.1097C7.25 12.5197 7.59 12.8597 8 12.8597C8.41 12.8597 8.75 12.5197 8.75 12.1097V11.7497H9C9.41 11.7497 9.75 11.4097 9.75 10.9997C9.75 10.5897 9.41 10.2497 9 10.2497Z" fill="black"/>
<path d="M20.53 11.7797L19.06 10.7997C18.8 10.6297 18.62 10.3697 18.54 10.0597L18.11 8.31975C17.8 7.08975 16.71 6.23975 15.44 6.23975H14.75V4.98975C14.75 4.02975 13.96 3.23975 13 3.23975H12C11.04 3.23975 10.25 4.02975 10.25 4.98975V6.23975H5C3.48 6.23975 2.25 7.46975 2.25 8.98975V15.9897C2.25 17.2797 3.14 18.3497 4.34 18.6497C4.64 19.8497 5.71 20.7397 7 20.7397C8.21 20.7397 9.24 19.9397 9.6 18.8497H13.4C13.76 19.9397 14.78 20.7397 16 20.7397C17.22 20.7397 18.3 19.8897 18.63 18.7397H19C20.52 18.7397 21.75 17.5097 21.75 15.9897V14.0597C21.75 13.1397 21.29 12.2797 20.53 11.7697V11.7797ZM16.66 8.69975L17.05 10.2497H14.57C14 10.2497 13.5 9.85975 13.36 9.29975L12.97 7.74975H15.45C16.02 7.74975 16.52 8.13975 16.66 8.69975ZM11.76 4.99975C11.76 4.85975 11.87 4.74975 12.01 4.74975H13.01C13.15 4.74975 13.26 4.85975 13.26 4.99975V6.24975H11.76V4.99975ZM7.01 19.2497C6.32 19.2497 5.76 18.6897 5.76 17.9997C5.76 17.3097 6.32 16.7497 7.01 16.7497C7.7 16.7497 8.26 17.3097 8.26 17.9997C8.26 18.6897 7.7 19.2497 7.01 19.2497ZM16.01 19.2497C15.32 19.2497 14.76 18.6897 14.76 17.9997C14.76 17.3097 15.32 16.7497 16.01 16.7497C16.7 16.7497 17.26 17.3097 17.26 17.9997C17.26 18.6897 16.7 19.2497 16.01 19.2497ZM20.26 15.9997C20.26 16.6897 19.7 17.2497 19.01 17.2497H18.64C18.31 16.0997 17.26 15.2497 16.01 15.2497C14.76 15.2497 13.63 16.1497 13.34 17.3597H9.67C9.38 16.1497 8.3 15.2497 7 15.2497C5.81 15.2497 4.8 16.0197 4.42 17.0897C4.03 16.8797 3.75 16.4797 3.75 15.9997V8.99975C3.75 8.30975 4.31 7.74975 5 7.74975H11.41L11.89 9.66975C12.2 10.8997 13.29 11.7497 14.56 11.7497H17.85C17.97 11.8597 18.09 11.9597 18.22 12.0497L19.69 13.0297C20.04 13.2597 20.25 13.6497 20.25 14.0697V15.9997H20.26Z" fill="black"/>
</svg>
