<svg width="24" height="24" viewBox="0 0 24 24" fill="none" xmlns="http://www.w3.org/2000/svg">
<path d="M11.89 2.25C9.17 2.25 6.59 3.39 4.75 5.29V4C4.75 3.59 4.41 3.25 4 3.25C3.59 3.25 3.25 3.59 3.25 4V8C3.25 8.41 3.59 8.75 4 8.75H8C8.41 8.75 8.75 8.41 8.75 8C8.75 7.59 8.41 7.25 8 7.25H5.07C6.63 5.08 9.17 3.75 11.89 3.75C16.5 3.75 20.25 7.45 20.25 12C20.25 16.55 16.5 20.25 11.89 20.25C7.96 20.25 4.6 17.61 3.73 13.83C3.64 13.43 3.24 13.17 2.83 13.27C2.43 13.36 2.17 13.77 2.27 14.17C3.3 18.63 7.25 21.75 11.89 21.75C17.33 21.75 21.75 17.38 21.75 12C21.75 6.62 17.33 2.25 11.89 2.25Z" fill="black"/>
<path d="M14 14.75C15.52 14.75 16.75 13.52 16.75 12C16.75 10.48 15.52 9.25 14 9.25H10C8.48 9.25 7.25 10.48 7.25 12C7.25 13.52 8.48 14.75 10 14.75H14ZM15.25 12C15.25 12.69 14.69 13.25 14 13.25H12.75V10.75H14C14.69 10.75 15.25 11.31 15.25 12ZM8.75 12C8.75 11.31 9.31 10.75 10 10.75H11.25V13.25H10C9.31 13.25 8.75 12.69 8.75 12Z" fill="black"/>
</svg>
