<svg width="24" height="24" viewBox="0 0 24 24" fill="none" xmlns="http://www.w3.org/2000/svg">
<path d="M18.73 7.12C18.73 7.12 18.75 7.04 18.75 7C18.75 4.93 17.07 3.25 15 3.25H9C6.93 3.25 5.25 4.93 5.25 7C5.25 7.04 5.27 7.08 5.27 7.12C4.05 7.98 3.25 9.39 3.25 11V17C3.25 19.62 5.38 21.75 8 21.75H16C18.62 21.75 20.75 19.62 20.75 17V11C20.75 9.4 19.95 7.98 18.73 7.12ZM9 4.75H15C16.04 4.75 16.9 5.46 17.16 6.41C16.79 6.32 16.4 6.25 16 6.25H8C7.6 6.25 7.21 6.32 6.84 6.41C7.1 5.46 7.97 4.75 9 4.75ZM19.25 17C19.25 18.79 17.79 20.25 16 20.25H8C6.21 20.25 4.75 18.79 4.75 17V11C4.75 9.21 6.21 7.75 8 7.75H16C17.79 7.75 19.25 9.21 19.25 11V17Z" fill="black"/>
<path d="M14 13.25H12.75V12C12.75 11.59 12.41 11.25 12 11.25C11.59 11.25 11.25 11.59 11.25 12V13.25H10C9.59 13.25 9.25 13.59 9.25 14C9.25 14.41 9.59 14.75 10 14.75H11.25V16C11.25 16.41 11.59 16.75 12 16.75C12.41 16.75 12.75 16.41 12.75 16V14.75H14C14.41 14.75 14.75 14.41 14.75 14C14.75 13.59 14.41 13.25 14 13.25Z" fill="black"/>
</svg>
