<svg width="24" height="24" viewBox="0 0 24 24" fill="none" xmlns="http://www.w3.org/2000/svg">
<path d="M21 19.25H20.1C19.83 19.25 19.6 19.06 19.56 18.79L19.23 16.8C18.93 14.98 17.51 13.61 15.75 13.31V9.75H17C17.41 9.75 17.75 9.41 17.75 9C17.75 8.59 17.41 8.25 17 8.25H7.75V5C7.75 3.48 6.52 2.25 5 2.25H3C2.59 2.25 2.25 2.59 2.25 3C2.25 3.41 2.59 3.75 3 3.75H5C5.69 3.75 6.25 4.31 6.25 5V12.33C3.99 12.69 2.25 14.64 2.25 17C2.25 19.62 4.38 21.75 7 21.75C8.6 21.75 10.02 20.95 10.88 19.73C10.92 19.73 10.96 19.75 11 19.75H18.34C18.7 20.36 19.36 20.75 20.1 20.75H21C21.41 20.75 21.75 20.41 21.75 20C21.75 19.59 21.41 19.25 21 19.25ZM14.25 9.75V13.25H10C10 13.25 9.94 13.26 9.9 13.27C9.28 12.79 8.55 12.46 7.75 12.33V9.75H14.25ZM7 20.25C5.21 20.25 3.75 18.79 3.75 17C3.75 15.21 5.21 13.75 7 13.75C8.79 13.75 10.25 15.21 10.25 17C10.25 18.79 8.79 20.25 7 20.25ZM11.16 14.75H15.04C16.39 14.75 17.53 15.72 17.75 17.05L17.95 18.25H11.56C11.67 17.85 11.75 17.44 11.75 17C11.75 16.18 11.52 15.42 11.16 14.75Z" fill="black"/>
</svg>
