<svg width="24" height="24" viewBox="0 0 24 24" fill="none" xmlns="http://www.w3.org/2000/svg">
<path d="M5.36999 17.2403L4.59999 18.3903C4.27999 18.8703 4.16999 19.4503 4.28999 20.0203C4.40999 20.5803 4.73999 21.0703 5.22999 21.3903C5.60999 21.6403 6.03999 21.7703 6.45999 21.7703C7.14999 21.7703 7.82999 21.4403 8.22999 20.8303L8.97999 19.7103L6.55999 18.1003L5.36999 17.2403Z" fill="black"/>
<path d="M19.19 5.11032C18.99 4.18032 18.44 3.38032 17.64 2.84032C15.98 1.73032 13.75 2.14032 12.67 3.75032L8.87999 9.41032C8.49999 9.98032 8.29999 10.6503 8.30999 11.3503V12.2203C8.32999 12.6103 8.21999 12.9803 8.00999 13.3003L6.21999 15.9703L8.58999 17.6503L9.81999 18.4603L11.64 15.7403C11.85 15.4203 12.15 15.1803 12.52 15.0403L13.33 14.7203C13.98 14.4703 14.52 14.0303 14.9 13.4603L18.69 7.80032C19.22 7.01032 19.4 6.06032 19.19 5.13032V5.11032ZM14.76 8.49032L12.83 11.3703C12.69 11.5903 12.45 11.7003 12.21 11.7003C12.07 11.7003 11.92 11.6603 11.79 11.5703C11.45 11.3403 11.35 10.8703 11.58 10.5303L13.51 7.65032C13.74 7.31032 14.2 7.21032 14.55 7.44032C14.89 7.67032 14.99 8.14032 14.76 8.48032V8.49032Z" fill="black"/>
</svg>
