<svg width="24" height="24" viewBox="0 0 24 24" fill="none" xmlns="http://www.w3.org/2000/svg">
<path d="M14 2.25H10C9.0335 2.25 8.25 3.0335 8.25 4V5C8.25 5.9665 9.0335 6.75 10 6.75H14C14.9665 6.75 15.75 5.9665 15.75 5V4C15.75 3.0335 14.9665 2.25 14 2.25Z" fill="black"/>
<path d="M17.25 4.48V5C17.25 6.79 15.79 8.25 14 8.25H10C8.21 8.25 6.75 6.79 6.75 5V4.48C5.3 5 4.25 6.37 4.25 8V18C4.25 20.07 5.93 21.75 8 21.75H16C18.07 21.75 19.75 20.07 19.75 18V8C19.75 6.37 18.7 5 17.25 4.48ZM10 12.25H11.25V11C11.25 10.59 11.59 10.25 12 10.25C12.41 10.25 12.75 10.59 12.75 11V12.25H14C14.41 12.25 14.75 12.59 14.75 13C14.75 13.41 14.41 13.75 14 13.75H12.75V15C12.75 15.41 12.41 15.75 12 15.75C11.59 15.75 11.25 15.41 11.25 15V13.75H10C9.59 13.75 9.25 13.41 9.25 13C9.25 12.59 9.59 12.25 10 12.25ZM15 18.75H9C8.59 18.75 8.25 18.41 8.25 18C8.25 17.59 8.59 17.25 9 17.25H15C15.41 17.25 15.75 17.59 15.75 18C15.75 18.41 15.41 18.75 15 18.75Z" fill="black"/>
</svg>
