<svg width="24" height="24" viewBox="0 0 24 24" fill="none" xmlns="http://www.w3.org/2000/svg">
<path d="M21.75 11.39C21.75 9.64998 20.37 8.22998 18.65 8.15998C18.44 7.56998 17.94 7.11998 17.29 7.01998L12.29 6.18998C12.1 6.15998 11.91 6.15998 11.72 6.18998L6.72001 7.01998C6.07001 7.12998 5.57001 7.57998 5.36001 8.15998C3.64001 8.23998 2.26001 9.64998 2.26001 11.39C2.26001 13.13 3.60001 14.5 5.29001 14.62C5.36001 15.11 5.62001 15.55 6.03001 15.82C7.28001 16.65 9.32001 17.64 12.01 17.64C13.23 17.64 15.63 17.4 18 15.82C18.41 15.55 18.66 15.11 18.73 14.62C20.42 14.5 21.76 13.11 21.76 11.39H21.75ZM3.75001 11.39C3.75001 10.51 4.40001 9.77998 5.25001 9.65998V13.12C4.40001 13 3.75001 12.27 3.75001 11.39ZM17.25 14.37C17.25 14.45 17.21 14.53 17.16 14.57C15.12 15.94 13.06 16.14 12 16.14C9.69001 16.14 7.92001 15.29 6.85001 14.57C6.79001 14.53 6.75001 14.45 6.75001 14.37V8.73998C6.75001 8.61998 6.84001 8.50998 6.96001 8.48998L12.04 7.65998L17.04 8.48998C17.16 8.50998 17.25 8.61998 17.25 8.73998V14.37ZM18.75 13.12V9.65998C19.6 9.77998 20.25 10.51 20.25 11.39C20.25 12.27 19.6 13 18.75 13.12Z" fill="black"/>
<path d="M15.18 12.5C13.17 13.32 10.83 13.32 8.82001 12.5C8.43001 12.34 8.00001 12.53 7.84001 12.91C7.68001 13.29 7.87001 13.73 8.25001 13.89C9.42001 14.37 10.72 14.62 11.99 14.62C13.26 14.62 14.54 14.37 15.73 13.89C16.11 13.73 16.3 13.3 16.14 12.91C15.98 12.53 15.55 12.34 15.16 12.5H15.18Z" fill="black"/>
<path d="M15.18 9.79998C13.17 10.62 10.84 10.62 8.82001 9.79998C8.44001 9.64998 8.00001 9.82998 7.84001 10.21C7.68001 10.59 7.87001 11.03 8.25001 11.19C9.44001 11.67 10.7 11.92 11.99 11.92C13.28 11.92 14.54 11.67 15.73 11.19C16.11 11.03 16.3 10.6 16.14 10.21C15.98 9.82998 15.55 9.63998 15.16 9.79998H15.18Z" fill="black"/>
</svg>
