<svg width="24" height="24" viewBox="0 0 24 24" fill="none" xmlns="http://www.w3.org/2000/svg">
<path d="M20.11 6.34012C19.86 5.56012 19.25 4.92012 18.44 4.59012L13.19 2.47012C12.43 2.17012 11.57 2.17012 10.81 2.47012L5.56 4.59012C4.75 4.92012 4.14 5.55012 3.89 6.34012C3.21 8.47012 2.47 12.6501 5.09 16.7401C6.59 19.0801 8.66 20.5001 10.13 21.2901C10.71 21.6001 11.35 21.7501 12 21.7501C12.65 21.7501 13.29 21.6001 13.87 21.2901C15.34 20.5101 17.41 19.0801 18.91 16.7401C21.53 12.6501 20.79 8.47012 20.11 6.34012ZM15 12.6201H12.75V15.0001C12.75 15.4101 12.41 15.7501 12 15.7501C11.59 15.7501 11.25 15.4101 11.25 15.0001V12.6201H9C8.59 12.6201 8.25 12.2801 8.25 11.8701C8.25 11.4601 8.59 11.1201 9 11.1201H11.25V9.00012C11.25 8.59012 11.59 8.25012 12 8.25012C12.41 8.25012 12.75 8.59012 12.75 9.00012V11.1201H15C15.41 11.1201 15.75 11.4601 15.75 11.8701C15.75 12.2801 15.41 12.6201 15 12.6201Z" fill="black"/>
</svg>
