<svg width="24" height="24" viewBox="0 0 24 24" fill="none" xmlns="http://www.w3.org/2000/svg">
<path d="M21.2401 6.52C20.3701 4.5 18.4501 3.25 16.2301 3.25C14.7801 3.25 13.4101 3.81 12.3801 4.83L11.9701 5.23L11.5601 4.83C10.5301 3.81 9.16006 3.25 7.71006 3.25C5.49006 3.25 3.57006 4.5 2.70006 6.52C1.84006 8.51 2.23006 10.73 3.72006 12.31L11.4201 20.51C11.5601 20.66 11.7601 20.75 11.9701 20.75C12.1801 20.75 12.3701 20.66 12.5201 20.51L20.2201 12.31C21.7101 10.73 22.1001 8.5 21.2401 6.52ZM19.1301 11.29L11.9701 18.91L4.81006 11.29C3.74006 10.15 3.46006 8.55 4.07006 7.12C4.70006 5.66 6.09006 4.75 7.70006 4.75C8.74006 4.75 9.76006 5.17 10.5001 5.89L11.4401 6.82C11.7301 7.11 12.2001 7.11 12.4901 6.82L13.4301 5.89C14.1701 5.16 15.1801 4.75 16.2301 4.75C17.8401 4.75 19.2301 5.66 19.8601 7.12C20.4801 8.55 20.2001 10.15 19.1201 11.29H19.1301Z" fill="black"/>
<path d="M16.0001 10.25H14.0001C13.7201 10.25 13.4601 10.41 13.3301 10.66L13.0001 11.32L11.6701 8.66C11.4201 8.15 10.5801 8.15 10.3301 8.66L9.54006 10.25H8.00006C7.59006 10.25 7.25006 10.59 7.25006 11C7.25006 11.41 7.59006 11.75 8.00006 11.75H10.0001C10.2801 11.75 10.5401 11.59 10.6701 11.34L11.0001 10.68L12.3301 13.34C12.4601 13.59 12.7201 13.75 13.0001 13.75C13.2801 13.75 13.5401 13.59 13.6701 13.34L14.4601 11.75H16.0001C16.4101 11.75 16.7501 11.41 16.7501 11C16.7501 10.59 16.4101 10.25 16.0001 10.25Z" fill="black"/>
</svg>
