<svg width="24" height="24" viewBox="0 0 24 24" fill="none" xmlns="http://www.w3.org/2000/svg">
<path d="M20.7499 7.92025C20.7799 7.33025 20.7499 6.73025 20.6599 6.05025C20.2599 4.51025 19.2699 3.27025 17.9299 2.65025C16.7499 2.10025 15.4499 2.11025 14.2699 2.68025C14.1499 2.74025 14.0299 2.80025 13.9099 2.87025C13.5799 3.05025 13.2499 3.26025 12.9399 3.48025C12.4099 3.86025 11.7599 3.86025 11.2299 3.48025C10.9199 3.25025 10.5999 3.05025 10.2599 2.87025C10.1399 2.80025 10.0199 2.74025 9.89993 2.68025C8.50993 2.01025 6.96993 2.12025 5.65993 2.97025C4.14993 3.96025 3.25993 5.80025 3.33993 7.87025C3.38993 8.94025 3.62993 9.97025 4.02993 10.9403C4.22993 11.4103 4.45993 11.8603 4.73993 12.2903C4.49993 13.4303 4.34993 15.0703 4.80993 16.9403C5.28993 18.8803 6.21993 20.2503 6.91993 21.0503C7.14993 21.3103 7.41993 21.5003 7.72993 21.6203C7.94993 21.7003 8.16993 21.7403 8.39993 21.7403C8.78993 21.7403 9.17993 21.6203 9.51993 21.3703C10.0999 20.9603 10.4299 20.2703 10.3999 19.5303C10.3699 18.5503 10.4799 17.2103 11.1799 16.4503C11.3599 16.2503 11.6999 15.8803 12.0799 15.8803C12.4599 15.8803 12.8099 16.2603 12.9799 16.4503C13.6699 17.2103 13.7899 18.5403 13.7599 19.5303C13.7399 20.2703 14.0699 20.9603 14.6399 21.3703C15.1699 21.7503 15.8199 21.8403 16.4199 21.6203C16.7299 21.5003 17.0099 21.3103 17.2299 21.0503C17.9299 20.2503 18.8699 18.8803 19.3399 16.9403C19.7999 15.0703 19.6499 13.4303 19.4199 12.2903C19.6399 11.9503 19.8399 11.5903 19.9999 11.2203C20.6499 9.78025 20.7099 8.52025 20.7399 7.91025L20.7499 7.92025ZM15.4499 7.60025C14.1199 8.60025 12.7199 8.75025 11.9999 8.75025C10.3299 8.75025 9.11993 8.03025 8.54993 7.60025C8.21993 7.35025 8.14993 6.88025 8.39993 6.55025C8.64993 6.22025 9.11993 6.15025 9.44993 6.40025C9.86993 6.72025 10.7699 7.25025 11.9999 7.25025C12.5299 7.25025 13.5599 7.14025 14.5499 6.40025C14.8799 6.15025 15.3499 6.22025 15.5999 6.55025C15.8499 6.88025 15.7799 7.35025 15.4499 7.60025Z" fill="black"/>
</svg>
