<svg width="24" height="24" viewBox="0 0 24 24" fill="none" xmlns="http://www.w3.org/2000/svg">
<path d="M19 8.25H17C16.31 8.25 15.75 7.69 15.75 7V5C15.75 3.48 14.52 2.25 13 2.25H11C9.48 2.25 8.25 3.48 8.25 5V7C8.25 7.69 7.69 8.25 7 8.25H5C3.48 8.25 2.25 9.48 2.25 11V13C2.25 14.52 3.48 15.75 5 15.75H7C7.69 15.75 8.25 16.31 8.25 17V19C8.25 20.52 9.48 21.75 11 21.75H13C14.52 21.75 15.75 20.52 15.75 19V17C15.75 16.31 16.31 15.75 17 15.75H19C20.52 15.75 21.75 14.52 21.75 13V11C21.75 9.48 20.52 8.25 19 8.25ZM20.25 13C20.25 13.69 19.69 14.25 19 14.25H17C15.48 14.25 14.25 15.48 14.25 17V19C14.25 19.69 13.69 20.25 13 20.25H11C10.31 20.25 9.75 19.69 9.75 19V17C9.75 15.48 8.52 14.25 7 14.25H5C4.31 14.25 3.75 13.69 3.75 13V11C3.75 10.31 4.31 9.75 5 9.75H7C8.52 9.75 9.75 8.52 9.75 7V5C9.75 4.31 10.31 3.75 11 3.75H13C13.69 3.75 14.25 4.31 14.25 5V7C14.25 8.52 15.48 9.75 17 9.75H19C19.69 9.75 20.25 10.31 20.25 11V13Z" fill="black"/>
</svg>
