<svg width="24" height="24" viewBox="0 0 24 24" fill="none" xmlns="http://www.w3.org/2000/svg">
<path d="M19.19 5.11032C18.99 4.18032 18.44 3.38032 17.64 2.84032C15.98 1.73032 13.75 2.14032 12.67 3.75032L8.88 9.41032C8.5 9.98032 8.3 10.6503 8.31 11.3503V12.2203C8.33 12.6103 8.22 12.9803 8.01 13.3003L4.61 18.3803C4.29 18.8603 4.18 19.4403 4.3 20.0103C4.42 20.5703 4.75 21.0603 5.24 21.3803C5.62 21.6303 6.05 21.7603 6.47 21.7603C7.16 21.7603 7.84 21.4303 8.24 20.8203L11.64 15.7403C11.85 15.4203 12.15 15.1803 12.52 15.0403L13.33 14.7203C13.98 14.4703 14.52 14.0303 14.9 13.4603L18.69 7.80032C19.22 7.01032 19.4 6.06032 19.19 5.13032V5.11032ZM6.07 20.1303C5.91 20.0203 5.81 19.8703 5.77 19.6903C5.73 19.5203 5.77 19.3503 5.85 19.2203L6.59 18.1103L7.73 18.8803L6.99 19.9903C6.79 20.2803 6.38 20.3503 6.06 20.1403L6.07 20.1303ZM17.44 6.95032L13.65 12.6103C13.44 12.9303 13.13 13.1703 12.77 13.3103L11.96 13.6303C11.31 13.8903 10.77 14.3203 10.39 14.8903L8.56 17.6203L7.42 16.8503L9.25 14.1203C9.63 13.5503 9.83 12.8803 9.82 12.1803V11.3103C9.8 10.9203 9.91 10.5503 10.12 10.2303L13.91 4.57032C14.29 4.00032 14.93 3.70032 15.59 3.70032C16.01 3.70032 16.43 3.82032 16.81 4.07032C17.29 4.39032 17.61 4.87032 17.73 5.41032C17.85 5.95032 17.75 6.49032 17.45 6.93032L17.44 6.95032Z" fill="black"/>
<path d="M13.51 7.66032L11.58 10.5403C11.35 10.8803 11.44 11.3503 11.79 11.5803C11.92 11.6703 12.06 11.7103 12.21 11.7103C12.45 11.7103 12.69 11.5903 12.83 11.3803L14.76 8.50032C14.99 8.16032 14.9 7.69032 14.55 7.46032C14.2 7.23032 13.74 7.32032 13.51 7.67032V7.66032Z" fill="black"/>
</svg>
