<svg width="24" height="24" viewBox="0 0 24 24" fill="none" xmlns="http://www.w3.org/2000/svg">
<path d="M7.04993 21.75C9.67328 21.75 11.7999 19.6234 11.7999 17C11.7999 14.3766 9.67328 12.25 7.04993 12.25C4.42657 12.25 2.29993 14.3766 2.29993 17C2.29993 19.6234 4.42657 21.75 7.04993 21.75Z" fill="black"/>
<path d="M3.04993 3.75H5.04993C5.73993 3.75 6.29993 4.31 6.29993 5V10.8C6.54993 10.77 6.79993 10.75 7.04993 10.75C9.69993 10.75 11.9699 12.41 12.8699 14.75H15.0499C15.4599 14.75 15.7999 14.41 15.7999 14V9.75H17.0499C17.4599 9.75 17.7999 9.41 17.7999 9C17.7999 8.59 17.4599 8.25 17.0499 8.25H7.79993V5C7.79993 3.48 6.56993 2.25 5.04993 2.25H3.04993C2.63993 2.25 2.29993 2.59 2.29993 3C2.29993 3.41 2.63993 3.75 3.04993 3.75Z" fill="black"/>
<path d="M21.0499 19.25H20.1499C19.8999 19.25 19.6799 19.08 19.6199 18.84C19.6199 18.83 19.6199 18.82 19.6199 18.81V18.79L19.2899 16.8C19.0799 15.54 18.3299 14.5 17.3099 13.87V13.99C17.3099 15.23 16.2999 16.24 15.0599 16.24H13.2499C13.2799 16.49 13.3099 16.73 13.3099 16.99C13.3099 17.98 13.0699 18.91 12.6599 19.74H18.3899C18.7499 20.35 19.4099 20.74 20.1499 20.74H21.0499C21.4599 20.74 21.7999 20.4 21.7999 19.99C21.7999 19.58 21.4599 19.24 21.0499 19.24V19.25Z" fill="black"/>
</svg>
