<svg width="24" height="24" viewBox="0 0 24 24" fill="none" xmlns="http://www.w3.org/2000/svg">
<path d="M6 4.25C3.93 4.25 2.25 5.93 2.25 8V11.25H8C8.25 11.25 8.48 11.38 8.62 11.58L10 13.64L13.38 8.58C13.66 8.16 14.35 8.16 14.63 8.58L16.41 11.25H21.76V8C21.76 5.93 20.08 4.25 18.01 4.25H6Z" fill="black"/>
<path d="M15.38 12.42L14 10.36L10.62 15.42C10.48 15.63 10.25 15.75 10 15.75C9.75 15.75 9.52 15.62 9.38 15.42L7.6 12.75H2.25V16C2.25 18.07 3.93 19.75 6 19.75H18C20.07 19.75 21.75 18.07 21.75 16V12.75H16C15.75 12.75 15.51 12.62 15.38 12.42Z" fill="black"/>
</svg>
