<svg width="24" height="24" viewBox="0 0 24 24" fill="none" xmlns="http://www.w3.org/2000/svg">
<path d="M19 8.25H17C16.31 8.25 15.75 7.69 15.75 7V5C15.75 3.48 14.52 2.25 13 2.25H11C9.48 2.25 8.25 3.48 8.25 5V7C8.25 7.69 7.69 8.25 7 8.25H5C3.48 8.25 2.25 9.48 2.25 11V13C2.25 14.52 3.48 15.75 5 15.75H7C7.69 15.75 8.25 16.31 8.25 17V19C8.25 20.52 9.48 21.75 11 21.75H13C14.52 21.75 15.75 20.52 15.75 19V17C15.75 16.31 16.31 15.75 17 15.75H19C20.52 15.75 21.75 14.52 21.75 13V11C21.75 9.48 20.52 8.25 19 8.25Z" fill="black"/>
</svg>
