<svg width="24" height="24" viewBox="0 0 24 24" fill="none" xmlns="http://www.w3.org/2000/svg">
<path d="M11.5 2.25H3.5C2.80964 2.25 2.25 2.80964 2.25 3.5V5.5C2.25 6.19036 2.80964 6.75 3.5 6.75H11.5C12.1904 6.75 12.75 6.19036 12.75 5.5V3.5C12.75 2.80964 12.1904 2.25 11.5 2.25Z" fill="black"/>
<path d="M3.5 8.25C3.41 8.25 3.33 8.23 3.25 8.22V10.25H7C7.41 10.25 7.75 10.59 7.75 11C7.75 11.41 7.41 11.75 7 11.75H3.25V13.25H7C7.41 13.25 7.75 13.59 7.75 14C7.75 14.41 7.41 14.75 7 14.75H3.25V16.25H7C7.41 16.25 7.75 16.59 7.75 17C7.75 17.41 7.41 17.75 7 17.75H3.28C3.41 19.98 5.25 21.75 7.5 21.75C9.75 21.75 11.75 19.84 11.75 17.5V8.22C11.67 8.22 11.59 8.25 11.5 8.25H3.5Z" fill="black"/>
<path d="M21.7 17.1C21.63 16.65 21.52 16.2 21.37 15.76C21.03 14.74 20.15 12.81 18.08 11.38C17.82 11.2 17.48 11.2 17.23 11.38C16.34 12 14.74 13.38 13.95 15.76C13.82 16.16 13.71 16.59 13.64 17.02C13.44 18.19 13.77 19.38 14.54 20.3C15.32 21.22 16.46 21.76 17.67 21.76C18.88 21.76 20.02 21.23 20.81 20.31C21.57 19.42 21.9 18.25 21.71 17.11L21.7 17.1ZM19.7 18.27C19.47 18.88 18.94 19.36 18.24 19.6C18.16 19.63 18.08 19.64 18 19.64C17.69 19.64 17.4 19.44 17.29 19.13C17.16 18.74 17.36 18.31 17.75 18.18C18.02 18.09 18.22 17.92 18.29 17.73C18.36 17.55 18.31 17.34 18.28 17.23C18.15 16.84 18.37 16.41 18.76 16.28C19.16 16.15 19.58 16.37 19.71 16.76C19.83 17.12 19.92 17.68 19.7 18.26V18.27Z" fill="black"/>
</svg>
