<svg width="24" height="24" viewBox="0 0 24 24" fill="none" xmlns="http://www.w3.org/2000/svg">
<path d="M21.2401 6.52C20.3701 4.5 18.4501 3.25 16.2301 3.25C14.7801 3.25 13.4101 3.81 12.3801 4.83L11.9701 5.23L11.5601 4.83C10.5301 3.81 9.16006 3.25 7.71006 3.25C5.49006 3.25 3.57006 4.5 2.70006 6.52C1.84006 8.51 2.23006 10.73 3.72006 12.31L11.4201 20.51C11.5601 20.66 11.7601 20.75 11.9701 20.75C12.1801 20.75 12.3701 20.66 12.5201 20.51L20.2201 12.31C21.7101 10.73 22.1001 8.5 21.2401 6.52ZM16.0001 11.75H14.4601L13.6701 13.34C13.5401 13.59 13.2801 13.75 13.0001 13.75C12.7201 13.75 12.4601 13.59 12.3301 13.34L11.0001 10.68L10.6701 11.34C10.5401 11.59 10.2801 11.75 10.0001 11.75H8.00006C7.59006 11.75 7.25006 11.41 7.25006 11C7.25006 10.59 7.59006 10.25 8.00006 10.25H9.54006L10.3301 8.66C10.5801 8.15 11.4201 8.15 11.6701 8.66L13.0001 11.32L13.3301 10.66C13.4601 10.41 13.7201 10.25 14.0001 10.25H16.0001C16.4101 10.25 16.7501 10.59 16.7501 11C16.7501 11.41 16.4101 11.75 16.0001 11.75Z" fill="black"/>
</svg>
