<svg width="24" height="24" viewBox="0 0 24 24" fill="none" xmlns="http://www.w3.org/2000/svg">
<path d="M18.73 7.24012C18.73 7.24012 18.75 7.16012 18.75 7.12012C18.75 5.05012 17.07 3.37012 15 3.37012H9C6.93 3.37012 5.25 5.05012 5.25 7.12012C5.25 7.16012 5.27 7.20012 5.27 7.24012C4.05 8.10012 3.25 9.51012 3.25 11.1201V17.1201C3.25 19.7401 5.38 21.8701 8 21.8701H16C18.62 21.8701 20.75 19.7401 20.75 17.1201V11.1201C20.75 9.52012 19.95 8.10012 18.73 7.24012ZM14 14.8701H12.75V16.1201C12.75 16.5301 12.41 16.8701 12 16.8701C11.59 16.8701 11.25 16.5301 11.25 16.1201V14.8701H10C9.59 14.8701 9.25 14.5301 9.25 14.1201C9.25 13.7101 9.59 13.3701 10 13.3701H11.25V12.1201C11.25 11.7101 11.59 11.3701 12 11.3701C12.41 11.3701 12.75 11.7101 12.75 12.1201V13.3701H14C14.41 13.3701 14.75 13.7101 14.75 14.1201C14.75 14.5301 14.41 14.8701 14 14.8701ZM16 6.37012H8C7.6 6.37012 7.21 6.44012 6.84 6.53012C7.1 5.58012 7.97 4.87012 9 4.87012H15C16.04 4.87012 16.9 5.58012 17.16 6.53012C16.79 6.44012 16.4 6.37012 16 6.37012Z" fill="black"/>
</svg>
