<svg width="24" height="24" viewBox="0 0 24 24" fill="none" xmlns="http://www.w3.org/2000/svg">
<path d="M20.8401 10.56C20.4501 10.56 20.1301 10.87 20.1001 11.25H19.4701C19.3301 9.78 18.7601 8.34 17.7701 7.13L18.2101 6.69C18.3501 6.81 18.5201 6.88 18.6901 6.88C18.8801 6.88 19.0701 6.81 19.2201 6.66C19.5101 6.37 19.5101 5.89 19.2201 5.6L18.2401 4.62C17.9501 4.33 17.4701 4.33 17.1801 4.62C16.9001 4.9 16.9001 5.34 17.1501 5.63L16.7101 6.07C15.5001 5.08 14.0701 4.51 12.5901 4.37V3.74C12.9801 3.71 13.2801 3.4 13.2801 3C13.2801 2.59 12.9401 2.25 12.5301 2.25H11.1501C10.7401 2.25 10.4001 2.59 10.4001 3C10.4001 3.41 10.7101 3.71 11.0901 3.74V4.37C9.62009 4.51 8.18009 5.08 6.97009 6.07L6.53009 5.63C6.78009 5.34 6.78009 4.9 6.50009 4.62C6.21009 4.33 5.73009 4.33 5.44009 4.62L4.46009 5.6C4.17009 5.89 4.17009 6.37 4.46009 6.66C4.61009 6.81 4.80009 6.88 4.99009 6.88C5.16009 6.88 5.33009 6.81 5.47009 6.69L5.91009 7.13C4.92009 8.34 4.35009 9.77 4.21009 11.25H3.58009C3.55009 10.86 3.24009 10.56 2.84009 10.56C2.43009 10.56 2.09009 10.9 2.09009 11.31V12.69C2.09009 13.1 2.43009 13.44 2.84009 13.44C3.25009 13.44 3.55009 13.13 3.58009 12.75H4.21009C4.35009 14.22 4.92009 15.66 5.91009 16.87L5.47009 17.31C5.18009 17.06 4.74009 17.06 4.46009 17.34C4.17009 17.63 4.17009 18.11 4.46009 18.4L5.44009 19.38C5.59009 19.53 5.78009 19.6 5.97009 19.6C6.16009 19.6 6.35009 19.53 6.50009 19.38C6.78009 19.1 6.78009 18.66 6.53009 18.37L6.97009 17.93C8.18009 18.92 9.62009 19.49 11.0901 19.63V20.26C10.7001 20.29 10.4001 20.6 10.4001 21C10.4001 21.41 10.7401 21.75 11.1501 21.75H12.5301C12.9401 21.75 13.2801 21.41 13.2801 21C13.2801 20.59 12.9701 20.29 12.5901 20.26V19.63C14.0601 19.49 15.5001 18.92 16.7101 17.93L17.1501 18.37C16.9001 18.66 16.9001 19.1 17.1801 19.38C17.3301 19.53 17.5201 19.6 17.7101 19.6C17.9001 19.6 18.0901 19.53 18.2401 19.38L19.2201 18.4C19.5101 18.11 19.5101 17.63 19.2201 17.34C18.9401 17.06 18.5001 17.06 18.2101 17.31L17.7701 16.87C18.7601 15.66 19.3301 14.23 19.4701 12.75H20.1001C20.1301 13.14 20.4401 13.44 20.8401 13.44C21.2501 13.44 21.5901 13.1 21.5901 12.69V11.31C21.5901 10.9 21.2501 10.56 20.8401 10.56ZM7.71009 13.44C7.30009 13.44 6.96009 13.1 6.96009 12.69C6.96009 12.28 7.29009 11.94 7.70009 11.94H7.71009C8.12009 11.94 8.46009 12.28 8.46009 12.69C8.46009 13.1 8.12009 13.44 7.71009 13.44ZM10.0201 16.75C9.61009 16.75 9.27009 16.41 9.27009 16C9.27009 15.59 9.60009 15.25 10.0101 15.25H10.0201C10.4301 15.25 10.7701 15.59 10.7701 16C10.7701 16.41 10.4301 16.75 10.0201 16.75ZM10.0201 9.75C9.61009 9.75 9.27009 9.41 9.27009 9C9.27009 8.59 9.60009 8.25 10.0101 8.25H10.0201C10.4301 8.25 10.7701 8.59 10.7701 9C10.7701 9.41 10.4301 9.75 10.0201 9.75ZM12.0201 12.75C11.6101 12.75 11.2701 12.41 11.2701 12C11.2701 11.59 11.6001 11.25 12.0101 11.25H12.0201C12.4301 11.25 12.7701 11.59 12.7701 12C12.7701 12.41 12.4301 12.75 12.0201 12.75ZM14.6301 16.21C14.2201 16.21 13.8801 15.87 13.8801 15.46C13.8801 15.05 14.2101 14.71 14.6301 14.71C15.0501 14.71 15.3801 15.05 15.3801 15.46C15.3801 15.87 15.0501 16.21 14.6301 16.21ZM14.6301 9.29C14.2201 9.29 13.8801 8.95 13.8801 8.54C13.8801 8.13 14.2101 7.79 14.6301 7.79C15.0501 7.79 15.3801 8.13 15.3801 8.54C15.3801 8.95 15.0501 9.29 14.6301 9.29Z" fill="black"/>
</svg>
