<svg width="24" height="24" viewBox="0 0 24 24" fill="none" xmlns="http://www.w3.org/2000/svg">
<path d="M20.7499 7.92025C20.7799 7.33025 20.7499 6.73025 20.6599 6.05025C20.2599 4.51025 19.2699 3.27025 17.9299 2.65025C16.7499 2.10025 15.4499 2.11025 14.2699 2.68025C14.1499 2.74025 14.0299 2.80025 13.9099 2.87025C13.5799 3.05025 13.2499 3.26025 12.9399 3.48025C12.4099 3.86025 11.7599 3.86025 11.2299 3.48025C10.9199 3.25025 10.5999 3.05025 10.2599 2.87025C10.1399 2.80025 10.0199 2.74025 9.89993 2.68025C8.50993 2.01025 6.96993 2.12025 5.65993 2.97025C4.14993 3.96025 3.25993 5.80025 3.33993 7.87025C3.38993 8.94025 3.62993 9.97025 4.02993 10.9403C4.22993 11.4103 4.45993 11.8603 4.73993 12.2903C4.49993 13.4303 4.34993 15.0703 4.80993 16.9403C5.28993 18.8803 6.21993 20.2503 6.91993 21.0503C7.14993 21.3103 7.41993 21.5003 7.72993 21.6203C7.94993 21.7003 8.16993 21.7403 8.39993 21.7403C8.78993 21.7403 9.17993 21.6203 9.51993 21.3703C10.0999 20.9603 10.4299 20.2703 10.3999 19.5303C10.3699 18.5503 10.4799 17.2103 11.1799 16.4503C11.3599 16.2503 11.6999 15.8803 12.0799 15.8803C12.4599 15.8803 12.8099 16.2603 12.9799 16.4503C13.6699 17.2103 13.7899 18.5403 13.7599 19.5303C13.7399 20.2703 14.0699 20.9603 14.6399 21.3703C15.1699 21.7503 15.8199 21.8403 16.4199 21.6203C16.7299 21.5003 17.0099 21.3103 17.2299 21.0503C17.9299 20.2503 18.8699 18.8803 19.3399 16.9403C19.7999 15.0703 19.6499 13.4303 19.4199 12.2903C19.6399 11.9503 19.8399 11.5903 19.9999 11.2203C20.6499 9.78025 20.7099 8.52025 20.7399 7.91025L20.7499 7.92025ZM19.2499 7.85025C19.2299 8.36025 19.1799 9.43025 18.6499 10.6103C18.4799 10.9903 18.2699 11.3603 18.0199 11.7103C17.8899 11.8903 17.8499 12.1103 17.8999 12.3203C18.1399 13.2903 18.3299 14.8203 17.8999 16.5803C17.4899 18.2303 16.6999 19.3903 16.1099 20.0603C16.0499 20.1303 15.9799 20.1803 15.8999 20.2103C15.7399 20.2703 15.5999 20.2103 15.5199 20.1503C15.3499 20.0303 15.2499 19.8103 15.2599 19.5703C15.3099 17.7403 14.9199 16.3503 14.0899 15.4403C13.8299 15.1503 13.1299 14.3803 12.0799 14.3803C11.0299 14.3803 10.3399 15.1503 10.0699 15.4303C9.23993 16.3403 8.84993 17.7303 8.89993 19.5603C8.89993 19.8003 8.80993 20.0203 8.63993 20.1403C8.55993 20.2003 8.41993 20.2603 8.25993 20.2003C8.17993 20.1703 8.11993 20.1203 8.04993 20.0503C7.45993 19.3703 6.66993 18.2203 6.25993 16.5703C5.82993 14.8103 6.01993 13.2803 6.25993 12.3103C6.30993 12.1003 6.25993 11.8803 6.14993 11.7003C5.85993 11.2803 5.60993 10.8303 5.40993 10.3503C5.06993 9.54025 4.87993 8.67025 4.82993 7.71025C4.76993 6.26025 5.40993 4.92025 6.47993 4.21025C6.95993 3.89025 7.49993 3.73025 8.02993 3.73025C8.43993 3.73025 8.84993 3.82025 9.23993 4.01025C9.33993 4.06025 9.43993 4.11025 9.53993 4.16025C9.81993 4.31025 10.0899 4.48025 10.3399 4.67025C11.3899 5.44025 12.7599 5.44025 13.8199 4.67025C14.0699 4.48025 14.3399 4.31025 14.6199 4.16025C14.7199 4.11025 14.8199 4.06025 14.9199 4.01025C15.6899 3.64025 16.5299 3.63025 17.2899 3.99025C18.1999 4.41025 18.9199 5.32025 19.1799 6.32025C19.2499 6.83025 19.2699 7.34025 19.2499 7.84025V7.85025Z" fill="black"/>
<path d="M14.5499 6.40025C13.5599 7.14025 12.5299 7.25025 11.9999 7.25025C10.7699 7.25025 9.86993 6.72025 9.44993 6.40025C9.11993 6.15025 8.64993 6.22025 8.39993 6.55025C8.14993 6.88025 8.21993 7.35025 8.54993 7.60025C9.11994 8.03025 10.3299 8.75025 11.9999 8.75025C12.7199 8.75025 14.1199 8.60025 15.4499 7.60025C15.7799 7.35025 15.8499 6.88025 15.5999 6.55025C15.3499 6.22025 14.8799 6.15025 14.5499 6.40025Z" fill="black"/>
</svg>
