<svg width="24" height="24" viewBox="0 0 24 24" fill="none" xmlns="http://www.w3.org/2000/svg">
<path d="M21.5101 6.57008L17.1401 2.46008C16.8401 2.18008 16.3601 2.19008 16.0801 2.49008C15.8001 2.79008 15.8101 3.27008 16.1101 3.55008L17.7501 5.10008L14.3401 8.76008L11.9801 6.54008C11.6801 6.26008 11.2001 6.27008 10.9201 6.57008C10.6401 6.87008 10.6501 7.35008 10.9501 7.63008L11.1301 7.80008L9.57007 9.46008L11.5201 11.4801C11.8101 11.7701 11.8101 12.2501 11.5201 12.5401C11.3701 12.6901 11.1801 12.7601 10.9901 12.7601C10.8001 12.7601 10.6101 12.6901 10.4601 12.5401L9.46007 11.5401L8.53007 10.5601L7.61007 11.5401L9.53007 13.4801C9.82007 13.7701 9.82007 14.2501 9.53007 14.5401C9.38007 14.6901 9.19007 14.7601 9.00007 14.7601C8.81007 14.7601 8.62007 14.6901 8.47007 14.5401L6.59007 12.6301L5.49007 13.8001C4.25007 15.1201 4.15007 17.1101 5.15007 18.5301L3.45007 20.3301C3.17007 20.6301 3.18007 21.1101 3.48007 21.3901C3.63007 21.5301 3.81007 21.5901 3.99007 21.5901C4.19007 21.5901 4.39007 21.5101 4.54007 21.3501L6.24007 19.5501C6.84007 19.9201 7.53007 20.1101 8.21007 20.1101C9.21007 20.1101 10.2001 19.7101 10.9401 18.9301L16.6001 12.9201L16.7801 13.0901C16.9301 13.2301 17.1101 13.2901 17.2901 13.2901C17.4901 13.2901 17.6901 13.2101 17.8401 13.0501C18.1201 12.7501 18.1101 12.2701 17.8101 11.9901L15.4401 9.76008L18.8501 6.10008L20.4801 7.64008C20.6301 7.78008 20.8101 7.84008 20.9901 7.84008C21.1901 7.84008 21.3901 7.76008 21.5401 7.60008C21.8201 7.30008 21.8101 6.82008 21.5101 6.54008V6.57008Z" fill="black"/>
</svg>
