<svg width="24" height="24" viewBox="0 0 24 24" fill="none" xmlns="http://www.w3.org/2000/svg">
<path d="M17 2.25H7C4.38 2.25 2.25 4.38 2.25 7V17C2.25 19.62 4.38 21.75 7 21.75H17C19.62 21.75 21.75 19.62 21.75 17V7C21.75 4.38 19.62 2.25 17 2.25ZM14.74 13.44C15.05 13.72 15.07 14.19 14.8 14.5C14.09 15.29 13.07 15.75 12.01 15.75C9.94 15.75 8.26 14.07 8.26 12C8.26 9.93 9.94 8.25 12.01 8.25C12.42 8.25 12.76 8.59 12.76 9C12.76 9.41 12.42 9.75 12.01 9.75C10.77 9.75 9.76 10.76 9.76 12C9.76 13.24 10.77 14.25 12.01 14.25C12.65 14.25 13.26 13.98 13.69 13.5C13.97 13.19 14.44 13.17 14.75 13.44H14.74ZM12 18.75C8.28 18.75 5.25 15.72 5.25 12C5.25 8.28 8.28 5.25 12 5.25C12.41 5.25 12.75 5.59 12.75 6C12.75 6.41 12.41 6.75 12 6.75C9.11 6.75 6.75 9.1 6.75 12C6.75 14.9 9.11 17.25 12 17.25C14.89 17.25 17.25 14.9 17.25 12C17.25 11.59 17.59 11.25 18 11.25C18.41 11.25 18.75 11.59 18.75 12C18.75 15.72 15.72 18.75 12 18.75Z" fill="black"/>
</svg>
