<svg width="24" height="24" viewBox="0 0 24 24" fill="none" xmlns="http://www.w3.org/2000/svg">
<path d="M18.65 8.15998C18.44 7.56998 17.94 7.11998 17.29 7.01998L12.29 6.18998C12.1 6.15998 11.91 6.15998 11.72 6.18998L6.72001 7.01998C6.07001 7.12998 5.57001 7.57998 5.36001 8.15998C3.64001 8.23998 2.26001 9.64998 2.26001 11.39C2.26001 13.13 3.60001 14.5 5.29001 14.62C5.36001 15.11 5.62001 15.55 6.03001 15.82C7.28001 16.65 9.32001 17.64 12.01 17.64C13.23 17.64 15.63 17.4 18 15.82C18.41 15.55 18.66 15.11 18.73 14.62C20.42 14.5 21.76 13.11 21.76 11.39C21.76 9.66998 20.38 8.22998 18.66 8.15998H18.65ZM5.25001 13.13C4.40001 13.01 3.75001 12.28 3.75001 11.4C3.75001 10.52 4.40001 9.78998 5.25001 9.66998V13.13ZM15.74 13.89C14.55 14.37 13.29 14.62 12 14.62C10.71 14.62 9.43001 14.37 8.26001 13.89C7.88001 13.73 7.69001 13.3 7.85001 12.91C8.01001 12.53 8.44001 12.34 8.83001 12.5C10.83 13.32 13.18 13.32 15.19 12.5C15.57 12.34 16.01 12.53 16.17 12.91C16.33 13.29 16.14 13.73 15.76 13.89H15.74ZM15.74 11.19C14.55 11.67 13.29 11.92 12 11.92C10.71 11.92 9.45001 11.67 8.26001 11.19C7.88001 11.03 7.69001 10.6 7.85001 10.21C8.01001 9.82998 8.44001 9.63998 8.83001 9.79998C10.84 10.62 13.18 10.62 15.19 9.79998C15.58 9.63998 16.01 9.82998 16.17 10.21C16.33 10.59 16.14 11.03 15.76 11.19H15.74ZM18.75 13.13V9.66998C19.6 9.78998 20.25 10.52 20.25 11.4C20.25 12.28 19.6 13.01 18.75 13.13Z" fill="black"/>
</svg>
