<svg width="24" height="24" viewBox="0 0 24 24" fill="none" xmlns="http://www.w3.org/2000/svg">
<path d="M21.5099 6.57008L17.1399 2.46008C16.8399 2.18008 16.3599 2.19008 16.0799 2.49008C15.7999 2.79008 15.8099 3.27008 16.1099 3.55008L17.7499 5.10008L14.3399 8.76008L11.9799 6.54008C11.6799 6.26008 11.1999 6.27008 10.9199 6.57008C10.6399 6.87008 10.6499 7.35008 10.9499 7.63008L11.1299 7.80008L5.46993 13.8001C4.22993 15.1201 4.12993 17.1101 5.12993 18.5301L3.42993 20.3301C3.14993 20.6301 3.15993 21.1101 3.45993 21.3901C3.60993 21.5301 3.78993 21.5901 3.96993 21.5901C4.16993 21.5901 4.36993 21.5101 4.51993 21.3501L6.21993 19.5501C6.81993 19.9201 7.50993 20.1101 8.18993 20.1101C9.18993 20.1101 10.1799 19.7101 10.9199 18.9301L16.5799 12.9201L16.7599 13.0901C16.9099 13.2301 17.0899 13.2901 17.2699 13.2901C17.4699 13.2901 17.6699 13.2101 17.8199 13.0501C18.0999 12.7501 18.0899 12.2701 17.7899 11.9901L15.4199 9.76008L18.8299 6.10008L20.4599 7.64008C20.6099 7.78008 20.7899 7.84008 20.9699 7.84008C21.1699 7.84008 21.3699 7.76008 21.5199 7.60008C21.7999 7.30008 21.7899 6.82008 21.4899 6.54008L21.5099 6.57008ZM9.84993 17.9101C8.99993 18.8201 7.56993 18.8601 6.66993 18.0101C6.22993 17.6001 5.97993 17.0401 5.95993 16.4401C5.93993 15.8401 6.15993 15.2701 6.56993 14.8301L7.62993 13.7101L8.45993 14.5401C8.60993 14.6901 8.79993 14.7601 8.98993 14.7601C9.17993 14.7601 9.36993 14.6901 9.51993 14.5401C9.80993 14.2501 9.80993 13.7701 9.51993 13.4801L8.65993 12.6201L9.56993 11.6501L10.4599 12.5401C10.6099 12.6901 10.7999 12.7601 10.9899 12.7601C11.1799 12.7601 11.3699 12.6901 11.5199 12.5401C11.8099 12.2501 11.8099 11.7701 11.5199 11.4801L10.5999 10.5601L12.2299 8.83008L13.3299 9.86008L15.4999 11.9101L9.83993 17.9101H9.84993Z" fill="black"/>
</svg>
