<svg width="24" height="24" viewBox="0 0 24 24" fill="none" xmlns="http://www.w3.org/2000/svg">
<path d="M7.5 20.6499C8.74264 20.6499 9.75 19.6425 9.75 18.3999C9.75 17.1573 8.74264 16.1499 7.5 16.1499C6.25736 16.1499 5.25 17.1573 5.25 18.3999C5.25 19.6425 6.25736 20.6499 7.5 20.6499Z" fill="black"/>
<path d="M16.5 20.6499C17.7426 20.6499 18.75 19.6425 18.75 18.3999C18.75 17.1573 17.7426 16.1499 16.5 16.1499C15.2574 16.1499 14.25 17.1573 14.25 18.3999C14.25 19.6425 15.2574 20.6499 16.5 20.6499Z" fill="black"/>
<path d="M14.75 3.8999C14.75 2.9399 13.96 2.1499 13 2.1499H12C11.04 2.1499 10.25 2.9399 10.25 3.8999V4.6499H14.75V3.8999Z" fill="black"/>
<path d="M12.74 6.7599L13.35 9.1999C13.49 9.7599 13.99 10.1499 14.56 10.1499H18.62C18.59 10.0899 18.55 10.0299 18.54 9.9699L18.11 8.2299C17.8 6.9999 16.71 6.1499 15.44 6.1499H12.63L12.74 6.7699V6.7599Z" fill="black"/>
<path d="M20.53 11.6799L20.48 11.6499H14.56C13.3 11.6499 12.2 10.7899 11.89 9.5699L11.27 7.0799L11.1 6.1499H5C3.48 6.1499 2.25 7.3799 2.25 8.8999V15.8999C2.25 16.9699 2.87 17.8899 3.76 18.3399C3.79 16.2999 5.46 14.6499 7.5 14.6499C9.54 14.6499 11.25 16.3299 11.25 18.3999C11.25 18.5199 11.23 18.6399 11.21 18.7599H12.78C12.77 18.6399 12.74 18.5199 12.74 18.3999C12.74 16.3299 14.42 14.6499 16.49 14.6499C18.56 14.6499 20.2 16.2999 20.23 18.3399C21.12 17.8799 21.74 16.9699 21.74 15.8999V13.9699C21.74 13.0499 21.28 12.1899 20.52 11.6799H20.53ZM7.75 11.6499H7.5V12.0099C7.5 12.4199 7.16 12.7599 6.75 12.7599C6.34 12.7599 6 12.4199 6 12.0099V11.6499H5.75C5.34 11.6499 5 11.3099 5 10.8999C5 10.4899 5.34 10.1499 5.75 10.1499H6V9.8999C6 9.4899 6.34 9.1499 6.75 9.1499C7.16 9.1499 7.5 9.4899 7.5 9.8999V10.1499H7.75C8.16 10.1499 8.5 10.4899 8.5 10.8999C8.5 11.3099 8.16 11.6499 7.75 11.6499Z" fill="black"/>
</svg>
