<svg width="24" height="24" viewBox="0 0 24 24" fill="none" xmlns="http://www.w3.org/2000/svg">
<path d="M15 11.1201H12.75V9.00012C12.75 8.59012 12.41 8.25012 12 8.25012C11.59 8.25012 11.25 8.59012 11.25 9.00012V11.1201H9C8.59 11.1201 8.25 11.4601 8.25 11.8701C8.25 12.2801 8.59 12.6201 9 12.6201H11.25V15.0001C11.25 15.4101 11.59 15.7501 12 15.7501C12.41 15.7501 12.75 15.4101 12.75 15.0001V12.6201H15C15.41 12.6201 15.75 12.2801 15.75 11.8701C15.75 11.4601 15.41 11.1201 15 11.1201Z" fill="black"/>
<path d="M20.11 6.34012C19.86 5.56012 19.25 4.92012 18.44 4.59012L13.19 2.47012C12.43 2.17012 11.57 2.17012 10.81 2.47012L5.56 4.59012C4.75 4.92012 4.14 5.55012 3.89 6.34012C3.21 8.47012 2.47 12.6501 5.09 16.7401C6.59 19.0801 8.66 20.5001 10.13 21.2901C10.71 21.6001 11.35 21.7501 12 21.7501C12.65 21.7501 13.29 21.6001 13.87 21.2901C15.34 20.5101 17.41 19.0801 18.91 16.7401C21.53 12.6501 20.79 8.47012 20.11 6.34012ZM17.64 15.9301C16.32 18.0001 14.47 19.2601 13.16 19.9601C12.44 20.3401 11.55 20.3401 10.83 19.9601C9.52 19.2601 7.67 18.0001 6.35 15.9301C4.06 12.3501 4.72 8.67012 5.31 6.79012C5.42 6.44012 5.71 6.14012 6.11 5.98012L11.36 3.86012C11.76 3.70012 12.22 3.70012 12.62 3.86012L17.87 5.98012C18.27 6.14012 18.56 6.44012 18.67 6.79012C19.27 8.67012 19.92 12.3501 17.63 15.9301H17.64Z" fill="black"/>
</svg>
