<svg width="24" height="24" viewBox="0 0 24 24" fill="none" xmlns="http://www.w3.org/2000/svg">
<path d="M11.25 13.25V11.75H10.5C10.09 11.75 9.75 12.09 9.75 12.5C9.75 12.91 10.09 13.25 10.5 13.25H11.25Z" fill="black"/>
<path d="M14.25 12.5C14.25 12.09 13.91 11.75 13.5 11.75H12.75V13.25H13.5C13.91 13.25 14.25 12.91 14.25 12.5Z" fill="black"/>
<path d="M12 2.25C6.62 2.25 2.25 6.62 2.25 12C2.25 17.38 6.62 21.75 12 21.75C17.38 21.75 21.75 17.38 21.75 12C21.75 6.62 17.38 2.25 12 2.25ZM11.92 18.69C8.71 18.69 5.97 16.54 5.26 13.46C5.17 13.06 5.42 12.65 5.82 12.56C6.23 12.46 6.63 12.72 6.72 13.12C7.26 15.47 9.45 17.18 11.91 17.18C14.85 17.18 17.24 14.84 17.24 11.96C17.24 9.08 14.85 6.74 11.91 6.74C10.51 6.74 9.18 7.29 8.18 8.24H8.98C9.39 8.24 9.73 8.58 9.73 8.99C9.73 9.4 9.39 9.74 8.98 9.74H6.98C6.57 9.74 6.23 9.4 6.23 8.99V6.99C6.23 6.58 6.57 6.24 6.98 6.24C7.29 6.24 7.56 6.43 7.67 6.7C8.87 5.77 10.36 5.24 11.9 5.24C15.66 5.24 18.73 8.26 18.73 11.96C18.73 15.66 15.67 18.68 11.9 18.68L11.92 18.69ZM8.25 12.5C8.25 11.26 9.26 10.25 10.5 10.25H13.5C14.74 10.25 15.75 11.26 15.75 12.5C15.75 13.74 14.74 14.75 13.5 14.75H10.5C9.26 14.75 8.25 13.74 8.25 12.5Z" fill="black"/>
</svg>
