<svg width="24" height="24" viewBox="0 0 24 24" fill="none" xmlns="http://www.w3.org/2000/svg">
<path d="M16 8.25H12.75V7.5C12.75 7.09 13.09 6.75 13.5 6.75H15.5C16.74 6.75 17.75 5.74 17.75 4.5C17.75 3.26 16.74 2.25 15.5 2.25H14C13.59 2.25 13.25 2.59 13.25 3C13.25 3.41 13.59 3.75 14 3.75H15.5C15.91 3.75 16.25 4.09 16.25 4.5C16.25 4.91 15.91 5.25 15.5 5.25H13.5C12.26 5.25 11.25 6.26 11.25 7.5V8.25H8C4.83 8.25 2.25 10.83 2.25 14C2.25 17.17 4.83 19.75 8 19.75H16C19.17 19.75 21.75 17.17 21.75 14C21.75 10.83 19.17 8.25 16 8.25ZM16 18.25H8C5.66 18.25 3.75 16.34 3.75 14C3.75 11.66 5.66 9.75 8 9.75H16C18.34 9.75 20.25 11.66 20.25 14C20.25 16.34 18.34 18.25 16 18.25Z" fill="black"/>
<path d="M10 13.25H8.75V12C8.75 11.59 8.41 11.25 8 11.25C7.59 11.25 7.25 11.59 7.25 12V13.25H6C5.59 13.25 5.25 13.59 5.25 14C5.25 14.41 5.59 14.75 6 14.75H7.25V16C7.25 16.41 7.59 16.75 8 16.75C8.41 16.75 8.75 16.41 8.75 16V14.75H10C10.41 14.75 10.75 14.41 10.75 14C10.75 13.59 10.41 13.25 10 13.25Z" fill="black"/>
<path d="M16.02 11.25C15.61 11.25 15.27 11.59 15.27 12C15.27 12.41 15.61 12.75 16.02 12.75C16.43 12.75 16.77 12.41 16.77 12C16.77 11.59 16.44 11.25 16.02 11.25Z" fill="black"/>
<path d="M18.02 13.25C17.61 13.25 17.27 13.59 17.27 14C17.27 14.41 17.61 14.75 18.02 14.75C18.43 14.75 18.77 14.41 18.77 14C18.77 13.59 18.44 13.25 18.02 13.25Z" fill="black"/>
<path d="M16.02 15.25C15.61 15.25 15.27 15.59 15.27 16C15.27 16.41 15.61 16.75 16.02 16.75C16.43 16.75 16.77 16.41 16.77 16C16.77 15.59 16.44 15.25 16.02 15.25Z" fill="black"/>
<path d="M14.02 13.25C13.61 13.25 13.27 13.59 13.27 14C13.27 14.41 13.61 14.75 14.02 14.75C14.43 14.75 14.77 14.41 14.77 14C14.77 13.59 14.44 13.25 14.02 13.25Z" fill="black"/>
</svg>
