<svg width="24" height="24" viewBox="0 0 24 24" fill="none" xmlns="http://www.w3.org/2000/svg">
<path d="M18.38 4.09001C17.17 2.80001 15.48 2.14001 13.74 2.26001C12 2.39001 10.44 3.28001 9.44 4.70001C8.28 6.35001 8.08 8.52001 8.91 10.37C8.98 10.52 8.96 10.71 8.87 10.84L4.58 16.79C4.36 17.09 4.25 17.44 4.25 17.81V19.58C4.25 20.15 4.53 20.69 4.99 21.01C5.29 21.22 5.64 21.33 6 21.33C6.2 21.33 6.4 21.3 6.59 21.23L8.29 20.61C8.63 20.49 8.92 20.27 9.13 19.97L13.35 13.94C13.45 13.8 13.59 13.73 13.73 13.73C16.13 13.9 18.34 12.6 19.37 10.41C20.36 8.31001 19.96 5.77001 18.37 4.10001L18.38 4.09001ZM14.93 8.00001C14.1 8.00001 13.43 7.33001 13.43 6.50001C13.43 5.67001 14.1 5.00001 14.93 5.00001C15.76 5.00001 16.43 5.67001 16.43 6.50001C16.43 7.33001 15.76 8.00001 14.93 8.00001Z" fill="black"/>
</svg>
