<svg width="24" height="24" viewBox="0 0 24 24" fill="none" xmlns="http://www.w3.org/2000/svg">
<path d="M7 3.75H16C16.41 3.75 16.75 3.41 16.75 3C16.75 2.59 16.41 2.25 16 2.25H7C6.59 2.25 6.25 2.59 6.25 3C6.25 3.41 6.59 3.75 7 3.75Z" fill="black"/>
<path d="M11.5 5.25C6.95 5.25 3.25 8.95 3.25 13.5C3.25 18.05 6.95 21.75 11.5 21.75C16.05 21.75 19.75 18.05 19.75 13.5C19.75 8.95 16.05 5.25 11.5 5.25ZM12.25 14C12.25 14.41 11.91 14.75 11.5 14.75C11.09 14.75 10.75 14.41 10.75 14V10C10.75 9.59 11.09 9.25 11.5 9.25C11.91 9.25 12.25 9.59 12.25 10V14Z" fill="black"/>
</svg>
