<svg width="24" height="24" viewBox="0 0 24 24" fill="none" xmlns="http://www.w3.org/2000/svg">
<path d="M16 2.25H8C4.83 2.25 2.25 4.83 2.25 8V16C2.25 19.17 4.83 21.75 8 21.75H16C19.17 21.75 21.75 19.17 21.75 16V8C21.75 4.83 19.17 2.25 16 2.25ZM9.75 10.63V18C9.75 18.41 9.41 18.75 9 18.75C8.59 18.75 8.25 18.41 8.25 18V10.63C7.1 10.3 6.25 9.25 6.25 8C6.25 6.48 7.48 5.25 9 5.25C10.52 5.25 11.75 6.48 11.75 8C11.75 9.25 10.9 10.3 9.75 10.63ZM15 18.75C13.48 18.75 12.25 17.52 12.25 16C12.25 14.75 13.1 13.7 14.25 13.37V6C14.25 5.59 14.59 5.25 15 5.25C15.41 5.25 15.75 5.59 15.75 6V13.37C16.9 13.7 17.75 14.75 17.75 16C17.75 17.52 16.52 18.75 15 18.75Z" fill="black"/>
<path d="M9 9.25C9.69036 9.25 10.25 8.69036 10.25 8C10.25 7.30964 9.69036 6.75 9 6.75C8.30964 6.75 7.75 7.30964 7.75 8C7.75 8.69036 8.30964 9.25 9 9.25Z" fill="black"/>
<path d="M15 17.25C15.6904 17.25 16.25 16.6904 16.25 16C16.25 15.3096 15.6904 14.75 15 14.75C14.3096 14.75 13.75 15.3096 13.75 16C13.75 16.6904 14.3096 17.25 15 17.25Z" fill="black"/>
</svg>
