<svg width="24" height="24" viewBox="0 0 24 24" fill="none" xmlns="http://www.w3.org/2000/svg">
<path d="M12 22.5C8.42 22.5 5.5 19.58 5.5 16V8C5.5 4.42 8.42 1.5 12 1.5C15.58 1.5 18.5 4.42 18.5 8V13.5C18.5 15.71 16.71 17.5 14.5 17.5C12.29 17.5 10.5 15.71 10.5 13.5V9C10.5 8.17 11.17 7.5 12 7.5C12.83 7.5 13.5 8.17 13.5 9V13.5C13.5 14.05 13.95 14.5 14.5 14.5C15.05 14.5 15.5 14.05 15.5 13.5V8C15.5 6.07 13.93 4.5 12 4.5C10.07 4.5 8.5 6.07 8.5 8V16C8.5 17.93 10.07 19.5 12 19.5C12.76 19.5 13.49 19.26 14.1 18.8C14.76 18.3 15.7 18.43 16.2 19.1C16.7 19.76 16.56 20.7 15.9 21.2C14.77 22.05 13.42 22.5 12 22.5Z" fill="black"/>
</svg>
