<svg width="24" height="24" viewBox="0 0 24 24" fill="none" xmlns="http://www.w3.org/2000/svg">
<path d="M12 2.25C6.62 2.25 2.25 6.62 2.25 12C2.25 17.38 6.62 21.75 12 21.75C17.38 21.75 21.75 17.38 21.75 12C21.75 6.62 17.38 2.25 12 2.25ZM12.75 16.84C12.75 17.25 12.41 17.59 12 17.59C11.59 17.59 11.25 17.25 11.25 16.84V16C11.25 15.59 11.59 15.25 12 15.25C12.41 15.25 12.75 15.59 12.75 16V16.84ZM13.63 11.22C13.3 11.46 12.75 11.97 12.75 12.74V13C12.75 13.41 12.41 13.75 12 13.75C11.59 13.75 11.25 13.41 11.25 13V12.74C11.25 11.7 11.79 10.7 12.74 10.01C13.06 9.77 13.25 9.4 13.25 9C13.25 8.31 12.69 7.75 12 7.75C11.31 7.75 10.75 8.31 10.75 9C10.75 9.41 10.41 9.75 10 9.75C9.59 9.75 9.25 9.41 9.25 9C9.25 7.48 10.48 6.25 12 6.25C13.52 6.25 14.75 7.48 14.75 9C14.75 9.87 14.33 10.7 13.63 11.22Z" fill="black"/>
</svg>
