<svg width="24" height="24" viewBox="0 0 24 24" fill="none" xmlns="http://www.w3.org/2000/svg">
<path d="M15.22 11.7C14.5 11.29 13.59 11.53 13.17 12.25C12.72 13.02 11.89 13.5 11 13.5H7C5.62 13.5 4.5 12.38 4.5 11C4.5 9.62 5.62 8.5 7 8.5C7.83 8.5 8.5 7.83 8.5 7C8.5 6.17 7.83 5.5 7 5.5C3.97 5.5 1.5 7.97 1.5 11C1.5 14.03 3.97 16.5 7 16.5H11C12.96 16.5 14.78 15.45 15.76 13.75C16.17 13.03 15.93 12.12 15.21 11.7H15.22Z" fill="black"/>
<path d="M13 6.5C11.04 6.5 9.22 7.55 8.24 9.25C7.83 9.97 8.07 10.88 8.79 11.3C9.51 11.72 10.42 11.47 10.84 10.75C11.29 9.98 12.12 9.5 13.01 9.5H17.01C18.39 9.5 19.51 10.62 19.51 12C19.51 13.38 18.39 14.5 17.01 14.5C16.18 14.5 15.51 15.17 15.51 16C15.51 16.83 16.18 17.5 17.01 17.5C20.04 17.5 22.51 15.03 22.51 12C22.51 8.97 20.04 6.5 17.01 6.5H13Z" fill="black"/>
</svg>
