<svg width="24" height="24" viewBox="0 0 24 24" fill="none" xmlns="http://www.w3.org/2000/svg">
<path d="M18.67 7.92C18.21 5.01 15.75 2.65 12.82 2.3C10.89 2.07 8.96 2.68 7.52 3.96C6.08 5.24 5.25 7.08 5.25 9.01C5.25 10.94 5.97 12.56 7.29 13.84C7.9 14.44 8.25 15.27 8.25 16.14V17.01C8.25 17.97 9.04 18.76 10 18.76H14C14.96 18.76 15.75 17.98 15.75 17.01V16.14C15.75 15.28 16.12 14.44 16.79 13.77C18.32 12.23 19.01 10.1 18.67 7.93V7.92ZM14.25 17C14.25 17.14 14.14 17.25 14 17.25H10C9.86 17.25 9.75 17.14 9.75 17V16.13C9.75 16 9.72 15.88 9.71 15.75H14.29C14.28 15.88 14.25 16 14.25 16.13V17ZM15.72 12.7C15.26 13.16 14.91 13.69 14.66 14.25H9.35C9.11 13.69 8.77 13.18 8.33 12.76C7.31 11.76 6.75 10.43 6.75 9C6.75 7.5 7.39 6.07 8.51 5.08C9.48 4.21 10.7 3.75 11.99 3.75C12.2 3.75 12.42 3.76 12.64 3.79C14.92 4.06 16.83 5.89 17.18 8.15C17.44 9.84 16.91 11.5 15.72 12.7Z" fill="black"/>
<path d="M15 20.25H9C8.59 20.25 8.25 20.59 8.25 21C8.25 21.41 8.59 21.75 9 21.75H15C15.41 21.75 15.75 21.41 15.75 21C15.75 20.59 15.41 20.25 15 20.25Z" fill="black"/>
</svg>
