<svg width="24" height="24" viewBox="0 0 24 24" fill="none" xmlns="http://www.w3.org/2000/svg">
<path d="M21.5201 9.74C19.5601 6.35 15.9101 4.25 12.0001 4.25C8.09007 4.25 4.44006 6.35 2.47006 9.74C2.08006 10.41 2.22006 11.3 2.80006 11.84L10.8101 19.29C11.1401 19.6 11.5601 19.75 11.9801 19.75C12.4001 19.75 12.8201 19.6 13.1501 19.29L21.1701 11.84C21.7501 11.3 21.9001 10.41 21.5001 9.74H21.5201ZM15.5101 15.06C15.3701 15.19 15.1801 15.26 15.0001 15.26C14.8001 15.26 14.6001 15.18 14.4501 15.02C13.1701 13.64 10.8301 13.64 9.55006 15.02C9.27006 15.32 8.79006 15.34 8.49006 15.06C8.19006 14.78 8.17006 14.3 8.45006 14C9.36006 13.02 10.6601 12.46 11.9901 12.46C13.3201 12.46 14.6301 13.02 15.5401 14.01C15.8201 14.31 15.8101 14.79 15.5001 15.07L15.5101 15.06ZM18.4501 12.65C18.3101 12.75 18.1601 12.8 18.0001 12.8C17.7701 12.8 17.5501 12.7 17.4001 12.5C16.1501 10.84 14.1301 9.85 12.0001 9.85C9.87006 9.85 7.89006 10.82 6.64006 12.46C6.39006 12.79 5.92006 12.85 5.59006 12.6C5.26006 12.35 5.20006 11.88 5.45006 11.55C6.99006 9.55 9.44006 8.36 12.0001 8.36C14.5601 8.36 17.0601 9.57 18.6001 11.61C18.8501 11.94 18.7801 12.41 18.4501 12.66V12.65Z" fill="black"/>
</svg>
