<svg width="24" height="24" viewBox="0 0 24 24" fill="none" xmlns="http://www.w3.org/2000/svg">
<path d="M20.16 8.25001L14.49 3.21001C13.07 1.95001 10.93 1.95001 9.51 3.21001L3.84 8.25001C2.83 9.15001 2.25 10.44 2.25 11.8V17C2.25 19.62 4.38 21.75 7 21.75H17C19.62 21.75 21.75 19.62 21.75 17V11.8C21.75 10.44 21.17 9.15001 20.16 8.25001ZM20.25 17C20.25 18.79 18.79 20.25 17 20.25H7C5.21 20.25 3.75 18.79 3.75 17V11.8C3.75 10.87 4.15 9.99001 4.84 9.37001L10.5 4.33001C10.93 3.95001 11.46 3.76001 12 3.76001C12.54 3.76001 13.07 3.95001 13.5 4.33001L19.16 9.37001C19.85 9.99001 20.25 10.87 20.25 11.8V17Z" fill="black"/>
<path d="M16 16.25H8C7.59 16.25 7.25 16.59 7.25 17C7.25 17.41 7.59 17.75 8 17.75H16C16.41 17.75 16.75 17.41 16.75 17C16.75 16.59 16.41 16.25 16 16.25Z" fill="black"/>
</svg>
