<svg width="24" height="24" viewBox="0 0 24 24" fill="none" xmlns="http://www.w3.org/2000/svg">
<path d="M21.18 15.7801L19.77 14.3701C18.7 13.3001 16.95 13.3001 15.88 14.3701L15.17 15.0801C15.1 15.1501 15 15.1501 14.99 15.1601C14.94 15.1601 14.88 15.1501 14.82 15.0901L9.16 9.42007C9.1 9.36007 9.09 9.29007 9.09 9.25007C9.09 9.21007 9.1 9.14007 9.17 9.07007L9.88 8.36007C10.95 7.29007 10.95 5.54007 9.88 4.47007L8.47 3.06007C7.4 1.99007 5.65 1.99007 4.58 3.06007L3.96 3.68007C2.28 5.36007 1.81 7.95007 2.79 10.1301C3.9 12.6101 5.5 14.9401 7.41 16.8501C9.37 18.8101 11.65 20.3701 14.21 21.5001C14.94 21.8201 15.72 21.9801 16.5 21.9801C18 21.9801 19.49 21.4001 20.58 20.3001L21.2 19.6801C22.27 18.6101 22.27 16.8601 21.2 15.7901L21.18 15.7801Z" fill="black"/>
<path d="M14 7.75007C15.24 7.75007 16.25 8.76007 16.25 10.0001C16.25 10.4101 16.59 10.7501 17 10.7501C17.41 10.7501 17.75 10.4101 17.75 10.0001C17.75 7.93007 16.07 6.25007 14 6.25007C13.59 6.25007 13.25 6.59007 13.25 7.00007C13.25 7.41007 13.59 7.75007 14 7.75007Z" fill="black"/>
<path d="M14 4.75007C16.9 4.75007 19.25 7.10007 19.25 10.0001C19.25 10.4101 19.59 10.7501 20 10.7501C20.41 10.7501 20.75 10.4101 20.75 10.0001C20.75 6.28007 17.72 3.25007 14 3.25007C13.59 3.25007 13.25 3.59007 13.25 4.00007C13.25 4.41007 13.59 4.75007 14 4.75007Z" fill="black"/>
</svg>
