<svg width="24" height="24" viewBox="0 0 24 24" fill="none" xmlns="http://www.w3.org/2000/svg">
<path d="M21.0699 10.29C19.6499 8.78 16.5899 6.25 11.9899 6.25C7.38994 6.25 4.36994 8.75 2.95994 10.24C2.00994 11.24 2.00994 12.76 2.95994 13.77C4.36994 15.26 7.42994 17.76 11.9899 17.76C16.5499 17.76 19.6499 15.23 21.0699 13.72C21.9899 12.74 21.9899 11.27 21.0699 10.29ZM11.9999 14.75C10.4799 14.75 9.24994 13.52 9.24994 12C9.24994 10.48 10.4799 9.25 11.9999 9.25C13.5199 9.25 14.7499 10.48 14.7499 12C14.7499 13.52 13.5199 14.75 11.9999 14.75Z" fill="black"/>
<path d="M11.9999 13.25C12.6903 13.25 13.2499 12.6904 13.2499 12C13.2499 11.3096 12.6903 10.75 11.9999 10.75C11.3096 10.75 10.7499 11.3096 10.7499 12C10.7499 12.6904 11.3096 13.25 11.9999 13.25Z" fill="black"/>
</svg>
