<svg width="24" height="24" viewBox="0 0 24 24" fill="none" xmlns="http://www.w3.org/2000/svg">
<path d="M19 5.25H8C6.48 5.25 5.25 6.48 5.25 8V8.25H5C3.48 8.25 2.25 9.48 2.25 11V17C2.25 18.52 3.48 19.75 5 19.75H16C17.52 19.75 18.75 18.52 18.75 17V11C18.75 9.48 17.52 8.25 16 8.25H6.75V8C6.75 7.31 7.31 6.75 8 6.75H19C19.69 6.75 20.25 7.31 20.25 8V16C20.25 16.41 20.59 16.75 21 16.75C21.41 16.75 21.75 16.41 21.75 16V8C21.75 6.48 20.52 5.25 19 5.25ZM17.25 11V17C17.25 17.69 16.69 18.25 16 18.25H5C4.31 18.25 3.75 17.69 3.75 17V11C3.75 10.31 4.31 9.75 5 9.75H16C16.69 9.75 17.25 10.31 17.25 11Z" fill="black"/>
</svg>
