<svg width="24" height="24" viewBox="0 0 24 24" fill="none" xmlns="http://www.w3.org/2000/svg">
<path d="M19 5.25H15.75V16C15.75 16.41 15.41 16.75 15 16.75C14.59 16.75 14.25 16.41 14.25 16V4.96L9.54002 3.39C9.26002 3.3 8.97002 3.25 8.67002 3.25H4.99002C3.47002 3.25 2.24002 4.48 2.24002 6V16C2.24002 17.52 3.47002 18.75 4.99002 18.75H8.24002V8C8.24002 7.59 8.58002 7.25 8.99002 7.25C9.40002 7.25 9.74002 7.59 9.74002 8V19.04L14.45 20.61C14.73 20.7 15.02 20.75 15.32 20.75H19C20.52 20.75 21.75 19.52 21.75 18V8C21.75 6.48 20.52 5.25 19 5.25Z" fill="black"/>
</svg>
