<svg width="24" height="24" viewBox="0 0 24 24" fill="none" xmlns="http://www.w3.org/2000/svg">
<path d="M20 3.25H4C3.04 3.25 2.25 4.04 2.25 5V7C2.25 7.7 2.66 8.29 3.25 8.57V16C3.25 18.62 5.38 20.75 8 20.75H16C18.62 20.75 20.75 18.62 20.75 16V8.57C21.34 8.29 21.75 7.69 21.75 7V5C21.75 4.04 20.96 3.25 20 3.25ZM3.75 5C3.75 4.86 3.86 4.75 4 4.75H20C20.14 4.75 20.25 4.86 20.25 5V7C20.25 7.14 20.14 7.25 20 7.25H4C3.86 7.25 3.75 7.14 3.75 7V5ZM19.25 16C19.25 17.79 17.79 19.25 16 19.25H8C6.21 19.25 4.75 17.79 4.75 16V8.75H19.25V16Z" fill="black"/>
<path d="M9 12.75H15C15.41 12.75 15.75 12.41 15.75 12C15.75 11.59 15.41 11.25 15 11.25H9C8.59 11.25 8.25 11.59 8.25 12C8.25 12.41 8.59 12.75 9 12.75Z" fill="black"/>
</svg>
