<svg width="24" height="24" viewBox="0 0 24 24" fill="none" xmlns="http://www.w3.org/2000/svg">
<path d="M19 7.25H5C4.59 7.25 4.25 7.59 4.25 8V16C4.25 18.62 6.38 20.75 9 20.75H15C17.62 20.75 19.75 18.62 19.75 16V8C19.75 7.59 19.41 7.25 19 7.25ZM15 12.75H9C8.59 12.75 8.25 12.41 8.25 12C8.25 11.59 8.59 11.25 9 11.25H15C15.41 11.25 15.75 11.59 15.75 12C15.75 12.41 15.41 12.75 15 12.75Z" fill="black"/>
<path d="M19 3.25H5C3.48 3.25 2.25 4.48 2.25 6C2.25 6.61 2.45 7.16 2.79 7.62C2.97 6.56 3.89 5.75 5 5.75H19C20.11 5.75 21.03 6.56 21.21 7.62C21.54 7.16 21.75 6.61 21.75 6C21.75 4.48 20.52 3.25 19 3.25Z" fill="black"/>
</svg>
