<svg width="24" height="24" viewBox="0 0 24 24" fill="none" xmlns="http://www.w3.org/2000/svg">
<path d="M12 2.25C6.62 2.25 2.25 6.62 2.25 12V18C2.25 19.52 3.48 20.75 5 20.75H6C7.52 20.75 8.75 19.52 8.75 18V16C8.75 14.48 7.52 13.25 6 13.25H3.75V12C3.75 7.45 7.45 3.75 12 3.75C16.55 3.75 20.25 7.45 20.25 12V13.25H18C16.48 13.25 15.25 14.48 15.25 16V18C15.25 19.52 16.48 20.75 18 20.75H19C20.52 20.75 21.75 19.52 21.75 18V12C21.75 6.62 17.38 2.25 12 2.25ZM7.25 16V18C7.25 18.69 6.69 19.25 6 19.25H5C4.31 19.25 3.75 18.69 3.75 18V14.75H6C6.69 14.75 7.25 15.31 7.25 16ZM20.25 18C20.25 18.69 19.69 19.25 19 19.25H18C17.31 19.25 16.75 18.69 16.75 18V16C16.75 15.31 17.31 14.75 18 14.75H20.25V18Z" fill="black"/>
</svg>
