<svg width="24" height="24" viewBox="0 0 24 24" fill="none" xmlns="http://www.w3.org/2000/svg">
<path d="M20.03 3.07001C19.57 2.74001 18.97 2.65001 18.43 2.83001C17.3 3.20001 16.16 3.34001 15.06 3.26001C14.11 3.18001 13.49 2.98001 12.7 2.73001C12.26 2.59001 11.78 2.43001 11.18 2.28001C9.48999 1.85001 7.65999 1.79001 5.72999 2.10001C4.86999 2.24001 4.23999 2.97001 4.23999 3.83001V21C4.23999 21.41 4.57999 21.75 4.98999 21.75C5.39999 21.75 5.73999 21.41 5.73999 21V13.48C6.81999 12.98 7.90999 12.72 8.97999 12.75C10.09 12.77 10.86 13.04 11.74 13.36C12.07 13.48 12.41 13.6 12.77 13.71C13.88 14.05 15.06 14.22 16.31 14.22C17.27 14.22 18.28 14.12 19.31 13.92C20.14 13.76 20.74 13.03 20.74 12.2V4.48001C20.74 3.91001 20.48 3.40001 20.02 3.07001H20.03Z" fill="black"/>
</svg>
