<svg width="24" height="24" viewBox="0 0 24 24" fill="none" xmlns="http://www.w3.org/2000/svg">
<path d="M16 2.25H9.83C9.1 2.25 8.4 2.54 7.89 3.06L5.06 5.89C4.54 6.41 4.25 7.1 4.25 7.83V18C4.25 20.07 5.93 21.75 8 21.75H16C18.07 21.75 19.75 20.07 19.75 18V6C19.75 3.93 18.07 2.25 16 2.25ZM10.75 9C10.75 9.41 10.41 9.75 10 9.75C9.59 9.75 9.25 9.41 9.25 9V7C9.25 6.59 9.59 6.25 10 6.25C10.41 6.25 10.75 6.59 10.75 7V9ZM13.75 9C13.75 9.41 13.41 9.75 13 9.75C12.59 9.75 12.25 9.41 12.25 9V6C12.25 5.59 12.59 5.25 13 5.25C13.41 5.25 13.75 5.59 13.75 6V9ZM16.75 9C16.75 9.41 16.41 9.75 16 9.75C15.59 9.75 15.25 9.41 15.25 9V6C15.25 5.59 15.59 5.25 16 5.25C16.41 5.25 16.75 5.59 16.75 6V9Z" fill="black"/>
</svg>
