<svg width="24" height="24" viewBox="0 0 24 24" fill="none" xmlns="http://www.w3.org/2000/svg">
<path d="M20.12 2.84996C19.72 2.51996 19.2 2.37996 18.69 2.46996L9.69 4.10996C8.86 4.25996 8.25 4.98996 8.25 5.82996V15.77C7.74 15.44 7.15 15.25 6.5 15.25C4.71 15.25 3.25 16.71 3.25 18.5C3.25 20.29 4.71 21.75 6.5 21.75C8.29 21.75 9.75 20.29 9.75 18.5V9.62996L19.25 7.89996V13.27C18.74 12.94 18.15 12.75 17.5 12.75C15.71 12.75 14.25 14.21 14.25 16C14.25 17.79 15.71 19.25 17.5 19.25C19.29 19.25 20.75 17.79 20.75 16V4.19996C20.75 3.67996 20.52 3.18996 20.12 2.85996V2.84996ZM6.5 20.25C5.54 20.25 4.75 19.46 4.75 18.5C4.75 17.54 5.54 16.75 6.5 16.75C7.46 16.75 8.25 17.54 8.25 18.5C8.25 19.46 7.46 20.25 6.5 20.25ZM9.75 8.09996V5.82996C9.75 5.70996 9.84 5.60996 9.96 5.57996L18.96 3.93996C19.07 3.91996 19.13 3.96996 19.17 3.98996C19.2 4.01996 19.26 4.07996 19.26 4.17996V6.35996L9.76 8.08996L9.75 8.09996ZM17.5 17.75C16.54 17.75 15.75 16.96 15.75 16C15.75 15.04 16.54 14.25 17.5 14.25C18.46 14.25 19.25 15.04 19.25 16C19.25 16.96 18.46 17.75 17.5 17.75Z" fill="black"/>
</svg>
