<svg width="24" height="24" viewBox="0 0 24 24" fill="none" xmlns="http://www.w3.org/2000/svg">
<path d="M20.16 8.25001L14.49 3.21001C13.07 1.95001 10.93 1.95001 9.51 3.21001L3.84 8.25001C2.83 9.15001 2.25 10.44 2.25 11.8V17C2.25 19.62 4.38 21.75 7 21.75H17C19.62 21.75 21.75 19.62 21.75 17V11.8C21.75 10.44 21.17 9.15001 20.16 8.25001ZM16 17.75H8C7.59 17.75 7.25 17.41 7.25 17C7.25 16.59 7.59 16.25 8 16.25H16C16.41 16.25 16.75 16.59 16.75 17C16.75 17.41 16.41 17.75 16 17.75Z" fill="black"/>
</svg>
