<svg width="24" height="24" viewBox="0 0 24 24" fill="none" xmlns="http://www.w3.org/2000/svg">
<path d="M21.3501 7.22002C21.2801 7.08002 21.1901 6.96002 21.0801 6.86002C20.7701 6.54002 20.3401 6.37002 19.9001 6.41002C19.7701 6.41002 19.6501 6.45002 19.5201 6.49002C19.4501 6.51002 19.3901 6.53002 19.3201 6.57002L17.3101 7.60002C16.5701 7.98002 16.2801 8.88002 16.6601 9.62002C16.9201 10.14 17.4501 10.44 18.0001 10.44C18.2301 10.44 18.4601 10.39 18.6801 10.28L19.2301 10C19.6201 11.41 19.6001 12.9 19.1401 14.32C17.8601 18.25 13.6201 20.42 9.69007 19.14C7.78007 18.52 6.23007 17.2 5.32007 15.41C4.41007 13.63 4.25007 11.59 4.87007 9.69002C6.15007 5.76002 10.3801 3.59002 14.3201 4.87002C14.7101 5.00002 15.0901 5.15002 15.4501 5.34002C16.1901 5.72002 17.0901 5.43002 17.4701 4.69002C17.8501 3.95002 17.5601 3.05002 16.8201 2.67002C16.3201 2.41002 15.7801 2.19002 15.2401 2.01002C9.74007 0.220021 3.80007 3.25002 2.01007 8.76002C1.14007 11.43 1.37007 14.27 2.64007 16.77C3.92007 19.27 6.09007 21.12 8.75007 21.99C9.82007 22.34 10.9101 22.5 11.9801 22.5C16.4101 22.5 20.5401 19.67 21.9801 15.24C22.8501 12.57 22.6201 9.73002 21.3401 7.23002L21.3501 7.22002Z" fill="black"/>
<path d="M12.0001 15.75C14.0711 15.75 15.7501 14.0711 15.7501 12C15.7501 9.92895 14.0711 8.25002 12.0001 8.25002C9.92901 8.25002 8.25007 9.92895 8.25007 12C8.25007 14.0711 9.92901 15.75 12.0001 15.75Z" fill="black"/>
</svg>
