<svg width="24" height="24" viewBox="0 0 24 24" fill="none" xmlns="http://www.w3.org/2000/svg">
<path d="M21.73 12.91C21.73 12.91 21.73 12.85 21.73 12.82L20.3 7.09C19.88 5.42 18.39 4.25 16.66 4.25H7.34C5.62 4.25 4.12 5.42 3.7 7.09L2.27 12.82C2.27 12.82 2.27 12.88 2.27 12.91C2.27 12.94 2.25 12.97 2.25 13V17C2.25 19.07 3.93 20.75 6 20.75H18C20.07 20.75 21.75 19.07 21.75 17V13C21.75 13 21.74 12.94 21.73 12.91ZM5.16 7.45C5.41 6.45 6.31 5.75 7.34 5.75H16.65C17.69 5.75 18.58 6.45 18.83 7.45L20.03 12.25H18.06C17.14 12.25 16.28 12.71 15.77 13.47L14.96 14.69C14.73 15.04 14.34 15.25 13.92 15.25H10.06C9.64 15.25 9.25 15.04 9.02 14.69L8.21 13.47C7.7 12.7 6.84 12.25 5.92 12.25H3.95L5.15 7.45H5.16ZM20.25 17C20.25 18.24 19.24 19.25 18 19.25H6C4.76 19.25 3.75 18.24 3.75 17V13.75H5.93C6.35 13.75 6.74 13.96 6.97 14.31L7.78 15.53C8.29 16.3 9.15 16.75 10.07 16.75H13.93C14.85 16.75 15.71 16.29 16.22 15.53L17.03 14.31C17.26 13.96 17.65 13.75 18.07 13.75H20.25V17Z" fill="black"/>
</svg>
