<svg width="24" height="24" viewBox="0 0 24 24" fill="none" xmlns="http://www.w3.org/2000/svg">
<path d="M9 2.25C8.59 2.25 8.25 2.59 8.25 3V8C8.25 8.14 8.14 8.25 8 8.25H3C2.59 8.25 2.25 8.59 2.25 9C2.25 9.41 2.59 9.75 3 9.75H8C8.96 9.75 9.75 8.96 9.75 8V3C9.75 2.59 9.41 2.25 9 2.25Z" fill="black"/>
<path d="M16 9.75H21C21.41 9.75 21.75 9.41 21.75 9C21.75 8.59 21.41 8.25 21 8.25H16C15.86 8.25 15.75 8.14 15.75 8V3C15.75 2.59 15.41 2.25 15 2.25C14.59 2.25 14.25 2.59 14.25 3V8C14.25 8.96 15.04 9.75 16 9.75Z" fill="black"/>
<path d="M8 14.25H3C2.59 14.25 2.25 14.59 2.25 15C2.25 15.41 2.59 15.75 3 15.75H8C8.14 15.75 8.25 15.86 8.25 16V21C8.25 21.41 8.59 21.75 9 21.75C9.41 21.75 9.75 21.41 9.75 21V16C9.75 15.04 8.96 14.25 8 14.25Z" fill="black"/>
<path d="M21 14.25H16C15.04 14.25 14.25 15.04 14.25 16V21C14.25 21.41 14.59 21.75 15 21.75C15.41 21.75 15.75 21.41 15.75 21V16C15.75 15.86 15.86 15.75 16 15.75H21C21.41 15.75 21.75 15.41 21.75 15C21.75 14.59 21.41 14.25 21 14.25Z" fill="black"/>
</svg>
