<svg width="24" height="24" viewBox="0 0 24 24" fill="none" xmlns="http://www.w3.org/2000/svg">
<path d="M21.5201 9.74C19.5601 6.35 15.9101 4.25 12.0001 4.25C8.09007 4.25 4.44006 6.35 2.47006 9.74C2.08006 10.41 2.22006 11.3 2.80006 11.84L10.8101 19.29C11.1401 19.6 11.5601 19.75 11.9801 19.75C12.4001 19.75 12.8201 19.6 13.1501 19.29L21.1701 11.84C21.7501 11.3 21.9001 10.41 21.5001 9.74H21.5201ZM16.0101 14.6C15.1101 13.27 13.6101 12.45 11.9901 12.45C10.3701 12.45 8.87006 13.27 7.97006 14.6L6.26006 13.01C7.46006 11.06 9.61006 9.85 11.9901 9.85C14.3701 9.85 16.5101 11.06 17.7201 13.01L16.0101 14.6ZM12.1501 18.19C12.0601 18.27 11.9301 18.27 11.8501 18.19L9.10006 15.63C9.70006 14.59 10.8101 13.95 12.0001 13.95C13.1901 13.95 14.3101 14.59 14.9001 15.63L12.1501 18.19ZM20.1701 10.74L18.8501 11.97C17.3501 9.73 14.8001 8.35 12.0101 8.35C9.22007 8.35 6.67006 9.73 5.16006 11.97L3.83006 10.74C3.76006 10.67 3.73006 10.56 3.77006 10.49C5.47006 7.57 8.62006 5.75 12.0001 5.75C15.3801 5.75 18.5301 7.57 20.2301 10.49C20.2701 10.56 20.2501 10.67 20.1701 10.74Z" fill="black"/>
</svg>
