<svg width="24" height="24" viewBox="0 0 24 24" fill="none" xmlns="http://www.w3.org/2000/svg">
<path d="M14.83 13.19C14.83 13.19 14.75 13.11 14.75 13.08V5C14.75 3.48 13.51 2.25 12 2.25C10.49 2.25 9.24998 3.48 9.24998 5V13.05C9.24998 13.1 9.19998 13.16 9.14998 13.2C7.59998 14.37 6.92998 16.28 7.39998 18.2C7.81998 19.88 9.17998 21.22 10.87 21.62C11.25 21.71 11.62 21.75 12 21.75C13.07 21.75 14.11 21.4 14.96 20.72C16.1 19.81 16.76 18.46 16.76 17C16.76 15.54 16.04 14.08 14.84 13.19H14.83ZM12.02 17.75C11.61 17.75 11.27 17.41 11.27 17C11.27 16.59 11.6 16.25 12.01 16.25H12.02C12.43 16.25 12.77 16.59 12.77 17C12.77 17.41 12.43 17.75 12.02 17.75Z" fill="black"/>
</svg>
