<svg width="24" height="24" viewBox="0 0 24 24" fill="none" xmlns="http://www.w3.org/2000/svg">
<path d="M17 5.25H8.87002C7.46002 5.25 6.13002 5.87 5.22002 6.96L3.02002 9.6C1.86002 10.99 1.86002 13.01 3.02002 14.4L5.22002 17.04C6.13002 18.13 7.45002 18.75 8.87002 18.75H17C19.62 18.75 21.75 16.62 21.75 14V10C21.75 7.38 19.62 5.25 17 5.25ZM16.53 10.53L12.53 14.53C12.38 14.68 12.19 14.75 12 14.75C11.81 14.75 11.62 14.68 11.47 14.53L9.47002 12.53C9.18002 12.24 9.18002 11.76 9.47002 11.47C9.76002 11.18 10.24 11.18 10.53 11.47L12 12.94L15.47 9.47C15.76 9.18 16.24 9.18 16.53 9.47C16.82 9.76 16.82 10.24 16.53 10.53Z" fill="black"/>
</svg>
