<svg width="24" height="24" viewBox="0 0 24 24" fill="none" xmlns="http://www.w3.org/2000/svg">
<path d="M8.22 13.47L9.03 14.69C9.26 15.04 9.65 15.25 10.07 15.25H13.93C14.35 15.25 14.74 15.04 14.97 14.69L15.78 13.47C16.29 12.7 17.15 12.25 18.07 12.25H21.59L20.3 7.09C19.88 5.42 18.39 4.25 16.66 4.25H7.34C5.62 4.25 4.12 5.42 3.7 7.09L2.41 12.25H5.93C6.85 12.25 7.71 12.71 8.22 13.47Z" fill="black"/>
<path d="M18.07 13.75C17.65 13.75 17.26 13.96 17.03 14.31L16.22 15.53C15.71 16.3 14.85 16.75 13.93 16.75H10.07C9.15 16.75 8.29 16.29 7.78 15.53L6.97 14.31C6.74 13.96 6.35 13.75 5.93 13.75H2.25V17C2.25 19.07 3.93 20.75 6 20.75H18C20.07 20.75 21.75 19.07 21.75 17V13.75H18.07Z" fill="black"/>
</svg>
