<svg width="24" height="24" viewBox="0 0 24 24" fill="none" xmlns="http://www.w3.org/2000/svg">
<path d="M9 1.5C8.17 1.5 7.5 2.17 7.5 3V7.5H3C2.17 7.5 1.5 8.17 1.5 9C1.5 9.83 2.17 10.5 3 10.5H8C9.38 10.5 10.5 9.38 10.5 8V3C10.5 2.17 9.83 1.5 9 1.5Z" fill="black"/>
<path d="M16 10.5H21C21.83 10.5 22.5 9.83 22.5 9C22.5 8.17 21.83 7.5 21 7.5H16.5V3C16.5 2.17 15.83 1.5 15 1.5C14.17 1.5 13.5 2.17 13.5 3V8C13.5 9.38 14.62 10.5 16 10.5Z" fill="black"/>
<path d="M8 13.5H3C2.17 13.5 1.5 14.17 1.5 15C1.5 15.83 2.17 16.5 3 16.5H7.5V21C7.5 21.83 8.17 22.5 9 22.5C9.83 22.5 10.5 21.83 10.5 21V16C10.5 14.62 9.38 13.5 8 13.5Z" fill="black"/>
<path d="M21 13.5H16C14.62 13.5 13.5 14.62 13.5 16V21C13.5 21.83 14.17 22.5 15 22.5C15.83 22.5 16.5 21.83 16.5 21V16.5H21C21.83 16.5 22.5 15.83 22.5 15C22.5 14.17 21.83 13.5 21 13.5Z" fill="black"/>
</svg>
