<svg width="24" height="24" viewBox="0 0 24 24" fill="none" xmlns="http://www.w3.org/2000/svg">
<path d="M16 8.25H12.75V7.5C12.75 7.09 13.09 6.75 13.5 6.75H15.5C16.74 6.75 17.75 5.74 17.75 4.5C17.75 3.26 16.74 2.25 15.5 2.25H14C13.59 2.25 13.25 2.59 13.25 3C13.25 3.41 13.59 3.75 14 3.75H15.5C15.91 3.75 16.25 4.09 16.25 4.5C16.25 4.91 15.91 5.25 15.5 5.25H13.5C12.26 5.25 11.25 6.26 11.25 7.5V8.25H8C4.83 8.25 2.25 10.83 2.25 14C2.25 17.17 4.83 19.75 8 19.75H16C19.17 19.75 21.75 17.17 21.75 14C21.75 10.83 19.17 8.25 16 8.25ZM10 14.75H8.75V16C8.75 16.41 8.41 16.75 8 16.75C7.59 16.75 7.25 16.41 7.25 16V14.75H6C5.59 14.75 5.25 14.41 5.25 14C5.25 13.59 5.59 13.25 6 13.25H7.25V12C7.25 11.59 7.59 11.25 8 11.25C8.41 11.25 8.75 11.59 8.75 12V13.25H10C10.41 13.25 10.75 13.59 10.75 14C10.75 14.41 10.41 14.75 10 14.75ZM14.02 14.75C13.61 14.75 13.27 14.41 13.27 14C13.27 13.59 13.6 13.25 14.02 13.25C14.44 13.25 14.77 13.59 14.77 14C14.77 14.41 14.44 14.75 14.02 14.75ZM16.02 16.75C15.61 16.75 15.27 16.41 15.27 16C15.27 15.59 15.6 15.25 16.02 15.25C16.44 15.25 16.77 15.59 16.77 16C16.77 16.41 16.44 16.75 16.02 16.75ZM16.02 12.75C15.61 12.75 15.27 12.41 15.27 12C15.27 11.59 15.6 11.25 16.02 11.25C16.44 11.25 16.77 11.59 16.77 12C16.77 12.41 16.44 12.75 16.02 12.75ZM18.02 14.75C17.61 14.75 17.27 14.41 17.27 14C17.27 13.59 17.6 13.25 18.02 13.25C18.44 13.25 18.77 13.59 18.77 14C18.77 14.41 18.44 14.75 18.02 14.75Z" fill="black"/>
</svg>
