<svg width="24" height="24" viewBox="0 0 24 24" fill="none" xmlns="http://www.w3.org/2000/svg">
<path d="M12 2.25C8.83 2.25 6.25 4.83 6.25 8V16C6.25 19.17 8.83 21.75 12 21.75C13.26 21.75 14.45 21.35 15.45 20.6C15.78 20.35 15.85 19.88 15.6 19.55C15.35 19.22 14.88 19.15 14.55 19.4C13.81 19.96 12.93 20.25 12 20.25C9.66 20.25 7.75 18.34 7.75 16V8C7.75 5.66 9.66 3.75 12 3.75C14.34 3.75 16.25 5.66 16.25 8V13.5C16.25 14.46 15.46 15.25 14.5 15.25C13.54 15.25 12.75 14.46 12.75 13.5V9C12.75 8.59 12.41 8.25 12 8.25C11.59 8.25 11.25 8.59 11.25 9V13.5C11.25 15.29 12.71 16.75 14.5 16.75C16.29 16.75 17.75 15.29 17.75 13.5V8C17.75 4.83 15.17 2.25 12 2.25Z" fill="black"/>
</svg>
