<svg width="24" height="24" viewBox="0 0 24 24" fill="none" xmlns="http://www.w3.org/2000/svg">
<path d="M19 1.5C18.17 1.5 17.5 2.17 17.5 3V21C17.5 21.83 18.17 22.5 19 22.5C19.83 22.5 20.5 21.83 20.5 21V3C20.5 2.17 19.83 1.5 19 1.5Z" fill="black"/>
<path d="M14 6.5C13.17 6.5 12.5 7.17 12.5 8V21C12.5 21.83 13.17 22.5 14 22.5C14.83 22.5 15.5 21.83 15.5 21V8C15.5 7.17 14.83 6.5 14 6.5Z" fill="black"/>
<path d="M9 11.5C8.17 11.5 7.5 12.17 7.5 13V21C7.5 21.83 8.17 22.5 9 22.5C9.83 22.5 10.5 21.83 10.5 21V13C10.5 12.17 9.83 11.5 9 11.5Z" fill="black"/>
<path d="M4 16.5C3.17 16.5 2.5 17.17 2.5 18V21C2.5 21.83 3.17 22.5 4 22.5C4.83 22.5 5.5 21.83 5.5 21V18C5.5 17.17 4.83 16.5 4 16.5Z" fill="black"/>
</svg>
