<svg width="24" height="24" viewBox="0 0 24 24" fill="none" xmlns="http://www.w3.org/2000/svg">
<path d="M19 12.25H17.75V11C17.75 7.83 15.17 5.25 12 5.25C8.83 5.25 6.25 7.83 6.25 11V12.25H5C3.48 12.25 2.25 13.48 2.25 15V16C2.25 17.52 3.48 18.75 5 18.75H6C6.96 18.75 7.75 17.96 7.75 17V11C7.75 8.66 9.66 6.75 12 6.75C14.34 6.75 16.25 8.66 16.25 11V17C16.25 17.96 17.04 18.75 18 18.75H19C20.52 18.75 21.75 17.52 21.75 16V15C21.75 13.48 20.52 12.25 19 12.25ZM6.25 17C6.25 17.14 6.14 17.25 6 17.25H5C4.31 17.25 3.75 16.69 3.75 16V15C3.75 14.31 4.31 13.75 5 13.75H6.25V17ZM20.25 16C20.25 16.69 19.69 17.25 19 17.25H18C17.86 17.25 17.75 17.14 17.75 17V13.75H19C19.69 13.75 20.25 14.31 20.25 15V16Z" fill="black"/>
</svg>
