<svg width="24" height="24" viewBox="0 0 24 24" fill="none" xmlns="http://www.w3.org/2000/svg">
<path d="M16 5.25H5C3.48 5.25 2.25 6.48 2.25 8V15C2.25 16.52 3.48 17.75 5 17.75H16C17.52 17.75 18.75 16.52 18.75 15V8C18.75 6.48 17.52 5.25 16 5.25ZM14.12 12.42C13.89 12.77 13.42 12.86 13.08 12.63L11.25 11.41V13.01C11.25 13.29 11.1 13.54 10.85 13.67C10.74 13.73 10.62 13.76 10.5 13.76C10.35 13.76 10.21 13.72 10.08 13.63L7.08 11.63C6.74 11.4 6.64 10.93 6.87 10.59C7.1 10.24 7.57 10.15 7.91 10.38L9.74 11.6V10C9.74 9.72 9.89 9.47 10.14 9.34C10.38 9.21 10.68 9.22 10.91 9.38L13.91 11.38C14.25 11.61 14.35 12.08 14.12 12.42Z" fill="black"/>
<path d="M21 7.25C20.59 7.25 20.25 7.59 20.25 8V15C20.25 15.41 20.59 15.75 21 15.75C21.41 15.75 21.75 15.41 21.75 15V8C21.75 7.59 21.41 7.25 21 7.25Z" fill="black"/>
</svg>
