<svg width="24" height="24" viewBox="0 0 24 24" fill="none" xmlns="http://www.w3.org/2000/svg">
<path d="M20.5 4.90997L19.09 3.49997C17.63 2.03997 15.25 2.03997 13.79 3.49997L3.78001 13.5C3.28001 14 2.94001 14.62 2.78001 15.3L1.81001 19.48C1.63001 20.24 1.86001 21.03 2.41001 21.58C2.84001 22.01 3.41001 22.24 3.99001 22.24C4.16001 22.24 4.33001 22.22 4.50001 22.18L8.68001 21.21C9.36001 21.05 9.99001 20.71 10.48 20.21L20.48 10.21C21.19 9.49997 21.58 8.55997 21.58 7.55997C21.58 6.55997 21.19 5.61997 20.48 4.90997H20.5ZM9.44001 19.15C9.14001 19.45 8.77001 19.66 8.36001 19.75L4.18001 20.72C3.81001 20.8 3.57001 20.61 3.48001 20.52C3.39001 20.43 3.19001 20.19 3.28001 19.82L4.25001 15.64C4.35001 15.23 4.55001 14.86 4.85001 14.56L12.9 6.49997L17.5 11.1L9.45001 19.15H9.44001ZM19.44 9.14997L18.56 10.03L13.96 5.42997L14.84 4.54997C15.28 4.10997 15.85 3.88997 16.43 3.88997C17.01 3.88997 17.58 4.10997 18.02 4.54997L19.43 5.95997C19.85 6.37997 20.09 6.94997 20.09 7.54997C20.09 8.14997 19.86 8.71997 19.43 9.13997L19.44 9.14997Z" fill="black"/>
</svg>
