<svg width="24" height="24" viewBox="0 0 24 24" fill="none" xmlns="http://www.w3.org/2000/svg">
<path d="M17 2.25H7C4.38 2.25 2.25 4.38 2.25 7V17C2.25 19.62 4.38 21.75 7 21.75H17C19.62 21.75 21.75 19.62 21.75 17V7C21.75 4.38 19.62 2.25 17 2.25ZM20.25 7V11.25H12.75V3.75H17C18.79 3.75 20.25 5.21 20.25 7ZM7 3.75H11.25V11.25H3.75V7C3.75 5.21 5.21 3.75 7 3.75ZM3.75 17V12.75H11.25V20.25H7C5.21 20.25 3.75 18.79 3.75 17ZM17 20.25H12.75V12.75H20.25V17C20.25 18.79 18.79 20.25 17 20.25Z" fill="black"/>
<path d="M5.5 8.25H6.75V9.5C6.75 9.91 7.09 10.25 7.5 10.25C7.91 10.25 8.25 9.91 8.25 9.5V8.25H9.5C9.91 8.25 10.25 7.91 10.25 7.5C10.25 7.09 9.91 6.75 9.5 6.75H8.25V5.5C8.25 5.09 7.91 4.75 7.5 4.75C7.09 4.75 6.75 5.09 6.75 5.5V6.75H5.5C5.09 6.75 4.75 7.09 4.75 7.5C4.75 7.91 5.09 8.25 5.5 8.25Z" fill="black"/>
<path d="M8.56 16.5L9.44 15.62C9.73 15.33 9.73 14.85 9.44 14.56C9.15 14.27 8.67 14.27 8.38 14.56L7.5 15.44L6.62 14.56C6.33 14.27 5.85 14.27 5.56 14.56C5.27 14.85 5.27 15.33 5.56 15.62L6.44 16.5L5.56 17.38C5.27 17.67 5.27 18.15 5.56 18.44C5.71 18.59 5.9 18.66 6.09 18.66C6.28 18.66 6.47 18.59 6.62 18.44L7.5 17.56L8.38 18.44C8.53 18.59 8.72 18.66 8.91 18.66C9.1 18.66 9.29 18.59 9.44 18.44C9.73 18.15 9.73 17.67 9.44 17.38L8.56 16.5Z" fill="black"/>
<path d="M15 8.25H18C18.41 8.25 18.75 7.91 18.75 7.5C18.75 7.09 18.41 6.75 18 6.75H15C14.59 6.75 14.25 7.09 14.25 7.5C14.25 7.91 14.59 8.25 15 8.25Z" fill="black"/>
<path d="M18 14.25H15C14.59 14.25 14.25 14.59 14.25 15C14.25 15.41 14.59 15.75 15 15.75H18C18.41 15.75 18.75 15.41 18.75 15C18.75 14.59 18.41 14.25 18 14.25Z" fill="black"/>
<path d="M18 17.25H15C14.59 17.25 14.25 17.59 14.25 18C14.25 18.41 14.59 18.75 15 18.75H18C18.41 18.75 18.75 18.41 18.75 18C18.75 17.59 18.41 17.25 18 17.25Z" fill="black"/>
</svg>
