<svg width="24" height="24" viewBox="0 0 24 24" fill="none" xmlns="http://www.w3.org/2000/svg">
<path d="M20.65 16.2L15.52 11.07C15.1 10.65 14.86 10.07 14.86 9.48004V9.14004C14.86 8.15004 14.46 7.19004 13.76 6.49004L10.04 2.77004C9.57 2.30004 8.74 2.30004 8.27 2.77004L6.86 4.18004C6.37 4.67004 6.37 5.46004 6.86 5.95004L9.51 8.60004L8.45 9.66004L5.8 7.01004C5.33 6.54004 4.5 6.54004 4.03 7.01004L2.62 8.42004C2.38 8.66004 2.25 8.97004 2.25 9.30004C2.25 9.63004 2.38 9.95004 2.62 10.18L6.34 13.9C7.05 14.61 7.99 15 8.99 15H9.33C9.93 15 10.5 15.23 10.92 15.66L16.05 20.79C16.66 21.4 17.48 21.74 18.35 21.74C19.22 21.74 20.03 21.4 20.65 20.79C21.92 19.52 21.92 17.46 20.65 16.19V16.2ZM19.59 19.74C18.93 20.4 17.78 20.4 17.11 19.74L11.98 14.61C11.27 13.9 10.33 13.51 9.33 13.51H8.99C8.39 13.51 7.82 13.28 7.4 12.85L3.86 9.31004L4.92 8.25004L7.57 10.9C8.04 11.37 8.87 11.37 9.34 10.9L10.75 9.49004C10.99 9.25004 11.12 8.94004 11.12 8.61004C11.12 8.28004 10.99 7.96004 10.75 7.73004L8.1 5.08004L9.16 4.02004L12.7 7.56004C13.12 7.98004 13.36 8.56004 13.36 9.15004V9.49004C13.36 10.48 13.76 11.44 14.46 12.14L19.59 17.27C20.27 17.95 20.27 19.06 19.59 19.74Z" fill="black"/>
</svg>
