<svg width="24" height="24" viewBox="0 0 24 24" fill="none" xmlns="http://www.w3.org/2000/svg">
<path d="M7.75001 8.99998C7.75001 7.64998 8.37001 6.40998 9.45001 5.59998C9.78001 5.34998 9.85001 4.87998 9.60001 4.54998C9.35001 4.21998 8.88001 4.14998 8.55001 4.39998C7.09001 5.49998 6.25001 7.16998 6.25001 8.99998C6.25001 10.83 7.09001 12.5 8.55001 13.6C8.68001 13.7 8.84001 13.75 9.00001 13.75C9.23001 13.75 9.45001 13.65 9.60001 13.45C9.85001 13.12 9.78001 12.65 9.45001 12.4C8.37001 11.59 7.75001 10.35 7.75001 8.99998Z" fill="black"/>
<path d="M15.45 4.39998C15.12 4.14998 14.65 4.21998 14.4 4.54998C14.15 4.87998 14.22 5.34998 14.55 5.59998C15.63 6.40998 16.25 7.64998 16.25 8.99998C16.25 10.35 15.63 11.59 14.55 12.4C14.22 12.65 14.15 13.12 14.4 13.45C14.55 13.65 14.77 13.75 15 13.75C15.16 13.75 15.31 13.7 15.45 13.6C16.91 12.5 17.75 10.83 17.75 8.99998C17.75 7.16998 16.91 5.49998 15.45 4.39998Z" fill="black"/>
<path d="M4.75001 8.99998C4.75001 6.78998 5.74001 4.72998 7.47001 3.33998C7.79001 3.07998 7.85001 2.60998 7.59001 2.28998C7.33001 1.96998 6.86001 1.91998 6.54001 2.16998C4.46001 3.83998 3.26001 6.32998 3.26001 8.99998C3.26001 11.67 4.46001 14.16 6.54001 15.83C6.68001 15.94 6.84001 15.99 7.01001 15.99C7.23001 15.99 7.45001 15.89 7.60001 15.71C7.86001 15.39 7.81001 14.91 7.48001 14.66C5.75001 13.28 4.76001 11.21 4.76001 8.99998H4.75001Z" fill="black"/>
<path d="M17.47 2.16998C17.15 1.90998 16.67 1.95998 16.42 2.28998C16.16 2.60998 16.21 3.08998 16.54 3.33998C18.27 4.71998 19.26 6.78998 19.26 8.99998C19.26 11.21 18.27 13.27 16.54 14.66C16.22 14.92 16.16 15.39 16.42 15.71C16.57 15.89 16.79 15.99 17.01 15.99C17.17 15.99 17.34 15.94 17.48 15.83C19.56 14.16 20.76 11.67 20.76 8.99998C20.76 6.32998 19.56 3.83998 17.48 2.16998H17.47Z" fill="black"/>
<path d="M12 6.24998C10.48 6.24998 9.25001 7.47998 9.25001 8.99998C9.25001 10.25 10.1 11.3 11.25 11.63V21C11.25 21.41 11.59 21.75 12 21.75C12.41 21.75 12.75 21.41 12.75 21V11.63C13.9 11.3 14.75 10.25 14.75 8.99998C14.75 7.47998 13.52 6.24998 12 6.24998Z" fill="black"/>
</svg>
