<svg width="24" height="24" viewBox="0 0 24 24" fill="none" xmlns="http://www.w3.org/2000/svg">
<path d="M12 12.25C13.2426 12.25 14.25 11.2426 14.25 10C14.25 8.75736 13.2426 7.75 12 7.75C10.7574 7.75 9.75 8.75736 9.75 10C9.75 11.2426 10.7574 12.25 12 12.25Z" fill="black"/>
<path d="M12 2.25C7.73 2.25 4.25 5.73 4.25 10C4.25 13.03 6.01 15.74 8.73 17.01L11.35 21.38C11.49 21.61 11.73 21.74 11.99 21.74C12.25 21.74 12.5 21.6 12.63 21.38L15.26 17.01C17.99 15.74 19.74 13.02 19.74 10C19.74 5.73 16.26 2.25 11.99 2.25H12ZM12 13.75C9.93 13.75 8.25 12.07 8.25 10C8.25 7.93 9.93 6.25 12 6.25C14.07 6.25 15.75 7.93 15.75 10C15.75 12.07 14.07 13.75 12 13.75Z" fill="black"/>
</svg>
