<svg width="24" height="24" viewBox="0 0 24 24" fill="none" xmlns="http://www.w3.org/2000/svg">
<path d="M19 2.25C18.59 2.25 18.25 2.59 18.25 3V21C18.25 21.41 18.59 21.75 19 21.75C19.41 21.75 19.75 21.41 19.75 21V3C19.75 2.59 19.41 2.25 19 2.25Z" fill="black"/>
<path d="M14 7.25C13.59 7.25 13.25 7.59 13.25 8V21C13.25 21.41 13.59 21.75 14 21.75C14.41 21.75 14.75 21.41 14.75 21V8C14.75 7.59 14.41 7.25 14 7.25Z" fill="black"/>
<path d="M9 12.25C8.59 12.25 8.25 12.59 8.25 13V21C8.25 21.41 8.59 21.75 9 21.75C9.41 21.75 9.75 21.41 9.75 21V13C9.75 12.59 9.41 12.25 9 12.25Z" fill="black"/>
<path d="M4 17.25C3.59 17.25 3.25 17.59 3.25 18V21C3.25 21.41 3.59 21.75 4 21.75C4.41 21.75 4.75 21.41 4.75 21V18C4.75 17.59 4.41 17.25 4 17.25Z" fill="black"/>
</svg>
