<svg width="24" height="24" viewBox="0 0 24 24" fill="none" xmlns="http://www.w3.org/2000/svg">
<path d="M16 2.25H8C4.83 2.25 2.25 4.83 2.25 8V16C2.25 19.17 4.83 21.75 8 21.75H16C19.17 21.75 21.75 19.17 21.75 16V8C21.75 4.83 19.17 2.25 16 2.25ZM15.5 6.25C16.74 6.25 17.75 7.26 17.75 8.5C17.75 9.74 16.74 10.75 15.5 10.75C14.26 10.75 13.25 9.74 13.25 8.5C13.25 7.26 14.26 6.25 15.5 6.25ZM18.53 15.07L17.62 15.98C17.14 16.46 16.52 16.7 15.89 16.7C15.34 16.7 14.78 16.51 14.33 16.13L10.55 12.98C10.21 12.7 9.73 12.69 9.38 12.95L6.45 15.15C6.12 15.4 5.65 15.33 5.4 15C5.15 14.67 5.22 14.2 5.55 13.95L8.48 11.75C9.39 11.07 10.64 11.1 11.51 11.83L15.29 14.98C15.67 15.29 16.21 15.27 16.56 14.92L17.47 14.01C17.76 13.72 18.24 13.72 18.53 14.01C18.82 14.3 18.82 14.78 18.53 15.07Z" fill="black"/>
<path d="M15.5 9.25C15.9142 9.25 16.25 8.91421 16.25 8.5C16.25 8.08579 15.9142 7.75 15.5 7.75C15.0858 7.75 14.75 8.08579 14.75 8.5C14.75 8.91421 15.0858 9.25 15.5 9.25Z" fill="black"/>
</svg>
