<svg width="24" height="24" viewBox="0 0 24 24" fill="none" xmlns="http://www.w3.org/2000/svg">
<path d="M10.92 9.38C10.69 9.23 10.39 9.21 10.15 9.34C9.91 9.47 9.75 9.72 9.75 10V11.6L7.92 10.38C7.58 10.15 7.11 10.24 6.88 10.59C6.65 10.93 6.74 11.4 7.09 11.63L10.09 13.63C10.22 13.71 10.36 13.76 10.51 13.76C10.63 13.76 10.75 13.73 10.86 13.67C11.1 13.54 11.26 13.29 11.26 13.01V11.41L13.09 12.63C13.43 12.86 13.9 12.77 14.13 12.42C14.36 12.08 14.27 11.61 13.92 11.38L10.92 9.38Z" fill="black"/>
<path d="M21 7.25C20.59 7.25 20.25 7.59 20.25 8V15C20.25 15.41 20.59 15.75 21 15.75C21.41 15.75 21.75 15.41 21.75 15V8C21.75 7.59 21.41 7.25 21 7.25Z" fill="black"/>
<path d="M16 5.25H5C3.48 5.25 2.25 6.48 2.25 8V15C2.25 16.52 3.48 17.75 5 17.75H16C17.52 17.75 18.75 16.52 18.75 15V8C18.75 6.48 17.52 5.25 16 5.25ZM17.25 15C17.25 15.69 16.69 16.25 16 16.25H5C4.31 16.25 3.75 15.69 3.75 15V8C3.75 7.31 4.31 6.75 5 6.75H16C16.69 6.75 17.25 7.31 17.25 8V15Z" fill="black"/>
</svg>
