<svg width="24" height="24" viewBox="0 0 24 24" fill="none" xmlns="http://www.w3.org/2000/svg">
<path d="M12 14.75C13.5188 14.75 14.75 13.5188 14.75 12C14.75 10.4812 13.5188 9.25 12 9.25C10.4812 9.25 9.25 10.4812 9.25 12C9.25 13.5188 10.4812 14.75 12 14.75Z" fill="black"/>
<path d="M19 14.75C20.5188 14.75 21.75 13.5188 21.75 12C21.75 10.4812 20.5188 9.25 19 9.25C17.4812 9.25 16.25 10.4812 16.25 12C16.25 13.5188 17.4812 14.75 19 14.75Z" fill="black"/>
<path d="M5 14.75C6.51878 14.75 7.75 13.5188 7.75 12C7.75 10.4812 6.51878 9.25 5 9.25C3.48122 9.25 2.25 10.4812 2.25 12C2.25 13.5188 3.48122 14.75 5 14.75Z" fill="black"/>
</svg>
