<svg width="24" height="24" viewBox="0 0 24 24" fill="none" xmlns="http://www.w3.org/2000/svg">
<path d="M15.45 13.32C15.12 13.07 14.65 13.14 14.4 13.47C14.15 13.8 14.22 14.27 14.55 14.52C16.1 15.68 16.94 16.81 17.27 18.18C17.41 18.76 17.45 19.38 17.39 20.02C17.38 20.15 17.27 20.25 17.14 20.25H6.85999C6.72999 20.25 6.61999 20.15 6.60999 20.02C6.54999 19.38 6.58999 18.76 6.72999 18.18C7.35999 15.61 9.79999 14.17 12.38 12.65C15.12 11.03 17.95 9.36001 18.73 6.18001C18.91 5.43001 18.97 4.65001 18.89 3.85001C18.81 2.96001 18.04 2.26001 17.14 2.26001H6.85999C5.95999 2.26001 5.18999 2.96001 5.10999 3.85001C5.02999 4.65001 5.08999 5.44001 5.26999 6.19001C5.68999 7.90001 6.72999 9.33001 8.54999 10.69C8.87999 10.94 9.34999 10.87 9.59999 10.54C9.84999 10.21 9.77999 9.74001 9.44999 9.49001C7.89999 8.33001 7.05999 7.20001 6.72999 5.83001C6.58999 5.25001 6.54999 4.63001 6.60999 3.99001C6.61999 3.86001 6.72999 3.76001 6.85999 3.76001H17.14C17.27 3.76001 17.38 3.86001 17.39 3.99001C17.45 4.63001 17.41 5.25001 17.27 5.83001C16.64 8.40001 14.2 9.84001 11.62 11.36C8.87999 12.97 6.04999 14.64 5.26999 17.83C5.08999 18.58 5.02999 19.36 5.10999 20.16C5.18999 21.05 5.95999 21.75 6.85999 21.75H17.14C18.04 21.75 18.81 21.05 18.89 20.16C18.97 19.36 18.91 18.57 18.73 17.82C18.31 16.11 17.27 14.68 15.45 13.32Z" fill="black"/>
</svg>
