<svg width="24" height="24" viewBox="0 0 24 24" fill="none" xmlns="http://www.w3.org/2000/svg">
<path d="M12 16.25C12.6904 16.25 13.25 15.6904 13.25 15C13.25 14.3096 12.6904 13.75 12 13.75C11.3096 13.75 10.75 14.3096 10.75 15C10.75 15.6904 11.3096 16.25 12 16.25Z" fill="black"/>
<path d="M12 12.25C12.6904 12.25 13.25 11.6904 13.25 11C13.25 10.3096 12.6904 9.75 12 9.75C11.3096 9.75 10.75 10.3096 10.75 11C10.75 11.6904 11.3096 12.25 12 12.25Z" fill="black"/>
<path d="M17.75 4.33V3C17.75 2.59 17.41 2.25 17 2.25C16.59 2.25 16.25 2.59 16.25 3V4.25H7.75V3C7.75 2.59 7.41 2.25 7 2.25C6.59 2.25 6.25 2.59 6.25 3V4.33C4.54 4.68 3.25 6.19 3.25 8V18C3.25 20.07 4.93 21.75 7 21.75H17C19.07 21.75 20.75 20.07 20.75 18V8C20.75 6.19 19.46 4.67 17.75 4.33ZM14.75 15C14.75 16.52 13.52 17.75 12 17.75C10.48 17.75 9.25 16.52 9.25 15C9.25 14.21 9.59 13.5 10.12 13C9.58 12.5 9.25 11.79 9.25 11C9.25 9.48 10.48 8.25 12 8.25C13.52 8.25 14.75 9.48 14.75 11C14.75 11.79 14.41 12.5 13.88 13C14.42 13.5 14.75 14.21 14.75 15Z" fill="black"/>
</svg>
