<svg width="24" height="24" viewBox="0 0 24 24" fill="none" xmlns="http://www.w3.org/2000/svg">
<path d="M12 3.25C6.62 3.25 2.25 6.73 2.25 11C2.25 12.64 2.91 14.25 4.12 15.57L3.45 18.92C3.36 19.38 3.53 19.84 3.89 20.14C4.12 20.32 4.4 20.42 4.68 20.42C4.85 20.42 5.01 20.39 5.17 20.32L9.45 18.49C10.28 18.67 11.14 18.76 12 18.76C17.38 18.76 21.75 15.28 21.75 11.01C21.75 6.74 17.38 3.25 12 3.25ZM12 17.25C11.16 17.25 10.34 17.16 9.55 16.97C9.39 16.93 9.23 16.95 9.08 17.01L5.02 18.75L5.67 15.48C5.72 15.23 5.64 14.98 5.46 14.8C4.34 13.7 3.75 12.38 3.75 11C3.75 7.55 7.45 4.75 12 4.75C16.55 4.75 20.25 7.55 20.25 11C20.25 14.45 16.55 17.25 12 17.25Z" fill="black"/>
</svg>
