<svg width="24" height="24" viewBox="0 0 24 24" fill="none" xmlns="http://www.w3.org/2000/svg">
<path d="M21.06 15.67L19.65 14.26C18.58 13.19 16.83 13.19 15.76 14.26L15.05 14.97C14.99 15.03 14.91 15.04 14.87 15.04C14.87 15.04 14.76 15.03 14.7 14.97L9.04002 9.30003C8.94002 9.20003 8.95002 9.05003 9.04002 8.95003L9.75002 8.24003C10.82 7.17003 10.82 5.42003 9.75002 4.35003L8.33002 2.94003C7.29002 1.90003 5.48002 1.90003 4.44002 2.94003L3.82002 3.56003C2.14002 5.24003 1.67002 7.83003 2.65002 10.01C3.76002 12.49 5.36002 14.81 7.27002 16.73C9.18002 18.65 11.52 20.25 14.07 21.38C14.8 21.7 15.58 21.86 16.36 21.86C17.86 21.86 19.35 21.28 20.45 20.18L21.07 19.56C22.14 18.49 22.14 16.74 21.07 15.67H21.06Z" fill="black"/>
<path d="M14.47 9.53003C14.62 9.68003 14.81 9.75003 15 9.75003C15.19 9.75003 15.38 9.68003 15.53 9.53003L17 8.06003L18.47 9.53003C18.62 9.68003 18.81 9.75003 19 9.75003C19.19 9.75003 19.38 9.68003 19.53 9.53003C19.82 9.24003 19.82 8.76003 19.53 8.47003L18.06 7.00003L19.53 5.53003C19.82 5.24003 19.82 4.76003 19.53 4.47003C19.24 4.18003 18.76 4.18003 18.47 4.47003L17 5.94003L15.53 4.47003C15.24 4.18003 14.76 4.18003 14.47 4.47003C14.18 4.76003 14.18 5.24003 14.47 5.53003L15.94 7.00003L14.47 8.47003C14.18 8.76003 14.18 9.24003 14.47 9.53003Z" fill="black"/>
</svg>
