<svg width="24" height="24" viewBox="0 0 24 24" fill="none" xmlns="http://www.w3.org/2000/svg">
<path d="M21.09 2.91008C20.75 2.57008 20.26 2.46008 19.81 2.61008L3.45999 8.06008C2.90999 8.24008 2.56999 8.75008 2.60999 9.32008C2.64999 9.89008 3.04999 10.3601 3.60999 10.4701L11.72 12.0901C11.82 12.1101 11.9 12.1901 11.92 12.2901L13.54 20.4001C13.65 20.9601 14.11 21.3701 14.69 21.4001C14.72 21.4001 14.74 21.4001 14.77 21.4001C15.31 21.4001 15.78 21.0701 15.95 20.5501L21.4 4.19008C21.55 3.74008 21.44 3.25008 21.1 2.91008H21.09Z" fill="black"/>
</svg>
