<svg width="24" height="24" viewBox="0 0 24 24" fill="none" xmlns="http://www.w3.org/2000/svg">
<path d="M19 5.25H15.32C15.19 5.25 15.05 5.23 14.92 5.19L9.54002 3.39C9.26002 3.3 8.97002 3.25 8.67002 3.25H4.99002C3.47002 3.25 2.24002 4.48 2.24002 6V16C2.24002 17.52 3.47002 18.75 4.99002 18.75H8.67002C8.80002 18.75 8.94002 18.77 9.07002 18.81L14.45 20.61C14.73 20.7 15.02 20.75 15.32 20.75H19C20.52 20.75 21.75 19.52 21.75 18V8C21.75 6.48 20.52 5.25 19 5.25ZM20.25 18C20.25 18.69 19.69 19.25 19 19.25H15.32C15.19 19.25 15.05 19.23 14.92 19.19L9.74002 17.46V8C9.74002 7.59 9.40002 7.25 8.99002 7.25C8.58002 7.25 8.24002 7.59 8.24002 8V17.25H4.99002C4.30002 17.25 3.74002 16.69 3.74002 16V6C3.74002 5.31 4.30002 4.75 4.99002 4.75H8.67002C8.80002 4.75 8.94002 4.77 9.07002 4.81L14.25 6.54V16C14.25 16.41 14.59 16.75 15 16.75C15.41 16.75 15.75 16.41 15.75 16V6.75H19C19.69 6.75 20.25 7.31 20.25 8V18Z" fill="black"/>
</svg>
