<svg width="24" height="24" viewBox="0 0 24 24" fill="none" xmlns="http://www.w3.org/2000/svg">
<path d="M21.45 6.77V6.75C20.71 4.66 18.72 3.25 16.5 3.25C14.58 3.25 12.92 4.3 12 5.84C11.08 4.3 9.42 3.25 7.5 3.25C5.28 3.25 3.29 4.66 2.55 6.75V6.77C0.349996 13.42 11.18 19.41 11.64 19.66C11.75 19.72 11.88 19.75 12 19.75C12.12 19.75 12.24 19.72 12.36 19.66C12.82 19.41 23.65 13.42 21.46 6.77H21.45ZM12 18.14C10.21 17.09 2.36 12.12 3.97 7.24C4.5 5.75 5.92 4.76 7.5 4.76C9.57 4.76 11.25 6.44 11.25 8.51C11.25 8.92 11.59 9.26 12 9.26C12.41 9.26 12.75 8.92 12.75 8.51C12.75 6.44 14.43 4.76 16.5 4.76C18.08 4.76 19.5 5.76 20.03 7.24C21.64 12.12 13.79 17.09 12 18.14Z" fill="black"/>
</svg>
