<svg width="24" height="24" viewBox="0 0 24 24" fill="none" xmlns="http://www.w3.org/2000/svg">
<path d="M11.47 16.53C11.62 16.68 11.81 16.75 12 16.75C12.19 16.75 12.38 16.68 12.53 16.53L16.53 12.53C16.82 12.24 16.82 11.76 16.53 11.47C16.24 11.18 15.76 11.18 15.47 11.47L12.75 14.19V4C12.75 3.59 12.41 3.25 12 3.25C11.59 3.25 11.25 3.59 11.25 4V14.19L8.53 11.47C8.24 11.18 7.76 11.18 7.47 11.47C7.18 11.76 7.18 12.24 7.47 12.53L11.47 16.53Z" fill="black"/>
<path d="M21 14.25H16.93L13.59 17.59C13.17 18.01 12.6 18.25 12 18.25C11.4 18.25 10.83 18.02 10.41 17.59L7.07 14.25H3C2.59 14.25 2.25 14.59 2.25 15V18C2.25 19.52 3.48 20.75 5 20.75H19C20.52 20.75 21.75 19.52 21.75 18V15C21.75 14.59 21.41 14.25 21 14.25Z" fill="black"/>
</svg>
