<svg width="24" height="24" viewBox="0 0 24 24" fill="none" xmlns="http://www.w3.org/2000/svg">
<path d="M16.75 9.33V7C16.75 4.38 14.62 2.25 12 2.25C9.38 2.25 7.25 4.38 7.25 7V9.33C5.54 9.68 4.25 11.19 4.25 13V18C4.25 20.07 5.93 21.75 8 21.75H16C18.07 21.75 19.75 20.07 19.75 18V13C19.75 11.19 18.46 9.67 16.75 9.33ZM12 3.75C13.79 3.75 15.25 5.21 15.25 7V9.25H8.75V7C8.75 5.21 10.21 3.75 12 3.75ZM12.75 17C12.75 17.41 12.41 17.75 12 17.75C11.59 17.75 11.25 17.41 11.25 17V14C11.25 13.59 11.59 13.25 12 13.25C12.41 13.25 12.75 13.59 12.75 14V17Z" fill="black"/>
</svg>
