<svg width="24" height="24" viewBox="0 0 24 24" fill="none" xmlns="http://www.w3.org/2000/svg">
<path d="M11.25 12.75H2.25V17C2.25 19.62 4.38 21.75 7 21.75H11.25V12.75ZM8.94 18.94C8.79 19.09 8.6 19.16 8.41 19.16C8.22 19.16 8.03 19.09 7.88 18.94L7 18.06L6.12 18.94C5.97 19.09 5.78 19.16 5.59 19.16C5.4 19.16 5.21 19.09 5.06 18.94C4.77 18.65 4.77 18.17 5.06 17.88L5.94 17L5.06 16.12C4.77 15.83 4.77 15.35 5.06 15.06C5.35 14.77 5.83 14.77 6.12 15.06L7 15.94L7.88 15.06C8.17 14.77 8.65 14.77 8.94 15.06C9.23 15.35 9.23 15.83 8.94 16.12L8.06 17L8.94 17.88C9.23 18.17 9.23 18.65 8.94 18.94Z" fill="black"/>
<path d="M12.75 11.25H21.75V7C21.75 4.38 19.62 2.25 17 2.25H12.75V11.25ZM15.5 6.25H18.5C18.91 6.25 19.25 6.59 19.25 7C19.25 7.41 18.91 7.75 18.5 7.75H15.5C15.09 7.75 14.75 7.41 14.75 7C14.75 6.59 15.09 6.25 15.5 6.25Z" fill="black"/>
<path d="M11.25 11.25V2.25H7C4.38 2.25 2.25 4.38 2.25 7V11.25H11.25ZM5 6.25H6.25V5C6.25 4.59 6.59 4.25 7 4.25C7.41 4.25 7.75 4.59 7.75 5V6.25H9C9.41 6.25 9.75 6.59 9.75 7C9.75 7.41 9.41 7.75 9 7.75H7.75V9C7.75 9.41 7.41 9.75 7 9.75C6.59 9.75 6.25 9.41 6.25 9V7.75H5C4.59 7.75 4.25 7.41 4.25 7C4.25 6.59 4.59 6.25 5 6.25Z" fill="black"/>
<path d="M12.75 12.75V21.75H17C19.62 21.75 21.75 19.62 21.75 17V12.75H12.75ZM18.5 19.25H15.5C15.09 19.25 14.75 18.91 14.75 18.5C14.75 18.09 15.09 17.75 15.5 17.75H18.5C18.91 17.75 19.25 18.09 19.25 18.5C19.25 18.91 18.91 19.25 18.5 19.25ZM18.5 16.25H15.5C15.09 16.25 14.75 15.91 14.75 15.5C14.75 15.09 15.09 14.75 15.5 14.75H18.5C18.91 14.75 19.25 15.09 19.25 15.5C19.25 15.91 18.91 16.25 18.5 16.25Z" fill="black"/>
</svg>
