<svg width="24" height="24" viewBox="0 0 24 24" fill="none" xmlns="http://www.w3.org/2000/svg">
<path d="M20.03 3.07001C19.57 2.74001 18.97 2.65001 18.43 2.83001C17.3 3.20001 16.16 3.34001 15.06 3.26001C14.11 3.18001 13.49 2.98001 12.7 2.73001C12.26 2.59001 11.78 2.43001 11.18 2.28001C9.48999 1.85001 7.65999 1.79001 5.72999 2.10001C4.86999 2.24001 4.23999 2.97001 4.23999 3.83001V21C4.23999 21.41 4.57999 21.75 4.98999 21.75C5.39999 21.75 5.73999 21.41 5.73999 21V13.48C6.81999 12.98 7.90999 12.72 8.97999 12.75C10.09 12.77 10.86 13.04 11.74 13.36C12.07 13.48 12.41 13.6 12.77 13.71C13.88 14.05 15.06 14.22 16.31 14.22C17.27 14.22 18.28 14.12 19.31 13.92C20.14 13.76 20.74 13.03 20.74 12.2V4.48001C20.74 3.91001 20.48 3.40001 20.02 3.07001H20.03ZM19.25 12.2C19.25 12.32 19.16 12.42 19.03 12.45C16.91 12.87 14.95 12.81 13.22 12.28C12.89 12.18 12.57 12.07 12.26 11.95C11.33 11.61 10.37 11.27 9.00999 11.25C8.96999 11.25 8.92999 11.25 8.89999 11.25C7.84999 11.25 6.79999 11.45 5.74999 11.85V3.83001C5.74999 3.71001 5.84999 3.60001 5.97999 3.58001C7.69999 3.30001 9.32999 3.35001 10.81 3.73001C11.37 3.87001 11.83 4.02001 12.24 4.15001C13.08 4.42001 13.81 4.65001 14.93 4.75001C16.23 4.86001 17.56 4.69001 18.89 4.25001C19.02 4.21001 19.11 4.26001 19.14 4.29001C19.18 4.32001 19.24 4.38001 19.24 4.48001V12.2H19.25Z" fill="black"/>
</svg>
