<svg width="24" height="24" viewBox="0 0 24 24" fill="none" xmlns="http://www.w3.org/2000/svg">
<path d="M18 4.25H6C3.93 4.25 2.25 5.93 2.25 8V14C2.25 16.07 3.93 17.75 6 17.75C6.41 17.75 6.75 17.41 6.75 17C6.75 16.59 6.41 16.25 6 16.25C4.76 16.25 3.75 15.24 3.75 14V8C3.75 6.76 4.76 5.75 6 5.75H18C19.24 5.75 20.25 6.76 20.25 8V14C20.25 15.24 19.24 16.25 18 16.25C17.59 16.25 17.25 16.59 17.25 17C17.25 17.41 17.59 17.75 18 17.75C20.07 17.75 21.75 16.07 21.75 14V8C21.75 5.93 20.07 4.25 18 4.25Z" fill="black"/>
<path d="M13.04 13.21C12.58 12.51 11.42 12.51 10.96 13.21L7.89 17.81C7.63 18.19 7.61 18.69 7.83 19.09C8.05 19.5 8.47 19.75 8.93 19.75H15.06C15.52 19.75 15.94 19.5 16.16 19.09C16.38 18.68 16.35 18.19 16.1 17.81L13.03 13.21H13.04ZM9.4 18.25L12 14.35L14.6 18.25H9.4Z" fill="black"/>
</svg>
