<svg width="24" height="24" viewBox="0 0 24 24" fill="none" xmlns="http://www.w3.org/2000/svg">
<path d="M18.89 5.11C17.05 3.27 14.6 2.25 12 2.25C9.4 2.25 6.95 3.26 5.11 5.11C3.27 6.95 2.25 9.4 2.25 12C2.25 14.6 3.26 17.05 5.11 18.89C6.95 20.73 9.4 21.75 12 21.75C14.6 21.75 17.05 20.74 18.89 18.89C20.73 17.05 21.75 14.6 21.75 12C21.75 9.4 20.74 6.95 18.89 5.11ZM17.83 17.84C16.27 19.4 14.2 20.26 12 20.26C9.8 20.26 7.72 19.4 6.17 17.84C4.61 16.28 3.75 14.21 3.75 12.01C3.75 9.81 4.61 7.73 6.17 6.18C7.73 4.62 9.8 3.76 12 3.76C14.2 3.76 16.28 4.62 17.83 6.18C19.39 7.74 20.25 9.81 20.25 12.01C20.25 14.21 19.39 16.29 17.83 17.84Z" fill="black"/>
<path d="M15.06 7.36L9.88 9.09C9.51 9.21 9.21 9.51 9.09 9.88L7.36 15.06C7.21 15.51 7.32 16 7.66 16.34C7.9 16.58 8.22 16.71 8.54 16.71C8.67 16.71 8.81 16.69 8.94 16.65L14.12 14.92C14.49 14.8 14.79 14.5 14.91 14.13L16.64 8.95C16.79 8.5 16.68 8.01 16.34 7.67C16 7.33 15.51 7.22 15.06 7.37V7.36ZM13.53 13.53L8.95 15.06L10.48 10.48L15.06 8.95L13.53 13.53Z" fill="black"/>
</svg>
