<svg width="24" height="24" viewBox="0 0 24 24" fill="none" xmlns="http://www.w3.org/2000/svg">
<path d="M18 14.25C16.64 14.25 15.46 14.98 14.8 16.06L9.47 13.39C9.64 12.96 9.75 12.49 9.75 11.99C9.75 11.49 9.65 11.02 9.47 10.59L14.8 7.91998C15.46 8.99998 16.64 9.72998 18 9.72998C20.07 9.72998 21.75 8.04998 21.75 5.97998C21.75 3.90998 20.07 2.22998 18 2.22998C15.93 2.22998 14.25 3.90998 14.25 5.97998C14.25 6.14998 14.28 6.31998 14.3 6.48998L8.66 9.30998C8.66 9.30998 8.65 9.31998 8.64 9.32998C7.96 8.64998 7.03 8.23998 6 8.23998C3.93 8.23998 2.25 9.91998 2.25 11.99C2.25 14.06 3.93 15.74 6 15.74C7.03 15.74 7.97 15.32 8.64 14.65C8.64 14.65 8.65 14.66 8.66 14.67L14.3 17.49C14.28 17.66 14.25 17.83 14.25 18C14.25 20.07 15.93 21.75 18 21.75C20.07 21.75 21.75 20.07 21.75 18C21.75 15.93 20.07 14.25 18 14.25Z" fill="black"/>
</svg>
