<svg width="24" height="24" viewBox="0 0 24 24" fill="none" xmlns="http://www.w3.org/2000/svg">
<path d="M15.75 11C15.75 10.59 15.41 10.25 15 10.25C14.59 10.25 14.25 10.59 14.25 11C14.25 12.79 12.79 14.25 11 14.25H7C5.21 14.25 3.75 12.79 3.75 11C3.75 9.21 5.21 7.75 7 7.75H9C9.41 7.75 9.75 7.41 9.75 7C9.75 6.59 9.41 6.25 9 6.25H7C4.38 6.25 2.25 8.38 2.25 11C2.25 13.62 4.38 15.75 7 15.75H11C13.62 15.75 15.75 13.62 15.75 11Z" fill="black"/>
<path d="M17 7.25H13C10.38 7.25 8.25 9.38 8.25 12C8.25 12.41 8.59 12.75 9 12.75C9.41 12.75 9.75 12.41 9.75 12C9.75 10.21 11.21 8.75 13 8.75H17C18.79 8.75 20.25 10.21 20.25 12C20.25 13.79 18.79 15.25 17 15.25H15C14.59 15.25 14.25 15.59 14.25 16C14.25 16.41 14.59 16.75 15 16.75H17C19.62 16.75 21.75 14.62 21.75 12C21.75 9.38 19.62 7.25 17 7.25Z" fill="black"/>
</svg>
