<svg width="24" height="24" viewBox="0 0 24 24" fill="none" xmlns="http://www.w3.org/2000/svg">
<path d="M12 18.75C12.9665 18.75 13.75 17.9665 13.75 17C13.75 16.0335 12.9665 15.25 12 15.25C11.0335 15.25 10.25 16.0335 10.25 17C10.25 17.9665 11.0335 18.75 12 18.75Z" fill="black"/>
<path d="M12 11.56C10.34 11.56 8.74997 12.16 7.51997 13.26C7.20997 13.54 7.17997 14.01 7.45997 14.32C7.73997 14.63 8.20997 14.66 8.51997 14.38C9.47997 13.53 10.72 13.06 12.01 13.06C13.3 13.06 14.54 13.53 15.5 14.38C15.64 14.51 15.82 14.57 16 14.57C16.21 14.57 16.41 14.49 16.56 14.32C16.83 14.01 16.81 13.54 16.5 13.26C15.27 12.16 13.67 11.56 12.02 11.56H12Z" fill="black"/>
<path d="M12 7.92C9.45997 7.92 6.99997 8.82 5.06997 10.45C4.74997 10.72 4.70997 11.19 4.97997 11.51C5.12997 11.68 5.33997 11.78 5.54997 11.78C5.71997 11.78 5.88997 11.72 6.02997 11.6C7.68997 10.19 9.80997 9.42 11.99 9.42C14.17 9.42 16.27 10.19 17.94 11.58C18.26 11.85 18.73 11.81 19 11.49C19.27 11.17 19.23 10.7 18.91 10.43C16.98 8.81 14.52 7.91 12 7.91V7.92Z" fill="black"/>
<path d="M21.48 7.7C18.83 5.47 15.46 4.25 12 4.25C8.53997 4.25 5.16997 5.48 2.51997 7.7C2.19997 7.97 2.15997 8.44 2.42997 8.76C2.57997 8.94 2.78997 9.03 2.99997 9.03C3.16997 9.03 3.33997 8.97 3.47997 8.85C5.85997 6.85 8.87997 5.75 12 5.75C15.12 5.75 18.14 6.85 20.52 8.85C20.84 9.12 21.31 9.08 21.58 8.76C21.85 8.44 21.81 7.97 21.49 7.7H21.48Z" fill="black"/>
</svg>
