<svg width="24" height="24" viewBox="0 0 24 24" fill="none" xmlns="http://www.w3.org/2000/svg">
<path d="M18.36 7.85999C18.62 7.42999 18.75 6.93999 18.75 6.43999V4.98999C18.75 3.46999 17.52 2.23999 16 2.23999H8C6.48 2.23999 5.25 3.46999 5.25 4.98999V6.43999C5.25 6.93999 5.39 7.42999 5.64 7.85999L7.74 11.36C7.98 11.76 7.98 12.25 7.74 12.65L5.64 16.15C5.38 16.58 5.25 17.07 5.25 17.57V19.02C5.25 20.54 6.48 21.77 8 21.77H16C17.52 21.77 18.75 20.54 18.75 19.02V17.57C18.75 17.07 18.61 16.58 18.36 16.15L16.26 12.65C16.02 12.25 16.02 11.76 16.26 11.36L18.36 7.85999ZM14 18.75H10C9.59 18.75 9.25 18.41 9.25 18C9.25 17.59 9.59 17.25 10 17.25H14C14.41 17.25 14.75 17.59 14.75 18C14.75 18.41 14.41 18.75 14 18.75Z" fill="black"/>
</svg>
