<svg width="24" height="24" viewBox="0 0 24 24" fill="none" xmlns="http://www.w3.org/2000/svg">
<path d="M18 14.25C16.64 14.25 15.46 14.98 14.8 16.06L9.47 13.39C9.64 12.96 9.75 12.49 9.75 11.99C9.75 11.49 9.65 11.02 9.47 10.59L14.8 7.92004C15.46 9.00004 16.64 9.73004 18 9.73004C20.07 9.73004 21.75 8.05004 21.75 5.98004C21.75 3.91004 20.07 2.23004 18 2.23004C15.93 2.23004 14.25 3.91004 14.25 5.98004C14.25 6.15004 14.28 6.32004 14.3 6.49004L8.66 9.31004C8.66 9.31004 8.65 9.32004 8.64 9.33004C7.96 8.65004 7.03 8.24004 6 8.24004C3.93 8.24004 2.25 9.92004 2.25 11.99C2.25 14.06 3.93 15.74 6 15.74C7.03 15.74 7.97 15.32 8.64 14.65C8.64 14.65 8.65 14.66 8.66 14.67L14.3 17.49C14.28 17.66 14.25 17.83 14.25 18C14.25 20.07 15.93 21.75 18 21.75C20.07 21.75 21.75 20.07 21.75 18C21.75 15.93 20.07 14.25 18 14.25ZM18 3.75004C19.24 3.75004 20.25 4.76004 20.25 6.00004C20.25 7.24004 19.24 8.25004 18 8.25004C16.76 8.25004 15.75 7.24004 15.75 6.00004C15.75 4.76004 16.76 3.75004 18 3.75004ZM6 14.25C4.76 14.25 3.75 13.24 3.75 12C3.75 10.76 4.76 9.75004 6 9.75004C7.24 9.75004 8.25 10.76 8.25 12C8.25 13.24 7.24 14.25 6 14.25ZM18 20.25C16.76 20.25 15.75 19.24 15.75 18C15.75 16.76 16.76 15.75 18 15.75C19.24 15.75 20.25 16.76 20.25 18C20.25 19.24 19.24 20.25 18 20.25Z" fill="black"/>
</svg>
