<svg width="24" height="24" viewBox="0 0 24 24" fill="none" xmlns="http://www.w3.org/2000/svg">
<path d="M17 2.25H7C4.38 2.25 2.25 4.38 2.25 7V11.25H14.19L11.47 8.53C11.18 8.24 11.18 7.76 11.47 7.47C11.76 7.18 12.24 7.18 12.53 7.47L16.53 11.47C16.82 11.76 16.82 12.24 16.53 12.53L12.53 16.53C12.38 16.68 12.19 16.75 12 16.75C11.81 16.75 11.62 16.68 11.47 16.53C11.18 16.24 11.18 15.76 11.47 15.47L14.19 12.75H2.25V17C2.25 19.62 4.38 21.75 7 21.75H17C19.62 21.75 21.75 19.62 21.75 17V7C21.75 4.38 19.62 2.25 17 2.25Z" fill="black"/>
</svg>
