<svg width="24" height="24" viewBox="0 0 24 24" fill="none" xmlns="http://www.w3.org/2000/svg">
<path d="M21.96 9.60004C21.74 8.91004 21.16 8.42004 20.44 8.32004L15.78 7.63004L13.7 3.40004C13.38 2.75004 12.74 2.35004 12.01 2.35004C11.29 2.35004 10.64 2.75004 10.32 3.40004L8.22001 7.62004L3.55001 8.29004C2.84001 8.39004 2.25001 8.88004 2.03001 9.57004C1.81001 10.26 1.99001 10.99 2.50001 11.5L5.87001 14.8L5.06001 19.44C4.94001 20.15 5.22001 20.86 5.80001 21.28C6.38001 21.71 7.14001 21.76 7.78001 21.43L11.96 19.25L16.13 21.45C16.41 21.6 16.71 21.67 17.01 21.67C17.4 21.67 17.78 21.55 18.11 21.31C18.69 20.89 18.98 20.18 18.86 19.47L18.07 14.82L21.45 11.54C21.97 11.04 22.15 10.3 21.93 9.61004L21.96 9.60004ZM20.43 10.45L16.76 14.01C16.58 14.18 16.5 14.43 16.54 14.67L17.39 19.71C17.43 19.92 17.3 20.04 17.24 20.08C17.18 20.12 17.03 20.21 16.84 20.11L12.32 17.72C12.21 17.66 12.09 17.63 11.97 17.63C11.85 17.63 11.73 17.66 11.62 17.71L7.09001 20.08C6.90001 20.18 6.75001 20.09 6.69001 20.05C6.63001 20.01 6.50001 19.89 6.54001 19.68L7.41001 14.65C7.45001 14.41 7.37001 14.16 7.20001 13.99L3.55001 10.42C3.40001 10.27 3.43001 10.1 3.45001 10.03C3.47001 9.96004 3.55001 9.80004 3.76001 9.77004L8.82 9.05004C9.06 9.01004 9.28001 8.86004 9.39001 8.64004L11.66 4.06004C11.75 3.87004 11.93 3.85004 12 3.85004C12.07 3.85004 12.25 3.87004 12.34 4.06004L14.59 8.65004C14.7 8.87004 14.91 9.03004 15.15 9.06004L20.2 9.81004C20.41 9.84004 20.49 10 20.51 10.07C20.53 10.14 20.57 10.31 20.41 10.46L20.43 10.45Z" fill="black"/>
</svg>
