<svg width="24" height="24" viewBox="0 0 24 24" fill="none" xmlns="http://www.w3.org/2000/svg">
<path d="M17.75 4.33V3C17.75 2.59 17.41 2.25 17 2.25C16.59 2.25 16.25 2.59 16.25 3V4.25H7.75V3C7.75 2.59 7.41 2.25 7 2.25C6.59 2.25 6.25 2.59 6.25 3V4.33C4.54 4.68 3.25 6.19 3.25 8V18C3.25 20.07 4.93 21.75 7 21.75H17C19.07 21.75 20.75 20.07 20.75 18V8C20.75 6.19 19.46 4.67 17.75 4.33ZM19.25 18C19.25 19.24 18.24 20.25 17 20.25H7C5.76 20.25 4.75 19.24 4.75 18V8C4.75 6.76 5.76 5.75 7 5.75H17C18.24 5.75 19.25 6.76 19.25 8V18Z" fill="black"/>
<path d="M14.75 11C14.75 9.48 13.52 8.25 12 8.25C10.48 8.25 9.25 9.48 9.25 11C9.25 11.79 9.59 12.5 10.12 13C9.58 13.5 9.25 14.21 9.25 15C9.25 16.52 10.48 17.75 12 17.75C13.52 17.75 14.75 16.52 14.75 15C14.75 14.21 14.41 13.5 13.88 13C14.42 12.5 14.75 11.79 14.75 11ZM13.25 15C13.25 15.69 12.69 16.25 12 16.25C11.31 16.25 10.75 15.69 10.75 15C10.75 14.31 11.31 13.75 12 13.75C12.69 13.75 13.25 14.31 13.25 15ZM10.75 11C10.75 10.31 11.31 9.75 12 9.75C12.69 9.75 13.25 10.31 13.25 11C13.25 11.69 12.69 12.25 12 12.25C11.31 12.25 10.75 11.69 10.75 11Z" fill="black"/>
</svg>
