<svg width="24" height="24" viewBox="0 0 24 24" fill="none" xmlns="http://www.w3.org/2000/svg">
<path d="M12 9.25C10.48 9.25 9.25 10.48 9.25 12C9.25 13.52 10.48 14.75 12 14.75C13.52 14.75 14.75 13.52 14.75 12C14.75 10.48 13.52 9.25 12 9.25ZM12 13.25C11.31 13.25 10.75 12.69 10.75 12C10.75 11.31 11.31 10.75 12 10.75C12.69 10.75 13.25 11.31 13.25 12C13.25 12.69 12.69 13.25 12 13.25Z" fill="black"/>
<path d="M19 9.25C17.48 9.25 16.25 10.48 16.25 12C16.25 13.52 17.48 14.75 19 14.75C20.52 14.75 21.75 13.52 21.75 12C21.75 10.48 20.52 9.25 19 9.25ZM19 13.25C18.31 13.25 17.75 12.69 17.75 12C17.75 11.31 18.31 10.75 19 10.75C19.69 10.75 20.25 11.31 20.25 12C20.25 12.69 19.69 13.25 19 13.25Z" fill="black"/>
<path d="M5 9.25C3.48 9.25 2.25 10.48 2.25 12C2.25 13.52 3.48 14.75 5 14.75C6.52 14.75 7.75 13.52 7.75 12C7.75 10.48 6.52 9.25 5 9.25ZM5 13.25C4.31 13.25 3.75 12.69 3.75 12C3.75 11.31 4.31 10.75 5 10.75C5.69 10.75 6.25 11.31 6.25 12C6.25 12.69 5.69 13.25 5 13.25Z" fill="black"/>
</svg>
