<svg width="24" height="24" viewBox="0 0 24 24" fill="none" xmlns="http://www.w3.org/2000/svg">
<path d="M16 2.25H8C5.93 2.25 4.25 3.93 4.25 6V7.25H6C6.41 7.25 6.75 7.59 6.75 8C6.75 8.41 6.41 8.75 6 8.75H4.25V11.25H6C6.41 11.25 6.75 11.59 6.75 12C6.75 12.41 6.41 12.75 6 12.75H4.25V15.25H6C6.41 15.25 6.75 15.59 6.75 16C6.75 16.41 6.41 16.75 6 16.75H4.25V18C4.25 20.07 5.93 21.75 8 21.75H16C18.07 21.75 19.75 20.07 19.75 18V6C19.75 3.93 18.07 2.25 16 2.25ZM13 16.75H10C9.59 16.75 9.25 16.41 9.25 16C9.25 15.59 9.59 15.25 10 15.25H13C13.41 15.25 13.75 15.59 13.75 16C13.75 16.41 13.41 16.75 13 16.75ZM16 12.75H10C9.59 12.75 9.25 12.41 9.25 12C9.25 11.59 9.59 11.25 10 11.25H16C16.41 11.25 16.75 11.59 16.75 12C16.75 12.41 16.41 12.75 16 12.75ZM16 8.75H10C9.59 8.75 9.25 8.41 9.25 8C9.25 7.59 9.59 7.25 10 7.25H16C16.41 7.25 16.75 7.59 16.75 8C16.75 8.41 16.41 8.75 16 8.75Z" fill="black"/>
</svg>
