<svg width="24" height="24" viewBox="0 0 24 24" fill="none" xmlns="http://www.w3.org/2000/svg">
<path d="M12 2.25C6.62 2.25 2.25 6.62 2.25 12C2.25 17.38 6.62 21.75 12 21.75C17.38 21.75 21.75 17.38 21.75 12C21.75 6.62 17.38 2.25 12 2.25ZM12 5C14.07 5 15.75 6.68 15.75 8.75C15.75 10.82 14.07 12.5 12 12.5C9.93 12.5 8.25 10.82 8.25 8.75C8.25 6.68 9.93 5 12 5ZM17.42 18.06C17.08 18.29 16.61 18.2 16.38 17.85C15.4 16.38 13.77 15.5 12 15.5C10.13 15.5 8.39 16.51 7.45 18.13C7.31 18.37 7.06 18.5 6.8 18.5C6.67 18.5 6.54 18.47 6.42 18.4C6.06 18.19 5.94 17.73 6.15 17.38C7.35 15.3 9.59 14.01 12 14.01C14.27 14.01 16.37 15.14 17.63 17.03C17.86 17.38 17.77 17.84 17.42 18.07V18.06Z" fill="black"/>
<path d="M12 11C13.2426 11 14.25 9.99264 14.25 8.75C14.25 7.50736 13.2426 6.5 12 6.5C10.7574 6.5 9.75 7.50736 9.75 8.75C9.75 9.99264 10.7574 11 12 11Z" fill="black"/>
</svg>
