<svg width="24" height="24" viewBox="0 0 24 24" fill="none" xmlns="http://www.w3.org/2000/svg">
<path d="M12 19.5C13.3807 19.5 14.5 18.3807 14.5 17C14.5 15.6193 13.3807 14.5 12 14.5C10.6193 14.5 9.50001 15.6193 9.50001 17C9.50001 18.3807 10.6193 19.5 12 19.5Z" fill="black"/>
<path d="M12 10.81C10.16 10.81 8.39001 11.48 7.02001 12.7C6.40001 13.25 6.35001 14.2 6.90001 14.82C7.45001 15.44 8.40001 15.49 9.02001 14.94C10.66 13.48 13.35 13.48 14.99 14.94C15.28 15.19 15.63 15.32 15.99 15.32C16.4 15.32 16.82 15.15 17.11 14.82C17.66 14.2 17.61 13.25 16.99 12.7C15.62 11.48 13.85 10.81 12.01 10.81H12Z" fill="black"/>
<path d="M12 7.17C9.29001 7.17 6.65001 8.13 4.58001 9.88C3.95001 10.41 3.87001 11.36 4.40001 11.99C4.70001 12.34 5.12001 12.52 5.55001 12.52C5.89001 12.52 6.24001 12.4 6.52001 12.17C8.05001 10.88 10 10.17 12 10.17C14 10.17 15.94 10.88 17.46 12.16C18.1 12.69 19.04 12.61 19.57 11.98C20.1 11.35 20.02 10.4 19.39 9.87C17.32 8.13 14.7 7.18 12 7.18V7.17Z" fill="black"/>
<path d="M21.96 7.13C19.18 4.79 15.64 3.5 12 3.5C8.36001 3.5 4.82001 4.79 2.04001 7.13C1.41001 7.66 1.32001 8.61 1.86001 9.24C2.39001 9.87 3.34001 9.96 3.97001 9.42C6.21001 7.53 9.07001 6.5 12.01 6.5C14.95 6.5 17.8 7.54 20.05 9.42C20.33 9.66 20.67 9.77 21.01 9.77C21.44 9.77 21.86 9.59 22.16 9.23C22.69 8.6 22.61 7.65 21.98 7.12L21.96 7.13Z" fill="black"/>
</svg>
