<svg width="24" height="24" viewBox="0 0 24 24" fill="none" xmlns="http://www.w3.org/2000/svg">
<path d="M13.44 4.93003L19.08 10.57L19.62 11.09L20.5 10.21C21.21 9.50003 21.6 8.56003 21.6 7.56003C21.6 6.56003 21.21 5.62003 20.5 4.91003L19.09 3.50003C17.63 2.04003 15.25 2.04003 13.79 3.50003L12.92 4.37003L13.45 4.93003H13.44Z" fill="black"/>
<path d="M18.03 11.64L12.36 5.98003L11.84 5.44003L3.78001 13.5C3.28001 14 2.94001 14.62 2.78001 15.3L1.81001 19.48C1.63001 20.24 1.86001 21.03 2.41001 21.58C2.84001 22.01 3.41001 22.24 3.99001 22.24C4.16001 22.24 4.33001 22.22 4.50001 22.18L8.68001 21.21C9.36001 21.05 9.99001 20.71 10.48 20.21L18.54 12.15L18.01 11.64H18.03Z" fill="black"/>
</svg>
