<svg width="24" height="24" viewBox="0 0 24 24" fill="none" xmlns="http://www.w3.org/2000/svg">
<path d="M20.61 3.54001C19.88 3.02001 18.98 2.88001 18.13 3.16001L12 5.20001L5.87 3.17001C5.02 2.89001 4.12 3.02001 3.39 3.55001C2.66 4.07001 2.25 4.89001 2.25 5.78001V16.56C2.25 17.75 3.01 18.79 4.13 19.17L11.76 21.71C11.84 21.74 11.91 21.75 11.99 21.75C12.07 21.75 12.15 21.74 12.22 21.71L19.85 19.17C20.97 18.79 21.73 17.75 21.73 16.56V5.77001C21.73 4.88001 21.31 4.06001 20.59 3.54001H20.61ZM3.75 16.56V5.77001C3.75 5.36001 3.94 4.99001 4.27 4.76001C4.49 4.60001 4.74 4.52001 5 4.52001C5.13 4.52001 5.27 4.54001 5.4 4.59001L11.25 6.54001V19.96L4.6 17.75C4.09 17.58 3.75 17.1 3.75 16.56ZM20.25 16.56C20.25 17.1 19.91 17.58 19.4 17.75L12.75 19.96V6.54001L18.6 4.59001C18.99 4.46001 19.4 4.53001 19.73 4.76001C20.06 5.00001 20.25 5.37001 20.25 5.77001V16.56Z" fill="black"/>
</svg>
