<svg width="24" height="24" viewBox="0 0 24 24" fill="none" xmlns="http://www.w3.org/2000/svg">
<path d="M20.65 16.2L15.52 11.07C15.1 10.65 14.86 10.07 14.86 9.47998V9.13998C14.86 8.14998 14.46 7.18998 13.76 6.48998L10.04 2.76998C9.57 2.29998 8.74 2.29998 8.27 2.76998L6.86 4.17998C6.37 4.66998 6.37 5.45998 6.86 5.94998L9.51 8.59998L8.45 9.65998L5.8 7.00998C5.33 6.53998 4.5 6.53998 4.03 7.00998L2.62 8.41998C2.38 8.65998 2.25 8.96998 2.25 9.29998C2.25 9.62998 2.38 9.94998 2.62 10.18L6.34 13.9C7.05 14.61 7.99 15 8.99 15H9.33C9.93 15 10.5 15.23 10.92 15.66L16.05 20.79C16.66 21.4 17.48 21.74 18.35 21.74C19.22 21.74 20.03 21.4 20.65 20.79C21.92 19.52 21.92 17.46 20.65 16.19V16.2Z" fill="black"/>
</svg>
