<svg width="24" height="24" viewBox="0 0 24 24" fill="none" xmlns="http://www.w3.org/2000/svg">
<path d="M9 13.25C9.69036 13.25 10.25 12.6904 10.25 12C10.25 11.3096 9.69036 10.75 9 10.75C8.30964 10.75 7.75 11.3096 7.75 12C7.75 12.6904 8.30964 13.25 9 13.25Z" fill="black"/>
<path d="M12 2.25C6.62 2.25 2.25 6.62 2.25 12C2.25 17.38 6.62 21.75 12 21.75C17.38 21.75 21.75 17.38 21.75 12C21.75 6.62 17.38 2.25 12 2.25ZM17.75 14C17.75 14.41 17.41 14.75 17 14.75C16.59 14.75 16.25 14.41 16.25 14V12.75H14.75V14C14.75 14.41 14.41 14.75 14 14.75C13.59 14.75 13.25 14.41 13.25 14V12.75H11.63C11.3 13.9 10.25 14.75 9 14.75C7.48 14.75 6.25 13.52 6.25 12C6.25 10.48 7.48 9.25 9 9.25C10.25 9.25 11.3 10.1 11.63 11.25H17C17.41 11.25 17.75 11.59 17.75 12V14Z" fill="black"/>
</svg>
