<svg width="24" height="24" viewBox="0 0 24 24" fill="none" xmlns="http://www.w3.org/2000/svg">
<path d="M21.63 16.51L14.31 5.18999C13.8 4.39999 12.94 3.92999 12 3.92999C11.06 3.92999 10.2 4.39999 9.68998 5.18999L2.36998 16.51C1.80998 17.37 1.76998 18.42 2.25998 19.32C2.74998 20.22 3.64998 20.76 4.67998 20.76H19.33C20.35 20.76 21.26 20.22 21.75 19.32C22.24 18.42 22.2 17.37 21.64 16.51H21.63ZM20.42 18.6C20.2 19.01 19.79 19.25 19.32 19.25H4.67998C4.20998 19.25 3.79998 19.01 3.57998 18.6C3.35998 18.19 3.37998 17.71 3.62998 17.32L10.95 5.99999C11.18 5.63999 11.57 5.42999 12 5.42999C12.43 5.42999 12.81 5.63999 13.05 5.99999L20.37 17.32C20.62 17.71 20.64 18.19 20.42 18.6Z" fill="black"/>
<path d="M12 14.75C12.41 14.75 12.75 14.41 12.75 14V8.99999C12.75 8.58999 12.41 8.24999 12 8.24999C11.59 8.24999 11.25 8.58999 11.25 8.99999V14C11.25 14.41 11.59 14.75 12 14.75Z" fill="black"/>
<path d="M12.02 16.25C11.61 16.25 11.27 16.59 11.27 17C11.27 17.41 11.61 17.75 12.02 17.75C12.43 17.75 12.77 17.41 12.77 17C12.77 16.59 12.44 16.25 12.02 16.25Z" fill="black"/>
</svg>
