<svg width="24" height="24" viewBox="0 0 24 24" fill="none" xmlns="http://www.w3.org/2000/svg">
<path d="M12 2.25C6.62 2.25 2.25 6.62 2.25 12C2.25 17.38 6.62 21.75 12 21.75C17.38 21.75 21.75 17.38 21.75 12C21.75 6.62 17.38 2.25 12 2.25ZM12 20.25C7.45 20.25 3.75 16.55 3.75 12C3.75 7.45 7.45 3.75 12 3.75C16.55 3.75 20.25 7.45 20.25 12C20.25 16.55 16.55 20.25 12 20.25Z" fill="black"/>
<path d="M16.56 11.74C16.28 11.43 15.81 11.4 15.5 11.68C15.09 12.05 14.55 12.25 14 12.25C12.76 12.25 11.75 11.24 11.75 10C11.75 9.45 11.95 8.91 12.32 8.5C12.6 8.19 12.57 7.72 12.26 7.44C12.06 7.26 11.79 7.22 11.55 7.29C11.51 7.29 11.48 7.28 11.44 7.28C9.29 7.54 7.59 9.22 7.3 11.37C6.95 13.97 8.78 16.36 11.38 16.71C11.59 16.74 11.8 16.75 12.01 16.75C14.35 16.75 16.4 15.01 16.72 12.63C16.72 12.57 16.72 12.51 16.71 12.45C16.78 12.21 16.75 11.94 16.56 11.73V11.74ZM11.58 15.23C9.8 14.99 8.55 13.35 8.79 11.58C8.92 10.58 9.52 9.73 10.34 9.23C10.29 9.48 10.25 9.74 10.25 10.01C10.25 12.08 11.93 13.76 14 13.76C14.27 13.76 14.54 13.72 14.81 13.66C14.16 14.75 12.91 15.41 11.58 15.23Z" fill="black"/>
</svg>
