<svg width="24" height="24" viewBox="0 0 24 24" fill="none" xmlns="http://www.w3.org/2000/svg">
<path d="M11.78 5.17997L18.84 12.23L19.35 12.78L20.96 11.17C21.64 10.49 21.64 9.37997 20.96 8.69997L15.3 3.03997C14.62 2.35997 13.51 2.35997 12.83 3.03997L11.26 4.60997L11.79 5.16997L11.78 5.17997Z" fill="black"/>
<path d="M17.76 13.28L10.71 6.22997L10.32 5.80997C9.97997 6.41997 9.77997 7.09997 9.77997 7.81997C9.77997 8.53997 9.49997 9.19997 8.99997 9.69997L3.62997 15.07C2.91997 15.78 2.52997 16.72 2.52997 17.72C2.52997 18.72 2.91997 19.66 3.62997 20.37C4.33997 21.08 5.27997 21.47 6.27997 21.47C7.27997 21.47 8.21997 21.08 8.92997 20.37L14.29 15.01C14.79 14.51 15.46 14.23 16.17 14.23C16.88 14.23 17.54 14.04 18.14 13.71L17.74 13.28H17.76ZM11.77 13.3L8.93997 16.13C8.78997 16.28 8.59997 16.35 8.40997 16.35C8.21997 16.35 8.02997 16.28 7.87997 16.13C7.58997 15.84 7.58997 15.36 7.87997 15.07L10.71 12.24C11 11.95 11.48 11.95 11.77 12.24C12.06 12.53 12.06 13.01 11.77 13.3Z" fill="black"/>
</svg>
