<svg width="24" height="24" viewBox="0 0 24 24" fill="none" xmlns="http://www.w3.org/2000/svg">
<path d="M12 2.25C6.62 2.25 2.25 6.62 2.25 12C2.25 17.38 6.62 21.75 12 21.75C17.38 21.75 21.75 17.38 21.75 12C21.75 6.62 17.38 2.25 12 2.25ZM12 20.25C7.45 20.25 3.75 16.55 3.75 12C3.75 7.45 7.45 3.75 12 3.75C16.55 3.75 20.25 7.45 20.25 12C20.25 16.55 16.55 20.25 12 20.25Z" fill="black"/>
<path d="M17 11.25H12.75V7C12.75 6.59 12.41 6.25 12 6.25C11.59 6.25 11.25 6.59 11.25 7V12C11.25 12.41 11.59 12.75 12 12.75H17C17.41 12.75 17.75 12.41 17.75 12C17.75 11.59 17.41 11.25 17 11.25Z" fill="black"/>
</svg>
