<svg width="24" height="24" viewBox="0 0 24 24" fill="none" xmlns="http://www.w3.org/2000/svg">
<path d="M21.2 5.14001C20.53 4.51001 19.11 3.42001 17.06 3.26001C14.74 3.06001 12.98 4.18001 12.14 4.86001C12.06 4.92001 11.94 4.93001 11.86 4.86001C11.02 4.18001 9.27 3.07001 6.94 3.26001C4.89 3.43001 3.46 4.51001 2.8 5.14001C2.45 5.47001 2.25 5.93001 2.25 6.41001V17.45C2.25 18.02 2.53 18.56 2.99 18.89C3.45 19.22 4.02 19.3 4.55 19.12C5.34 18.85 6.17 18.71 6.98 18.74C8.76 18.79 10.13 19.51 10.96 20.12C11.27 20.34 11.63 20.46 12 20.46C12.37 20.46 12.73 20.35 13.04 20.12C13.87 19.52 15.24 18.79 17.02 18.74C17.84 18.71 18.66 18.85 19.45 19.12C19.98 19.3 20.55 19.22 21.01 18.89C21.47 18.56 21.75 18.02 21.75 17.45V6.41001C21.75 5.92001 21.56 5.47001 21.2 5.14001ZM12.75 17.34C12.75 17.7 12.41 18 12 18C11.59 18 11.25 17.7 11.25 17.34V7.66001C11.25 7.30001 11.59 7.00001 12 7.00001C12.41 7.00001 12.75 7.30001 12.75 7.66001V17.34Z" fill="black"/>
</svg>
