<svg width="24" height="24" viewBox="0 0 24 24" fill="none" xmlns="http://www.w3.org/2000/svg">
<path d="M21.18 15.78L19.77 14.37C18.7 13.3 16.95 13.3 15.88 14.37L15.17 15.08C15.1 15.15 15 15.15 14.99 15.16C14.94 15.16 14.88 15.15 14.82 15.09L9.16 9.42001C9.1 9.36001 9.09 9.29001 9.09 9.25001C9.09 9.21001 9.1 9.14001 9.17 9.07001L9.88 8.36001C10.95 7.29001 10.95 5.54001 9.88 4.47001L8.47 3.06001C7.4 1.99001 5.65 1.99001 4.58 3.06001L3.96 3.68001C2.28 5.36001 1.81 7.95001 2.79 10.13C3.9 12.61 5.5 14.94 7.41 16.85C9.37 18.81 11.65 20.37 14.21 21.5C14.94 21.82 15.72 21.98 16.5 21.98C18 21.98 19.49 21.4 20.58 20.3L21.2 19.68C22.27 18.61 22.27 16.86 21.2 15.79L21.18 15.78ZM20.12 18.61L19.5 19.23C18.27 20.46 16.38 20.82 14.79 20.12C12.41 19.07 10.27 17.61 8.45 15.78C6.67 14 5.18 11.83 4.14 9.51001C3.42 7.89001 3.76 5.97001 5 4.73001L5.62 4.11001C5.86 3.87001 6.18 3.74001 6.5 3.74001C6.82 3.74001 7.14 3.86001 7.38 4.11001L8.79 5.52001C9.03 5.76001 9.16 6.07001 9.16 6.40001C9.16 6.73001 9.03 7.05001 8.79 7.28001L8.09 7.98001C7.76 8.31001 7.58 8.75001 7.57 9.21001C7.57 9.68001 7.75 10.12 8.08 10.45L13.74 16.12C14.07 16.45 14.47 16.64 14.98 16.63C15.44 16.63 15.88 16.45 16.21 16.12L16.92 15.41C17.41 14.92 18.2 14.92 18.69 15.41L20.1 16.82C20.59 17.31 20.59 18.1 20.1 18.59L20.12 18.61Z" fill="black"/>
<path d="M14 7.75001C15.24 7.75001 16.25 8.76001 16.25 10C16.25 10.41 16.59 10.75 17 10.75C17.41 10.75 17.75 10.41 17.75 10C17.75 7.93001 16.07 6.25001 14 6.25001C13.59 6.25001 13.25 6.59001 13.25 7.00001C13.25 7.41001 13.59 7.75001 14 7.75001Z" fill="black"/>
<path d="M14 4.75001C16.9 4.75001 19.25 7.10001 19.25 10C19.25 10.41 19.59 10.75 20 10.75C20.41 10.75 20.75 10.41 20.75 10C20.75 6.28001 17.72 3.25001 14 3.25001C13.59 3.25001 13.25 3.59001 13.25 4.00001C13.25 4.41001 13.59 4.75001 14 4.75001Z" fill="black"/>
</svg>
