<svg width="24" height="24" viewBox="0 0 24 24" fill="none" xmlns="http://www.w3.org/2000/svg">
<path d="M20.87 11.06L14.75 7.56V5C14.75 3.48 13.52 2.25 12 2.25C10.48 2.25 9.25 3.48 9.25 5V7.56L3.13 11.06C2.59 11.37 2.25 11.95 2.25 12.58V13.67C2.25 14.22 2.5 14.73 2.95 15.07C3.39 15.4 3.95 15.51 4.48 15.36L9.25 14V16.6L6.81 18.23C6.46 18.46 6.25 18.85 6.25 19.27V20.39C6.25 20.77 6.42 21.12 6.71 21.36C6.94 21.55 7.21 21.64 7.5 21.64C7.58 21.64 7.67 21.64 7.75 21.62L12 20.77L16.25 21.62C16.62 21.69 17 21.6 17.29 21.36C17.58 21.12 17.75 20.77 17.75 20.39V19.27C17.75 18.85 17.54 18.46 17.19 18.23L14.75 16.6V14L19.52 15.36C20.06 15.51 20.61 15.41 21.05 15.07C21.49 14.74 21.75 14.23 21.75 13.67V12.58C21.75 11.95 21.41 11.37 20.87 11.06Z" fill="black"/>
</svg>
