<svg width="24" height="24" viewBox="0 0 24 24" fill="none" xmlns="http://www.w3.org/2000/svg">
<path d="M12 2.25C6.62 2.25 2.25 6.62 2.25 12C2.25 17.38 6.62 21.75 12 21.75C17.38 21.75 21.75 17.38 21.75 12C21.75 6.62 17.38 2.25 12 2.25ZM20.25 12C20.25 12.78 20.13 13.53 19.93 14.25H15.75V4.66C18.42 6.03 20.25 8.8 20.25 12ZM9.75 14.25V9.75H14.25V14.25H9.75ZM12 3.75C12.78 3.75 13.53 3.87 14.25 4.07V8.25H4.66C6.03 5.58 8.8 3.75 12 3.75ZM3.75 12C3.75 11.22 3.87 10.47 4.07 9.75H8.25V19.34C5.58 17.97 3.75 15.2 3.75 12ZM12 20.25C11.22 20.25 10.47 20.13 9.75 19.93V15.75H19.34C17.97 18.42 15.2 20.25 12 20.25Z" fill="black"/>
</svg>
