<svg width="24" height="24" viewBox="0 0 24 24" fill="none" xmlns="http://www.w3.org/2000/svg">
<path d="M16 2.25H8C5.93 2.25 4.25 3.93 4.25 6V7.25H4C3.59 7.25 3.25 7.59 3.25 8C3.25 8.41 3.59 8.75 4 8.75H4.25V11.25H4C3.59 11.25 3.25 11.59 3.25 12C3.25 12.41 3.59 12.75 4 12.75H4.25V15.25H4C3.59 15.25 3.25 15.59 3.25 16C3.25 16.41 3.59 16.75 4 16.75H4.25V18C4.25 20.07 5.93 21.75 8 21.75H16C18.07 21.75 19.75 20.07 19.75 18V6C19.75 3.93 18.07 2.25 16 2.25ZM18.25 18C18.25 19.24 17.24 20.25 16 20.25H8C6.76 20.25 5.75 19.24 5.75 18V16.75H6C6.41 16.75 6.75 16.41 6.75 16C6.75 15.59 6.41 15.25 6 15.25H5.75V12.75H6C6.41 12.75 6.75 12.41 6.75 12C6.75 11.59 6.41 11.25 6 11.25H5.75V8.75H6C6.41 8.75 6.75 8.41 6.75 8C6.75 7.59 6.41 7.25 6 7.25H5.75V6C5.75 4.76 6.76 3.75 8 3.75H16C17.24 3.75 18.25 4.76 18.25 6V18Z" fill="black"/>
<path d="M16 11.25H10C9.59 11.25 9.25 11.59 9.25 12C9.25 12.41 9.59 12.75 10 12.75H16C16.41 12.75 16.75 12.41 16.75 12C16.75 11.59 16.41 11.25 16 11.25Z" fill="black"/>
<path d="M16 7.25H10C9.59 7.25 9.25 7.59 9.25 8C9.25 8.41 9.59 8.75 10 8.75H16C16.41 8.75 16.75 8.41 16.75 8C16.75 7.59 16.41 7.25 16 7.25Z" fill="black"/>
<path d="M13 15.25H10C9.59 15.25 9.25 15.59 9.25 16C9.25 16.41 9.59 16.75 10 16.75H13C13.41 16.75 13.75 16.41 13.75 16C13.75 15.59 13.41 15.25 13 15.25Z" fill="black"/>
</svg>
