<svg width="24" height="24" viewBox="0 0 24 24" fill="none" xmlns="http://www.w3.org/2000/svg">
<path d="M7.75001 9.00004C7.75001 7.65004 8.37001 6.41004 9.45001 5.60004C9.78001 5.35004 9.85001 4.88004 9.60001 4.55004C9.35001 4.22004 8.88001 4.15004 8.55001 4.40004C7.09001 5.50004 6.25001 7.17004 6.25001 9.00004C6.25001 10.83 7.09001 12.5 8.55001 13.6C8.68001 13.7 8.84001 13.75 9.00001 13.75C9.23001 13.75 9.45001 13.65 9.60001 13.45C9.85001 13.12 9.78001 12.65 9.45001 12.4C8.37001 11.59 7.75001 10.35 7.75001 9.00004Z" fill="black"/>
<path d="M15.45 4.40004C15.12 4.15004 14.65 4.22004 14.4 4.55004C14.15 4.88004 14.22 5.35004 14.55 5.60004C15.63 6.41004 16.25 7.65004 16.25 9.00004C16.25 10.35 15.63 11.59 14.55 12.4C14.22 12.65 14.15 13.12 14.4 13.45C14.55 13.65 14.77 13.75 15 13.75C15.16 13.75 15.31 13.7 15.45 13.6C16.91 12.5 17.75 10.83 17.75 9.00004C17.75 7.17004 16.91 5.50004 15.45 4.40004Z" fill="black"/>
<path d="M4.75001 9.00004C4.75001 6.79004 5.74001 4.73004 7.47001 3.34004C7.79001 3.08004 7.85001 2.61004 7.59001 2.29004C7.33001 1.97004 6.86001 1.92004 6.54001 2.17004C4.46001 3.84004 3.26001 6.33004 3.26001 9.00004C3.26001 11.67 4.46001 14.16 6.54001 15.83C6.68001 15.94 6.84001 15.99 7.01001 15.99C7.23001 15.99 7.45001 15.89 7.60001 15.71C7.86001 15.39 7.81001 14.91 7.48001 14.66C5.75001 13.28 4.76001 11.21 4.76001 9.00004H4.75001Z" fill="black"/>
<path d="M17.47 2.17004C17.15 1.91004 16.67 1.96004 16.42 2.29004C16.16 2.61004 16.21 3.09004 16.54 3.34004C18.27 4.72004 19.26 6.79004 19.26 9.00004C19.26 11.21 18.27 13.27 16.54 14.66C16.22 14.92 16.16 15.39 16.42 15.71C16.57 15.89 16.79 15.99 17.01 15.99C17.17 15.99 17.34 15.94 17.48 15.83C19.56 14.16 20.76 11.67 20.76 9.00004C20.76 6.33004 19.56 3.84004 17.48 2.17004H17.47Z" fill="black"/>
<path d="M14.75 9.00004C14.75 7.48004 13.52 6.25004 12 6.25004C10.48 6.25004 9.25001 7.48004 9.25001 9.00004C9.25001 10.25 10.1 11.3 11.25 11.63V21C11.25 21.41 11.59 21.75 12 21.75C12.41 21.75 12.75 21.41 12.75 21V11.63C13.9 11.3 14.75 10.25 14.75 9.00004ZM12 10.25C11.31 10.25 10.75 9.69004 10.75 9.00004C10.75 8.31004 11.31 7.75004 12 7.75004C12.69 7.75004 13.25 8.31004 13.25 9.00004C13.25 9.69004 12.69 10.25 12 10.25Z" fill="black"/>
</svg>
