<svg width="24" height="24" viewBox="0 0 24 24" fill="none" xmlns="http://www.w3.org/2000/svg">
<path d="M17 2.25H7C4.38 2.25 2.25 4.38 2.25 7C2.25 7.41 2.59 7.75 3 7.75C3.41 7.75 3.75 7.41 3.75 7C3.75 5.21 5.21 3.75 7 3.75H17C18.79 3.75 20.25 5.21 20.25 7V17C20.25 18.79 18.79 20.25 17 20.25H7C5.21 20.25 3.75 18.79 3.75 17C3.75 16.59 3.41 16.25 3 16.25C2.59 16.25 2.25 16.59 2.25 17C2.25 19.62 4.38 21.75 7 21.75H17C19.62 21.75 21.75 19.62 21.75 17V7C21.75 4.38 19.62 2.25 17 2.25Z" fill="black"/>
<path d="M2.25 12C2.25 12.41 2.59 12.75 3 12.75H14.19L11.47 15.47C11.18 15.76 11.18 16.24 11.47 16.53C11.62 16.68 11.81 16.75 12 16.75C12.19 16.75 12.38 16.68 12.53 16.53L16.53 12.53C16.82 12.24 16.82 11.76 16.53 11.47L12.53 7.47C12.24 7.18 11.76 7.18 11.47 7.47C11.18 7.76 11.18 8.24 11.47 8.53L14.19 11.25H3C2.59 11.25 2.25 11.59 2.25 12Z" fill="black"/>
</svg>
