<svg width="24" height="24" viewBox="0 0 24 24" fill="none" xmlns="http://www.w3.org/2000/svg">
<path d="M21.46 10.39C20.94 9.66 20.12 9.25 19.23 9.25H17.32C17.22 9.25 17.15 9.19 17.12 9.16C17.09 9.12 17.05 9.06 17.07 8.98C17.26 7.84 17.13 6.71 16.69 5.7C15.99 4.08 14.7 3.22 13.75 2.78C13.2 2.53 12.57 2.57 12.06 2.89C11.56 3.21 11.25 3.76 11.25 4.36V7C11.25 8.24 10.24 9.25 9 9.25H5C3.48 9.25 2.25 10.48 2.25 12V17C2.25 18.52 3.48 19.75 5 19.75H17.56C18.75 19.75 19.79 18.99 20.17 17.87L21.84 12.87C22.12 12.02 21.99 11.12 21.46 10.39ZM3.75 17V12C3.75 11.31 4.31 10.75 5 10.75H7.25V18.25H5C4.31 18.25 3.75 17.69 3.75 17ZM20.41 12.4L18.74 17.4C18.57 17.91 18.09 18.25 17.55 18.25H8.75V10.75H9C11.07 10.75 12.75 9.07 12.75 7V4.36C12.75 4.25 12.81 4.18 12.86 4.15C12.9 4.12 13 4.08 13.11 4.14C13.83 4.47 14.79 5.12 15.31 6.3C15.64 7.05 15.73 7.87 15.58 8.73C15.5 9.23 15.63 9.74 15.96 10.13C16.29 10.53 16.78 10.75 17.3 10.75H19.21C19.62 10.75 19.99 10.94 20.22 11.27C20.46 11.6 20.52 12.01 20.39 12.4H20.41Z" fill="black"/>
</svg>
