<svg width="24" height="24" viewBox="0 0 24 24" fill="none" xmlns="http://www.w3.org/2000/svg">
<path d="M2.76 17L7.7 11.35C8.03 10.97 8.5 10.76 9 10.75H9.02C9.51 10.75 9.98 10.96 10.32 11.32L12.89 14.15L15.96 11.85C16.58 11.39 17.44 11.39 18.06 11.85L21.46 14.4L21.76 14.6V7C21.76 4.38 19.63 2.25 17.01 2.25H7C4.38 2.25 2.25 4.38 2.25 7V17C2.25 17.15 2.28 17.29 2.29 17.43L2.76 17ZM14.5 5.25C15.74 5.25 16.75 6.26 16.75 7.5C16.75 8.74 15.74 9.75 14.5 9.75C13.26 9.75 12.25 8.74 12.25 7.5C12.25 6.26 13.26 5.25 14.5 5.25Z" fill="black"/>
<path d="M14.5 8.25C14.9142 8.25 15.25 7.91421 15.25 7.5C15.25 7.08579 14.9142 6.75 14.5 6.75C14.0858 6.75 13.75 7.08579 13.75 7.5C13.75 7.91421 14.0858 8.25 14.5 8.25Z" fill="black"/>
<path d="M17.15 13.05C17.06 12.98 16.94 12.98 16.85 13.05L13.89 15.27L18.39 20.22C18.39 20.22 18.39 20.23 18.4 20.24L19.25 21.16C20.73 20.35 21.75 18.8 21.75 17V16.42L20.58 15.62L17.15 13.05Z" fill="black"/>
<path d="M17 20.93C17 20.93 17 20.91 16.98 20.9L9.19 12.33C9.12 12.26 9.03 12.23 9 12.25C8.96 12.25 8.88 12.26 8.81 12.33L3.82 18.04L2.72 19.05C3.49 20.64 5.1 21.74 6.98 21.74H16.98C17.22 21.74 17.45 21.7 17.67 21.67L16.98 20.92L17 20.93Z" fill="black"/>
</svg>
