<svg width="24" height="24" viewBox="0 0 24 24" fill="none" xmlns="http://www.w3.org/2000/svg">
<path d="M16 2.25H9.83C9.1 2.25 8.4 2.54 7.89 3.06L5.06 5.89C4.54 6.41 4.25 7.1 4.25 7.83V18C4.25 20.07 5.93 21.75 8 21.75H16C18.07 21.75 19.75 20.07 19.75 18V6C19.75 3.93 18.07 2.25 16 2.25ZM18.25 18C18.25 19.24 17.24 20.25 16 20.25H8C6.76 20.25 5.75 19.24 5.75 18V7.83C5.75 7.5 5.88 7.18 6.12 6.95L8.95 4.12C9.19 3.88 9.5 3.75 9.83 3.75H16C17.24 3.75 18.25 4.76 18.25 6V18Z" fill="black"/>
<path d="M16 5.25C15.59 5.25 15.25 5.59 15.25 6V9C15.25 9.41 15.59 9.75 16 9.75C16.41 9.75 16.75 9.41 16.75 9V6C16.75 5.59 16.41 5.25 16 5.25Z" fill="black"/>
<path d="M13 5.25C12.59 5.25 12.25 5.59 12.25 6V9C12.25 9.41 12.59 9.75 13 9.75C13.41 9.75 13.75 9.41 13.75 9V6C13.75 5.59 13.41 5.25 13 5.25Z" fill="black"/>
<path d="M10 6.25C9.59 6.25 9.25 6.59 9.25 7V9C9.25 9.41 9.59 9.75 10 9.75C10.41 9.75 10.75 9.41 10.75 9V7C10.75 6.59 10.41 6.25 10 6.25Z" fill="black"/>
</svg>
