<svg width="24" height="24" viewBox="0 0 24 24" fill="none" xmlns="http://www.w3.org/2000/svg">
<path d="M21.09 2.90995C20.75 2.56995 20.26 2.45995 19.81 2.60995L3.45999 8.05995C2.90999 8.23995 2.56999 8.74995 2.60999 9.31995C2.64999 9.88995 3.04999 10.36 3.60999 10.47L11.72 12.09C11.82 12.11 11.9 12.19 11.92 12.29L13.54 20.4C13.65 20.96 14.11 21.37 14.69 21.4C14.72 21.4 14.74 21.4 14.77 21.4C15.31 21.4 15.78 21.07 15.95 20.55L21.4 4.18995C21.55 3.73995 21.44 3.24995 21.1 2.90995H21.09ZM14.81 19.18L13.37 12C13.23 11.31 12.69 10.77 12 10.63L4.81999 9.18995L19.81 4.18995L14.81 19.18Z" fill="black"/>
</svg>
