<svg width="24" height="24" viewBox="0 0 24 24" fill="none" xmlns="http://www.w3.org/2000/svg">
<path d="M21.63 16.5099L14.31 5.18993C13.8 4.39993 12.94 3.92993 12 3.92993C11.06 3.92993 10.2 4.39993 9.68998 5.18993L2.36998 16.5099C1.80998 17.3699 1.76998 18.4199 2.25998 19.3199C2.74998 20.2199 3.64998 20.7599 4.67998 20.7599H19.33C20.35 20.7599 21.26 20.2199 21.75 19.3199C22.24 18.4199 22.2 17.3699 21.64 16.5099H21.63ZM11.25 8.99993C11.25 8.58993 11.59 8.24993 12 8.24993C12.41 8.24993 12.75 8.58993 12.75 8.99993V13.9999C12.75 14.4099 12.41 14.7499 12 14.7499C11.59 14.7499 11.25 14.4099 11.25 13.9999V8.99993ZM12.02 17.7499C11.61 17.7499 11.27 17.4099 11.27 16.9999C11.27 16.5899 11.6 16.2499 12.02 16.2499C12.44 16.2499 12.77 16.5899 12.77 16.9999C12.77 17.4099 12.44 17.7499 12.02 17.7499Z" fill="black"/>
</svg>
