<svg width="24" height="24" viewBox="0 0 24 24" fill="none" xmlns="http://www.w3.org/2000/svg">
<path d="M6 11.75C7.81 11.75 9.33 10.46 9.67 8.75H21C21.41 8.75 21.75 8.41 21.75 8C21.75 7.59 21.41 7.25 21 7.25H9.67C9.32 5.54 7.81 4.25 6 4.25C3.93 4.25 2.25 5.93 2.25 8C2.25 10.07 3.93 11.75 6 11.75Z" fill="black"/>
<path d="M21 15.25H18.67C18.32 13.54 16.81 12.25 15 12.25C13.19 12.25 11.67 13.54 11.33 15.25H3C2.59 15.25 2.25 15.59 2.25 16C2.25 16.41 2.59 16.75 3 16.75H11.33C11.68 18.46 13.19 19.75 15 19.75C16.81 19.75 18.33 18.46 18.67 16.75H21C21.41 16.75 21.75 16.41 21.75 16C21.75 15.59 21.41 15.25 21 15.25Z" fill="black"/>
</svg>
