<svg width="24" height="24" viewBox="0 0 24 24" fill="none" xmlns="http://www.w3.org/2000/svg">
<path d="M15.45 13.32C15.12 13.07 14.65 13.14 14.4 13.47C14.15 13.8 14.22 14.27 14.55 14.52C16.1 15.68 16.94 16.81 17.27 18.18C17.41 18.76 17.45 19.38 17.39 20.02C17.38 20.15 17.27 20.25 17.13 20.25H6.86C6.73 20.25 6.62 20.15 6.6 20.02C6.54 19.38 6.58 18.76 6.73 18.18C7.36 15.61 9.8 14.17 12.38 12.65C15.12 11.03 17.95 9.36001 18.73 6.18001C18.91 5.44001 18.97 4.65001 18.89 3.85001C18.81 2.96001 18.04 2.26001 17.14 2.26001H6.86C5.95 2.26001 5.2 2.94001 5.11 3.85001C5.04 4.65001 5.09 5.44001 5.27 6.18001C5.69 7.89001 6.73 9.32001 8.55 10.68C8.88 10.93 9.35 10.86 9.6 10.53C9.85 10.2 9.78 9.73001 9.45 9.48001C7.9 8.32001 7.06 7.19001 6.73 5.82001C6.59 5.24001 6.55 4.62001 6.6 3.98001C6.61 3.85001 6.73 3.75001 6.86 3.75001H17.14C17.27 3.75001 17.38 3.85001 17.4 3.98001C17.46 4.62001 17.42 5.24001 17.28 5.82001C16.65 8.39001 14.21 9.83001 11.63 11.35C8.89 12.96 6.06 14.63 5.28 17.82C5.1 18.57 5.04 19.35 5.12 20.16C5.21 21.07 5.96 21.75 6.87 21.75H17.15C18.05 21.75 18.82 21.05 18.9 20.16C18.97 19.35 18.92 18.57 18.74 17.82C18.32 16.11 17.28 14.68 15.46 13.32H15.45Z" fill="black"/>
<path d="M11.24 9.84001C13.48 8.51001 15.37 7.32001 15.82 5.47001C15.84 5.40001 15.85 5.33001 15.87 5.25001H8.15C8.16 5.32001 8.18 5.39001 8.2 5.47001C8.45 6.49001 9.1 7.33001 10.37 8.29001C10.85 8.65001 11.16 9.18001 11.25 9.77001C11.25 9.79001 11.25 9.82001 11.25 9.84001H11.24Z" fill="black"/>
<path d="M12.76 14.16C10.52 15.49 8.63 16.68 8.18 18.53C8.16 18.6 8.15 18.67 8.13 18.75H15.85C15.84 18.68 15.82 18.6 15.8 18.53C15.55 17.51 14.9 16.67 13.63 15.71C13.15 15.35 12.84 14.82 12.75 14.23V14.16H12.76Z" fill="black"/>
</svg>
