<svg width="24" height="24" viewBox="0 0 24 24" fill="none" xmlns="http://www.w3.org/2000/svg">
<path d="M14.83 13.19C14.83 13.19 14.75 13.11 14.75 13.08V5C14.75 3.48 13.51 2.25 12 2.25C10.49 2.25 9.24998 3.48 9.24998 5V13.05C9.24998 13.1 9.19998 13.16 9.14998 13.2C7.59998 14.37 6.92998 16.28 7.39998 18.2C7.81998 19.88 9.17998 21.22 10.87 21.62C11.25 21.71 11.62 21.75 12 21.75C13.07 21.75 14.11 21.4 14.96 20.72C16.1 19.81 16.76 18.46 16.76 17C16.76 15.54 16.04 14.08 14.84 13.19H14.83ZM14.02 19.55C13.24 20.17 12.21 20.39 11.21 20.16C10.08 19.9 9.12998 18.97 8.85998 17.84C8.52998 16.52 8.98998 15.2 10.05 14.4C10.49 14.06 10.75 13.57 10.75 13.05V5C10.75 4.31 11.31 3.75 12 3.75C12.69 3.75 13.25 4.31 13.25 5V13.08C13.25 13.59 13.5 14.07 13.94 14.39C14.77 15.01 15.25 15.96 15.25 17C15.25 18.04 14.8 18.93 14.02 19.55Z" fill="black"/>
<path d="M12.02 16.25H12.01C11.6 16.25 11.27 16.59 11.27 17C11.27 17.41 11.61 17.75 12.02 17.75C12.43 17.75 12.77 17.41 12.77 17C12.77 16.59 12.43 16.25 12.02 16.25Z" fill="black"/>
</svg>
