<svg width="24" height="24" viewBox="0 0 24 24" fill="none" xmlns="http://www.w3.org/2000/svg">
<path d="M7.25 9.25H5C3.48 9.25 2.25 10.48 2.25 12V17C2.25 18.52 3.48 19.75 5 19.75H7.25V9.25Z" fill="black"/>
<path d="M21.46 10.39C20.94 9.66 20.12 9.25 19.23 9.25H17.32C17.22 9.25 17.15 9.19 17.12 9.16C17.09 9.12 17.05 9.06 17.07 8.98C17.26 7.84 17.13 6.71 16.69 5.7C15.99 4.08 14.7 3.22 13.75 2.78C13.2 2.53 12.57 2.57 12.06 2.89C11.56 3.21 11.25 3.76 11.25 4.36V7C11.25 8.24 10.24 9.25 9 9.25H8.75V19.75H17.56C18.75 19.75 19.79 18.99 20.17 17.87L21.84 12.87C22.12 12.02 21.99 11.12 21.46 10.39Z" fill="black"/>
</svg>
