<svg width="24" height="24" viewBox="0 0 24 24" fill="none" xmlns="http://www.w3.org/2000/svg">
<path d="M12.25 18.97C12.25 18.17 12.4 17.41 12.65 16.7C12.34 16.74 12.11 16.75 12 16.75C9.26 16.75 7.69 14.83 7.4 14.45C7.15 14.12 7.22 13.65 7.55 13.4C7.88 13.15 8.35 13.22 8.6 13.55C8.73 13.72 9.93 15.25 12 15.25C12.13 15.25 12.83 15.23 13.64 14.9C14.87 13.29 16.8 12.25 18.97 12.25H21.75V8C21.75 4.83 19.17 2.25 16 2.25H8C4.83 2.25 2.25 4.83 2.25 8V16C2.25 19.17 4.83 21.75 8 21.75H12.25V18.97ZM13.25 9C13.25 8.59 13.59 8.25 14 8.25C14.41 8.25 14.75 8.59 14.75 9V10C14.75 10.41 14.41 10.75 14 10.75C13.59 10.75 13.25 10.41 13.25 10V9ZM9.25 9C9.25 8.59 9.59 8.25 10 8.25C10.41 8.25 10.75 8.59 10.75 9V10C10.75 10.41 10.41 10.75 10 10.75C9.59 10.75 9.25 10.41 9.25 10V9Z" fill="black"/>
<path d="M18.97 13.75C16.09 13.75 13.75 16.09 13.75 18.97V21.75H16C19.17 21.75 21.75 19.17 21.75 16V13.75H18.97Z" fill="black"/>
</svg>
