<svg width="24" height="24" viewBox="0 0 24 24" fill="none" xmlns="http://www.w3.org/2000/svg">
<path d="M20.87 11.06L14.75 7.56V5C14.75 3.48 13.52 2.25 12 2.25C10.48 2.25 9.25 3.48 9.25 5V7.56L3.13 11.06C2.59 11.37 2.25 11.95 2.25 12.58V13.67C2.25 14.22 2.5 14.73 2.95 15.07C3.39 15.4 3.95 15.51 4.48 15.36L9.25 14V16.6L6.81 18.23C6.46 18.46 6.25 18.85 6.25 19.27V20.39C6.25 20.77 6.42 21.12 6.71 21.36C6.94 21.55 7.21 21.64 7.5 21.64C7.58 21.64 7.67 21.64 7.75 21.62L12 20.77L16.25 21.62C16.62 21.69 17 21.6 17.29 21.36C17.58 21.12 17.75 20.77 17.75 20.39V19.27C17.75 18.85 17.54 18.46 17.19 18.23L14.75 16.6V14L19.52 15.36C20.06 15.51 20.61 15.41 21.05 15.07C21.49 14.74 21.75 14.23 21.75 13.67V12.58C21.75 11.95 21.41 11.37 20.87 11.06ZM20.25 13.67C20.25 13.78 20.19 13.84 20.15 13.87C20.11 13.9 20.04 13.94 19.93 13.91L14.2 12.27C13.98 12.2 13.73 12.25 13.54 12.39C13.35 12.53 13.24 12.75 13.24 12.99V16.99C13.24 17.24 13.37 17.47 13.57 17.61L16.24 19.39V20.07L12.14 19.25C12.04 19.23 11.94 19.23 11.85 19.25L7.75 20.07V19.39L10.42 17.61C10.63 17.47 10.75 17.24 10.75 16.99V12.99C10.75 12.75 10.64 12.53 10.45 12.39C10.26 12.25 10.02 12.2 9.79 12.27L4.06 13.91C3.95 13.94 3.88 13.9 3.84 13.87C3.8 13.84 3.74 13.78 3.74 13.67V12.58C3.74 12.49 3.79 12.41 3.87 12.36L10.37 8.65C10.6 8.52 10.75 8.27 10.75 8V5C10.75 4.31 11.31 3.75 12 3.75C12.69 3.75 13.25 4.31 13.25 5V8C13.25 8.27 13.39 8.52 13.63 8.65L20.13 12.36C20.21 12.4 20.26 12.49 20.26 12.58V13.67H20.25Z" fill="black"/>
</svg>
