<svg width="24" height="24" viewBox="0 0 24 24" fill="none" xmlns="http://www.w3.org/2000/svg">
<path d="M20.96 8.69997L15.3 3.03997C14.62 2.35997 13.51 2.35997 12.83 3.03997L11 4.86997C10.93 4.93997 10.88 5.01997 10.82 5.08997C10.78 5.11997 10.74 5.12997 10.71 5.16997C10.63 5.24997 10.58 5.33997 10.54 5.43997C10.05 6.13997 9.77997 6.95997 9.77997 7.81997C9.77997 8.52997 9.49997 9.19997 8.99997 9.69997L3.62997 15.07C2.91997 15.78 2.52997 16.72 2.52997 17.72C2.52997 18.72 2.91997 19.66 3.62997 20.37C4.33997 21.08 5.27997 21.47 6.27997 21.47C7.27997 21.47 8.21997 21.08 8.92997 20.37L14.29 15.01C14.79 14.51 15.46 14.23 16.17 14.23C17.04 14.23 17.86 13.96 18.55 13.47C18.65 13.43 18.74 13.38 18.82 13.3C18.85 13.27 18.87 13.22 18.9 13.19C18.97 13.13 19.05 13.08 19.12 13.01L20.95 11.18C21.63 10.5 21.63 9.38997 20.95 8.70997L20.96 8.69997ZM13.24 13.94L7.87997 19.3C7.02997 20.15 5.54997 20.15 4.69997 19.3C4.27997 18.88 4.03997 18.31 4.03997 17.71C4.03997 17.11 4.26997 16.54 4.69997 16.12L10.06 10.76C10.85 9.96997 11.28 8.92997 11.28 7.81997C11.28 7.51997 11.34 7.22997 11.43 6.95997L17.05 12.58C16.77 12.67 16.49 12.73 16.19 12.73C15.08 12.73 14.03 13.16 13.25 13.95L13.24 13.94ZM19.9 10.11L18.31 11.7L12.3 5.68997L13.89 4.09997C13.89 4.09997 14 4.02997 14.07 4.02997C14.14 4.02997 14.2 4.04997 14.25 4.09997L19.91 9.75997C20.01 9.85997 20.01 10.02 19.91 10.11H19.9Z" fill="black"/>
<path d="M10.7 12.24L7.86997 15.07C7.57997 15.36 7.57997 15.84 7.86997 16.13C8.01997 16.28 8.20997 16.35 8.39997 16.35C8.58997 16.35 8.77997 16.28 8.92997 16.13L11.76 13.3C12.05 13.01 12.05 12.53 11.76 12.24C11.47 11.95 10.99 11.95 10.7 12.24Z" fill="black"/>
</svg>
