<svg width="24" height="24" viewBox="0 0 24 24" fill="none" xmlns="http://www.w3.org/2000/svg">
<path d="M8.25 16.13V17C8.25 17.96 9.04 18.75 10 18.75H14C14.96 18.75 15.75 17.97 15.75 17V16.13C15.75 16 15.78 15.88 15.79 15.75H8.21C8.23 15.88 8.25 16 8.25 16.13Z" fill="black"/>
<path d="M18.67 7.92C18.21 5.01 15.75 2.65 12.82 2.3C10.89 2.07 8.96 2.68 7.52 3.96C6.08 5.24 5.25 7.08 5.25 9.01C5.25 10.94 5.97 12.56 7.29 13.84C7.42 13.97 7.53 14.11 7.64 14.26H16.38C16.5 14.09 16.63 13.92 16.79 13.77C18.32 12.23 19.01 10.1 18.67 7.93V7.92Z" fill="black"/>
<path d="M15 20.25H9C8.59 20.25 8.25 20.59 8.25 21C8.25 21.41 8.59 21.75 9 21.75H15C15.41 21.75 15.75 21.41 15.75 21C15.75 20.59 15.41 20.25 15 20.25Z" fill="black"/>
</svg>
