<svg width="24" height="24" viewBox="0 0 24 24" fill="none" xmlns="http://www.w3.org/2000/svg">
<path d="M19.16 8.04001L15.16 4.47001C13.36 2.86001 10.64 2.86001 8.84 4.47001L4.84 8.04001C3.83 8.94001 3.25 10.23 3.25 11.59V17.95C3.25 20.05 4.93 21.76 7 21.76H17C19.07 21.76 20.75 20.05 20.75 17.95V11.59C20.75 10.24 20.17 8.94001 19.16 8.04001ZM15.75 18.75C15.75 19.16 15.41 19.5 15 19.5C14.59 19.5 14.25 19.16 14.25 18.75V15.75C14.25 14.51 13.24 13.5 12 13.5C10.76 13.5 9.75 14.51 9.75 15.75V18.75C9.75 19.16 9.41 19.5 9 19.5C8.59 19.5 8.25 19.16 8.25 18.75V15.75C8.25 13.68 9.93 12 12 12C14.07 12 15.75 13.68 15.75 15.75V18.75Z" fill="black"/>
</svg>
