<svg width="24" height="24" viewBox="0 0 24 24" fill="none" xmlns="http://www.w3.org/2000/svg">
<path d="M17 5.25H8.87002C7.46002 5.25 6.13002 5.87 5.22002 6.96L3.02002 9.6C1.86002 10.99 1.86002 13.01 3.02002 14.4L5.22002 17.04C6.13002 18.13 7.45002 18.75 8.87002 18.75H17C19.62 18.75 21.75 16.62 21.75 14V10C21.75 7.38 19.62 5.25 17 5.25ZM20.25 14C20.25 15.79 18.79 17.25 17 17.25H8.87002C7.90002 17.25 6.99002 16.82 6.37002 16.08L4.17002 13.44C3.47002 12.61 3.47002 11.39 4.17002 10.56L6.37002 7.92C6.99002 7.18 7.90002 6.75 8.87002 6.75H17C18.79 6.75 20.25 8.21 20.25 10V14Z" fill="black"/>
<path d="M15.47 9.47L12 12.94L10.53 11.47C10.24 11.18 9.76003 11.18 9.47003 11.47C9.18003 11.76 9.18003 12.24 9.47003 12.53L11.47 14.53C11.62 14.68 11.81 14.75 12 14.75C12.19 14.75 12.38 14.68 12.53 14.53L16.53 10.53C16.82 10.24 16.82 9.76 16.53 9.47C16.24 9.18 15.76 9.18 15.47 9.47Z" fill="black"/>
</svg>
