<svg width="24" height="24" viewBox="0 0 24 24" fill="none" xmlns="http://www.w3.org/2000/svg">
<path d="M22.43 11.3899L14 5.48992C13.46 5.10992 12.77 5.06992 12.19 5.36992C11.61 5.66992 11.25 6.26992 11.25 6.91992V8.24992C9.85996 8.30992 7.54996 8.70992 5.51996 10.4199C3.01996 12.5199 2.34996 15.3499 2.22996 17.3499C2.19996 17.8899 2.50996 18.3899 3.01996 18.5899C3.52996 18.7899 4.09996 18.6399 4.43996 18.2199C5.14996 17.3499 6.37996 16.2099 8.19996 15.7199C9.36996 15.4099 10.44 15.4599 11.26 15.5999V17.0699C11.26 17.7299 11.62 18.3199 12.2 18.6199C12.46 18.7499 12.73 18.8199 13.01 18.8199C13.36 18.8199 13.71 18.7099 14.01 18.4999L22.44 12.5999C22.64 12.4599 22.76 12.2299 22.76 11.9899C22.76 11.7499 22.64 11.5199 22.44 11.3799L22.43 11.3899Z" fill="black"/>
</svg>
