<svg width="24" height="24" viewBox="0 0 24 24" fill="none" xmlns="http://www.w3.org/2000/svg">
<path d="M18.74 11.27C18.74 11.18 18.75 11.09 18.75 11C18.75 7.83 16.17 5.25 13 5.25C10.42 5.25 8.21 6.97 7.5 9.37C7.18 9.29 6.84 9.25 6.5 9.25C4.16 9.25 2.25 11.16 2.25 13.5C2.25 15.84 4.16 17.75 6.5 17.75H18.5C20.29 17.75 21.75 16.29 21.75 14.5C21.75 12.71 20.42 11.4 18.74 11.27ZM18.5 16.25H6.5C4.98 16.25 3.75 15.02 3.75 13.5C3.75 11.98 4.98 10.75 6.5 10.75C6.93 10.75 7.33 10.84 7.71 11.03C7.75 11.05 7.79 11.05 7.83 11.06C7.87 11.07 7.9 11.09 7.94 11.1H7.96C8.03 11.1 8.09 11.1 8.16 11.09C8.19 11.09 8.22 11.09 8.24 11.08C8.31 11.06 8.37 11.02 8.43 10.98C8.45 10.97 8.47 10.96 8.49 10.95C8.54 10.91 8.58 10.86 8.62 10.8C8.64 10.77 8.66 10.75 8.68 10.72C8.68 10.71 8.7 10.7 8.7 10.69C8.73 10.64 8.73 10.58 8.74 10.52C8.74 10.5 8.76 10.48 8.76 10.45C9.03 8.34 10.84 6.75 12.97 6.75C15.31 6.75 17.22 8.66 17.22 11C17.22 11.29 17.19 11.58 17.13 11.86C17.13 11.87 17.13 11.88 17.13 11.89C17.1 12.01 17.09 12.14 17.12 12.26C17.22 12.66 17.63 12.9 18.03 12.8C18.17 12.76 18.32 12.75 18.47 12.75C19.43 12.75 20.22 13.54 20.22 14.5C20.22 15.46 19.43 16.25 18.47 16.25H18.5Z" fill="black"/>
</svg>
