<svg width="24" height="24" viewBox="0 0 24 24" fill="none" xmlns="http://www.w3.org/2000/svg">
<path d="M20.6801 7.56997C20.4901 7.19997 20.0401 7.04997 19.6701 7.23997L16.6901 8.75997C16.3201 8.94997 16.1701 9.39997 16.3601 9.76997C16.4901 10.03 16.7601 10.18 17.0301 10.18C17.1401 10.18 17.2601 10.15 17.3701 10.1L19.6501 8.93997C20.3701 10.73 20.4401 12.69 19.8401 14.55C18.4401 18.88 13.7701 21.25 9.45007 19.85C7.35007 19.17 5.65007 17.72 4.65007 15.75C3.65007 13.78 3.47007 11.55 4.15007 9.45997C4.83007 7.35997 6.28007 5.65997 8.25007 4.65997C10.2201 3.65997 12.4501 3.47997 14.5401 4.15997C15.4401 4.44997 16.2701 4.88997 17.0101 5.45997C17.3401 5.70997 17.8101 5.64997 18.0601 5.31997C18.3101 4.98997 18.2501 4.51997 17.9201 4.26997C17.0401 3.59997 16.0601 3.07997 15.0001 2.73997C12.5201 1.93997 9.88007 2.14997 7.56007 3.32997C5.24007 4.50997 3.52007 6.52997 2.72007 9.00997C1.92007 11.49 2.13007 14.13 3.31007 16.45C4.49007 18.77 6.51007 20.49 8.99007 21.29C9.99007 21.61 11.0001 21.77 11.9901 21.77C16.1001 21.77 19.9401 19.14 21.2701 15.03C22.0701 12.55 21.8601 9.90997 20.6801 7.58997V7.56997Z" fill="black"/>
<path d="M8.25007 12C8.25007 14.07 9.93007 15.75 12.0001 15.75C14.0701 15.75 15.7501 14.07 15.7501 12C15.7501 9.92997 14.0701 8.24997 12.0001 8.24997C9.93007 8.24997 8.25007 9.92997 8.25007 12ZM14.2501 12C14.2501 13.24 13.2401 14.25 12.0001 14.25C10.7601 14.25 9.75007 13.24 9.75007 12C9.75007 10.76 10.7601 9.74997 12.0001 9.74997C13.2401 9.74997 14.2501 10.76 14.2501 12Z" fill="black"/>
</svg>
