<svg width="24" height="24" viewBox="0 0 24 24" fill="none" xmlns="http://www.w3.org/2000/svg">
<path d="M21.0699 10.29C19.6499 8.78 16.5899 6.25 11.9899 6.25C7.38994 6.25 4.36994 8.75 2.95994 10.24C2.00994 11.24 2.00994 12.76 2.95994 13.77C4.36994 15.26 7.42994 17.76 11.9899 17.76C16.5499 17.76 19.6499 15.23 21.0699 13.72C21.9899 12.74 21.9899 11.27 21.0699 10.29ZM19.9799 12.69C18.7299 14.02 16.0299 16.25 11.9999 16.25C7.96994 16.25 5.30994 14.04 4.05994 12.73C3.65994 12.31 3.65994 11.69 4.05994 11.27C5.30994 9.96 7.99994 7.75 11.9999 7.75C15.9999 7.75 18.7299 9.98 19.9799 11.31C20.3499 11.7 20.3499 12.29 19.9799 12.68V12.69Z" fill="black"/>
<path d="M11.9999 9.25C10.4799 9.25 9.24994 10.48 9.24994 12C9.24994 13.52 10.4799 14.75 11.9999 14.75C13.5199 14.75 14.7499 13.52 14.7499 12C14.7499 10.48 13.5199 9.25 11.9999 9.25ZM11.9999 13.25C11.3099 13.25 10.7499 12.69 10.7499 12C10.7499 11.31 11.3099 10.75 11.9999 10.75C12.6899 10.75 13.2499 11.31 13.2499 12C13.2499 12.69 12.6899 13.25 11.9999 13.25Z" fill="black"/>
</svg>
