<svg width="24" height="24" viewBox="0 0 24 24" fill="none" xmlns="http://www.w3.org/2000/svg">
<path d="M20.12 2.85008C19.72 2.52008 19.2 2.38008 18.69 2.47008L9.69 4.11008C8.86 4.26008 8.25 4.99008 8.25 5.83008V15.7701C7.74 15.4401 7.15 15.2501 6.5 15.2501C4.71 15.2501 3.25 16.7101 3.25 18.5001C3.25 20.2901 4.71 21.7501 6.5 21.7501C8.29 21.7501 9.75 20.2901 9.75 18.5001V9.63008L19.25 7.90008V13.2701C18.74 12.9401 18.15 12.7501 17.5 12.7501C15.71 12.7501 14.25 14.2101 14.25 16.0001C14.25 17.7901 15.71 19.2501 17.5 19.2501C19.29 19.2501 20.75 17.7901 20.75 16.0001V4.20008C20.75 3.68008 20.52 3.19008 20.12 2.86008V2.85008Z" fill="black"/>
</svg>
