<svg width="24" height="24" viewBox="0 0 24 24" fill="none" xmlns="http://www.w3.org/2000/svg">
<path d="M21.96 9.59998C21.74 8.90998 21.16 8.41998 20.44 8.31998L15.78 7.62998L13.7 3.39998C13.38 2.74998 12.74 2.34998 12.01 2.34998C11.29 2.34998 10.64 2.74998 10.32 3.39998L8.22001 7.61998L3.55001 8.28998C2.84001 8.38998 2.25001 8.87998 2.03001 9.56998C1.81001 10.26 1.99001 10.99 2.50001 11.5L5.87001 14.8L5.06001 19.44C4.94001 20.15 5.22001 20.86 5.80001 21.28C6.38001 21.71 7.14001 21.76 7.78001 21.43L11.96 19.25L16.13 21.45C16.41 21.6 16.71 21.67 17.01 21.67C17.4 21.67 17.78 21.55 18.11 21.31C18.69 20.89 18.98 20.18 18.86 19.47L18.07 14.82L21.45 11.54C21.97 11.04 22.15 10.3 21.93 9.60998L21.96 9.59998Z" fill="black"/>
</svg>
