<svg width="24" height="24" viewBox="0 0 24 24" fill="none" xmlns="http://www.w3.org/2000/svg">
<path fill-rule="evenodd" clip-rule="evenodd" d="M11.7499 2C12.8488 2 13.7397 2.89086 13.7397 3.9898V9.7602H19.5101C20.609 9.7602 21.4999 10.6511 21.4999 11.75C21.4999 12.8489 20.609 13.7398 19.5101 13.7398H13.7397V19.5102C13.7397 20.6091 12.8488 21.5 11.7499 21.5C10.6509 21.5 9.76008 20.6091 9.76008 19.5102L9.76008 13.7398H3.98967C2.89074 13.7398 1.99988 12.8489 1.99988 11.75C1.99988 10.6511 2.89074 9.7602 3.98967 9.7602H9.76008V3.9898C9.76008 2.89086 10.6509 2 11.7499 2Z" fill="black"/>
</svg>
