<svg width="24" height="24" viewBox="0 0 24 24" fill="none" xmlns="http://www.w3.org/2000/svg">
<path fill-rule="evenodd" clip-rule="evenodd" d="M4.85561 4.85635C5.3633 4.34867 6.18641 4.34867 6.69409 4.85635L11.7499 9.91216L16.8057 4.85635C17.3134 4.34867 18.1365 4.34867 18.6442 4.85635C19.1519 5.36403 19.1519 6.18714 18.6442 6.69482L13.5884 11.7506L18.6442 16.8065C19.1519 17.3141 19.1519 18.1372 18.6442 18.6449C18.1365 19.1526 17.3134 19.1526 16.8057 18.6449L11.7499 13.5891L6.69409 18.6449C6.18641 19.1526 5.3633 19.1526 4.85561 18.6449C4.34793 18.1372 4.34793 17.3141 4.85561 16.8065L9.91143 11.7506L4.85561 6.69482C4.34793 6.18714 4.34793 5.36403 4.85561 4.85635Z" fill="black"/>
</svg>
