<svg width="24" height="24" viewBox="0 0 24 24" fill="none" xmlns="http://www.w3.org/2000/svg">
<path fill-rule="evenodd" clip-rule="evenodd" d="M5.58292 5.58377C6.35998 4.80671 7.61985 4.80671 8.39692 5.58377L12.4772 9.66407L16.5575 5.58377C17.3346 4.80671 18.5944 4.80671 19.3715 5.58377C20.1486 6.36084 20.1486 7.62071 19.3715 8.39777L15.2912 12.4781L19.3715 16.5584C20.1486 17.3354 20.1486 18.5953 19.3715 19.3724C18.5944 20.1494 17.3346 20.1494 16.5575 19.3724L12.4772 15.2921L8.39692 19.3724C7.61985 20.1494 6.35998 20.1494 5.58292 19.3724C4.80586 18.5953 4.80586 17.3354 5.58292 16.5584L9.66321 12.4781L5.58292 8.39777C4.80586 7.62071 4.80586 6.36084 5.58292 5.58377Z" fill="black"/>
</svg>
