<svg width="24" height="24" viewBox="0 0 24 24" fill="none" xmlns="http://www.w3.org/2000/svg">
<path d="M18 5.25H6C3.93 5.25 2.25 6.93 2.25 9V15C2.25 17.07 3.93 18.75 6 18.75H18C20.07 18.75 21.75 17.07 21.75 15V9C21.75 6.93 20.07 5.25 18 5.25ZM18 6.75C18.33 6.75 18.64 6.82 18.92 6.95L12.83 12.28C12.36 12.69 11.65 12.69 11.18 12.28L5.08 6.95C5.36 6.82 5.67 6.75 6 6.75H18ZM20.25 15C20.25 16.24 19.24 17.25 18 17.25H6C4.76 17.25 3.75 16.24 3.75 15V9C3.75 8.64 3.84 8.3 4 7.99L10.19 13.41C10.71 13.86 11.35 14.09 12 14.09C12.65 14.09 13.29 13.86 13.81 13.41L20 7.99C20.15 8.29 20.25 8.63 20.25 9V15Z" fill="black"/>
</svg>
