<svg width="24" height="24" viewBox="0 0 24 24" fill="none" xmlns="http://www.w3.org/2000/svg">
<path d="M18.8001 5.01059C16.9001 3.16059 14.3901 2.17059 11.7301 2.25059C6.64009 2.39059 2.39009 6.64059 2.25009 11.7206C2.18009 14.3806 3.16009 16.8906 5.01009 18.7906C6.86009 20.6906 9.34009 21.7406 12.0001 21.7406H20.0001C20.9601 21.7406 21.7501 20.9506 21.7501 19.9906V12.0006C21.7501 9.34059 20.7001 6.86059 18.8001 5.01059ZM16.0001 14.7506H8.00009C7.59009 14.7506 7.25009 14.4106 7.25009 14.0006C7.25009 13.5906 7.59009 13.2506 8.00009 13.2506H16.0001C16.4101 13.2506 16.7501 13.5906 16.7501 14.0006C16.7501 14.4106 16.4101 14.7506 16.0001 14.7506ZM16.0001 10.7506H8.00009C7.59009 10.7506 7.25009 10.4106 7.25009 10.0006C7.25009 9.59059 7.59009 9.25059 8.00009 9.25059H16.0001C16.4101 9.25059 16.7501 9.59059 16.7501 10.0006C16.7501 10.4106 16.4101 10.7506 16.0001 10.7506Z" fill="black"/>
</svg>
