<svg width="24" height="24" viewBox="0 0 24 24" fill="none" xmlns="http://www.w3.org/2000/svg">
<path d="M6 5.25C5.59 5.25 5.25 5.59 5.25 6V18C5.25 18.41 5.59 18.75 6 18.75H18C18.41 18.75 18.75 18.41 18.75 18V6C18.75 5.59 18.41 5.25 18 5.25H6ZM15 14.75H9C8.59 14.75 8.25 14.41 8.25 14C8.25 13.59 8.59 13.25 9 13.25H15C15.41 13.25 15.75 13.59 15.75 14C15.75 14.41 15.41 14.75 15 14.75ZM15 10.75H9C8.59 10.75 8.25 10.41 8.25 10C8.25 9.59 8.59 9.25 9 9.25H15C15.41 9.25 15.75 9.59 15.75 10C15.75 10.41 15.41 10.75 15 10.75Z" fill="black"/>
<path d="M6 3.75H18C19.21 3.75 20.19 4.71 20.24 5.9C20.55 5.51 20.75 5.03 20.75 4.5C20.75 3.26 19.74 2.25 18.5 2.25H5.5C4.26 2.25 3.25 3.26 3.25 4.5C3.25 5.03 3.45 5.52 3.76 5.9C3.81 4.71 4.79 3.75 6 3.75Z" fill="black"/>
<path d="M18 20.25H6C4.79 20.25 3.81 19.29 3.76 18.1C3.45 18.49 3.25 18.97 3.25 19.5C3.25 20.74 4.26 21.75 5.5 21.75H18.5C19.74 21.75 20.75 20.74 20.75 19.5C20.75 18.97 20.55 18.48 20.24 18.1C20.19 19.3 19.21 20.25 18 20.25Z" fill="black"/>
</svg>
