<svg width="24" height="24" viewBox="0 0 24 24" fill="none" xmlns="http://www.w3.org/2000/svg">
<path d="M19.75 9.75H12.64V14.25H19.75V9.75Z" fill="black"/>
<path d="M16 2.25H12.64V8.25H19.75V6C19.75 3.93 18.07 2.25 16 2.25Z" fill="black"/>
<path d="M6.23 3.5H7C8.24 3.5 9.25 4.51 9.25 5.75C9.25 6.99 8.24 8 7 8H5.25V9.75H7C8.24 9.75 9.25 10.76 9.25 12C9.25 13.24 8.24 14.25 7 14.25H5.25V16H7C8.24 16 9.25 17.01 9.25 18.25C9.25 19.49 8.24 20.5 7 20.5H6.23C6.92 21.26 7.9 21.75 9 21.75H11.14V2.25H9C7.9 2.25 6.91 2.74 6.23 3.5Z" fill="black"/>
<path d="M12.64 21.75H16C18.07 21.75 19.75 20.07 19.75 18V15.75H12.64V21.75Z" fill="black"/>
<path d="M5 12.75H7C7.41 12.75 7.75 12.41 7.75 12C7.75 11.59 7.41 11.25 7 11.25H5C4.59 11.25 4.25 11.59 4.25 12C4.25 12.41 4.59 12.75 5 12.75Z" fill="black"/>
<path d="M5 6.5H7C7.41 6.5 7.75 6.16 7.75 5.75C7.75 5.34 7.41 5 7 5H5C4.59 5 4.25 5.34 4.25 5.75C4.25 6.16 4.59 6.5 5 6.5Z" fill="black"/>
<path d="M7.75 18.25C7.75 17.84 7.41 17.5 7 17.5H5C4.59 17.5 4.25 17.84 4.25 18.25C4.25 18.66 4.59 19 5 19H7C7.41 19 7.75 18.66 7.75 18.25Z" fill="black"/>
</svg>
