<svg width="24" height="24" viewBox="0 0 24 24" fill="none" xmlns="http://www.w3.org/2000/svg">
<path d="M17 17.25C16.59 17.25 16.25 17.59 16.25 18C16.25 18.69 15.69 19.25 15 19.25H10C8.76 19.25 7.75 18.24 7.75 17V14C7.75 13.59 7.41 13.25 7 13.25C6.59 13.25 6.25 13.59 6.25 14V17C6.25 19.07 7.93 20.75 10 20.75H15C16.52 20.75 17.75 19.52 17.75 18C17.75 17.59 17.41 17.25 17 17.25Z" fill="black"/>
<path d="M7 5.75C7.41 5.75 7.75 5.41 7.75 5C7.75 4.86 7.86 4.75 8 4.75H14C15.24 4.75 16.25 5.76 16.25 7V9C16.25 9.41 16.59 9.75 17 9.75C17.41 9.75 17.75 9.41 17.75 9V7C17.75 4.93 16.07 3.25 14 3.25H8C7.04 3.25 6.25 4.04 6.25 5C6.25 5.41 6.59 5.75 7 5.75Z" fill="black"/>
<path d="M6.76 11.82L8.47 13.53C8.61 13.67 8.81 13.75 9 13.75C9.1 13.75 9.19 13.73 9.29 13.69C9.57 13.57 9.75 13.3 9.75 13V12C9.75 11.86 9.86 11.75 10 11.75C10.96 11.75 11.75 10.96 11.75 10V8C11.75 7.04 10.96 6.25 10 6.25H4C3.04 6.25 2.25 7.04 2.25 8V10C2.25 10.96 3.04 11.75 4 11.75H6.59C6.66 11.75 6.72 11.78 6.77 11.82H6.76ZM3.75 8C3.75 7.86 3.86 7.75 4 7.75H10C10.14 7.75 10.25 7.86 10.25 8V10C10.25 10.14 10.14 10.25 10 10.25C9.27 10.25 8.65 10.69 8.39 11.33L7.83 10.77C7.5 10.44 7.06 10.26 6.59 10.26H4C3.86 10.26 3.75 10.15 3.75 10.01V8Z" fill="black"/>
<path d="M14 10.25C13.04 10.25 12.25 11.04 12.25 12V14C12.25 14.96 13.04 15.75 14 15.75C14.14 15.75 14.25 15.86 14.25 16V17C14.25 17.3 14.43 17.58 14.71 17.69C14.8 17.73 14.9 17.75 15 17.75C15.19 17.75 15.39 17.67 15.53 17.53L17.24 15.82C17.24 15.82 17.35 15.75 17.42 15.75H20.01C20.97 15.75 21.76 14.96 21.76 14V12C21.76 11.04 20.97 10.25 20.01 10.25H14ZM20.25 14C20.25 14.14 20.14 14.25 20 14.25H17.41C16.94 14.25 16.5 14.43 16.17 14.76L15.61 15.32C15.34 14.69 14.72 14.24 14 14.24C13.86 14.24 13.75 14.13 13.75 13.99V11.99C13.75 11.85 13.86 11.74 14 11.74H20C20.14 11.74 20.25 11.85 20.25 11.99V14Z" fill="black"/>
</svg>
