<svg width="24" height="24" viewBox="0 0 24 24" fill="none" xmlns="http://www.w3.org/2000/svg">
<path d="M4.54 6.48L11.18 12.29C11.65 12.7 12.36 12.7 12.83 12.29L19.51 6.44L20.09 5.89C19.49 5.49 18.78 5.25 18 5.25H6C5.24 5.25 4.53 5.48 3.94 5.87L4.53 6.48H4.54Z" fill="black"/>
<path d="M20.52 7.54L13.82 13.41C13.3 13.86 12.66 14.09 12.01 14.09C11.36 14.09 10.72 13.86 10.2 13.41L3.51 7.56L2.88 6.92C2.48 7.51 2.25 8.23 2.25 8.99V14.99C2.25 17.06 3.93 18.74 6 18.74H18C20.07 18.74 21.75 17.06 21.75 14.99V8.99C21.75 8.24 21.52 7.54 21.14 6.95L20.52 7.54Z" fill="black"/>
</svg>
