<svg width="24" height="24" viewBox="0 0 24 24" fill="none" xmlns="http://www.w3.org/2000/svg">
<path d="M18 3.25H6C3.93 3.25 2.25 4.93 2.25 7V13C2.25 15.07 3.93 16.75 6 16.75H7.5C8.2 16.75 8.88 17.09 9.3 17.65L10.6 19.38C10.93 19.83 11.44 20.08 12 20.08C12.56 20.08 13.07 19.82 13.4 19.38L14.7 17.65C15.12 17.09 15.8 16.75 16.5 16.75H18C20.07 16.75 21.75 15.07 21.75 13V7C21.75 4.93 20.07 3.25 18 3.25ZM20.25 13C20.25 14.24 19.24 15.25 18 15.25H16.5C15.33 15.25 14.2 15.81 13.5 16.75L12.2 18.48C12.07 18.65 11.93 18.65 11.8 18.48L10.5 16.75C9.8 15.81 8.67 15.25 7.5 15.25H6C4.76 15.25 3.75 14.24 3.75 13V7C3.75 5.76 4.76 4.75 6 4.75H18C19.24 4.75 20.25 5.76 20.25 7V13Z" fill="black"/>
<path d="M17.08 6.92H6.92C6.51 6.92 6.17 7.26 6.17 7.67C6.17 8.08 6.51 8.42 6.92 8.42H17.08C17.49 8.42 17.83 8.08 17.83 7.67C17.83 7.26 17.49 6.92 17.08 6.92Z" fill="black"/>
<path d="M10.92 10.92H6.92C6.51 10.92 6.17 11.26 6.17 11.67C6.17 12.08 6.51 12.42 6.92 12.42H10.92C11.33 12.42 11.67 12.08 11.67 11.67C11.67 11.26 11.33 10.92 10.92 10.92Z" fill="black"/>
</svg>
