<svg width="24" height="24" viewBox="0 0 24 24" fill="none" xmlns="http://www.w3.org/2000/svg">
<path d="M18 9.25H14C11.93 9.25 10.25 10.93 10.25 13V15C10.25 17.07 11.93 18.75 14 18.75H15.39C15.64 18.75 15.88 18.82 16.08 18.96L18.58 20.62C18.71 20.7 18.85 20.75 19 20.75C19.12 20.75 19.24 20.72 19.35 20.66C19.59 20.53 19.75 20.28 19.75 20V19C19.75 18.86 19.86 18.75 20 18.75C20.96 18.75 21.75 17.96 21.75 17V13C21.75 10.93 20.07 9.25 18 9.25Z" fill="black"/>
<path d="M14 7.75H15.75V7C15.75 4.93 14.07 3.25 12 3.25H6C3.93 3.25 2.25 4.93 2.25 7V13C2.25 13.96 3.04 14.75 4 14.75C4.14 14.75 4.25 14.86 4.25 15V17C4.25 17.3 4.43 17.58 4.71 17.69C4.8 17.73 4.9 17.75 5 17.75C5.19 17.75 5.39 17.67 5.53 17.53L7.94 15.12C8.16 14.9 8.44 14.79 8.75 14.77V13C8.75 10.11 11.1 7.75 14 7.75Z" fill="black"/>
</svg>
