<svg width="24" height="24" viewBox="0 0 24 24" fill="none" xmlns="http://www.w3.org/2000/svg">
<path d="M12.28 2.25059C9.64001 2.17059 7.11001 3.16059 5.21001 5.01059C3.31001 6.86059 2.26001 9.34059 2.26001 12.0006V20.0006C2.26001 20.9606 3.05001 21.7506 4.01001 21.7506H12C14.66 21.7506 17.14 20.7006 18.99 18.8006C20.84 16.9006 21.82 14.3806 21.75 11.7306C21.61 6.65059 17.36 2.40059 12.28 2.26059V2.25059ZM8.02001 12.7506C7.61001 12.7506 7.27001 12.4106 7.27001 12.0006C7.27001 11.5906 7.60001 11.2506 8.01001 11.2506H8.02001C8.43001 11.2506 8.77001 11.5906 8.77001 12.0006C8.77001 12.4106 8.43001 12.7506 8.02001 12.7506ZM12.02 12.7506C11.61 12.7506 11.27 12.4106 11.27 12.0006C11.27 11.5906 11.6 11.2506 12.01 11.2506H12.02C12.43 11.2506 12.77 11.5906 12.77 12.0006C12.77 12.4106 12.43 12.7506 12.02 12.7506ZM16.02 12.7506C15.61 12.7506 15.27 12.4106 15.27 12.0006C15.27 11.5906 15.6 11.2506 16.02 11.2506C16.44 11.2506 16.77 11.5906 16.77 12.0006C16.77 12.4106 16.44 12.7506 16.02 12.7506Z" fill="black"/>
</svg>
