<svg width="24" height="24" viewBox="0 0 24 24" fill="none" xmlns="http://www.w3.org/2000/svg">
<path d="M18 2.25H6C3.93 2.25 2.25 3.93 2.25 6V14C2.25 16.07 3.93 17.75 6 17.75H7.5C8.2 17.75 8.88 18.09 9.3 18.65L10.6 20.38C10.93 20.83 11.44 21.08 12 21.08C12.56 21.08 13.07 20.82 13.4 20.38L14.7 18.65C15.12 18.09 15.8 17.75 16.5 17.75H18C20.07 17.75 21.75 16.07 21.75 14V6C21.75 3.93 20.07 2.25 18 2.25ZM20.25 14C20.25 15.24 19.24 16.25 18 16.25H16.5C15.33 16.25 14.21 16.81 13.5 17.75L12.2 19.48C12.07 19.65 11.93 19.65 11.8 19.48L10.5 17.75C9.79 16.81 8.67 16.25 7.5 16.25H6C4.76 16.25 3.75 15.24 3.75 14V6C3.75 4.76 4.76 3.75 6 3.75H18C19.24 3.75 20.25 4.76 20.25 6V14Z" fill="black"/>
<path d="M16.5 9.73C16.23 9.54 15.89 9.46 15.57 9.51L13.97 9.77C13.54 9.84 13.09 9.73 12.73 9.48C12.37 9.22 12.13 8.84 12.06 8.4L11.8 6.8C11.75 6.47 11.56 6.18 11.3 5.99L10.25 5.24C9.69 4.84 8.91 4.97 8.5 5.53L7.86 6.42C6.52 8.28 6.95 10.88 8.81 12.22L11.4 14.09C12.11 14.6 12.95 14.87 13.82 14.87C14.05 14.87 14.27 14.85 14.5 14.81C15.59 14.63 16.55 14.04 17.2 13.14L17.84 12.25C18.24 11.69 18.12 10.91 17.56 10.51L16.51 9.75L16.5 9.73ZM15.98 12.24C15.57 12.82 14.95 13.2 14.25 13.31C13.56 13.42 12.85 13.26 12.27 12.85L9.68 10.99C8.49 10.13 8.22 8.47 9.08 7.28L9.57 6.59L10.33 7.14L10.58 8.64C10.71 9.47 11.17 10.2 11.85 10.7C12.53 11.19 13.38 11.39 14.21 11.25L15.71 11.01L16.47 11.56L15.98 12.25V12.24Z" fill="black"/>
</svg>
