<svg width="24" height="24" viewBox="0 0 24 24" fill="none" xmlns="http://www.w3.org/2000/svg">
<path d="M18.75 17.28V6.72C19.87 6.59 20.75 5.65 20.75 4.5C20.75 3.26 19.74 2.25 18.5 2.25H5.5C4.26 2.25 3.25 3.26 3.25 4.5C3.25 5.65 4.13 6.6 5.25 6.72V17.27C4.13 17.4 3.25 18.34 3.25 19.49C3.25 20.73 4.26 21.74 5.5 21.74H18.5C19.74 21.74 20.75 20.73 20.75 19.49C20.75 18.34 19.87 17.39 18.75 17.27V17.28ZM6.75 17.25V6.75H17.25V17.25H6.75ZM4.75 4.5C4.75 4.09 5.09 3.75 5.5 3.75H18.5C18.91 3.75 19.25 4.09 19.25 4.5C19.25 4.91 18.91 5.25 18.5 5.25H5.5C5.09 5.25 4.75 4.91 4.75 4.5ZM18.5 20.25H5.5C5.09 20.25 4.75 19.91 4.75 19.5C4.75 19.09 5.09 18.75 5.5 18.75H18.5C18.91 18.75 19.25 19.09 19.25 19.5C19.25 19.91 18.91 20.25 18.5 20.25Z" fill="black"/>
<path d="M9 10.75H15C15.41 10.75 15.75 10.41 15.75 10C15.75 9.59 15.41 9.25 15 9.25H9C8.59 9.25 8.25 9.59 8.25 10C8.25 10.41 8.59 10.75 9 10.75Z" fill="black"/>
<path d="M15 13.25H9C8.59 13.25 8.25 13.59 8.25 14C8.25 14.41 8.59 14.75 9 14.75H15C15.41 14.75 15.75 14.41 15.75 14C15.75 13.59 15.41 13.25 15 13.25Z" fill="black"/>
</svg>
