<svg width="24" height="24" viewBox="0 0 24 24" fill="none" xmlns="http://www.w3.org/2000/svg">
<path d="M21.75 7C21.75 5.48 20.52 4.25 19 4.25C18.15 4.25 17.4 4.64 16.9 5.25H6C3.93 5.25 2.25 6.93 2.25 9V13C2.25 15.07 3.93 16.75 6 16.75H9.95C10.46 16.75 10.96 16.92 11.36 17.24L13.91 19.28C14.23 19.53 14.61 19.67 15 19.67C15.26 19.67 15.52 19.61 15.76 19.5C16.37 19.21 16.75 18.6 16.75 17.92V17.5C16.75 17.09 17.09 16.75 17.5 16.75C18.74 16.75 19.75 15.74 19.75 14.5V9.63C20.9 9.3 21.75 8.25 21.75 7ZM17.5 15.25C16.26 15.25 15.25 16.26 15.25 17.5V17.92C15.25 18.06 15.16 18.12 15.11 18.15C15.06 18.17 14.95 18.21 14.85 18.12L12.3 16.08C11.64 15.55 10.81 15.26 9.96 15.26H6.01C4.77 15.26 3.76 14.25 3.76 13.01V9.01C3.76 7.77 4.77 6.76 6.01 6.76H16.29C16.29 6.84 16.26 6.92 16.26 7.01C16.26 8.26 17.11 9.31 18.26 9.64V14.51C18.26 14.92 17.92 15.26 17.51 15.26L17.5 15.25ZM19 8.25C18.31 8.25 17.75 7.69 17.75 7C17.75 6.31 18.31 5.75 19 5.75C19.69 5.75 20.25 6.31 20.25 7C20.25 7.69 19.69 8.25 19 8.25Z" fill="black"/>
</svg>
