<svg width="24" height="24" viewBox="0 0 24 24" fill="none" xmlns="http://www.w3.org/2000/svg">
<path d="M11.48 13.59L12.37 15.66C12.43 15.79 12.53 15.81 12.61 15.81C12.69 15.81 12.79 15.77 12.84 15.64L14.54 10.54L11.49 13.59H11.48Z" fill="black"/>
<path d="M13.47 9.47L8.37 11.17C8.23 11.22 8.2 11.32 8.2 11.4C8.2 11.48 8.22 11.58 8.35 11.64L10.42 12.53L13.47 9.48V9.47Z" fill="black"/>
<path d="M18.89 5.11C17.05 3.27 14.6 2.25 12 2.25C9.4 2.25 6.95 3.26 5.11 5.11C3.27 6.95 2.25 9.4 2.25 12C2.25 14.6 3.26 17.05 5.11 18.89C6.95 20.73 9.4 21.75 12 21.75C14.6 21.75 17.05 20.74 18.89 18.89C20.73 17.05 21.75 14.6 21.75 12C21.75 9.4 20.74 6.95 18.89 5.11ZM16.32 9.9L14.25 16.11C14.02 16.81 13.4 17.27 12.66 17.3C12.63 17.3 12.61 17.3 12.58 17.3C11.88 17.3 11.25 16.89 10.97 16.24L10.04 14.08C10.01 14.02 9.97 13.97 9.91 13.95L7.75 13.02C7.08 12.73 6.66 12.07 6.69 11.34C6.72 10.61 7.19 9.98 7.88 9.75L14.09 7.68C14.72 7.47 15.41 7.63 15.88 8.1C16.35 8.57 16.51 9.26 16.3 9.89L16.32 9.9Z" fill="black"/>
</svg>
