<svg width="24" height="24" viewBox="0 0 24 24" fill="none" xmlns="http://www.w3.org/2000/svg">
<path d="M13 7.24949H4.61999C4.00999 7.24949 3.44999 7.55949 3.12999 8.07949C2.80999 8.59949 2.77999 9.23949 3.04999 9.77949L4.11999 11.9095C4.20999 12.0795 4.24999 12.2795 4.24999 12.4695V17.9795C4.24999 19.4995 5.47999 20.7295 6.99999 20.7295H13C14.52 20.7295 15.75 19.4995 15.75 17.9795V9.99949C15.75 8.47949 14.52 7.24949 13 7.24949ZM12 16.7295H7.99999C7.58999 16.7295 7.24999 16.3895 7.24999 15.9795C7.24999 15.5695 7.58999 15.2295 7.99999 15.2295H12C12.41 15.2295 12.75 15.5695 12.75 15.9795C12.75 16.3895 12.41 16.7295 12 16.7295ZM12 12.7295H7.99999C7.58999 12.7295 7.24999 12.3895 7.24999 11.9795C7.24999 11.5695 7.58999 11.2295 7.99999 11.2295H12C12.41 11.2295 12.75 11.5695 12.75 11.9795C12.75 12.3895 12.41 12.7295 12 12.7295Z" fill="black"/>
<path d="M20.87 4.05949C20.55 3.53949 19.99 3.22949 19.38 3.22949H11C9.55999 3.22949 8.38999 4.33949 8.26999 5.74949H13C15.34 5.74949 17.25 7.65949 17.25 9.99949V16.6995C18.65 16.5695 19.75 15.3995 19.75 13.9795V8.45949C19.75 8.26949 19.8 8.06949 19.88 7.89949L20.95 5.76949C21.22 5.21949 21.19 4.58949 20.87 4.06949V4.05949Z" fill="black"/>
</svg>
