<svg width="24" height="24" viewBox="0 0 24 24" fill="none" xmlns="http://www.w3.org/2000/svg">
<path d="M10.01 11.36L9.85 12.38L10.87 12.21L14.16 8.91L13.31 8.06L10.01 11.36Z" fill="black"/>
<path d="M18 3.25H6C3.93 3.25 2.25 4.93 2.25 7V13C2.25 15.07 3.93 16.75 6 16.75H7.5C8.2 16.75 8.88 17.09 9.3 17.65L10.6 19.38C10.93 19.83 11.44 20.08 12 20.08C12.56 20.08 13.07 19.82 13.4 19.38L14.7 17.65C15.12 17.09 15.8 16.75 16.5 16.75H18C20.07 16.75 21.75 15.07 21.75 13V7C21.75 4.93 20.07 3.25 18 3.25ZM15.42 9.78L11.76 13.44C11.65 13.55 11.51 13.62 11.35 13.65L9.06 14.03C9.06 14.03 8.98 14.03 8.94 14.03C8.74 14.03 8.55 13.95 8.41 13.81C8.24 13.64 8.16 13.4 8.2 13.16L8.58 10.87C8.61 10.71 8.68 10.57 8.79 10.46L12.45 6.8C12.7 6.55 13.03 6.41 13.35 6.41C13.63 6.41 13.89 6.52 14.08 6.71L15.51 8.14C15.7 8.33 15.81 8.59 15.81 8.87C15.81 9.19 15.67 9.52 15.42 9.77V9.78Z" fill="black"/>
</svg>
