<svg width="24" height="24" viewBox="0 0 24 24" fill="none" xmlns="http://www.w3.org/2000/svg">
<path d="M17 3.25H7C4.38 3.25 2.25 5.38 2.25 8V16C2.25 18.62 4.38 20.75 7 20.75H17C19.62 20.75 21.75 18.62 21.75 16V8C21.75 5.38 19.62 3.25 17 3.25ZM20.25 16C20.25 17.79 18.79 19.25 17 19.25H7C5.21 19.25 3.75 17.79 3.75 16V8C3.75 6.21 5.21 4.75 7 4.75H17C18.79 4.75 20.25 6.21 20.25 8V16Z" fill="black"/>
<path d="M14 8.25H10C8.48 8.25 7.25 9.48 7.25 11V12C7.25 13.52 8.48 14.75 10 14.75H10.39C10.64 14.75 10.88 14.82 11.08 14.96L13.58 16.62C13.71 16.7 13.85 16.75 14 16.75C14.12 16.75 14.24 16.72 14.35 16.66C14.59 16.53 14.75 16.28 14.75 16V15C14.75 14.86 14.86 14.75 15 14.75C15.96 14.75 16.75 13.96 16.75 13V11C16.75 9.48 15.52 8.25 14 8.25ZM15.25 13C15.25 13.14 15.14 13.25 15 13.25C14.16 13.25 13.46 13.84 13.29 14.63L11.92 13.72C11.47 13.42 10.94 13.26 10.39 13.26H10C9.31 13.26 8.75 12.7 8.75 12.01V11.01C8.75 10.32 9.31 9.76 10 9.76H14C14.69 9.76 15.25 10.32 15.25 11.01V13.01V13Z" fill="black"/>
</svg>
