<svg width="24" height="24" viewBox="0 0 24 24" fill="none" xmlns="http://www.w3.org/2000/svg">
<path d="M20.87 4.05949C20.55 3.53949 19.99 3.22949 19.38 3.22949H11C9.47999 3.22949 8.24999 4.45949 8.24999 5.97949V7.24949H4.61999C4.00999 7.24949 3.44999 7.55949 3.12999 8.07949C2.80999 8.59949 2.77999 9.23949 3.04999 9.77949L4.11999 11.9095C4.20999 12.0795 4.24999 12.2795 4.24999 12.4695V17.9795C4.24999 19.4995 5.47999 20.7295 6.99999 20.7295H13C14.52 20.7295 15.75 19.4995 15.75 17.9795V16.7295H17.02C18.53 16.7095 19.75 15.4795 19.75 13.9695V8.44949C19.75 8.25949 19.8 8.05949 19.88 7.88949L20.95 5.75949C21.22 5.20949 21.19 4.57949 20.87 4.05949ZM14.25 17.9795C14.25 18.6695 13.69 19.2295 13 19.2295H6.99999C6.30999 19.2295 5.74999 18.6695 5.74999 17.9795V12.4695C5.74999 12.0495 5.64999 11.6195 5.45999 11.2395L4.38999 9.10949C4.33999 8.99949 4.36999 8.90949 4.39999 8.86949C4.42999 8.82949 4.48999 8.74949 4.60999 8.74949H13C13.69 8.74949 14.25 9.30949 14.25 9.99949V17.9795ZM19.61 5.08949L18.54 7.21949C18.35 7.59949 18.25 8.01949 18.25 8.44949V13.9695C18.25 14.6495 17.69 15.2195 17.01 15.2195H15.75V9.99949C15.75 8.47949 14.52 7.24949 13 7.24949H9.74999V5.97949C9.74999 5.28949 10.31 4.72949 11 4.72949H19.38C19.5 4.72949 19.57 4.79949 19.59 4.84949C19.62 4.88949 19.65 4.98949 19.6 5.08949H19.61Z" fill="black"/>
<path d="M12 11.2295H7.99999C7.58999 11.2295 7.24999 11.5695 7.24999 11.9795C7.24999 12.3895 7.58999 12.7295 7.99999 12.7295H12C12.41 12.7295 12.75 12.3895 12.75 11.9795C12.75 11.5695 12.41 11.2295 12 11.2295Z" fill="black"/>
<path d="M12 15.2295H7.99999C7.58999 15.2295 7.24999 15.5695 7.24999 15.9795C7.24999 16.3895 7.58999 16.7295 7.99999 16.7295H12C12.41 16.7295 12.75 16.3895 12.75 15.9795C12.75 15.5695 12.41 15.2295 12 15.2295Z" fill="black"/>
</svg>
