<svg width="24" height="24" viewBox="0 0 24 24" fill="none" xmlns="http://www.w3.org/2000/svg">
<path d="M7 13.75C7.1 13.75 7.19 13.73 7.29 13.69C7.57 13.57 7.75 13.3 7.75 13V12C7.75 11.86 7.86 11.75 8 11.75C8.96 11.75 9.75 10.96 9.75 10V9C9.75 8.04 8.96 7.25 8 7.25H4C3.04 7.25 2.25 8.04 2.25 9V10C2.25 10.96 3.04 11.75 4 11.75H4.59C4.66 11.75 4.72 11.78 4.77 11.82L6.48 13.53C6.62 13.67 6.82 13.75 7.01 13.75H7Z" fill="black"/>
<path d="M16 11.25C15.04 11.25 14.25 12.04 14.25 13V14C14.25 14.96 15.04 15.75 16 15.75C16.14 15.75 16.25 15.86 16.25 16V17C16.25 17.3 16.43 17.58 16.71 17.69C16.8 17.73 16.9 17.75 17 17.75C17.19 17.75 17.39 17.67 17.53 17.53L19.24 15.82C19.24 15.82 19.35 15.75 19.42 15.75H20.01C20.97 15.75 21.76 14.96 21.76 14V13C21.76 12.04 20.97 11.25 20.01 11.25H16Z" fill="black"/>
<path d="M14.75 17C13.58 16.51 12.75 15.35 12.75 14V13C12.75 11.21 14.21 9.75 16 9.75H17.75V7C17.75 4.93 16.07 3.25 14 3.25H10C8.37 3.25 7 4.3 6.48 5.75H8C9.79 5.75 11.25 7.21 11.25 9V10C11.25 11.35 10.42 12.51 9.25 13C9.25 13.91 8.71 14.73 7.86 15.08C7.58 15.19 7.29 15.25 7 15.25C6.74 15.25 6.49 15.2 6.25 15.11V17C6.25 19.07 7.93 20.75 10 20.75H14C15.22 20.75 16.3 20.15 16.98 19.25C16.69 19.25 16.41 19.19 16.14 19.08C15.29 18.73 14.75 17.91 14.75 17Z" fill="black"/>
</svg>
