<svg width="24" height="24" viewBox="0 0 24 24" fill="none" xmlns="http://www.w3.org/2000/svg">
<path d="M18 3.25H6C3.93 3.25 2.25 4.93 2.25 7V13C2.25 15.07 3.93 16.75 6 16.75H7.5C8.2 16.75 8.88 17.09 9.3 17.65L10.6 19.38C10.93 19.83 11.44 20.08 12 20.08C12.56 20.08 13.07 19.82 13.4 19.38L14.7 17.65C15.12 17.09 15.8 16.75 16.5 16.75H18C20.07 16.75 21.75 15.07 21.75 13V7C21.75 4.93 20.07 3.25 18 3.25ZM11.46 12.42H7.46C7.05 12.42 6.71 12.08 6.71 11.67C6.71 11.26 7.05 10.92 7.46 10.92H11.46C11.87 10.92 12.21 11.26 12.21 11.67C12.21 12.08 11.87 12.42 11.46 12.42ZM16.54 8.42H7.46C7.05 8.42 6.71 8.08 6.71 7.67C6.71 7.26 7.05 6.92 7.46 6.92H16.54C16.95 6.92 17.29 7.26 17.29 7.67C17.29 8.08 16.95 8.42 16.54 8.42Z" fill="black"/>
</svg>
