<svg width="24" height="24" viewBox="0 0 24 24" fill="none" xmlns="http://www.w3.org/2000/svg">
<path d="M17.29 13.25C16.32 13.25 15.43 13.75 14.95 14.56C14.34 15.6 13.21 16.25 12.01 16.25C10.81 16.25 9.68002 15.6 9.07002 14.56C8.59002 13.75 7.69002 13.25 6.73002 13.25H5.02002C3.50002 13.25 2.27002 14.48 2.27002 16V18C2.27002 19.52 3.50002 20.75 5.02002 20.75H19.02C20.54 20.75 21.77 19.52 21.77 18V16C21.77 14.48 20.54 13.25 19.02 13.25H17.29ZM20.25 18C20.25 18.69 19.69 19.25 19 19.25H5.00002C4.31002 19.25 3.75002 18.69 3.75002 18V16C3.75002 15.31 4.31002 14.75 5.00002 14.75H6.71002C7.15002 14.75 7.55002 14.97 7.76002 15.33C8.64002 16.82 10.27 17.75 12 17.75C13.73 17.75 15.36 16.82 16.24 15.33C16.45 14.97 16.85 14.75 17.29 14.75H19C19.69 14.75 20.25 15.31 20.25 16V18Z" fill="black"/>
<path d="M11.47 13.53C11.54 13.6 11.62 13.65 11.71 13.69C11.8 13.73 11.9 13.75 12 13.75C12.1 13.75 12.2 13.73 12.29 13.69C12.38 13.65 12.46 13.6 12.53 13.53L15.53 10.53C15.82 10.24 15.82 9.76 15.53 9.47C15.24 9.18 14.76 9.18 14.47 9.47L12.75 11.19V5C12.75 4.59 12.41 4.25 12 4.25C11.59 4.25 11.25 4.59 11.25 5V11.19L9.53002 9.47C9.24002 9.18 8.76002 9.18 8.47002 9.47C8.18002 9.76 8.18002 10.24 8.47002 10.53L11.47 13.53Z" fill="black"/>
</svg>
