<svg width="24" height="24" viewBox="0 0 24 24" fill="none" xmlns="http://www.w3.org/2000/svg">
<path d="M19 9.75C20.5188 9.75 21.75 8.51878 21.75 7C21.75 5.48122 20.5188 4.25 19 4.25C17.4812 4.25 16.25 5.48122 16.25 7C16.25 8.51878 17.4812 9.75 19 9.75Z" fill="black"/>
<path d="M14.75 7C14.75 6.37 14.89 5.79 15.14 5.25H6C3.93 5.25 2.25 6.93 2.25 9V13C2.25 15.07 3.93 16.75 6 16.75H9.95C10.46 16.75 10.96 16.92 11.36 17.24L13.91 19.28C14.23 19.53 14.61 19.67 15 19.67C15.26 19.67 15.52 19.61 15.76 19.5C16.37 19.21 16.75 18.6 16.75 17.92V17.5C16.75 17.09 17.09 16.75 17.5 16.75C18.74 16.75 19.75 15.74 19.75 14.5V11.17C19.51 11.21 19.26 11.25 19 11.25C16.66 11.25 14.75 9.34 14.75 7Z" fill="black"/>
</svg>
