<svg width="24" height="24" viewBox="0 0 24 24" fill="none" xmlns="http://www.w3.org/2000/svg">
<path d="M18 3.25H6C3.93 3.25 2.25 4.93 2.25 7V13C2.25 15.07 3.93 16.75 6 16.75H7.5C8.2 16.75 8.88 17.09 9.3 17.65L10.6 19.38C10.93 19.82 11.44 20.08 12 20.08C12.56 20.08 13.07 19.82 13.4 19.38L14.7 17.65C15.12 17.09 15.8 16.75 16.5 16.75H18C20.07 16.75 21.75 15.07 21.75 13V7C21.75 4.93 20.07 3.25 18 3.25ZM20.25 13C20.25 14.24 19.24 15.25 18 15.25H16.5C15.33 15.25 14.2 15.81 13.5 16.75L12.2 18.48C12.07 18.65 11.93 18.65 11.8 18.48L10.5 16.75C9.8 15.81 8.67 15.25 7.5 15.25H6C4.76 15.25 3.75 14.24 3.75 13V7C3.75 5.76 4.76 4.75 6 4.75H18C19.24 4.75 20.25 5.76 20.25 7V13Z" fill="black"/>
<path d="M10.02 8.75C10.43 8.75 10.77 8.41 10.77 8C10.77 7.59 10.43 7.25 10.02 7.25H10.01C9.6 7.25 9.27 7.59 9.27 8C9.27 8.41 9.61 8.75 10.02 8.75Z" fill="black"/>
<path d="M14.02 8.75C14.43 8.75 14.77 8.41 14.77 8C14.77 7.59 14.43 7.25 14.02 7.25H14.01C13.6 7.25 13.27 7.59 13.27 8C13.27 8.41 13.61 8.75 14.02 8.75Z" fill="black"/>
<path d="M15.4 10.55C14.16 12.2 12.22 12.25 12 12.25C9.93 12.25 8.73 10.72 8.6 10.55C8.35 10.22 7.88 10.15 7.55 10.4C7.22 10.65 7.15 11.12 7.4 11.45C7.69 11.83 9.26 13.75 12 13.75C12.48 13.75 14.96 13.64 16.6 11.45C16.85 11.12 16.78 10.65 16.45 10.4C16.12 10.15 15.65 10.22 15.4 10.55Z" fill="black"/>
</svg>
