<svg width="24" height="24" viewBox="0 0 24 24" fill="none" xmlns="http://www.w3.org/2000/svg">
<path d="M18.89 5.11C17.05 3.27 14.6 2.25 12 2.25C9.4 2.25 6.95 3.26 5.11 5.11C3.27 6.95 2.25 9.4 2.25 12C2.25 14.6 3.26 17.05 5.11 18.89C6.95 20.73 9.4 21.75 12 21.75C14.6 21.75 17.05 20.74 18.89 18.89C20.73 17.05 21.75 14.6 21.75 12C21.75 9.4 20.74 6.95 18.89 5.11ZM17.83 17.84C16.27 19.4 14.2 20.26 12 20.26C9.8 20.26 7.72 19.4 6.17 17.84C4.61 16.28 3.75 14.21 3.75 12.01C3.75 9.81 4.61 7.73 6.17 6.18C7.73 4.62 9.8 3.76 12 3.76C14.2 3.76 16.28 4.62 17.83 6.18C19.39 7.74 20.25 9.81 20.25 12.01C20.25 14.21 19.39 16.29 17.83 17.84Z" fill="black"/>
<path d="M14.11 7.68L7.9 9.75C7.2 9.98 6.74 10.6 6.71 11.34C6.68 12.07 7.1 12.73 7.77 13.02L9.93 13.95C9.99 13.98 10.04 14.02 10.06 14.08L10.99 16.24C11.27 16.89 11.89 17.3 12.6 17.3C12.62 17.3 12.65 17.3 12.68 17.3C13.41 17.27 14.04 16.8 14.27 16.11L16.34 9.9C16.55 9.27 16.39 8.58 15.92 8.11C15.45 7.64 14.76 7.48 14.13 7.69L14.11 7.68ZM8.2 11.4C8.2 11.32 8.24 11.22 8.37 11.17L13.47 9.47L10.42 12.52L8.35 11.63C8.22 11.57 8.2 11.47 8.2 11.39V11.4ZM12.83 15.63C12.78 15.77 12.68 15.8 12.6 15.8C12.52 15.8 12.42 15.78 12.36 15.65L11.47 13.58L14.52 10.53L12.82 15.63H12.83Z" fill="black"/>
</svg>
