<svg width="24" height="24" viewBox="0 0 24 24" fill="none" xmlns="http://www.w3.org/2000/svg">
<path d="M20.39 12.64L13.53 16.5L19.21 19.7L20.03 20.19C20.48 19.57 20.75 18.82 20.75 18V12.42L20.39 12.64Z" fill="black"/>
<path d="M3.63 12.65L3.25 12.41V18C3.25 20.07 4.93 21.75 7 21.75H17C17.68 21.75 18.31 21.55 18.86 21.23L18.46 20.99L3.63 12.65Z" fill="black"/>
<path d="M12 15.64L17.14 12.75L19.64 11.35L19.8 11.25H19.76V7.83C19.76 7.1 19.47 6.4 18.95 5.89L16.12 3.06C15.6 2.54 14.91 2.25 14.18 2.25H7C5.48 2.25 4.25 3.48 4.25 5V11.25H4.22L4.4 11.37L12 15.64ZM9 7.25H15C15.41 7.25 15.75 7.59 15.75 8C15.75 8.41 15.41 8.75 15 8.75H9C8.59 8.75 8.25 8.41 8.25 8C8.25 7.59 8.59 7.25 9 7.25ZM9 10.25H15C15.41 10.25 15.75 10.59 15.75 11C15.75 11.41 15.41 11.75 15 11.75H9C8.59 11.75 8.25 11.41 8.25 11C8.25 10.59 8.59 10.25 9 10.25Z" fill="black"/>
</svg>
