<svg width="24" height="24" viewBox="0 0 24 24" fill="none" xmlns="http://www.w3.org/2000/svg">
<path d="M20.74 11.9602C20.74 11.9602 20.72 11.8702 20.71 11.8202C20.7 11.7702 20.69 11.7202 20.66 11.6702C20.66 11.6602 20.66 11.6402 20.65 11.6302C20.63 11.6002 20.61 11.5802 20.59 11.5602C20.56 11.5202 20.53 11.4802 20.49 11.4402C20.45 11.4102 20.41 11.3902 20.37 11.3602C20.33 11.3402 20.29 11.3102 20.24 11.3002C20.19 11.2802 20.14 11.2802 20.09 11.2702C20.06 11.2702 20.03 11.2502 20 11.2502C19.99 11.2502 19.97 11.2502 19.96 11.2502C19.91 11.2502 19.86 11.2702 19.81 11.2802C19.79 11.2802 19.77 11.2802 19.75 11.2902V7.82023C19.75 7.09023 19.46 6.39023 18.94 5.88023L16.11 3.05023C15.59 2.53023 14.9 2.24023 14.17 2.24023H7.00001C5.48001 2.24023 4.25001 3.47023 4.25001 4.99023V11.2902C4.25001 11.2902 4.21001 11.2902 4.19001 11.2802C4.14001 11.2702 4.09001 11.2502 4.04001 11.2502C4.03001 11.2502 4.01001 11.2502 4.00001 11.2502C3.97001 11.2502 3.94001 11.2602 3.91001 11.2702C3.86001 11.2702 3.81001 11.2802 3.76001 11.3002C3.71001 11.3202 3.68001 11.3402 3.63001 11.3602C3.59001 11.3802 3.55001 11.4102 3.51001 11.4402C3.47001 11.4702 3.44001 11.5202 3.41001 11.5602C3.39001 11.5902 3.36001 11.6002 3.35001 11.6302C3.35001 11.6402 3.35001 11.6602 3.34001 11.6702C3.32001 11.7202 3.31001 11.7602 3.29001 11.8202C3.28001 11.8702 3.26001 11.9102 3.26001 11.9602C3.26001 11.9702 3.26001 11.9902 3.26001 12.0002V18.0002C3.26001 20.0702 4.94001 21.7502 7.01001 21.7502H17.01C19.08 21.7502 20.76 20.0702 20.76 18.0002V12.0002C20.76 12.0002 20.76 11.9702 20.76 11.9602H20.74ZM19.25 18.0002C19.25 18.5402 19.05 19.0302 18.73 19.4202L13.53 16.5002L19.25 13.2802V18.0002ZM5.75001 5.00023C5.75001 4.31023 6.31001 3.75023 7.00001 3.75023H14.17C14.5 3.75023 14.82 3.88023 15.05 4.12023L17.88 6.95023C18.12 7.19023 18.25 7.50023 18.25 7.83023V12.0002C18.25 12.0002 18.27 12.0702 18.27 12.1102L12 15.6402L5.73001 12.1102C5.73001 12.1102 5.75001 12.0402 5.75001 12.0002V5.00023ZM7.00001 20.2502C5.76001 20.2502 4.75001 19.2402 4.75001 18.0002V13.2802L17.12 20.2402C17.12 20.2402 17.04 20.2502 17 20.2502H7.00001Z" fill="black"/>
<path d="M9.00001 8.75023H15C15.41 8.75023 15.75 8.41023 15.75 8.00023C15.75 7.59023 15.41 7.25023 15 7.25023H9.00001C8.59001 7.25023 8.25001 7.59023 8.25001 8.00023C8.25001 8.41023 8.59001 8.75023 9.00001 8.75023Z" fill="black"/>
<path d="M9.00001 11.7502H15C15.41 11.7502 15.75 11.4102 15.75 11.0002C15.75 10.5902 15.41 10.2502 15 10.2502H9.00001C8.59001 10.2502 8.25001 10.5902 8.25001 11.0002C8.25001 11.4102 8.59001 11.7502 9.00001 11.7502Z" fill="black"/>
</svg>
