<svg width="24" height="24" viewBox="0 0 24 24" fill="none" xmlns="http://www.w3.org/2000/svg">
<path d="M18 3.25H6C3.93 3.25 2.25 4.93 2.25 7V17.92C2.25 18.6 2.63 19.2 3.24 19.5C3.48 19.62 3.74 19.68 4 19.68C4.39 19.68 4.77 19.55 5.09 19.29L7.37 17.47C7.94 17.01 8.67 16.76 9.4 16.76H18C20.07 16.76 21.75 15.08 21.75 13.01V7C21.75 4.93 20.07 3.25 18 3.25ZM8.02 10.79C7.61 10.79 7.27 10.45 7.27 10.04C7.27 9.63 7.6 9.29 8.01 9.29H8.02C8.43 9.29 8.77 9.63 8.77 10.04C8.77 10.45 8.43 10.79 8.02 10.79ZM12.02 10.79C11.61 10.79 11.27 10.45 11.27 10.04C11.27 9.63 11.6 9.29 12.01 9.29H12.02C12.43 9.29 12.77 9.63 12.77 10.04C12.77 10.45 12.43 10.79 12.02 10.79ZM16.02 10.79C15.61 10.79 15.27 10.45 15.27 10.04C15.27 9.63 15.6 9.29 16.02 9.29C16.44 9.29 16.77 9.63 16.77 10.04C16.77 10.45 16.44 10.79 16.02 10.79Z" fill="black"/>
</svg>
