<svg width="24" height="24" viewBox="0 0 24 24" fill="none" xmlns="http://www.w3.org/2000/svg">
<path d="M18 3.25H6C3.93 3.25 2.25 4.93 2.25 7V13C2.25 15.07 3.93 16.75 6 16.75H7.5C8.2 16.75 8.88 17.09 9.3 17.65L10.6 19.38C10.93 19.82 11.44 20.08 12 20.08C12.56 20.08 13.07 19.82 13.4 19.38L14.7 17.65C15.12 17.09 15.8 16.75 16.5 16.75H18C20.07 16.75 21.75 15.07 21.75 13V7C21.75 4.93 20.07 3.25 18 3.25ZM14.01 7.25H14.02C14.43 7.25 14.77 7.59 14.77 8C14.77 8.41 14.43 8.75 14.02 8.75C13.61 8.75 13.27 8.41 13.27 8C13.27 7.59 13.6 7.25 14.01 7.25ZM10.01 7.25H10.02C10.43 7.25 10.77 7.59 10.77 8C10.77 8.41 10.43 8.75 10.02 8.75C9.61 8.75 9.27 8.41 9.27 8C9.27 7.59 9.6 7.25 10.01 7.25ZM16.6 11.45C14.96 13.64 12.48 13.75 12 13.75C9.26 13.75 7.69 11.83 7.4 11.45C7.15 11.12 7.22 10.65 7.55 10.4C7.88 10.15 8.35 10.22 8.6 10.55C8.73 10.72 9.93 12.25 12 12.25C12.22 12.25 14.16 12.2 15.4 10.55C15.65 10.22 16.12 10.15 16.45 10.4C16.78 10.65 16.85 11.12 16.6 11.45Z" fill="black"/>
</svg>
