<svg width="24" height="24" viewBox="0 0 24 24" fill="none" xmlns="http://www.w3.org/2000/svg">
<path d="M18 3.25H6C3.93 3.25 2.25 4.93 2.25 7V13C2.25 15.07 3.93 16.75 6 16.75H7.5C8.2 16.75 8.88 17.09 9.3 17.65L10.6 19.38C10.93 19.83 11.44 20.08 12 20.08C12.56 20.08 13.07 19.82 13.4 19.38L14.7 17.65C15.12 17.09 15.8 16.75 16.5 16.75H18C20.07 16.75 21.75 15.07 21.75 13V7C21.75 4.93 20.07 3.25 18 3.25ZM20.25 13C20.25 14.24 19.24 15.25 18 15.25H16.5C15.33 15.25 14.21 15.81 13.5 16.75L12.2 18.48C12.07 18.65 11.93 18.65 11.8 18.48L10.5 16.75C9.79 15.81 8.67 15.25 7.5 15.25H6C4.76 15.25 3.75 14.24 3.75 13V7C3.75 5.76 4.76 4.75 6 4.75H18C19.24 4.75 20.25 5.76 20.25 7V13Z" fill="black"/>
<path d="M14.08 6.71C13.89 6.52 13.63 6.41 13.35 6.41C13.03 6.41 12.7 6.55 12.45 6.8L8.79 10.46C8.68 10.57 8.61 10.71 8.58 10.87L8.2 13.16C8.16 13.4 8.24 13.64 8.41 13.81C8.55 13.95 8.74 14.03 8.94 14.03C8.98 14.03 9.02 14.03 9.06 14.03L11.35 13.65C11.51 13.62 11.65 13.55 11.76 13.44L15.42 9.78C15.67 9.53 15.81 9.2 15.81 8.88C15.81 8.6 15.7 8.34 15.51 8.15L14.08 6.72V6.71ZM10.87 12.21L9.85 12.38L10.02 11.36L13.31 8.07L14.16 8.92L10.87 12.22V12.21Z" fill="black"/>
</svg>
