<svg width="24" height="24" viewBox="0 0 24 24" fill="none" xmlns="http://www.w3.org/2000/svg">
<path d="M18 2.25H6C3.93 2.25 2.25 3.93 2.25 6V14C2.25 16.07 3.93 17.75 6 17.75H7.5C8.2 17.75 8.88 18.09 9.3 18.65L10.6 20.38C10.93 20.83 11.44 21.08 12 21.08C12.56 21.08 13.07 20.82 13.4 20.38L14.7 18.65C15.12 18.09 15.8 17.75 16.5 17.75H18C20.07 17.75 21.75 16.07 21.75 14V6C21.75 3.93 20.07 2.25 18 2.25ZM17.83 12.23L17.19 13.12C16.54 14.02 15.58 14.62 14.49 14.79C14.26 14.83 14.04 14.85 13.81 14.85C12.95 14.85 12.11 14.58 11.39 14.07L8.8 12.2C6.94 10.86 6.52 8.26 7.85 6.4L8.49 5.51C8.89 4.95 9.67 4.82 10.24 5.22L11.29 5.97C11.56 6.16 11.74 6.46 11.79 6.78L12.05 8.38C12.12 8.82 12.36 9.2 12.72 9.46C13.07 9.72 13.52 9.82 13.96 9.75L15.56 9.49C15.89 9.44 16.23 9.52 16.49 9.71L17.54 10.47C18.1 10.87 18.23 11.66 17.82 12.21L17.83 12.23Z" fill="black"/>
<path d="M14.21 11.26C13.39 11.39 12.53 11.19 11.85 10.71C11.16 10.22 10.71 9.48 10.58 8.65L10.33 7.15L9.57 6.6L9.08 7.29C8.23 8.48 8.5 10.14 9.68 11L12.27 12.86C12.85 13.27 13.55 13.44 14.25 13.32C14.95 13.21 15.56 12.83 15.98 12.25L16.47 11.56L15.71 11.01L14.21 11.25V11.26Z" fill="black"/>
</svg>
