<svg width="24" height="24" viewBox="0 0 24 24" fill="none" xmlns="http://www.w3.org/2000/svg">
<path d="M18 9.25H15.75V7C15.75 4.93 14.07 3.25 12 3.25H6C3.93 3.25 2.25 4.93 2.25 7V13C2.25 13.96 3.04 14.75 4 14.75C4.14 14.75 4.25 14.86 4.25 15V17C4.25 17.3 4.43 17.58 4.71 17.69C4.8 17.73 4.9 17.75 5 17.75C5.19 17.75 5.39 17.67 5.53 17.53L7.94 15.12C8.18 14.88 8.49 14.75 8.82 14.75H10.24V15C10.24 17.07 11.92 18.75 13.99 18.75H15.38C15.63 18.75 15.87 18.82 16.07 18.96L18.57 20.62C18.7 20.7 18.84 20.75 18.99 20.75C19.11 20.75 19.23 20.72 19.34 20.66C19.58 20.53 19.74 20.28 19.74 20V19C19.74 18.86 19.85 18.75 19.99 18.75C20.95 18.75 21.74 17.96 21.74 17V13C21.74 10.93 20.06 9.25 17.99 9.25H18ZM8.83 13.25C8.1 13.25 7.4 13.54 6.89 14.06L5.76 15.19V15C5.76 14.04 4.97 13.25 4.01 13.25C3.87 13.25 3.76 13.14 3.76 13V7C3.76 5.76 4.77 4.75 6.01 4.75H12.01C13.25 4.75 14.26 5.76 14.26 7V9.25H14.01C11.94 9.25 10.26 10.93 10.26 13V13.25H8.83ZM20.25 17C20.25 17.14 20.14 17.25 20 17.25C19.16 17.25 18.46 17.84 18.29 18.63L16.92 17.72C16.47 17.42 15.94 17.26 15.4 17.26H14.01C12.77 17.26 11.76 16.25 11.76 15.01V13.01C11.76 11.77 12.77 10.76 14.01 10.76H18.01C19.25 10.76 20.26 11.77 20.26 13.01V17.01L20.25 17Z" fill="black"/>
</svg>
