<svg width="24" height="24" viewBox="0 0 24 24" fill="none" xmlns="http://www.w3.org/2000/svg">
<path d="M20.6801 18.0499C20.4601 17.4699 20.5001 16.8199 20.8001 16.2099C21.5901 14.5599 21.9001 12.7099 21.6901 10.8599C21.1701 6.30987 17.4801 2.70988 12.9201 2.28988C10.0001 2.02988 7.17007 3.04988 5.11007 5.09988C3.06007 7.14988 2.03007 9.99988 2.30007 12.9099C2.72007 17.4699 6.32007 21.1599 10.8701 21.6799C11.2501 21.7199 11.6301 21.7399 12.0101 21.7399C13.4701 21.7399 14.9101 21.4199 16.2201 20.7899C16.8301 20.4999 17.4801 20.4599 18.0601 20.6699L19.7101 21.2899C20.1801 21.4599 20.6801 21.3599 21.0401 21.0099C21.3901 20.6599 21.5001 20.1499 21.3201 19.6799L20.7001 18.0299L20.6801 18.0499ZM16.0001 14.7499H8.00007C7.59007 14.7499 7.25007 14.4099 7.25007 13.9999C7.25007 13.5899 7.59007 13.2499 8.00007 13.2499H16.0001C16.4101 13.2499 16.7501 13.5899 16.7501 13.9999C16.7501 14.4099 16.4101 14.7499 16.0001 14.7499ZM16.0001 10.7499H8.00007C7.59007 10.7499 7.25007 10.4099 7.25007 9.99988C7.25007 9.58988 7.59007 9.24988 8.00007 9.24988H16.0001C16.4101 9.24988 16.7501 9.58988 16.7501 9.99988C16.7501 10.4099 16.4101 10.7499 16.0001 10.7499Z" fill="black"/>
</svg>
