<svg width="24" height="24" viewBox="0 0 24 24" fill="none" xmlns="http://www.w3.org/2000/svg">
<path d="M16 2.25H9C6.93 2.25 5.25 3.93 5.25 6V6.25H5C4.59 6.25 4.25 6.59 4.25 7C4.25 7.41 4.59 7.75 5 7.75H5.25V11.25H5C4.59 11.25 4.25 11.59 4.25 12C4.25 12.41 4.59 12.75 5 12.75H5.25V16.25H5C4.59 16.25 4.25 16.59 4.25 17C4.25 17.41 4.59 17.75 5 17.75H5.25V18C5.25 20.07 6.93 21.75 9 21.75H16C18.07 21.75 19.75 20.07 19.75 18V6C19.75 3.93 18.07 2.25 16 2.25ZM10.75 9.75H18.25V14.25H10.75V9.75ZM18.25 6V8.25H10.75V3.75H16C17.24 3.75 18.25 4.76 18.25 6ZM6.75 18V17.75H7C7.41 17.75 7.75 17.41 7.75 17C7.75 16.59 7.41 16.25 7 16.25H6.75V12.75H7C7.41 12.75 7.75 12.41 7.75 12C7.75 11.59 7.41 11.25 7 11.25H6.75V7.75H7C7.41 7.75 7.75 7.41 7.75 7C7.75 6.59 7.41 6.25 7 6.25H6.75V6C6.75 4.76 7.76 3.75 9 3.75H9.25V20.25H9C7.76 20.25 6.75 19.24 6.75 18ZM16 20.25H10.75V15.75H18.25V18C18.25 19.24 17.24 20.25 16 20.25Z" fill="black"/>
</svg>
