<svg width="24" height="24" viewBox="0 0 24 24" fill="none" xmlns="http://www.w3.org/2000/svg">
<path d="M16.5 15.2499H5.5C4.54 15.2499 3.75 14.4599 3.75 13.4999C3.75 12.5399 4.54 11.7499 5.5 11.7499H13C13.41 11.7499 13.75 11.4099 13.75 10.9999C13.75 10.5899 13.41 10.2499 13 10.2499H5.5C3.71 10.2499 2.25 11.7099 2.25 13.4999C2.25 15.2899 3.71 16.7499 5.5 16.7499H16.5C17.46 16.7499 18.25 17.5399 18.25 18.4999C18.25 19.4599 17.46 20.2499 16.5 20.2499H10C9.59 20.2499 9.25 20.5899 9.25 20.9999C9.25 21.4099 9.59 21.7499 10 21.7499H16.5C18.29 21.7499 19.75 20.2899 19.75 18.4999C19.75 16.7099 18.29 15.2499 16.5 15.2499Z" fill="black"/>
<path d="M20.39 3.10989C19.53 2.39989 18.4 2.09989 17.28 2.30989C15.52 2.63989 14.25 4.23989 14.25 6.11989C14.25 7.04989 14.59 7.94989 15.2 8.64989L16.68 10.3499C17.01 10.7299 17.49 10.9499 18 10.9499C18.51 10.9499 18.99 10.7299 19.32 10.3499L20.8 8.64989C21.41 7.94989 21.75 7.04989 21.75 6.11989V5.98989C21.75 4.86989 21.26 3.81989 20.39 3.09989V3.10989ZM18.01 6.74989C17.6 6.74989 17.26 6.40989 17.26 5.99989C17.26 5.58989 17.59 5.24989 18.01 5.24989C18.43 5.24989 18.76 5.58989 18.76 5.99989C18.76 6.40989 18.43 6.74989 18.01 6.74989Z" fill="black"/>
</svg>
