<svg width="24" height="24" viewBox="0 0 24 24" fill="none" xmlns="http://www.w3.org/2000/svg">
<path d="M9.75992 12.7497C9.87992 18.3597 11.3499 21.2497 11.9999 21.2497C12.6499 21.2497 14.1099 18.3597 14.2399 12.7497H9.75992Z" fill="black"/>
<path d="M11.9999 2.74969C11.3599 2.74969 9.88992 5.63969 9.75992 11.2497H14.2399C14.1199 5.63969 12.6499 2.74969 11.9999 2.74969Z" fill="black"/>
<path d="M21.7099 11.2497C21.3699 6.83969 18.0899 3.23969 13.8199 2.42969C15.0399 4.20969 15.6599 7.74969 15.7299 11.2497H21.7099Z" fill="black"/>
<path d="M8.25992 11.2497C8.33992 7.74969 8.94992 4.20969 10.1699 2.42969C5.90992 3.23969 2.62992 6.83969 2.28992 11.2497H8.25992Z" fill="black"/>
<path d="M15.7399 12.7497C15.6599 16.2497 15.0499 19.7897 13.8299 21.5697C18.0999 20.7597 21.3799 17.1597 21.7199 12.7497H15.7399Z" fill="black"/>
<path d="M2.28992 12.7497C2.62992 17.1597 5.90992 20.7597 10.1799 21.5697C8.95992 19.7897 8.33992 16.2497 8.26992 12.7497H2.28992Z" fill="black"/>
</svg>
