<svg width="24" height="24" viewBox="0 0 24 24" fill="none" xmlns="http://www.w3.org/2000/svg">
<path d="M13.79 11.27L11.26 13.8L14.58 14.91C14.71 14.95 14.8 14.89 14.84 14.85C14.88 14.81 14.94 14.72 14.9 14.59L13.79 11.28V11.27Z" fill="black"/>
<path d="M12.73 10.21L9.41 9.1C9.41 9.1 9.35 9.09 9.33 9.09C9.25 9.09 9.19 9.13 9.16 9.16C9.12 9.2 9.06 9.29 9.1 9.42L10.21 12.73L12.74 10.2L12.73 10.21Z" fill="black"/>
<path d="M16 2.25H8C4.83 2.25 2.25 4.83 2.25 8V16C2.25 19.17 4.83 21.75 8 21.75H16C19.17 21.75 21.75 19.17 21.75 16V8C21.75 4.83 19.17 2.25 16 2.25ZM15.9 15.9C15.57 16.23 15.12 16.41 14.67 16.41C14.48 16.41 14.3 16.38 14.11 16.32L9.64 14.83C9.54 14.8 9.45 14.74 9.38 14.68C9.38 14.68 9.37 14.66 9.36 14.65C9.29 14.58 9.23 14.49 9.19 14.4C9.19 14.39 9.17 14.38 9.17 14.36L7.68 9.89C7.47 9.26 7.63 8.57 8.1 8.1C8.57 7.63 9.26 7.46 9.89 7.68L14.36 9.17C14.36 9.17 14.38 9.19 14.4 9.19C14.49 9.23 14.58 9.28 14.65 9.35C14.65 9.35 14.67 9.36 14.68 9.37C14.75 9.44 14.8 9.53 14.83 9.63L16.32 14.1C16.53 14.73 16.37 15.42 15.9 15.89V15.9Z" fill="black"/>
</svg>
