<svg width="24" height="24" viewBox="0 0 24 24" fill="none" xmlns="http://www.w3.org/2000/svg">
<path d="M17.15 4.21034C15.5 2.74034 13.28 2.04034 11.06 2.31034C7.18 2.77034 4.25 6.20034 4.25 10.3003C4.25 12.2303 4.95 14.0903 6.22 15.5403L10.68 20.6403C11.01 21.0203 11.49 21.2403 12 21.2403C12.51 21.2403 12.99 21.0203 13.32 20.6403L17.78 15.5403C19.05 14.0903 19.75 12.2303 19.75 10.3003V10.0103C19.75 7.80034 18.8 5.69033 17.15 4.22033V4.21034ZM18.25 10.3003C18.25 11.8603 17.68 13.3703 16.65 14.5503L12.19 19.6503C12.06 19.8003 11.94 19.8003 11.81 19.6503L7.35 14.5503C6.32 13.3703 5.75 11.8603 5.75 10.3003C5.75 6.96033 8.11 4.17034 11.24 3.80034C11.5 3.77034 11.75 3.75034 12.01 3.75034C13.55 3.75034 14.99 4.30034 16.15 5.33034C17.48 6.52034 18.25 8.22034 18.25 10.0003V10.3003Z" fill="black"/>
<path d="M12 6.25034C9.93 6.25034 8.25 7.93034 8.25 10.0003C8.25 12.0703 9.93 13.7503 12 13.7503C14.07 13.7503 15.75 12.0703 15.75 10.0003C15.75 7.93034 14.07 6.25034 12 6.25034ZM12 12.2503C10.76 12.2503 9.75 11.2403 9.75 10.0003C9.75 8.76033 10.76 7.75034 12 7.75034C13.24 7.75034 14.25 8.76033 14.25 10.0003C14.25 11.2403 13.24 12.2503 12 12.2503Z" fill="black"/>
</svg>
