<svg width="24" height="24" viewBox="0 0 24 24" fill="none" xmlns="http://www.w3.org/2000/svg">
<path d="M15.09 12.4299C14.68 12.3799 14.31 12.6799 14.26 13.0899C14.21 13.4999 14.51 13.8699 14.92 13.9199C18.69 14.3599 20.26 15.4999 20.26 15.9999C20.26 16.7599 17.35 18.2499 12.01 18.2499C6.67002 18.2499 3.76002 16.7599 3.76002 15.9999C3.76002 15.4899 5.33002 14.3599 9.10002 13.9199C9.51002 13.8699 9.81002 13.4999 9.76002 13.0899C9.71002 12.6799 9.33002 12.3799 8.93002 12.4299C4.76002 12.9199 2.27002 14.2599 2.27002 15.9999C2.27002 18.4599 7.17002 19.7499 12.02 19.7499C16.87 19.7499 21.77 18.4599 21.77 15.9999C21.77 14.2499 19.28 12.9199 15.11 12.4299H15.09Z" fill="black"/>
<path d="M9.25002 15.9999C9.25002 16.4099 9.59002 16.7499 10 16.7499H14C14.41 16.7499 14.75 16.4099 14.75 15.9999C14.75 15.5899 14.41 15.2499 14 15.2499H12.75V10.4599L16.55 8.55989C17.15 8.25989 17.52 7.65989 17.52 6.98989C17.52 6.31989 17.15 5.71989 16.55 5.41989L13.06 3.67989C12.67 3.47989 12.22 3.50989 11.84 3.73989C11.47 3.96989 11.25 4.36989 11.25 4.79989V15.2499H10C9.59002 15.2499 9.25002 15.5899 9.25002 15.9999ZM12.75 5.20989L15.88 6.76989C16 6.82989 16.02 6.93989 16.02 6.98989C16.02 7.03989 16 7.14989 15.88 7.20989L12.75 8.76989V5.19989V5.20989Z" fill="black"/>
</svg>
