<svg width="24" height="24" viewBox="0 0 24 24" fill="none" xmlns="http://www.w3.org/2000/svg">
<path d="M11.25 10.67V16.25H10C9.59002 16.25 9.25002 16.59 9.25002 17C9.25002 17.41 9.59002 17.75 10 17.75H14C14.41 17.75 14.75 17.41 14.75 17C14.75 16.59 14.41 16.25 14 16.25H12.75V10.67C14.46 10.32 15.75 8.81 15.75 7C15.75 4.93 14.07 3.25 12 3.25C9.93002 3.25 8.25002 4.93 8.25002 7C8.25002 8.81 9.54002 10.33 11.25 10.67ZM12 4.75C13.24 4.75 14.25 5.76 14.25 7C14.25 8.24 13.24 9.25 12 9.25C10.76 9.25 9.75002 8.24 9.75002 7C9.75002 5.76 10.76 4.75 12 4.75Z" fill="black"/>
<path d="M15.09 13.43C14.68 13.39 14.31 13.68 14.26 14.09C14.21 14.5 14.51 14.87 14.92 14.92C18.69 15.36 20.26 16.5 20.26 17C20.26 17.76 17.35 19.25 12.01 19.25C6.67002 19.25 3.76002 17.76 3.76002 17C3.76002 16.49 5.33002 15.36 9.10002 14.92C9.51002 14.87 9.81002 14.5 9.76002 14.09C9.71002 13.68 9.34002 13.39 8.93002 13.43C4.76002 13.92 2.27002 15.26 2.27002 17C2.27002 19.46 7.17002 20.75 12.02 20.75C16.87 20.75 21.77 19.46 21.77 17C21.77 15.25 19.28 13.92 15.11 13.43H15.09Z" fill="black"/>
</svg>
