<svg width="24" height="24" viewBox="0 0 24 24" fill="none" xmlns="http://www.w3.org/2000/svg">
<path d="M5 8.75C6.25 8.75 7.3 7.9 7.63 6.75H16C17.24 6.75 18.25 7.76 18.25 9V9.19L17.53 8.47C17.24 8.18 16.76 8.18 16.47 8.47C16.18 8.76 16.18 9.24 16.47 9.53L18.47 11.53C18.54 11.6 18.63 11.66 18.71 11.69C18.8 11.73 18.9 11.75 19 11.75C19.1 11.75 19.2 11.73 19.29 11.69C19.38 11.65 19.46 11.6 19.53 11.53L21.53 9.53C21.82 9.24 21.82 8.76 21.53 8.47C21.24 8.18 20.76 8.18 20.47 8.47L19.75 9.19V9C19.75 6.93 18.07 5.25 16 5.25H7.63C7.3 4.1 6.25 3.25 5 3.25C3.48 3.25 2.25 4.48 2.25 6C2.25 7.52 3.48 8.75 5 8.75Z" fill="black"/>
<path d="M19 15.25C17.75 15.25 16.7 16.1 16.37 17.25H8C6.76 17.25 5.75 16.24 5.75 15V14.81L6.47 15.53C6.62 15.68 6.81 15.75 7 15.75C7.19 15.75 7.38 15.68 7.53 15.53C7.82 15.24 7.82 14.76 7.53 14.47L5.53 12.47C5.46 12.4 5.37 12.34 5.29 12.31C5.2 12.27 5.11 12.25 5 12.25C4.89 12.25 4.8 12.27 4.71 12.31C4.62 12.35 4.54 12.4 4.47 12.47L2.47 14.47C2.18 14.76 2.18 15.24 2.47 15.53C2.76 15.82 3.24 15.82 3.53 15.53L4.25 14.81V15C4.25 17.07 5.93 18.75 8 18.75H16.37C16.7 19.9 17.75 20.75 19 20.75C20.52 20.75 21.75 19.52 21.75 18C21.75 16.48 20.52 15.25 19 15.25Z" fill="black"/>
</svg>
