<svg width="24" height="24" viewBox="0 0 24 24" fill="none" xmlns="http://www.w3.org/2000/svg">
<path d="M12 12.2503C13.2426 12.2503 14.25 11.243 14.25 10.0003C14.25 8.75769 13.2426 7.75034 12 7.75034C10.7574 7.75034 9.75 8.75769 9.75 10.0003C9.75 11.243 10.7574 12.2503 12 12.2503Z" fill="black"/>
<path d="M17.15 4.21034C15.5 2.74034 13.28 2.04034 11.06 2.31034C7.18 2.77034 4.25 6.20034 4.25 10.3003C4.25 12.2303 4.95 14.0903 6.22 15.5403L10.68 20.6403C11.01 21.0203 11.49 21.2403 12 21.2403C12.51 21.2403 12.99 21.0203 13.32 20.6403L17.78 15.5403C19.05 14.0903 19.75 12.2303 19.75 10.3003V10.0103C19.75 7.80034 18.8 5.69033 17.15 4.22033V4.21034ZM12 13.7503C9.93 13.7503 8.25 12.0703 8.25 10.0003C8.25 7.93034 9.93 6.25034 12 6.25034C14.07 6.25034 15.75 7.93034 15.75 10.0003C15.75 12.0703 14.07 13.7503 12 13.7503Z" fill="black"/>
</svg>
