<svg width="24" height="24" viewBox="0 0 24 24" fill="none" xmlns="http://www.w3.org/2000/svg">
<path d="M20.5 15.88L17.37 5.88C16.88 4.31 15.44 3.25 13.79 3.25H10.2C8.55 3.25 7.11 4.31 6.62 5.88L3.5 15.88C3.14 17.03 3.34 18.25 4.06 19.22C4.78 20.19 5.88 20.75 7.08 20.75H16.92C18.13 20.75 19.23 20.19 19.94 19.22C20.65 18.25 20.86 17.03 20.5 15.88ZM11.25 6C11.25 5.59 11.59 5.25 12 5.25C12.41 5.25 12.75 5.59 12.75 6V7C12.75 7.41 12.41 7.75 12 7.75C11.59 7.75 11.25 7.41 11.25 7V6ZM11.25 10C11.25 9.59 11.59 9.25 12 9.25C12.41 9.25 12.75 9.59 12.75 10V11C12.75 11.41 12.41 11.75 12 11.75C11.59 11.75 11.25 11.41 11.25 11V10ZM15.46 19.21C15.1 19.67 14.5 19.86 13.93 19.68L11.96 19.05L10.05 19.68C9.91 19.73 9.76 19.75 9.61 19.75C9.19 19.75 8.79 19.56 8.52 19.21C8.17 18.76 8.14 18.16 8.44 17.68L10.81 13.89C11.32 13.08 12.66 13.08 13.16 13.89L15.53 17.68C15.83 18.16 15.8 18.76 15.45 19.21H15.46Z" fill="black"/>
<path d="M9.94 18.15L11.58 17.63C11.86 17.54 12.16 17.54 12.44 17.63L14.08 18.15L12.02 14.85L9.96 18.15H9.94Z" fill="black"/>
</svg>
