<svg width="24" height="24" viewBox="0 0 24 24" fill="none" xmlns="http://www.w3.org/2000/svg">
<path d="M19.8199 13.76L18.8199 12.76C18.4899 12.43 18.0399 12.25 17.5799 12.25H12.7399V9.75H16.9899C17.9499 9.75 18.7399 8.96 18.7399 8V6C18.7399 5.04 17.9499 4.25 16.9899 4.25H12.7399V3C12.7399 2.59 12.3999 2.25 11.9899 2.25C11.5799 2.25 11.2399 2.59 11.2399 3V4.25H6.40991C5.94991 4.25 5.49991 4.44 5.16991 4.76L4.16991 5.76C3.48991 6.44 3.48991 7.55 4.16991 8.23L5.16991 9.23C5.49991 9.56 5.94991 9.74 6.40991 9.74H11.2499V12.24H6.99991C6.03991 12.24 5.24991 13.03 5.24991 13.99V15.99C5.24991 16.95 6.03991 17.74 6.99991 17.74H11.2499V20.99C11.2499 21.4 11.5899 21.74 11.9999 21.74C12.4099 21.74 12.7499 21.4 12.7499 20.99V17.74H17.5899C18.0499 17.74 18.4999 17.55 18.8299 17.23L19.8299 16.23C20.5099 15.55 20.5099 14.44 19.8299 13.76H19.8199Z" fill="black"/>
</svg>
