<svg width="24" height="24" viewBox="0 0 24 24" fill="none" xmlns="http://www.w3.org/2000/svg">
<path d="M21 11.25C20.59 11.25 20.25 11.59 20.25 12C20.25 16.55 16.55 20.25 12 20.25C7.45 20.25 3.75 16.55 3.75 12C3.75 7.45 7.45 3.75 12 3.75C13.98 3.75 15.89 4.46 17.39 5.76C17.31 5.99 17.25 6.24 17.25 6.5C17.25 7.74 18.26 8.75 19.5 8.75C20.74 8.75 21.75 7.74 21.75 6.5C21.75 5.26 20.74 4.25 19.5 4.25C19.07 4.25 18.67 4.38 18.32 4.59C16.56 3.08 14.32 2.25 12 2.25C6.62 2.25 2.25 6.62 2.25 12C2.25 17.38 6.62 21.75 12 21.75C17.38 21.75 21.75 17.38 21.75 12C21.75 11.59 21.41 11.25 21 11.25ZM19.5 5.75C19.91 5.75 20.25 6.09 20.25 6.5C20.25 6.91 19.91 7.25 19.5 7.25C19.09 7.25 18.75 6.91 18.75 6.5C18.75 6.09 19.09 5.75 19.5 5.75Z" fill="black"/>
<path d="M12 6.25C8.83 6.25 6.25 8.83 6.25 12C6.25 15.17 8.83 17.75 12 17.75C15.17 17.75 17.75 15.17 17.75 12C17.75 8.83 15.17 6.25 12 6.25ZM12 16.25C9.66 16.25 7.75 14.34 7.75 12C7.75 9.66 9.66 7.75 12 7.75C14.34 7.75 16.25 9.66 16.25 12C16.25 14.34 14.34 16.25 12 16.25Z" fill="black"/>
</svg>
