<svg width="24" height="24" viewBox="0 0 24 24" fill="none" xmlns="http://www.w3.org/2000/svg">
<path d="M17 4.25031H8.74999V3.46031C8.74999 2.79031 8.21999 2.24031 7.54999 2.22031C6.48999 2.20031 4.93999 2.36031 3.54999 3.40031C3.36999 3.54031 3.19999 3.68031 3.04999 3.82031C2.53999 4.30031 2.23999 5.01031 2.23999 5.77031V18.0103C2.23999 20.0803 3.91999 21.7603 5.98999 21.7603H16.99C19.61 21.7603 21.74 19.6303 21.74 17.0103V9.00031C21.74 6.38031 19.61 4.25031 16.99 4.25031H17ZM3.74999 5.76031C3.74999 5.42031 3.86999 5.11031 4.08999 4.90031C4.19999 4.80031 4.31999 4.69031 4.44999 4.59031C5.38999 3.89031 6.44999 3.71031 7.24999 3.70031V15.2103C6.26999 15.2103 4.95999 15.4303 3.74999 16.2503V5.76031ZM20.25 17.0003C20.25 18.7903 18.79 20.2503 17 20.2503H5.99999C4.83999 20.2503 3.89999 19.3703 3.77999 18.2503C3.98999 18.0103 4.20999 17.7903 4.44999 17.6003C5.47999 16.8303 6.65999 16.6803 7.46999 16.7203C7.79999 16.7203 8.11999 16.6003 8.36999 16.3703C8.60999 16.1303 8.74999 15.8103 8.74999 15.4703V5.75031H17C18.79 5.75031 20.25 7.21031 20.25 9.00031V17.0003Z" fill="black"/>
<path d="M15.15 8.25031H14.88C13.76 8.28031 12.74 8.83031 12.06 9.76031C11.37 10.7103 11.15 11.8903 11.47 13.0003C11.76 14.0103 12.22 14.9403 12.83 15.7603C13.32 16.4103 13.9 17.0003 14.56 17.4903C14.69 17.5903 14.85 17.6403 15.01 17.6403C15.17 17.6403 15.33 17.5903 15.46 17.4903C16.12 17.0003 16.7 16.4103 17.19 15.7603C17.75 15.0003 18.19 14.1503 18.48 13.2203C18.85 12.0603 18.65 10.7903 17.97 9.81031C17.31 8.87031 16.28 8.30031 15.15 8.25031ZM17.06 12.7703C16.82 13.5403 16.46 14.2403 15.99 14.8703C15.7 15.2503 15.38 15.6103 15.01 15.9303C14.65 15.6103 14.32 15.2503 14.03 14.8703C13.53 14.1903 13.15 13.4203 12.91 12.5903C12.72 11.9303 12.85 11.2203 13.27 10.6503C13.67 10.1003 14.27 9.78031 14.92 9.76031L14.9 9.01031L15.09 9.76031C15.76 9.79031 16.35 10.1203 16.75 10.6803C17.17 11.2803 17.29 12.0703 17.06 12.7803V12.7703Z" fill="black"/>
<path d="M15.02 11.2503C14.61 11.2503 14.27 11.5903 14.27 12.0003C14.27 12.4103 14.61 12.7503 15.02 12.7503C15.43 12.7503 15.77 12.4103 15.77 12.0003C15.77 11.5903 15.44 11.2503 15.02 11.2503Z" fill="black"/>
</svg>
