<svg width="24" height="24" viewBox="0 0 24 24" fill="none" xmlns="http://www.w3.org/2000/svg">
<path d="M18 12.2499C16.19 12.2499 14.67 13.5399 14.33 15.2499H14C12.21 15.2499 10.75 13.7899 10.75 11.9999V10.9999C10.75 8.37994 8.62 6.24994 6 6.24994H4.81L5.53 5.52994C5.82 5.23994 5.82 4.75994 5.53 4.46994C5.24 4.17994 4.76 4.17994 4.47 4.46994L2.47 6.46994C2.4 6.53994 2.34 6.62994 2.31 6.70994C2.27 6.79994 2.25 6.88994 2.25 6.99994C2.25 7.10994 2.27 7.19994 2.31 7.28994C2.35 7.37994 2.4 7.45994 2.47 7.52994L4.47 9.52994C4.62 9.67994 4.81 9.74994 5 9.74994C5.19 9.74994 5.38 9.67994 5.53 9.52994C5.82 9.23994 5.82 8.75994 5.53 8.46994L4.81 7.74994H6C7.79 7.74994 9.25 9.20994 9.25 10.9999V11.9999C9.25 14.6199 11.38 16.7499 14 16.7499H14.33C14.68 18.4599 16.19 19.7499 18 19.7499C20.07 19.7499 21.75 18.0699 21.75 15.9999C21.75 13.9299 20.07 12.2499 18 12.2499Z" fill="black"/>
</svg>
