<svg width="24" height="24" viewBox="0 0 24 24" fill="none" xmlns="http://www.w3.org/2000/svg">
<path d="M16.08 8.16025C16.01 8.07025 16.01 7.94025 16.08 7.85025L18.28 5.10025C18.7 4.57025 18.78 3.86025 18.49 3.25025C18.2 2.64025 17.59 2.26025 16.91 2.26025H5C4.04 2.26025 3.25 3.05025 3.25 4.01025V12.0003C3.25 12.2203 3.3 12.4303 3.37 12.6203C3.3 12.7303 3.25 12.8603 3.25 13.0003V21.0003C3.25 21.4103 3.59 21.7503 4 21.7503C4.41 21.7503 4.75 21.4103 4.75 21.0003V13.7203C4.83 13.7303 4.91 13.7503 5 13.7503H16.92C17.6 13.7503 18.2 13.3703 18.5 12.7603C18.8 12.1503 18.71 11.4403 18.29 10.9103L16.09 8.16025H16.08ZM17.14 12.1103C17.11 12.1603 17.05 12.2503 16.91 12.2503H5C4.86 12.2503 4.75 12.1403 4.75 12.0003V4.00025C4.75 3.86025 4.86 3.75025 5 3.75025H16.92C17.06 3.75025 17.12 3.84025 17.15 3.89025C17.18 3.94025 17.21 4.05025 17.12 4.15025L14.92 6.90025C14.4 7.54025 14.4 8.44025 14.92 9.09025L17.12 11.8403C17.21 11.9503 17.18 12.0503 17.15 12.1103H17.14Z" fill="black"/>
</svg>
