<svg width="24" height="24" viewBox="0 0 24 24" fill="none" xmlns="http://www.w3.org/2000/svg">
<path d="M18.4 4.66L15.57 7.49C16.96 8.59 17.76 10.22 17.76 11.99C17.76 15.16 15.18 17.74 12.01 17.74C8.84002 17.74 6.26002 15.16 6.26002 11.99C6.26002 10.21 7.06002 8.58 8.45002 7.49L5.62002 4.66C3.57002 6.45 2.27002 9.07 2.27002 12C2.27002 17.38 6.64002 21.75 12.02 21.75C17.4 21.75 21.77 17.38 21.77 12C21.77 9.07 20.47 6.45 18.42 4.66H18.4Z" fill="black"/>
<path d="M12 8.94L17.18 3.76C15.68 2.81 13.9 2.25 12 2.25C10.1 2.25 8.32002 2.81 6.82002 3.76L12 8.94Z" fill="black"/>
<path d="M12 10.75C11.81 10.75 11.62 10.68 11.47 10.53L9.49002 8.55C9.49002 8.55 9.47002 8.58 9.45002 8.6C8.37002 9.41 7.75002 10.65 7.75002 12C7.75002 14.34 9.66002 16.25 12 16.25C14.34 16.25 16.25 14.34 16.25 12C16.25 10.65 15.63 9.41 14.55 8.6C14.53 8.59 14.52 8.57 14.51 8.55L12.53 10.53C12.38 10.68 12.19 10.75 12 10.75Z" fill="black"/>
</svg>
