<svg width="24" height="24" viewBox="0 0 24 24" fill="none" xmlns="http://www.w3.org/2000/svg">
<path d="M11.25 10.67V16.25H10C9.59 16.25 9.25 16.59 9.25 17C9.25 17.41 9.59 17.75 10 17.75H14C14.41 17.75 14.75 17.41 14.75 17C14.75 16.59 14.41 16.25 14 16.25H12.75V10.67C14.46 10.32 15.75 8.81 15.75 7C15.75 4.93 14.07 3.25 12 3.25C9.93 3.25 8.25 4.93 8.25 7C8.25 8.81 9.54 10.33 11.25 10.67Z" fill="black"/>
<path d="M14.25 13.12V14.76C15.37 14.89 16.25 15.84 16.25 17C16.25 18.24 15.24 19.25 14 19.25H10C8.76 19.25 7.75 18.24 7.75 17C7.75 15.84 8.63 14.89 9.75 14.76V13.12C5.59 13.55 2.5 15.12 2.5 17C2.5 19.21 6.75 21 12 21C17.25 21 21.5 19.21 21.5 17C21.5 15.12 18.41 13.55 14.25 13.12Z" fill="black"/>
</svg>
