<svg width="24" height="24" viewBox="0 0 24 24" fill="none" xmlns="http://www.w3.org/2000/svg">
<path d="M12 9.25C10.48 9.25 9.25 10.48 9.25 12C9.25 13.52 10.48 14.75 12 14.75C13.52 14.75 14.75 13.52 14.75 12C14.75 10.48 13.52 9.25 12 9.25ZM12 13.25C11.31 13.25 10.75 12.69 10.75 12C10.75 11.31 11.31 10.75 12 10.75C12.69 10.75 13.25 11.31 13.25 12C13.25 12.69 12.69 13.25 12 13.25Z" fill="black"/>
<path d="M21 11.25H19.71C19.36 7.57 16.42 4.64 12.75 4.29V3C12.75 2.59 12.41 2.25 12 2.25C11.59 2.25 11.25 2.59 11.25 3V4.29C7.57 4.64 4.64 7.58 4.29 11.25H3C2.59 11.25 2.25 11.59 2.25 12C2.25 12.41 2.59 12.75 3 12.75H4.29C4.64 16.43 7.58 19.36 11.25 19.71V21C11.25 21.41 11.59 21.75 12 21.75C12.41 21.75 12.75 21.41 12.75 21V19.71C16.43 19.36 19.36 16.42 19.71 12.75H21C21.41 12.75 21.75 12.41 21.75 12C21.75 11.59 21.41 11.25 21 11.25ZM12.75 18.2V17C12.75 16.59 12.41 16.25 12 16.25C11.59 16.25 11.25 16.59 11.25 17V18.2C8.4 17.86 6.14 15.6 5.8 12.75H7C7.41 12.75 7.75 12.41 7.75 12C7.75 11.59 7.41 11.25 7 11.25H5.8C6.14 8.4 8.4 6.14 11.25 5.8V7C11.25 7.41 11.59 7.75 12 7.75C12.41 7.75 12.75 7.41 12.75 7V5.8C15.6 6.14 17.86 8.4 18.2 11.25H17C16.59 11.25 16.25 11.59 16.25 12C16.25 12.41 16.59 12.75 17 12.75H18.2C17.86 15.6 15.6 17.86 12.75 18.2Z" fill="black"/>
</svg>
