<svg width="24" height="24" viewBox="0 0 24 24" fill="none" xmlns="http://www.w3.org/2000/svg">
<path d="M12 7.75C13.5188 7.75 14.75 6.51878 14.75 5C14.75 3.48122 13.5188 2.25 12 2.25C10.4812 2.25 9.24999 3.48122 9.24999 5C9.24999 6.51878 10.4812 7.75 12 7.75Z" fill="black"/>
<path d="M14.75 16V14C14.75 13.86 14.86 13.75 15 13.75C15.96 13.75 16.75 12.96 16.75 12V10C16.75 9.04 15.96 8.25 15 8.25H8.99999C8.03999 8.25 7.24999 9.04 7.24999 10V12C7.24999 12.96 8.03999 13.75 8.99999 13.75C9.13999 13.75 9.24999 13.86 9.24999 14V16C9.24999 16.96 10.04 17.75 11 17.75H13C13.96 17.75 14.75 16.96 14.75 16Z" fill="black"/>
<path d="M20.75 17.5C20.75 16.33 19.52 15.41 17.18 14.82C16.78 14.72 16.37 14.96 16.27 15.36C16.17 15.76 16.41 16.17 16.81 16.27C18.67 16.74 19.24 17.33 19.24 17.49C19.24 17.93 17.31 18.93 13.7 19.18C13.77 18.93 13.71 18.65 13.52 18.46C13.23 18.17 12.75 18.17 12.46 18.46L11.46 19.46C11.39 19.53 11.33 19.62 11.3 19.7C11.26 19.79 11.24 19.88 11.24 19.99C11.24 20.1 11.26 20.19 11.3 20.28C11.34 20.37 11.39 20.45 11.46 20.52L12.46 21.52C12.61 21.67 12.8 21.74 12.99 21.74C13.18 21.74 13.37 21.67 13.52 21.52C13.75 21.29 13.79 20.96 13.67 20.68C17.33 20.44 20.74 19.42 20.74 17.49L20.75 17.5Z" fill="black"/>
<path d="M9.08999 19.07C5.99999 18.68 4.74999 17.8 4.74999 17.5C4.74999 17.34 5.32999 16.74 7.17999 16.28C7.57999 16.18 7.82999 15.77 7.71999 15.37C7.61999 14.97 7.21999 14.72 6.80999 14.83C4.47999 15.42 3.23999 16.34 3.23999 17.51C3.23999 19.63 7.19999 20.36 8.89999 20.57C8.92999 20.57 8.95999 20.57 8.99999 20.57C9.36999 20.57 9.69999 20.29 9.73999 19.91C9.78999 19.5 9.49999 19.12 9.08999 19.07Z" fill="black"/>
</svg>
