<svg width="24" height="24" viewBox="0 0 24 24" fill="none" xmlns="http://www.w3.org/2000/svg">
<path d="M8.22008 3.28033C7.82008 3.16033 7.40008 3.38033 7.28008 3.77033L2.28008 19.7803C2.16008 20.1803 2.38008 20.6003 2.77008 20.7203C2.84008 20.7403 2.92008 20.7503 2.99008 20.7503C3.31008 20.7503 3.61008 20.5403 3.71008 20.2203L8.72008 4.22033C8.84008 3.82033 8.62008 3.40033 8.23008 3.28033H8.22008Z" fill="black"/>
<path d="M21.7201 19.7803L16.7201 3.78033C16.6001 3.38033 16.1801 3.16033 15.7801 3.29033C15.3801 3.41033 15.1601 3.83033 15.2901 4.23033L20.2901 20.2303C20.3901 20.5503 20.6901 20.7603 21.0101 20.7603C21.0801 20.7603 21.1601 20.7503 21.2301 20.7303C21.6301 20.6103 21.8501 20.1903 21.7201 19.7903V19.7803Z" fill="black"/>
<path d="M13.1801 14.9003C12.6701 14.0903 11.3301 14.0903 10.8301 14.9003L8.46008 18.6903C8.16008 19.1703 8.19008 19.7703 8.54008 20.2203C8.81008 20.5703 9.21008 20.7603 9.63008 20.7603C9.77008 20.7603 9.92008 20.7403 10.0701 20.6903L11.9801 20.0603L13.9501 20.6903C14.5101 20.8703 15.1101 20.6903 15.4801 20.2203C15.8301 19.7703 15.8601 19.1703 15.5601 18.6903L13.1901 14.9003H13.1801ZM12.4301 18.6303C12.1501 18.5403 11.8501 18.5403 11.5701 18.6303L9.93008 19.1503L11.9901 15.8503L14.0501 19.1503L12.4101 18.6303H12.4301Z" fill="black"/>
<path d="M12.0001 7.75033C12.4101 7.75033 12.7501 7.41033 12.7501 7.00033V5.00033C12.7501 4.59033 12.4101 4.25033 12.0001 4.25033C11.5901 4.25033 11.2501 4.59033 11.2501 5.00033V7.00033C11.2501 7.41033 11.5901 7.75033 12.0001 7.75033Z" fill="black"/>
<path d="M12.0001 12.7503C12.4101 12.7503 12.7501 12.4103 12.7501 12.0003V10.0003C12.7501 9.59033 12.4101 9.25033 12.0001 9.25033C11.5901 9.25033 11.2501 9.59033 11.2501 10.0003V12.0003C11.2501 12.4103 11.5901 12.7503 12.0001 12.7503Z" fill="black"/>
</svg>
