<svg width="24" height="24" viewBox="0 0 24 24" fill="none" xmlns="http://www.w3.org/2000/svg">
<path d="M20.45 3.90012C19.63 3.39012 18.63 3.35012 17.77 3.78012L15.56 4.89012C15.21 5.07012 14.79 5.07012 14.44 4.89012L10.23 2.78012C9.46 2.40012 8.54 2.40012 7.77 2.78012L3.77 4.78012C2.83 5.25012 2.25 6.19012 2.25 7.24012V17.7701C2.25 18.7301 2.74 19.6001 3.55 20.1101C4.37 20.6201 5.37 20.6601 6.23 20.2301L8.44 19.1201C8.79 18.9401 9.21 18.9401 9.56 19.1201L13.77 21.2301C14.15 21.4201 14.58 21.5201 15 21.5201C15.42 21.5201 15.84 21.4201 16.23 21.2301L20.23 19.2301C21.17 18.7601 21.75 17.8201 21.75 16.7701V6.24012C21.75 5.28012 21.26 4.41012 20.45 3.90012ZM9.75 15.0001C9.75 15.4101 9.41 15.7501 9 15.7501C8.59 15.7501 8.25 15.4101 8.25 15.0001V7.00012C8.25 6.59012 8.59 6.25012 9 6.25012C9.41 6.25012 9.75 6.59012 9.75 7.00012V15.0001ZM15.75 17.0001C15.75 17.4101 15.41 17.7501 15 17.7501C14.59 17.7501 14.25 17.4101 14.25 17.0001V9.00012C14.25 8.59012 14.59 8.25012 15 8.25012C15.41 8.25012 15.75 8.59012 15.75 9.00012V17.0001Z" fill="black"/>
</svg>
