<svg width="24" height="24" viewBox="0 0 24 24" fill="none" xmlns="http://www.w3.org/2000/svg">
<path d="M16.08 8.16025C16.01 8.07025 16.01 7.94025 16.08 7.85025L18.28 5.10025C18.7 4.57025 18.78 3.86025 18.49 3.25025C18.2 2.64025 17.59 2.26025 16.91 2.26025H5C4.04 2.26025 3.25 3.05025 3.25 4.01025V21.0003C3.25 21.4103 3.59 21.7503 4 21.7503C4.41 21.7503 4.75 21.4103 4.75 21.0003V13.7203C4.83 13.7303 4.91 13.7503 5 13.7503H16.92C17.6 13.7503 18.2 13.3703 18.5 12.7603C18.8 12.1503 18.71 11.4403 18.29 10.9103L16.09 8.16025H16.08Z" fill="black"/>
</svg>
