<svg width="24" height="24" viewBox="0 0 24 24" fill="none" xmlns="http://www.w3.org/2000/svg">
<path d="M18 12.2499C16.19 12.2499 14.67 13.5399 14.33 15.2499H14C12.21 15.2499 10.75 13.7899 10.75 11.9999V10.9999C10.75 8.37994 8.62 6.24994 6 6.24994H4.81L5.53 5.52994C5.82 5.23994 5.82 4.75994 5.53 4.46994C5.24 4.17994 4.76 4.17994 4.47 4.46994L2.47 6.46994C2.4 6.53994 2.35 6.61994 2.31 6.70994C2.23 6.88994 2.23 7.09994 2.31 7.27994C2.35 7.36994 2.4 7.44994 2.47 7.51994L4.47 9.51994C4.62 9.66994 4.81 9.73994 5 9.73994C5.19 9.73994 5.38 9.66994 5.53 9.51994C5.82 9.22994 5.82 8.74994 5.53 8.45994L4.81 7.73994H6C7.79 7.73994 9.25 9.19994 9.25 10.9899V11.9899C9.25 14.6099 11.38 16.7399 14 16.7399H14.33C14.68 18.4499 16.19 19.7399 18 19.7399C20.07 19.7399 21.75 18.0599 21.75 15.9899C21.75 13.9199 20.07 12.2399 18 12.2399V12.2499ZM18 18.2499C16.76 18.2499 15.75 17.2399 15.75 15.9999C15.75 14.7599 16.76 13.7499 18 13.7499C19.24 13.7499 20.25 14.7599 20.25 15.9999C20.25 17.2399 19.24 18.2499 18 18.2499Z" fill="black"/>
</svg>
