<svg width="24" height="24" viewBox="0 0 24 24" fill="none" xmlns="http://www.w3.org/2000/svg">
<path d="M16 2.25H8C4.83 2.25 2.25 4.83 2.25 8V16C2.25 19.17 4.83 21.75 8 21.75H16C19.17 21.75 21.75 19.17 21.75 16V8C21.75 4.83 19.17 2.25 16 2.25ZM20.25 16C20.25 18.34 18.34 20.25 16 20.25H8C5.66 20.25 3.75 18.34 3.75 16V8C3.75 5.66 5.66 3.75 8 3.75H16C18.34 3.75 20.25 5.66 20.25 8V16Z" fill="black"/>
<path d="M14.83 9.64C14.8 9.54 14.74 9.45 14.68 9.38C14.68 9.38 14.66 9.37 14.65 9.36C14.58 9.29 14.49 9.23 14.4 9.2C14.39 9.2 14.38 9.18 14.36 9.18L9.89 7.69C9.26 7.48 8.57 7.64 8.1 8.11C7.63 8.58 7.47 9.27 7.68 9.9L9.17 14.37C9.17 14.37 9.19 14.39 9.19 14.41C9.23 14.51 9.28 14.59 9.36 14.66C9.36 14.66 9.37 14.68 9.38 14.69C9.45 14.76 9.54 14.81 9.64 14.84L14.11 16.33C14.29 16.39 14.48 16.42 14.67 16.42C15.13 16.42 15.57 16.24 15.9 15.91C16.37 15.44 16.53 14.75 16.32 14.12L14.83 9.65V9.64ZM9.16 9.16C9.16 9.16 9.25 9.09 9.33 9.09C9.36 9.09 9.38 9.09 9.41 9.1L12.73 10.21L10.2 12.74L9.09 9.43C9.05 9.3 9.11 9.21 9.15 9.17L9.16 9.16ZM14.84 14.84C14.84 14.84 14.71 14.94 14.58 14.9L11.26 13.79L13.79 11.26L14.9 14.57C14.94 14.7 14.88 14.79 14.84 14.83V14.84Z" fill="black"/>
</svg>
