<svg width="24" height="24" viewBox="0 0 24 24" fill="none" xmlns="http://www.w3.org/2000/svg">
<path d="M12 13.25C12.6904 13.25 13.25 12.6904 13.25 12C13.25 11.3096 12.6904 10.75 12 10.75C11.3096 10.75 10.75 11.3096 10.75 12C10.75 12.6904 11.3096 13.25 12 13.25Z" fill="black"/>
<path d="M15.75 12C15.75 10.76 16.76 9.75 18 9.75H19.41C18.66 7.29 16.71 5.35 14.25 4.6V6C14.25 7.24 13.24 8.25 12 8.25C10.76 8.25 9.75 7.24 9.75 6V4.6C7.29 5.35 5.33 7.28 4.59 9.75H6C7.24 9.75 8.25 10.76 8.25 12C8.25 13.24 7.24 14.25 6 14.25H4.6C5.35 16.71 7.28 18.67 9.75 19.41V18C9.75 16.76 10.76 15.75 12 15.75C13.24 15.75 14.25 16.76 14.25 18V19.41C16.71 18.66 18.65 16.71 19.4 14.25H18C16.76 14.25 15.75 13.24 15.75 12ZM12 14.75C10.48 14.75 9.25 13.52 9.25 12C9.25 10.48 10.48 9.25 12 9.25C13.52 9.25 14.75 10.48 14.75 12C14.75 13.52 13.52 14.75 12 14.75Z" fill="black"/>
<path d="M12 6.75C12.41 6.75 12.75 6.41 12.75 6V3C12.75 2.59 12.41 2.25 12 2.25C11.59 2.25 11.25 2.59 11.25 3V6C11.25 6.41 11.59 6.75 12 6.75Z" fill="black"/>
<path d="M21 11.25H18C17.59 11.25 17.25 11.59 17.25 12C17.25 12.41 17.59 12.75 18 12.75H21C21.41 12.75 21.75 12.41 21.75 12C21.75 11.59 21.41 11.25 21 11.25Z" fill="black"/>
<path d="M12 17.25C11.59 17.25 11.25 17.59 11.25 18V21C11.25 21.41 11.59 21.75 12 21.75C12.41 21.75 12.75 21.41 12.75 21V18C12.75 17.59 12.41 17.25 12 17.25Z" fill="black"/>
<path d="M6.75 12C6.75 11.59 6.41 11.25 6 11.25H3C2.59 11.25 2.25 11.59 2.25 12C2.25 12.41 2.59 12.75 3 12.75H6C6.41 12.75 6.75 12.41 6.75 12Z" fill="black"/>
</svg>
