<svg width="24" height="24" viewBox="0 0 24 24" fill="none" xmlns="http://www.w3.org/2000/svg">
<path d="M12 2.25C6.62 2.25 2.25 6.62 2.25 12C2.25 17.38 6.62 21.75 12 21.75C17.38 21.75 21.75 17.38 21.75 12C21.75 6.62 17.38 2.25 12 2.25ZM20.21 11.25H15.74C15.66 8.49 15.17 5.79 14.28 4.08C17.49 5 19.9 7.83 20.21 11.25ZM12 20.25C11.27 20.25 9.89 17.61 9.76 12.75H14.23C14.1 17.61 12.72 20.25 11.99 20.25H12ZM9.76 11.25C9.89 6.39 11.27 3.75 12 3.75C12.73 3.75 14.11 6.39 14.24 11.25H9.76ZM9.72 4.08C8.83 5.79 8.34 8.49 8.26 11.25H3.79C4.1 7.82 6.51 5 9.72 4.08ZM3.79 12.75H8.26C8.34 15.51 8.83 18.21 9.72 19.92C6.51 19 4.1 16.17 3.79 12.75ZM14.28 19.92C15.17 18.21 15.66 15.51 15.74 12.75H20.21C19.9 16.18 17.49 19 14.28 19.92Z" fill="black"/>
</svg>
