<svg width="24" height="24" viewBox="0 0 24 24" fill="none" xmlns="http://www.w3.org/2000/svg">
<path d="M17.15 4.20967C15.5 2.73967 13.28 2.04967 11.07 2.30967C7.19001 2.76967 4.26001 6.19967 4.26001 10.2997C4.26001 12.2297 4.96001 14.0897 6.23001 15.5397L10.7 20.6397C11.03 21.0197 11.51 21.2397 12.02 21.2397C12.53 21.2397 13 21.0197 13.34 20.6397L17.81 15.5397C19.08 14.0897 19.78 12.2297 19.78 10.2997V10.0097C19.78 7.79967 18.83 5.68967 17.18 4.21967L17.15 4.20967ZM15 10.7497H12.75V12.9997C12.75 13.4097 12.41 13.7497 12 13.7497C11.59 13.7497 11.25 13.4097 11.25 12.9997V10.7497H9.00001C8.59001 10.7497 8.25001 10.4097 8.25001 9.99967C8.25001 9.58967 8.59001 9.24967 9.00001 9.24967H11.25V6.99967C11.25 6.58967 11.59 6.24967 12 6.24967C12.41 6.24967 12.75 6.58967 12.75 6.99967V9.24967H15C15.41 9.24967 15.75 9.58967 15.75 9.99967C15.75 10.4097 15.41 10.7497 15 10.7497Z" fill="black"/>
</svg>
