<svg width="24" height="24" viewBox="0 0 24 24" fill="none" xmlns="http://www.w3.org/2000/svg">
<path d="M12 2.25C6.62 2.25 2.25 6.62 2.25 12C2.25 17.38 6.62 21.75 12 21.75C17.38 21.75 21.75 17.38 21.75 12C21.75 6.62 17.38 2.25 12 2.25ZM16.09 4.85L12 8.94L7.91 4.85C9.12 4.16 10.51 3.75 12 3.75C13.49 3.75 14.88 4.15 16.09 4.85ZM14.55 8.6C15.63 9.41 16.25 10.65 16.25 12C16.25 14.34 14.34 16.25 12 16.25C9.66 16.25 7.75 14.34 7.75 12C7.75 10.65 8.37 9.41 9.45 8.6C9.47 8.59 9.48 8.57 9.49 8.55L11.47 10.53C11.62 10.68 11.81 10.75 12 10.75C12.19 10.75 12.38 10.68 12.53 10.53L14.51 8.55C14.51 8.55 14.53 8.58 14.55 8.6ZM12 20.25C7.45 20.25 3.75 16.55 3.75 12C3.75 9.49 4.88 7.24 6.66 5.72L8.43 7.49C7.04 8.59 6.24 10.22 6.24 11.99C6.24 15.16 8.82 17.74 11.99 17.74C15.16 17.74 17.74 15.16 17.74 11.99C17.74 10.21 16.94 8.58 15.55 7.49L17.32 5.72C19.1 7.23 20.23 9.49 20.23 12C20.23 16.55 16.53 20.25 11.98 20.25H12Z" fill="black"/>
</svg>
