<svg width="24" height="24" viewBox="0 0 24 24" fill="none" xmlns="http://www.w3.org/2000/svg">
<path d="M4.44999 17.6003C5.47999 16.8303 6.65999 16.6803 7.46999 16.7203C7.79999 16.7203 8.11999 16.6003 8.36999 16.3703C8.60999 16.1303 8.74999 15.8103 8.74999 15.4703V3.46031C8.74999 2.79031 8.21999 2.24031 7.54999 2.22031C6.48999 2.20031 4.93999 2.36031 3.54999 3.40031C3.36999 3.54031 3.19999 3.68031 3.04999 3.82031C2.53999 4.30031 2.23999 5.01031 2.23999 5.77031V18.0103C2.23999 18.3303 2.44999 18.6203 2.74999 18.7203C2.82999 18.7503 2.90999 18.7603 2.98999 18.7603C3.21999 18.7603 3.43999 18.6503 3.58999 18.4603C3.83999 18.1303 4.11999 17.8403 4.43999 17.6103L4.44999 17.6003Z" fill="black"/>
<path d="M16.09 9.75031H15.93C15.28 9.77031 14.68 10.0903 14.28 10.6403C13.86 11.2103 13.73 11.9203 13.92 12.5803C14.16 13.4203 14.54 14.1903 15.04 14.8603C15.33 15.2403 15.65 15.6003 16.02 15.9203C16.38 15.6003 16.71 15.2403 17 14.8603C17.46 14.2403 17.82 13.5303 18.07 12.7603C18.3 12.0503 18.18 11.2603 17.76 10.6603C17.37 10.1003 16.78 9.77031 16.1 9.74031L16.09 9.75031ZM16.02 12.7503C15.61 12.7503 15.27 12.4103 15.27 12.0003C15.27 11.5903 15.6 11.2503 16.02 11.2503C16.44 11.2503 16.77 11.5903 16.77 12.0003C16.77 12.4103 16.44 12.7503 16.02 12.7503Z" fill="black"/>
<path d="M17 4.25031H10.25V15.4603C10.25 16.2003 9.93999 16.9203 9.40999 17.4403C8.89999 17.9403 8.20999 18.2103 7.47999 18.2103H7.26999C6.74999 18.2103 5.99999 18.3103 5.34999 18.8003C5.14999 18.9503 4.95999 19.1403 4.79999 19.3503C4.37999 19.9003 3.71999 20.2303 3.02999 20.2403C3.70999 21.1503 4.77999 21.7403 5.99999 21.7403H17C19.62 21.7403 21.75 19.6103 21.75 16.9903V9.00031C21.75 6.38031 19.62 4.25031 17 4.25031ZM19.49 13.2203C19.2 14.1503 18.76 15.0003 18.2 15.7603C17.71 16.4103 17.13 17.0003 16.47 17.4903C16.34 17.5903 16.18 17.6403 16.02 17.6403C15.86 17.6403 15.7 17.5903 15.57 17.4903C14.91 17.0003 14.33 16.4103 13.84 15.7603C13.23 14.9403 12.77 14.0103 12.48 13.0003C12.16 11.8903 12.37 10.7103 13.07 9.76031C13.75 8.83031 14.77 8.29031 15.89 8.25031H16.16C17.3 8.30031 18.33 8.87031 18.98 9.81031C19.67 10.7903 19.86 12.0703 19.49 13.2203Z" fill="black"/>
</svg>
