<svg width="24" height="24" viewBox="0 0 24 24" fill="none" xmlns="http://www.w3.org/2000/svg">
<path d="M21 11.25C20.59 11.25 20.25 11.59 20.25 12C20.25 16.55 16.55 20.25 12 20.25C7.45 20.25 3.75 16.55 3.75 12C3.75 7.45 7.45 3.75 12 3.75C13.98 3.75 15.89 4.46 17.39 5.76C17.31 5.99 17.25 6.24 17.25 6.5C17.25 7.74 18.26 8.75 19.5 8.75C20.74 8.75 21.75 7.74 21.75 6.5C21.75 5.26 20.74 4.25 19.5 4.25C19.07 4.25 18.67 4.38 18.32 4.59C16.56 3.08 14.32 2.25 12 2.25C6.62 2.25 2.25 6.62 2.25 12C2.25 17.38 6.62 21.75 12 21.75C17.38 21.75 21.75 17.38 21.75 12C21.75 11.59 21.41 11.25 21 11.25Z" fill="black"/>
<path d="M12 17.75C15.1756 17.75 17.75 15.1756 17.75 12C17.75 8.82436 15.1756 6.25 12 6.25C8.82436 6.25 6.25 8.82436 6.25 12C6.25 15.1756 8.82436 17.75 12 17.75Z" fill="black"/>
</svg>
