<svg width="24" height="24" viewBox="0 0 24 24" fill="none" xmlns="http://www.w3.org/2000/svg">
<path d="M16.55 19.7L14.36 16.05C13.86 15.22 12.98 14.72 12 14.72C11.03 14.72 10.15 15.22 9.64 16.05L7.45 19.7C7.13 20.23 7.2 20.91 7.61 21.35C7.85 21.61 8.16 21.75 8.49 21.75C8.66 21.75 8.83 21.71 9 21.63L11.47 20.46C11.81 20.3 12.2 20.3 12.54 20.46L15.01 21.63C15.49 21.86 16.03 21.75 16.4 21.35C16.81 20.9 16.87 20.22 16.56 19.69L16.55 19.7Z" fill="black"/>
<path d="M12 2.25C6.62 2.25 2.25 6.62 2.25 12C2.25 13.94 2.82 15.81 3.89 17.42C4.03 17.63 4.26 17.75 4.51 17.75H6.86L7.47 16.74C7.28 16.73 7.09 16.65 6.96 16.5C5.85 15.26 5.24 13.66 5.24 12C5.24 8.28 8.27 5.25 11.99 5.25C15.71 5.25 18.74 8.28 18.74 12C18.74 13.66 18.13 15.26 17.02 16.5C16.89 16.65 16.71 16.73 16.51 16.74L17.12 17.75H19.47C19.72 17.75 19.95 17.62 20.09 17.42C21.16 15.82 21.73 13.94 21.73 12C21.73 6.62 17.36 2.25 11.98 2.25H12Z" fill="black"/>
<path d="M8.38 15.25C9.16 13.98 10.51 13.21 12.01 13.21C13.51 13.21 14.86 13.97 15.64 15.25H16.14C16.87 14.33 17.27 13.18 17.27 12C17.27 9.11 14.92 6.75 12.02 6.75C9.12 6.75 6.77 9.11 6.77 12C6.77 13.18 7.17 14.33 7.9 15.25H8.4H8.38Z" fill="black"/>
</svg>
