<svg width="24" height="24" viewBox="0 0 24 24" fill="none" xmlns="http://www.w3.org/2000/svg">
<path d="M9.25 15.9999C9.25 16.4099 9.59 16.7499 10 16.7499H14C14.41 16.7499 14.75 16.4099 14.75 15.9999C14.75 15.5899 14.41 15.2499 14 15.2499H12.75V10.4599L16.55 8.55989C17.15 8.25989 17.52 7.65989 17.52 6.98989C17.52 6.31989 17.15 5.71989 16.55 5.41989L13.06 3.67989C12.67 3.47989 12.22 3.50989 11.84 3.73989C11.47 3.96989 11.25 4.36989 11.25 4.79989V15.2499H10C9.59 15.2499 9.25 15.5899 9.25 15.9999Z" fill="black"/>
<path d="M14.25 12.0499V13.7599C15.37 13.8899 16.25 14.8399 16.25 15.9999C16.25 17.2399 15.24 18.2499 14 18.2499H10C8.76 18.2499 7.75 17.2399 7.75 15.9999C7.75 14.8399 8.63 13.8899 9.75 13.7599V12.0499C5.59 12.4799 2.5 14.0499 2.5 15.9299C2.5 18.1399 6.75 19.9299 12 19.9299C17.25 19.9299 21.5 18.1399 21.5 15.9299C21.5 14.0499 18.41 12.4799 14.25 12.0499Z" fill="black"/>
</svg>
