<svg width="24" height="24" viewBox="0 0 24 24" fill="none" xmlns="http://www.w3.org/2000/svg">
<path d="M5 8.75C6.25 8.75 7.3 7.9 7.63 6.75H16C17.24 6.75 18.25 7.76 18.25 9V9.19L17.53 8.47C17.24 8.18 16.76 8.18 16.47 8.47C16.18 8.76 16.18 9.24 16.47 9.53L18.47 11.53C18.54 11.6 18.62 11.65 18.71 11.69C18.8 11.73 18.9 11.75 19 11.75C19.1 11.75 19.2 11.73 19.29 11.69C19.38 11.65 19.46 11.6 19.53 11.53L21.53 9.53C21.82 9.24 21.82 8.76 21.53 8.47C21.24 8.18 20.76 8.18 20.47 8.47L19.75 9.19V9C19.75 6.93 18.07 5.25 16 5.25H7.63C7.3 4.1 6.25 3.25 5 3.25C3.48 3.25 2.25 4.48 2.25 6C2.25 7.52 3.48 8.75 5 8.75ZM5 4.75C5.69 4.75 6.25 5.31 6.25 6C6.25 6.69 5.69 7.25 5 7.25C4.31 7.25 3.75 6.69 3.75 6C3.75 5.31 4.31 4.75 5 4.75Z" fill="black"/>
<path d="M19 15.25C17.75 15.25 16.7 16.1 16.37 17.25H8C6.76 17.25 5.75 16.24 5.75 15V14.81L6.47 15.53C6.62 15.68 6.81 15.75 7 15.75C7.19 15.75 7.38 15.68 7.53 15.53C7.82 15.24 7.82 14.76 7.53 14.47L5.53 12.47C5.46 12.4 5.38 12.35 5.29 12.31C5.11 12.23 4.9 12.23 4.72 12.31C4.63 12.35 4.55 12.4 4.48 12.47L2.48 14.47C2.19 14.76 2.19 15.24 2.48 15.53C2.77 15.82 3.25 15.82 3.54 15.53L4.26 14.81V15C4.26 17.07 5.94 18.75 8.01 18.75H16.38C16.71 19.9 17.76 20.75 19.01 20.75C20.53 20.75 21.76 19.52 21.76 18C21.76 16.48 20.53 15.25 19.01 15.25H19ZM19 19.25C18.31 19.25 17.75 18.69 17.75 18C17.75 17.31 18.31 16.75 19 16.75C19.69 16.75 20.25 17.31 20.25 18C20.25 18.69 19.69 19.25 19 19.25Z" fill="black"/>
</svg>
