<svg width="24" height="24" viewBox="0 0 24 24" fill="none" xmlns="http://www.w3.org/2000/svg">
<path d="M16 2.25H8C4.83 2.25 2.25 4.83 2.25 8V16C2.25 19.17 4.83 21.75 8 21.75H16C19.17 21.75 21.75 19.17 21.75 16V8C21.75 4.83 19.17 2.25 16 2.25ZM3.75 16V8C3.75 7.1 4.04 6.27 4.52 5.58L10.94 12L4.52 18.42C4.04 17.73 3.75 16.9 3.75 16ZM8 20.25C7.1 20.25 6.27 19.96 5.58 19.48L12 13.06L18.42 19.48C17.73 19.96 16.9 20.25 16 20.25H8ZM20.25 16C20.25 16.9 19.96 17.73 19.48 18.42L5.58 4.52C6.27 4.04 7.1 3.75 8 3.75H16C18.34 3.75 20.25 5.66 20.25 8V16Z" fill="black"/>
</svg>
