<svg width="24" height="24" viewBox="0 0 24 24" fill="none" xmlns="http://www.w3.org/2000/svg">
<path d="M15.6101 15.08L13.9401 14.84L13.1901 13.33C13.0901 13.12 12.9301 12.95 12.7401 12.82V11.75H13.9901C14.2501 11.75 14.4901 11.62 14.6301 11.39C14.7701 11.17 14.7801 10.89 14.6601 10.66L10.8001 2.94C10.5901 2.51 10.1601 2.25 9.68009 2.25H4.81009C4.37009 2.25 3.98009 2.47 3.75009 2.84C3.52009 3.21 3.50009 3.67 3.69009 4.06L7.05009 10.78C7.35009 11.38 7.95009 11.75 8.62009 11.75H11.2501V12.82C11.0701 12.95 10.9101 13.12 10.8001 13.33L10.0501 14.84L8.38009 15.08C7.87009 15.15 7.46009 15.5 7.30009 15.99C7.14009 16.48 7.27009 17 7.64009 17.36L8.85009 18.54L8.56009 20.2C8.47009 20.7 8.68009 21.2 9.09009 21.51C9.32009 21.68 9.60009 21.76 9.87009 21.76C10.0801 21.76 10.3001 21.71 10.4901 21.61L11.9801 20.83L13.4701 21.61C13.9201 21.85 14.4601 21.81 14.8701 21.51C15.2801 21.21 15.4901 20.71 15.4001 20.2L15.1101 18.54L16.3201 17.36C16.6901 17 16.8201 16.48 16.6601 15.99C16.5001 15.5 16.0901 15.16 15.5801 15.08H15.6101Z" fill="black"/>
<path d="M20.2501 2.84C20.0201 2.47 19.6201 2.25 19.1901 2.25H14.3201C13.8301 2.25 13.3801 2.54 13.1801 2.99L12.8601 3.7L16.0101 9.99C16.2601 10.48 16.3001 11.03 16.1701 11.54C16.5001 11.37 16.7701 11.12 16.9501 10.77L20.3101 4.05C20.5001 3.66 20.4801 3.21 20.2501 2.83V2.84Z" fill="black"/>
</svg>
