<svg width="24" height="24" viewBox="0 0 24 24" fill="none" xmlns="http://www.w3.org/2000/svg">
<path d="M19 3.25H5C3.48 3.25 2.25 4.48 2.25 6V13C2.25 14.52 3.48 15.75 5 15.75H6C6.41 15.75 6.75 15.41 6.75 15C6.75 14.59 6.41 14.25 6 14.25H5C4.31 14.25 3.75 13.69 3.75 13V6C3.75 5.31 4.31 4.75 5 4.75H19C19.69 4.75 20.25 5.31 20.25 6V13C20.25 13.69 19.69 14.25 19 14.25H18C17.59 14.25 17.25 14.59 17.25 15C17.25 15.41 17.59 15.75 18 15.75H19C20.52 15.75 21.75 14.52 21.75 13V6C21.75 4.48 20.52 3.25 19 3.25Z" fill="black"/>
<path d="M12 10.25C9.93 10.25 8.25 11.93 8.25 14C8.25 14.98 8.63 15.86 9.25 16.53V21C9.25 21.26 9.38 21.5 9.61 21.64C9.83 21.78 10.11 21.79 10.34 21.67L12 20.84L13.67 21.67C13.78 21.72 13.89 21.75 14 21.75C14.14 21.75 14.27 21.71 14.39 21.64C14.61 21.5 14.75 21.26 14.75 21V16.53C15.37 15.86 15.75 14.98 15.75 14C15.75 11.93 14.07 10.25 12 10.25ZM12 11.75C13.24 11.75 14.25 12.76 14.25 14C14.25 15.24 13.24 16.25 12 16.25C10.76 16.25 9.75 15.24 9.75 14C9.75 12.76 10.76 11.75 12 11.75ZM12.34 19.33C12.13 19.22 11.88 19.22 11.67 19.33L10.76 19.79V17.52C11.15 17.66 11.57 17.75 12.01 17.75C12.45 17.75 12.87 17.66 13.26 17.52V19.79L12.35 19.33H12.34Z" fill="black"/>
</svg>
