<svg width="24" height="24" viewBox="0 0 24 24" fill="none" xmlns="http://www.w3.org/2000/svg">
<path d="M20 11.25H15.75V7C15.75 6.04 14.96 5.25 14 5.25H10C9.04 5.25 8.25 6.04 8.25 7V9.25H4C3.04 9.25 2.25 10.04 2.25 11V19C2.25 19.41 2.59 19.75 3 19.75H21C21.41 19.75 21.75 19.41 21.75 19V13C21.75 12.04 20.96 11.25 20 11.25ZM20 12.75C20.14 12.75 20.25 12.86 20.25 13V15.25H15.75V12.75H20ZM9.75 7C9.75 6.86 9.86 6.75 10 6.75H14C14.14 6.75 14.25 6.86 14.25 7V15.25H9.75V7ZM3.75 11C3.75 10.86 3.86 10.75 4 10.75H8.25V15.25H3.75V11ZM20.25 18.25H3.75V16.75H20.25V18.25Z" fill="black"/>
</svg>
