<svg width="24" height="24" viewBox="0 0 24 24" fill="none" xmlns="http://www.w3.org/2000/svg">
<path d="M20.2501 2.84C20.0201 2.47 19.6201 2.25 19.1901 2.25H14.3201C13.8301 2.25 13.3801 2.54 13.1801 2.99L12.0701 5.48L10.8001 2.94C10.5901 2.51 10.1601 2.25 9.68009 2.25H4.81009C4.37009 2.25 3.98009 2.47 3.75009 2.84C3.52009 3.21 3.50009 3.67 3.69009 4.06L7.05009 10.78C7.35009 11.38 7.95009 11.75 8.62009 11.75H11.2501V12.82C11.0701 12.95 10.9101 13.12 10.8001 13.33L10.0501 14.84L8.38009 15.08C7.87009 15.15 7.46009 15.5 7.30009 15.99C7.14009 16.48 7.27009 17 7.64009 17.36L8.85009 18.54L8.56009 20.2C8.47009 20.7 8.68009 21.2 9.09009 21.51C9.32009 21.68 9.60009 21.76 9.87009 21.76C10.0801 21.76 10.3001 21.71 10.4901 21.61L11.9801 20.83L13.4701 21.61C13.9201 21.85 14.4601 21.81 14.8701 21.51C15.2801 21.21 15.4901 20.71 15.4001 20.2L15.1101 18.54L16.3201 17.36C16.6901 17 16.8201 16.48 16.6601 15.99C16.5001 15.5 16.0901 15.16 15.5801 15.08L13.9101 14.84L13.1601 13.33C13.0601 13.12 12.9001 12.95 12.7101 12.82V11.75H15.3401C16.0101 11.75 16.6101 11.38 16.9101 10.78L20.2701 4.06C20.4601 3.67 20.4401 3.22 20.2101 2.84H20.2501ZM13.6401 16.31L15.0601 16.52L14.0301 17.52C13.7201 17.83 13.5701 18.27 13.6501 18.7L13.8901 20.11L12.6201 19.44C12.4301 19.34 12.2101 19.29 12.0001 19.29C11.7901 19.29 11.5701 19.34 11.3801 19.44L10.1101 20.11L10.3501 18.69C10.4201 18.26 10.2801 17.82 9.97009 17.51L8.94009 16.51L10.3601 16.3C10.7901 16.24 11.1701 15.97 11.3701 15.57L12.0001 14.28L12.6401 15.57C12.8401 15.96 13.2101 16.24 13.6401 16.3V16.31ZM8.62009 10.25C8.52009 10.25 8.44009 10.2 8.40009 10.11L5.21009 3.75H9.53009L12.7801 10.25H8.61009H8.62009ZM15.6101 10.11C15.5701 10.19 15.4801 10.25 15.3901 10.25H14.4701L12.9501 7.22L14.4901 3.75H18.7901L15.6101 10.11Z" fill="black"/>
</svg>
