<svg width="24" height="24" viewBox="0 0 24 24" fill="none" xmlns="http://www.w3.org/2000/svg">
<path d="M12 17.75C14.0711 17.75 15.75 16.0711 15.75 14C15.75 11.9289 14.0711 10.25 12 10.25C9.92893 10.25 8.25 11.9289 8.25 14C8.25 16.0711 9.92893 17.75 12 17.75Z" fill="black"/>
<path d="M19 3.25H5C3.48 3.25 2.25 4.48 2.25 6V13C2.25 14.52 3.48 15.75 5 15.75H7.07C6.87 15.2 6.75 14.62 6.75 14C6.75 11.1 9.1 8.75 12 8.75C14.9 8.75 17.25 11.1 17.25 14C17.25 14.62 17.12 15.2 16.93 15.75H19C20.52 15.75 21.75 14.52 21.75 13V6C21.75 4.48 20.52 3.25 19 3.25Z" fill="black"/>
<path d="M9.25 18.45V21C9.25 21.26 9.38 21.5 9.61 21.64C9.83 21.78 10.11 21.79 10.34 21.67L12 20.84L13.67 21.67C13.78 21.72 13.89 21.75 14 21.75C14.14 21.75 14.27 21.71 14.39 21.64C14.61 21.5 14.75 21.26 14.75 21V18.45C13.95 18.95 13.01 19.25 12 19.25C10.99 19.25 10.05 18.95 9.25 18.45Z" fill="black"/>
</svg>
