<svg width="24" height="24" viewBox="0 0 24 24" fill="none" xmlns="http://www.w3.org/2000/svg">
<path d="M21.6 18.15L17.92 13.24C18.45 12.28 18.75 11.17 18.75 10C18.75 6.28 15.72 3.25 12 3.25C8.28002 3.25 5.25002 6.28 5.25002 10C5.25002 11.17 5.55002 12.28 6.08002 13.24L2.40002 18.15C2.22002 18.39 2.20002 18.72 2.35002 18.98C2.50002 19.24 2.80002 19.38 3.10002 19.34L5.16002 19.05L5.45002 21.11C5.49002 21.41 5.71002 21.65 6.01002 21.73C6.07002 21.75 6.13002 21.75 6.20002 21.75C6.43002 21.75 6.66002 21.64 6.80002 21.45L10.46 16.57C10.95 16.69 11.47 16.75 12 16.75C12.53 16.75 13.04 16.68 13.54 16.57L17.2 21.45C17.34 21.64 17.57 21.75 17.8 21.75C17.86 21.75 17.92 21.75 17.99 21.73C18.28 21.65 18.5 21.41 18.55 21.11L18.84 19.05L20.9 19.34C21.19 19.38 21.5 19.24 21.65 18.98C21.8 18.72 21.79 18.39 21.6 18.15ZM6.69002 19.1L6.55002 18.09C6.49002 17.68 6.12002 17.38 5.70002 17.45L4.69002 17.59L7.00002 14.51C7.56002 15.13 8.23002 15.65 8.99002 16.02L6.69002 19.09V19.1ZM6.75002 10C6.75002 7.11 9.10002 4.75 12 4.75C14.9 4.75 17.25 7.11 17.25 10C17.25 12.89 14.89 15.25 12 15.25C9.11002 15.25 6.75002 12.89 6.75002 10ZM18.31 17.46C17.9 17.39 17.52 17.69 17.46 18.1L17.32 19.11L15.02 16.04C15.78 15.66 16.45 15.15 17.01 14.53L19.32 17.61L18.31 17.47V17.46Z" fill="black"/>
<path d="M12 6.25C9.93002 6.25 8.25002 7.93 8.25002 10C8.25002 12.07 9.93002 13.75 12 13.75C14.07 13.75 15.75 12.07 15.75 10C15.75 7.93 14.07 6.25 12 6.25ZM12 12.25C10.76 12.25 9.75002 11.24 9.75002 10C9.75002 8.76 10.76 7.75 12 7.75C13.24 7.75 14.25 8.76 14.25 10C14.25 11.24 13.24 12.25 12 12.25Z" fill="black"/>
</svg>
