<svg width="24" height="24" viewBox="0 0 24 24" fill="none" xmlns="http://www.w3.org/2000/svg">
<path d="M16 17.25H15.86L17.75 3.10001C17.8 2.74001 17.58 2.40001 17.24 2.29001C16.9 2.18001 16.52 2.32001 16.35 2.64001C15.9 3.46001 15.07 4.59001 13.66 5.34001C10.82 6.84001 7.89001 5.59001 7.33001 5.33001C7.08001 5.21001 6.78001 5.24001 6.56001 5.41001C6.34001 5.58001 6.23001 5.86001 6.27001 6.13001L8.12001 17.26H8.01001C7.05001 17.26 6.26001 18.05 6.26001 19.01V21.01C6.26001 21.42 6.60001 21.76 7.01001 21.76H17.01C17.42 21.76 17.76 21.42 17.76 21.01V19.01C17.76 18.05 16.97 17.26 16.01 17.26L16 17.25ZM7.95001 7.16001C9.43001 7.60001 11.9 7.96001 14.35 6.67001C14.95 6.35001 15.46 5.98001 15.9 5.59001L14.35 17.26H9.64001L7.96001 7.17001L7.95001 7.16001ZM16.25 20.25H7.75001V19C7.75001 18.86 7.86001 18.75 8.00001 18.75H16C16.14 18.75 16.25 18.86 16.25 19V20.25Z" fill="black"/>
<path d="M13 9.25001H11C10.59 9.25001 10.25 9.59001 10.25 10C10.25 10.41 10.59 10.75 11 10.75H13C13.41 10.75 13.75 10.41 13.75 10C13.75 9.59001 13.41 9.25001 13 9.25001Z" fill="black"/>
</svg>
