<svg width="24" height="24" viewBox="0 0 24 24" fill="none" xmlns="http://www.w3.org/2000/svg">
<path d="M12.64 10.1899L12 8.88988L11.36 10.1899C11.16 10.5999 10.77 10.8799 10.32 10.9499L8.89001 11.1599L9.93001 12.1699C10.26 12.4899 10.41 12.9499 10.33 13.3899L10.09 14.8199L11.37 14.1499C11.57 14.0399 11.79 13.9899 12.01 13.9899C12.23 13.9899 12.45 14.0399 12.65 14.1499L13.93 14.8199L13.69 13.3899C13.61 12.9399 13.76 12.4799 14.09 12.1599L15.13 11.1499L13.7 10.9399C13.25 10.8799 12.86 10.5899 12.66 10.1799L12.64 10.1899Z" fill="black"/>
<path d="M18.09 4.64988L13.09 2.47988C12.4 2.17988 11.61 2.17988 10.92 2.47988L5.92001 4.64988C4.91001 5.08988 4.26001 6.08988 4.26001 7.19988V11.9399C4.26001 13.0499 4.49001 16.8799 7.51001 19.5899C8.59001 20.5599 9.86001 21.2499 11.29 21.6499C11.52 21.7199 11.77 21.7499 12.01 21.7499C12.25 21.7499 12.49 21.7199 12.73 21.6499C14.16 21.2499 15.44 20.5499 16.51 19.5899C19.53 16.8799 19.76 13.0499 19.76 11.9399V7.19988C19.76 6.08988 19.11 5.08988 18.1 4.64988H18.09ZM16.33 12.0699L15.17 13.1999L15.44 14.7999C15.53 15.3199 15.32 15.8399 14.89 16.1499C14.46 16.4599 13.9 16.4999 13.43 16.2499L11.99 15.4999L10.55 16.2499C10.35 16.3599 10.12 16.4099 9.90001 16.4099C9.61001 16.4099 9.33001 16.3199 9.09001 16.1399C8.66001 15.8299 8.45001 15.3099 8.54001 14.7899L8.81001 13.1899L7.65001 12.0599C7.27001 11.6899 7.14001 11.1499 7.30001 10.6399C7.46001 10.1299 7.89001 9.76988 8.42001 9.69988L10.03 9.46988L10.75 8.01988C10.98 7.53988 11.46 7.24988 11.99 7.24988C12.52 7.24988 13 7.54988 13.23 8.01988L13.95 9.46988L15.56 9.69988C16.09 9.77988 16.51 10.1399 16.68 10.6399C16.85 11.1399 16.71 11.6899 16.33 12.0599V12.0699Z" fill="black"/>
</svg>
