<svg width="24" height="24" viewBox="0 0 24 24" fill="none" xmlns="http://www.w3.org/2000/svg">
<path d="M20.71 10.34C20.21 9.91004 19.52 9.79004 18.91 10.03L16.24 11.1L13.37 7.51004C12.7 6.67004 11.3 6.68004 10.64 7.51004L7.77 11.1L5.1 10.03C4.49 9.78004 3.8 9.90004 3.3 10.34C2.8 10.77 2.59 11.44 2.75 12.08L4.09 17.42C4.29 18.2 4.98 18.75 5.79 18.75H18.23C19.03 18.75 19.73 18.21 19.93 17.42L21.27 12.08C21.43 11.44 21.22 10.77 20.72 10.34H20.71ZM18.46 17.06C18.43 17.17 18.33 17.25 18.22 17.25H5.78C5.66 17.25 5.57 17.17 5.54 17.06L4.2 11.72C4.17 11.59 4.24 11.51 4.28 11.47C4.31 11.44 4.37 11.41 4.44 11.41C4.47 11.41 4.5 11.41 4.54 11.43L7.72 12.7C8.03 12.82 8.38 12.73 8.58 12.47L11.8 8.45004C11.93 8.29004 12.06 8.29004 12.19 8.45004L15.41 12.47C15.62 12.73 15.97 12.82 16.27 12.7L19.45 11.43C19.57 11.38 19.66 11.43 19.71 11.47C19.75 11.51 19.82 11.59 19.79 11.72L18.45 17.06H18.46Z" fill="black"/>
</svg>
