<svg width="24" height="24" viewBox="0 0 24 24" fill="none" xmlns="http://www.w3.org/2000/svg">
<path d="M12 8.69C11.73 9.23 11.21 9.61 10.61 9.7C11.04 10.13 11.24 10.73 11.14 11.33C11.41 11.19 11.7 11.12 12 11.12C12.3 11.12 12.59 11.19 12.86 11.33C12.76 10.73 12.96 10.12 13.39 9.7C12.79 9.61 12.27 9.23 12 8.69Z" fill="black"/>
<path d="M17.38 5.24L13.38 2.93C12.53 2.44 11.48 2.44 10.63 2.93L6.63 5.24C5.78 5.73 5.25 6.64 5.25 7.62V12.24C5.25 13.22 5.78 14.13 6.63 14.62L10.63 16.93C11.05 17.18 11.53 17.3 12.01 17.3C12.49 17.3 12.96 17.18 13.39 16.93L17.39 14.62C18.24 14.13 18.77 13.22 18.77 12.24V7.62C18.77 6.64 18.24 5.73 17.39 5.24H17.38ZM15.53 9.72L14.45 10.77C14.36 10.85 14.32 10.98 14.34 11.09L14.6 12.58C14.65 12.86 14.53 13.15 14.3 13.31C14.17 13.4 14.01 13.45 13.86 13.45C13.74 13.45 13.62 13.42 13.51 13.36L12.17 12.66C12.06 12.6 11.94 12.61 11.83 12.66L10.49 13.36C10.24 13.49 9.93 13.47 9.7 13.3C9.47 13.13 9.35 12.85 9.4 12.57L9.66 11.08C9.68 10.96 9.64 10.84 9.55 10.76L8.47 9.71C8.27 9.51 8.19 9.21 8.28 8.94C8.37 8.67 8.6 8.47 8.89 8.43L10.38 8.21C10.5 8.19 10.6 8.12 10.65 8.01L11.32 6.66C11.57 6.15 12.41 6.15 12.67 6.66L13.34 8.01C13.39 8.12 13.5 8.19 13.61 8.21L15.1 8.43C15.38 8.47 15.62 8.67 15.71 8.94C15.8 9.21 15.72 9.51 15.52 9.71L15.53 9.72Z" fill="black"/>
<path d="M12 18.8C11.25 18.8 10.52 18.6 9.87 18.23L7.25 16.71V20.5C7.25 20.94 7.47 21.33 7.84 21.56C8.04 21.69 8.27 21.75 8.49 21.75C8.68 21.75 8.87 21.71 9.05 21.62L11.99 20.15L14.93 21.62C15.32 21.82 15.78 21.8 16.15 21.57C16.52 21.34 16.74 20.94 16.74 20.51V16.72L14.11 18.24C13.47 18.61 12.73 18.81 11.98 18.81L12 18.8Z" fill="black"/>
</svg>
