<svg width="24" height="24" viewBox="0 0 24 24" fill="none" xmlns="http://www.w3.org/2000/svg">
<path d="M21.18 11.3694C21.7 10.8594 21.88 10.1194 21.66 9.42941C21.44 8.73941 20.85 8.23941 20.13 8.13941L15.9 7.51941C15.77 7.49941 15.66 7.41941 15.6 7.29941L13.71 3.45941C13.39 2.80941 12.74 2.39941 12.01 2.39941C11.28 2.39941 10.63 2.80941 10.31 3.45941L8.41998 7.29941C8.35998 7.41941 8.24998 7.49941 8.11998 7.51941L3.88998 8.13941C3.16998 8.23941 2.57998 8.73941 2.35998 9.42941C2.13998 10.1194 2.31998 10.8694 2.83998 11.3694L5.89998 14.3494C5.98998 14.4394 6.03998 14.5694 6.00998 14.6994L5.28998 18.9194C5.16998 19.6394 5.45998 20.3494 6.03998 20.7694C6.36998 21.0094 6.75998 21.1294 7.14998 21.1294C7.44998 21.1294 7.74998 21.0594 8.02998 20.9094L11.82 18.9194C11.93 18.8594 12.07 18.8594 12.19 18.9194L15.98 20.9094C16.62 21.2494 17.39 21.1994 17.98 20.7694C18.57 20.3394 18.86 19.6294 18.73 18.9194L18.01 14.6994C17.99 14.5694 18.03 14.4394 18.12 14.3494L21.18 11.3594V11.3694Z" fill="black"/>
</svg>
