<svg width="24" height="24" viewBox="0 0 24 24" fill="none" xmlns="http://www.w3.org/2000/svg">
<path d="M20 2.25H4C3.59 2.25 3.25 2.59 3.25 3V5C3.25 5.7 3.66 6.29 4.25 6.57V17C4.25 17.41 4.59 17.75 5 17.75C5.41 17.75 5.75 17.41 5.75 17V16.29L7.25 17.15V19C7.25 19.41 7.59 19.75 8 19.75C8.41 19.75 8.75 19.41 8.75 19V18.01L11.25 19.44V21C11.25 21.41 11.59 21.75 12 21.75C12.41 21.75 12.75 21.41 12.75 21V19.44L15.25 18.01V19C15.25 19.41 15.59 19.75 16 19.75C16.41 19.75 16.75 19.41 16.75 19V17.15L18.25 16.29V17C18.25 17.41 18.59 17.75 19 17.75C19.41 17.75 19.75 17.41 19.75 17V6.57C20.34 6.29 20.75 5.69 20.75 5V3C20.75 2.59 20.41 2.25 20 2.25ZM4.75 3.75H19.25V5C19.25 5.14 19.14 5.25 19 5.25H5C4.86 5.25 4.75 5.14 4.75 5V3.75ZM5.75 6.75H18.25V14.56L12 18.13L5.75 14.56V6.75Z" fill="black"/>
<path d="M12.12 14.15L13.32 14.78C13.43 14.84 13.55 14.87 13.67 14.87C13.83 14.87 13.98 14.82 14.11 14.73C14.34 14.56 14.46 14.28 14.41 14L14.18 12.67C14.17 12.59 14.19 12.51 14.25 12.45L15.22 11.51C15.42 11.31 15.5 11.01 15.41 10.74C15.32 10.47 15.09 10.27 14.81 10.23L13.47 10.04C13.39 10.03 13.32 9.98 13.28 9.9L12.68 8.69C12.43 8.18 11.59 8.18 11.33 8.69L10.73 9.9C10.69 9.97 10.62 10.03 10.54 10.04L9.2 10.23C8.92 10.27 8.68 10.47 8.6 10.74C8.51 11.01 8.59 11.31 8.79 11.51L9.76 12.45C9.82 12.51 9.85 12.59 9.83 12.67L9.6 14C9.55 14.28 9.67 14.57 9.9 14.73C10.13 14.9 10.44 14.92 10.69 14.79L11.89 14.16C11.96 14.12 12.05 14.12 12.12 14.16V14.15ZM11.33 12.76C11.37 12.29 11.22 11.83 10.91 11.48C11.37 11.37 11.76 11.09 12 10.69C12.24 11.09 12.64 11.38 13.09 11.48C12.78 11.83 12.63 12.3 12.67 12.76C12.24 12.58 11.75 12.58 11.32 12.76H11.33Z" fill="black"/>
</svg>
