<svg width="24" height="24" viewBox="0 0 24 24" fill="none" xmlns="http://www.w3.org/2000/svg">
<path d="M17.2 6.03C17.05 5.56 16.65 5.22 16.16 5.15L14.09 4.85L13.16 2.97C12.94 2.53 12.5 2.25 12 2.25C11.5 2.25 11.06 2.53 10.84 2.97L9.90997 4.85L7.83997 5.15C7.34997 5.22 6.94997 5.56 6.79997 6.03C6.64997 6.5 6.76997 7.01 7.12997 7.35L8.62997 8.81L8.27997 10.87C8.19997 11.36 8.38997 11.84 8.78997 12.13C9.01997 12.29 9.27997 12.38 9.54997 12.38C9.75997 12.38 9.95997 12.33 10.15 12.23L12 11.26L13.85 12.23C14.29 12.46 14.81 12.42 15.21 12.13C15.61 11.84 15.81 11.36 15.72 10.87L15.37 8.81L16.87 7.35C17.22 7 17.35 6.5 17.2 6.03Z" fill="black"/>
<path d="M9.26998 18.1C9.26998 18.1 9.27997 18.2 9.29997 18.24C9.31997 18.29 9.33997 18.33 9.35997 18.37C9.37997 18.41 9.40997 18.45 9.43997 18.49C9.46997 18.53 9.50997 18.56 9.54997 18.59C9.58997 18.62 9.61997 18.65 9.66997 18.67C9.70997 18.69 9.75998 18.71 9.80998 18.72C9.83998 18.72 9.86997 18.75 9.89997 18.75C9.91997 18.75 9.93997 18.75 9.94997 18.75C9.96997 18.75 9.97997 18.76 9.99997 18.76H14C14 18.76 14.07 18.76 14.11 18.76C14.14 18.76 14.17 18.74 14.2 18.73C14.25 18.72 14.3 18.7 14.34 18.68C14.38 18.66 14.42 18.63 14.46 18.6C14.5 18.57 14.53 18.54 14.57 18.5C14.6 18.46 14.63 18.42 14.65 18.38C14.67 18.34 14.7 18.3 14.71 18.25C14.73 18.2 14.73 18.15 14.74 18.11C14.74 18.08 14.76 18.05 14.76 18.01C14.76 17.99 14.76 17.98 14.75 17.96C14.75 17.94 14.75 17.93 14.75 17.91L14.17 13.86C13.82 13.82 13.47 13.74 13.16 13.57L12.01 12.96L10.85 13.57C10.54 13.73 10.19 13.82 9.83997 13.86L9.25997 17.91C9.25997 17.91 9.25997 17.94 9.25997 17.96C9.25997 17.98 9.24997 17.99 9.24997 18.01C9.24997 18.04 9.25998 18.07 9.26998 18.11V18.1Z" fill="black"/>
<path d="M16.26 17.89V18.2L16.22 18.37C16.21 18.45 16.18 18.58 16.14 18.72C16.09 18.86 16.03 18.99 15.96 19.11C15.88 19.25 15.8 19.36 15.71 19.46C15.61 19.57 15.51 19.67 15.4 19.75C15.29 19.84 15.17 19.92 15.04 19.99C14.94 20.04 14.82 20.09 14.71 20.12L14.59 20.17L14.34 20.22C14.24 20.24 14.12 20.24 14.01 20.24H9.78997L9.72997 20.22L9.47997 20.18L9.32997 20.12C9.21997 20.09 9.10997 20.05 8.98997 19.99C8.85997 19.92 8.73997 19.84 8.62997 19.75C8.51997 19.66 8.40997 19.57 8.31997 19.46C8.22997 19.36 8.15997 19.25 8.08997 19.13C8.00997 18.99 7.94997 18.86 7.89997 18.73C7.85997 18.62 7.83997 18.51 7.81997 18.4L7.77997 18.27C7.77997 18.27 7.76997 17.98 7.76997 17.97V17.76C7.46997 18.08 7.26997 18.51 7.26997 19V21C7.26997 21.41 7.60998 21.75 8.01998 21.75H16.02C16.43 21.75 16.77 21.41 16.77 21V19C16.77 18.52 16.57 18.08 16.26 17.77L16.28 17.9L16.26 17.89Z" fill="black"/>
</svg>
