<svg width="24" height="24" viewBox="0 0 24 24" fill="none" xmlns="http://www.w3.org/2000/svg">
<path d="M12 19.2494C13.7949 19.2494 15.25 17.7943 15.25 15.9994C15.25 14.2045 13.7949 12.7494 12 12.7494C10.2051 12.7494 8.74998 14.2045 8.74998 15.9994C8.74998 17.7943 10.2051 19.2494 12 19.2494Z" fill="black"/>
<path d="M20.97 5.90938L18.53 3.46938C18.37 3.30938 18.14 3.22938 17.91 3.25938C17.68 3.28938 17.48 3.40938 17.36 3.60938L12.55 11.3094C14.68 11.5594 16.38 13.2094 16.68 15.3294L21.21 8.07938C21.64 7.37938 21.54 6.48938 20.96 5.90938H20.97Z" fill="black"/>
<path d="M6.63998 3.59938C6.51998 3.40938 6.31998 3.27938 6.08998 3.24938C5.85998 3.21938 5.63998 3.29938 5.46998 3.45938L3.02998 5.89938C2.44998 6.47938 2.34998 7.36938 2.77998 8.06938L7.30998 15.3194C7.61998 13.1994 9.30998 11.5494 11.44 11.2994L6.63998 3.59938Z" fill="black"/>
<path d="M12.38 8.74938L15.82 3.24938H8.17998L11.62 8.74938H12.38Z" fill="black"/>
</svg>
