<svg width="24" height="24" viewBox="0 0 24 24" fill="none" xmlns="http://www.w3.org/2000/svg">
<path d="M19.95 4.88977C19.54 4.47977 18.99 4.24977 18.4 4.24977H17.63L17.69 3.62977C17.73 3.27977 17.61 2.92977 17.37 2.66977C17.13 2.40977 16.8 2.25977 16.44 2.25977H7.55001C7.20001 2.25977 6.86001 2.40977 6.62001 2.66977C6.38001 2.92977 6.27001 3.27977 6.30001 3.62977L6.36001 4.25977H5.59001C5.00001 4.25977 4.45001 4.48977 4.04001 4.89977C3.50001 5.43977 3.28001 6.23977 3.46001 6.97977L4.00001 9.11977C4.23001 10.0398 4.90001 10.7598 5.80001 11.0598L7.76001 11.7098C7.76001 11.7098 7.85001 11.7298 7.89001 11.7298C8.84001 12.9598 10.33 13.7498 11.99 13.7498C13.65 13.7498 15.15 12.9698 16.09 11.7298C16.13 11.7298 16.18 11.7298 16.22 11.7098L18.18 11.0598C19.08 10.7598 19.75 10.0398 19.98 9.11977L20.52 6.97977C20.71 6.23977 20.48 5.43977 19.94 4.89977L19.95 4.88977ZM6.28001 9.63977C5.87001 9.49977 5.57001 9.16977 5.46001 8.75977L4.92001 6.61977C4.86001 6.38977 4.93001 6.12977 5.10001 5.95977C5.23001 5.82977 5.40001 5.75977 5.59001 5.75977H6.51001L6.84001 9.09977C6.87001 9.36977 6.93001 9.62977 6.99001 9.87977L6.26001 9.63977H6.28001ZM18.54 8.75977C18.44 9.17977 18.13 9.50977 17.72 9.63977L16.99 9.87977C17.06 9.61977 17.12 9.36977 17.14 9.09977L17.47 5.75977H18.39C18.58 5.75977 18.75 5.82977 18.88 5.95977C19.05 6.12977 19.12 6.37977 19.06 6.61977L18.52 8.75977H18.54Z" fill="black"/>
<path d="M15 17.2498H14.61L14.14 14.8898C13.47 15.1198 12.75 15.2498 12 15.2498C11.25 15.2498 10.53 15.1198 9.86001 14.8898L9.39001 17.2498H9.00001C8.04001 17.2498 7.25001 18.0398 7.25001 18.9998V20.9998C7.25001 21.4098 7.59001 21.7498 8.00001 21.7498H16C16.41 21.7498 16.75 21.4098 16.75 20.9998V18.9998C16.75 18.0398 15.96 17.2498 15 17.2498Z" fill="black"/>
</svg>
