<svg width="24" height="24" viewBox="0 0 24 24" fill="none" xmlns="http://www.w3.org/2000/svg">
<path d="M11.9999 7.75C13.5187 7.75 14.7499 6.51878 14.7499 5C14.7499 3.48122 13.5187 2.25 11.9999 2.25C10.4811 2.25 9.24992 3.48122 9.24992 5C9.24992 6.51878 10.4811 7.75 11.9999 7.75Z" fill="black"/>
<path d="M8.49992 14.75H9.24992V18C9.24992 18.41 9.58992 18.75 9.99992 18.75H13.9999C14.4099 18.75 14.7499 18.41 14.7499 18V14.75H15.4999C16.1899 14.75 16.7499 14.19 16.7499 13.5V10C16.7499 9.04 15.9599 8.25 14.9999 8.25H8.99992C8.03992 8.25 7.24992 9.04 7.24992 10V13.5C7.24992 14.19 7.80992 14.75 8.49992 14.75Z" fill="black"/>
<path d="M17.7099 20.76L16.9399 18.44C16.8099 18.06 16.5599 17.76 16.2499 17.55V18C16.2499 19.24 15.2399 20.25 13.9999 20.25H9.99992C8.75992 20.25 7.74992 19.24 7.74992 18V17.55C7.43992 17.76 7.18992 18.07 7.05992 18.44L6.28992 20.76C6.20992 20.99 6.24992 21.24 6.38992 21.44C6.52992 21.64 6.75992 21.75 6.99992 21.75H16.9999C17.2399 21.75 17.4699 21.63 17.6099 21.44C17.7499 21.25 17.7899 20.99 17.7099 20.76Z" fill="black"/>
</svg>
