<svg width="24" height="24" viewBox="0 0 24 24" fill="none" xmlns="http://www.w3.org/2000/svg">
<path d="M16 2.25H8C7.04 2.25 6.25 3.04 6.25 4V7.65C6.25 8.78 6.93 9.78 7.98 10.2L11.25 11.51V12.33C8.99 12.69 7.25 14.64 7.25 17C7.25 19.62 9.38 21.75 12 21.75C14.62 21.75 16.75 19.62 16.75 17C16.75 14.64 15.01 12.69 12.75 12.33V11.51L16.02 10.2C17.07 9.78 17.75 8.78 17.75 7.65V4C17.75 3.04 16.96 2.25 16 2.25ZM12 10.19L10.75 9.69V3.75H13.25V9.69L12 10.19ZM7.75 7.64V3.99C7.75 3.85 7.86 3.74 8 3.74H9.25V9.08L8.54 8.79C8.06 8.6 7.75 8.14 7.75 7.63V7.64ZM15.25 16.99C15.25 18.78 13.79 20.24 12 20.24C10.21 20.24 8.75 18.78 8.75 16.99C8.75 15.2 10.21 13.74 12 13.74C13.79 13.74 15.25 15.2 15.25 16.99ZM16.25 7.64C16.25 8.15 15.94 8.61 15.46 8.8L14.75 9.09V3.75H16C16.14 3.75 16.25 3.86 16.25 4V7.65V7.64Z" fill="black"/>
</svg>
