<svg width="24" height="24" viewBox="0 0 24 24" fill="none" xmlns="http://www.w3.org/2000/svg">
<path d="M8.26 18.12C8.32 18.48 8.63 18.75 9 18.75H15C15.38 18.75 15.69 18.47 15.74 18.1L17.74 3.10001C17.79 2.74001 17.57 2.40001 17.23 2.29001C16.89 2.18001 16.51 2.32001 16.34 2.64001C15.89 3.46001 15.06 4.59001 13.65 5.34001C10.81 6.84001 7.88 5.59001 7.32 5.33001C7.07 5.21001 6.77 5.24001 6.55 5.41001C6.33 5.58001 6.22 5.86001 6.26 6.13001L8.26 18.13V18.12ZM11 9.25001H13C13.41 9.25001 13.75 9.59001 13.75 10C13.75 10.41 13.41 10.75 13 10.75H11C10.59 10.75 10.25 10.41 10.25 10C10.25 9.59001 10.59 9.25001 11 9.25001Z" fill="black"/>
<path d="M17.29 17.83L17.23 18.3C17.08 19.41 16.12 20.25 15 20.25H9C7.9 20.25 6.96 19.46 6.78 18.37L6.69 17.85C6.42 18.16 6.25 18.56 6.25 19V21C6.25 21.41 6.59 21.75 7 21.75H17C17.41 21.75 17.75 21.41 17.75 21V19C17.75 18.55 17.57 18.14 17.29 17.83Z" fill="black"/>
</svg>
