<svg width="24" height="24" viewBox="0 0 24 24" fill="none" xmlns="http://www.w3.org/2000/svg">
<path d="M13.95 2.88941C12.88 1.81941 11.13 1.81941 10.06 2.88941L6.40997 6.53941C5.62998 7.31941 5.38998 8.47941 5.79998 9.50941L9.30998 18.2894C9.41998 18.5794 9.69998 18.7594 10.01 18.7594H14.01C14.32 18.7594 14.59 18.5694 14.71 18.2894L18.22 9.51941C18.63 8.49941 18.39 7.32941 17.61 6.54941L13.95 2.88941ZM13 9.74941H11C10.59 9.74941 10.25 9.40941 10.25 8.99941C10.25 8.58941 10.59 8.24941 11 8.24941H13C13.41 8.24941 13.75 8.58941 13.75 8.99941C13.75 9.40941 13.41 9.74941 13 9.74941Z" fill="black"/>
<path d="M16.09 18.8294C15.75 19.6894 14.93 20.2494 14 20.2494H9.99998C9.07998 20.2494 8.25997 19.6994 7.90998 18.8394L7.56998 17.9994C7.36998 18.2894 7.24998 18.6294 7.24998 19.0094V21.0094C7.24998 21.4194 7.58998 21.7594 7.99998 21.7594H16C16.41 21.7594 16.75 21.4194 16.75 21.0094V19.0094C16.75 18.6294 16.63 18.2894 16.43 17.9994L16.09 18.8394V18.8294Z" fill="black"/>
</svg>
