<svg width="24" height="24" viewBox="0 0 24 24" fill="none" xmlns="http://www.w3.org/2000/svg">
<path d="M21.24 8.94023L18.93 5.09023C18.62 4.57023 18.04 4.24023 17.43 4.24023H6.57C5.96 4.24023 5.38 4.57023 5.07 5.09023L2.76 8.93023C2.35 9.62023 2.45 10.5002 3.02 11.0702L10.76 18.8102C11.1 19.1502 11.55 19.3202 12 19.3202C12.45 19.3202 12.9 19.1502 13.24 18.8102L20.98 11.0702C21.55 10.5002 21.66 9.62023 21.24 8.93023V8.94023ZM14.72 10.7502L12 17.1002L9.28 10.7502H14.72ZM9.56 9.25023L12 6.20023L14.44 9.25023H9.56ZM13.56 5.75023H16.86L15.71 8.44023L13.56 5.75023ZM8.29 8.44023L7.14 5.75023H10.44L8.29 8.44023ZM7.65 10.7502L9.78 15.7202L4.81 10.7502H7.65ZM16.35 10.7502H19.19L14.22 15.7202L16.35 10.7502ZM19.67 9.25023H16.99L18.11 6.64023L19.67 9.25023ZM5.89 6.64023L7.01 9.25023H4.33L5.89 6.64023Z" fill="black"/>
</svg>
