<svg width="24" height="24" viewBox="0 0 24 24" fill="none" xmlns="http://www.w3.org/2000/svg">
<path d="M12.75 12.33V11.51L13.25 11.31V2.25H10.75V11.31L11.25 11.51V12.33C8.99 12.69 7.25 14.64 7.25 17C7.25 19.62 9.38 21.75 12 21.75C14.62 21.75 16.75 19.62 16.75 17C16.75 14.64 15.01 12.69 12.75 12.33Z" fill="black"/>
<path d="M9.25 10.71V2.25H8C7.04 2.25 6.25 3.04 6.25 4V7.65C6.25 8.78 6.93 9.78 7.98 10.2L9.25 10.71Z" fill="black"/>
<path d="M16 2.25H14.75V10.71L16.02 10.2C17.07 9.78 17.75 8.78 17.75 7.65V4C17.75 3.04 16.96 2.25 16 2.25Z" fill="black"/>
</svg>
