<svg width="24" height="24" viewBox="0 0 24 24" fill="none" xmlns="http://www.w3.org/2000/svg">
<path d="M17.2 6.03C17.05 5.56 16.65 5.22 16.16 5.15L14.09 4.85L13.16 2.97C12.94 2.53 12.5 2.25 12 2.25C11.5 2.25 11.06 2.53 10.84 2.97L9.90997 4.85L7.83997 5.15C7.34997 5.22 6.94997 5.56 6.79997 6.03C6.64997 6.5 6.76997 7.01 7.12997 7.35L8.62997 8.81L8.27997 10.87C8.19997 11.36 8.38997 11.84 8.78997 12.13C9.01997 12.29 9.27997 12.38 9.54997 12.38C9.72997 12.38 9.89997 12.34 10.07 12.26L9.35997 17.24H9.00997C8.04997 17.24 7.25997 18.03 7.25997 18.99V20.99C7.25997 21.4 7.59997 21.74 8.00997 21.74H16.01C16.42 21.74 16.76 21.4 16.76 20.99V18.99C16.76 18.03 15.97 17.24 15.01 17.24H14.66L13.95 12.25C14.37 12.44 14.85 12.39 15.22 12.12C15.62 11.83 15.82 11.35 15.73 10.86L15.38 8.8L16.88 7.34C17.23 6.99 17.36 6.49 17.21 6.02L17.2 6.03ZM15.25 19V20.25H8.74997V19C8.74997 18.86 8.85997 18.75 8.99997 18.75H15C15.14 18.75 15.25 18.86 15.25 19ZM10.86 17.25L11.69 11.42L11.99 11.26L12.29 11.42L13.12 17.25H10.85H10.86ZM14.24 7.81C13.94 8.1 13.8 8.53 13.87 8.95L14.17 10.7L12.6 9.87C12.41 9.77 12.2 9.72 12 9.72C11.8 9.72 11.59 9.77 11.4 9.87L9.82997 10.7L10.13 8.94C10.2 8.52 10.06 8.1 9.75997 7.8L8.48997 6.56L10.25 6.3C10.67 6.24 11.03 5.97 11.22 5.59L12.01 4L12.8 5.59C12.99 5.97 13.35 6.24 13.77 6.3L15.53 6.56L14.26 7.8L14.24 7.81Z" fill="black"/>
</svg>
