<svg width="24" height="24" viewBox="0 0 24 24" fill="none" xmlns="http://www.w3.org/2000/svg">
<path d="M20.97 5.91L18.53 3.47C18.46 3.4 18.37 3.34 18.27 3.3C18.23 3.29 18.19 3.29 18.16 3.28C18.11 3.27 18.06 3.25 18.01 3.25H5.99999C5.94999 3.25 5.89999 3.27 5.84999 3.28C5.80999 3.28 5.76999 3.28 5.73999 3.3C5.63999 3.34 5.54999 3.39 5.47999 3.47L3.03999 5.91C2.45999 6.49 2.35999 7.38 2.78999 8.08L7.31999 15.33C7.28999 15.55 7.24999 15.77 7.24999 16.01C7.24999 18.63 9.37999 20.76 12 20.76C14.62 20.76 16.75 18.63 16.75 16.01C16.75 15.78 16.71 15.56 16.68 15.33L21.21 8.08C21.64 7.38 21.54 6.49 20.96 5.91H20.97ZM12 11.25C11.81 11.25 11.63 11.28 11.45 11.31L9.84999 8.75H14.14L12.54 11.31C12.36 11.29 12.18 11.25 11.99 11.25H12ZM15.08 7.27C15.08 7.27 15.03 7.25 15 7.25H8.99999C8.99999 7.25 8.94999 7.26 8.91999 7.27L7.34999 4.75H16.64L15.07 7.27H15.08ZM4.05999 7.28C3.99999 7.18 4.00999 7.05 4.09999 6.97L5.86999 5.2L9.95999 11.74C9.13999 12.14 8.44999 12.76 7.96999 13.53L4.05999 7.28ZM12 19.25C10.21 19.25 8.74999 17.79 8.74999 16C8.74999 14.21 10.21 12.75 12 12.75C13.79 12.75 15.25 14.21 15.25 16C15.25 17.79 13.79 19.25 12 19.25ZM19.94 7.28L16.03 13.53C15.55 12.76 14.87 12.13 14.04 11.74L18.13 5.2L19.9 6.97C19.98 7.05 20 7.18 19.94 7.28Z" fill="black"/>
</svg>
