<svg width="24" height="24" viewBox="0 0 24 24" fill="none" xmlns="http://www.w3.org/2000/svg">
<path d="M21.18 11.3694C21.7 10.8594 21.88 10.1194 21.66 9.42941C21.44 8.73941 20.85 8.23941 20.13 8.13941L15.9 7.51941C15.77 7.49941 15.66 7.41941 15.6 7.29941L13.71 3.45941C13.39 2.80941 12.74 2.39941 12.01 2.39941C11.28 2.39941 10.63 2.80941 10.31 3.45941L8.41998 7.29941C8.35998 7.41941 8.24998 7.49941 8.11998 7.51941L3.88998 8.13941C3.16998 8.23941 2.57998 8.73941 2.35998 9.42941C2.13998 10.1194 2.31998 10.8694 2.83998 11.3694L5.89998 14.3494C5.98998 14.4394 6.03998 14.5694 6.00998 14.6994L5.28998 18.9194C5.16998 19.6394 5.45998 20.3494 6.03998 20.7694C6.36998 21.0094 6.75998 21.1294 7.14998 21.1294C7.44998 21.1294 7.74998 21.0594 8.02998 20.9094L11.82 18.9194C11.93 18.8594 12.07 18.8594 12.19 18.9194L15.98 20.9094C16.62 21.2494 17.39 21.1994 17.98 20.7694C18.57 20.3394 18.86 19.6294 18.73 18.9194L18.01 14.6994C17.99 14.5694 18.03 14.4394 18.12 14.3494L21.18 11.3594V11.3694ZM17.07 13.2794C16.62 13.7194 16.42 14.3394 16.53 14.9594L17.25 19.1794C17.29 19.3994 17.15 19.5194 17.09 19.5694C17.03 19.6094 16.87 19.6994 16.67 19.5994L12.88 17.6094C12.33 17.3194 11.67 17.3194 11.12 17.6094L7.32998 19.5994C7.12998 19.6994 6.96998 19.6094 6.90998 19.5694C6.84998 19.5294 6.70998 19.3994 6.74998 19.1794L7.46998 14.9594C7.57998 14.3494 7.36998 13.7194 6.91998 13.2794L3.85998 10.2894C3.69998 10.1294 3.73998 9.94941 3.75998 9.87941C3.77998 9.80941 3.85998 9.63941 4.07998 9.60941L8.30998 8.98941C8.92998 8.89941 9.45998 8.50941 9.73998 7.94941L11.63 4.10941C11.73 3.90941 11.91 3.88941 11.98 3.88941C12.05 3.88941 12.24 3.90941 12.33 4.10941L14.22 7.94941C14.5 8.50941 15.03 8.89941 15.65 8.98941L19.88 9.60941C20.1 9.63941 20.18 9.80941 20.2 9.87941C20.22 9.94941 20.26 10.1294 20.1 10.2894L17.04 13.2794H17.07Z" fill="black"/>
</svg>
