<svg width="24" height="24" viewBox="0 0 24 24" fill="none" xmlns="http://www.w3.org/2000/svg">
<path d="M2.25 19C2.25 19.41 2.59 19.75 3 19.75H21C21.41 19.75 21.75 19.41 21.75 19V16.75H2.25V19Z" fill="black"/>
<path d="M20 11.25H17.25V15.25H21.75V13C21.75 12.04 20.96 11.25 20 11.25Z" fill="black"/>
<path d="M15.75 7C15.75 6.04 14.96 5.25 14 5.25H10C9.04 5.25 8.25 6.04 8.25 7V15.25H15.75V7Z" fill="black"/>
<path d="M6.75 9.25H4C3.04 9.25 2.25 10.04 2.25 11V15.25H6.75V9.25Z" fill="black"/>
</svg>
