<svg width="24" height="24" viewBox="0 0 24 24" fill="none" xmlns="http://www.w3.org/2000/svg">
<path d="M15.56 9.70988L13.95 9.47988L13.23 8.02988C13 7.54988 12.52 7.25988 11.99 7.25988C11.46 7.25988 10.98 7.55988 10.75 8.02988L10.03 9.47988L8.42001 9.70988C7.89001 9.78988 7.47001 10.1499 7.30001 10.6499C7.13001 11.1499 7.27001 11.6999 7.65001 12.0699L8.81001 13.1999L8.54001 14.7999C8.45001 15.3199 8.66001 15.8399 9.09001 16.1499C9.33001 16.3299 9.62001 16.4199 9.90001 16.4199C10.12 16.4199 10.34 16.3699 10.55 16.2599L11.99 15.5099L13.43 16.2599C13.9 16.5099 14.46 16.4699 14.89 16.1599C15.32 15.8499 15.53 15.3299 15.44 14.8099L15.17 13.2099L16.33 12.0799C16.71 11.7099 16.84 11.1699 16.68 10.6599C16.52 10.1499 16.09 9.78988 15.56 9.71988V9.70988ZM14.07 12.1699C13.74 12.4899 13.59 12.9499 13.67 13.3999L13.91 14.8299L12.63 14.1599C12.43 14.0499 12.21 13.9999 11.99 13.9999C11.77 13.9999 11.55 14.0499 11.35 14.1599L10.07 14.8299L10.31 13.3999C10.39 12.9499 10.24 12.4899 9.91001 12.1799L8.87001 11.1699L10.3 10.9599C10.75 10.8999 11.14 10.6099 11.34 10.1999L11.98 8.89988L12.62 10.1999C12.82 10.6099 13.21 10.8899 13.66 10.9599L15.09 11.1699L14.05 12.1799L14.07 12.1699Z" fill="black"/>
<path d="M18.09 4.64988L13.09 2.47988C12.4 2.17988 11.61 2.17988 10.92 2.47988L5.92001 4.64988C4.91001 5.08988 4.26001 6.08988 4.26001 7.19988V11.9399C4.26001 13.0499 4.49001 16.8799 7.51001 19.5899C8.59001 20.5599 9.86001 21.2499 11.29 21.6499C11.52 21.7199 11.77 21.7499 12.01 21.7499C12.25 21.7499 12.49 21.7199 12.73 21.6499C14.16 21.2499 15.44 20.5499 16.51 19.5899C19.53 16.8799 19.76 13.0499 19.76 11.9399V7.19988C19.76 6.08988 19.11 5.08988 18.1 4.64988H18.09ZM18.25 11.9399C18.25 12.8899 18.06 16.1699 15.5 18.4699C14.6 19.2799 13.52 19.8699 12.31 20.1999C12.1 20.2599 11.89 20.2599 11.68 20.1999C10.47 19.8599 9.40001 19.2799 8.49001 18.4699C5.93001 16.1699 5.74001 12.8899 5.74001 11.9399V7.19988C5.74001 6.68988 6.04001 6.22988 6.50001 6.02988L11.5 3.85988C11.65 3.78988 11.82 3.75988 11.99 3.75988C12.16 3.75988 12.32 3.78988 12.48 3.85988L17.48 6.02988C17.94 6.22988 18.24 6.68988 18.24 7.19988V11.9399H18.25Z" fill="black"/>
</svg>
