<svg width="24" height="24" viewBox="0 0 24 24" fill="none" xmlns="http://www.w3.org/2000/svg">
<path d="M12 10.68C11.76 11.08 11.36 11.37 10.91 11.47C11.22 11.82 11.37 12.29 11.33 12.75C11.76 12.57 12.25 12.57 12.68 12.75C12.64 12.28 12.79 11.82 13.1 11.47C12.64 11.36 12.25 11.08 12.01 10.68H12Z" fill="black"/>
<path d="M19 5.25H5C4.59 5.25 4.25 5.59 4.25 6V17C4.25 17.41 4.59 17.75 5 17.75C5.41 17.75 5.75 17.41 5.75 17V16.29L7.25 17.15V19C7.25 19.41 7.59 19.75 8 19.75C8.41 19.75 8.75 19.41 8.75 19V18.01L11.25 19.44V21C11.25 21.41 11.59 21.75 12 21.75C12.41 21.75 12.75 21.41 12.75 21V19.44L15.25 18.01V19C15.25 19.41 15.59 19.75 16 19.75C16.41 19.75 16.75 19.41 16.75 19V17.15L18.25 16.29V17C18.25 17.41 18.59 17.75 19 17.75C19.41 17.75 19.75 17.41 19.75 17V6C19.75 5.59 19.41 5.25 19 5.25ZM15.21 11.49L14.24 12.43C14.18 12.49 14.15 12.57 14.17 12.65L14.4 13.98C14.45 14.26 14.33 14.55 14.1 14.71C13.97 14.8 13.81 14.85 13.66 14.85C13.54 14.85 13.42 14.82 13.31 14.76L12.11 14.13C12.04 14.09 11.95 14.09 11.88 14.13L10.68 14.76C10.43 14.89 10.12 14.87 9.89 14.7C9.66 14.53 9.54 14.25 9.59 13.97L9.82 12.64C9.83 12.56 9.81 12.48 9.75 12.42L8.78 11.48C8.58 11.28 8.5 10.98 8.59 10.71C8.68 10.44 8.91 10.24 9.19 10.2L10.53 10.01C10.61 10 10.68 9.95 10.72 9.87L11.32 8.66C11.57 8.15 12.41 8.15 12.67 8.66L13.27 9.87C13.31 9.94 13.38 10 13.46 10.01L14.8 10.2C15.08 10.24 15.32 10.44 15.4 10.71C15.49 10.98 15.41 11.28 15.21 11.48V11.49Z" fill="black"/>
<path d="M20 2.25H4C3.59 2.25 3.25 2.59 3.25 3V4.6C3.66 4.08 4.29 3.75 5 3.75H19C19.71 3.75 20.34 4.09 20.75 4.6V3C20.75 2.59 20.41 2.25 20 2.25Z" fill="black"/>
</svg>
