<svg width="24" height="24" viewBox="0 0 24 24" fill="none" xmlns="http://www.w3.org/2000/svg">
<path d="M17.38 5.24L13.38 2.93C12.53 2.44 11.48 2.44 10.63 2.93L6.63 5.24C5.78 5.73 5.25 6.64 5.25 7.62V12.24C5.25 13.22 5.78 14.13 6.63 14.62L7.26 14.98C7.26 14.98 7.26 14.99 7.26 15V20.5C7.26 20.94 7.48 21.33 7.85 21.56C8.05 21.69 8.28 21.75 8.5 21.75C8.69 21.75 8.88 21.71 9.06 21.62L12 20.15L14.94 21.62C15.33 21.82 15.79 21.8 16.16 21.57C16.53 21.34 16.75 20.94 16.75 20.51V15.01C16.75 15.01 16.75 15 16.75 14.99L17.38 14.63C18.23 14.14 18.76 13.23 18.76 12.25V7.62C18.76 6.64 18.23 5.73 17.38 5.24ZM15.25 20.1L12.33 18.64C12.12 18.53 11.87 18.53 11.66 18.64L8.74 20.1V15.85L10.62 16.93C11.04 17.18 11.52 17.3 12 17.3C12.48 17.3 12.95 17.18 13.38 16.93L15.26 15.85V20.1H15.25ZM17.25 12.24C17.25 12.69 17.01 13.1 16.62 13.32L12.62 15.63C12.24 15.85 11.75 15.85 11.37 15.63L7.37 13.32C6.98 13.1 6.74 12.68 6.74 12.24V7.62C6.74 7.17 6.98 6.76 7.37 6.54L11.37 4.23C11.56 4.12 11.78 4.06 12 4.06C12.22 4.06 12.43 4.12 12.63 4.23L16.63 6.54C17.02 6.76 17.26 7.18 17.26 7.62V12.24H17.25Z" fill="black"/>
<path d="M15.11 8.44L13.62 8.22C13.5 8.2 13.4 8.13 13.35 8.02L12.68 6.67C12.43 6.16 11.59 6.16 11.33 6.67L10.66 8.02C10.61 8.13 10.5 8.2 10.39 8.22L8.9 8.44C8.62 8.48 8.38 8.68 8.29 8.95C8.2 9.22 8.28 9.52 8.48 9.72L9.56 10.77C9.65 10.85 9.69 10.98 9.67 11.09L9.41 12.58C9.36 12.86 9.48 13.15 9.71 13.31C9.94 13.48 10.25 13.5 10.5 13.37L11.84 12.67C11.95 12.62 12.07 12.61 12.18 12.67L13.52 13.37C13.63 13.43 13.75 13.46 13.87 13.46C14.03 13.46 14.18 13.41 14.31 13.32C14.54 13.15 14.66 12.87 14.61 12.59L14.35 11.1C14.33 10.98 14.37 10.86 14.46 10.78L15.54 9.73C15.74 9.53 15.82 9.23 15.73 8.96C15.64 8.69 15.41 8.49 15.12 8.45L15.11 8.44ZM12.86 11.34C12.59 11.2 12.3 11.13 12 11.13C11.7 11.13 11.41 11.2 11.14 11.34C11.24 10.74 11.04 10.13 10.61 9.71C11.21 9.62 11.73 9.24 12 8.7C12.27 9.24 12.79 9.62 13.39 9.71C12.96 10.13 12.76 10.74 12.86 11.34Z" fill="black"/>
</svg>
