<svg width="24" height="24" viewBox="0 0 24 24" fill="none" xmlns="http://www.w3.org/2000/svg">
<path d="M17.6 6.53941L13.95 2.88941C12.88 1.81941 11.13 1.81941 10.06 2.88941L6.40997 6.53941C5.62998 7.31941 5.38998 8.47941 5.79998 9.50941L8.89997 17.2694C7.97997 17.3194 7.24998 18.0794 7.24998 19.0094V21.0094C7.24998 21.4194 7.58998 21.7594 7.99998 21.7594H16C16.41 21.7594 16.75 21.4194 16.75 21.0094V19.0094C16.75 18.0794 16.02 17.3294 15.1 17.2694L18.2 9.50941C18.61 8.48941 18.37 7.31941 17.59 6.53941H17.6ZM15.25 18.9994V20.2494H8.74998V18.9994C8.74998 18.8594 8.85998 18.7494 8.99998 18.7494H15C15.14 18.7494 15.25 18.8594 15.25 18.9994ZM16.81 8.94941L13.49 17.2494H10.51L7.18998 8.94941C6.99998 8.48941 7.10997 7.95941 7.46997 7.59941L11.12 3.94941C11.61 3.45941 12.4 3.45941 12.89 3.94941L16.54 7.59941C16.89 7.94941 17 8.47941 16.82 8.94941H16.81Z" fill="black"/>
<path d="M13 8.24941H11C10.59 8.24941 10.25 8.58941 10.25 8.99941C10.25 9.40941 10.59 9.74941 11 9.74941H13C13.41 9.74941 13.75 9.40941 13.75 8.99941C13.75 8.58941 13.41 8.24941 13 8.24941Z" fill="black"/>
</svg>
