<svg width="24" height="24" viewBox="0 0 24 24" fill="none" xmlns="http://www.w3.org/2000/svg">
<path d="M16 2.25H8C5.93 2.25 4.25 3.93 4.25 6V18C4.25 20.07 5.93 21.75 8 21.75H16C18.07 21.75 19.75 20.07 19.75 18V6C19.75 3.93 18.07 2.25 16 2.25ZM18.25 18C18.25 19.24 17.24 20.25 16 20.25H8C6.76 20.25 5.75 19.24 5.75 18V6C5.75 4.76 6.76 3.75 8 3.75H16C17.24 3.75 18.25 4.76 18.25 6V18Z" fill="black"/>
<path d="M14.66 7.41L13.61 7.26L13.14 6.31C12.92 5.87 12.49 5.6 12 5.6C11.51 5.6 11.07 5.87 10.86 6.31L10.39 7.26L9.34 7.41C8.86 7.48 8.46 7.81 8.31 8.28C8.16 8.74 8.28 9.24 8.63 9.59L9.39 10.33L9.21 11.37C9.13 11.85 9.32 12.33 9.72 12.62C9.94 12.78 10.2 12.87 10.47 12.87C10.67 12.87 10.88 12.82 11.07 12.72L12.01 12.23L12.94 12.72C13.37 12.95 13.89 12.91 14.28 12.62C14.68 12.33 14.87 11.86 14.79 11.37L14.61 10.33L15.37 9.59C15.72 9.25 15.84 8.75 15.69 8.28C15.54 7.81 15.15 7.48 14.66 7.41ZM13.48 9.33C13.18 9.62 13.05 10.04 13.12 10.46L13.24 11.17L12.6 10.83C12.41 10.73 12.21 10.69 12.01 10.69C11.81 10.69 11.6 10.74 11.42 10.84L10.78 11.17L10.9 10.46C10.97 10.05 10.83 9.63 10.53 9.33L10.01 8.83L10.72 8.73C11.14 8.67 11.5 8.41 11.68 8.03L12 7.38L12.32 8.02C12.51 8.4 12.87 8.66 13.28 8.72L13.99 8.82L13.47 9.33H13.48Z" fill="black"/>
</svg>
