<svg width="24" height="24" viewBox="0 0 24 24" fill="none" xmlns="http://www.w3.org/2000/svg">
<path d="M16 2.25H8C5.93 2.25 4.25 3.93 4.25 6V18C4.25 20.07 5.93 21.75 8 21.75H16C18.07 21.75 19.75 20.07 19.75 18V6C19.75 3.93 18.07 2.25 16 2.25ZM15.36 9.59L14.6 10.33L14.78 11.37C14.86 11.85 14.67 12.33 14.27 12.62C13.87 12.91 13.36 12.94 12.93 12.72L12 12.23L11.06 12.72C10.87 12.82 10.67 12.87 10.46 12.87C10.2 12.87 9.94 12.79 9.71 12.62C9.31 12.33 9.12 11.85 9.2 11.37L9.38 10.33L8.62 9.59C8.27 9.25 8.15 8.75 8.3 8.28C8.45 7.81 8.84 7.48 9.33 7.41L10.38 7.26L10.85 6.31C11.07 5.87 11.5 5.6 11.99 5.6C12.48 5.6 12.92 5.87 13.13 6.31L13.6 7.26L14.65 7.41C15.14 7.48 15.53 7.81 15.68 8.28C15.83 8.74 15.71 9.24 15.36 9.59Z" fill="black"/>
<path d="M12.32 8.03L12 7.39L11.68 8.04C11.49 8.42 11.13 8.68 10.72 8.74L10.01 8.84L10.53 9.34C10.83 9.63 10.97 10.06 10.9 10.47L10.78 11.18L11.42 10.85C11.61 10.75 11.81 10.7 12.01 10.7C12.21 10.7 12.42 10.75 12.6 10.84L13.24 11.18L13.12 10.47C13.05 10.06 13.19 9.64 13.48 9.34L14 8.83L13.29 8.73C12.87 8.67 12.51 8.41 12.33 8.03H12.32Z" fill="black"/>
</svg>
