<svg width="24" height="24" viewBox="0 0 24 24" fill="none" xmlns="http://www.w3.org/2000/svg">
<path d="M11.9999 7.75C13.5199 7.75 14.7499 6.52 14.7499 5C14.7499 3.48 13.5199 2.25 11.9999 2.25C10.4799 2.25 9.24992 3.48 9.24992 5C9.24992 6.52 10.4799 7.75 11.9999 7.75ZM11.9999 3.75C12.6899 3.75 13.2499 4.31 13.2499 5C13.2499 5.69 12.6899 6.25 11.9999 6.25C11.3099 6.25 10.7499 5.69 10.7499 5C10.7499 4.31 11.3099 3.75 11.9999 3.75Z" fill="black"/>
<path d="M17.7099 20.76L16.9399 18.44C16.6999 17.72 16.0299 17.24 15.2799 17.24H14.7499V14.74H15.4999C16.1899 14.74 16.7499 14.18 16.7499 13.49V9.99C16.7499 9.03 15.9599 8.24 14.9999 8.24H8.99992C8.03992 8.24 7.24992 9.03 7.24992 9.99V13.49C7.24992 14.18 7.80992 14.74 8.49992 14.74H9.24992V17.24H8.71992C7.96992 17.24 7.29992 17.72 7.05992 18.44L6.28992 20.76C6.20992 20.99 6.24992 21.24 6.38992 21.44C6.52992 21.64 6.75992 21.75 6.99992 21.75H16.9999C17.2399 21.75 17.4699 21.63 17.6099 21.44C17.7499 21.25 17.7899 20.99 17.7099 20.76ZM9.49992 13.25H8.74992V10C8.74992 9.86 8.85992 9.75 8.99992 9.75H14.9999C15.1399 9.75 15.2499 9.86 15.2499 10V13.25H14.4999C13.8099 13.25 13.2499 13.81 13.2499 14.5V17.25H10.7499V14.5C10.7499 13.81 10.1899 13.25 9.49992 13.25ZM8.03992 20.25L8.47992 18.92C8.50992 18.82 8.60992 18.75 8.71992 18.75H15.2799C15.3899 18.75 15.4799 18.82 15.5199 18.92L15.9599 20.25H8.03992Z" fill="black"/>
</svg>
