<svg width="24" height="24" viewBox="0 0 24 24" fill="none" xmlns="http://www.w3.org/2000/svg">
<path d="M18.75 10C18.75 6.28 15.72 3.25 12 3.25C8.28002 3.25 5.25002 6.28 5.25002 10C5.25002 13.72 8.28002 16.75 12 16.75C15.72 16.75 18.75 13.72 18.75 10ZM12 13.75C9.93002 13.75 8.25002 12.07 8.25002 10C8.25002 7.93 9.93002 6.25 12 6.25C14.07 6.25 15.75 7.93 15.75 10C15.75 12.07 14.07 13.75 12 13.75Z" fill="black"/>
<path d="M12 12.25C13.2427 12.25 14.25 11.2426 14.25 10C14.25 8.75736 13.2427 7.75 12 7.75C10.7574 7.75 9.75002 8.75736 9.75002 10C9.75002 11.2426 10.7574 12.25 12 12.25Z" fill="black"/>
<path d="M21.6 18.15L18.89 14.53C17.86 16.09 16.32 17.28 14.51 17.86L17.2 21.45C17.34 21.64 17.57 21.75 17.8 21.75C17.86 21.75 17.92 21.75 17.99 21.73C18.28 21.65 18.5 21.41 18.55 21.11L18.84 19.05L20.9 19.34C21.19 19.38 21.5 19.24 21.65 18.98C21.8 18.72 21.79 18.39 21.6 18.15Z" fill="black"/>
<path d="M5.11002 14.53L2.40002 18.15C2.22002 18.39 2.20002 18.72 2.35002 18.98C2.50002 19.24 2.80002 19.38 3.10002 19.34L5.16002 19.05L5.45002 21.11C5.49002 21.41 5.71002 21.65 6.01002 21.73C6.07002 21.75 6.13002 21.75 6.20002 21.75C6.43002 21.75 6.66002 21.64 6.80002 21.45L9.49002 17.86C7.68002 17.28 6.14002 16.09 5.11002 14.53Z" fill="black"/>
</svg>
