<svg width="24" height="24" viewBox="0 0 24 24" fill="none" xmlns="http://www.w3.org/2000/svg">
<path d="M17.75 7.25V3.75H18C18.41 3.75 18.75 3.41 18.75 3C18.75 2.59 18.41 2.25 18 2.25H6C5.59 2.25 5.25 2.59 5.25 3C5.25 3.41 5.59 3.75 6 3.75H6.25V7.25H6C5.59 7.25 5.25 7.59 5.25 8C5.25 8.41 5.59 8.75 6 8.75H9.25V9C9.25 9.87 9.66 10.63 10.29 11.13L6.68 14.74C6 15.42 6 16.53 6.68 17.21L10.77 21.3C11.11 21.64 11.56 21.81 12.01 21.81C12.46 21.81 12.91 21.64 13.25 21.3L17.34 17.21C18.02 16.53 18.02 15.42 17.34 14.74L13.73 11.13C14.36 10.63 14.77 9.86 14.77 9V8.75H18.02C18.43 8.75 18.77 8.41 18.77 8C18.77 7.59 18.43 7.25 18.02 7.25H17.75ZM13.25 9C13.25 9.69 12.69 10.25 12 10.25C11.31 10.25 10.75 9.69 10.75 9V8.75H13.25V9Z" fill="black"/>
</svg>
