<svg width="24" height="24" viewBox="0 0 24 24" fill="none" xmlns="http://www.w3.org/2000/svg">
<path d="M9.28 10.75L12 17.09L14.71 10.75H9.28Z" fill="black"/>
<path d="M14.6 9.25L12 5.35L9.4 9.25H14.6Z" fill="black"/>
<path d="M21.36 9.25C21.32 9.15 21.3 9.04 21.24 8.94L18.93 5.09C18.9 5.04 18.86 5 18.82 4.95L18.51 5.69L16.99 9.23H21.36V9.25Z" fill="black"/>
<path d="M17.48 4.26C17.48 4.26 17.45 4.26 17.44 4.26H13.07L15.76 8.29L17.48 4.26Z" fill="black"/>
<path d="M7.63 10.75H2.79C2.86 10.87 2.93 10.98 3.03 11.08L10.77 18.82C10.9 18.95 11.05 19.05 11.21 19.13L10.88 18.26L7.64 10.74L7.63 10.75Z" fill="black"/>
<path d="M13.14 18.24L12.94 19.06C13.04 18.99 13.14 18.92 13.24 18.82L20.98 11.08C21.08 10.98 21.15 10.86 21.22 10.75H16.36L13.15 18.24H13.14Z" fill="black"/>
<path d="M5.15 4.99C5.15 4.99 5.09 5.06 5.06 5.1L2.75 8.94C2.69 9.04 2.67 9.14 2.63 9.25H6.99L5.16 4.99H5.15Z" fill="black"/>
<path d="M8.23 8.3L10.93 4.25H6.57C6.57 4.25 6.52 4.25 6.5 4.25L6.94 5.25L8.24 8.29L8.23 8.3Z" fill="black"/>
</svg>
