<svg width="24" height="24" viewBox="0 0 24 24" fill="none" xmlns="http://www.w3.org/2000/svg">
<path d="M21.31 11.45C21.14 11.01 20.81 10.67 20.39 10.48L19.09 9.89999C19.09 9.69999 19.05 9.50999 18.98 9.31999C18.81 8.87999 18.48 8.53999 18.05 8.34999L9.82 4.70999C9.39 4.51999 8.92 4.50999 8.48 4.67999C8.04 4.84999 7.7 5.17999 7.51 5.59999L5.89 9.25999C5.7 9.68999 5.69 10.16 5.86 10.6C6.03 11.04 6.36 11.38 6.78 11.57L10.07 13.02L8.96 14.68C8.73 15.03 8.34 15.24 7.92 15.24H3.75V8.98999C3.75 8.57999 3.41 8.23999 3 8.23999C2.59 8.23999 2.25 8.57999 2.25 8.98999V18.99C2.25 19.4 2.59 19.74 3 19.74C3.41 19.74 3.75 19.4 3.75 18.99V16.74H7.93C8.85 16.74 9.71 16.28 10.22 15.52L11.47 13.64L15.02 15.21C15.25 15.31 15.49 15.36 15.72 15.36C16.14 15.36 16.53 15.2 16.85 14.93L18.17 15.51C18.4 15.61 18.64 15.66 18.88 15.66C19.09 15.66 19.31 15.62 19.51 15.54C19.95 15.37 20.29 15.04 20.48 14.62L21.29 12.79C21.48 12.36 21.49 11.89 21.32 11.45H21.31ZM15.62 13.84L7.39 10.2C7.31 10.16 7.27 10.1 7.26 10.06C7.25 10.02 7.23 9.94999 7.26 9.86999L8.88 6.20999C8.92 6.12999 8.98 6.08999 9.02 6.07999C9.04 6.07999 9.07 6.05999 9.11 6.05999C9.14 6.05999 9.17 6.05999 9.21 6.07999L17.44 9.71999C17.52 9.75999 17.56 9.81999 17.57 9.85999C17.58 9.89999 17.6 9.96999 17.57 10.05L15.95 13.71C15.89 13.84 15.75 13.89 15.62 13.84ZM19.91 12.18L19.1 14.01C19.06 14.09 19 14.13 18.96 14.14C18.92 14.15 18.85 14.17 18.77 14.14L17.63 13.63L18.64 11.34L19.78 11.85C19.86 11.89 19.9 11.95 19.91 11.99C19.92 12.03 19.94 12.1 19.91 12.18Z" fill="black"/>
</svg>
