<svg width="24" height="24" viewBox="0 0 24 24" fill="none" xmlns="http://www.w3.org/2000/svg">
<path d="M18 2.25H6C3.93 2.25 2.25 3.93 2.25 6V18C2.25 20.07 3.93 21.75 6 21.75H18C20.07 21.75 21.75 20.07 21.75 18V6C21.75 3.93 20.07 2.25 18 2.25ZM6 3.75H18C18.98 3.75 19.82 4.39 20.12 5.27C20.08 5.27 20.04 5.25 20 5.25H4C4 5.25 3.92 5.27 3.88 5.27C4.18 4.39 5.01 3.75 6 3.75ZM18 20.25H6C4.76 20.25 3.75 19.24 3.75 18V6.7C3.83 6.73 3.91 6.75 4 6.75H20C20.09 6.75 20.17 6.73 20.25 6.7V18C20.25 19.24 19.24 20.25 18 20.25Z" fill="black"/>
<path d="M7.5 14.25C6.26 14.25 5.25 15.26 5.25 16.5C5.25 17.74 6.26 18.75 7.5 18.75C8.74 18.75 9.75 17.74 9.75 16.5C9.75 15.26 8.74 14.25 7.5 14.25ZM7.5 17.25C7.09 17.25 6.75 16.91 6.75 16.5C6.75 16.09 7.09 15.75 7.5 15.75C7.91 15.75 8.25 16.09 8.25 16.5C8.25 16.91 7.91 17.25 7.5 17.25Z" fill="black"/>
<path d="M16.5 14.25C15.26 14.25 14.25 15.26 14.25 16.5C14.25 17.74 15.26 18.75 16.5 18.75C17.74 18.75 18.75 17.74 18.75 16.5C18.75 15.26 17.74 14.25 16.5 14.25ZM16.5 17.25C16.09 17.25 15.75 16.91 15.75 16.5C15.75 16.09 16.09 15.75 16.5 15.75C16.91 15.75 17.25 16.09 17.25 16.5C17.25 16.91 16.91 17.25 16.5 17.25Z" fill="black"/>
<path d="M12 8.25C10.76 8.25 9.75 9.26 9.75 10.5C9.75 11.74 10.76 12.75 12 12.75C13.24 12.75 14.25 11.74 14.25 10.5C14.25 9.26 13.24 8.25 12 8.25ZM12 11.25C11.59 11.25 11.25 10.91 11.25 10.5C11.25 10.09 11.59 9.75 12 9.75C12.41 9.75 12.75 10.09 12.75 10.5C12.75 10.91 12.41 11.25 12 11.25Z" fill="black"/>
<path d="M12 14.25C11.59 14.25 11.25 14.59 11.25 15V18C11.25 18.41 11.59 18.75 12 18.75C12.41 18.75 12.75 18.41 12.75 18V15C12.75 14.59 12.41 14.25 12 14.25Z" fill="black"/>
<path d="M17 12.75C17.41 12.75 17.75 12.41 17.75 12V9C17.75 8.59 17.41 8.25 17 8.25C16.59 8.25 16.25 8.59 16.25 9V12C16.25 12.41 16.59 12.75 17 12.75Z" fill="black"/>
<path d="M7 12.75C7.41 12.75 7.75 12.41 7.75 12V9C7.75 8.59 7.41 8.25 7 8.25C6.59 8.25 6.25 8.59 6.25 9V12C6.25 12.41 6.59 12.75 7 12.75Z" fill="black"/>
</svg>
