<svg width="24" height="24" viewBox="0 0 24 24" fill="none" xmlns="http://www.w3.org/2000/svg">
<path d="M18 2.25H6C4.19 2.25 2.67 3.54 2.33 5.25H21.67C21.32 3.54 19.81 2.25 18 2.25Z" fill="black"/>
<path d="M7.5 17.25C7.91421 17.25 8.25 16.9142 8.25 16.5C8.25 16.0858 7.91421 15.75 7.5 15.75C7.08579 15.75 6.75 16.0858 6.75 16.5C6.75 16.9142 7.08579 17.25 7.5 17.25Z" fill="black"/>
<path d="M12 11.25C12.4142 11.25 12.75 10.9142 12.75 10.5C12.75 10.0858 12.4142 9.75 12 9.75C11.5858 9.75 11.25 10.0858 11.25 10.5C11.25 10.9142 11.5858 11.25 12 11.25Z" fill="black"/>
<path d="M2.25 6.75V18C2.25 20.07 3.93 21.75 6 21.75H18C20.07 21.75 21.75 20.07 21.75 18V6.75H2.25ZM16.25 9C16.25 8.59 16.59 8.25 17 8.25C17.41 8.25 17.75 8.59 17.75 9V12C17.75 12.41 17.41 12.75 17 12.75C16.59 12.75 16.25 12.41 16.25 12V9ZM6.25 9C6.25 8.59 6.59 8.25 7 8.25C7.41 8.25 7.75 8.59 7.75 9V12C7.75 12.41 7.41 12.75 7 12.75C6.59 12.75 6.25 12.41 6.25 12V9ZM7.5 18.75C6.26 18.75 5.25 17.74 5.25 16.5C5.25 15.26 6.26 14.25 7.5 14.25C8.74 14.25 9.75 15.26 9.75 16.5C9.75 17.74 8.74 18.75 7.5 18.75ZM12.75 18C12.75 18.41 12.41 18.75 12 18.75C11.59 18.75 11.25 18.41 11.25 18V15C11.25 14.59 11.59 14.25 12 14.25C12.41 14.25 12.75 14.59 12.75 15V18ZM12 12.75C10.76 12.75 9.75 11.74 9.75 10.5C9.75 9.26 10.76 8.25 12 8.25C13.24 8.25 14.25 9.26 14.25 10.5C14.25 11.74 13.24 12.75 12 12.75ZM16.5 18.75C15.26 18.75 14.25 17.74 14.25 16.5C14.25 15.26 15.26 14.25 16.5 14.25C17.74 14.25 18.75 15.26 18.75 16.5C18.75 17.74 17.74 18.75 16.5 18.75Z" fill="black"/>
<path d="M16.5 17.25C16.9142 17.25 17.25 16.9142 17.25 16.5C17.25 16.0858 16.9142 15.75 16.5 15.75C16.0858 15.75 15.75 16.0858 15.75 16.5C15.75 16.9142 16.0858 17.25 16.5 17.25Z" fill="black"/>
</svg>
