<svg width="24" height="24" viewBox="0 0 24 24" fill="none" xmlns="http://www.w3.org/2000/svg">
<path d="M17.75 9.37V8C17.75 4.83 15.17 2.25 12 2.25C8.83 2.25 6.25 4.83 6.25 8V9.37C5.1 9.7 4.25 10.75 4.25 12V19C4.25 20.52 5.48 21.75 7 21.75H17C18.52 21.75 19.75 20.52 19.75 19V12C19.75 10.75 18.9 9.7 17.75 9.37ZM7.75 8C7.75 5.66 9.66 3.75 12 3.75C14.34 3.75 16.25 5.66 16.25 8V9.25H15.75V8C15.75 5.93 14.07 4.25 12 4.25C9.93 4.25 8.25 5.93 8.25 8V9.25H7.75V8ZM14.25 9.25H9.75V8C9.75 6.76 10.76 5.75 12 5.75C13.24 5.75 14.25 6.76 14.25 8V9.25ZM18.25 19C18.25 19.69 17.69 20.25 17 20.25H7C6.31 20.25 5.75 19.69 5.75 19V12C5.75 11.31 6.31 10.75 7 10.75H17C17.69 10.75 18.25 11.31 18.25 12V19Z" fill="black"/>
<path d="M12 13.25C11.04 13.25 10.25 14.04 10.25 15C10.25 15.7 10.66 16.29 11.25 16.57V18C11.25 18.41 11.59 18.75 12 18.75C12.41 18.75 12.75 18.41 12.75 18V16.57C13.34 16.29 13.75 15.69 13.75 15C13.75 14.04 12.96 13.25 12 13.25ZM12 14.75C12.14 14.75 12.25 14.86 12.25 15C12.25 15.28 11.75 15.28 11.75 15C11.75 14.86 11.86 14.75 12 14.75Z" fill="black"/>
</svg>
