<svg width="24" height="24" viewBox="0 0 24 24" fill="none" xmlns="http://www.w3.org/2000/svg">
<path d="M21.3301 15.8303L14.7601 5.08027C14.1701 4.11027 13.1301 3.53027 12.0001 3.53027C10.8701 3.53027 9.83008 4.11027 9.24008 5.08027L2.67008 15.8303C2.05008 16.8403 2.03008 18.0703 2.61008 19.1003C3.19008 20.1403 4.25007 20.7503 5.43007 20.7503H18.5601C19.7501 20.7503 20.8001 20.1303 21.3801 19.1003C21.9601 18.0603 21.9401 16.8403 21.3201 15.8303H21.3301ZM20.0801 18.3703C19.7701 18.9303 19.2001 19.2603 18.5601 19.2603H5.44008C4.80008 19.2603 4.24008 18.9303 3.92008 18.3703C3.61008 17.8103 3.62008 17.1603 3.95008 16.6103L10.5201 5.86027C10.8401 5.34027 11.3901 5.03027 12.0001 5.03027C12.6101 5.03027 13.1601 5.34027 13.4801 5.86027L20.0501 16.6003C20.3801 17.1403 20.3901 17.8003 20.0801 18.3603V18.3703Z" fill="black"/>
<path d="M12.0001 14.7503C12.4101 14.7503 12.7501 14.4103 12.7501 14.0003V10.0003C12.7501 9.59027 12.4101 9.25027 12.0001 9.25027C11.5901 9.25027 11.2501 9.59027 11.2501 10.0003V14.0003C11.2501 14.4103 11.5901 14.7503 12.0001 14.7503Z" fill="black"/>
<path d="M12.0201 16.2503H12.0101C11.6001 16.2503 11.2701 16.5903 11.2701 17.0003C11.2701 17.4103 11.6101 17.7503 12.0201 17.7503C12.4301 17.7503 12.7701 17.4103 12.7701 17.0003C12.7701 16.5903 12.4301 16.2503 12.0201 16.2503Z" fill="black"/>
</svg>
