<svg width="24" height="24" viewBox="0 0 24 24" fill="none" xmlns="http://www.w3.org/2000/svg">
<path d="M19.74 4.26027C17.1 1.62027 12.79 1.62027 10.15 4.26027C8.31002 6.10027 7.68003 8.66027 8.46002 11.0503L3.33002 16.2003C3.23002 16.3003 3.16002 16.4403 3.13002 16.5803L2.28002 20.8403C2.23002 21.0903 2.31002 21.3403 2.49002 21.5203C2.63002 21.6603 2.82002 21.7403 3.02002 21.7403C3.07002 21.7403 3.12002 21.7403 3.17002 21.7303L7.43002 20.8803C7.57002 20.8503 7.71002 20.7803 7.81002 20.6703L12.95 15.5303C15.34 16.2703 17.96 15.6303 19.75 13.8503C22.39 11.2103 22.39 6.90027 19.75 4.26027H19.74ZM10.35 14.7103L6.81002 18.2503C6.66002 18.4003 6.47003 18.4703 6.28003 18.4703C6.09002 18.4703 5.90002 18.4003 5.75002 18.2503C5.46002 17.9603 5.46002 17.4803 5.75002 17.1903L9.29002 13.6503C9.58002 13.3603 10.06 13.3603 10.35 13.6503C10.64 13.9403 10.64 14.4203 10.35 14.7103ZM18.13 9.05027C17.69 9.49027 17.12 9.71027 16.54 9.71027C15.96 9.71027 15.39 9.49027 14.95 9.05027C14.07 8.17027 14.07 6.75027 14.95 5.87027C15.83 4.99027 17.25 4.99027 18.13 5.87027C19.01 6.75027 19.01 8.17027 18.13 9.05027Z" fill="black"/>
<path d="M16.54 6.71027C16.35 6.71027 16.16 6.78027 16.01 6.93027C15.72 7.22027 15.72 7.70027 16.01 7.99027C16.3 8.28027 16.78 8.28027 17.07 7.99027C17.36 7.70027 17.36 7.22027 17.07 6.93027C16.92 6.78027 16.73 6.71027 16.54 6.71027Z" fill="black"/>
</svg>
