<svg width="24" height="24" viewBox="0 0 24 24" fill="none" xmlns="http://www.w3.org/2000/svg">
<path d="M19 10.25H17.75V9C17.75 5.83 15.17 3.25 12 3.25C8.83 3.25 6.25 5.83 6.25 9V10.25H5C3.48 10.25 2.25 11.48 2.25 13V17C2.25 18.52 3.48 19.75 5 19.75H19C20.52 19.75 21.75 18.52 21.75 17V13C21.75 11.48 20.52 10.25 19 10.25ZM7.75 9C7.75 6.66 9.66 4.75 12 4.75C14.34 4.75 16.25 6.66 16.25 9V10.25H7.75V9ZM8.53 15.47C8.82 15.76 8.82 16.24 8.53 16.53C8.38 16.68 8.19 16.75 8 16.75C7.81 16.75 7.62 16.68 7.47 16.53L7 16.06L6.53 16.53C6.38 16.68 6.19 16.75 6 16.75C5.81 16.75 5.62 16.68 5.47 16.53C5.18 16.24 5.18 15.76 5.47 15.47L5.94 15L5.47 14.53C5.18 14.24 5.18 13.76 5.47 13.47C5.76 13.18 6.24 13.18 6.53 13.47L7 13.94L7.47 13.47C7.76 13.18 8.24 13.18 8.53 13.47C8.82 13.76 8.82 14.24 8.53 14.53L8.06 15L8.53 15.47ZM13.53 15.47C13.82 15.76 13.82 16.24 13.53 16.53C13.38 16.68 13.19 16.75 13 16.75C12.81 16.75 12.62 16.68 12.47 16.53L12 16.06L11.53 16.53C11.38 16.68 11.19 16.75 11 16.75C10.81 16.75 10.62 16.68 10.47 16.53C10.18 16.24 10.18 15.76 10.47 15.47L10.94 15L10.47 14.53C10.18 14.24 10.18 13.76 10.47 13.47C10.76 13.18 11.24 13.18 11.53 13.47L12 13.94L12.47 13.47C12.76 13.18 13.24 13.18 13.53 13.47C13.82 13.76 13.82 14.24 13.53 14.53L13.06 15L13.53 15.47ZM18.53 15.47C18.82 15.76 18.82 16.24 18.53 16.53C18.38 16.68 18.19 16.75 18 16.75C17.81 16.75 17.62 16.68 17.47 16.53L17 16.06L16.53 16.53C16.38 16.68 16.19 16.75 16 16.75C15.81 16.75 15.62 16.68 15.47 16.53C15.18 16.24 15.18 15.76 15.47 15.47L15.94 15L15.47 14.53C15.18 14.24 15.18 13.76 15.47 13.47C15.76 13.18 16.24 13.18 16.53 13.47L17 13.94L17.47 13.47C17.76 13.18 18.24 13.18 18.53 13.47C18.82 13.76 18.82 14.24 18.53 14.53L18.06 15L18.53 15.47Z" fill="black"/>
</svg>
