<svg width="24" height="24" viewBox="0 0 24 24" fill="none" xmlns="http://www.w3.org/2000/svg">
<path d="M19 3.25H5C3.48 3.25 2.25 4.48 2.25 6V18C2.25 19.52 3.48 20.75 5 20.75H19C20.52 20.75 21.75 19.52 21.75 18V6C21.75 4.48 20.52 3.25 19 3.25ZM11.25 8.75V11.25H6.75V8.75H11.25ZM20.25 8.75V11.25H18.75V8.75H20.25ZM17.25 11.25H12.75V8.75H17.25V11.25ZM9.75 15.25V12.75H14.25V15.25H9.75ZM9.75 7.25V4.75H14.25V7.25H9.75ZM5.25 11.25H3.75V8.75H5.25V11.25ZM3.75 12.75H8.25V15.25H3.75V12.75ZM11.25 16.75V19.25H6.75V16.75H11.25ZM12.75 16.75H17.25V19.25H12.75V16.75ZM15.75 15.25V12.75H20.25V15.25H15.75ZM20.25 6V7.25H15.75V4.75H19C19.69 4.75 20.25 5.31 20.25 6ZM5 4.75H8.25V7.25H3.75V6C3.75 5.31 4.31 4.75 5 4.75ZM3.75 18V16.75H5.25V19.25H5C4.31 19.25 3.75 18.69 3.75 18ZM19 19.25H18.75V16.75H20.25V18C20.25 18.69 19.69 19.25 19 19.25Z" fill="black"/>
</svg>
