<svg width="24" height="24" viewBox="0 0 24 24" fill="none" xmlns="http://www.w3.org/2000/svg">
<path d="M21.3201 11.32C20.7901 11.07 20.2501 10.86 19.7101 10.66L18.9301 6.01002C18.8501 5.52002 18.5601 5.09002 18.1501 4.83002C17.7301 4.56002 17.2201 4.49002 16.7401 4.62002C13.6501 5.48002 10.3501 5.47002 7.25008 4.62002C6.78008 4.49002 6.27008 4.56002 5.86008 4.83002C5.44008 5.10002 5.15008 5.53002 5.07008 6.02002L4.29008 10.67C3.74008 10.87 3.20008 11.09 2.68008 11.33C2.30008 11.51 2.14008 11.95 2.32008 12.33C2.45008 12.6 2.72008 12.76 3.00008 12.76C3.11008 12.76 3.21008 12.74 3.32008 12.69C8.72008 10.17 15.2901 10.17 20.6801 12.69C21.0601 12.87 21.5001 12.7 21.6801 12.33C21.8601 11.95 21.6901 11.51 21.3201 11.33V11.32ZM5.91008 10.13L6.56008 6.25002C6.58008 6.15002 6.64008 6.10002 6.67008 6.08002C6.71008 6.06002 6.78008 6.03002 6.85008 6.05002C10.2001 6.98002 13.7901 6.98002 17.1401 6.05002C17.2301 6.02002 17.3001 6.05002 17.3401 6.08002C17.3801 6.11002 17.4401 6.15002 17.4501 6.25002L18.1001 10.13C14.1501 9.01002 9.86008 9.02002 5.91008 10.13Z" fill="black"/>
<path d="M16.5001 12.25C15.1501 12.25 13.9901 13.08 13.5001 14.25H10.5001C10.0101 13.08 8.85008 12.25 7.50008 12.25C5.71008 12.25 4.25008 13.71 4.25008 15.5C4.25008 17.29 5.71008 18.75 7.50008 18.75C9.29008 18.75 10.5901 17.42 10.7201 15.75H13.2701C13.4001 17.42 14.7901 18.75 16.4901 18.75C18.2801 18.75 19.7401 17.29 19.7401 15.5C19.7401 13.71 18.2801 12.25 16.4901 12.25H16.5001ZM7.50008 17.25C6.54008 17.25 5.75008 16.46 5.75008 15.5C5.75008 14.54 6.54008 13.75 7.50008 13.75C8.46008 13.75 9.25008 14.54 9.25008 15.5C9.25008 16.46 8.46008 17.25 7.50008 17.25ZM16.5001 17.25C15.5401 17.25 14.7501 16.46 14.7501 15.5C14.7501 14.54 15.5401 13.75 16.5001 13.75C17.4601 13.75 18.2501 14.54 18.2501 15.5C18.2501 16.46 17.4601 17.25 16.5001 17.25Z" fill="black"/>
</svg>
