<svg width="24" height="24" viewBox="0 0 24 24" fill="none" xmlns="http://www.w3.org/2000/svg">
<path d="M12 13.2503C12.6904 13.2503 13.25 12.6906 13.25 12.0003C13.25 11.3099 12.6904 10.7503 12 10.7503C11.3097 10.7503 10.75 11.3099 10.75 12.0003C10.75 12.6906 11.3097 13.2503 12 13.2503Z" fill="black"/>
<path d="M20.77 14.8803C20.6 14.3003 20.21 13.8303 19.68 13.5503C19.17 13.2803 18.58 13.2203 18.03 13.3703L16.84 11.8503L17.91 10.2903C18.08 10.3303 18.25 10.3503 18.42 10.3503C18.82 10.3503 19.22 10.2403 19.59 10.0203C20.65 9.38025 20.99 7.99025 20.34 6.93025C19.7 5.87025 18.31 5.54025 17.25 6.18025C16.77 6.47025 16.43 6.93025 16.27 7.47025L14.3 7.75025L13.46 6.00025C13.84 5.57025 14.05 5.02025 14.03 4.44025C13.99 3.20025 12.99 2.26025 11.71 2.26025C10.47 2.30025 9.49002 3.34025 9.53002 4.58025C9.55002 5.16025 9.79002 5.69025 10.19 6.10025L9.46002 7.90025L7.52002 7.75025C7.34002 7.21025 6.96002 6.76025 6.46002 6.49025C5.36002 5.90025 4.00002 6.32025 3.42002 7.41025C3.14002 7.94025 3.08002 8.55025 3.25002 9.12025C3.42002 9.69025 3.81002 10.1703 4.34002 10.4503C4.67002 10.6303 5.03002 10.7203 5.40002 10.7203C5.60002 10.7203 5.80002 10.6803 5.99002 10.6303L7.18002 12.1503L6.11002 13.7103C5.56002 13.5803 4.96002 13.6603 4.44002 13.9803C3.38002 14.6203 3.04002 16.0103 3.69002 17.0703C4.11002 17.7603 4.86002 18.1503 5.62002 18.1503C6.02002 18.1503 6.42002 18.0403 6.79002 17.8203C7.27002 17.5303 7.61002 17.0703 7.77002 16.5303L9.74002 16.2503L10.58 18.0003C10.2 18.4303 9.99002 18.9803 10.01 19.5603C10.05 20.7803 11.05 21.7403 12.26 21.7403C12.28 21.7403 12.31 21.7403 12.33 21.7403C13.57 21.7003 14.55 20.6603 14.51 19.4203C14.49 18.8403 14.25 18.3103 13.85 17.9003L14.58 16.1003L16.52 16.2503C16.7 16.7903 17.08 17.2403 17.58 17.5103C17.92 17.6903 18.28 17.7803 18.64 17.7803C19.44 17.7803 20.22 17.3503 20.63 16.5903C20.91 16.0603 20.97 15.4503 20.8 14.8803H20.77ZM12 14.7503C10.48 14.7503 9.25002 13.5203 9.25002 12.0003C9.25002 10.4803 10.48 9.25025 12 9.25025C13.52 9.25025 14.75 10.4803 14.75 12.0003C14.75 13.5203 13.52 14.7503 12 14.7503Z" fill="black"/>
</svg>
