<svg width="24" height="24" viewBox="0 0 24 24" fill="none" xmlns="http://www.w3.org/2000/svg">
<path d="M19 10.25H17.75V9C17.75 5.83 15.17 3.25 12 3.25C8.83 3.25 6.25 5.83 6.25 9V10.25H5C3.48 10.25 2.25 11.48 2.25 13V17C2.25 18.52 3.48 19.75 5 19.75H19C20.52 19.75 21.75 18.52 21.75 17V13C21.75 11.48 20.52 10.25 19 10.25ZM7.75 9C7.75 6.66 9.66 4.75 12 4.75C14.34 4.75 16.25 6.66 16.25 9V10.25H7.75V9ZM20.25 17C20.25 17.69 19.69 18.25 19 18.25H5C4.31 18.25 3.75 17.69 3.75 17V13C3.75 12.31 4.31 11.75 5 11.75H19C19.69 11.75 20.25 12.31 20.25 13V17Z" fill="black"/>
<path d="M8.53 13.47C8.24 13.18 7.76 13.18 7.47 13.47L7 13.94L6.53 13.47C6.24 13.18 5.76 13.18 5.47 13.47C5.18 13.76 5.18 14.24 5.47 14.53L5.94 15L5.47 15.47C5.18 15.76 5.18 16.24 5.47 16.53C5.62 16.68 5.81 16.75 6 16.75C6.19 16.75 6.38 16.68 6.53 16.53L7 16.06L7.47 16.53C7.62 16.68 7.81 16.75 8 16.75C8.19 16.75 8.38 16.68 8.53 16.53C8.82 16.24 8.82 15.76 8.53 15.47L8.06 15L8.53 14.53C8.82 14.24 8.82 13.76 8.53 13.47Z" fill="black"/>
<path d="M13.53 13.47C13.24 13.18 12.76 13.18 12.47 13.47L12 13.94L11.53 13.47C11.24 13.18 10.76 13.18 10.47 13.47C10.18 13.76 10.18 14.24 10.47 14.53L10.94 15L10.47 15.47C10.18 15.76 10.18 16.24 10.47 16.53C10.62 16.68 10.81 16.75 11 16.75C11.19 16.75 11.38 16.68 11.53 16.53L12 16.06L12.47 16.53C12.62 16.68 12.81 16.75 13 16.75C13.19 16.75 13.38 16.68 13.53 16.53C13.82 16.24 13.82 15.76 13.53 15.47L13.06 15L13.53 14.53C13.82 14.24 13.82 13.76 13.53 13.47Z" fill="black"/>
<path d="M18.53 13.47C18.24 13.18 17.76 13.18 17.47 13.47L17 13.94L16.53 13.47C16.24 13.18 15.76 13.18 15.47 13.47C15.18 13.76 15.18 14.24 15.47 14.53L15.94 15L15.47 15.47C15.18 15.76 15.18 16.24 15.47 16.53C15.62 16.68 15.81 16.75 16 16.75C16.19 16.75 16.38 16.68 16.53 16.53L17 16.06L17.47 16.53C17.62 16.68 17.81 16.75 18 16.75C18.19 16.75 18.38 16.68 18.53 16.53C18.82 16.24 18.82 15.76 18.53 15.47L18.06 15L18.53 14.53C18.82 14.24 18.82 13.76 18.53 13.47Z" fill="black"/>
</svg>
