<svg width="24" height="24" viewBox="0 0 24 24" fill="none" xmlns="http://www.w3.org/2000/svg">
<path d="M8.99997 17.25H4.99997C4.58997 17.25 4.24997 17.59 4.24997 18V19C4.24997 20.52 5.47997 21.75 6.99997 21.75C8.51997 21.75 9.74997 20.52 9.74997 19V18C9.74997 17.59 9.40997 17.25 8.99997 17.25Z" fill="black"/>
<path d="M6.99997 2.25C5.47997 2.25 4.12997 3.16 3.55997 4.58C2.68997 6.76 2.55997 9.2 3.20997 11.46L4.27997 15.21C4.36997 15.53 4.66997 15.75 4.99997 15.75H8.99997C9.32997 15.75 9.62997 15.53 9.71997 15.21L10.79 11.46C11.44 9.2 11.31 6.76 10.44 4.58C9.86997 3.16 8.51997 2.25 6.99997 2.25Z" fill="black"/>
<path d="M19 17.25H15C14.59 17.25 14.25 17.59 14.25 18V19C14.25 20.52 15.48 21.75 17 21.75C18.52 21.75 19.75 20.52 19.75 19V18C19.75 17.59 19.41 17.25 19 17.25Z" fill="black"/>
<path d="M20.44 4.58C19.87 3.16 18.52 2.25 17 2.25C15.48 2.25 14.13 3.16 13.56 4.58C12.69 6.76 12.56 9.2 13.21 11.46L14.28 15.21C14.37 15.53 14.67 15.75 15 15.75H19C19.33 15.75 19.63 15.53 19.72 15.21L20.79 11.46C21.44 9.2 21.31 6.76 20.44 4.58Z" fill="black"/>
</svg>
