<svg width="24" height="24" viewBox="0 0 24 24" fill="none" xmlns="http://www.w3.org/2000/svg">
<path d="M20 4.25H19C18.04 4.25 17.25 5.04 17.25 6V6.25H6.75V6C6.75 5.04 5.96 4.25 5 4.25H4C3.04 4.25 2.25 5.04 2.25 6V18C2.25 18.96 3.04 19.75 4 19.75H5C5.96 19.75 6.75 18.96 6.75 18V14.75H17.25V18C17.25 18.96 18.04 19.75 19 19.75H20C20.96 19.75 21.75 18.96 21.75 18V6C21.75 5.04 20.96 4.25 20 4.25ZM11.14 13.25L13.5 7.75H15.87L13.51 13.25H11.14ZM7.14 13.25L9.5 7.75H11.87L9.51 13.25H7.14ZM7.86 7.75L6.75 10.35V7.75H7.86ZM5.25 18C5.25 18.14 5.14 18.25 5 18.25H4C3.86 18.25 3.75 18.14 3.75 18V6C3.75 5.86 3.86 5.75 4 5.75H5C5.14 5.75 5.25 5.86 5.25 6V18ZM15.14 13.25L17.25 8.32V13.25H15.14ZM20.25 18C20.25 18.14 20.14 18.25 20 18.25H19C18.86 18.25 18.75 18.14 18.75 18V6C18.75 5.86 18.86 5.75 19 5.75H20C20.14 5.75 20.25 5.86 20.25 6V18Z" fill="black"/>
</svg>
