<svg width="24" height="24" viewBox="0 0 24 24" fill="none" xmlns="http://www.w3.org/2000/svg">
<path d="M19.64 5.98029L12.79 2.55029C12.3 2.30029 11.71 2.30029 11.23 2.55029L4.38001 5.98029C3.66001 6.34029 3.28001 7.14029 3.45001 7.92029L5.21001 15.8203C5.29001 16.2003 5.50001 16.5403 5.80001 16.7903L10.9 21.0403C11.23 21.3103 11.62 21.4503 12.02 21.4503C12.42 21.4503 12.82 21.3103 13.14 21.0403L18.24 16.7903C18.54 16.5403 18.74 16.2003 18.83 15.8303L20.59 7.92029C20.76 7.14029 20.38 6.34029 19.66 5.98029H19.64ZM18.97 7.32029C19.07 7.37029 19.13 7.49029 19.1 7.60029L18.29 11.2503H12.75V4.21029L18.97 7.32029ZM5.04001 7.32029L11.26 4.21029V11.2503H5.71001L4.90001 7.60029C4.88001 7.49029 4.93001 7.37029 5.03001 7.32029H5.04001ZM6.75001 15.6403C6.75001 15.6403 6.68001 15.5603 6.67001 15.5003L6.06001 12.7503H11.26V19.4003L6.75001 15.6403ZM17.27 15.6403L12.76 19.4003V12.7503H17.96L17.35 15.5003C17.34 15.5503 17.31 15.6003 17.27 15.6403Z" fill="black"/>
</svg>
