<svg width="24" height="24" viewBox="0 0 24 24" fill="none" xmlns="http://www.w3.org/2000/svg">
<path d="M17.75 9.37V8C17.75 4.83 15.17 2.25 12 2.25C8.83 2.25 6.25 4.83 6.25 8V9.37C5.1 9.7 4.25 10.75 4.25 12V19C4.25 20.52 5.48 21.75 7 21.75H17C18.52 21.75 19.75 20.52 19.75 19V12C19.75 10.75 18.9 9.7 17.75 9.37ZM12 5.75C13.24 5.75 14.25 6.76 14.25 8V9.25H9.75V8C9.75 6.76 10.76 5.75 12 5.75ZM12.75 16.57V18C12.75 18.41 12.41 18.75 12 18.75C11.59 18.75 11.25 18.41 11.25 18V16.57C10.66 16.29 10.25 15.69 10.25 15C10.25 14.04 11.04 13.25 12 13.25C12.96 13.25 13.75 14.04 13.75 15C13.75 15.7 13.34 16.29 12.75 16.57Z" fill="black"/>
</svg>
