<svg width="24" height="24" viewBox="0 0 24 24" fill="none" xmlns="http://www.w3.org/2000/svg">
<path d="M3 9.75C3.41 9.75 3.75 9.41 3.75 9V7C3.75 5.21 5.21 3.75 7 3.75H9C9.41 3.75 9.75 3.41 9.75 3C9.75 2.59 9.41 2.25 9 2.25H7C4.38 2.25 2.25 4.38 2.25 7V9C2.25 9.41 2.59 9.75 3 9.75Z" fill="black"/>
<path d="M9 20.25H7C5.21 20.25 3.75 18.79 3.75 17V15C3.75 14.59 3.41 14.25 3 14.25C2.59 14.25 2.25 14.59 2.25 15V17C2.25 19.62 4.38 21.75 7 21.75H9C9.41 21.75 9.75 21.41 9.75 21C9.75 20.59 9.41 20.25 9 20.25Z" fill="black"/>
<path d="M21 14.25C20.59 14.25 20.25 14.59 20.25 15V17C20.25 18.79 18.79 20.25 17 20.25H15C14.59 20.25 14.25 20.59 14.25 21C14.25 21.41 14.59 21.75 15 21.75H17C19.62 21.75 21.75 19.62 21.75 17V15C21.75 14.59 21.41 14.25 21 14.25Z" fill="black"/>
<path d="M17 2.25H15C14.59 2.25 14.25 2.59 14.25 3C14.25 3.41 14.59 3.75 15 3.75H17C18.79 3.75 20.25 5.21 20.25 7V9C20.25 9.41 20.59 9.75 21 9.75C21.41 9.75 21.75 9.41 21.75 9V7C21.75 4.38 19.62 2.25 17 2.25Z" fill="black"/>
<path d="M17 17.75C17.41 17.75 17.75 17.41 17.75 17V11C17.75 7.83 15.17 5.25 12 5.25C10.17 5.25 8.5 6.09 7.4 7.55C7.15 7.88 7.22 8.35 7.55 8.6C7.88 8.85 8.35 8.78 8.6 8.45C9.41 7.37 10.65 6.75 12 6.75C14.34 6.75 16.25 8.66 16.25 11V17C16.25 17.41 16.59 17.75 17 17.75Z" fill="black"/>
<path d="M7 10.25C6.59 10.25 6.25 10.59 6.25 11V17C6.25 17.41 6.59 17.75 7 17.75C7.41 17.75 7.75 17.41 7.75 17V11C7.75 10.59 7.41 10.25 7 10.25Z" fill="black"/>
<path d="M14.25 13V16C14.25 16.41 14.59 16.75 15 16.75C15.41 16.75 15.75 16.41 15.75 16V13C15.75 12.59 15.41 12.25 15 12.25C14.59 12.25 14.25 12.59 14.25 13Z" fill="black"/>
<path d="M14.5 9.21C13.81 8.59 12.92 8.25 12 8.25C9.93 8.25 8.25 9.93 8.25 12V16C8.25 16.41 8.59 16.75 9 16.75C9.41 16.75 9.75 16.41 9.75 16V12C9.75 10.76 10.76 9.75 12 9.75C12.55 9.75 13.09 9.95 13.5 10.32C13.81 10.6 14.28 10.57 14.56 10.26C14.84 9.95 14.81 9.48 14.5 9.2V9.21Z" fill="black"/>
<path d="M12 16.25C11.59 16.25 11.25 16.59 11.25 17V18C11.25 18.41 11.59 18.75 12 18.75C12.41 18.75 12.75 18.41 12.75 18V17C12.75 16.59 12.41 16.25 12 16.25Z" fill="black"/>
<path d="M12 11.25C11.59 11.25 11.25 11.59 11.25 12V14C11.25 14.41 11.59 14.75 12 14.75C12.41 14.75 12.75 14.41 12.75 14V12C12.75 11.59 12.41 11.25 12 11.25Z" fill="black"/>
</svg>
