<svg width="24" height="24" viewBox="0 0 24 24" fill="none" xmlns="http://www.w3.org/2000/svg">
<path d="M8.99997 17.25H4.99997C4.58997 17.25 4.24997 17.59 4.24997 18V19C4.24997 20.52 5.47997 21.75 6.99997 21.75C8.51997 21.75 9.74997 20.52 9.74997 19V18C9.74997 17.59 9.40997 17.25 8.99997 17.25ZM8.24997 19C8.24997 19.69 7.68997 20.25 6.99997 20.25C6.30997 20.25 5.74997 19.69 5.74997 19V18.75H8.24997V19Z" fill="black"/>
<path d="M6.99997 2.25C5.47997 2.25 4.12997 3.16 3.55997 4.58C2.68997 6.76 2.55997 9.2 3.20997 11.46L4.27997 15.21C4.36997 15.53 4.66997 15.75 4.99997 15.75H8.99997C9.32997 15.75 9.62997 15.53 9.71997 15.21L10.79 11.46C11.44 9.2 11.31 6.76 10.44 4.58C9.86997 3.16 8.51997 2.25 6.99997 2.25ZM9.34997 11.05L8.42997 14.25H5.55997L4.63997 11.05C4.08997 9.11 4.18997 7.01 4.93997 5.14C5.27997 4.3 6.07997 3.75 6.98997 3.75C7.89997 3.75 8.69997 4.29 9.03997 5.14C9.78997 7.01 9.89997 9.11 9.33997 11.05H9.34997Z" fill="black"/>
<path d="M19 17.25H15C14.59 17.25 14.25 17.59 14.25 18V19C14.25 20.52 15.48 21.75 17 21.75C18.52 21.75 19.75 20.52 19.75 19V18C19.75 17.59 19.41 17.25 19 17.25ZM18.25 19C18.25 19.69 17.69 20.25 17 20.25C16.31 20.25 15.75 19.69 15.75 19V18.75H18.25V19Z" fill="black"/>
<path d="M20.44 4.58C19.87 3.16 18.52 2.25 17 2.25C15.48 2.25 14.13 3.16 13.56 4.58C12.69 6.76 12.56 9.2 13.21 11.46L14.28 15.21C14.37 15.53 14.67 15.75 15 15.75H19C19.33 15.75 19.63 15.53 19.72 15.21L20.79 11.46C21.44 9.2 21.31 6.76 20.44 4.58ZM19.35 11.05L18.43 14.25H15.56L14.64 11.05C14.09 9.11 14.19 7.01 14.94 5.14C15.28 4.3 16.08 3.75 16.99 3.75C17.9 3.75 18.7 4.29 19.04 5.14C19.79 7.01 19.9 9.11 19.34 11.05H19.35Z" fill="black"/>
</svg>
