<svg width="24" height="24" viewBox="0 0 24 24" fill="none" xmlns="http://www.w3.org/2000/svg">
<path d="M20 4.25H19C18.04 4.25 17.25 5.04 17.25 6V8.32L14.69 14.3L14.49 14.75H17.25V18C17.25 18.96 18.04 19.75 19 19.75H20C20.96 19.75 21.75 18.96 21.75 18V6C21.75 5.04 20.96 4.25 20 4.25Z" fill="black"/>
<path d="M12.5 6.25H10.07L9.69998 7.26L6.73998 14.17V10.36L8.29998 6.71L8.45998 6.26H6.72998V6.01C6.72998 5.05 5.93998 4.26 4.97998 4.26H3.97998C3.01998 4.26 2.22998 5.05 2.22998 6.01V18.01C2.22998 18.97 3.01998 19.76 3.97998 19.76H4.97998C5.93998 19.76 6.72998 18.97 6.72998 18.01V14.76H8.86998L9.27998 13.73L12.29 6.71L12.48 6.26L12.5 6.25Z" fill="black"/>
<path d="M16.52 6.25H14.12L13.69 7.29L10.69 14.3L10.51 14.75H12.85L13.31 13.7L16.31 6.7L16.52 6.25Z" fill="black"/>
</svg>
