<svg width="24" height="24" viewBox="0 0 24 24" fill="none" xmlns="http://www.w3.org/2000/svg">
<path d="M20.65 15.38L19.19 7.33C18.86 5.55 17.31 4.25 15.5 4.25H8.51001C6.70001 4.25 5.14001 5.54 4.82001 7.33L3.36001 15.38C2.72001 15.64 2.26001 16.27 2.26001 17V18C2.26001 18.96 3.05001 19.75 4.01001 19.75H20C20.96 19.75 21.75 18.96 21.75 18V17C21.75 16.27 21.29 15.64 20.65 15.38ZM6.29001 7.6C6.48001 6.53 7.42001 5.75 8.50001 5.75H15.49C16.58 5.75 17.51 6.53 17.7 7.6L19.09 15.25H4.90001L6.29001 7.6ZM20.25 18C20.25 18.14 20.14 18.25 20 18.25H4.00001C3.86001 18.25 3.75001 18.14 3.75001 18V17C3.75001 16.86 3.86001 16.75 4.00001 16.75H20C20.14 16.75 20.25 16.86 20.25 17V18Z" fill="black"/>
<path d="M12 8.25C11.59 8.25 11.25 8.59 11.25 9V12C11.25 12.41 11.59 12.75 12 12.75C12.41 12.75 12.75 12.41 12.75 12V9C12.75 8.59 12.41 8.25 12 8.25Z" fill="black"/>
</svg>
