<svg width="24" height="24" viewBox="0 0 24 24" fill="none" xmlns="http://www.w3.org/2000/svg">
<path d="M13.33 6.45975L10.85 6.10975C10.85 6.10975 10.83 6.10975 10.81 6.10975C10.74 6.10975 10.68 6.13975 10.64 6.17975L6.4 10.4197C6.34 10.4797 6.32 10.5497 6.33 10.6297L6.68 13.0997C6.7 13.2297 6.79 13.2797 6.85 13.2997C6.91 13.3197 7.01 13.3397 7.1 13.2397L13.46 6.87975C13.55 6.77975 13.54 6.67975 13.52 6.61975C13.5 6.55975 13.45 6.46975 13.32 6.44975L13.33 6.45975Z" fill="black"/>
<path d="M17.62 10.7097C17.62 10.7097 17.57 10.6997 17.54 10.6997C17.49 10.6997 17.43 10.7197 17.37 10.7697L11.01 17.1297C10.92 17.2297 10.93 17.3297 10.95 17.3897C10.97 17.4497 11.02 17.5397 11.15 17.5597L13.62 17.9097C13.7 17.9297 13.78 17.8897 13.83 17.8397L18.07 13.5997C18.12 13.5397 18.15 13.4697 18.14 13.3897L17.79 10.9097C17.77 10.7797 17.68 10.7297 17.62 10.7097Z" fill="black"/>
<path d="M20.94 6.87975L17.11 3.04975C16.59 2.52975 15.9 2.23975 15.17 2.23975H8.83C8.1 2.23975 7.41 2.52975 6.89 3.04975L3.06 6.87975C2.54 7.39975 2.25 8.08975 2.25 8.81975V15.1597C2.25 15.8897 2.54 16.5897 3.06 17.0997L6.89 20.9297C7.41 21.4497 8.1 21.7397 8.83 21.7397H15.17C15.9 21.7397 16.59 21.4497 17.11 20.9297L20.94 17.0997C21.46 16.5797 21.75 15.8897 21.75 15.1597V8.81975C21.75 8.08975 21.46 7.38975 20.94 6.87975ZM8.16 14.2997C7.83 14.6297 7.38 14.8097 6.93 14.8097C6.74 14.8097 6.56 14.7797 6.37 14.7197C5.74 14.5097 5.29 13.9697 5.19 13.3097L4.84 10.8397C4.76 10.2997 4.95 9.73975 5.34 9.34975L9.58 5.10975C9.96 4.71975 10.51 4.52975 11.07 4.61975L13.54 4.96975C14.2 5.05975 14.74 5.51975 14.95 6.14975C15.16 6.77975 15 7.46975 14.53 7.93975L8.17 14.2997H8.16ZM19.12 14.6497L14.88 18.8897C14.55 19.2197 14.1 19.3997 13.64 19.3997C13.56 19.3997 13.48 19.3997 13.4 19.3797L10.92 19.0297C10.26 18.9397 9.72 18.4797 9.51 17.8497C9.3 17.2197 9.46 16.5297 9.93 16.0597L16.29 9.69975C16.76 9.22975 17.45 9.06975 18.08 9.27975C18.71 9.48975 19.16 10.0297 19.26 10.6897L19.61 13.1697C19.69 13.7097 19.5 14.2697 19.12 14.6497Z" fill="black"/>
</svg>
