<svg width="24" height="24" viewBox="0 0 24 24" fill="none" xmlns="http://www.w3.org/2000/svg">
<path d="M17 2.25H7C4.38 2.25 2.25 4.38 2.25 7V17C2.25 19.62 4.38 21.75 7 21.75H17C19.62 21.75 21.75 19.62 21.75 17V7C21.75 4.38 19.62 2.25 17 2.25ZM7.75 17C7.75 17.41 7.41 17.75 7 17.75C6.59 17.75 6.25 17.41 6.25 17V11C6.25 10.59 6.59 10.25 7 10.25C7.41 10.25 7.75 10.59 7.75 11V17ZM12.75 18C12.75 18.41 12.41 18.75 12 18.75C11.59 18.75 11.25 18.41 11.25 18V17C11.25 16.59 11.59 16.25 12 16.25C12.41 16.25 12.75 16.59 12.75 17V18ZM12.75 14C12.75 14.41 12.41 14.75 12 14.75C11.59 14.75 11.25 14.41 11.25 14V12C11.25 11.59 11.59 11.25 12 11.25C12.41 11.25 12.75 11.59 12.75 12V14ZM13.5 10.32C13.09 9.95 12.55 9.75 12 9.75C10.76 9.75 9.75 10.76 9.75 12V16C9.75 16.41 9.41 16.75 9 16.75C8.59 16.75 8.25 16.41 8.25 16V12C8.25 9.93 9.93 8.25 12 8.25C12.92 8.25 13.81 8.59 14.5 9.21C14.81 9.49 14.83 9.96 14.56 10.27C14.28 10.58 13.81 10.61 13.5 10.33V10.32ZM15.75 16C15.75 16.41 15.41 16.75 15 16.75C14.59 16.75 14.25 16.41 14.25 16V13C14.25 12.59 14.59 12.25 15 12.25C15.41 12.25 15.75 12.59 15.75 13V16ZM17.75 17C17.75 17.41 17.41 17.75 17 17.75C16.59 17.75 16.25 17.41 16.25 17V11C16.25 8.66 14.34 6.75 12 6.75C10.65 6.75 9.41 7.37 8.6 8.45C8.35 8.78 7.88 8.85 7.55 8.6C7.22 8.35 7.15 7.88 7.4 7.55C8.5 6.09 10.17 5.25 12 5.25C15.17 5.25 17.75 7.83 17.75 11V17Z" fill="black"/>
</svg>
