<svg width="24" height="24" viewBox="0 0 24 24" fill="none" xmlns="http://www.w3.org/2000/svg">
<path d="M8.39001 4.11C8.43001 4.2 8.52001 4.25 8.61001 4.25H11.37C11.47 4.25 11.55 4.2 11.59 4.11L12.29 2.71L12.44 2.25H7.51001L7.70001 2.72L8.40001 4.11H8.39001Z" fill="black"/>
<path d="M14.3 18.62C12.86 17.73 10.36 15.73 9.79001 12.39C9.68001 11.75 9.65001 11.1 9.69001 10.45C9.77001 9.3 10.46 8.27 11.48 7.75L14.55 6.22C15 6 15.5 5.88 16 5.88C16.25 5.88 16.5 5.91 16.75 5.97C16.73 4.27 15.57 2.85 14 2.41L13.72 3.25C13.72 3.25 13.7 3.32 13.68 3.35L12.96 4.8C12.66 5.4 12.06 5.77 11.39 5.77H8.63001C7.96001 5.77 7.36001 5.4 7.06001 4.8L6.34001 3.35L5.97001 2.43C4.41001 2.88 3.26001 4.31 3.26001 6.02V18.02C3.26001 20.09 4.94001 21.77 7.01001 21.77H13.01C13.17 21.77 13.33 21.76 13.49 21.74C14.91 21.56 16.04 20.48 16.44 19.09C16.3 19.11 16.16 19.12 16.01 19.12C15.41 19.12 14.82 18.95 14.31 18.64L14.3 18.62Z" fill="black"/>
<path d="M20.82 10.54C20.78 9.92 20.41 9.36 19.85 9.08L16.78 7.55C16.29 7.3 15.71 7.3 15.22 7.55L12.15 9.08C11.6 9.36 11.23 9.92 11.18 10.54C11.14 11.07 11.17 11.61 11.26 12.12C11.74 14.89 13.86 16.57 15.09 17.33C15.37 17.5 15.68 17.59 16 17.59C16.32 17.59 16.63 17.5 16.91 17.33C18.13 16.57 20.26 14.88 20.74 12.12C20.83 11.6 20.86 11.07 20.82 10.54ZM18.03 12.01L16.03 14.01C15.88 14.16 15.69 14.23 15.5 14.23C15.31 14.23 15.12 14.16 14.97 14.01L13.97 13.01C13.68 12.72 13.68 12.24 13.97 11.95C14.26 11.66 14.74 11.66 15.03 11.95L15.5 12.42L16.97 10.95C17.26 10.66 17.74 10.66 18.03 10.95C18.32 11.24 18.32 11.72 18.03 12.01Z" fill="black"/>
</svg>
