<svg width="24" height="24" viewBox="0 0 24 24" fill="none" xmlns="http://www.w3.org/2000/svg">
<path d="M19.74 4.26027C17.1 1.62027 12.79 1.62027 10.15 4.26027C8.31002 6.10027 7.68003 8.66027 8.46002 11.0503L3.33002 16.2003C3.23002 16.3003 3.16002 16.4403 3.13002 16.5803L2.28002 20.8403C2.23002 21.0903 2.31002 21.3403 2.49002 21.5203C2.63002 21.6603 2.82002 21.7403 3.02002 21.7403C3.07002 21.7403 3.12002 21.7403 3.17002 21.7303L7.43002 20.8803C7.57002 20.8503 7.71002 20.7803 7.81002 20.6703L12.95 15.5303C15.34 16.2703 17.96 15.6303 19.75 13.8503C22.39 11.2103 22.39 6.90027 19.75 4.26027H19.74ZM18.68 12.7903C17.19 14.2803 14.97 14.7403 13.02 13.9703C12.74 13.8603 12.43 13.9303 12.22 14.1403L6.91002 19.4503L3.97002 20.0403L4.56002 17.1003L9.87002 11.7703C10.08 11.5603 10.15 11.2403 10.03 10.9603C9.24002 9.01027 9.70003 6.85027 11.22 5.32027C13.28 3.26027 16.63 3.26027 18.69 5.32027C20.75 7.38027 20.75 10.7303 18.69 12.7903H18.68Z" fill="black"/>
<path d="M18.13 5.87027C17.25 4.99027 15.83 4.99027 14.95 5.87027C14.07 6.75027 14.07 8.17027 14.95 9.05027C15.39 9.49027 15.96 9.71027 16.54 9.71027C17.12 9.71027 17.69 9.49027 18.13 9.05027C19.01 8.17027 19.01 6.75027 18.13 5.87027ZM17.07 7.99027C16.78 8.28027 16.3 8.28027 16.01 7.99027C15.72 7.70027 15.72 7.22027 16.01 6.93027C16.16 6.78027 16.35 6.71027 16.54 6.71027C16.73 6.71027 16.92 6.78027 17.07 6.93027C17.36 7.22027 17.36 7.70027 17.07 7.99027Z" fill="black"/>
<path d="M9.29002 13.6503L5.75002 17.1903C5.46002 17.4803 5.46002 17.9603 5.75002 18.2503C5.90002 18.4003 6.09002 18.4703 6.28003 18.4703C6.47003 18.4703 6.66002 18.4003 6.81002 18.2503L10.35 14.7103C10.64 14.4203 10.64 13.9403 10.35 13.6503C10.06 13.3603 9.58002 13.3603 9.29002 13.6503Z" fill="black"/>
</svg>
