<svg width="24" height="24" viewBox="0 0 24 24" fill="none" xmlns="http://www.w3.org/2000/svg">
<path d="M19.64 5.98004L12.79 2.55004C12.79 2.55004 12.77 2.55004 12.76 2.54004V11.25H19.83L20.57 7.92004C20.74 7.14004 20.36 6.34004 19.64 5.98004Z" fill="black"/>
<path d="M4.35999 5.98004C3.63999 6.34004 3.25999 7.14004 3.42999 7.92004L4.16999 11.25H11.24V2.54004C11.24 2.54004 11.22 2.54004 11.21 2.55004L4.35999 5.98004Z" fill="black"/>
<path d="M5.18999 15.83C5.26999 16.21 5.47999 16.55 5.77999 16.8L10.88 21.05C10.99 21.14 11.12 21.2 11.25 21.26V12.75H4.50999L5.18999 15.83Z" fill="black"/>
<path d="M12.75 21.25C12.88 21.19 13.01 21.13 13.12 21.04L18.22 16.79C18.52 16.54 18.72 16.2 18.81 15.83L19.49 12.75H12.75V21.25Z" fill="black"/>
</svg>
