<svg width="24" height="24" viewBox="0 0 24 24" fill="none" xmlns="http://www.w3.org/2000/svg">
<path d="M12.73 9.38C12.61 9.3 12.46 9.25 12.31 9.25H5.67999C5.52999 9.25 5.38999 9.29 5.25999 9.38C3.36999 10.64 2.23999 12.74 2.23999 15.01C2.23999 18.73 5.26999 21.76 8.98999 21.76C12.71 21.76 15.74 18.73 15.74 15.01C15.74 12.74 14.61 10.64 12.72 9.38H12.73Z" fill="black"/>
<path d="M21 6.25H20C19.59 6.25 19.25 6.59 19.25 7C19.25 7.41 19.59 7.75 20 7.75H21C21.41 7.75 21.75 7.41 21.75 7C21.75 6.59 21.41 6.25 21 6.25Z" fill="black"/>
<path d="M19 5.75C19.19 5.75 19.38 5.68 19.53 5.53L20.24 4.82C20.53 4.53 20.53 4.05 20.24 3.76C19.95 3.47 19.47 3.47 19.18 3.76L18.47 4.47C18.18 4.76 18.18 5.24 18.47 5.53C18.62 5.68 18.81 5.75 19 5.75Z" fill="black"/>
<path d="M19.53 8.47C19.24 8.18 18.76 8.18 18.47 8.47C18.18 8.76 18.18 9.24 18.47 9.53L19.18 10.24C19.33 10.39 19.52 10.46 19.71 10.46C19.9 10.46 20.09 10.39 20.24 10.24C20.53 9.95 20.53 9.47 20.24 9.18L19.53 8.47Z" fill="black"/>
<path d="M17 6.25H16.5C16.09 6.25 15.75 5.91 15.75 5.5C15.75 4.26 14.74 3.25 13.5 3.25H10.5C9.25999 3.25 8.24999 4.26 8.24999 5.5V6.25H5.99999C5.03999 6.25 4.24999 7.04 4.24999 8V8.27C4.30999 8.22 4.36999 8.17 4.43999 8.13C4.81999 7.88 5.23999 7.75 5.68999 7.75H12.32C12.76 7.75 13.19 7.88 13.56 8.12C13.63 8.16 13.69 8.22 13.75 8.27V8C13.75 7.04 12.96 6.25 12 6.25H9.74999V5.5C9.74999 5.09 10.09 4.75 10.5 4.75H13.5C13.91 4.75 14.25 5.09 14.25 5.5C14.25 6.74 15.26 7.75 16.5 7.75H17C17.41 7.75 17.75 7.41 17.75 7C17.75 6.59 17.41 6.25 17 6.25Z" fill="black"/>
</svg>
