<svg width="24" height="24" viewBox="0 0 24 24" fill="none" xmlns="http://www.w3.org/2000/svg">
<path d="M18.97 9.31999C18.8 8.87999 18.47 8.53999 18.04 8.34999L9.81 4.70999C9.38 4.51999 8.91 4.50999 8.47 4.67999C8.03 4.84999 7.69 5.17999 7.5 5.59999L5.88 9.25999C5.69 9.68999 5.68 10.16 5.85 10.6C6.02 11.04 6.35 11.38 6.77 11.57L10.06 13.02L8.95 14.68C8.72 15.03 8.33 15.24 7.91 15.24H3.75V8.98999C3.75 8.57999 3.41 8.23999 3 8.23999C2.59 8.23999 2.25 8.57999 2.25 8.98999V18.99C2.25 19.4 2.59 19.74 3 19.74C3.41 19.74 3.75 19.4 3.75 18.99V16.74H7.93C8.85 16.74 9.71 16.28 10.22 15.52L11.47 13.64L15.02 15.21C15.25 15.31 15.49 15.36 15.72 15.36C16.39 15.36 17.03 14.97 17.32 14.32L18.94 10.66C19.13 10.23 19.14 9.75999 18.97 9.31999Z" fill="black"/>
<path d="M21.31 11.45C21.16 11.06 20.88 10.76 20.52 10.56C20.47 10.8 20.41 11.04 20.31 11.27L18.7 14.93C18.6 15.16 18.46 15.37 18.32 15.56C18.5 15.62 18.69 15.66 18.88 15.66C19.09 15.66 19.31 15.62 19.51 15.54C19.95 15.37 20.29 15.04 20.48 14.62L21.29 12.79C21.48 12.36 21.49 11.89 21.32 11.45H21.31Z" fill="black"/>
</svg>
