<svg width="24" height="24" viewBox="0 0 24 24" fill="none" xmlns="http://www.w3.org/2000/svg">
<path d="M16.08 18.2903C15.69 18.1503 15.26 18.3603 15.12 18.7503C14.8 19.6503 13.95 20.2503 13 20.2503H7.00001C5.76001 20.2503 4.75001 19.2403 4.75001 18.0003V6.00025C4.75001 4.91025 5.53001 4.00025 6.56001 3.79025L7.05001 4.78025C7.35001 5.38025 7.95001 5.75025 8.62001 5.75025H11.38C12.05 5.75025 12.65 5.38025 12.95 4.78025L13.44 3.79025C14.47 4.00025 15.25 4.91025 15.25 6.00025C15.25 6.41025 15.59 6.75025 16 6.75025C16.41 6.75025 16.75 6.41025 16.75 6.00025C16.75 3.95025 15.1 2.29025 13.07 2.26025H13.04C13.04 2.26025 13.02 2.26025 13.01 2.26025H7.00001C7.00001 2.26025 6.98001 2.26025 6.97001 2.26025H6.94001C4.90001 2.30025 3.26001 3.96025 3.26001 6.01025V18.0103C3.26001 20.0803 4.94001 21.7603 7.01001 21.7603H13.01C14.6 21.7603 16.02 20.7603 16.55 19.2603C16.69 18.8703 16.48 18.4403 16.09 18.3003L16.08 18.2903ZM8.62001 4.25025C8.52001 4.25025 8.44001 4.20025 8.40001 4.11025L8.22001 3.75025H11.79L11.61 4.11025C11.57 4.20025 11.48 4.25025 11.39 4.25025H8.62001Z" fill="black"/>
<path d="M20.82 10.5403C20.78 9.92025 20.41 9.36025 19.85 9.08025L16.78 7.55025C16.29 7.30025 15.71 7.30025 15.22 7.55025L12.15 9.08025C11.6 9.36025 11.23 9.92025 11.18 10.5403C11.14 11.0703 11.17 11.6103 11.26 12.1203C11.74 14.8903 13.86 16.5703 15.09 17.3303C15.37 17.5003 15.68 17.5903 16 17.5903C16.32 17.5903 16.63 17.5003 16.91 17.3303C18.13 16.5703 20.26 14.8803 20.74 12.1203C20.83 11.6003 20.86 11.0703 20.82 10.5403ZM19.26 11.8703C18.88 14.0603 17.13 15.4403 16.12 16.0603C16.05 16.1003 15.95 16.1003 15.88 16.0603C14.87 15.4303 13.12 14.0503 12.74 11.8703C12.67 11.4703 12.65 11.0603 12.68 10.6503C12.68 10.5503 12.74 10.4703 12.82 10.4303L15.89 8.90025C15.96 8.86025 16.04 8.86025 16.11 8.90025L19.18 10.4303C19.26 10.4703 19.32 10.5503 19.32 10.6503C19.35 11.0603 19.32 11.4803 19.26 11.8703Z" fill="black"/>
<path d="M16.97 10.9503L15.5 12.4203L15.03 11.9503C14.74 11.6603 14.26 11.6603 13.97 11.9503C13.68 12.2403 13.68 12.7203 13.97 13.0103L14.97 14.0103C15.12 14.1603 15.31 14.2303 15.5 14.2303C15.69 14.2303 15.88 14.1603 16.03 14.0103L18.03 12.0103C18.32 11.7203 18.32 11.2403 18.03 10.9503C17.74 10.6603 17.26 10.6603 16.97 10.9503Z" fill="black"/>
</svg>
