<svg width="24" height="24" viewBox="0 0 24 24" fill="none" xmlns="http://www.w3.org/2000/svg">
<path d="M20.61 7.23004L20.01 4.25004C19.9 3.72004 19.56 3.27004 19.08 3.02004C18.61 2.78004 18.07 2.77004 17.59 2.99004C17.34 3.11004 17.07 3.20004 16.81 3.27004C15.13 3.71004 13.61 3.07004 12.85 2.64004C12.32 2.34004 11.67 2.34004 11.14 2.64004C10.39 3.06004 8.86998 3.71004 7.17998 3.27004C6.90998 3.20004 6.64998 3.10004 6.39998 2.99004C5.92998 2.77004 5.37998 2.78004 4.90998 3.02004C4.41998 3.27004 4.07998 3.71004 3.97998 4.25004L3.37998 7.23004C2.62998 10.96 3.93998 14.85 6.77998 17.37L10.83 20.97C11.16 21.26 11.58 21.41 11.99 21.41C12.4 21.41 12.82 21.26 13.15 20.97L17.2 17.37C20.04 14.84 21.35 10.96 20.6 7.23004H20.61ZM16.21 16.25L12.16 19.85C12.07 19.93 11.92 19.93 11.83 19.85L7.77998 16.25C5.32998 14.08 4.20998 10.73 4.85998 7.52004L5.45998 4.54004C5.47998 4.43004 5.56998 4.37004 5.59998 4.36004C5.62998 4.34004 5.66998 4.34004 5.69998 4.34004C5.72998 4.34004 5.74998 4.34004 5.77998 4.36004C6.10998 4.52004 6.45998 4.64004 6.81998 4.74004C9.01998 5.31004 10.94 4.50004 11.89 3.97004C11.96 3.93004 12.05 3.93004 12.13 3.97004C13.08 4.51004 15.01 5.32004 17.2 4.74004C17.56 4.65004 17.91 4.52004 18.24 4.36004C18.29 4.33004 18.35 4.34004 18.42 4.36004C18.45 4.38004 18.54 4.43004 18.56 4.54004L19.16 7.52004C19.8 10.73 18.68 14.07 16.24 16.25H16.21Z" fill="black"/>
<path d="M12 7.25004C10.48 7.25004 9.24998 8.48004 9.24998 10C9.24998 11.25 10.1 12.3 11.25 12.63V15C11.25 15.41 11.59 15.75 12 15.75C12.41 15.75 12.75 15.41 12.75 15V12.63C13.9 12.3 14.75 11.25 14.75 10C14.75 8.48004 13.52 7.25004 12 7.25004ZM12 11.25C11.31 11.25 10.75 10.69 10.75 10C10.75 9.31004 11.31 8.75004 12 8.75004C12.69 8.75004 13.25 9.31004 13.25 10C13.25 10.69 12.69 11.25 12 11.25Z" fill="black"/>
</svg>
