<svg width="24" height="24" viewBox="0 0 24 24" fill="none" xmlns="http://www.w3.org/2000/svg">
<path d="M14.25 12.75H9.75V15.25H14.25V12.75Z" fill="black"/>
<path d="M5.25 8.75H2.25V11.25H5.25V8.75Z" fill="black"/>
<path d="M14.25 3.25H9.75V7.25H14.25V3.25Z" fill="black"/>
<path d="M17.25 8.75H12.75V11.25H17.25V8.75Z" fill="black"/>
<path d="M8.25 12.75H2.25V15.25H8.25V12.75Z" fill="black"/>
<path d="M11.25 8.75H6.75V11.25H11.25V8.75Z" fill="black"/>
<path d="M21.75 8.75H18.75V11.25H21.75V8.75Z" fill="black"/>
<path d="M8.25 3.25H5C3.48 3.25 2.25 4.48 2.25 6V7.25H8.25V3.25Z" fill="black"/>
<path d="M19 3.25H15.75V7.25H21.75V6C21.75 4.48 20.52 3.25 19 3.25Z" fill="black"/>
<path d="M2.25 18C2.25 19.52 3.48 20.75 5 20.75H5.25V16.75H2.25V18Z" fill="black"/>
<path d="M18.75 20.75H19C20.52 20.75 21.75 19.52 21.75 18V16.75H18.75V20.75Z" fill="black"/>
<path d="M17.25 16.75H12.75V20.75H17.25V16.75Z" fill="black"/>
<path d="M11.25 16.75H6.75V20.75H11.25V16.75Z" fill="black"/>
<path d="M21.75 12.75H15.75V15.25H21.75V12.75Z" fill="black"/>
</svg>
