<svg width="24" height="24" viewBox="0 0 24 24" fill="none" xmlns="http://www.w3.org/2000/svg">
<path d="M17 6.25H16.5C16.09 6.25 15.75 5.91 15.75 5.5C15.75 4.26 14.74 3.25 13.5 3.25H10.5C9.26 3.25 8.25 4.26 8.25 5.5V6.25H6C5.04 6.25 4.25 7.04 4.25 8V10.22C2.99 11.47 2.25 13.18 2.25 15C2.25 18.72 5.28 21.75 9 21.75C12.72 21.75 15.75 18.72 15.75 15C15.75 13.18 15.01 11.48 13.75 10.22V8C13.75 7.04 12.96 6.25 12 6.25H9.75V5.5C9.75 5.09 10.09 4.75 10.5 4.75H13.5C13.91 4.75 14.25 5.09 14.25 5.5C14.25 6.74 15.26 7.75 16.5 7.75H17C17.41 7.75 17.75 7.41 17.75 7C17.75 6.59 17.41 6.25 17 6.25ZM14.25 15C14.25 17.89 11.9 20.25 9 20.25C6.1 20.25 3.75 17.89 3.75 15C3.75 13.31 4.57 11.74 5.93 10.75H12.06C13.43 11.74 14.24 13.31 14.24 15H14.25ZM12.25 8V9.25H5.75V8C5.75 7.86 5.86 7.75 6 7.75H12C12.14 7.75 12.25 7.86 12.25 8Z" fill="black"/>
<path d="M21 6.25H20C19.59 6.25 19.25 6.59 19.25 7C19.25 7.41 19.59 7.75 20 7.75H21C21.41 7.75 21.75 7.41 21.75 7C21.75 6.59 21.41 6.25 21 6.25Z" fill="black"/>
<path d="M19 5.75C19.19 5.75 19.38 5.68 19.53 5.53L20.24 4.82C20.53 4.53 20.53 4.05 20.24 3.76C19.95 3.47 19.47 3.47 19.18 3.76L18.47 4.47C18.18 4.76 18.18 5.24 18.47 5.53C18.62 5.68 18.81 5.75 19 5.75Z" fill="black"/>
<path d="M19.53 8.47C19.24 8.18 18.76 8.18 18.47 8.47C18.18 8.76 18.18 9.24 18.47 9.53L19.18 10.24C19.33 10.39 19.52 10.46 19.71 10.46C19.9 10.46 20.09 10.39 20.24 10.24C20.53 9.95 20.53 9.47 20.24 9.18L19.53 8.47Z" fill="black"/>
</svg>
