<svg width="24" height="24" viewBox="0 0 24 24" fill="none" xmlns="http://www.w3.org/2000/svg">
<path d="M12 17.25C12.6904 17.25 13.25 16.6904 13.25 16C13.25 15.3096 12.6904 14.75 12 14.75C11.3096 14.75 10.75 15.3096 10.75 16C10.75 16.6904 11.3096 17.25 12 17.25Z" fill="black"/>
<path d="M12 11.75C10.95 11.75 9.95 12.2 9.25 12.99C8.55 13.78 8.23 14.83 8.36 15.87L8.91 20.24C9.88 20.57 10.92 20.75 12 20.75C13.08 20.75 14.12 20.57 15.09 20.24L15.64 15.87C15.77 14.83 15.45 13.78 14.75 12.99C14.05 12.2 13.05 11.75 12 11.75ZM12 18.75C10.48 18.75 9.25 17.52 9.25 16C9.25 14.48 10.48 13.25 12 13.25C13.52 13.25 14.75 14.48 14.75 16C14.75 17.52 13.52 18.75 12 18.75Z" fill="black"/>
<path d="M20.25 6.28V6.25H3.75V6.28C3.55 6.33 3.36 6.46 3.26 6.66C2.59 8.01 2.25 9.47 2.25 10.99C2.25 14.67 4.3 17.87 7.31 19.53L6.87 16.04C6.69 14.57 7.14 13.09 8.12 11.98C9.1 10.87 10.51 10.23 11.99 10.23C13.47 10.23 14.88 10.87 15.86 11.98C16.84 13.09 17.3 14.57 17.11 16.04L16.67 19.53C19.68 17.87 21.73 14.66 21.73 10.99C21.73 9.47 21.39 8.01 20.72 6.66C20.62 6.46 20.44 6.33 20.23 6.28H20.25Z" fill="black"/>
<path d="M20 2.25H4C3.04 2.25 2.25 3.04 2.25 4V4.78L3.75 4.75H21.75V4C21.75 3.04 20.96 2.25 20 2.25Z" fill="black"/>
</svg>
