<svg width="24" height="24" viewBox="0 0 24 24" fill="none" xmlns="http://www.w3.org/2000/svg">
<path d="M21.75 6V4C21.75 3.04 20.96 2.25 20 2.25H4C3.04 2.25 2.25 3.04 2.25 4V6C2.25 6.57 2.53 7.07 2.95 7.39C2.49 8.54 2.25 9.74 2.25 11C2.25 16.38 6.62 20.75 12 20.75C17.38 20.75 21.75 16.38 21.75 11C21.75 9.75 21.51 8.54 21.05 7.39C21.47 7.07 21.75 6.57 21.75 6ZM3.75 4C3.75 3.86 3.86 3.75 4 3.75H20C20.14 3.75 20.25 3.86 20.25 4V6C20.25 6.14 20.14 6.25 20 6.25H4C3.86 6.25 3.75 6.14 3.75 6V4ZM8.7 18.56L8.36 15.87C8.23 14.83 8.55 13.78 9.25 12.99C9.95 12.2 10.95 11.75 12 11.75C13.05 11.75 14.05 12.2 14.75 12.99C15.44 13.78 15.77 14.83 15.64 15.87L15.3 18.56C14.29 19 13.17 19.25 12 19.25C10.83 19.25 9.71 19 8.7 18.56ZM16.93 17.6L17.12 16.06C17.3 14.59 16.85 13.11 15.87 12C14.89 10.89 13.48 10.25 12 10.25C10.52 10.25 9.11 10.89 8.13 12C7.15 13.11 6.69 14.59 6.88 16.06L7.07 17.6C5.06 16.09 3.75 13.7 3.75 11C3.75 9.87 3.99 8.78 4.43 7.75H19.57C20.01 8.78 20.25 9.87 20.25 11C20.25 13.7 18.94 16.09 16.93 17.6Z" fill="black"/>
<path d="M12 13.25C10.48 13.25 9.25 14.48 9.25 16C9.25 17.52 10.48 18.75 12 18.75C13.52 18.75 14.75 17.52 14.75 16C14.75 14.48 13.52 13.25 12 13.25ZM12 17.25C11.31 17.25 10.75 16.69 10.75 16C10.75 15.31 11.31 14.75 12 14.75C12.69 14.75 13.25 15.31 13.25 16C13.25 16.69 12.69 17.25 12 17.25Z" fill="black"/>
</svg>
