<svg width="24" height="24" viewBox="0 0 24 24" fill="none" xmlns="http://www.w3.org/2000/svg">
<path d="M4 16.75H20C20.22 16.75 20.43 16.65 20.58 16.48C20.72 16.31 20.78 16.08 20.74 15.87L19.19 7.33C18.86 5.55 17.31 4.25 15.5 4.25H8.51C6.7 4.25 5.14 5.54 4.82 7.33L3.27 15.87C3.23 16.09 3.29 16.31 3.43 16.48C3.57 16.65 3.78 16.75 4.01 16.75H4ZM11.25 9C11.25 8.59 11.59 8.25 12 8.25C12.41 8.25 12.75 8.59 12.75 9V12C12.75 12.41 12.41 12.75 12 12.75C11.59 12.75 11.25 12.41 11.25 12V9Z" fill="black"/>
<path d="M21.73 17.44C21.3 17.95 20.67 18.25 20 18.25H4C3.33 18.25 2.7 17.96 2.27 17.44C2.27 17.43 2.26 17.42 2.25 17.41V18C2.25 18.96 3.04 19.75 4 19.75H20C20.96 19.75 21.75 18.96 21.75 18V17.41C21.75 17.41 21.74 17.43 21.73 17.45V17.44Z" fill="black"/>
</svg>
