<svg width="24" height="24" viewBox="0 0 24 24" fill="none" xmlns="http://www.w3.org/2000/svg">
<path d="M11.6999 14.6899C11.7999 14.7299 11.8999 14.7499 11.9999 14.7499C12.0999 14.7499 12.1999 14.7299 12.2999 14.6899C12.6399 14.5399 14.3699 13.6899 14.7399 11.6299C14.8299 11.1399 14.8299 10.6399 14.7399 10.1199C14.6999 9.90988 14.5799 9.71988 14.3999 9.60988L12.3999 8.35988C12.1599 8.20988 11.8499 8.20988 11.5999 8.35988L9.59993 9.60988C9.41993 9.71988 9.28993 9.90988 9.25993 10.1199C9.16993 10.6299 9.16993 11.1399 9.25993 11.6299C9.62993 13.6899 11.3599 14.5399 11.6999 14.6899Z" fill="black"/>
<path d="M15.0199 14.4499C14.1799 15.4599 13.1799 15.9399 12.8899 16.0699C12.6099 16.1899 12.3099 16.2599 11.9899 16.2599C11.6699 16.2599 11.3699 16.1999 11.0899 16.0699C10.8099 15.9499 9.81993 15.4699 8.97993 14.4699C8.01993 14.5899 7.06993 14.7399 6.14993 14.9699C6.12993 14.9699 6.09993 14.9699 6.07993 14.9699C7.09993 16.6499 8.94993 17.7499 10.9999 17.7499H12.9999C15.0499 17.7499 16.8999 16.6499 17.9199 14.9699C17.8999 14.9699 17.8899 14.9699 17.8699 14.9699C16.9299 14.7399 15.9799 14.5699 15.0199 14.4499Z" fill="black"/>
<path d="M21.5199 8.72988L21.4499 8.58988C21.0399 7.79988 20.1799 7.33988 19.2699 7.42988C18.6299 7.48988 17.9899 7.43988 17.3899 7.27988C15.9599 6.89988 15.0699 6.01988 14.6099 5.46988L14.2999 5.16988C13.0399 3.94988 10.9799 3.94988 9.71993 5.16988L9.34993 5.52988C8.94993 6.01988 8.05993 6.89988 6.62993 7.27988C6.01993 7.43988 5.38993 7.48988 4.73993 7.42988C3.82993 7.32988 2.96993 7.79988 2.55993 8.58988L2.48993 8.72988C2.06993 9.53988 2.21993 10.4899 2.85993 11.1699C2.94993 11.2599 3.03993 11.3599 3.12993 11.4699C3.38993 11.7899 3.60993 12.1399 3.77993 12.5199C4.12993 13.2899 4.97993 13.6999 5.80993 13.4999C6.57993 13.3099 7.35993 13.1699 8.14993 13.0499C7.99993 12.6999 7.87993 12.3199 7.79993 11.8999C7.67993 11.2399 7.67993 10.5599 7.79993 9.87988C7.90993 9.23988 8.27993 8.67988 8.82993 8.33988L10.8299 7.08988C11.1899 6.86988 11.5999 6.74988 12.0199 6.74988C12.4399 6.74988 12.8499 6.86988 13.2099 7.08988L15.2099 8.33988C15.7499 8.67988 16.1299 9.23988 16.2399 9.87988C16.3499 10.5599 16.3499 11.2399 16.2399 11.8999C16.1599 12.3299 16.0399 12.6999 15.8899 13.0599C16.6899 13.1799 17.4799 13.3199 18.2599 13.5099C18.3999 13.5399 18.5299 13.5599 18.6699 13.5599C19.3399 13.5599 19.9699 13.1699 20.2599 12.5299C20.4299 12.1499 20.6499 11.7999 20.9099 11.4799C20.9999 11.3699 21.0899 11.2699 21.1799 11.1799C21.8199 10.4999 21.9699 9.54988 21.5499 8.73988L21.5199 8.72988Z" fill="black"/>
</svg>
