<svg width="24" height="24" viewBox="0 0 24 24" fill="none" xmlns="http://www.w3.org/2000/svg">
<path d="M20.61 7.23004L20.01 4.25004C19.9 3.72004 19.56 3.27004 19.08 3.02004C18.61 2.78004 18.07 2.77004 17.59 2.99004C17.34 3.11004 17.07 3.20004 16.81 3.27004C15.13 3.71004 13.61 3.07004 12.85 2.64004C12.32 2.34004 11.67 2.34004 11.14 2.64004C10.39 3.06004 8.86998 3.71004 7.17998 3.27004C6.90998 3.20004 6.64998 3.10004 6.39998 2.99004C5.92998 2.77004 5.37998 2.78004 4.90998 3.02004C4.41998 3.27004 4.07998 3.71004 3.97998 4.25004L3.37998 7.23004C2.62998 10.96 3.93998 14.85 6.77998 17.37L10.83 20.97C11.16 21.26 11.58 21.41 11.99 21.41C12.4 21.41 12.82 21.26 13.15 20.97L17.2 17.37C20.04 14.84 21.35 10.96 20.6 7.23004H20.61ZM12.75 12.63V15C12.75 15.41 12.41 15.75 12 15.75C11.59 15.75 11.25 15.41 11.25 15V12.63C10.1 12.3 9.24998 11.25 9.24998 10C9.24998 8.48004 10.48 7.25004 12 7.25004C13.52 7.25004 14.75 8.48004 14.75 10C14.75 11.25 13.9 12.3 12.75 12.63Z" fill="black"/>
<path d="M12 11.25C12.6903 11.25 13.25 10.6904 13.25 10C13.25 9.30968 12.6903 8.75004 12 8.75004C11.3096 8.75004 10.75 9.30968 10.75 10C10.75 10.6904 11.3096 11.25 12 11.25Z" fill="black"/>
</svg>
