<svg width="24" height="24" viewBox="0 0 24 24" fill="none" xmlns="http://www.w3.org/2000/svg">
<path d="M21.5199 8.72988L21.4499 8.58988C21.0399 7.79988 20.1799 7.33988 19.2699 7.42988C18.6299 7.48988 17.9899 7.43988 17.3899 7.27988C15.9599 6.89988 15.0699 6.01988 14.6099 5.46988L14.2999 5.16988C13.0399 3.94988 10.9799 3.94988 9.71993 5.16988L9.34993 5.52988C8.94993 6.01988 8.05993 6.89988 6.62993 7.27988C6.01993 7.43988 5.38993 7.48988 4.73993 7.42988C3.82993 7.32988 2.96993 7.79988 2.55993 8.58988L2.48993 8.72988C2.06993 9.53988 2.21993 10.4899 2.85993 11.1699C2.94993 11.2599 3.03993 11.3599 3.12993 11.4699C3.38993 11.7899 3.60993 12.1399 3.77993 12.5199C4.08993 13.1899 4.76993 13.5899 5.48993 13.5399C6.17993 15.9899 8.41993 17.7399 11.0099 17.7399H13.0099C15.5999 17.7399 17.8399 15.9899 18.5299 13.5299C18.5699 13.5299 18.6099 13.5399 18.6499 13.5399C19.3199 13.5399 19.9499 13.1499 20.2399 12.5099C20.4099 12.1299 20.6299 11.7799 20.8899 11.4599C20.9799 11.3499 21.0699 11.2499 21.1599 11.1599C21.7999 10.4799 21.9499 9.52988 21.5299 8.71988L21.5199 8.72988ZM10.9999 16.2499C9.12993 16.2499 7.50993 15.0099 6.95993 13.2599C7.86993 13.0799 8.77993 12.9399 9.70993 12.8599C10.3599 14.0399 11.4399 14.5699 11.7099 14.6799C11.8099 14.7199 11.9099 14.7399 12.0099 14.7399C12.1099 14.7399 12.2099 14.7199 12.3099 14.6799C12.5699 14.5699 13.6499 14.0299 14.3099 12.8599C15.2299 12.9399 16.1499 13.0799 17.0599 13.2599C16.5099 15.0099 14.8799 16.2499 13.0199 16.2499H10.9999ZM13.2599 11.3699C13.0899 12.3399 12.4099 12.8999 11.9999 13.1499C11.5899 12.8999 10.9099 12.3399 10.7399 11.3699C10.6999 11.1499 10.6899 10.9299 10.6999 10.6999L11.9999 9.88988L13.2999 10.6999C13.3099 10.9299 13.2999 11.1599 13.2599 11.3699ZM20.0599 10.1299C19.9399 10.2499 19.8299 10.3799 19.7099 10.5299C19.3699 10.9499 19.0899 11.4099 18.8599 11.8999C18.8099 12.0199 18.6899 12.0799 18.5799 12.0499C17.3299 11.7399 16.0399 11.5399 14.7499 11.4099C14.7999 10.9899 14.7999 10.5599 14.7299 10.1299C14.6899 9.91988 14.5699 9.72988 14.3899 9.61988L12.3899 8.36988C12.1499 8.21988 11.8399 8.21988 11.5899 8.36988L9.58993 9.61988C9.40993 9.72988 9.27993 9.91988 9.24993 10.1299C9.17993 10.5699 9.17993 10.9899 9.22993 11.4099C7.94993 11.5399 6.66993 11.7399 5.42993 12.0399C5.29993 12.0699 5.17993 12.0199 5.12993 11.8999C4.90993 11.4099 4.61993 10.9399 4.27993 10.5299C4.15993 10.3899 4.04993 10.2499 3.92993 10.1299C3.72993 9.91988 3.67993 9.64988 3.79993 9.40988L3.86993 9.26988C3.99993 9.01988 4.27993 8.88988 4.57993 8.90988C5.39993 8.98988 6.20993 8.91988 6.98993 8.71988C8.82993 8.22988 9.96993 7.09988 10.4299 6.52988L10.7299 6.23988C11.4099 5.58988 12.5499 5.58988 13.2299 6.23988L13.4799 6.46988C13.9999 7.09988 15.1399 8.23988 16.9799 8.71988C17.7599 8.92988 18.5699 8.98988 19.3899 8.90988C19.6899 8.88988 19.9699 9.01988 20.0999 9.26988L20.1699 9.40988C20.2899 9.63988 20.2399 9.91988 20.0499 10.1199L20.0599 10.1299Z" fill="black"/>
</svg>
