<svg width="24" height="24" viewBox="0 0 24 24" fill="none" xmlns="http://www.w3.org/2000/svg">
<path d="M20.77 14.8803C20.6 14.3003 20.21 13.8303 19.68 13.5503C19.17 13.2803 18.58 13.2203 18.03 13.3703L16.84 11.8503L17.91 10.2903C18.08 10.3303 18.25 10.3503 18.42 10.3503C18.82 10.3503 19.22 10.2403 19.59 10.0203C20.65 9.38025 20.99 7.99025 20.34 6.93025C19.7 5.87025 18.31 5.54025 17.25 6.18025C16.77 6.47025 16.43 6.93025 16.27 7.47025L14.3 7.75025L13.46 6.00025C13.84 5.57025 14.05 5.02025 14.03 4.44025C13.99 3.20025 12.99 2.26025 11.71 2.26025C10.47 2.30025 9.49002 3.34025 9.53002 4.58025C9.55002 5.16025 9.79002 5.69025 10.19 6.10025L9.46002 7.90025L7.52002 7.75025C7.34002 7.21025 6.96002 6.76025 6.46002 6.49025C5.36002 5.90025 4.00002 6.32025 3.42002 7.41025C3.14002 7.94025 3.08002 8.55025 3.25002 9.12025C3.42002 9.69025 3.81002 10.1703 4.34002 10.4503C4.67002 10.6303 5.03002 10.7203 5.40002 10.7203C5.60002 10.7203 5.80002 10.6803 5.99002 10.6303L7.18002 12.1503L6.11002 13.7103C5.56002 13.5803 4.96002 13.6603 4.44002 13.9803C3.38002 14.6203 3.04002 16.0103 3.69002 17.0703C4.11002 17.7603 4.86002 18.1503 5.62002 18.1503C6.02002 18.1503 6.42002 18.0403 6.79002 17.8203C7.27002 17.5303 7.61002 17.0703 7.77002 16.5303L9.74002 16.2503L10.58 18.0003C10.2 18.4303 9.99002 18.9803 10.01 19.5603C10.05 20.7803 11.05 21.7403 12.26 21.7403C12.28 21.7403 12.31 21.7403 12.33 21.7403C13.57 21.7003 14.55 20.6603 14.51 19.4203C14.49 18.8403 14.25 18.3103 13.85 17.9003L14.58 16.1003L16.52 16.2503C16.7 16.7903 17.08 17.2403 17.58 17.5103C17.92 17.6903 18.28 17.7803 18.64 17.7803C19.44 17.7803 20.22 17.3503 20.63 16.5903C20.91 16.0603 20.97 15.4503 20.8 14.8803H20.77ZM17.68 7.92025C17.73 7.73025 17.85 7.56025 18.02 7.46025C18.14 7.39025 18.28 7.35025 18.41 7.35025C18.66 7.35025 18.91 7.48025 19.05 7.71025C19.26 8.06025 19.15 8.53025 18.8 8.74025C18.45 8.96025 17.98 8.84025 17.77 8.49025C17.67 8.32025 17.63 8.12025 17.68 7.92025ZM11.74 3.75025H11.76C12.16 3.75025 12.5 4.07025 12.51 4.48025C12.51 4.68025 12.44 4.87025 12.31 5.02025C12.17 5.17025 11.99 5.25025 11.79 5.26025C11.6 5.29025 11.4 5.19025 11.25 5.06025C11.1 4.92025 11.02 4.74025 11.01 4.54025C11 4.13025 11.32 3.78025 11.74 3.77025V3.75025ZM5.03002 9.12025C4.85002 9.03025 4.72002 8.87025 4.67002 8.68025C4.61002 8.49025 4.63002 8.29025 4.73002 8.11025C4.82002 7.93025 4.98002 7.80025 5.17002 7.75025C5.24002 7.73025 5.32002 7.72025 5.39002 7.72025C5.51002 7.72025 5.63002 7.75025 5.74002 7.81025C5.92002 7.90025 6.05002 8.06025 6.10002 8.25025C6.16002 8.44025 6.14002 8.64025 6.04002 8.82025C5.95002 9.00025 5.79002 9.13025 5.60002 9.18025C5.41002 9.24025 5.21002 9.22025 5.03002 9.12025ZM6.32002 16.0703C6.27002 16.2603 6.15002 16.4303 5.98002 16.5303C5.63002 16.7403 5.16002 16.6303 4.95002 16.2803C4.74002 15.9303 4.85002 15.4603 5.20002 15.2503C5.32002 15.1803 5.46002 15.1403 5.59002 15.1403C5.84002 15.1403 6.09002 15.2703 6.23002 15.5003C6.33002 15.6703 6.37002 15.8703 6.32002 16.0703ZM12.25 20.2403C11.84 20.2703 11.49 19.9303 11.48 19.5103C11.48 19.3103 11.55 19.1203 11.68 18.9703C11.82 18.8203 12 18.7403 12.2 18.7303C12.41 18.7103 12.59 18.8003 12.74 18.9303C12.89 19.0703 12.97 19.2503 12.98 19.4503C12.99 19.8603 12.67 20.2103 12.25 20.2203V20.2403ZM14.11 14.5703C13.79 14.5503 13.48 14.7303 13.36 15.0403L12.46 17.2703C12.36 17.2603 12.27 17.2403 12.17 17.2403C12.07 17.2403 11.97 17.2603 11.87 17.2803L10.83 15.1103C10.69 14.8103 10.37 14.6503 10.05 14.6903L7.66002 15.0203C7.62002 14.9203 7.57002 14.8103 7.51002 14.7203C7.46002 14.6403 7.41002 14.5803 7.35002 14.5103L8.71002 12.5303C8.89002 12.2603 8.88002 11.9003 8.68002 11.6403L7.20002 9.75025C7.26002 9.67025 7.31002 9.60025 7.36002 9.51025C7.41002 9.42025 7.44002 9.32025 7.48002 9.23025L9.88002 9.42025C9.88002 9.42025 9.92002 9.42025 9.94002 9.42025C10.24 9.42025 10.52 9.24025 10.63 8.95025L11.53 6.72025C11.61 6.72025 11.68 6.74025 11.76 6.74025C11.78 6.74025 11.81 6.74025 11.83 6.74025C11.93 6.74025 12.03 6.72025 12.13 6.70025L13.17 8.87025C13.3 9.13025 13.56 9.30025 13.85 9.30025C13.88 9.30025 13.92 9.30025 13.95 9.30025L16.34 8.97025C16.38 9.07025 16.43 9.18025 16.49 9.27025C16.54 9.35025 16.6 9.40025 16.65 9.47025L15.29 11.4603C15.11 11.7303 15.12 12.0903 15.32 12.3503L16.8 14.2403C16.74 14.3203 16.69 14.3903 16.64 14.4803C16.59 14.5703 16.56 14.6703 16.52 14.7603L14.12 14.5703H14.11ZM19.27 15.8903C19.18 16.0703 19.02 16.2003 18.83 16.2503C18.64 16.3103 18.43 16.2903 18.26 16.1903C18.08 16.1003 17.95 15.9403 17.9 15.7503C17.84 15.5603 17.86 15.3603 17.96 15.1803C18.05 15.0003 18.21 14.8703 18.4 14.8203C18.47 14.8003 18.55 14.7903 18.62 14.7903C18.74 14.7903 18.86 14.8203 18.97 14.8803C19.15 14.9703 19.28 15.1303 19.33 15.3203C19.39 15.5103 19.37 15.7103 19.27 15.8903Z" fill="black"/>
</svg>
