<svg width="24" height="24" viewBox="0 0 24 24" fill="none" xmlns="http://www.w3.org/2000/svg">
<path d="M20.94 6.87975L17.11 3.04975C16.59 2.52975 15.9 2.23975 15.17 2.23975H8.83C8.1 2.23975 7.41 2.52975 6.89 3.04975L3.06 6.87975C2.54 7.39975 2.25 8.08975 2.25 8.81975V15.1597C2.25 15.8897 2.54 16.5897 3.06 17.0997L6.89 20.9297C7.41 21.4497 8.1 21.7397 8.83 21.7397H15.17C15.9 21.7397 16.59 21.4497 17.11 20.9297L20.94 17.0997C21.46 16.5797 21.75 15.8897 21.75 15.1597V8.81975C21.75 8.08975 21.46 7.38975 20.94 6.87975ZM20.25 15.1697C20.25 15.4997 20.12 15.8197 19.88 16.0497L16.05 19.8797C15.82 20.1097 15.5 20.2497 15.17 20.2497H8.83C8.5 20.2497 8.18 20.1197 7.95 19.8797L4.12 16.0497C3.88 15.8097 3.75 15.4997 3.75 15.1697V8.82975C3.75 8.49975 3.88 8.17975 4.12 7.94975L7.95 4.11975C8.18 3.88975 8.5 3.74975 8.83 3.74975H15.17C15.5 3.74975 15.82 3.87975 16.05 4.11975L19.88 7.94975C20.12 8.18975 20.25 8.49975 20.25 8.82975V15.1697Z" fill="black"/>
<path d="M14.95 6.14975C14.74 5.51975 14.2 5.06975 13.54 4.96975L11.07 4.61975C10.52 4.53975 9.97 4.72975 9.58 5.10975L5.34 9.34975C4.95 9.73975 4.77 10.2897 4.84 10.8397L5.19 13.3097C5.28 13.9697 5.74 14.5097 6.37 14.7197C6.55 14.7797 6.74 14.8097 6.93 14.8097C7.39 14.8097 7.83 14.6297 8.16 14.2997L14.52 7.93975C14.99 7.46975 15.15 6.77975 14.94 6.14975H14.95ZM13.47 6.87975L7.11 13.2397C7.02 13.3397 6.91 13.3197 6.86 13.2997C6.81 13.2797 6.71 13.2297 6.69 13.0997L6.34 10.6297C6.33 10.5497 6.35 10.4697 6.41 10.4197L10.65 6.17975C10.65 6.17975 10.76 6.10975 10.82 6.10975C10.83 6.10975 10.84 6.10975 10.86 6.10975L13.34 6.45975C13.47 6.47975 13.52 6.56975 13.54 6.62975C13.56 6.68975 13.57 6.78975 13.48 6.88975L13.47 6.87975Z" fill="black"/>
<path d="M19.27 10.6997C19.18 10.0397 18.73 9.49975 18.09 9.28975C17.46 9.07975 16.77 9.23975 16.3 9.70975L9.94 16.0697C9.47 16.5397 9.31 17.2297 9.52 17.8597C9.73 18.4897 10.27 18.9397 10.93 19.0397L13.41 19.3897C13.49 19.3997 13.57 19.4097 13.65 19.4097C14.11 19.4097 14.56 19.2297 14.89 18.8997L19.13 14.6597C19.52 14.2697 19.7 13.7197 19.62 13.1797L19.27 10.6997ZM18.07 13.5997L13.83 17.8397C13.78 17.8897 13.7 17.9297 13.62 17.9097L11.15 17.5597C11.02 17.5397 10.97 17.4497 10.95 17.3897C10.93 17.3297 10.92 17.2297 11.01 17.1297L17.37 10.7697C17.43 10.7097 17.49 10.6997 17.54 10.6997C17.57 10.6997 17.6 10.6997 17.62 10.7097C17.67 10.7297 17.77 10.7797 17.79 10.9097L18.14 13.3897C18.15 13.4697 18.12 13.5497 18.07 13.5997Z" fill="black"/>
</svg>
