<svg width="24" height="24" viewBox="0 0 24 24" fill="none" xmlns="http://www.w3.org/2000/svg">
<path d="M12 3.25C6.62 3.25 2.25 7.62 2.25 13C2.25 13.3 2.43 13.57 2.71 13.69C2.99 13.81 3.31 13.75 3.53 13.53C3.78 13.28 4.33 12.85 5.11 12.74C5.89 12.63 6.55 12.91 6.97 13.15C7.25 13.32 7.56 13.38 7.86 13.39C7.89 13.39 7.92 13.41 7.95 13.41C7.98 13.41 8 13.41 8.03 13.41C8.41 13.38 8.78 13.23 9.07 12.95C9.54 12.51 10.28 12.01 11.25 11.83V18.51C11.25 18.92 10.91 19.26 10.5 19.26C10.09 19.26 9.75 18.92 9.75 18.51V18.01C9.75 17.6 9.41 17.26 9 17.26C8.59 17.26 8.25 17.6 8.25 18.01V18.51C8.25 19.75 9.26 20.76 10.5 20.76C11.74 20.76 12.75 19.75 12.75 18.51V11.85C13.35 11.97 14.19 12.25 14.92 12.93C15.22 13.21 15.6 13.37 15.98 13.4C16 13.4 16.03 13.4 16.05 13.4C16.07 13.4 16.1 13.39 16.12 13.39C16.43 13.39 16.75 13.33 17.04 13.16C17.64 12.8 18.27 12.66 18.89 12.75C19.67 12.86 20.21 13.29 20.47 13.54C20.61 13.68 20.8 13.75 21 13.75C21.1 13.75 21.2 13.73 21.29 13.69C21.57 13.57 21.75 13.3 21.75 13C21.75 7.62 17.38 3.25 12 3.25ZM5.46 11.22C5.28 11.22 5.09 11.23 4.89 11.26C4.54 11.31 4.2 11.4 3.87 11.54C4.41 8.55 6.57 6.12 9.41 5.18C9.04 5.6 8.67 6.07 8.35 6.63C7.29 8.43 7.07 10.24 7.1 11.57C6.64 11.38 6.09 11.23 5.46 11.23V11.22ZM12 10.25C10.53 10.25 9.4 10.8 8.6 11.39C8.6 10.28 8.79 8.83 9.64 7.38C10.34 6.18 11.25 5.4 11.99 4.9C12.74 5.4 13.64 6.18 14.34 7.38C15.19 8.82 15.39 10.27 15.38 11.37C13.91 10.31 12.32 10.25 11.98 10.25H12ZM19.1 11.26C18.23 11.14 17.48 11.32 16.89 11.56C16.92 10.23 16.7 8.42 15.64 6.62C15.32 6.07 14.95 5.59 14.58 5.17C17.42 6.11 19.58 8.54 20.12 11.53C19.79 11.39 19.45 11.3 19.1 11.25V11.26Z" fill="black"/>
</svg>
