<svg width="24" height="24" viewBox="0 0 24 24" fill="none" xmlns="http://www.w3.org/2000/svg">
<path d="M12 10.75C11.68 10.75 11.36 10.87 11.12 11.12C10.88 11.36 10.75 11.67 10.75 12C10.75 12.33 10.88 12.65 11.12 12.88C11.61 13.37 12.4 13.37 12.89 12.88C13.13 12.64 13.26 12.33 13.26 12C13.26 11.67 13.13 11.35 12.89 11.12C12.65 10.88 12.33 10.75 12.01 10.75H12Z" fill="black"/>
<path d="M12 2.25C6.62 2.25 2.25 6.62 2.25 12C2.25 17.38 6.62 21.75 12 21.75C17.38 21.75 21.75 17.38 21.75 12C21.75 6.62 17.38 2.25 12 2.25ZM10.69 16.88C10.57 17.16 10.29 17.33 10 17.33C9.9 17.33 9.8 17.31 9.7 17.27C7.61 16.35 6.25 14.29 6.25 12C6.25 8.83 8.83 6.25 12 6.25C12.39 6.25 12.77 6.29 13.15 6.37C13.56 6.45 13.82 6.85 13.74 7.25C13.66 7.66 13.25 7.92 12.86 7.84C12.58 7.78 12.29 7.76 12.01 7.76C9.67 7.76 7.76 9.67 7.76 12.01C7.76 13.7 8.76 15.23 10.31 15.91C10.69 16.08 10.86 16.52 10.7 16.9L10.69 16.88ZM10.06 13.94C9.54 13.42 9.25 12.73 9.25 12C9.25 11.27 9.54 10.57 10.06 10.06C10.95 9.17 12.29 9.03 13.34 9.61L15.72 7.23C16.01 6.94 16.49 6.94 16.78 7.23C17.07 7.52 17.07 8 16.78 8.29L14.4 10.67C14.63 11.07 14.76 11.53 14.76 12C14.76 12.73 14.47 13.43 13.95 13.94C13.41 14.48 12.71 14.74 12.01 14.74C11.31 14.74 10.6 14.47 10.07 13.94H10.06ZM14.31 17.27C14.21 17.31 14.11 17.33 14.01 17.33C13.72 17.33 13.45 17.16 13.32 16.88C13.15 16.5 13.32 16.06 13.71 15.89C15.26 15.21 16.26 13.68 16.26 11.99C16.26 11.7 16.23 11.42 16.18 11.14C16.1 10.73 16.36 10.34 16.77 10.26C17.17 10.18 17.57 10.44 17.65 10.85C17.73 11.23 17.76 11.61 17.76 12C17.76 14.29 16.41 16.36 14.31 17.27Z" fill="black"/>
</svg>
