<svg width="24" height="24" viewBox="0 0 24 24" fill="none" xmlns="http://www.w3.org/2000/svg">
<path d="M7 2.25C4.38 2.25 2.25 4.38 2.25 7V13C2.25 15.62 4.38 17.75 7 17.75H9.33C9.35 18.12 9.35 18.48 9.27 18.84C9.14 19.44 8.88 19.91 8.63 20.25H8C7.59 20.25 7.25 20.59 7.25 21C7.25 21.41 7.59 21.75 8 21.75H16C16.41 21.75 16.75 21.41 16.75 21C16.75 20.59 16.41 20.25 16 20.25H15.37C15.13 19.91 14.87 19.44 14.74 18.84C14.65 18.44 14.64 18.07 14.66 17.75H17.01C19.63 17.75 21.76 15.62 21.76 13V7C21.76 4.38 19.63 2.25 17.01 2.25H7ZM13.27 19.16C13.35 19.54 13.48 19.9 13.65 20.25H10.36C10.52 19.9 10.65 19.54 10.74 19.16C10.84 18.7 10.88 18.22 10.86 17.75H13.15C13.13 18.22 13.17 18.7 13.27 19.16ZM20.25 13C20.25 14.79 18.79 16.25 17 16.25H7C5.21 16.25 3.75 14.79 3.75 13V7C3.75 5.21 5.21 3.75 7 3.75H17C18.79 3.75 20.25 5.21 20.25 7V13Z" fill="black"/>
<path d="M18 8.25H15C14.8 8.25 14.61 8.33 14.47 8.47L11.9 11.04L9.41 9.38C9.11 9.18 8.72 9.22 8.46 9.47L5.46 12.47C5.17 12.76 5.17 13.24 5.46 13.53C5.61 13.68 5.8 13.75 5.99 13.75C6.18 13.75 6.37 13.68 6.52 13.53L9.09 10.96L11.58 12.62C11.88 12.82 12.27 12.78 12.53 12.53L15.31 9.75H18C18.41 9.75 18.75 9.41 18.75 9C18.75 8.59 18.41 8.25 18 8.25Z" fill="black"/>
</svg>
