<svg width="24" height="24" viewBox="0 0 24 24" fill="none" xmlns="http://www.w3.org/2000/svg">
<path d="M20 13.2503H16.47C15.98 13.2503 15.5 13.4703 15.15 13.8603C13.92 15.2103 12.2 15.2503 12 15.2503C10.4 15.2503 9.32 14.3403 8.82 13.8103C8.49 13.4603 8.02 13.2503 7.52 13.2503H4C3.04 13.2503 2.25 14.0403 2.25 15.0003V17.0003C2.25 19.0703 3.93 20.7503 6 20.7503H18C20.07 20.7503 21.75 19.0703 21.75 17.0003V15.0003C21.75 14.0403 20.96 13.2503 20 13.2503Z" fill="black"/>
<path d="M7.52 11.7503C8.43 11.7503 9.31 12.1303 9.92 12.7903C10.25 13.1503 10.97 13.7503 12 13.7503C12.01 13.7503 13.23 13.7403 14.04 12.8503C14.67 12.1503 15.56 11.7503 16.47 11.7503H20C20.35 11.7503 20.69 11.8203 21.01 11.9303L20.73 10.8203C20.73 10.8203 20.73 10.7903 20.72 10.7703L19.4 6.82025C18.89 5.29025 17.46 4.26025 15.84 4.26025H8.16C6.54 4.26025 5.11 5.29025 4.6 6.82025L3.27 10.8203L2.99 11.9303C3.31 11.8203 3.65 11.7503 4 11.7503H7.52ZM8 6.25025H16C16.41 6.25025 16.75 6.59025 16.75 7.00025C16.75 7.41025 16.41 7.75025 16 7.75025H8C7.59 7.75025 7.25 7.41025 7.25 7.00025C7.25 6.59025 7.59 6.25025 8 6.25025ZM7 9.25025H17C17.41 9.25025 17.75 9.59025 17.75 10.0003C17.75 10.4103 17.41 10.7503 17 10.7503H7C6.59 10.7503 6.25 10.4103 6.25 10.0003C6.25 9.59025 6.59 9.25025 7 9.25025Z" fill="black"/>
</svg>
