<svg width="24" height="24" viewBox="0 0 24 24" fill="none" xmlns="http://www.w3.org/2000/svg">
<path d="M12 15.2497C13.7949 15.2497 15.25 13.7947 15.25 11.9997C15.25 10.2048 13.7949 8.74975 12 8.74975C10.2051 8.74975 8.74999 10.2048 8.74999 11.9997C8.74999 13.7947 10.2051 15.2497 12 15.2497Z" fill="black"/>
<path d="M20.23 9.02975C20.07 8.98975 19.95 8.87975 19.88 8.72975C19.82 8.57975 19.83 8.40975 19.91 8.26975C20.39 7.47975 20.26 6.46975 19.61 5.81975L18.17 4.37975C17.52 3.72975 16.51 3.59975 15.72 4.07975C15.58 4.15975 15.41 4.17975 15.26 4.10975C15.11 4.04975 15 3.91975 14.96 3.75975C14.74 2.85975 13.93 2.23975 13.01 2.23975H10.98C10.06 2.23975 9.25999 2.86975 9.02999 3.75975C8.98999 3.91975 8.87999 4.03975 8.72999 4.10975C8.57999 4.16975 8.40999 4.15975 8.26999 4.07975C7.47999 3.60975 6.46999 3.72975 5.81999 4.37975L4.37999 5.81975C3.72999 6.46975 3.59999 7.47975 4.07999 8.26975C4.15999 8.40975 4.17999 8.57975 4.10999 8.72975C4.04999 8.87975 3.91999 8.98975 3.75999 9.02975C2.85999 9.24975 2.23999 10.0497 2.23999 10.9797V13.0197C2.23999 13.9397 2.86999 14.7497 3.75999 14.9697C3.91999 15.0097 4.03999 15.1197 4.10999 15.2697C4.16999 15.4197 4.15999 15.5897 4.07999 15.7297C3.59999 16.5197 3.72999 17.5297 4.37999 18.1797L5.81999 19.6197C6.46999 20.2697 7.47999 20.3997 8.26999 19.9197C8.40999 19.8397 8.57999 19.8197 8.72999 19.8897C8.87999 19.9497 8.98999 20.0797 9.02999 20.2397C9.24999 21.1397 10.06 21.7597 10.98 21.7597H13.01C13.93 21.7597 14.73 21.1297 14.96 20.2397C15 20.0797 15.11 19.9597 15.26 19.8897C15.41 19.8297 15.58 19.8397 15.72 19.9197C16.51 20.3897 17.52 20.2697 18.17 19.6197L19.61 18.1797C20.26 17.5297 20.39 16.5197 19.91 15.7297C19.83 15.5897 19.81 15.4197 19.88 15.2697C19.94 15.1197 20.07 15.0097 20.23 14.9697C21.13 14.7497 21.75 13.9497 21.75 13.0197V10.9797C21.75 10.0597 21.12 9.24975 20.23 9.02975ZM12 16.7497C9.37999 16.7497 7.24999 14.6197 7.24999 11.9997C7.24999 9.37975 9.37999 7.24975 12 7.24975C14.62 7.24975 16.75 9.37975 16.75 11.9997C16.75 14.6197 14.62 16.7497 12 16.7497Z" fill="black"/>
</svg>
