<svg width="24" height="24" viewBox="0 0 24 24" fill="none" xmlns="http://www.w3.org/2000/svg">
<path d="M14 10.25H9.83001C9.50001 10.25 9.18001 10.12 8.95001 9.88L8.12001 9.05C7.60001 8.53 6.91001 8.24 6.18001 8.24H5.01001C3.49001 8.24 2.26001 9.47 2.26001 10.99V17.99C2.26001 19.51 3.49001 20.74 5.01001 20.74H17.01C17.42 20.74 17.76 20.4 17.76 19.99V13.99C17.76 11.92 16.08 10.24 14.01 10.24L14 10.25Z" fill="black"/>
<path d="M17 4.25H8.00001C6.11001 4.25 4.49001 5.37 3.72001 6.97C4.13001 6.84 4.55001 6.75 5.00001 6.75H6.17001C7.31001 6.75 8.37001 7.19 9.18001 8L9.93001 8.75H14C16.9 8.75 19.25 11.11 19.25 14V20C19.25 20.25 19.2 20.5 19.12 20.72C19.18 20.71 19.25 20.71 19.31 20.68C19.72 20.5 21.75 19.51 21.75 18V9C21.75 6.38 19.62 4.25 17 4.25Z" fill="black"/>
</svg>
