<svg width="24" height="24" viewBox="0 0 24 24" fill="none" xmlns="http://www.w3.org/2000/svg">
<path d="M13 17.75C15.62 17.75 17.75 15.62 17.75 13V7C17.75 4.38 15.62 2.25 13 2.25H7C4.38 2.25 2.25 4.38 2.25 7V13C2.25 15.62 4.38 17.75 7 17.75H13ZM6.25 10C6.25 9.59 6.59 9.25 7 9.25H9.25V7C9.25 6.59 9.59 6.25 10 6.25C10.41 6.25 10.75 6.59 10.75 7V9.25H13C13.41 9.25 13.75 9.59 13.75 10C13.75 10.41 13.41 10.75 13 10.75H10.75V13C10.75 13.41 10.41 13.75 10 13.75C9.59 13.75 9.25 13.41 9.25 13V10.75H7C6.59 10.75 6.25 10.41 6.25 10Z" fill="black"/>
<path d="M19.24 6.84C19.24 6.89 19.24 6.95 19.24 7V13C19.24 16.45 16.44 19.25 12.99 19.25H7C6.95 19.25 6.89 19.25 6.84 19.25C7.64 20.74 9.2 21.76 11 21.76H17C19.62 21.76 21.75 19.63 21.75 17.01V11.01C21.75 9.21 20.73 7.65 19.24 6.85V6.84Z" fill="black"/>
</svg>
