<svg width="24" height="24" viewBox="0 0 24 24" fill="none" xmlns="http://www.w3.org/2000/svg">
<path d="M21.0001 11.6099H14.0001C13.3101 11.6099 12.7501 11.0499 12.7501 10.3599V4.42988C12.7501 3.92988 12.5301 3.44988 12.1501 3.10988C11.7701 2.77988 11.2701 2.61988 10.7801 2.67988C5.78009 3.30988 2.11009 7.57988 2.25009 12.6299C2.39009 17.7099 6.64009 21.9599 11.7201 22.0999C11.8101 22.0999 11.9101 22.0999 12.0001 22.0999C14.5501 22.0999 16.9601 21.1299 18.7901 19.3399C20.6901 17.4899 21.7401 15.0099 21.7401 12.3499C21.7401 11.9399 21.4001 11.5999 20.9901 11.5999L21.0001 11.6099ZM17.7501 18.2699C16.1401 19.8399 14.0301 20.6899 11.7601 20.5999C7.46009 20.4799 3.87009 16.8899 3.75009 12.5899C3.63009 8.31988 6.73009 4.69988 10.9601 4.16988H10.9901C11.0701 4.16988 11.1201 4.20988 11.1501 4.22988C11.1801 4.25988 11.2401 4.31988 11.2401 4.41988V10.3499C11.2401 11.8699 12.4701 13.0999 13.9901 13.0999H20.2101C20.0401 15.0599 19.1701 16.8699 17.7501 18.2599V18.2699Z" fill="black"/>
<path d="M21.0001 10.1099C21.4101 10.1099 21.7501 9.76988 21.7501 9.35988C21.7501 6.13988 19.4601 3.34988 16.2901 2.72988C15.8001 2.62988 15.2901 2.76988 14.8901 3.08988C14.4801 3.42988 14.2401 3.92988 14.2401 4.45988V7.35988C14.2401 8.87988 15.4701 10.1099 16.9901 10.1099H21.0001ZM15.7501 4.45988C15.7501 4.37988 15.7901 4.29988 15.8501 4.24988C15.8901 4.21988 15.9301 4.19988 15.9801 4.19988C15.9901 4.19988 16.0001 4.19988 16.0101 4.19988C18.2201 4.62988 19.8801 6.41988 20.2001 8.59988H17.0001C16.3101 8.59988 15.7501 8.03988 15.7501 7.34988V4.44988V4.45988Z" fill="black"/>
</svg>
