<svg width="24" height="24" viewBox="0 0 24 24" fill="none" xmlns="http://www.w3.org/2000/svg">
<path d="M14.75 12C14.75 11.52 14.62 11.07 14.39 10.67L16.77 8.29C17.06 8 17.06 7.52 16.77 7.23C16.48 6.94 16 6.94 15.71 7.23L13.33 9.61C12.28 9.03 10.94 9.17 10.05 10.06C9.53 10.58 9.24 11.27 9.24 12C9.24 12.73 9.53 13.43 10.05 13.94C10.59 14.48 11.29 14.74 11.99 14.74C12.69 14.74 13.4 14.47 13.93 13.94C14.45 13.42 14.74 12.73 14.74 12H14.75ZM12.88 12.88C12.39 13.37 11.6 13.37 11.11 12.88C10.87 12.64 10.74 12.33 10.74 12C10.74 11.67 10.87 11.35 11.11 11.12C11.35 10.88 11.67 10.75 11.99 10.75C12.31 10.75 12.63 10.87 12.87 11.12C13.11 11.36 13.24 11.67 13.24 12C13.24 12.33 13.11 12.65 12.87 12.88H12.88Z" fill="black"/>
<path d="M12 2.25C6.62 2.25 2.25 6.62 2.25 12C2.25 17.38 6.62 21.75 12 21.75C17.38 21.75 21.75 17.38 21.75 12C21.75 6.62 17.38 2.25 12 2.25ZM12 20.25C7.45 20.25 3.75 16.55 3.75 12C3.75 7.45 7.45 3.75 12 3.75C16.55 3.75 20.25 7.45 20.25 12C20.25 16.55 16.55 20.25 12 20.25Z" fill="black"/>
<path d="M10.3 15.9C8.75 15.22 7.75 13.69 7.75 12C7.75 9.66 9.66 7.75 12 7.75C12.29 7.75 12.57 7.78 12.85 7.83C13.25 7.91 13.65 7.65 13.73 7.24C13.81 6.83 13.55 6.44 13.14 6.36C12.76 6.28 12.38 6.24 11.99 6.24C8.82 6.24 6.24 8.82 6.24 11.99C6.24 14.28 7.59 16.35 9.69 17.26C9.79 17.3 9.89 17.32 9.99 17.32C10.28 17.32 10.55 17.15 10.68 16.87C10.85 16.49 10.68 16.05 10.29 15.88L10.3 15.9Z" fill="black"/>
<path d="M16.75 10.27C16.34 10.35 16.08 10.75 16.16 11.15C16.22 11.43 16.24 11.71 16.24 12C16.24 13.69 15.24 15.22 13.69 15.9C13.31 16.07 13.14 16.51 13.3 16.89C13.42 17.17 13.7 17.34 13.99 17.34C14.09 17.34 14.19 17.32 14.29 17.28C16.38 16.36 17.74 14.3 17.74 12.01C17.74 11.62 17.7 11.24 17.63 10.86C17.55 10.45 17.14 10.19 16.75 10.27Z" fill="black"/>
</svg>
