<svg width="24" height="24" viewBox="0 0 24 24" fill="none" xmlns="http://www.w3.org/2000/svg">
<path d="M9.25 14.25V12.75H8C7.86 12.75 7.75 12.86 7.75 13V14.25H9.25Z" fill="black"/>
<path d="M15 12.75H13.75V17.25H15C15.14 17.25 15.25 17.14 15.25 17V13C15.25 12.86 15.14 12.75 15 12.75Z" fill="black"/>
<path d="M12.25 15.75H10.75V17.25H12.25V15.75Z" fill="black"/>
<path d="M12.25 12.75H10.75V14.25H12.25V12.75Z" fill="black"/>
<path d="M9.25 15.75H7.75V17C7.75 17.14 7.86 17.25 8 17.25H9.25V15.75Z" fill="black"/>
<path d="M15 2.25H8C5.38 2.25 3.25 4.38 3.25 7V17C3.25 19.62 5.38 21.75 8 21.75H15C17.62 21.75 19.75 19.62 19.75 17V7C19.75 4.38 17.62 2.25 15 2.25ZM16.75 17C16.75 17.96 15.96 18.75 15 18.75H8C7.04 18.75 6.25 17.96 6.25 17V13C6.25 12.04 7.04 11.25 8 11.25H15C15.96 11.25 16.75 12.04 16.75 13V17ZM16.75 8C16.75 8.96 15.96 9.75 15 9.75H8C7.04 9.75 6.25 8.96 6.25 8V7C6.25 6.04 7.04 5.25 8 5.25H15C15.96 5.25 16.75 6.04 16.75 7V8Z" fill="black"/>
<path d="M15 6.75H8C7.86193 6.75 7.75 6.86193 7.75 7V8C7.75 8.13807 7.86193 8.25 8 8.25H15C15.1381 8.25 15.25 8.13807 15.25 8V7C15.25 6.86193 15.1381 6.75 15 6.75Z" fill="black"/>
</svg>
