<svg width="24" height="24" viewBox="0 0 24 24" fill="none" xmlns="http://www.w3.org/2000/svg">
<path d="M16 3.25H8C4.83 3.25 2.25 5.83 2.25 9V15C2.25 18.17 4.83 20.75 8 20.75H16C19.17 20.75 21.75 18.17 21.75 15V9C21.75 5.83 19.17 3.25 16 3.25ZM20.25 15C20.25 17.34 18.34 19.25 16 19.25H8C5.66 19.25 3.75 17.34 3.75 15V9C3.75 6.66 5.66 4.75 8 4.75H16C18.34 4.75 20.25 6.66 20.25 9V15Z" fill="black"/>
<path d="M10 13.25H9C8.31 13.25 7.75 12.69 7.75 12C7.75 11.31 8.31 10.75 9 10.75H10C10.41 10.75 10.75 10.41 10.75 10C10.75 9.59 10.41 9.25 10 9.25H9C7.48 9.25 6.25 10.48 6.25 12C6.25 13.52 7.48 14.75 9 14.75H10C10.41 14.75 10.75 14.41 10.75 14C10.75 13.59 10.41 13.25 10 13.25Z" fill="black"/>
<path d="M15 9.25H14C13.59 9.25 13.25 9.59 13.25 10C13.25 10.41 13.59 10.75 14 10.75H15C15.69 10.75 16.25 11.31 16.25 12C16.25 12.69 15.69 13.25 15 13.25H14C13.59 13.25 13.25 13.59 13.25 14C13.25 14.41 13.59 14.75 14 14.75H15C16.52 14.75 17.75 13.52 17.75 12C17.75 10.48 16.52 9.25 15 9.25Z" fill="black"/>
<path d="M9.25 12C9.25 12.41 9.59 12.75 10 12.75H14C14.41 12.75 14.75 12.41 14.75 12C14.75 11.59 14.41 11.25 14 11.25H10C9.59 11.25 9.25 11.59 9.25 12Z" fill="black"/>
</svg>
