<svg width="24" height="24" viewBox="0 0 24 24" fill="none" xmlns="http://www.w3.org/2000/svg">
<path d="M16 3.25H8C4.83 3.25 2.25 5.83 2.25 9V15C2.25 18.17 4.83 20.75 8 20.75H16C19.17 20.75 21.75 18.17 21.75 15V9C21.75 5.83 19.17 3.25 16 3.25ZM10 14.75H9C7.48 14.75 6.25 13.52 6.25 12C6.25 10.48 7.48 9.25 9 9.25H10C10.41 9.25 10.75 9.59 10.75 10C10.75 10.41 10.41 10.75 10 10.75H9C8.31 10.75 7.75 11.31 7.75 12C7.75 12.69 8.31 13.25 9 13.25H10C10.41 13.25 10.75 13.59 10.75 14C10.75 14.41 10.41 14.75 10 14.75ZM14 11.25C14.41 11.25 14.75 11.59 14.75 12C14.75 12.41 14.41 12.75 14 12.75H10C9.59 12.75 9.25 12.41 9.25 12C9.25 11.59 9.59 11.25 10 11.25H14ZM15 14.75H14C13.59 14.75 13.25 14.41 13.25 14C13.25 13.59 13.59 13.25 14 13.25H15C15.69 13.25 16.25 12.69 16.25 12C16.25 11.31 15.69 10.75 15 10.75H14C13.59 10.75 13.25 10.41 13.25 10C13.25 9.59 13.59 9.25 14 9.25H15C16.52 9.25 17.75 10.48 17.75 12C17.75 13.52 16.52 14.75 15 14.75Z" fill="black"/>
</svg>
