<svg width="24" height="24" viewBox="0 0 24 24" fill="none" xmlns="http://www.w3.org/2000/svg">
<path d="M18 5.25H15.75V4C15.75 3.04 14.96 2.25 14 2.25H10C9.04 2.25 8.25 3.04 8.25 4V5.25H6C3.93 5.25 2.25 6.93 2.25 9V10.35C2.25 11.05 2.66 11.69 3.3 11.96C6.02 13.13 9.03 13.75 12 13.75C14.97 13.75 17.97 13.13 20.69 11.96C21.33 11.68 21.75 11.05 21.75 10.35V9C21.75 6.93 20.07 5.25 18 5.25ZM9.75 5.25V4C9.75 3.86 9.86 3.75 10 3.75H14C14.14 3.75 14.25 3.86 14.25 4V5.25H9.75Z" fill="black"/>
<path d="M12 15.25C8.83 15.25 5.62 14.59 2.71 13.34C2.55 13.27 2.39 13.18 2.25 13.09V17C2.25 19.62 4.38 21.75 7 21.75H17C19.62 21.75 21.75 19.62 21.75 17V13.09C21.6 13.18 21.45 13.27 21.28 13.34C18.37 14.59 15.16 15.25 12 15.25Z" fill="black"/>
</svg>
