<svg width="24" height="24" viewBox="0 0 24 24" fill="none" xmlns="http://www.w3.org/2000/svg">
<path d="M13.5001 2.25C8.95006 2.25 5.25006 5.95 5.25006 10.5C5.25006 12.5 5.97006 14.34 7.16006 15.78L2.47006 20.47C2.18006 20.76 2.18006 21.24 2.47006 21.53C2.62006 21.68 2.81006 21.75 3.00006 21.75C3.19006 21.75 3.38006 21.68 3.53006 21.53L8.22006 16.84C9.65006 18.03 11.4901 18.75 13.5001 18.75C18.0501 18.75 21.7501 15.05 21.7501 10.5C21.7501 5.95 18.0501 2.25 13.5001 2.25ZM18.6001 8.45L16.2901 11.53C15.9901 11.94 15.5201 12.19 15.0101 12.23C14.5001 12.26 14.0101 12.08 13.6501 11.72L12.1701 10.24C12.0701 10.14 11.9101 10.14 11.8201 10.24L9.53006 12.53C9.38006 12.68 9.19006 12.75 9.00006 12.75C8.81006 12.75 8.62006 12.68 8.47006 12.53C8.18006 12.24 8.18006 11.76 8.47006 11.47L10.7601 9.18C11.4401 8.5 12.5501 8.5 13.2301 9.18L14.7101 10.66C14.7801 10.73 14.8701 10.74 14.9001 10.73C14.9401 10.73 15.0201 10.71 15.0801 10.63L17.3901 7.55C17.6401 7.22 18.1101 7.15 18.4401 7.4C18.7701 7.65 18.8401 8.12 18.5901 8.45H18.6001Z" fill="black"/>
</svg>
