<svg width="24" height="24" viewBox="0 0 24 24" fill="none" xmlns="http://www.w3.org/2000/svg">
<path d="M17.68 6.32C17.35 4.03 15.38 2.25 13 2.25H7C4.38 2.25 2.25 4.38 2.25 7V13C2.25 15.39 4.02 17.35 6.32 17.68C6.65 19.97 8.62 21.75 11 21.75H17C19.62 21.75 21.75 19.62 21.75 17V11C21.75 8.61 19.98 6.65 17.68 6.32ZM3.75 13V7C3.75 5.21 5.21 3.75 7 3.75H13C14.79 3.75 16.25 5.21 16.25 7V13C16.25 14.79 14.79 16.25 13 16.25H7C5.21 16.25 3.75 14.79 3.75 13ZM20.25 17C20.25 18.79 18.79 20.25 17 20.25H11C9.47 20.25 8.19 19.18 7.85 17.75H13C15.62 17.75 17.75 15.62 17.75 13V7.85C19.18 8.19 20.25 9.47 20.25 11V17Z" fill="black"/>
<path d="M9.25 10.75V13C9.25 13.41 9.59 13.75 10 13.75C10.41 13.75 10.75 13.41 10.75 13V10.75H13C13.41 10.75 13.75 10.41 13.75 10C13.75 9.59 13.41 9.25 13 9.25H10.75V7C10.75 6.59 10.41 6.25 10 6.25C9.59 6.25 9.25 6.59 9.25 7V9.25H7C6.59 9.25 6.25 9.59 6.25 10C6.25 10.41 6.59 10.75 7 10.75H9.25Z" fill="black"/>
</svg>
