<svg width="24" height="24" viewBox="0 0 24 24" fill="none" xmlns="http://www.w3.org/2000/svg">
<path d="M21 13.25C20.59 13.25 20.25 13.59 20.25 14V17C20.25 18.79 18.79 20.25 17 20.25H7C5.21 20.25 3.75 18.79 3.75 17V14C3.75 13.59 3.41 13.25 3 13.25C2.59 13.25 2.25 13.59 2.25 14V17C2.25 19.62 4.38 21.75 7 21.75H17C19.62 21.75 21.75 19.62 21.75 17V14C21.75 13.59 21.41 13.25 21 13.25Z" fill="black"/>
<path d="M18 5.25H15.75V4C15.75 3.04 14.96 2.25 14 2.25H10C9.04 2.25 8.25 3.04 8.25 4V5.25H6C3.93 5.25 2.25 6.93 2.25 9V10.35C2.25 11.05 2.66 11.69 3.3 11.96C6.02 13.13 9.03 13.75 12 13.75C14.97 13.75 17.97 13.13 20.69 11.96C21.33 11.68 21.75 11.05 21.75 10.35V9C21.75 6.93 20.07 5.25 18 5.25ZM9.75 4C9.75 3.86 9.86 3.75 10 3.75H14C14.14 3.75 14.25 3.86 14.25 4V5.25H9.75V4ZM20.25 10.35C20.25 10.45 20.19 10.54 20.1 10.58C15.02 12.76 8.97 12.76 3.9 10.58C3.81 10.54 3.75 10.45 3.75 10.35V9C3.75 7.76 4.76 6.75 6 6.75H18C19.24 6.75 20.25 7.76 20.25 9V10.35Z" fill="black"/>
</svg>
