<svg width="24" height="24" viewBox="0 0 24 24" fill="none" xmlns="http://www.w3.org/2000/svg">
<path d="M16.75 10.7V8C16.75 5.38 14.62 3.25 12 3.25C9.38 3.25 7.25 5.38 7.25 8V10.7C6.07 11.33 5.25 12.56 5.25 14V18C5.25 20.07 6.93 21.75 9 21.75H15C17.07 21.75 18.75 20.07 18.75 18V14C18.75 12.57 17.93 11.33 16.75 10.7ZM12.75 17C12.75 17.41 12.41 17.75 12 17.75C11.59 17.75 11.25 17.41 11.25 17V15C11.25 14.59 11.59 14.25 12 14.25C12.41 14.25 12.75 14.59 12.75 15V17ZM15.25 10.28C15.17 10.28 15.09 10.25 15 10.25H9C8.91 10.25 8.83 10.27 8.75 10.28V8C8.75 6.21 10.21 4.75 12 4.75C13.79 4.75 15.25 6.21 15.25 8V10.28Z" fill="black"/>
</svg>
