<svg width="24" height="24" viewBox="0 0 24 24" fill="none" xmlns="http://www.w3.org/2000/svg">
<path d="M13.5001 2.25C8.95006 2.25 5.25006 5.95 5.25006 10.5C5.25006 12.5 5.97006 14.34 7.16006 15.78L2.47006 20.47C2.18006 20.76 2.18006 21.24 2.47006 21.53C2.62006 21.68 2.81006 21.75 3.00006 21.75C3.19006 21.75 3.38006 21.68 3.53006 21.53L8.22006 16.84C9.65006 18.03 11.4901 18.75 13.5001 18.75C18.0501 18.75 21.7501 15.05 21.7501 10.5C21.7501 5.95 18.0501 2.25 13.5001 2.25ZM13.5001 17.25C9.78006 17.25 6.75006 14.22 6.75006 10.5C6.75006 6.78 9.78006 3.75 13.5001 3.75C17.2201 3.75 20.2501 6.78 20.2501 10.5C20.2501 14.22 17.2201 17.25 13.5001 17.25Z" fill="black"/>
<path d="M18.4501 7.4C18.1201 7.15 17.6501 7.22 17.4001 7.55L15.0901 10.63C15.0301 10.71 14.9501 10.73 14.9101 10.73C14.8701 10.73 14.7901 10.73 14.7201 10.66L13.2401 9.18C12.5601 8.5 11.4501 8.5 10.7701 9.18L8.48006 11.47C8.19006 11.76 8.19006 12.24 8.48006 12.53C8.63006 12.68 8.82006 12.75 9.01006 12.75C9.20006 12.75 9.39006 12.68 9.54006 12.53L11.8301 10.24C11.9301 10.14 12.0901 10.14 12.1801 10.24L13.6601 11.72C14.0201 12.08 14.5101 12.26 15.0201 12.23C15.5301 12.19 15.9901 11.94 16.3001 11.53L18.6101 8.45C18.8601 8.12 18.7901 7.65 18.4601 7.4H18.4501Z" fill="black"/>
</svg>
