<svg width="24" height="24" viewBox="0 0 24 24" fill="none" xmlns="http://www.w3.org/2000/svg">
<path d="M20.43 3.54999C20.22 2.81999 19.59 2.30999 18.84 2.23999C17.22 2.08999 15.65 2.44999 14.28 3.20999L14.36 4.72999C14.54 6.20999 15.49 7.12999 15.88 7.45999C17.11 8.46999 18.51 8.44999 18.9 8.41999H20.28C20.83 6.86999 20.91 5.16999 20.43 3.53999V3.54999Z" fill="black"/>
<path d="M18.59 9.93999C17.78 9.93999 16.29 9.74999 14.92 8.62999C14.38 8.18999 13.11 6.93999 12.86 4.86999L12.83 4.23999C12.33 4.68999 11.88 5.19999 11.5 5.77999L6.48 13.37C6.27 13.69 6.33 14.12 6.63 14.36L7.03 14.69L8.83 12.5C9.26 11.98 9.89 11.68 10.57 11.68C11.09 11.68 11.6 11.86 12 12.19C12.46 12.57 12.75 13.11 12.81 13.71C12.87 14.31 12.69 14.89 12.31 15.36L10.51 17.54L10.91 17.87C11.05 17.98 11.22 18.04 11.39 18.04C11.58 18.04 11.77 17.97 11.92 17.82L18.39 11.43C18.85 10.97 19.24 10.46 19.58 9.91999H18.97C18.88 9.91999 18.75 9.92999 18.61 9.92999L18.59 9.93999Z" fill="black"/>
<path d="M11.03 13.35C10.71 13.09 10.24 13.13 9.97 13.45L7.33 16.66C7.07 16.98 7.11 17.45 7.43 17.72C7.57 17.84 7.74 17.89 7.91 17.89C8.13 17.89 8.34 17.8 8.49 17.62L11.13 14.41C11.39 14.09 11.35 13.62 11.03 13.35Z" fill="black"/>
<path d="M5.92 17.22C5.65 16.99 5.25 16.99 4.98 17.22C4.64 17.49 4.18 17.97 3.93 18.71C3.54 19.88 3.97 20.88 4.17 21.25C4.26 21.42 4.42 21.55 4.61 21.61C4.81 21.67 5.17 21.76 5.6 21.76C6.03 21.76 6.6 21.67 7.14 21.36C7.82 20.98 8.2 20.43 8.4 20.05C8.56 19.74 8.48 19.35 8.21 19.13L5.91 17.24L5.92 17.22Z" fill="black"/>
<path d="M16.22 15.68L12.96 18.9C12.83 19.03 12.69 19.13 12.54 19.22L13.98 20.41C14.28 20.66 14.65 20.79 15.02 20.79C15.18 20.79 15.33 20.77 15.48 20.72C15.97 20.57 16.35 20.19 16.5 19.71C16.73 18.96 16.8 18.18 16.71 17.39C16.66 16.99 16.53 16.37 16.23 15.68H16.22Z" fill="black"/>
<path d="M5.22 12.53L7.75 8.70999C7.02 8.53999 6.38 8.52999 5.98 8.55999C5.19 8.61999 4.44 8.83999 3.75 9.20999C3.3 9.44999 3.01 9.88999 2.96 10.4C2.91 10.94 3.13 11.47 3.55 11.81L5 13C5.06 12.83 5.13 12.67 5.24 12.52L5.22 12.53Z" fill="black"/>
</svg>
