<svg width="24" height="24" viewBox="0 0 24 24" fill="none" xmlns="http://www.w3.org/2000/svg">
<path d="M18 15.75C20.07 15.75 21.75 14.07 21.75 12C21.75 10.77 21.15 9.68 20.23 9C21.15 8.32 21.75 7.23 21.75 6C21.75 3.93 20.07 2.25 18 2.25H6C3.93 2.25 2.25 3.93 2.25 6C2.25 7.23 2.85 8.32 3.77 9C2.85 9.68 2.25 10.77 2.25 12C2.25 14.07 3.93 15.75 6 15.75H11.25V16.37C10.34 16.63 9.63 17.34 9.37 18.25H4C3.59 18.25 3.25 18.59 3.25 19C3.25 19.41 3.59 19.75 4 19.75H9.37C9.7 20.9 10.75 21.75 12 21.75C13.25 21.75 14.3 20.9 14.63 19.75H20C20.41 19.75 20.75 19.41 20.75 19C20.75 18.59 20.41 18.25 20 18.25H14.63C14.37 17.34 13.66 16.63 12.75 16.37V15.75H18ZM13.25 19C13.25 19.69 12.69 20.25 12 20.25C11.31 20.25 10.75 19.69 10.75 19C10.75 18.31 11.31 17.75 12 17.75C12.69 17.75 13.25 18.31 13.25 19ZM3.75 6C3.75 4.76 4.76 3.75 6 3.75H18C19.24 3.75 20.25 4.76 20.25 6C20.25 7.24 19.24 8.25 18 8.25H6C4.76 8.25 3.75 7.24 3.75 6ZM3.75 12C3.75 10.76 4.76 9.75 6 9.75H18C19.24 9.75 20.25 10.76 20.25 12C20.25 13.24 19.24 14.25 18 14.25H6C4.76 14.25 3.75 13.24 3.75 12Z" fill="black"/>
<path d="M18.77 6C18.77 5.59 18.44 5.25 18.02 5.25C17.61 5.25 17.27 5.59 17.27 6C17.27 6.41 17.61 6.75 18.02 6.75C18.43 6.75 18.77 6.41 18.77 6Z" fill="black"/>
<path d="M18.02 12.75C18.44 12.75 18.77 12.41 18.77 12C18.77 11.59 18.44 11.25 18.02 11.25C17.61 11.25 17.27 11.59 17.27 12C17.27 12.41 17.61 12.75 18.02 12.75Z" fill="black"/>
<path d="M15.02 5.25C14.61 5.25 14.27 5.59 14.27 6C14.27 6.41 14.61 6.75 15.02 6.75C15.43 6.75 15.77 6.41 15.77 6C15.77 5.59 15.44 5.25 15.02 5.25Z" fill="black"/>
<path d="M15.02 12.75C15.44 12.75 15.77 12.41 15.77 12C15.77 11.59 15.44 11.25 15.02 11.25C14.61 11.25 14.27 11.59 14.27 12C14.27 12.41 14.61 12.75 15.02 12.75Z" fill="black"/>
<path d="M12.02 5.25C11.61 5.25 11.27 5.59 11.27 6C11.27 6.41 11.61 6.75 12.02 6.75C12.43 6.75 12.77 6.41 12.77 6C12.77 5.59 12.44 5.25 12.02 5.25Z" fill="black"/>
<path d="M12.77 12C12.77 11.59 12.44 11.25 12.02 11.25C11.61 11.25 11.27 11.59 11.27 12C11.27 12.41 11.61 12.75 12.02 12.75C12.43 12.75 12.77 12.41 12.77 12Z" fill="black"/>
</svg>
