<svg width="24" height="24" viewBox="0 0 24 24" fill="none" xmlns="http://www.w3.org/2000/svg">
<path d="M20.27 7.30004C20.05 7.26004 19.8 7.21004 19.54 7.13004C19.03 6.97004 18.55 6.74004 18.1 6.43004C17.77 6.23004 17.24 5.98004 16.55 5.95004C16.16 5.93004 15.78 5.99004 15.35 6.13004L9.3 8.63004C8.85 8.74004 8.46 9.01004 8.22 9.39004C7.98 9.77004 7.89 10.21 7.99 10.63C8.17 11.44 8.96 12.01 9.78 11.96C10.64 11.99 11.5 11.93 12.35 11.79C12.85 11.7 13.34 11.59 13.82 11.44L14.26 15.1C14.3 15.48 14.62 15.76 15 15.76H20C20.96 15.76 21.75 14.97 21.75 14.01V9.03004C21.75 8.17004 21.13 7.44004 20.27 7.30004Z" fill="black"/>
<path d="M12.77 15.27L12.53 13.27C11.77 13.4 11 13.46 10.23 13.46C10.08 13.46 9.94 13.46 9.79 13.46C9.75 13.46 9.71 13.46 9.66 13.46C8.17 13.46 6.85 12.41 6.52 10.96C6.34 10.13 6.49 9.29004 6.96 8.57004C7.24 8.14004 7.62 7.80004 8.06 7.54004C7.77 7.56004 7.48 7.61004 7.22 7.73004L7.03 7.82004C6.42 8.11004 5.74 8.26004 5.07 8.26004H4C3.04 8.26004 2.25 9.05004 2.25 10.01V15.01C2.25 15.97 3.04 16.76 4 16.76H5.02C5.73 16.76 6.44 16.95 7.05 17.31L8.74 18.29C9.19 18.55 9.68 18.68 10.17 18.68C10.8 18.68 11.42 18.47 11.94 18.05L13.58 16.75C13.14 16.39 12.84 15.88 12.76 15.28L12.77 15.27Z" fill="black"/>
</svg>
