<svg width="24" height="24" viewBox="0 0 24 24" fill="none" xmlns="http://www.w3.org/2000/svg">
<path d="M21.0001 11.6099H14.0001C13.3101 11.6099 12.7501 11.0499 12.7501 10.3599V4.42988C12.7501 3.92988 12.5301 3.44988 12.1501 3.10988C11.7701 2.77988 11.2701 2.61988 10.7801 2.67988C5.78009 3.30988 2.11009 7.57988 2.25009 12.6299C2.39009 17.7099 6.64009 21.9599 11.7201 22.0999C11.8101 22.0999 11.9101 22.0999 12.0001 22.0999C14.5501 22.0999 16.9601 21.1299 18.7901 19.3399C20.6901 17.4899 21.7401 15.0099 21.7401 12.3499C21.7401 11.9399 21.4001 11.5999 20.9901 11.5999L21.0001 11.6099Z" fill="black"/>
<path d="M21.0001 10.1099C21.4101 10.1099 21.7501 9.76988 21.7501 9.35988C21.7501 6.13988 19.4601 3.34988 16.2901 2.72988C15.8001 2.62988 15.2901 2.76988 14.8901 3.08988C14.4801 3.42988 14.2401 3.92988 14.2401 4.45988V7.35988C14.2401 8.87988 15.4701 10.1099 16.9901 10.1099H21.0001Z" fill="black"/>
</svg>
