<svg width="24" height="24" viewBox="0 0 24 24" fill="none" xmlns="http://www.w3.org/2000/svg">
<path d="M20.43 3.5503C20.22 2.8203 19.59 2.3103 18.84 2.2403C15.93 1.9603 13.12 3.3203 11.5 5.7803L9.20001 9.2603C7.89001 8.5703 6.64001 8.5303 5.99001 8.5803C5.20001 8.6403 4.45001 8.8603 3.76001 9.2303C3.31001 9.4703 3.02001 9.9103 2.97001 10.4203C2.92001 10.9603 3.14001 11.4903 3.56001 11.8303L6.64001 14.3603L8.20001 15.6503L7.36001 16.6803C7.10001 17.0003 7.14001 17.4703 7.46001 17.7403C7.60001 17.8603 7.77001 17.9103 7.94001 17.9103C8.16001 17.9103 8.37001 17.8203 8.52001 17.6403L9.36001 16.6103L14 20.4203C14.3 20.6703 14.67 20.8003 15.04 20.8003C15.2 20.8003 15.35 20.7803 15.5 20.7303C15.99 20.5803 16.37 20.2003 16.52 19.7203C16.75 18.9703 16.82 18.1903 16.73 17.4003C16.65 16.7503 16.37 15.5403 15.44 14.3803L18.41 11.4503C20.5 9.3803 21.29 6.3603 20.46 3.5603L20.43 3.5503ZM18.7 3.7403C18.84 3.7503 18.95 3.8503 18.99 3.9803C19.43 5.4803 19.29 7.0603 18.66 8.4403C18.09 8.4403 16.92 8.3403 15.87 7.4703C15.49 7.1603 14.63 6.3103 14.38 4.9203C15.62 4.0303 17.14 3.5903 18.69 3.7403H18.7ZM4.45001 10.5403C4.96001 10.2703 5.51001 10.1103 6.09001 10.0603C6.56001 10.0203 7.42001 10.0503 8.36001 10.5003L6.93001 12.6603L4.49001 10.6603C4.43001 10.6103 4.44001 10.5503 4.45001 10.5303V10.5403ZM15.21 17.5703C15.28 18.1503 15.23 18.7203 15.06 19.2703C15.05 19.2703 14.99 19.3003 14.93 19.2503L12.49 17.2503L14.34 15.4303C14.97 16.2603 15.16 17.1103 15.21 17.5703ZM11.32 16.2903L10.29 15.4403L11.13 14.4103C11.39 14.0903 11.35 13.6203 11.03 13.3503C10.71 13.0803 10.24 13.1303 9.97001 13.4503L9.13001 14.4803L8.11001 13.6403H8.10001L12.75 6.6003C12.87 6.4103 13.01 6.2403 13.16 6.0703C13.64 7.4203 14.51 8.2803 14.93 8.6203C15.91 9.4303 16.95 9.7503 17.77 9.8703C17.63 10.0403 17.49 10.2103 17.33 10.3703L11.34 16.2903H11.32Z" fill="black"/>
<path d="M5.92001 17.2203C5.65001 16.9903 5.25001 16.9903 4.98001 17.2203C4.64001 17.4903 4.18001 17.9703 3.93001 18.7103C3.54001 19.8803 3.97001 20.8803 4.17001 21.2503C4.26001 21.4203 4.42001 21.5503 4.61001 21.6103C4.81001 21.6703 5.17001 21.7603 5.60001 21.7603C6.03001 21.7603 6.60001 21.6703 7.14001 21.3603C7.82001 20.9803 8.20001 20.4303 8.40001 20.0503C8.56001 19.7403 8.48001 19.3503 8.21001 19.1303L5.91001 17.2403L5.92001 17.2203ZM6.42001 20.0403C6.04001 20.2503 5.65001 20.2703 5.37001 20.2303C5.29001 19.9703 5.22001 19.5803 5.36001 19.1703C5.40001 19.0403 5.46001 18.9303 5.52001 18.8303L6.72001 19.8203C6.64001 19.9003 6.53001 19.9803 6.42001 20.0403Z" fill="black"/>
</svg>
