<svg width="24" height="24" viewBox="0 0 24 24" fill="none" xmlns="http://www.w3.org/2000/svg">
<path d="M19 3.25H17C15.48 3.25 14.25 4.48 14.25 6V20C14.25 20.41 14.59 20.75 15 20.75H19C20.52 20.75 21.75 19.52 21.75 18V6C21.75 4.48 20.52 3.25 19 3.25Z" fill="black"/>
<path d="M12.75 7.25H11C9.48 7.25 8.25 8.48 8.25 10V20C8.25 20.41 8.59 20.75 9 20.75H12.89C12.81 20.51 12.75 20.26 12.75 20V7.25Z" fill="black"/>
<path d="M6.75 12.25H5C3.48 12.25 2.25 13.48 2.25 15V18C2.25 19.52 3.48 20.75 5 20.75H6.89C6.81 20.51 6.75 20.26 6.75 20V12.25Z" fill="black"/>
</svg>
