<svg width="24" height="24" viewBox="0 0 24 24" fill="none" xmlns="http://www.w3.org/2000/svg">
<path d="M21 15.25H15.41C14.94 15.25 14.5 15.43 14.17 15.76L13.76 16.17C13.76 16.17 13.65 16.24 13.58 16.24H10.41C10.34 16.24 10.28 16.21 10.23 16.17L9.82 15.76C9.49 15.43 9.05 15.25 8.58 15.25H3C2.59 15.25 2.25 15.59 2.25 16V17C2.25 18.52 3.48 19.75 5 19.75H19C20.52 19.75 21.75 18.52 21.75 17V16C21.75 15.59 21.41 15.25 21 15.25Z" fill="black"/>
<path d="M10.88 14.7L10.93 14.75H13.07L13.12 14.7C13.73 14.09 14.55 13.75 15.42 13.75H20.76V9C20.76 6.38 18.63 4.25 16.01 4.25H8C5.38 4.25 3.25 6.38 3.25 9V13.75H8.59C9.46 13.75 10.27 14.09 10.89 14.7H10.88ZM14.25 7C14.25 6.59 14.59 6.25 15 6.25C15.41 6.25 15.75 6.59 15.75 7V11C15.75 11.41 15.41 11.75 15 11.75C14.59 11.75 14.25 11.41 14.25 11V7ZM11.25 9C11.25 8.59 11.59 8.25 12 8.25C12.41 8.25 12.75 8.59 12.75 9V11C12.75 11.41 12.41 11.75 12 11.75C11.59 11.75 11.25 11.41 11.25 11V9ZM8.25 11V10C8.25 9.59 8.59 9.25 9 9.25C9.41 9.25 9.75 9.59 9.75 10V11C9.75 11.41 9.41 11.75 9 11.75C8.59 11.75 8.25 11.41 8.25 11Z" fill="black"/>
</svg>
