<svg width="24" height="24" viewBox="0 0 24 24" fill="none" xmlns="http://www.w3.org/2000/svg">
<path d="M15 2.25H8C5.38 2.25 3.25 4.38 3.25 7V17C3.25 19.62 5.38 21.75 8 21.75H15C17.62 21.75 19.75 19.62 19.75 17V7C19.75 4.38 17.62 2.25 15 2.25ZM18.25 17C18.25 18.79 16.79 20.25 15 20.25H8C6.21 20.25 4.75 18.79 4.75 17V7C4.75 5.21 6.21 3.75 8 3.75H15C16.79 3.75 18.25 5.21 18.25 7V17Z" fill="black"/>
<path d="M15 5.25H8C7.04 5.25 6.25 6.04 6.25 7V8C6.25 8.96 7.04 9.75 8 9.75H15C15.96 9.75 16.75 8.96 16.75 8V7C16.75 6.04 15.96 5.25 15 5.25ZM15.25 8C15.25 8.14 15.14 8.25 15 8.25H8C7.86 8.25 7.75 8.14 7.75 8V7C7.75 6.86 7.86 6.75 8 6.75H15C15.14 6.75 15.25 6.86 15.25 7V8Z" fill="black"/>
<path d="M15 11.25H8C7.04 11.25 6.25 12.04 6.25 13V17C6.25 17.96 7.04 18.75 8 18.75H15C15.96 18.75 16.75 17.96 16.75 17V13C16.75 12.04 15.96 11.25 15 11.25ZM12.25 17.25H10.75V15.75H12.25V17.25ZM12.25 14.25H10.75V12.75H12.25V14.25ZM8 12.75H9.25V14.25H7.75V13C7.75 12.86 7.86 12.75 8 12.75ZM7.75 17V15.75H9.25V17.25H8C7.86 17.25 7.75 17.14 7.75 17ZM15.25 17C15.25 17.14 15.14 17.25 15 17.25H13.75V12.75H15C15.14 12.75 15.25 12.86 15.25 13V17Z" fill="black"/>
</svg>
