<svg width="24" height="24" viewBox="0 0 24 24" fill="none" xmlns="http://www.w3.org/2000/svg">
<path d="M17 4.25H8C5.42 4.25 3.32 6.32 3.25 8.88C2.64 9.38 2.25 10.15 2.25 11V18C2.25 19.52 3.48 20.75 5 20.75H19C20.52 20.75 21.75 19.52 21.75 18V9C21.75 6.38 19.62 4.25 17 4.25ZM5 19.25C4.31 19.25 3.75 18.69 3.75 18V11C3.75 10.31 4.31 9.75 5 9.75H6.17C6.5 9.75 6.82 9.88 7.05 10.12L7.88 10.95C8.4 11.47 9.09 11.76 9.82 11.76H13.99C15.23 11.76 16.24 12.77 16.24 14.01V18.01C16.24 18.46 16.35 18.89 16.54 19.26H5V19.25ZM20.25 18C20.25 18.69 19.69 19.25 19 19.25C18.31 19.25 17.75 18.69 17.75 18V14C17.75 11.93 16.07 10.25 14 10.25H9.83C9.5 10.25 9.18 10.12 8.95 9.88L8.12 9.05C7.6 8.53 6.91 8.24 6.18 8.24H5.01C4.95 8.24 4.9 8.24 4.85 8.24C5.19 6.81 6.48 5.74 8.01 5.74H17.01C18.8 5.74 20.26 7.2 20.26 8.99V17.99L20.25 18Z" fill="black"/>
</svg>
