<svg width="24" height="24" viewBox="0 0 24 24" fill="none" xmlns="http://www.w3.org/2000/svg">
<path d="M21 15.25H20.75V9C20.75 6.38 18.62 4.25 16 4.25H8C5.38 4.25 3.25 6.38 3.25 9V15.25H3C2.59 15.25 2.25 15.59 2.25 16V17C2.25 18.52 3.48 19.75 5 19.75H19C20.52 19.75 21.75 18.52 21.75 17V16C21.75 15.59 21.41 15.25 21 15.25ZM4.75 9C4.75 7.21 6.21 5.75 8 5.75H16C17.79 5.75 19.25 7.21 19.25 9V15.25H15.41C14.94 15.25 14.5 15.43 14.17 15.76L13.76 16.17C13.76 16.17 13.65 16.24 13.58 16.24H10.41C10.34 16.24 10.28 16.21 10.23 16.17L9.82 15.76C9.49 15.43 9.05 15.25 8.58 15.25H4.74V9H4.75ZM20.25 17C20.25 17.69 19.69 18.25 19 18.25H5C4.31 18.25 3.75 17.69 3.75 17V16.75H8.59C8.66 16.75 8.72 16.78 8.77 16.82L9.18 17.23C9.51 17.56 9.95 17.74 10.42 17.74H13.59C14.06 17.74 14.5 17.56 14.83 17.23L15.24 16.82C15.24 16.82 15.35 16.75 15.42 16.75H20.26V17H20.25Z" fill="black"/>
<path d="M12 13.75C12.41 13.75 12.75 13.41 12.75 13V11C12.75 10.59 12.41 10.25 12 10.25C11.59 10.25 11.25 10.59 11.25 11V13C11.25 13.41 11.59 13.75 12 13.75Z" fill="black"/>
<path d="M9.75 13V12C9.75 11.59 9.41 11.25 9 11.25C8.59 11.25 8.25 11.59 8.25 12V13C8.25 13.41 8.59 13.75 9 13.75C9.41 13.75 9.75 13.41 9.75 13Z" fill="black"/>
<path d="M15 13.75C15.41 13.75 15.75 13.41 15.75 13V9C15.75 8.59 15.41 8.25 15 8.25C14.59 8.25 14.25 8.59 14.25 9V13C14.25 13.41 14.59 13.75 15 13.75Z" fill="black"/>
</svg>
