<svg width="24" height="24" viewBox="0 0 24 24" fill="none" xmlns="http://www.w3.org/2000/svg">
<path d="M12 3.88992C11.15 4.44992 10.1 5.35992 9.3 6.72992C7.95 9.02992 8.04 11.3699 8.22 12.5499L8.35 13.3299C8.61 13.2599 8.86 13.1399 9.07 12.9499C9.54 12.5099 10.28 12.0099 11.25 11.8299V18.5099C11.25 18.9199 10.91 19.2599 10.5 19.2599C10.09 19.2599 9.75 18.9199 9.75 18.5099V18.0099C9.75 17.5999 9.41 17.2599 9 17.2599C8.59 17.2599 8.25 17.5999 8.25 18.0099V18.5099C8.25 19.7499 9.26 20.7599 10.5 20.7599C11.74 20.7599 12.75 19.7499 12.75 18.5099V11.8499C13.35 11.9699 14.19 12.2499 14.92 12.9299C15.12 13.1199 15.36 13.2299 15.6 13.3099L15.8 12.4799C15.96 11.3599 16.05 9.02992 14.7 6.72992C13.9 5.35992 12.85 4.45992 12 3.88992Z" fill="black"/>
<path d="M10.15 3.42992C5.65 4.29992 2.25 8.24992 2.25 12.9999C2.25 13.2999 2.43 13.5699 2.71 13.6899C2.99 13.8099 3.31 13.7499 3.53 13.5299C3.78 13.2799 4.33 12.8499 5.11 12.7399C5.79 12.6399 6.37 12.8399 6.79 13.0599L6.74 12.7799C6.53 11.3799 6.43 8.65992 8.01 5.95992C8.57 4.99992 9.31 4.15992 10.16 3.41992L10.15 3.42992Z" fill="black"/>
<path d="M13.85 3.42992C14.7 4.15992 15.44 5.00992 16 5.96992C17.58 8.65992 17.48 11.3699 17.28 12.7599L17.2 13.0899C17.76 12.7899 18.33 12.6699 18.9 12.7499C19.68 12.8599 20.22 13.2899 20.48 13.5399C20.62 13.6799 20.81 13.7499 21.01 13.7499C21.11 13.7499 21.21 13.7299 21.3 13.6899C21.58 13.5699 21.76 13.2999 21.76 12.9999C21.76 8.25992 18.35 4.29992 13.86 3.42992H13.85Z" fill="black"/>
</svg>
