<svg width="24" height="24" viewBox="0 0 24 24" fill="none" xmlns="http://www.w3.org/2000/svg">
<path d="M17 2.25H7C4.38 2.25 2.25 4.38 2.25 7V13C2.25 15.62 4.38 17.75 7 17.75H17C19.62 17.75 21.75 15.62 21.75 13V7C21.75 4.38 19.62 2.25 17 2.25ZM18 9.75H15.31L12.53 12.53C12.28 12.78 11.88 12.82 11.58 12.62L9.09 10.96L6.52 13.53C6.37 13.68 6.18 13.75 5.99 13.75C5.8 13.75 5.61 13.68 5.46 13.53C5.17 13.24 5.17 12.76 5.46 12.47L8.46 9.47C8.71 9.22 9.11 9.18 9.41 9.38L11.9 11.04L14.47 8.47C14.61 8.33 14.8 8.25 15 8.25H18C18.41 8.25 18.75 8.58 18.75 9C18.75 9.42 18.41 9.75 18 9.75Z" fill="black"/>
<path d="M15.37 20.25C15.19 20 15.02 19.65 14.88 19.25H9.13C8.99 19.65 8.82 20 8.64 20.25H8.01C7.6 20.25 7.26 20.59 7.26 21C7.26 21.41 7.6 21.75 8.01 21.75H16.01C16.42 21.75 16.76 21.41 16.76 21C16.76 20.59 16.42 20.25 16.01 20.25H15.37Z" fill="black"/>
</svg>
