<svg width="24" height="24" viewBox="0 0 24 24" fill="none" xmlns="http://www.w3.org/2000/svg">
<path d="M20 13.25H16.47C15.98 13.25 15.5 13.47 15.15 13.86C13.92 15.21 12.2 15.25 12 15.25C10.4 15.25 9.32 14.34 8.82 13.81C8.49 13.46 8.02 13.25 7.52 13.25H4C3.04 13.25 2.25 14.04 2.25 15V17C2.25 19.07 3.93 20.75 6 20.75H18C20.07 20.75 21.75 19.07 21.75 17V15C21.75 14.04 20.96 13.25 20 13.25ZM20.25 17C20.25 18.24 19.24 19.25 18 19.25H6C4.76 19.25 3.75 18.24 3.75 17V15C3.75 14.86 3.86 14.75 4 14.75H7.52C7.6 14.75 7.67 14.78 7.71 14.83C8.38 15.55 9.82 16.75 11.99 16.75C12.41 16.75 14.61 16.66 16.25 14.87C16.32 14.8 16.39 14.75 16.46 14.75H19.99C20.13 14.75 20.24 14.86 20.24 15V17H20.25Z" fill="black"/>
<path d="M3.76 11.71C4.15 11.84 4.58 11.63 4.71 11.24L6.03 7.29C6.34 6.37 7.19 5.75 8.16 5.75H15.84C16.81 5.75 17.67 6.37 17.97 7.29L19.29 11.24C19.4 11.55 19.69 11.75 20 11.75C20.08 11.75 20.16 11.74 20.24 11.71C20.63 11.58 20.85 11.15 20.71 10.76L19.39 6.81C18.88 5.28 17.45 4.25 15.83 4.25H8.15C6.53 4.25 5.1 5.28 4.59 6.81L3.27 10.76C3.14 11.15 3.35 11.58 3.74 11.71H3.76Z" fill="black"/>
<path d="M16 8.75C16.41 8.75 16.75 8.41 16.75 8C16.75 7.59 16.41 7.25 16 7.25H8C7.59 7.25 7.25 7.59 7.25 8C7.25 8.41 7.59 8.75 8 8.75H16Z" fill="black"/>
<path d="M6.25 11C6.25 11.41 6.59 11.75 7 11.75H17C17.41 11.75 17.75 11.41 17.75 11C17.75 10.59 17.41 10.25 17 10.25H7C6.59 10.25 6.25 10.59 6.25 11Z" fill="black"/>
</svg>
