<svg width="24" height="24" viewBox="0 0 24 24" fill="none" xmlns="http://www.w3.org/2000/svg">
<path d="M8.5 6.75H13.5C14.74 6.75 15.75 5.74 15.75 4.5C15.75 3.26 14.74 2.25 13.5 2.25H8.5C7.26 2.25 6.25 3.26 6.25 4.5C6.25 5.74 7.26 6.75 8.5 6.75ZM8.5 3.75H13.5C13.91 3.75 14.25 4.09 14.25 4.5C14.25 4.91 13.91 5.25 13.5 5.25H8.5C8.09 5.25 7.75 4.91 7.75 4.5C7.75 4.09 8.09 3.75 8.5 3.75Z" fill="black"/>
<path d="M18 14.25C15.93 14.25 14.25 15.93 14.25 18C14.25 20.07 15.93 21.75 18 21.75C20.07 21.75 21.75 20.07 21.75 18C21.75 15.93 20.07 14.25 18 14.25ZM19.67 17.34L18.67 19.34C18.56 19.56 18.36 19.71 18.12 19.74C18.08 19.74 18.04 19.74 18 19.74C17.8 19.74 17.61 19.66 17.47 19.52L16.47 18.52C16.18 18.23 16.18 17.75 16.47 17.46C16.76 17.17 17.24 17.17 17.53 17.46L17.79 17.72L18.32 16.65C18.51 16.28 18.96 16.13 19.33 16.31C19.7 16.5 19.85 16.95 19.67 17.32V17.34Z" fill="black"/>
<path d="M18 12.75C18.26 12.75 18.5 12.79 18.75 12.83V8C18.75 6.76 18.14 5.66 17.2 4.98C16.96 6.82 15.4 8.25 13.5 8.25H8.5C6.6 8.25 5.04 6.82 4.8 4.98C3.87 5.66 3.25 6.76 3.25 8V18C3.25 20.07 4.93 21.75 7 21.75H13.04L14.27 21.69C13.33 20.74 12.75 19.44 12.75 18C12.75 15.1 15.11 12.75 18 12.75Z" fill="black"/>
</svg>
