<svg width="24" height="24" viewBox="0 0 24 24" fill="none" xmlns="http://www.w3.org/2000/svg">
<path d="M7.80994 16.2497C8.10994 16.4397 8.36994 16.8697 8.45994 17.2497H15.5499C15.6399 16.8697 15.8999 16.4397 16.1999 16.2497C18.8299 14.5897 20.1999 11.4397 19.6199 8.39965C18.9299 4.79965 15.6699 2.12965 12.0199 2.24965C8.34994 2.11965 5.06994 4.79965 4.37994 8.39965C3.79994 11.4397 5.17994 14.5897 7.79994 16.2497H7.80994ZM7.41994 7.56965C7.89994 6.68965 8.58994 6.16965 9.08994 5.88965C9.44994 5.68965 9.90994 5.80965 10.1099 6.16965C10.3099 6.52965 10.1899 6.98965 9.82994 7.18965C9.49994 7.37965 9.03994 7.71965 8.73994 8.27965C8.05994 9.52965 8.67994 10.9097 8.75994 11.0597C8.93994 11.4297 8.77994 11.8797 8.40994 12.0597C8.30994 12.1097 8.18994 12.1297 8.08994 12.1297C7.80994 12.1297 7.53994 11.9697 7.40994 11.7097C7.22994 11.3497 6.40994 9.42965 7.42994 7.55965L7.41994 7.56965Z" fill="black"/>
<path d="M8.49994 18.7497V19.6097C8.49994 20.7897 9.40994 21.7497 10.5199 21.7497H13.4799C14.5899 21.7497 15.4999 20.7897 15.4999 19.6097V18.7497H8.49994Z" fill="black"/>
</svg>
