<svg width="24" height="24" viewBox="0 0 24 24" fill="none" xmlns="http://www.w3.org/2000/svg">
<path d="M20.23 9.02975C20.07 8.98975 19.95 8.87975 19.88 8.72975C19.82 8.57975 19.83 8.40975 19.91 8.26975C20.39 7.47975 20.26 6.46975 19.61 5.81975L18.17 4.37975C17.52 3.72975 16.51 3.59975 15.72 4.07975C15.58 4.15975 15.41 4.17975 15.26 4.10975C15.11 4.04975 15 3.91975 14.96 3.75975C14.74 2.85975 13.93 2.23975 13.01 2.23975H10.98C10.06 2.23975 9.25999 2.86975 9.02999 3.75975C8.98999 3.91975 8.87999 4.03975 8.72999 4.10975C8.57999 4.16975 8.40999 4.15975 8.26999 4.07975C7.47999 3.60975 6.46999 3.72975 5.81999 4.37975L4.37999 5.81975C3.72999 6.46975 3.59999 7.47975 4.07999 8.26975C4.15999 8.40975 4.17999 8.57975 4.10999 8.72975C4.04999 8.87975 3.91999 8.98975 3.75999 9.02975C2.85999 9.24975 2.23999 10.0497 2.23999 10.9797V13.0197C2.23999 13.9397 2.86999 14.7497 3.75999 14.9697C3.91999 15.0097 4.03999 15.1197 4.10999 15.2697C4.16999 15.4197 4.15999 15.5897 4.07999 15.7297C3.59999 16.5197 3.72999 17.5297 4.37999 18.1797L5.81999 19.6197C6.46999 20.2697 7.47999 20.3997 8.26999 19.9197C8.40999 19.8397 8.57999 19.8197 8.72999 19.8897C8.87999 19.9497 8.98999 20.0797 9.02999 20.2397C9.24999 21.1397 10.06 21.7597 10.98 21.7597H13.01C13.93 21.7597 14.73 21.1297 14.96 20.2397C15 20.0797 15.11 19.9597 15.26 19.8897C15.41 19.8297 15.58 19.8397 15.72 19.9197C16.51 20.3897 17.52 20.2697 18.17 19.6197L19.61 18.1797C20.26 17.5297 20.39 16.5197 19.91 15.7297C19.83 15.5897 19.81 15.4197 19.88 15.2697C19.94 15.1197 20.07 15.0097 20.23 14.9697C21.13 14.7497 21.75 13.9497 21.75 13.0197V10.9797C21.75 10.0597 21.12 9.24975 20.23 9.02975ZM20.25 13.0097C20.25 13.2397 20.09 13.4497 19.86 13.4997C19.24 13.6597 18.74 14.0897 18.49 14.6797C18.24 15.2697 18.29 15.9297 18.62 16.4797C18.74 16.6797 18.71 16.9397 18.54 17.0997L17.1 18.5397C16.93 18.7097 16.68 18.7397 16.48 18.6197C15.93 18.2897 15.27 18.2397 14.68 18.4897C14.09 18.7397 13.66 19.2397 13.5 19.8597C13.44 20.0897 13.24 20.2497 13.01 20.2497H10.98C10.75 20.2497 10.54 20.0897 10.49 19.8697C10.33 19.2497 9.89999 18.7497 9.30999 18.4997C9.05999 18.3997 8.79999 18.3397 8.53999 18.3397C8.17999 18.3397 7.82999 18.4397 7.50999 18.6297C7.30999 18.7497 7.04999 18.7197 6.88999 18.5497L5.44999 17.1097C5.27999 16.9397 5.24999 16.6897 5.36999 16.4897C5.69999 15.9397 5.74999 15.2797 5.49999 14.6897C5.24999 14.0997 4.75999 13.6697 4.12999 13.5097C3.89999 13.4497 3.74999 13.2497 3.74999 13.0197V10.9797C3.74999 10.7497 3.90999 10.5397 4.13999 10.4897C4.75999 10.3297 5.25999 9.89975 5.50999 9.30975C5.75999 8.71975 5.70999 8.05975 5.37999 7.50975C5.25999 7.30975 5.28999 7.04975 5.45999 6.88975L6.89999 5.44975C7.06999 5.28975 7.31999 5.24975 7.51999 5.36975C8.06999 5.69975 8.72999 5.74975 9.31999 5.49975C9.90999 5.24975 10.34 4.74975 10.5 4.12975C10.56 3.89975 10.76 3.73975 10.99 3.73975H13.02C13.25 3.73975 13.46 3.89975 13.51 4.11975C13.67 4.73975 14.1 5.23975 14.69 5.48975C15.29 5.73975 15.94 5.68975 16.49 5.35975C16.69 5.23975 16.95 5.26975 17.11 5.43975L18.55 6.87975C18.72 7.04975 18.75 7.29975 18.63 7.49975C18.3 8.04975 18.25 8.70975 18.5 9.29975C18.75 9.88975 19.24 10.3197 19.87 10.4797C20.1 10.5397 20.25 10.7397 20.25 10.9697V13.0097Z" fill="black"/>
<path d="M12 7.24975C9.37999 7.24975 7.24999 9.37975 7.24999 11.9997C7.24999 14.6197 9.37999 16.7497 12 16.7497C14.62 16.7497 16.75 14.6197 16.75 11.9997C16.75 9.37975 14.62 7.24975 12 7.24975ZM12 15.2497C10.21 15.2497 8.74999 13.7897 8.74999 11.9997C8.74999 10.2097 10.21 8.74975 12 8.74975C13.79 8.74975 15.25 10.2097 15.25 11.9997C15.25 13.7897 13.79 15.2497 12 15.2497Z" fill="black"/>
</svg>
