<svg width="24" height="24" viewBox="0 0 24 24" fill="none" xmlns="http://www.w3.org/2000/svg">
<path d="M20.27 7.30004C20.05 7.26004 19.8 7.21004 19.54 7.13004C19.03 6.97004 18.55 6.74004 18.1 6.43004C17.77 6.23004 17.24 5.98004 16.55 5.95004C16.16 5.93004 15.78 5.99004 15.35 6.13004L11.12 7.88004L8.47 7.54004C8.04 7.48004 7.61 7.55004 7.22 7.73004L7.03 7.82004C6.42 8.11004 5.74 8.26004 5.07 8.26004H4C3.04 8.26004 2.25 9.05004 2.25 10.01V15.01C2.25 15.97 3.04 16.76 4 16.76H5.02C5.73 16.76 6.44 16.95 7.05 17.31L8.74 18.29C9.19 18.55 9.68 18.68 10.17 18.68C10.8 18.68 11.42 18.47 11.94 18.05L14.86 15.73C14.86 15.73 14.95 15.76 15 15.76H20C20.96 15.76 21.75 14.97 21.75 14.01V9.03004C21.75 8.17004 21.13 7.44004 20.27 7.30004ZM11.01 16.87C10.57 17.22 9.97 17.26 9.49 16.98L7.8 16C6.96 15.51 5.99 15.25 5.02 15.25H4C3.86 15.25 3.75 15.14 3.75 15V10C3.75 9.86004 3.86 9.75004 4 9.75004H5.07C5.96 9.75004 6.86 9.55004 7.67 9.17004L7.86 9.08004C7.99 9.02004 8.14 8.99004 8.29 9.01004L8.53 9.04004C8.42 9.14004 8.32 9.25004 8.24 9.37004C8 9.75004 7.91 10.19 8.01 10.61C8.19 11.42 8.98 11.99 9.8 11.94C10.66 11.97 11.52 11.91 12.37 11.77C12.95 11.67 13.52 11.51 14.08 11.33L14.5 14.11L11.04 16.86L11.01 16.87ZM20.25 14C20.25 14.14 20.14 14.25 20 14.25H15.96C15.96 14.14 15.97 14.02 15.96 13.91L15.44 10.41C15.39 10.09 15.15 9.86004 14.85 9.79004C14.66 9.67004 14.42 9.63004 14.19 9.72004C13.52 9.99004 12.82 10.18 12.1 10.31C11.36 10.44 10.6 10.49 9.77 10.46C9.61 10.48 9.48 10.38 9.47 10.3C9.47 10.26 9.48 10.22 9.5 10.2C9.52 10.17 9.58 10.1 9.7 10.07C9.75 10.07 9.79 10.05 9.84 10.03L11.43 9.37004C11.56 9.35004 11.68 9.30004 11.78 9.23004L15.9 7.53004C16.1 7.46004 16.3 7.43004 16.51 7.44004C16.87 7.46004 17.16 7.59004 17.3 7.68004C17.86 8.06004 18.47 8.35004 19.12 8.56004C19.45 8.66004 19.76 8.73004 20.05 8.78004C20.18 8.80004 20.27 8.90004 20.27 9.03004V14.01L20.25 14Z" fill="black"/>
</svg>
