<svg width="24" height="24" viewBox="0 0 24 24" fill="none" xmlns="http://www.w3.org/2000/svg">
<path d="M13 20.25H7C5.76 20.25 4.75 19.24 4.75 18V8C4.75 6.88 5.58 5.95 6.66 5.78C7.07 6.36 7.74 6.75 8.5 6.75H13.5C14.26 6.75 14.94 6.37 15.34 5.78C16.42 5.95 17.25 6.87 17.25 8V12C17.25 12.41 17.59 12.75 18 12.75C18.41 12.75 18.75 12.41 18.75 12V8C18.75 6.18 17.45 4.67 15.73 4.32C15.64 3.16 14.68 2.25 13.5 2.25H8.5C7.32 2.25 6.36 3.17 6.27 4.32C4.55 4.66 3.25 6.18 3.25 8V18C3.25 20.07 4.93 21.75 7 21.75H13C13.41 21.75 13.75 21.41 13.75 21C13.75 20.59 13.41 20.25 13 20.25ZM8.5 3.75H13.5C13.91 3.75 14.25 4.09 14.25 4.5C14.25 4.91 13.91 5.25 13.5 5.25H8.5C8.09 5.25 7.75 4.91 7.75 4.5C7.75 4.09 8.09 3.75 8.5 3.75Z" fill="black"/>
<path d="M18 14.25C15.93 14.25 14.25 15.93 14.25 18C14.25 20.07 15.93 21.75 18 21.75C20.07 21.75 21.75 20.07 21.75 18C21.75 15.93 20.07 14.25 18 14.25ZM18 20.25C16.76 20.25 15.75 19.24 15.75 18C15.75 16.76 16.76 15.75 18 15.75C19.24 15.75 20.25 16.76 20.25 18C20.25 19.24 19.24 20.25 18 20.25Z" fill="black"/>
<path d="M19.33 16.33C18.96 16.15 18.51 16.3 18.32 16.67L17.79 17.74L17.53 17.48C17.24 17.19 16.76 17.19 16.47 17.48C16.18 17.77 16.18 18.25 16.47 18.54L17.47 19.54C17.61 19.68 17.8 19.76 18 19.76C18.04 19.76 18.08 19.76 18.12 19.76C18.36 19.72 18.56 19.57 18.67 19.36L19.67 17.36C19.86 16.99 19.71 16.54 19.33 16.35V16.33Z" fill="black"/>
</svg>
