<svg width="24" height="24" viewBox="0 0 24 24" fill="none" xmlns="http://www.w3.org/2000/svg">
<path d="M19.6199 8.39965C18.9299 4.79965 15.6699 2.12965 12.0199 2.24965C8.34994 2.11965 5.06994 4.79965 4.37994 8.39965C3.79994 11.4397 5.17994 14.5897 7.79994 16.2497C8.15994 16.4797 8.48994 17.0797 8.48994 17.4997V19.6097C8.48994 20.7897 9.39994 21.7497 10.5099 21.7497H13.4699C14.5799 21.7497 15.4899 20.7897 15.4899 19.6097V17.4997C15.4899 17.0797 15.8199 16.4797 16.1799 16.2497C18.8099 14.5897 20.1799 11.4397 19.5999 8.39965H19.6199ZM13.4799 20.2497H10.5199C10.2299 20.2497 9.99994 19.9597 9.99994 19.6097V18.7497H13.9599C13.9599 18.7497 13.9899 18.7497 14.0099 18.7497V19.6197C14.0099 19.9697 13.7799 20.2597 13.4899 20.2597L13.4799 20.2497ZM15.3899 14.9797C14.6599 15.4397 14.1199 16.3897 14.0299 17.2697C13.9999 17.2697 13.9799 17.2497 13.9499 17.2497H9.95994C9.86994 16.3797 9.32994 15.4397 8.60994 14.9797C6.49994 13.6497 5.38994 11.1097 5.85994 8.67965C6.39994 5.83965 8.94994 3.74965 11.8699 3.74965C11.9199 3.74965 11.9699 3.74965 12.0199 3.74965C14.9899 3.65965 17.5899 5.78965 18.1499 8.67965C18.6099 11.1197 17.5099 13.6497 15.3999 14.9797H15.3899Z" fill="black"/>
<path d="M9.08994 5.87965C8.58994 6.15965 7.88994 6.67965 7.41994 7.55965C6.39994 9.42965 7.22994 11.3397 7.39994 11.7097C7.52994 11.9797 7.79994 12.1297 8.07994 12.1297C8.18994 12.1297 8.29994 12.1097 8.39994 12.0597C8.76994 11.8797 8.92994 11.4297 8.74994 11.0597C8.67994 10.9097 8.04994 9.52965 8.72994 8.27965C9.03994 7.71965 9.48994 7.37965 9.81994 7.18965C10.1799 6.98965 10.3099 6.52965 10.0999 6.16965C9.89994 5.80965 9.43994 5.67965 9.07994 5.88965L9.08994 5.87965Z" fill="black"/>
</svg>
