<svg width="24" height="24" viewBox="0 0 24 24" fill="none" xmlns="http://www.w3.org/2000/svg">
<path d="M19.44 9.67L13.53 5.46C13.67 5.17 13.75 4.85 13.75 4.5C13.75 3.26 12.74 2.25 11.5 2.25C10.26 2.25 9.24999 3.26 9.24999 4.5C9.24999 4.84 9.32999 5.16 9.46999 5.46L3.52999 9.68C3.46999 9.72 3.41999 9.76 3.35999 9.8L3.31999 9.83C3.31999 9.83 3.30999 9.84 3.29999 9.85C2.65999 10.35 2.23999 11.13 2.23999 12V15C2.23999 16.52 3.46999 17.75 4.98999 17.75H17.99C19.51 17.75 20.74 16.52 20.74 15V12C20.74 11.01 20.21 10.15 19.43 9.67H19.44ZM10.53 6.52C10.83 6.66 11.16 6.75 11.51 6.75C11.86 6.75 12.19 6.66 12.49 6.52C12.52 6.55 12.54 6.59 12.58 6.61L16.28 9.25H6.72999L10.44 6.61C10.44 6.61 10.5 6.55 10.53 6.52ZM11.51 3.75C11.92 3.75 12.26 4.09 12.26 4.5C12.26 4.91 11.92 5.25 11.51 5.25C11.1 5.25 10.76 4.91 10.76 4.5C10.76 4.09 11.1 3.75 11.51 3.75ZM19.26 15C19.26 15.69 18.7 16.25 18.01 16.25H4.99999C4.30999 16.25 3.74999 15.69 3.74999 15V12C3.74999 11.31 4.30999 10.75 4.99999 10.75H18C18.69 10.75 19.25 11.31 19.25 12V15H19.26Z" fill="black"/>
</svg>
