<svg width="24" height="24" viewBox="0 0 24 24" fill="none" xmlns="http://www.w3.org/2000/svg">
<path d="M8.92 12.75L9.42 15.25C9.54 15.83 10.05 16.25 10.65 16.25H13.37C13.96 16.25 14.48 15.83 14.6 15.25L15.1 12.75H8.92Z" fill="black"/>
<path d="M16 3.25H8C4.83 3.25 2.25 5.83 2.25 9V15C2.25 18.17 4.83 20.75 8 20.75H16C19.17 20.75 21.75 18.17 21.75 15V9C21.75 5.83 19.17 3.25 16 3.25ZM14.01 6.25C14.43 6.25 14.76 6.59 14.76 7C14.76 7.41 14.43 7.75 14.01 7.75C13.59 7.75 13.26 7.41 13.26 7C13.26 6.59 13.59 6.25 14.01 6.25ZM16.06 15.54C15.8 16.82 14.67 17.75 13.36 17.75H10.64C9.33 17.75 8.2 16.82 7.94 15.54L7.26 12.15C7.22 11.93 7.27 11.7 7.42 11.53C7.56 11.36 7.78 11.26 8 11.26H8.25V10.01C8.25 9.6 8.59 9.26 9 9.26C9.41 9.26 9.75 9.6 9.75 10.01V11.26H14.25V10.01C14.25 9.6 14.59 9.26 15 9.26C15.41 9.26 15.75 9.6 15.75 10.01V11.26H16C16.22 11.26 16.44 11.36 16.58 11.53C16.72 11.7 16.78 11.93 16.74 12.15L16.06 15.54ZM16.02 7.75C15.61 7.75 15.27 7.41 15.27 7C15.27 6.59 15.6 6.25 16.02 6.25C16.44 6.25 16.77 6.59 16.77 7C16.77 7.41 16.44 7.75 16.02 7.75ZM18.02 7.75C17.61 7.75 17.27 7.41 17.27 7C17.27 6.59 17.6 6.25 18.02 6.25C18.44 6.25 18.77 6.59 18.77 7C18.77 7.41 18.44 7.75 18.02 7.75Z" fill="black"/>
</svg>
