<svg width="24" height="24" viewBox="0 0 24 24" fill="none" xmlns="http://www.w3.org/2000/svg">
<path d="M20 16.25H14.71C14.05 16.25 13.44 16.51 12.97 16.97C12.79 17.15 12.55 17.25 12.29 17.25H10.7C10.44 17.25 10.2 17.15 10.02 16.97C9.56 16.51 8.94 16.25 8.28 16.25H3C2.59 16.25 2.25 16.59 2.25 17V19C2.25 19.96 3.04 20.75 4 20.75H19C19.96 20.75 20.75 19.96 20.75 19V17C20.75 16.59 20.41 16.25 20 16.25Z" fill="black"/>
<path d="M21.59 5.54C21.45 5.36 21.23 5.25 21 5.25H20.75V4C20.75 3.59 20.41 3.25 20 3.25C19.59 3.25 19.25 3.59 19.25 4V5.25H15.75V4C15.75 3.59 15.41 3.25 15 3.25C14.59 3.25 14.25 3.59 14.25 4V5.25H14C13.77 5.25 13.55 5.36 13.41 5.54C13.27 5.72 13.22 5.96 13.27 6.18L13.89 8.67C14.2 9.9 15.29 10.75 16.56 10.75H18.44C19.7 10.75 20.8 9.89 21.11 8.67L21.73 6.19C21.79 5.97 21.73 5.73 21.59 5.55V5.54Z" fill="black"/>
<path d="M10.92 15.75H12.07C12.79 15.1 13.72 14.75 14.7 14.75H19.74V12.04C19.32 12.17 18.88 12.25 18.43 12.25H16.55C14.6 12.25 12.9 10.93 12.43 9.03L11.81 6.54C11.79 6.44 11.78 6.34 11.77 6.24H6C4.48 6.24 3.25 7.47 3.25 8.99V14.74H8.29C9.27 14.74 10.19 15.09 10.92 15.74V15.75Z" fill="black"/>
</svg>
