<svg width="24" height="24" viewBox="0 0 24 24" fill="none" xmlns="http://www.w3.org/2000/svg">
<path d="M18 7.25H16.75V6C16.75 4.48 15.52 3.25 14 3.25H10C8.48 3.25 7.25 4.48 7.25 6V7.25H6C3.93 7.25 2.25 8.93 2.25 11V16C2.25 19.17 4.83 21.75 8 21.75H16C19.17 21.75 21.75 19.17 21.75 16V11C21.75 8.93 20.07 7.25 18 7.25ZM8.75 6C8.75 5.31 9.31 4.75 10 4.75H14C14.69 4.75 15.25 5.31 15.25 6V7.25H8.75V6ZM20.25 16C20.25 18.34 18.34 20.25 16 20.25H8C5.66 20.25 3.75 18.34 3.75 16V11C3.75 9.76 4.76 8.75 6 8.75H7.25V10C7.25 10.41 7.59 10.75 8 10.75C8.41 10.75 8.75 10.41 8.75 10V8.75H15.25V10C15.25 10.41 15.59 10.75 16 10.75C16.41 10.75 16.75 10.41 16.75 10V8.75H18C19.24 8.75 20.25 9.76 20.25 11V16Z" fill="black"/>
</svg>
