<svg width="24" height="24" viewBox="0 0 24 24" fill="none" xmlns="http://www.w3.org/2000/svg">
<path d="M8.29 16.25H11.25V12.25H7.79L8.29 16.25Z" fill="black"/>
<path d="M12.75 21.75H15.02L15.52 17.75H12.75V21.75Z" fill="black"/>
<path d="M20 12.25H17.72L17.22 16.25H20.35L20.74 13.09C20.77 12.88 20.7 12.66 20.56 12.5C20.42 12.34 20.21 12.25 20 12.25Z" fill="black"/>
<path d="M8.74 19.91L9.04 21.75H11.25V17.75H8.47L8.74 19.91Z" fill="black"/>
<path d="M16.53 21.75H17.23C18.61 21.75 19.79 20.71 19.96 19.34L20.16 17.75H17.03L16.53 21.75Z" fill="black"/>
<path d="M6.96 17.75H3.84L4.04 19.34C4.21 20.71 5.38 21.75 6.77 21.75H7.52L7.26 20.12L6.96 17.75Z" fill="black"/>
<path d="M12.75 16.25H15.71L16.21 12.25H12.75V16.25Z" fill="black"/>
<path d="M6.28 12.25H4C3.78 12.25 3.58 12.34 3.44 12.5C3.3 12.66 3.23 12.88 3.26 13.09L3.65 16.25H6.78L6.28 12.25Z" fill="black"/>
<path d="M20.5 9.25H19.75V6C19.75 4.48 18.52 3.25 17 3.25H15.7C15.58 2.68 15.1 2.25 14.5 2.25H9.5C8.9 2.25 8.42 2.68 8.3 3.25H7C5.48 3.25 4.25 4.48 4.25 6V9.25H3.5C2.81 9.25 2.25 9.81 2.25 10.5V11.6C2.25 11.6 2.29 11.54 2.31 11.51C2.74 11.02 3.35 10.75 4 10.75H20C20.64 10.75 21.26 11.03 21.69 11.51C21.71 11.54 21.73 11.57 21.75 11.6V10.5C21.75 9.81 21.19 9.25 20.5 9.25ZM5.75 6C5.75 5.31 6.31 4.75 7 4.75H8.3C8.42 5.32 8.9 5.75 9.5 5.75H14.5C15.1 5.75 15.58 5.32 15.7 4.75H17C17.69 4.75 18.25 5.31 18.25 6V9.25H5.75V6Z" fill="black"/>
</svg>
