<svg width="24" height="24" viewBox="0 0 24 24" fill="none" xmlns="http://www.w3.org/2000/svg">
<path d="M16 13.25C15.59 13.25 15.25 13.59 15.25 14V18C15.25 19.24 14.24 20.25 13 20.25H9C7.76 20.25 6.75 19.24 6.75 18V6C6.75 4.76 7.76 3.75 9 3.75H15C15.41 3.75 15.75 3.41 15.75 3C15.75 2.59 15.41 2.25 15 2.25H9C6.93 2.25 5.25 3.93 5.25 6V18C5.25 20.07 6.93 21.75 9 21.75H13C15.07 21.75 16.75 20.07 16.75 18V14C16.75 13.59 16.41 13.25 16 13.25Z" fill="black"/>
<path d="M19.59 6.54C19.45 6.36 19.23 6.25 19 6.25H18.75V5C18.75 4.59 18.41 4.25 18 4.25C17.59 4.25 17.25 4.59 17.25 5V6.25H13.75V5C13.75 4.59 13.41 4.25 13 4.25C12.59 4.25 12.25 4.59 12.25 5V6.25H12C11.77 6.25 11.55 6.36 11.41 6.54C11.27 6.72 11.22 6.96 11.27 7.18L11.89 9.67C12.2 10.9 13.29 11.75 14.56 11.75H16.44C17.7 11.75 18.8 10.89 19.11 9.67L19.73 7.18C19.79 6.96 19.73 6.72 19.59 6.54ZM17.65 9.31C17.51 9.87 17.01 10.26 16.44 10.26H14.56C13.99 10.26 13.49 9.87 13.35 9.31L12.96 7.76H18.04L17.65 9.31Z" fill="black"/>
<path d="M10 18.75H12C12.41 18.75 12.75 18.41 12.75 18C12.75 17.59 12.41 17.25 12 17.25H10C9.59 17.25 9.25 17.59 9.25 18C9.25 18.41 9.59 18.75 10 18.75Z" fill="black"/>
</svg>
