<svg width="24" height="24" viewBox="0 0 24 24" fill="none" xmlns="http://www.w3.org/2000/svg">
<path d="M3 8.75C3.41 8.75 3.75 8.41 3.75 8V6C3.75 4.76 4.76 3.75 6 3.75H8C8.41 3.75 8.75 3.41 8.75 3C8.75 2.59 8.41 2.25 8 2.25H6C3.93 2.25 2.25 3.93 2.25 6V8C2.25 8.41 2.59 8.75 3 8.75Z" fill="black"/>
<path d="M8 20.25H6C4.76 20.25 3.75 19.24 3.75 18V16C3.75 15.59 3.41 15.25 3 15.25C2.59 15.25 2.25 15.59 2.25 16V18C2.25 20.07 3.93 21.75 6 21.75H8C8.41 21.75 8.75 21.41 8.75 21C8.75 20.59 8.41 20.25 8 20.25Z" fill="black"/>
<path d="M21 15.25C20.59 15.25 20.25 15.59 20.25 16V18C20.25 19.24 19.24 20.25 18 20.25H16C15.59 20.25 15.25 20.59 15.25 21C15.25 21.41 15.59 21.75 16 21.75H18C20.07 21.75 21.75 20.07 21.75 18V16C21.75 15.59 21.41 15.25 21 15.25Z" fill="black"/>
<path d="M18 2.25H16C15.59 2.25 15.25 2.59 15.25 3C15.25 3.41 15.59 3.75 16 3.75H18C19.24 3.75 20.25 4.76 20.25 6V8C20.25 8.41 20.59 8.75 21 8.75C21.41 8.75 21.75 8.41 21.75 8V6C21.75 3.93 20.07 2.25 18 2.25Z" fill="black"/>
<path d="M15 10.25H9C7.48122 10.25 6.25 11.4812 6.25 13V14C6.25 15.5188 7.48122 16.75 9 16.75H15C16.5188 16.75 17.75 15.5188 17.75 14V13C17.75 11.4812 16.5188 10.25 15 10.25Z" fill="black"/>
<path d="M6.25 8C6.25 8.41 6.59 8.75 7 8.75H17C17.41 8.75 17.75 8.41 17.75 8C17.75 7.59 17.41 7.25 17 7.25H7C6.59 7.25 6.25 7.59 6.25 8Z" fill="black"/>
</svg>
