<svg width="24" height="24" viewBox="0 0 24 24" fill="none" xmlns="http://www.w3.org/2000/svg">
<path d="M6.63 2.25023C4.22 2.25023 2.25 4.21023 2.25 6.63023C2.25 9.05023 4.21 11.0102 6.63 11.0102H9.39C10.28 11.0102 11 10.2902 11 9.40023V6.64023C11 4.23023 9.04 2.26023 6.62 2.26023L6.63 2.25023Z" fill="black"/>
<path d="M5.71 13.0002C3.81 13.0002 2.26 14.5502 2.26 16.4502V17.3702C2.26 19.7802 4.22 21.7502 6.64 21.7502C9.06 21.7502 11.02 19.7902 11.02 17.3702V14.6102C11.02 13.7202 10.3 13.0002 9.41 13.0002H5.71Z" fill="black"/>
<path d="M14.61 11.0002H17.37C19.78 11.0002 21.75 9.04023 21.75 6.62023C21.75 4.20023 19.79 2.24023 17.37 2.24023C14.95 2.24023 12.99 4.20023 12.99 6.62023V9.38023C12.99 10.2702 13.71 10.9902 14.6 10.9902L14.61 11.0002Z" fill="black"/>
<path d="M17.38 13.0002H14.62C13.73 13.0002 13.01 13.7202 13.01 14.6102V17.3702C13.01 19.7802 14.97 21.7502 17.39 21.7502C19.81 21.7502 21.77 19.7902 21.77 17.3702C21.77 14.9502 19.81 12.9902 17.39 12.9902L17.38 13.0002Z" fill="black"/>
</svg>
