<svg width="24" height="24" viewBox="0 0 24 24" fill="none" xmlns="http://www.w3.org/2000/svg">
<path d="M16 10.75C15.59 10.75 15.25 10.41 15.25 10V6C15.25 5.31 14.69 4.75 14 4.75H10C9.31 4.75 8.75 5.31 8.75 6V10C8.75 10.41 8.41 10.75 8 10.75C7.59 10.75 7.25 10.41 7.25 10V6C7.25 4.48 8.48 3.25 10 3.25H14C15.52 3.25 16.75 4.48 16.75 6V10C16.75 10.41 16.41 10.75 16 10.75Z" fill="black"/>
<path d="M18.25 7.28V10C18.25 11.24 17.24 12.25 16 12.25C14.76 12.25 13.75 11.24 13.75 10V7.25H10.25V10C10.25 11.24 9.24 12.25 8 12.25C6.76 12.25 5.75 11.24 5.75 10V7.28C3.8 7.41 2.25 9.02 2.25 11V16C2.25 19.17 4.83 21.75 8 21.75H16C19.17 21.75 21.75 19.17 21.75 16V11C21.75 9.02 20.2 7.41 18.25 7.28Z" fill="black"/>
</svg>
