<svg width="24" height="24" viewBox="0 0 24 24" fill="none" xmlns="http://www.w3.org/2000/svg">
<path d="M16 2.25H8C5.38 2.25 3.25 4.38 3.25 7V19.38C3.25 19.99 3.56 20.55 4.08 20.87C4.6 21.19 5.24 21.22 5.78 20.95L7.88 19.9C7.95 19.86 8.03 19.86 8.1 19.9L11.21 21.45C11.46 21.57 11.72 21.63 11.99 21.63C12.26 21.63 12.53 21.57 12.77 21.45L15.87 19.9C15.94 19.86 16.02 19.86 16.09 19.9L18.2 20.95C18.75 21.22 19.38 21.19 19.9 20.87C20.42 20.55 20.73 19.99 20.73 19.38V7C20.73 4.38 18.6 2.25 15.98 2.25H16ZM13 15.75H8C7.59 15.75 7.25 15.41 7.25 15C7.25 14.59 7.59 14.25 8 14.25H13C13.41 14.25 13.75 14.59 13.75 15C13.75 15.41 13.41 15.75 13 15.75ZM13 11.75H8C7.59 11.75 7.25 11.41 7.25 11C7.25 10.59 7.59 10.25 8 10.25H13C13.41 10.25 13.75 10.59 13.75 11C13.75 11.41 13.41 11.75 13 11.75ZM13 7.75H8C7.59 7.75 7.25 7.41 7.25 7C7.25 6.59 7.59 6.25 8 6.25H13C13.41 6.25 13.75 6.59 13.75 7C13.75 7.41 13.41 7.75 13 7.75ZM16.02 15.75C15.61 15.75 15.27 15.41 15.27 15C15.27 14.59 15.6 14.25 16.01 14.25H16.02C16.43 14.25 16.77 14.59 16.77 15C16.77 15.41 16.43 15.75 16.02 15.75ZM16.02 11.75C15.61 11.75 15.27 11.41 15.27 11C15.27 10.59 15.6 10.25 16.01 10.25H16.02C16.43 10.25 16.77 10.59 16.77 11C16.77 11.41 16.43 11.75 16.02 11.75ZM16.02 7.75C15.61 7.75 15.27 7.41 15.27 7C15.27 6.59 15.6 6.25 16.01 6.25H16.02C16.43 6.25 16.77 6.59 16.77 7C16.77 7.41 16.43 7.75 16.02 7.75Z" fill="black"/>
</svg>
