<svg width="24" height="24" viewBox="0 0 24 24" fill="none" xmlns="http://www.w3.org/2000/svg">
<path d="M12 2.25C6.62 2.25 2.25 6.62 2.25 12C2.25 17.38 6.62 21.75 12 21.75C17.38 21.75 21.75 17.38 21.75 12C21.75 6.62 17.38 2.25 12 2.25ZM6.15 14.08C5.81 14.08 5.5 13.84 5.42 13.5C5.31 13.01 5.25 12.51 5.25 12C5.25 8.28 8.28 5.25 12 5.25C13.41 5.25 14.78 5.7 15.92 6.51V6.39C15.92 5.98 16.26 5.64 16.67 5.64C17.08 5.64 17.42 5.98 17.42 6.39V8C17.42 8.41 17.08 8.75 16.67 8.75H14.99C14.58 8.75 14.24 8.41 14.24 8C14.24 7.76 14.36 7.55 14.54 7.41C13.77 6.98 12.9 6.75 12 6.75C9.1 6.75 6.75 9.11 6.75 12C6.75 12.39 6.79 12.79 6.88 13.17C6.97 13.57 6.72 13.98 6.32 14.07C6.26 14.08 6.21 14.09 6.15 14.09V14.08ZM13.41 12.48C12.64 12.48 12.01 11.85 12.01 11.08V10.28C12.01 9.95 12.28 9.68 12.61 9.68C12.94 9.68 13.21 9.95 13.21 10.28V11.08C13.21 11.19 13.3 11.28 13.41 11.28H13.61V10.28C13.61 9.95 13.88 9.68 14.21 9.68C14.54 9.68 14.81 9.95 14.81 10.28V13.48C14.81 13.81 14.54 14.08 14.21 14.08C13.88 14.08 13.61 13.81 13.61 13.48V12.48H13.41ZM10.1 12.88H10.9C11.23 12.88 11.5 13.15 11.5 13.48C11.5 13.81 11.23 14.08 10.9 14.08H10.1C9.33 14.08 8.7 13.45 8.7 12.68C8.7 11.91 9.33 11.28 10.1 11.28C10.21 11.28 10.3 11.19 10.3 11.08C10.3 10.97 10.21 10.88 10.1 10.88H9.3C8.97 10.88 8.7 10.61 8.7 10.28C8.7 9.95 8.97 9.68 9.3 9.68H10.1C10.87 9.68 11.5 10.31 11.5 11.08C11.5 11.85 10.87 12.48 10.1 12.48C9.99 12.48 9.9 12.57 9.9 12.68C9.9 12.79 9.99 12.88 10.1 12.88ZM12 18.75C10.59 18.75 9.22 18.3 8.08 17.49V17.64C8.08 18.05 7.74 18.39 7.33 18.39C6.92 18.39 6.58 18.05 6.58 17.64V16C6.58 15.59 6.92 15.25 7.33 15.25H8.85C9.26 15.25 9.6 15.59 9.6 16C9.6 16.21 9.51 16.4 9.36 16.54C10.15 17 11.06 17.25 11.99 17.25C14.89 17.25 17.24 14.89 17.24 12C17.24 11.61 17.2 11.21 17.11 10.83C17.02 10.43 17.27 10.02 17.67 9.93C18.08 9.84 18.48 10.09 18.57 10.49C18.68 10.98 18.74 11.48 18.74 11.99C18.74 15.71 15.71 18.74 11.99 18.74L12 18.75Z" fill="black"/>
</svg>
