<svg width="24" height="24" viewBox="0 0 24 24" fill="none" xmlns="http://www.w3.org/2000/svg">
<path d="M7 2.25C4.38 2.25 2.25 4.38 2.25 7C2.25 9.62 4.38 11.75 7 11.75H10C10.96 11.75 11.75 10.96 11.75 10V7C11.75 4.38 9.62 2.25 7 2.25ZM10.25 10C10.25 10.14 10.14 10.25 10 10.25H7C5.21 10.25 3.75 8.79 3.75 7C3.75 5.21 5.21 3.75 7 3.75C8.79 3.75 10.25 5.21 10.25 7V10Z" fill="black"/>
<path d="M10 12.25H6C3.93 12.25 2.25 13.93 2.25 16V17C2.25 19.62 4.38 21.75 7 21.75C9.62 21.75 11.75 19.62 11.75 17V14C11.75 13.04 10.96 12.25 10 12.25ZM10.25 17C10.25 18.79 8.79 20.25 7 20.25C5.21 20.25 3.75 18.79 3.75 17V16C3.75 14.76 4.76 13.75 6 13.75H10C10.14 13.75 10.25 13.86 10.25 14V17Z" fill="black"/>
<path d="M14 11.75H17C19.62 11.75 21.75 9.62 21.75 7C21.75 4.38 19.62 2.25 17 2.25C14.38 2.25 12.25 4.38 12.25 7V10C12.25 10.96 13.04 11.75 14 11.75ZM13.75 7C13.75 5.21 15.21 3.75 17 3.75C18.79 3.75 20.25 5.21 20.25 7C20.25 8.79 18.79 10.25 17 10.25H14C13.86 10.25 13.75 10.14 13.75 10V7Z" fill="black"/>
<path d="M17 12.25H14C13.04 12.25 12.25 13.04 12.25 14V17C12.25 19.62 14.38 21.75 17 21.75C19.62 21.75 21.75 19.62 21.75 17C21.75 14.38 19.62 12.25 17 12.25ZM17 20.25C15.21 20.25 13.75 18.79 13.75 17V14C13.75 13.86 13.86 13.75 14 13.75H17C18.79 13.75 20.25 15.21 20.25 17C20.25 18.79 18.79 20.25 17 20.25Z" fill="black"/>
</svg>
