<svg width="24" height="24" viewBox="0 0 24 24" fill="none" xmlns="http://www.w3.org/2000/svg">
<path d="M3.75 12C3.75 7.45 7.45 3.75 12 3.75C13.71 3.75 15.36 4.29 16.73 5.25H16C15.59 5.25 15.25 5.59 15.25 6C15.25 6.41 15.59 6.75 16 6.75H19C19.41 6.75 19.75 6.41 19.75 6V3C19.75 2.59 19.41 2.25 19 2.25C18.59 2.25 18.25 2.59 18.25 3V4.53C16.51 3.07 14.3 2.25 12 2.25C6.62 2.25 2.25 6.62 2.25 12C2.25 12.73 2.33 13.46 2.49 14.17C2.57 14.52 2.88 14.75 3.22 14.75C3.27 14.75 3.33 14.75 3.39 14.73C3.79 14.64 4.05 14.24 3.96 13.83C3.82 13.23 3.76 12.62 3.76 12H3.75Z" fill="black"/>
<path d="M21.51 9.83C21.42 9.43 21.02 9.17 20.61 9.26C20.21 9.35 19.95 9.75 20.04 10.16C20.18 10.76 20.24 11.37 20.24 11.99C20.24 16.54 16.54 20.24 11.99 20.24C10.28 20.24 8.63 19.7 7.26 18.74H7.99C8.4 18.74 8.74 18.4 8.74 17.99C8.74 17.58 8.4 17.24 7.99 17.24H4.99C4.58 17.24 4.24 17.58 4.24 17.99V20.99C4.24 21.4 4.58 21.74 4.99 21.74C5.4 21.74 5.74 21.4 5.74 20.99V19.46C7.48 20.92 9.69 21.74 11.99 21.74C17.37 21.74 21.74 17.37 21.74 11.99C21.74 11.26 21.66 10.53 21.5 9.82L21.51 9.83Z" fill="black"/>
<path d="M9.5 12.75C10.74 12.75 11.75 11.74 11.75 10.5C11.75 9.26 10.74 8.25 9.5 8.25H8C7.59 8.25 7.25 8.59 7.25 9C7.25 9.41 7.59 9.75 8 9.75H9.5C9.91 9.75 10.25 10.09 10.25 10.5C10.25 10.91 9.91 11.25 9.5 11.25C8.26 11.25 7.25 12.26 7.25 13.5C7.25 14.74 8.26 15.75 9.5 15.75H11C11.41 15.75 11.75 15.41 11.75 15C11.75 14.59 11.41 14.25 11 14.25H9.5C9.09 14.25 8.75 13.91 8.75 13.5C8.75 13.09 9.09 12.75 9.5 12.75Z" fill="black"/>
<path d="M16 15.75C16.41 15.75 16.75 15.41 16.75 15V9C16.75 8.59 16.41 8.25 16 8.25C15.59 8.25 15.25 8.59 15.25 9V11.25H14.5C14.09 11.25 13.75 10.91 13.75 10.5V9C13.75 8.59 13.41 8.25 13 8.25C12.59 8.25 12.25 8.59 12.25 9V10.5C12.25 11.74 13.26 12.75 14.5 12.75H15.25V15C15.25 15.41 15.59 15.75 16 15.75Z" fill="black"/>
</svg>
