<svg width="24" height="24" viewBox="0 0 24 24" fill="none" xmlns="http://www.w3.org/2000/svg">
<path d="M20.1899 7.65067C19.4799 6.76067 18.4099 6.25067 17.2699 6.25067H6.98994L6.94994 6.03067C6.76994 5.04067 6.06994 4.23067 5.10994 3.91067L3.22994 3.28067C2.82994 3.15067 2.40994 3.36067 2.27994 3.75067C2.14994 4.14067 2.35994 4.57067 2.74994 4.70067L4.62994 5.33067C5.05994 5.47067 5.37994 5.84067 5.45994 6.29067L6.64994 12.8407C7.05994 15.1007 9.02993 16.7407 11.3199 16.7407H15.7699C18.0099 16.7407 19.9199 15.2107 20.4099 13.0207L20.8999 10.8007C21.1499 9.68067 20.8799 8.53067 20.1599 7.64067L20.1899 7.65067ZM19.4599 10.4807L18.9699 12.7007C18.6399 14.2007 17.3299 15.2407 15.7999 15.2407H11.3499C9.77994 15.2407 8.42994 14.1207 8.14994 12.5707L7.26994 7.74067H17.2699C17.9599 7.74067 18.5999 8.05067 19.0199 8.58067C19.4499 9.11067 19.6099 9.81067 19.4599 10.4807Z" fill="black"/>
<path d="M9.49994 17.2507C8.25994 17.2507 7.24994 18.2607 7.24994 19.5007C7.24994 20.7407 8.25994 21.7507 9.49994 21.7507C10.7399 21.7507 11.7499 20.7407 11.7499 19.5007C11.7499 18.2607 10.7399 17.2507 9.49994 17.2507ZM9.49994 20.2507C9.08994 20.2507 8.74994 19.9107 8.74994 19.5007C8.74994 19.0907 9.08994 18.7507 9.49994 18.7507C9.90993 18.7507 10.2499 19.0907 10.2499 19.5007C10.2499 19.9107 9.90993 20.2507 9.49994 20.2507Z" fill="black"/>
<path d="M17.4999 17.2507C16.2599 17.2507 15.2499 18.2607 15.2499 19.5007C15.2499 20.7407 16.2599 21.7507 17.4999 21.7507C18.7399 21.7507 19.7499 20.7407 19.7499 19.5007C19.7499 18.2607 18.7399 17.2507 17.4999 17.2507ZM17.4999 20.2507C17.0899 20.2507 16.7499 19.9107 16.7499 19.5007C16.7499 19.0907 17.0899 18.7507 17.4999 18.7507C17.9099 18.7507 18.2499 19.0907 18.2499 19.5007C18.2499 19.9107 17.9099 20.2507 17.4999 20.2507Z" fill="black"/>
</svg>
