<svg width="24" height="24" viewBox="0 0 24 24" fill="none" xmlns="http://www.w3.org/2000/svg">
<path d="M20.75 9.75H21C21.41 9.75 21.75 9.41 21.75 9V7C21.75 6.88 21.72 6.77 21.67 6.66L20.5 4.32C19.86 3.04 18.58 2.25 17.15 2.25H6.85C5.42 2.25 4.14 3.04 3.5 4.32L2.33 6.66C2.28 6.76 2.25 6.88 2.25 7V9C2.25 9.41 2.59 9.75 3 9.75H3.25V20.25H3C2.59 20.25 2.25 20.59 2.25 21C2.25 21.41 2.59 21.75 3 21.75H21C21.41 21.75 21.75 21.41 21.75 21C21.75 20.59 21.41 20.25 21 20.25H20.75V9.75ZM19.25 14.25H10.75V9.75H19.25V14.25ZM3.75 7.18L4.84 5C5.22 4.23 5.99 3.76 6.85 3.76H17.14C18 3.76 18.77 4.24 19.15 5L20.24 7.18V8.25H3.75V7.18ZM4.75 9.75H9.25V20.25H4.75V9.75ZM10.75 20.25V15.75H19.25V20.25H10.75Z" fill="black"/>
</svg>
