<svg width="24" height="24" viewBox="0 0 24 24" fill="none" xmlns="http://www.w3.org/2000/svg">
<path d="M20 16.25H19.75V13C19.75 12.59 19.41 12.25 19 12.25C18.59 12.25 18.25 12.59 18.25 13V16.25H14.71C14.05 16.25 13.44 16.51 12.97 16.97C12.79 17.15 12.55 17.25 12.29 17.25H10.7C10.44 17.25 10.2 17.15 10.02 16.97C9.56 16.51 8.94 16.25 8.28 16.25H4.74V9C4.74 8.31 5.3 7.75 5.99 7.75H10.99C11.4 7.75 11.74 7.41 11.74 7C11.74 6.59 11.4 6.25 10.99 6.25H6C4.48 6.25 3.25 7.48 3.25 9V16.25H3C2.59 16.25 2.25 16.59 2.25 17V19C2.25 19.96 3.04 20.75 4 20.75H19C19.96 20.75 20.75 19.96 20.75 19V17C20.75 16.59 20.41 16.25 20 16.25ZM19.25 19C19.25 19.14 19.14 19.25 19 19.25H4C3.86 19.25 3.75 19.14 3.75 19V17.75H8.29C8.55 17.75 8.79 17.85 8.97 18.03C9.43 18.49 10.05 18.75 10.71 18.75H12.3C12.96 18.75 13.57 18.49 14.04 18.03C14.22 17.85 14.46 17.75 14.72 17.75H19.26V19H19.25Z" fill="black"/>
<path d="M21.59 5.54C21.45 5.36 21.23 5.25 21 5.25H20.75V4C20.75 3.59 20.41 3.25 20 3.25C19.59 3.25 19.25 3.59 19.25 4V5.25H15.75V4C15.75 3.59 15.41 3.25 15 3.25C14.59 3.25 14.25 3.59 14.25 4V5.25H14C13.77 5.25 13.55 5.36 13.41 5.54C13.27 5.72 13.22 5.96 13.27 6.18L13.89 8.67C14.2 9.9 15.29 10.75 16.56 10.75H18.44C19.7 10.75 20.8 9.89 21.11 8.67L21.73 6.19C21.79 5.97 21.73 5.73 21.59 5.55V5.54ZM19.65 8.3C19.51 8.86 19.01 9.25 18.44 9.25H16.56C15.99 9.25 15.49 8.86 15.35 8.3L14.96 6.75H20.04L19.65 8.3Z" fill="black"/>
</svg>
