<svg width="24" height="24" viewBox="0 0 24 24" fill="none" xmlns="http://www.w3.org/2000/svg">
<path d="M20.75 9.21975C20.75 8.19975 20.54 7.20975 20.11 6.25975L19.25 4.40975C18.64 3.08975 17.3 2.23975 15.85 2.23975H8.14999C6.69999 2.23975 5.35999 3.08975 4.74999 4.40975L3.87999 6.26975C3.45999 7.20975 3.23999 8.19975 3.23999 9.21975V10.9997C3.23999 11.1097 3.26999 11.2097 3.30999 11.3097C3.27999 11.5397 3.23999 11.7597 3.23999 11.9997V16.9997C3.23999 19.6197 5.36999 21.7497 7.98999 21.7497H15.99C18.61 21.7497 20.74 19.6197 20.74 16.9997V11.9997C20.74 11.7597 20.7 11.5397 20.67 11.3097C20.71 11.2197 20.74 11.1097 20.74 10.9997V9.21975H20.75ZM17.89 5.04975L18.75 6.88975C18.99 7.40975 19.14 7.95975 19.21 8.51975C18.36 7.73975 17.25 7.25975 16.01 7.25975H12.76V3.74975H15.86C16.73 3.74975 17.53 4.25975 17.9 5.04975H17.89ZM6.10999 5.04975C6.47999 4.25975 7.27999 3.74975 8.14999 3.74975H11.25V7.24975H7.99999C6.75999 7.24975 5.63999 7.73975 4.79999 8.50975C4.86999 7.94975 5.01999 7.40975 5.24999 6.88975L6.10999 5.03975V5.04975ZM19.25 16.9997C19.25 18.7897 17.79 20.2497 16 20.2497H7.99999C6.20999 20.2497 4.74999 18.7897 4.74999 16.9997V11.9997C4.74999 10.2097 6.20999 8.74975 7.99999 8.74975H16C17.79 8.74975 19.25 10.2097 19.25 11.9997V16.9997Z" fill="black"/>
<path d="M9.99999 17.2497H6.99999C6.58999 17.2497 6.24999 17.5897 6.24999 17.9997C6.24999 18.4097 6.58999 18.7497 6.99999 18.7497H9.99999C10.41 18.7497 10.75 18.4097 10.75 17.9997C10.75 17.5897 10.41 17.2497 9.99999 17.2497Z" fill="black"/>
</svg>
