<svg width="24" height="24" viewBox="0 0 24 24" fill="none" xmlns="http://www.w3.org/2000/svg">
<path d="M18.8801 8.8C18.7801 7.37 17.5701 6.25 16.1401 6.25H7.86006C6.42006 6.25 5.22006 7.37 5.12006 8.8L4.56006 16.66C4.47006 17.97 4.93006 19.27 5.82006 20.24C6.72006 21.2 7.98006 21.75 9.30006 21.75H14.7101C16.0201 21.75 17.2901 21.2 18.1901 20.24C19.0901 19.28 19.5401 17.98 19.4501 16.66L18.8901 8.8H18.8801Z" fill="black"/>
<path d="M12.0001 3.75C12.7801 3.75 13.4601 4.15 13.8701 4.75H15.5201C15.0001 3.3 13.6301 2.25 12.0001 2.25C10.3701 2.25 9.00006 3.3 8.48006 4.75H10.1301C10.5301 4.15 11.2201 3.75 12.0001 3.75Z" fill="black"/>
</svg>
