<svg width="24" height="24" viewBox="0 0 24 24" fill="none" xmlns="http://www.w3.org/2000/svg">
<path d="M21.7201 20.8L17.9501 7.17C17.6401 6.04 16.5901 5.25 15.4001 5.25C15.3601 5.25 15.3301 5.27 15.2901 5.27C15.2201 5.27 15.1601 5.25 15.0901 5.25H8.47008C7.43008 5.25 6.50008 5.95 6.22008 6.96L3.21008 17.79L2.28008 20.78C2.16008 21.18 2.38008 21.6 2.77008 21.72C2.84008 21.74 2.92008 21.75 2.99008 21.75C3.31008 21.75 3.61008 21.54 3.71008 21.22L4.48008 18.75H12.4201L11.9601 20.59C11.8601 20.99 12.1001 21.4 12.5101 21.5C12.5701 21.52 12.6301 21.52 12.6901 21.52C13.0301 21.52 13.3301 21.29 13.4201 20.95L14.1101 18.18C14.1401 18.05 14.1301 17.93 14.1001 17.81L16.7201 8.36L20.2801 21.2C20.3701 21.53 20.6701 21.75 21.0001 21.75C21.0701 21.75 21.1301 21.75 21.2001 21.72C21.6001 21.61 21.8301 21.2 21.7201 20.8ZM9.00008 9.25H12.0001C12.4101 9.25 12.7501 9.59 12.7501 10C12.7501 10.41 12.4101 10.75 12.0001 10.75H9.00008C8.59008 10.75 8.25008 10.41 8.25008 10C8.25008 9.59 8.59008 9.25 9.00008 9.25ZM8.00008 13.75C7.59008 13.75 7.25008 13.41 7.25008 13C7.25008 12.59 7.59008 12.25 8.00008 12.25H12.0001C12.4101 12.25 12.7501 12.59 12.7501 13C12.7501 13.41 12.4101 13.75 12.0001 13.75H8.00008Z" fill="black"/>
</svg>
