<svg width="24" height="24" viewBox="0 0 24 24" fill="none" xmlns="http://www.w3.org/2000/svg">
<path d="M19.43 10.5495C18.77 7.52949 17.21 5.38949 16.02 4.11949C15.52 3.58949 14.8 3.41949 14.13 3.67949C13.46 3.92949 13.01 4.56949 12.99 5.28949C12.98 5.76949 12.94 6.26949 12.87 6.75949C12.66 8.30949 12.18 9.81949 11.44 11.2395C11.38 11.3495 11.28 11.3695 11.22 11.3695C11.17 11.3695 11.07 11.3595 11.01 11.2495C10.84 10.9395 10.65 10.6095 10.42 10.2795C9.96999 9.62949 9.45999 9.02949 8.88999 8.48949C8.44999 8.07949 7.83999 7.91949 7.25999 8.05949C6.68999 8.19949 6.22999 8.60949 6.03999 9.16949C5.57999 10.4895 5.31999 11.8595 5.24999 13.2395C5.21999 13.7795 5.22999 14.3295 5.26999 14.8795C5.52999 18.7195 8.62999 21.7295 12.4 21.7395H12.69C16.18 21.6295 19.09 18.9695 19.6 15.4195C19.83 13.7795 19.77 12.1395 19.42 10.5395L19.43 10.5495ZM18.12 15.2095C17.71 18.0395 15.41 20.1595 12.65 20.2395H12.33C9.41999 20.2395 6.97999 17.8395 6.76999 14.7895C6.73999 14.2995 6.72999 13.7995 6.74999 13.3195C6.80999 12.0795 7.04999 10.8495 7.45999 9.66949C7.48999 9.57949 7.56999 9.53949 7.61999 9.52949C7.62999 9.52949 7.65999 9.52949 7.68999 9.52949C7.73999 9.52949 7.80999 9.53949 7.86999 9.59949C8.35999 10.0595 8.80999 10.5795 9.18999 11.1395C9.37999 11.4195 9.54999 11.6995 9.69999 11.9695C10.01 12.5295 10.57 12.8395 11.24 12.8695C11.89 12.8695 12.48 12.4995 12.78 11.9295C13.6 10.3595 14.13 8.67949 14.36 6.95949C14.43 6.41949 14.48 5.86949 14.49 5.32949C14.49 5.16949 14.6 5.10949 14.66 5.07949C14.76 5.03949 14.85 5.05949 14.92 5.13949C15.98 6.26949 17.37 8.17949 17.96 10.8695C18.27 12.2895 18.33 13.7495 18.12 15.2095Z" fill="black"/>
</svg>
