<svg width="24" height="24" viewBox="0 0 24 24" fill="none" xmlns="http://www.w3.org/2000/svg">
<path d="M20.0199 9.5402C19.7199 9.4302 19.4899 9.2202 19.3699 8.9202C19.2499 8.6302 19.2599 8.3102 19.3899 8.0302C19.8699 7.0202 19.6699 5.8602 18.8799 5.0702C18.0899 4.2802 16.9299 4.0802 15.9299 4.5602C15.6399 4.7002 15.3299 4.7002 15.0399 4.5802C14.7499 4.4602 14.5299 4.2302 14.4199 3.9302C14.0499 2.8802 13.0899 2.2002 11.9699 2.2002C10.8599 2.2002 9.88993 2.8802 9.51993 3.9302C9.40993 4.2302 9.19993 4.4602 8.89993 4.5802C8.60993 4.7002 8.28993 4.6902 8.00993 4.5602C6.99993 4.0802 5.83993 4.2802 5.04993 5.0702C4.25993 5.8602 4.05993 7.0202 4.53993 8.0202C4.66993 8.3102 4.67993 8.6202 4.55993 8.9102C4.43993 9.2002 4.20993 9.4202 3.90993 9.5302C2.85993 9.9002 2.17993 10.8602 2.17993 11.9802C2.17993 13.0902 2.85993 14.0602 3.90993 14.4302C4.20993 14.5402 4.43993 14.7502 4.55993 15.0502C4.67993 15.3402 4.66993 15.6602 4.53993 15.9402C4.05993 16.9502 4.25993 18.1102 5.04993 18.9002C5.83993 19.6902 6.99993 19.8902 7.99993 19.4102C8.28993 19.2702 8.59993 19.2702 8.88993 19.3902C9.17993 19.5102 9.39993 19.7402 9.50993 20.0402C9.87993 21.0902 10.8399 21.7702 11.9599 21.7702C13.0699 21.7702 14.0399 21.0902 14.4099 20.0402C14.5199 19.7402 14.7399 19.5102 15.0299 19.3902C15.3199 19.2702 15.6399 19.2802 15.9199 19.4102C16.9299 19.8902 18.0899 19.6902 18.8799 18.9002C19.6699 18.1102 19.8699 16.9502 19.3899 15.9502C19.2499 15.6602 19.2499 15.3502 19.3699 15.0602C19.4899 14.7702 19.7199 14.5502 20.0199 14.4402C21.0699 14.0702 21.7499 13.1102 21.7499 11.9902C21.7499 10.8802 21.0699 9.9102 20.0199 9.5402ZM12.7499 15.7202V16.0002C12.7499 16.4102 12.4099 16.7502 11.9999 16.7502C11.5899 16.7502 11.2499 16.4102 11.2499 16.0002V15.5602C11.0599 15.5102 10.8699 15.4602 10.6899 15.3802C10.3099 15.2102 10.1499 14.7602 10.3199 14.3902C10.4899 14.0202 10.9399 13.8502 11.3099 14.0202C11.6499 14.1802 12.0399 14.2602 12.4099 14.2602C12.9099 14.2602 13.2499 13.9202 13.2499 13.5102C13.2499 13.1002 12.9099 12.7602 12.4999 12.7602H11.4999C10.2599 12.7602 9.24993 11.7502 9.24993 10.5102C9.24993 9.3502 10.1299 8.4102 11.2499 8.2902V8.0102C11.2499 7.6002 11.5899 7.2602 11.9999 7.2602C12.4099 7.2602 12.7499 7.6002 12.7499 8.0102V8.4502C12.9399 8.5002 13.1299 8.5502 13.3099 8.6302C13.6899 8.8002 13.8499 9.2502 13.6799 9.6202C13.5099 10.0002 13.0599 10.1602 12.6899 9.9902C12.3499 9.8302 11.9599 9.7502 11.5899 9.7502C11.0899 9.7502 10.7499 10.0902 10.7499 10.5002C10.7499 10.9102 11.0899 11.2502 11.4999 11.2502H12.4999C13.7399 11.2502 14.7499 12.2602 14.7499 13.5002C14.7499 14.6602 13.8699 15.6002 12.7499 15.7202Z" fill="black"/>
</svg>
