<svg width="24" height="24" viewBox="0 0 24 24" fill="none" xmlns="http://www.w3.org/2000/svg">
<path d="M19 3.25H16.24C15.25 3.25 14.29 3.65 13.59 4.35L12.18 5.76C12.05 5.89 11.95 5.89 11.83 5.76L10.42 4.35C9.72001 3.65 8.76001 3.25 7.77001 3.25H5.01001C3.49001 3.25 2.26001 4.48 2.26001 6V18C2.26001 19.52 3.49001 20.75 5.01001 20.75H15C18.72 20.75 21.75 17.72 21.75 14V6C21.75 4.48 20.52 3.25 19 3.25ZM16.58 9.48L11.58 15.48C11.45 15.64 11.25 15.74 11.04 15.75C11.03 15.75 11.02 15.75 11.01 15.75C10.81 15.75 10.62 15.67 10.48 15.53L7.48001 12.53C7.19001 12.24 7.19001 11.76 7.48001 11.47C7.77001 11.18 8.25001 11.18 8.54001 11.47L10.96 13.89L15.43 8.52C15.7 8.2 16.17 8.16 16.49 8.42C16.81 8.69 16.85 9.16 16.59 9.48H16.58Z" fill="black"/>
</svg>
