<svg width="24" height="24" viewBox="0 0 24 24" fill="none" xmlns="http://www.w3.org/2000/svg">
<path d="M11.25 5.75023V2.25023H8.15C6.7 2.25023 5.36 3.10023 4.75 4.42023L3.88 6.28023C3.66 6.77023 3.5 7.28023 3.39 7.79023C4.53 6.54023 6.17 5.76023 7.99 5.76023H11.24L11.25 5.75023Z" fill="black"/>
<path d="M20.6 7.78023C20.49 7.26023 20.33 6.75023 20.11 6.26023L19.25 4.41023C18.64 3.09023 17.3 2.24023 15.85 2.24023H12.75V5.74023H16C17.82 5.74023 19.46 6.53023 20.6 7.77023V7.78023Z" fill="black"/>
<path d="M16 7.25023H8C5.38 7.25023 3.25 9.38023 3.25 12.0002V17.0002C3.25 19.6202 5.38 21.7502 8 21.7502H16C18.62 21.7502 20.75 19.6202 20.75 17.0002V12.0002C20.75 9.38023 18.62 7.25023 16 7.25023ZM10 18.7502H7C6.59 18.7502 6.25 18.4102 6.25 18.0002C6.25 17.5902 6.59 17.2502 7 17.2502H10C10.41 17.2502 10.75 17.5902 10.75 18.0002C10.75 18.4102 10.41 18.7502 10 18.7502Z" fill="black"/>
</svg>
