<svg width="24" height="24" viewBox="0 0 24 24" fill="none" xmlns="http://www.w3.org/2000/svg">
<path d="M20.0199 9.5402C19.7199 9.4302 19.4899 9.2202 19.3699 8.9202C19.2499 8.6302 19.2599 8.3102 19.3899 8.0302C19.8699 7.0202 19.6699 5.8602 18.8799 5.0702C18.0899 4.2802 16.9299 4.0802 15.9299 4.5602C15.6399 4.7002 15.3299 4.7002 15.0399 4.5802C14.7499 4.4602 14.5299 4.2302 14.4199 3.9302C14.0499 2.8802 13.0899 2.2002 11.9699 2.2002C10.8599 2.2002 9.88993 2.8802 9.51993 3.9302C9.40993 4.2302 9.19993 4.4602 8.89993 4.5802C8.60993 4.7002 8.28993 4.6902 8.00993 4.5602C6.99993 4.0802 5.83993 4.2802 5.04993 5.0702C4.25993 5.8602 4.05993 7.0202 4.53993 8.0202C4.66993 8.3102 4.67993 8.6202 4.55993 8.9102C4.43993 9.2002 4.20993 9.4202 3.90993 9.5302C2.85993 9.9002 2.17993 10.8602 2.17993 11.9802C2.17993 13.0902 2.85993 14.0602 3.90993 14.4302C4.20993 14.5402 4.43993 14.7502 4.55993 15.0502C4.67993 15.3402 4.66993 15.6602 4.53993 15.9402C4.05993 16.9502 4.25993 18.1102 5.04993 18.9002C5.83993 19.6902 6.99993 19.8902 7.99993 19.4102C8.28993 19.2702 8.59993 19.2702 8.88993 19.3902C9.17993 19.5102 9.39993 19.7402 9.50993 20.0402C9.87993 21.0902 10.8399 21.7702 11.9599 21.7702C13.0699 21.7702 14.0399 21.0902 14.4099 20.0402C14.5199 19.7402 14.7399 19.5102 15.0299 19.3902C15.3199 19.2702 15.6399 19.2802 15.9199 19.4102C16.9299 19.8902 18.0899 19.6902 18.8799 18.9002C19.6699 18.1102 19.8699 16.9502 19.3899 15.9502C19.2499 15.6602 19.2499 15.3502 19.3699 15.0602C19.4899 14.7702 19.7199 14.5502 20.0199 14.4402C21.0699 14.0702 21.7499 13.1102 21.7499 11.9902C21.7499 10.8802 21.0699 9.9102 20.0199 9.5402ZM19.5199 13.0302C18.8299 13.2802 18.2699 13.8102 17.9899 14.4802C17.7099 15.1602 17.7299 15.9302 18.0399 16.5902C18.2899 17.1102 18.0899 17.5702 17.8199 17.8402C17.5499 18.1102 17.0799 18.3002 16.5699 18.0502C15.9099 17.7302 15.1399 17.7102 14.4599 17.9902C13.7799 18.2702 13.2499 18.8302 12.9999 19.5202C12.8099 20.0602 12.3399 20.2502 11.9599 20.2502C11.5799 20.2502 11.1199 20.0602 10.9199 19.5202C10.6699 18.8302 10.1399 18.2702 9.45993 17.9902C9.13993 17.8602 8.79993 17.7902 8.45993 17.7902C8.07993 17.7902 7.69993 17.8702 7.34993 18.0402C6.82993 18.2902 6.36993 18.0902 6.09993 17.8202C5.82993 17.5502 5.63993 17.0902 5.87993 16.5702C6.19993 15.9102 6.21993 15.1402 5.93993 14.4602C5.65993 13.7802 5.09993 13.2502 4.40993 13.0002C3.86993 12.8102 3.67993 12.3402 3.67993 11.9602C3.67993 11.5802 3.86993 11.1202 4.40993 10.9202C5.09993 10.6702 5.65993 10.1402 5.93993 9.4702C6.21993 8.7902 6.19993 8.0202 5.88993 7.3602C5.63993 6.8402 5.83993 6.3802 6.10993 6.1102C6.36993 5.8402 6.83993 5.6502 7.35993 5.8902C8.01993 6.2002 8.78993 6.2302 9.46993 5.9402C10.1499 5.6602 10.6799 5.1002 10.9299 4.4102C11.1199 3.8702 11.5899 3.6802 11.9699 3.6802C12.3499 3.6802 12.8099 3.8702 13.0099 4.4102C13.2599 5.1002 13.7899 5.6602 14.4699 5.9402C15.1499 6.2202 15.9199 6.2002 16.5799 5.8902C17.0999 5.6402 17.5699 5.8402 17.8299 6.1102C18.0999 6.3802 18.2899 6.8402 18.0399 7.3602C17.7199 8.0202 17.7099 8.7902 17.9899 9.4702C18.2699 10.1502 18.8299 10.6802 19.5199 10.9202C20.0599 11.1102 20.2499 11.5802 20.2499 11.9602C20.2499 12.3402 20.0599 12.8002 19.5199 13.0002V13.0302Z" fill="black"/>
<path d="M12.4999 11.2502H11.4999C11.0899 11.2502 10.7499 10.9102 10.7499 10.5002C10.7499 10.0902 11.0899 9.7502 11.5899 9.7502C11.9699 9.7502 12.3499 9.8302 12.6899 9.9902C13.0599 10.1602 13.5099 9.9902 13.6799 9.6202C13.8499 9.2402 13.6799 8.8002 13.3099 8.6302C13.1299 8.5502 12.9399 8.5002 12.7499 8.4502V8.0102C12.7499 7.6002 12.4099 7.2602 11.9999 7.2602C11.5899 7.2602 11.2499 7.6002 11.2499 8.0102V8.2902C10.1299 8.4202 9.24993 9.3602 9.24993 10.5102C9.24993 11.7502 10.2599 12.7602 11.4999 12.7602H12.4999C12.9099 12.7602 13.2499 13.1002 13.2499 13.5102C13.2499 13.9202 12.9099 14.2602 12.4099 14.2602C12.0299 14.2602 11.6499 14.1802 11.3099 14.0202C10.9399 13.8502 10.4899 14.0202 10.3199 14.3902C10.1499 14.7602 10.3199 15.2102 10.6899 15.3802C10.8699 15.4602 11.0599 15.5102 11.2499 15.5602V16.0002C11.2499 16.4102 11.5899 16.7502 11.9999 16.7502C12.4099 16.7502 12.7499 16.4102 12.7499 16.0002V15.7202C13.8699 15.5902 14.7499 14.6502 14.7499 13.5002C14.7499 12.2602 13.7399 11.2502 12.4999 11.2502Z" fill="black"/>
</svg>
