<svg width="24" height="24" viewBox="0 0 24 24" fill="none" xmlns="http://www.w3.org/2000/svg">
<path d="M19.43 10.5495C18.77 7.52949 17.21 5.38949 16.02 4.11949C15.52 3.58949 14.8 3.41949 14.13 3.67949C13.46 3.92949 13.01 4.56949 12.99 5.28949C12.98 5.76949 12.94 6.26949 12.87 6.75949C12.66 8.30949 12.18 9.81949 11.44 11.2395C11.38 11.3495 11.28 11.3695 11.22 11.3695C11.17 11.3695 11.07 11.3595 11.01 11.2495C10.84 10.9395 10.65 10.6095 10.42 10.2795C9.96999 9.62949 9.45999 9.02949 8.88999 8.48949C8.44999 8.07949 7.83999 7.91949 7.25999 8.05949C6.68999 8.19949 6.22999 8.60949 6.03999 9.16949C5.57999 10.4895 5.31999 11.8595 5.24999 13.2395C5.21999 13.7795 5.22999 14.3295 5.26999 14.8795C5.52999 18.7195 8.62999 21.7295 12.4 21.7395H12.69C16.18 21.6295 19.09 18.9695 19.6 15.4195C19.83 13.7795 19.77 12.1395 19.42 10.5395L19.43 10.5495Z" fill="black"/>
</svg>
