<svg width="24" height="24" viewBox="0 0 24 24" fill="none" xmlns="http://www.w3.org/2000/svg">
<path d="M16.5001 8.25013C16.9143 8.25013 17.2501 7.91434 17.2501 7.50013C17.2501 7.08592 16.9143 6.75013 16.5001 6.75013C16.0859 6.75013 15.7501 7.08592 15.7501 7.50013C15.7501 7.91434 16.0859 8.25013 16.5001 8.25013Z" fill="black"/>
<path d="M20.9201 3.42013C20.3801 2.87013 19.6501 2.56013 18.8701 2.60013L14.3201 2.73013C13.6301 2.75013 12.9701 3.03013 12.4701 3.51013L2.79008 12.9601C2.06008 13.6701 2.02008 14.8201 2.70008 15.5201L8.39008 21.3501C8.72008 21.6801 9.15008 21.8701 9.63008 21.8701H9.68008C10.1501 21.8601 10.6001 21.6601 10.9501 21.3301L20.6301 11.8801C21.1301 11.4001 21.4201 10.7501 21.4601 10.0501L21.6901 5.50013C21.7301 4.71013 21.4601 3.98013 20.9201 3.43013V3.42013ZM16.5001 9.75013C15.2601 9.75013 14.2501 8.74013 14.2501 7.50013C14.2501 6.26013 15.2601 5.25013 16.5001 5.25013C17.7401 5.25013 18.7501 6.26013 18.7501 7.50013C18.7501 8.74013 17.7401 9.75013 16.5001 9.75013Z" fill="black"/>
</svg>
