<svg width="24" height="24" viewBox="0 0 24 24" fill="none" xmlns="http://www.w3.org/2000/svg">
<path d="M16 2.25H8C5.38 2.25 3.25 4.38 3.25 7V19.38C3.25 19.99 3.56 20.55 4.08 20.87C4.6 21.19 5.24 21.22 5.78 20.95L7.88 19.9C7.95 19.86 8.03 19.86 8.1 19.9L11.21 21.45C11.46 21.57 11.72 21.63 11.99 21.63C12.26 21.63 12.53 21.57 12.77 21.45L15.87 19.9C15.94 19.86 16.02 19.86 16.09 19.9L18.2 20.95C18.75 21.22 19.38 21.19 19.9 20.87C20.42 20.55 20.73 19.99 20.73 19.38V7C20.73 4.38 18.6 2.25 15.98 2.25H16ZM19.25 19.38C19.25 19.5 19.18 19.57 19.13 19.59C19.09 19.62 18.99 19.65 18.89 19.6L16.78 18.55C16.29 18.3 15.71 18.31 15.22 18.55L12.12 20.1C12.05 20.14 11.97 20.14 11.9 20.1L8.79 18.55C8.55 18.43 8.28 18.37 8.01 18.37C7.74 18.37 7.47 18.43 7.23 18.55L5.12 19.6C5.01 19.65 4.92 19.62 4.88 19.59C4.84 19.56 4.76 19.5 4.76 19.38V7C4.76 5.21 6.22 3.75 8.01 3.75H16.01C17.8 3.75 19.26 5.21 19.26 7V19.38H19.25Z" fill="black"/>
<path d="M13 6.25H8C7.59 6.25 7.25 6.59 7.25 7C7.25 7.41 7.59 7.75 8 7.75H13C13.41 7.75 13.75 7.41 13.75 7C13.75 6.59 13.41 6.25 13 6.25Z" fill="black"/>
<path d="M16.02 6.25H16.01C15.6 6.25 15.27 6.59 15.27 7C15.27 7.41 15.61 7.75 16.02 7.75C16.43 7.75 16.77 7.41 16.77 7C16.77 6.59 16.43 6.25 16.02 6.25Z" fill="black"/>
<path d="M13 10.25H8C7.59 10.25 7.25 10.59 7.25 11C7.25 11.41 7.59 11.75 8 11.75H13C13.41 11.75 13.75 11.41 13.75 11C13.75 10.59 13.41 10.25 13 10.25Z" fill="black"/>
<path d="M16.02 10.25H16.01C15.6 10.25 15.27 10.59 15.27 11C15.27 11.41 15.61 11.75 16.02 11.75C16.43 11.75 16.77 11.41 16.77 11C16.77 10.59 16.43 10.25 16.02 10.25Z" fill="black"/>
<path d="M13 14.25H8C7.59 14.25 7.25 14.59 7.25 15C7.25 15.41 7.59 15.75 8 15.75H13C13.41 15.75 13.75 15.41 13.75 15C13.75 14.59 13.41 14.25 13 14.25Z" fill="black"/>
<path d="M16.02 14.25H16.01C15.6 14.25 15.27 14.59 15.27 15C15.27 15.41 15.61 15.75 16.02 15.75C16.43 15.75 16.77 15.41 16.77 15C16.77 14.59 16.43 14.25 16.02 14.25Z" fill="black"/>
</svg>
