<svg width="24" height="24" viewBox="0 0 24 24" fill="none" xmlns="http://www.w3.org/2000/svg">
<path d="M19 3.25H16.24C15.25 3.25 14.29 3.65 13.59 4.35L12.18 5.76C12.05 5.89 11.95 5.89 11.83 5.76L10.42 4.35C9.72001 3.65 8.76001 3.25 7.77001 3.25H5.01001C3.49001 3.25 2.26001 4.48 2.26001 6V18C2.26001 19.52 3.49001 20.75 5.01001 20.75H15C18.72 20.75 21.75 17.72 21.75 14V6C21.75 4.48 20.52 3.25 19 3.25ZM20.25 14C20.25 16.89 17.89 19.25 15 19.25H5.00001C4.31001 19.25 3.75001 18.69 3.75001 18V6C3.75001 5.31 4.31001 4.75 5.00001 4.75H7.76001C8.35001 4.75 8.93001 4.99 9.35001 5.41L10.76 6.82C11.42 7.48 12.57 7.48 13.23 6.82L14.64 5.41C15.06 4.99 15.64 4.75 16.23 4.75H18.99C19.68 4.75 20.24 5.31 20.24 6V14H20.25Z" fill="black"/>
<path d="M15.42 8.52L10.95 13.89L8.53001 11.47C8.24001 11.18 7.76001 11.18 7.47001 11.47C7.18001 11.76 7.18001 12.24 7.47001 12.53L10.47 15.53C10.61 15.67 10.8 15.75 11 15.75C11.01 15.75 11.02 15.75 11.03 15.75C11.24 15.75 11.44 15.64 11.57 15.48L16.57 9.48C16.84 9.16 16.79 8.69 16.47 8.42C16.15 8.15 15.68 8.2 15.41 8.52H15.42Z" fill="black"/>
</svg>
