<svg width="24" height="24" viewBox="0 0 24 24" fill="none" xmlns="http://www.w3.org/2000/svg">
<path d="M20.1899 7.65067C19.4799 6.76067 18.4099 6.25067 17.2699 6.25067H6.98994L6.94994 6.03067C6.76994 5.04067 6.06994 4.23067 5.10994 3.91067L3.22994 3.28067C2.82994 3.15067 2.40994 3.36067 2.27994 3.75067C2.14994 4.14067 2.35994 4.57067 2.74994 4.70067L4.62994 5.33067C5.05994 5.47067 5.37994 5.84067 5.45994 6.29067L6.64994 12.8407C7.05994 15.1007 9.02993 16.7407 11.3199 16.7407H15.7699C18.0099 16.7407 19.9199 15.2107 20.4099 13.0207L20.8999 10.8007C21.1499 9.68067 20.8799 8.53067 20.1599 7.64067L20.1899 7.65067Z" fill="black"/>
<path d="M9.49994 21.7507C10.7426 21.7507 11.7499 20.7433 11.7499 19.5007C11.7499 18.258 10.7426 17.2507 9.49994 17.2507C8.25729 17.2507 7.24994 18.258 7.24994 19.5007C7.24994 20.7433 8.25729 21.7507 9.49994 21.7507Z" fill="black"/>
<path d="M17.4999 21.7507C18.7426 21.7507 19.7499 20.7433 19.7499 19.5007C19.7499 18.258 18.7426 17.2507 17.4999 17.2507C16.2573 17.2507 15.2499 18.258 15.2499 19.5007C15.2499 20.7433 16.2573 21.7507 17.4999 21.7507Z" fill="black"/>
</svg>
