<svg width="24" height="24" viewBox="0 0 24 24" fill="none" xmlns="http://www.w3.org/2000/svg">
<path d="M15 2.25H9C5.28 2.25 2.25 5.28 2.25 9V15C2.25 18.72 5.28 21.75 9 21.75H15C18.72 21.75 21.75 18.72 21.75 15V9C21.75 5.28 18.72 2.25 15 2.25ZM12 9.75C9.93 9.75 8.25 8.07 8.25 6C8.25 5.59 8.59 5.25 9 5.25C9.41 5.25 9.75 5.59 9.75 6C9.75 7.24 10.76 8.25 12 8.25C13.24 8.25 14.25 7.24 14.25 6C14.25 5.59 14.59 5.25 15 5.25C15.41 5.25 15.75 5.59 15.75 6C15.75 8.07 14.07 9.75 12 9.75Z" fill="black"/>
</svg>
