<svg width="24" height="24" viewBox="0 0 24 24" fill="none" xmlns="http://www.w3.org/2000/svg">
<path d="M20.5 9.25H19.75V6C19.75 4.48 18.52 3.25 17 3.25H15.7C15.58 2.68 15.1 2.25 14.5 2.25H9.5C8.9 2.25 8.42 2.68 8.3 3.25H7C5.48 3.25 4.25 4.48 4.25 6V9.25H3.5C2.81 9.25 2.25 9.81 2.25 10.5V12.5C2.25 13.13 2.73 13.63 3.33 13.72L4.03 19.34C4.2 20.71 5.37 21.75 6.76 21.75H17.23C18.61 21.75 19.79 20.71 19.96 19.34L20.66 13.72C21.27 13.64 21.74 13.13 21.74 12.5V10.5C21.74 9.81 21.18 9.25 20.49 9.25H20.5ZM18.84 16.25H16.35L16.66 13.75H19.15L18.84 16.25ZM4.85 13.75H7.34L7.65 16.25H5.16L4.85 13.75ZM8.85 13.75H11.25V16.25H9.16L8.85 13.75ZM11.25 17.75V20.25H9.66L9.35 17.75H11.25ZM12.75 17.75H14.65L14.34 20.25H12.75V17.75ZM12.75 16.25V13.75H15.15L14.84 16.25H12.75ZM9.75 3.75H14.25V4.25H9.75V3.75ZM5.75 6C5.75 5.31 6.31 4.75 7 4.75H8.3C8.42 5.32 8.9 5.75 9.5 5.75H14.5C15.1 5.75 15.58 5.32 15.7 4.75H17C17.69 4.75 18.25 5.31 18.25 6V9.25H5.75V6ZM3.75 10.75H20.25V12.25H3.75V10.75ZM5.53 19.15L5.35 17.75H7.84L8.15 20.25H6.77C6.14 20.25 5.61 19.78 5.53 19.15ZM17.24 20.25H15.86L16.17 17.75H18.66L18.48 19.16C18.4 19.78 17.87 20.25 17.24 20.25Z" fill="black"/>
</svg>
