<svg width="24" height="24" viewBox="0 0 24 24" fill="none" xmlns="http://www.w3.org/2000/svg">
<path d="M16 3.25H8C4.83 3.25 2.25 5.83 2.25 9V15C2.25 18.17 4.83 20.75 8 20.75H16C19.17 20.75 21.75 18.17 21.75 15V9C21.75 5.83 19.17 3.25 16 3.25ZM20.25 15C20.25 17.34 18.34 19.25 16 19.25H8C5.66 19.25 3.75 17.34 3.75 15V9C3.75 6.66 5.66 4.75 8 4.75H16C18.34 4.75 20.25 6.66 20.25 9V15Z" fill="black"/>
<path d="M16 11.25H15.75V10C15.75 9.59 15.41 9.25 15 9.25C14.59 9.25 14.25 9.59 14.25 10V11.25H9.75V10C9.75 9.59 9.41 9.25 9 9.25C8.59 9.25 8.25 9.59 8.25 10V11.25H8C7.78 11.25 7.56 11.35 7.42 11.52C7.28 11.69 7.22 11.92 7.26 12.14L7.94 15.53C8.2 16.81 9.33 17.74 10.64 17.74H13.36C14.67 17.74 15.8 16.81 16.06 15.53L16.74 12.14C16.78 11.92 16.73 11.69 16.58 11.52C16.43 11.35 16.22 11.25 16 11.25ZM14.59 15.25C14.47 15.83 13.96 16.25 13.36 16.25H10.64C10.05 16.25 9.53 15.83 9.41 15.25L8.91 12.75H15.08L14.58 15.25H14.59Z" fill="black"/>
<path d="M18.02 6.25C17.61 6.25 17.27 6.59 17.27 7C17.27 7.41 17.61 7.75 18.02 7.75C18.43 7.75 18.77 7.41 18.77 7C18.77 6.59 18.44 6.25 18.02 6.25Z" fill="black"/>
<path d="M16.02 6.25C15.61 6.25 15.27 6.59 15.27 7C15.27 7.41 15.61 7.75 16.02 7.75C16.43 7.75 16.77 7.41 16.77 7C16.77 6.59 16.44 6.25 16.02 6.25Z" fill="black"/>
<path d="M14.02 7.75C14.44 7.75 14.77 7.41 14.77 7C14.77 6.59 14.44 6.25 14.02 6.25C13.61 6.25 13.27 6.59 13.27 7C13.27 7.41 13.61 7.75 14.02 7.75Z" fill="black"/>
</svg>
