<svg width="24" height="24" viewBox="0 0 24 24" fill="none" xmlns="http://www.w3.org/2000/svg">
<path d="M18.8801 8.8C18.7801 7.37 17.5701 6.25 16.1401 6.25H15.7501V6C15.7501 3.93 14.0701 2.25 12.0001 2.25C9.93006 2.25 8.25006 3.93 8.25006 6V6.25H7.86006C6.42006 6.25 5.22006 7.37 5.12006 8.8L4.56006 16.66C4.47006 17.97 4.93006 19.27 5.82006 20.24C6.72006 21.2 7.98006 21.75 9.30006 21.75H14.7101C16.0201 21.75 17.2901 21.2 18.1901 20.24C19.0901 19.28 19.5401 17.98 19.4501 16.66L18.8901 8.8H18.8801ZM9.75006 6C9.75006 4.76 10.7601 3.75 12.0001 3.75C13.2401 3.75 14.2501 4.76 14.2501 6V6.25H9.75006V6ZM17.0801 19.21C16.4601 19.88 15.6101 20.25 14.7001 20.25H9.29006C8.38006 20.25 7.53006 19.88 6.91006 19.21C6.29006 18.54 5.98006 17.67 6.05006 16.76L6.61006 8.9C6.66006 8.25 7.20006 7.74 7.86006 7.74H8.25006V8.99C8.25006 9.4 8.59006 9.74 9.00006 9.74C9.41006 9.74 9.75006 9.4 9.75006 8.99V7.74H14.2501V8.99C14.2501 9.4 14.5901 9.74 15.0001 9.74C15.4101 9.74 15.7501 9.4 15.7501 8.99V7.74H16.1401C16.7901 7.74 17.3401 8.25 17.3901 8.9L17.9501 16.76C18.0101 17.67 17.7101 18.54 17.0901 19.21H17.0801Z" fill="black"/>
</svg>
