<svg width="24" height="24" viewBox="0 0 24 24" fill="none" xmlns="http://www.w3.org/2000/svg">
<path d="M15 2.25H9C5.28 2.25 2.25 5.28 2.25 9V15C2.25 18.72 5.28 21.75 9 21.75H15C18.72 21.75 21.75 18.72 21.75 15V9C21.75 5.28 18.72 2.25 15 2.25ZM20.25 15C20.25 17.9 17.9 20.25 15 20.25H9C6.1 20.25 3.75 17.9 3.75 15V9C3.75 6.1 6.1 3.75 9 3.75H15C17.9 3.75 20.25 6.1 20.25 9V15Z" fill="black"/>
<path d="M15 5.25C14.59 5.25 14.25 5.59 14.25 6C14.25 7.24 13.24 8.25 12 8.25C10.76 8.25 9.75 7.24 9.75 6C9.75 5.59 9.41 5.25 9 5.25C8.59 5.25 8.25 5.59 8.25 6C8.25 8.07 9.93 9.75 12 9.75C14.07 9.75 15.75 8.07 15.75 6C15.75 5.59 15.41 5.25 15 5.25Z" fill="black"/>
</svg>
