<svg width="24" height="24" viewBox="0 0 24 24" fill="none" xmlns="http://www.w3.org/2000/svg">
<path d="M19.59 7.54023C19.45 7.36023 19.23 7.25023 19 7.25023H18.75V6.00023C18.75 5.59023 18.41 5.25023 18 5.25023C17.59 5.25023 17.25 5.59023 17.25 6.00023V7.25023H13.75V6.00023C13.75 5.59023 13.41 5.25023 13 5.25023C12.59 5.25023 12.25 5.59023 12.25 6.00023V7.25023H12C11.77 7.25023 11.55 7.36023 11.41 7.54023C11.27 7.72023 11.22 7.96023 11.27 8.18023L11.89 10.6702C12.2 11.9002 13.29 12.7502 14.56 12.7502H16.44C17.7 12.7502 18.8 11.8902 19.11 10.6702L19.73 8.18023C19.79 7.96023 19.73 7.72023 19.59 7.54023Z" fill="black"/>
<path d="M14.56 14.2502C12.61 14.2502 10.91 12.9302 10.44 11.0302L9.82001 8.54023C9.65001 7.87023 9.80001 7.16023 10.23 6.61023C10.38 6.42023 10.56 6.25023 10.76 6.12023V5.99023C10.76 4.75023 11.77 3.74023 13.01 3.74023C14.17 3.74023 15.12 4.62023 15.25 5.74023H15.78C15.84 5.23023 16.07 4.77023 16.41 4.42023C15.81 3.13023 14.52 2.24023 13.01 2.24023H9.01001C6.94001 2.24023 5.26001 3.92023 5.26001 5.99023V17.9902C5.26001 20.0602 6.94001 21.7402 9.01001 21.7402H13.01C15.08 21.7402 16.76 20.0602 16.76 17.9902V14.2102C16.66 14.2102 16.55 14.2402 16.45 14.2402H14.57L14.56 14.2502ZM12 18.7502H10C9.59001 18.7502 9.25001 18.4102 9.25001 18.0002C9.25001 17.5902 9.59001 17.2502 10 17.2502H12C12.41 17.2502 12.75 17.5902 12.75 18.0002C12.75 18.4102 12.41 18.7502 12 18.7502Z" fill="black"/>
</svg>
