<svg width="24" height="24" viewBox="0 0 24 24" fill="none" xmlns="http://www.w3.org/2000/svg">
<path d="M19 8.25H17.75V7C17.75 6.86 17.86 6.75 18 6.75C18.96 6.75 19.75 5.96 19.75 5V4C19.75 3.04 18.96 2.25 18 2.25H13C12.04 2.25 11.25 3.04 11.25 4V5C11.25 5.96 12.04 6.75 13 6.75C13.14 6.75 13.25 6.86 13.25 7V8.25H6C4.48 8.25 3.25 9.48 3.25 11V13C3.25 14.52 4.48 15.75 6 15.75H13.25V17C13.25 17.14 13.14 17.25 13 17.25C12.04 17.25 11.25 18.04 11.25 19V20C11.25 20.96 12.04 21.75 13 21.75H18C18.96 21.75 19.75 20.96 19.75 20V19C19.75 18.04 18.96 17.25 18 17.25C17.86 17.25 17.75 17.14 17.75 17V15.75H19C20.52 15.75 21.75 14.52 21.75 13V11C21.75 9.48 20.52 8.25 19 8.25ZM6 14.25C5.31 14.25 4.75 13.69 4.75 13V11C4.75 10.31 5.31 9.75 6 9.75H13.25V14.25H6ZM18 18.75C18.14 18.75 18.25 18.86 18.25 19V20C18.25 20.14 18.14 20.25 18 20.25H13C12.86 20.25 12.75 20.14 12.75 20V19C12.75 18.86 12.86 18.75 13 18.75C13.96 18.75 14.75 17.96 14.75 17V7C14.75 6.04 13.96 5.25 13 5.25C12.86 5.25 12.75 5.14 12.75 5V4C12.75 3.86 12.86 3.75 13 3.75H18C18.14 3.75 18.25 3.86 18.25 4V5C18.25 5.14 18.14 5.25 18 5.25C17.04 5.25 16.25 6.04 16.25 7V17C16.25 17.96 17.04 18.75 18 18.75ZM20.25 13C20.25 13.69 19.69 14.25 19 14.25H17.75V9.75H19C19.69 9.75 20.25 10.31 20.25 11V13Z" fill="black"/>
<path d="M7.02 12.25C6.61 12.25 6.27 12.59 6.27 13C6.27 13.41 6.61 13.75 7.02 13.75C7.43 13.75 7.77 13.41 7.77 13C7.77 12.59 7.44 12.25 7.02 12.25Z" fill="black"/>
<path d="M9.02 12.25C8.61 12.25 8.27 12.59 8.27 13C8.27 13.41 8.61 13.75 9.02 13.75C9.43 13.75 9.77 13.41 9.77 13C9.77 12.59 9.44 12.25 9.02 12.25Z" fill="black"/>
<path d="M11.02 12.25C10.61 12.25 10.27 12.59 10.27 13C10.27 13.41 10.61 13.75 11.02 13.75C11.43 13.75 11.77 13.41 11.77 13C11.77 12.59 11.44 12.25 11.02 12.25Z" fill="black"/>
</svg>
