<svg width="24" height="24" viewBox="0 0 24 24" fill="none" xmlns="http://www.w3.org/2000/svg">
<path d="M3 12.75H9V12.94L8.47 13.47C8.18 13.76 8.18 14.24 8.47 14.53C8.62 14.68 8.81 14.75 9 14.75C9.19 14.75 9.38 14.68 9.53 14.53L11.53 12.53C11.6 12.46 11.66 12.37 11.69 12.29C11.73 12.2 11.75 12.11 11.75 12C11.75 11.89 11.73 11.8 11.69 11.71C11.65 11.62 11.6 11.54 11.53 11.47L9.53 9.47C9.24 9.18 8.76 9.18 8.47 9.47C8.18 9.76 8.18 10.24 8.47 10.53L9 11.06V11.25H3C2.59 11.25 2.25 11.59 2.25 12C2.25 12.41 2.59 12.75 3 12.75Z" fill="black"/>
<path d="M3 4.75H21C21.41 4.75 21.75 4.41 21.75 4C21.75 3.59 21.41 3.25 21 3.25H3C2.59 3.25 2.25 3.59 2.25 4C2.25 4.41 2.59 4.75 3 4.75Z" fill="black"/>
<path d="M21 19.25H3C2.59 19.25 2.25 19.59 2.25 20C2.25 20.41 2.59 20.75 3 20.75H21C21.41 20.75 21.75 20.41 21.75 20C21.75 19.59 21.41 19.25 21 19.25Z" fill="black"/>
<path d="M21 11.25H14C13.59 11.25 13.25 11.59 13.25 12C13.25 12.41 13.59 12.75 14 12.75H21C21.41 12.75 21.75 12.41 21.75 12C21.75 11.59 21.41 11.25 21 11.25Z" fill="black"/>
<path d="M21 7.25H12C11.59 7.25 11.25 7.59 11.25 8C11.25 8.41 11.59 8.75 12 8.75H21C21.41 8.75 21.75 8.41 21.75 8C21.75 7.59 21.41 7.25 21 7.25Z" fill="black"/>
<path d="M21 15.25H12C11.59 15.25 11.25 15.59 11.25 16C11.25 16.41 11.59 16.75 12 16.75H21C21.41 16.75 21.75 16.41 21.75 16C21.75 15.59 21.41 15.25 21 15.25Z" fill="black"/>
</svg>
