<svg width="24" height="24" viewBox="0 0 24 24" fill="none" xmlns="http://www.w3.org/2000/svg">
<path d="M17 2.25H7C4.38 2.25 2.25 4.38 2.25 7V17C2.25 19.62 4.38 21.75 7 21.75H17C19.62 21.75 21.75 19.62 21.75 17V7C21.75 4.38 19.62 2.25 17 2.25ZM6.02 12.75C5.61 12.75 5.27 12.41 5.27 12C5.27 11.59 5.6 11.25 6.01 11.25H6.02C6.43 11.25 6.77 11.59 6.77 12C6.77 12.41 6.43 12.75 6.02 12.75ZM9.02 12.75C8.61 12.75 8.27 12.41 8.27 12C8.27 11.59 8.6 11.25 9.01 11.25H9.02C9.43 11.25 9.77 11.59 9.77 12C9.77 12.41 9.43 12.75 9.02 12.75ZM12.02 18.75C11.61 18.75 11.27 18.41 11.27 18C11.27 17.59 11.6 17.25 12.01 17.25H12.02C12.43 17.25 12.77 17.59 12.77 18C12.77 18.41 12.43 18.75 12.02 18.75ZM12.02 15.75C11.61 15.75 11.27 15.41 11.27 15C11.27 14.59 11.6 14.25 12.01 14.25H12.02C12.43 14.25 12.77 14.59 12.77 15C12.77 15.41 12.43 15.75 12.02 15.75ZM12.02 12.75C11.61 12.75 11.27 12.41 11.27 12C11.27 11.59 11.6 11.25 12.01 11.25H12.02C12.43 11.25 12.77 11.59 12.77 12C12.77 12.41 12.43 12.75 12.02 12.75ZM12.02 9.75C11.61 9.75 11.27 9.41 11.27 9C11.27 8.59 11.6 8.25 12.01 8.25H12.02C12.43 8.25 12.77 8.59 12.77 9C12.77 9.41 12.43 9.75 12.02 9.75ZM12.02 6.75C11.61 6.75 11.27 6.41 11.27 6C11.27 5.59 11.6 5.25 12.01 5.25H12.02C12.43 5.25 12.77 5.59 12.77 6C12.77 6.41 12.43 6.75 12.02 6.75ZM15.02 12.75C14.61 12.75 14.27 12.41 14.27 12C14.27 11.59 14.6 11.25 15.01 11.25H15.02C15.43 11.25 15.77 11.59 15.77 12C15.77 12.41 15.43 12.75 15.02 12.75ZM18.02 12.75C17.61 12.75 17.27 12.41 17.27 12C17.27 11.59 17.6 11.25 18.01 11.25H18.02C18.43 11.25 18.77 11.59 18.77 12C18.77 12.41 18.43 12.75 18.02 12.75Z" fill="black"/>
</svg>
