<svg width="24" height="24" viewBox="0 0 24 24" fill="none" xmlns="http://www.w3.org/2000/svg">
<path d="M19.75 8C19.75 7.92 19.73 7.84 19.7 7.76C19.59 6.95 19.23 6.17 18.65 5.59L16.41 3.35C15.81 2.75 15.05 2.4 14.23 2.3C14.16 2.28 14.08 2.25 14 2.25C13.97 2.25 13.95 2.26 13.92 2.27C13.86 2.27 13.81 2.25 13.76 2.25H8C5.93 2.25 4.25 3.93 4.25 6V18C4.25 20.07 5.93 21.75 8 21.75H16C18.07 21.75 19.75 20.07 19.75 18V8.24C19.75 8.19 19.74 8.13 19.73 8.08C19.73 8.05 19.75 8.03 19.75 8ZM17.59 6.65C17.76 6.82 17.9 7.03 18.01 7.25H15C14.86 7.25 14.75 7.14 14.75 7V3.99C14.97 4.1 15.17 4.23 15.35 4.41L17.59 6.65ZM16 20.25H8C6.76 20.25 5.75 19.24 5.75 18V6C5.75 4.76 6.76 3.75 8 3.75H13.25V7C13.25 7.96 14.04 8.75 15 8.75H18.25V18C18.25 19.24 17.24 20.25 16 20.25Z" fill="black"/>
<path d="M16 10.25H8C7.59 10.25 7.25 10.59 7.25 11C7.25 11.41 7.59 11.75 8 11.75H16C16.41 11.75 16.75 11.41 16.75 11C16.75 10.59 16.41 10.25 16 10.25Z" fill="black"/>
<path d="M16 13.25H8C7.59 13.25 7.25 13.59 7.25 14C7.25 14.41 7.59 14.75 8 14.75H16C16.41 14.75 16.75 14.41 16.75 14C16.75 13.59 16.41 13.25 16 13.25Z" fill="black"/>
<path d="M12 16.25H8C7.59 16.25 7.25 16.59 7.25 17C7.25 17.41 7.59 17.75 8 17.75H12C12.41 17.75 12.75 17.41 12.75 17C12.75 16.59 12.41 16.25 12 16.25Z" fill="black"/>
</svg>
