<svg width="24" height="24" viewBox="0 0 24 24" fill="none" xmlns="http://www.w3.org/2000/svg">
<path d="M9.27993 5.30057C8.45993 5.11057 7.65993 5.50057 7.24993 6.31057L2.47993 15.7206C2.13993 16.3906 2.16993 17.2106 2.56993 17.8506C2.91993 18.4106 3.49993 18.7506 4.11993 18.7506H8.87993C9.90993 18.7506 10.7499 17.8306 10.7499 16.7106V7.29057C10.7499 6.31057 10.1599 5.51057 9.27993 5.30057ZM9.24993 16.7106C9.24993 17.0306 9.05993 17.2506 8.87993 17.2506H4.11993C3.98993 17.2506 3.89993 17.1506 3.84993 17.0706C3.75993 16.9206 3.69993 16.6606 3.82993 16.4006L8.58993 6.98057C8.66993 6.83057 8.75993 6.75057 8.86993 6.75057C8.88993 6.75057 8.90993 6.75057 8.92993 6.75057C9.07993 6.79057 9.24993 6.95057 9.24993 7.28057V16.7106Z" fill="black"/>
<path d="M21.5099 15.7206L16.7499 6.30057C16.3399 5.49057 15.5399 5.10057 14.7199 5.29057C13.8399 5.50057 13.2499 6.30057 13.2499 7.28057V16.7006C13.2499 17.8306 14.0899 18.7406 15.1199 18.7406H19.8799C20.5099 18.7406 21.0799 18.4006 21.4299 17.8406C21.8199 17.2006 21.8499 16.3806 21.5099 15.7106V15.7206ZM20.1499 17.0606C20.1099 17.1306 20.0199 17.2406 19.8799 17.2406H15.1199C14.9499 17.2406 14.7499 17.0206 14.7499 16.7006V7.29057C14.7499 6.95057 14.9199 6.79057 15.0699 6.76057C15.0899 6.76057 15.1099 6.76057 15.1299 6.76057C15.2399 6.76057 15.3399 6.84057 15.4099 6.99057L20.1699 16.4106C20.2999 16.6606 20.2399 16.9306 20.1499 17.0806V17.0606Z" fill="black"/>
</svg>
