<svg width="24" height="24" viewBox="0 0 24 24" fill="none" xmlns="http://www.w3.org/2000/svg">
<path d="M19 2.25H13C11.48 2.25 10.25 3.48 10.25 5V10C10.25 11.52 11.48 12.75 13 12.75H19C20.52 12.75 21.75 11.52 21.75 10V5C21.75 3.48 20.52 2.25 19 2.25ZM18 6.75H16.75V9C16.75 9.41 16.41 9.75 16 9.75C15.59 9.75 15.25 9.41 15.25 9V6.75H14C13.59 6.75 13.25 6.41 13.25 6C13.25 5.59 13.59 5.25 14 5.25H18C18.41 5.25 18.75 5.59 18.75 6C18.75 6.41 18.41 6.75 18 6.75Z" fill="black"/>
<path d="M6 2.25H5C3.48122 2.25 2.25 3.48122 2.25 5V19C2.25 20.5188 3.48122 21.75 5 21.75H6C7.51878 21.75 8.75 20.5188 8.75 19V5C8.75 3.48122 7.51878 2.25 6 2.25Z" fill="black"/>
<path d="M19 14.25H13C11.4812 14.25 10.25 15.4812 10.25 17V19C10.25 20.5188 11.4812 21.75 13 21.75H19C20.5188 21.75 21.75 20.5188 21.75 19V17C21.75 15.4812 20.5188 14.25 19 14.25Z" fill="black"/>
</svg>
