<svg width="24" height="24" viewBox="0 0 24 24" fill="none" xmlns="http://www.w3.org/2000/svg">
<path d="M8 8.25H12C12.69 8.25 13.25 7.69 13.25 7V2.25H6.75V7C6.75 7.69 7.31 8.25 8 8.25Z" fill="black"/>
<path d="M16 14.75H8C7.31 14.75 6.75 15.31 6.75 16V21.75H17.25V16C17.25 15.31 16.69 14.75 16 14.75Z" fill="black"/>
<path d="M20.76 6.82L16.04 2.88C15.67 2.57 15.22 2.37 14.75 2.28V7C14.75 8.52 13.52 9.75 12 9.75H8C6.48 9.75 5.25 8.52 5.25 7V2.25H5C3.48 2.25 2.25 3.48 2.25 5V19C2.25 20.52 3.48 21.75 5 21.75H5.25V16C5.25 14.48 6.48 13.25 8 13.25H16C17.52 13.25 18.75 14.48 18.75 16V21.75H19C20.52 21.75 21.75 20.52 21.75 19V8.94C21.75 8.12 21.39 7.35 20.76 6.83V6.82Z" fill="black"/>
</svg>
