<svg width="24" height="24" viewBox="0 0 24 24" fill="none" xmlns="http://www.w3.org/2000/svg">
<path d="M21 3.25H3C2.59 3.25 2.25 3.59 2.25 4C2.25 4.41 2.59 4.75 3 4.75H4.25V8.3C4.25 9.61 4.95 10.84 6.07 11.52L8.16 12.77C8.83 13.17 9.25 13.91 9.25 14.7V18.38C9.25 19.05 9.62 19.65 10.22 19.95L12.22 20.95C12.47 21.07 12.74 21.14 13 21.14C13.32 21.14 13.64 21.05 13.92 20.88C14.44 20.56 14.75 20 14.75 19.39V14.71C14.75 13.92 15.17 13.18 15.84 12.78L17.93 11.53C19.05 10.86 19.75 9.62 19.75 8.31V4.76H21C21.41 4.76 21.75 4.42 21.75 4.01C21.75 3.6 21.41 3.26 21 3.26V3.25ZM18.25 8.3C18.25 9.09 17.83 9.83 17.16 10.23L15.07 11.48C13.95 12.15 13.25 13.39 13.25 14.7V19.38C13.25 19.5 13.18 19.57 13.13 19.59C13.09 19.62 13 19.66 12.89 19.6L10.89 18.6C10.81 18.56 10.75 18.47 10.75 18.38V14.7C10.75 13.39 10.05 12.16 8.93 11.48L6.84 10.23C6.17 9.83 5.75 9.09 5.75 8.3V4.75H18.25V8.3Z" fill="black"/>
<path d="M9 8.75H15C15.41 8.75 15.75 8.41 15.75 8C15.75 7.59 15.41 7.25 15 7.25H9C8.59 7.25 8.25 7.59 8.25 8C8.25 8.41 8.59 8.75 9 8.75Z" fill="black"/>
</svg>
