<svg width="24" height="24" viewBox="0 0 24 24" fill="none" xmlns="http://www.w3.org/2000/svg">
<path d="M18.5 5.24945H16.25L13.65 3.29945C12.68 2.56945 11.32 2.56945 10.35 3.29945L7.75 5.24945H5.5C4.26 5.24945 3.25 6.25945 3.25 7.49945C3.25 8.73945 4.26 9.74945 5.5 9.74945H18.5C19.74 9.74945 20.75 8.73945 20.75 7.49945C20.75 6.25945 19.74 5.24945 18.5 5.24945ZM11.25 4.49945C11.69 4.16945 12.31 4.16945 12.75 4.49945L13.75 5.24945H10.25L11.25 4.49945ZM18.5 8.24945H5.5C5.09 8.24945 4.75 7.90945 4.75 7.49945C4.75 7.08945 5.09 6.74945 5.5 6.74945H18.5C18.91 6.74945 19.25 7.08945 19.25 7.49945C19.25 7.90945 18.91 8.24945 18.5 8.24945Z" fill="black"/>
<path d="M18.62 11.2595C18.21 11.1895 17.83 11.4695 17.76 11.8795L16.68 18.3695C16.5 19.4595 15.57 20.2495 14.46 20.2495H9.54C8.44 20.2495 7.5 19.4595 7.32 18.3695L6.24 11.8795C6.17 11.4695 5.78 11.1995 5.38 11.2595C4.97 11.3295 4.7 11.7195 4.76 12.1195L5.84 18.6095C6.14 20.4295 7.7 21.7395 9.54 21.7395H14.46C16.3 21.7395 17.86 20.4195 18.16 18.6095L19.24 12.1195C19.31 11.7095 19.03 11.3295 18.62 11.2595Z" fill="black"/>
<path d="M9.83 17.7495C9.83 17.7495 9.91 17.7495 9.95 17.7495C10.36 17.6795 10.63 17.2895 10.57 16.8895L9.74 11.8895C9.67 11.4795 9.29 11.2095 8.88 11.2695C8.47 11.3395 8.2 11.7295 8.26 12.1295L9.09 17.1295C9.15 17.4995 9.47 17.7595 9.83 17.7595V17.7495Z" fill="black"/>
<path d="M14.17 17.7495C14.53 17.7495 14.85 17.4895 14.91 17.1195L15.74 12.1195C15.81 11.7095 15.53 11.3295 15.12 11.2595C14.71 11.1895 14.33 11.4695 14.26 11.8795L13.43 16.8795C13.36 17.2895 13.64 17.6695 14.05 17.7395C14.09 17.7395 14.13 17.7395 14.17 17.7395V17.7495Z" fill="black"/>
</svg>
