<svg width="24" height="24" viewBox="0 0 24 24" fill="none" xmlns="http://www.w3.org/2000/svg">
<path d="M11.19 17.3507C11.51 17.6707 11.96 17.8507 12.42 17.8507C12.44 17.8507 12.46 17.8507 12.48 17.8507C12.98 17.8307 13.45 17.6007 13.78 17.2207L20.63 9.27073C21.59 8.16073 21.55 6.49073 20.54 5.48073L18.92 3.86073C17.91 2.85073 16.25 2.81073 15.13 3.77073L7.18 10.6207C6.8 10.9507 6.57 11.4307 6.55 11.9207C6.53 12.4007 6.72 12.8707 7.05 13.2107L11.19 17.3507Z" fill="black"/>
<path d="M21 20.2507H3C2.59 20.2507 2.25 20.5907 2.25 21.0007C2.25 21.4107 2.59 21.7507 3 21.7507H21C21.41 21.7507 21.75 21.4107 21.75 21.0007C21.75 20.5907 21.41 20.2507 21 20.2507Z" fill="black"/>
<path d="M4 19.7507H6.83C6.96 19.7507 7.07 19.7107 7.18 19.6507C7.07 19.5607 6.95 19.4807 6.85 19.3807L5.04 17.5707C4.93 17.4607 4.83 17.3407 4.73 17.2107L3.47 18.4707C3.26 18.6807 3.19 19.0107 3.31 19.2907C3.43 19.5707 3.7 19.7507 4 19.7507Z" fill="black"/>
<path d="M7.91 18.3107C8.25 18.6507 8.69 18.8207 9.15 18.8207C9.42 18.8207 9.68 18.7607 9.93 18.6307L10.23 18.4807C10.23 18.4807 10.16 18.4307 10.13 18.4007L6 14.2707C6 14.2707 5.95 14.2007 5.92 14.1707L5.77 14.4707C5.43 15.1407 5.56 15.9607 6.1 16.4907L7.91 18.3007V18.3107Z" fill="black"/>
</svg>
