<svg width="24" height="24" viewBox="0 0 24 24" fill="none" xmlns="http://www.w3.org/2000/svg">
<path d="M9.27993 5.30057C8.45993 5.11057 7.65993 5.50057 7.24993 6.31057L2.47993 15.7206C2.13993 16.3906 2.16993 17.2106 2.56993 17.8506C2.91993 18.4106 3.49993 18.7506 4.11993 18.7506H8.87993C9.90993 18.7506 10.7499 17.8306 10.7499 16.7106V7.29057C10.7499 6.31057 10.1599 5.51057 9.27993 5.30057Z" fill="black"/>
<path d="M21.5099 15.7206L16.7499 6.30057C16.3399 5.49057 15.5399 5.10057 14.7199 5.29057C13.8399 5.50057 13.2499 6.30057 13.2499 7.28057V16.7006C13.2499 17.8306 14.0899 18.7406 15.1199 18.7406H19.8799C20.5099 18.7406 21.0799 18.4006 21.4299 17.8406C21.8199 17.2006 21.8499 16.3806 21.5099 15.7106V15.7206Z" fill="black"/>
</svg>
