<svg width="24" height="24" viewBox="0 0 24 24" fill="none" xmlns="http://www.w3.org/2000/svg">
<path d="M17 2.25H7C4.38 2.25 2.25 4.38 2.25 7V17C2.25 19.62 4.38 21.75 7 21.75H17C19.62 21.75 21.75 19.62 21.75 17V7C21.75 4.38 19.62 2.25 17 2.25ZM7 3.75H17C18.79 3.75 20.25 5.21 20.25 7V14.4L17.15 11.82C16.56 11.33 15.79 11.11 15.03 11.21C14.27 11.31 13.58 11.73 13.14 12.36L11.16 15.19L8.84 13.45C7.75 12.64 6.21 12.74 5.25 13.71L3.76 15.2V7C3.76 5.21 5.22 3.75 7.01 3.75H7ZM3.78 17.28L6.31 14.75C6.75 14.31 7.45 14.26 7.94 14.63L10.3 16.4L7.61 20.24H7C5.3 20.24 3.92 18.93 3.78 17.27V17.28ZM17 20.25H9.44L14.37 13.21C14.57 12.92 14.88 12.73 15.23 12.69C15.58 12.65 15.92 12.74 16.19 12.97L20.25 16.35V17C20.25 18.79 18.79 20.25 17 20.25Z" fill="black"/>
<path d="M11 11.75C12.52 11.75 13.75 10.52 13.75 9C13.75 7.48 12.52 6.25 11 6.25C9.48 6.25 8.25 7.48 8.25 9C8.25 10.52 9.48 11.75 11 11.75ZM11 7.75C11.69 7.75 12.25 8.31 12.25 9C12.25 9.69 11.69 10.25 11 10.25C10.31 10.25 9.75 9.69 9.75 9C9.75 8.31 10.31 7.75 11 7.75Z" fill="black"/>
</svg>
