<svg width="24" height="24" viewBox="0 0 24 24" fill="none" xmlns="http://www.w3.org/2000/svg">
<path d="M16.5 13.25H12.75V11.75H14.5C15.74 11.75 16.75 10.74 16.75 9.5V8.5C16.75 7.26 15.74 6.25 14.5 6.25H12.75V3C12.75 2.59 12.41 2.25 12 2.25C11.59 2.25 11.25 2.59 11.25 3V6.25H9.5C8.26 6.25 7.25 7.26 7.25 8.5V9.5C7.25 10.74 8.26 11.75 9.5 11.75H11.25V13.25H7.5C6.26 13.25 5.25 14.26 5.25 15.5V16.5C5.25 17.74 6.26 18.75 7.5 18.75H11.25V21C11.25 21.41 11.59 21.75 12 21.75C12.41 21.75 12.75 21.41 12.75 21V18.75H16.5C17.74 18.75 18.75 17.74 18.75 16.5V15.5C18.75 14.26 17.74 13.25 16.5 13.25Z" fill="black"/>
</svg>
