<svg width="24" height="24" viewBox="0 0 24 24" fill="none" xmlns="http://www.w3.org/2000/svg">
<path d="M18 3.25H6C3.93 3.25 2.25 4.93 2.25 7V17C2.25 19.07 3.93 20.75 6 20.75H18C20.07 20.75 21.75 19.07 21.75 17V7C21.75 4.93 20.07 3.25 18 3.25ZM9.75 15.25V12.75H14.25V15.25H9.75ZM14.25 16.75V19.25H9.75V16.75H14.25ZM14.25 8.75V11.25H9.75V8.75H14.25ZM20.25 8.75V11.25H15.75V8.75H20.25ZM8.25 11.25H3.75V8.75H8.25V11.25ZM3.75 12.75H8.25V15.25H3.75V12.75ZM15.75 12.75H20.25V15.25H15.75V12.75ZM6 4.75H18C19.24 4.75 20.25 5.76 20.25 7V7.25H3.75V7C3.75 5.76 4.76 4.75 6 4.75ZM3.75 17V16.75H8.25V19.25H6C4.76 19.25 3.75 18.24 3.75 17ZM18 19.25H15.75V16.75H20.25V17C20.25 18.24 19.24 19.25 18 19.25Z" fill="black"/>
</svg>
