<svg width="24" height="24" viewBox="0 0 24 24" fill="none" xmlns="http://www.w3.org/2000/svg">
<path d="M21.0001 20.25H5.00007C4.59007 20.25 4.25007 20.59 4.25007 21C4.25007 21.41 4.59007 21.75 5.00007 21.75H21.0001C21.4101 21.75 21.7501 21.41 21.7501 21C21.7501 20.59 21.4101 20.25 21.0001 20.25Z" fill="black"/>
<path d="M17.4101 15.54C17.2601 15.74 17.1201 15.93 17.0001 16.13C16.5601 16.85 16.5401 17.77 16.9501 18.53C17.3501 19.27 18.0901 19.73 18.9001 19.75H19.1001C19.9301 19.71 20.6701 19.25 21.0701 18.5C21.4701 17.74 21.4501 16.86 21.0101 16.13C20.8901 15.93 20.7601 15.74 20.6001 15.54C20.2701 15.12 19.8901 14.74 19.4701 14.41C19.2001 14.2 18.8201 14.2 18.5501 14.41C18.1301 14.74 17.7501 15.12 17.4201 15.54H17.4101Z" fill="black"/>
<path d="M17.8401 10.13L11.4801 3.76C10.8001 3.08 9.69007 3.08 9.01007 3.76L3.35007 9.42C2.84007 9.93 2.50007 10.56 2.35007 11.25H18.3501C18.3201 10.84 18.1601 10.44 17.8501 10.13H17.8401Z" fill="black"/>
<path d="M9.54007 19.36C10.5401 19.36 11.4801 18.97 12.1901 18.26L17.7001 12.75H2.32007C2.46007 13.49 2.81007 14.18 3.35007 14.72L6.89007 18.26C7.60007 18.97 8.54007 19.36 9.54007 19.36Z" fill="black"/>
</svg>
