<svg width="24" height="24" viewBox="0 0 24 24" fill="none" xmlns="http://www.w3.org/2000/svg">
<path d="M18 5.25H14C13.59 5.25 13.25 5.59 13.25 6C13.25 6.41 13.59 6.75 14 6.75H15.25V9C15.25 9.41 15.59 9.75 16 9.75C16.41 9.75 16.75 9.41 16.75 9V6.75H18C18.41 6.75 18.75 6.41 18.75 6C18.75 5.59 18.41 5.25 18 5.25Z" fill="black"/>
<path d="M19 2.25H13C11.48 2.25 10.25 3.48 10.25 5V10C10.25 11.52 11.48 12.75 13 12.75H19C20.52 12.75 21.75 11.52 21.75 10V5C21.75 3.48 20.52 2.25 19 2.25ZM20.25 10C20.25 10.69 19.69 11.25 19 11.25H13C12.31 11.25 11.75 10.69 11.75 10V5C11.75 4.31 12.31 3.75 13 3.75H19C19.69 3.75 20.25 4.31 20.25 5V10Z" fill="black"/>
<path d="M6 2.25H5C3.48 2.25 2.25 3.48 2.25 5V19C2.25 20.52 3.48 21.75 5 21.75H6C7.52 21.75 8.75 20.52 8.75 19V5C8.75 3.48 7.52 2.25 6 2.25ZM7.25 19C7.25 19.69 6.69 20.25 6 20.25H5C4.31 20.25 3.75 19.69 3.75 19V5C3.75 4.31 4.31 3.75 5 3.75H6C6.69 3.75 7.25 4.31 7.25 5V19Z" fill="black"/>
<path d="M19 14.25H13C11.48 14.25 10.25 15.48 10.25 17V19C10.25 20.52 11.48 21.75 13 21.75H19C20.52 21.75 21.75 20.52 21.75 19V17C21.75 15.48 20.52 14.25 19 14.25ZM20.25 19C20.25 19.69 19.69 20.25 19 20.25H13C12.31 20.25 11.75 19.69 11.75 19V17C11.75 16.31 12.31 15.75 13 15.75H19C19.69 15.75 20.25 16.31 20.25 17V19Z" fill="black"/>
</svg>
