<svg width="24" height="24" viewBox="0 0 24 24" fill="none" xmlns="http://www.w3.org/2000/svg">
<path d="M6 2.25H4C3.0335 2.25 2.25 3.0335 2.25 4V6C2.25 6.9665 3.0335 7.75 4 7.75H6C6.9665 7.75 7.75 6.9665 7.75 6V4C7.75 3.0335 6.9665 2.25 6 2.25Z" fill="black"/>
<path d="M6 9.25H4C3.0335 9.25 2.25 10.0335 2.25 11V13C2.25 13.9665 3.0335 14.75 4 14.75H6C6.9665 14.75 7.75 13.9665 7.75 13V11C7.75 10.0335 6.9665 9.25 6 9.25Z" fill="black"/>
<path d="M6 16.25H4C3.0335 16.25 2.25 17.0335 2.25 18V20C2.25 20.9665 3.0335 21.75 4 21.75H6C6.9665 21.75 7.75 20.9665 7.75 20V18C7.75 17.0335 6.9665 16.25 6 16.25Z" fill="black"/>
<path d="M10 5.75H21C21.41 5.75 21.75 5.41 21.75 5C21.75 4.59 21.41 4.25 21 4.25H10C9.59 4.25 9.25 4.59 9.25 5C9.25 5.41 9.59 5.75 10 5.75Z" fill="black"/>
<path d="M21 11.25H10C9.59 11.25 9.25 11.59 9.25 12C9.25 12.41 9.59 12.75 10 12.75H21C21.41 12.75 21.75 12.41 21.75 12C21.75 11.59 21.41 11.25 21 11.25Z" fill="black"/>
<path d="M21 18.25H10C9.59 18.25 9.25 18.59 9.25 19C9.25 19.41 9.59 19.75 10 19.75H21C21.41 19.75 21.75 19.41 21.75 19C21.75 18.59 21.41 18.25 21 18.25Z" fill="black"/>
</svg>
