<svg width="24" height="24" viewBox="0 0 24 24" fill="none" xmlns="http://www.w3.org/2000/svg">
<path d="M18 5.25H17.75V5C17.75 3.48 16.52 2.25 15 2.25H5C3.48 2.25 2.25 3.48 2.25 5V7C2.25 8.52 3.48 9.75 5 9.75H15C16.52 9.75 17.75 8.52 17.75 7V6.75H18C18.69 6.75 19.25 7.31 19.25 8V10C19.25 10.69 18.69 11.25 18 11.25H12C10.48 11.25 9.25 12.48 9.25 14V14.37C8.1 14.7 7.25 15.75 7.25 17V19C7.25 20.52 8.48 21.75 10 21.75C11.52 21.75 12.75 20.52 12.75 19V17C12.75 15.75 11.9 14.7 10.75 14.37V14C10.75 13.31 11.31 12.75 12 12.75H18C19.52 12.75 20.75 11.52 20.75 10V8C20.75 6.48 19.52 5.25 18 5.25ZM10 6.75H6C5.59 6.75 5.25 6.41 5.25 6C5.25 5.59 5.59 5.25 6 5.25H10C10.41 5.25 10.75 5.59 10.75 6C10.75 6.41 10.41 6.75 10 6.75Z" fill="black"/>
</svg>
