<svg width="24" height="24" viewBox="0 0 24 24" fill="none" xmlns="http://www.w3.org/2000/svg">
<path d="M14.25 7.75H9.75V16.25H14.25V7.75Z" fill="black"/>
<path d="M16 2.25H8C5.93 2.25 4.25 3.93 4.25 6V18C4.25 20.07 5.93 21.75 8 21.75H16C18.07 21.75 19.75 20.07 19.75 18V6C19.75 3.93 18.07 2.25 16 2.25ZM16 16.25C16.41 16.25 16.75 16.59 16.75 17C16.75 17.41 16.41 17.75 16 17.75H15.75V18C15.75 18.41 15.41 18.75 15 18.75C14.59 18.75 14.25 18.41 14.25 18V17.75H9.75V18C9.75 18.41 9.41 18.75 9 18.75C8.59 18.75 8.25 18.41 8.25 18V17.75H8C7.59 17.75 7.25 17.41 7.25 17C7.25 16.59 7.59 16.25 8 16.25H8.25V7.75H8C7.59 7.75 7.25 7.41 7.25 7C7.25 6.59 7.59 6.25 8 6.25H8.25V6C8.25 5.59 8.59 5.25 9 5.25C9.41 5.25 9.75 5.59 9.75 6V6.25H14.25V6C14.25 5.59 14.59 5.25 15 5.25C15.41 5.25 15.75 5.59 15.75 6V6.25H16C16.41 6.25 16.75 6.59 16.75 7C16.75 7.41 16.41 7.75 16 7.75H15.75V16.25H16Z" fill="black"/>
</svg>
