<svg width="24" height="24" viewBox="0 0 24 24" fill="none" xmlns="http://www.w3.org/2000/svg">
<path d="M20.76 6.82023L16.04 2.88023C15.55 2.47023 14.92 2.24023 14.28 2.24023H5C3.48 2.24023 2.25 3.47023 2.25 4.99023V18.9902C2.25 20.5102 3.48 21.7402 5 21.7402H19C20.52 21.7402 21.75 20.5102 21.75 18.9902V8.94023C21.75 8.12023 21.39 7.35023 20.76 6.83023V6.82023ZM13.25 3.75023V7.00023C13.25 7.69023 12.69 8.25023 12 8.25023H8C7.31 8.25023 6.75 7.69023 6.75 7.00023V3.75023H13.25ZM6.75 20.2502V16.0002C6.75 15.3102 7.31 14.7502 8 14.7502H16C16.69 14.7502 17.25 15.3102 17.25 16.0002V20.2502H6.75ZM20.25 19.0002C20.25 19.6902 19.69 20.2502 19 20.2502H18.75V16.0002C18.75 14.4802 17.52 13.2502 16 13.2502H8C6.48 13.2502 5.25 14.4802 5.25 16.0002V20.2502H5C4.31 20.2502 3.75 19.6902 3.75 19.0002V5.00023C3.75 4.31023 4.31 3.75023 5 3.75023H5.25V7.00023C5.25 8.52023 6.48 9.75023 8 9.75023H12C13.52 9.75023 14.75 8.52023 14.75 7.00023V3.85023C14.87 3.90023 14.98 3.96023 15.08 4.04023L19.8 7.98023C20.09 8.22023 20.25 8.57023 20.25 8.94023V19.0002Z" fill="black"/>
</svg>
