<svg width="24" height="24" viewBox="0 0 24 24" fill="none" xmlns="http://www.w3.org/2000/svg">
<path d="M4 19.7507H6.83C7.03 19.7507 7.22 19.6707 7.36 19.5307L8.3 18.5907C8.56 18.7407 8.86 18.8207 9.15 18.8207C9.42 18.8207 9.68 18.7607 9.93 18.6307L11.76 17.7207C11.97 17.8007 12.19 17.8507 12.42 17.8507C12.44 17.8507 12.46 17.8507 12.48 17.8507C12.98 17.8307 13.45 17.6007 13.78 17.2207L20.63 9.27073C21.59 8.16073 21.55 6.49073 20.54 5.48073L18.92 3.86073C17.91 2.85073 16.25 2.81073 15.13 3.77073L7.18 10.6207C6.8 10.9507 6.57 11.4307 6.55 11.9207C6.55 12.1707 6.59 12.4207 6.68 12.6407L5.77 14.4707C5.5 15.0007 5.54 15.6107 5.82 16.1107L3.47 18.4607C3.26 18.6707 3.19 19.0007 3.31 19.2807C3.43 19.5607 3.7 19.7407 4 19.7407V19.7507ZM9.26 17.3007C9.17 17.3507 9.05 17.3307 8.97 17.2507L7.16 15.4407C7.08 15.3607 7.07 15.2507 7.11 15.1507L7.74 13.9007L10.51 16.6707L9.26 17.3007ZM8.17 11.7607L16.12 4.91073C16.64 4.46073 17.41 4.47073 17.87 4.93073L19.49 6.55073C19.95 7.01073 19.95 7.78073 19.51 8.30073L12.66 16.2507C12.58 16.3407 12.49 16.3607 12.44 16.3607C12.39 16.3607 12.32 16.3607 12.26 16.2907L8.13 12.1607C8.07 12.1007 8.06 12.0307 8.07 11.9907C8.07 11.9407 8.09 11.8507 8.18 11.7707L8.17 11.7607ZM6.83 17.2307L7.18 17.5807L6.52 18.2407H5.81L6.83 17.2207V17.2307Z" fill="black"/>
<path d="M21 20.2507H3C2.59 20.2507 2.25 20.5907 2.25 21.0007C2.25 21.4107 2.59 21.7507 3 21.7507H21C21.41 21.7507 21.75 21.4107 21.75 21.0007C21.75 20.5907 21.41 20.2507 21 20.2507Z" fill="black"/>
</svg>
