<svg width="24" height="24" viewBox="0 0 24 24" fill="none" xmlns="http://www.w3.org/2000/svg">
<path d="M14.75 7C14.75 7.14 14.86 7.25 15 7.25H19.6C19.43 6.63 19.11 6.05 18.65 5.59L16.41 3.35C15.94 2.88 15.37 2.57 14.75 2.4V7Z" fill="black"/>
<path d="M15 8.75C14.04 8.75 13.25 7.96 13.25 7V2.25H8C5.93 2.25 4.25 3.93 4.25 6V18C4.25 20.07 5.93 21.75 8 21.75H16C18.07 21.75 19.75 20.07 19.75 18V8.75H15ZM12 17.75H8C7.59 17.75 7.25 17.41 7.25 17C7.25 16.59 7.59 16.25 8 16.25H12C12.41 16.25 12.75 16.59 12.75 17C12.75 17.41 12.41 17.75 12 17.75ZM16 14.75H8C7.59 14.75 7.25 14.41 7.25 14C7.25 13.59 7.59 13.25 8 13.25H16C16.41 13.25 16.75 13.59 16.75 14C16.75 14.41 16.41 14.75 16 14.75ZM16 11.75H8C7.59 11.75 7.25 11.41 7.25 11C7.25 10.59 7.59 10.25 8 10.25H16C16.41 10.25 16.75 10.59 16.75 11C16.75 11.41 16.41 11.75 16 11.75Z" fill="black"/>
</svg>
