<svg width="24" height="24" viewBox="0 0 24 24" fill="none" xmlns="http://www.w3.org/2000/svg">
<path d="M11 10.25C11.6904 10.25 12.25 9.69036 12.25 9C12.25 8.30964 11.6904 7.75 11 7.75C10.3096 7.75 9.75 8.30964 9.75 9C9.75 9.69036 10.3096 10.25 11 10.25Z" fill="black"/>
<path d="M2.45 16.49L5.24 13.7C6.2 12.74 7.75 12.63 8.83 13.44L11.15 15.18L13.13 12.35C13.57 11.72 14.26 11.3 15.02 11.2C15.78 11.1 16.56 11.32 17.14 11.81L21.47 15.42L21.74 15.66V7C21.74 4.38 19.61 2.25 16.99 2.25H7C4.38 2.25 2.25 4.38 2.25 7V16.71L2.45 16.49ZM11 6.25C12.52 6.25 13.75 7.48 13.75 9C13.75 10.52 12.52 11.75 11 11.75C9.48 11.75 8.25 10.52 8.25 9C8.25 7.48 9.48 6.25 11 6.25Z" fill="black"/>
<path d="M7.38 20.58L10.3 16.41L7.94 14.64C7.45 14.27 6.74 14.32 6.31 14.76L3.54 17.53L2.56 18.6C3.18 20.32 4.75 21.56 6.64 21.72L7.39 20.59L7.38 20.58Z" fill="black"/>
<path d="M20.5 16.56L16.19 12.97C15.92 12.74 15.57 12.65 15.23 12.69C14.88 12.74 14.57 12.92 14.37 13.21L8.62 21.43L8.41 21.75H17.01C19.41 21.75 21.39 19.95 21.7 17.63L20.51 16.56H20.5Z" fill="black"/>
</svg>
