<svg width="24" height="24" viewBox="0 0 24 24" fill="none" xmlns="http://www.w3.org/2000/svg">
<path d="M16 3.25023H13C12.04 3.25023 11.25 4.04023 11.25 5.00023V5.29023C11.25 6.30023 11.83 7.10023 12.59 7.18023C12.63 7.25023 12.68 7.39023 12.68 7.58023V16.4402C12.68 16.6302 12.63 16.7702 12.59 16.8402C11.83 16.9202 11.25 17.7202 11.25 18.7302V19.0202C11.25 19.9802 12.04 20.7702 13 20.7702H16C16.96 20.7702 17.75 19.9802 17.75 19.0202V18.7302C17.75 17.7202 17.17 16.9202 16.41 16.8402C16.37 16.7702 16.32 16.6302 16.32 16.4402V7.57023C16.32 7.38023 16.37 7.24023 16.41 7.17023C17.17 7.09023 17.75 6.29023 17.75 5.28023V4.99023C17.75 4.03023 16.96 3.24023 16 3.24023V3.25023Z" fill="black"/>
<path d="M2.25 11.0002V13.0002C2.25 14.5202 3.48 15.7502 5 15.7502H11.18V8.25023H5C3.48 8.25023 2.25 9.48023 2.25 11.0002ZM8.71 12.2502C9.13 12.2502 9.46 12.5902 9.46 13.0002C9.46 13.4102 9.13 13.7502 8.71 13.7502C8.29 13.7502 7.96 13.4102 7.96 13.0002C7.96 12.5902 8.29 12.2502 8.71 12.2502ZM6.71 12.2502C7.13 12.2502 7.46 12.5902 7.46 13.0002C7.46 13.4102 7.13 13.7502 6.71 13.7502C6.29 13.7502 5.96 13.4102 5.96 13.0002C5.96 12.5902 6.29 12.2502 6.71 12.2502ZM5.47 13.0002C5.47 13.4102 5.14 13.7502 4.72 13.7502C4.3 13.7502 3.97 13.4102 3.97 13.0002C3.97 12.5902 4.3 12.2502 4.72 12.2502C5.14 12.2502 5.47 12.5902 5.47 13.0002Z" fill="black"/>
<path d="M19 8.25023H17.82V15.7502H19C20.52 15.7502 21.75 14.5202 21.75 13.0002V11.0002C21.75 9.48023 20.52 8.25023 19 8.25023Z" fill="black"/>
</svg>
