<svg width="24" height="24" viewBox="0 0 24 24" fill="none" xmlns="http://www.w3.org/2000/svg">
<path d="M15.7 15.6398L16.25 16.1498L19.94 12.4598C21.01 11.3898 21.01 9.63984 19.94 8.56984L15.7 4.32984C14.63 3.25984 12.88 3.25984 11.81 4.32984L8.11 8.02984L8.64 8.58984L15.7 15.6498V15.6398Z" fill="black"/>
<path d="M21 18.2498H14.15L15.19 17.2098L14.66 16.7198L7.57 9.62984L7.05 9.08984L3.33 12.8098C2.26 13.8798 2.26 15.6298 3.33 16.6998L4.88 18.2498H3C2.59 18.2498 2.25 18.5898 2.25 18.9998C2.25 19.4098 2.59 19.7498 3 19.7498H21C21.41 19.7498 21.75 19.4098 21.75 18.9998C21.75 18.5898 21.41 18.2498 21 18.2498Z" fill="black"/>
</svg>
