<svg width="24" height="24" viewBox="0 0 24 24" fill="none" xmlns="http://www.w3.org/2000/svg">
<path d="M2.7 13.69C3.08 13.85 3.52 13.68 3.68 13.3L4.34 11.75H7.64L8.3 13.3C8.42 13.58 8.7 13.75 8.99 13.75C9.09 13.75 9.19 13.73 9.28 13.69C9.66 13.53 9.84 13.09 9.67 12.7L6.67 5.7C6.43 5.15 5.53 5.15 5.29 5.7L2.29 12.7C2.13 13.08 2.3 13.52 2.68 13.69H2.7ZM6 7.9L7.01 10.25H5L6.01 7.9H6Z" fill="black"/>
<path d="M19.5 2.25H13.5C12.26 2.25 11.25 3.26 11.25 4.5V5.5C11.25 6.74 12.26 7.75 13.5 7.75H19.5C20.74 7.75 21.75 6.74 21.75 5.5V4.5C21.75 3.26 20.74 2.25 19.5 2.25ZM20.25 5.5C20.25 5.91 19.91 6.25 19.5 6.25H13.5C13.09 6.25 12.75 5.91 12.75 5.5V4.5C12.75 4.09 13.09 3.75 13.5 3.75H19.5C19.91 3.75 20.25 4.09 20.25 4.5V5.5Z" fill="black"/>
<path d="M19.5 9.25H13.5C12.26 9.25 11.25 10.26 11.25 11.5V12.5C11.25 13.74 12.26 14.75 13.5 14.75H19.5C20.74 14.75 21.75 13.74 21.75 12.5V11.5C21.75 10.26 20.74 9.25 19.5 9.25ZM20.25 12.5C20.25 12.91 19.91 13.25 19.5 13.25H13.5C13.09 13.25 12.75 12.91 12.75 12.5V11.5C12.75 11.09 13.09 10.75 13.5 10.75H19.5C19.91 10.75 20.25 11.09 20.25 11.5V12.5Z" fill="black"/>
<path d="M19.5 16.25H4.5C3.26 16.25 2.25 17.26 2.25 18.5V19.5C2.25 20.74 3.26 21.75 4.5 21.75H19.5C20.74 21.75 21.75 20.74 21.75 19.5V18.5C21.75 17.26 20.74 16.25 19.5 16.25ZM20.25 19.5C20.25 19.91 19.91 20.25 19.5 20.25H4.5C4.09 20.25 3.75 19.91 3.75 19.5V18.5C3.75 18.09 4.09 17.75 4.5 17.75H19.5C19.91 17.75 20.25 18.09 20.25 18.5V19.5Z" fill="black"/>
</svg>
