<svg width="24" height="24" viewBox="0 0 24 24" fill="none" xmlns="http://www.w3.org/2000/svg">
<path d="M18.5 5.24945H16.25L13.65 3.29945C12.68 2.56945 11.32 2.56945 10.35 3.29945L7.75 5.24945H5.5C4.26 5.24945 3.25 6.25945 3.25 7.49945C3.25 8.73945 4.26 9.74945 5.5 9.74945H18.5C19.74 9.74945 20.75 8.73945 20.75 7.49945C20.75 6.25945 19.74 5.24945 18.5 5.24945ZM11.25 4.49945C11.69 4.16945 12.31 4.16945 12.75 4.49945L13.75 5.24945H10.25L11.25 4.49945Z" fill="black"/>
<path d="M18.5 11.2495H5.5C5.28 11.2495 5.07 11.3495 4.93 11.5195C4.79 11.6895 4.73 11.9095 4.76 12.1295L5.84 18.6195C6.14 20.4395 7.7 21.7495 9.54 21.7495H14.46C16.3 21.7495 17.86 20.4295 18.16 18.6195L19.24 12.1295C19.28 11.9095 19.21 11.6895 19.07 11.5195C18.93 11.3495 18.72 11.2495 18.5 11.2495ZM9.96 19.7395C9.96 19.7395 9.88 19.7395 9.84 19.7395C9.48 19.7395 9.16 19.4795 9.1 19.1095L8.27 14.1095C8.2 13.6995 8.48 13.3195 8.89 13.2495C9.3 13.1795 9.68 13.4595 9.75 13.8695L10.58 18.8695C10.65 19.2795 10.37 19.6595 9.96 19.7295V19.7395ZM14.91 19.1195C14.85 19.4895 14.53 19.7495 14.17 19.7495C14.13 19.7495 14.09 19.7495 14.05 19.7495C13.64 19.6795 13.37 19.2895 13.43 18.8895L14.26 13.8895C14.33 13.4795 14.71 13.1995 15.12 13.2695C15.53 13.3395 15.8 13.7295 15.74 14.1295L14.91 19.1295V19.1195Z" fill="black"/>
</svg>
