<svg width="24" height="24" viewBox="0 0 24 24" fill="none" xmlns="http://www.w3.org/2000/svg">
<path d="M6 2.25H4C3.04 2.25 2.25 3.04 2.25 4V6C2.25 6.96 3.04 7.75 4 7.75H6C6.96 7.75 7.75 6.96 7.75 6V4C7.75 3.04 6.96 2.25 6 2.25ZM6.25 6C6.25 6.14 6.14 6.25 6 6.25H4C3.86 6.25 3.75 6.14 3.75 6V4C3.75 3.86 3.86 3.75 4 3.75H6C6.14 3.75 6.25 3.86 6.25 4V6Z" fill="black"/>
<path d="M6 9.25H4C3.04 9.25 2.25 10.04 2.25 11V13C2.25 13.96 3.04 14.75 4 14.75H6C6.96 14.75 7.75 13.96 7.75 13V11C7.75 10.04 6.96 9.25 6 9.25ZM6.25 13C6.25 13.14 6.14 13.25 6 13.25H4C3.86 13.25 3.75 13.14 3.75 13V11C3.75 10.86 3.86 10.75 4 10.75H6C6.14 10.75 6.25 10.86 6.25 11V13Z" fill="black"/>
<path d="M6 16.25H4C3.04 16.25 2.25 17.04 2.25 18V20C2.25 20.96 3.04 21.75 4 21.75H6C6.96 21.75 7.75 20.96 7.75 20V18C7.75 17.04 6.96 16.25 6 16.25ZM6.25 20C6.25 20.14 6.14 20.25 6 20.25H4C3.86 20.25 3.75 20.14 3.75 20V18C3.75 17.86 3.86 17.75 4 17.75H6C6.14 17.75 6.25 17.86 6.25 18V20Z" fill="black"/>
<path d="M10 5.75H21C21.41 5.75 21.75 5.41 21.75 5C21.75 4.59 21.41 4.25 21 4.25H10C9.59 4.25 9.25 4.59 9.25 5C9.25 5.41 9.59 5.75 10 5.75Z" fill="black"/>
<path d="M21 11.25H10C9.59 11.25 9.25 11.59 9.25 12C9.25 12.41 9.59 12.75 10 12.75H21C21.41 12.75 21.75 12.41 21.75 12C21.75 11.59 21.41 11.25 21 11.25Z" fill="black"/>
<path d="M21 18.25H10C9.59 18.25 9.25 18.59 9.25 19C9.25 19.41 9.59 19.75 10 19.75H21C21.41 19.75 21.75 19.41 21.75 19C21.75 18.59 21.41 18.25 21 18.25Z" fill="black"/>
</svg>
