<svg width="24" height="24" viewBox="0 0 24 24" fill="none" xmlns="http://www.w3.org/2000/svg">
<path d="M21 18.2501H14.15L15.7 16.7001L19.94 12.4501C21.01 11.3801 21.01 9.63008 19.94 8.56008L15.7 4.32008C14.63 3.25008 12.88 3.25008 11.81 4.32008L3.33 12.8101C2.26 13.8801 2.26 15.6301 3.33 16.7001L4.88 18.2501H3C2.59 18.2501 2.25 18.5901 2.25 19.0001C2.25 19.4101 2.59 19.7501 3 19.7501H21C21.41 19.7501 21.75 19.4101 21.75 19.0001C21.75 18.5901 21.41 18.2501 21 18.2501ZM12.87 5.39008C13.36 4.90008 14.15 4.90008 14.64 5.39008L18.88 9.63008C19.37 10.1201 19.37 10.9101 18.88 11.4001L15.17 15.1101L9.16 9.10008L12.87 5.39008ZM4.39 15.6401C3.9 15.1501 3.9 14.3601 4.39 13.8701L8.1 10.1601L14.11 16.1701L12.03 18.2501H7L4.39 15.6401Z" fill="black"/>
</svg>
