<svg width="24" height="24" viewBox="0 0 24 24" fill="none" xmlns="http://www.w3.org/2000/svg">
<path d="M17.5 2.25C17.39 2.25 17.28 2.27 17.17 2.28C17.11 2.27 17.06 2.25 17 2.25H7.5C5.71 2.25 4.25 3.71 4.25 5.5V21C4.25 21.29 4.42 21.55 4.68 21.68C4.94 21.81 5.25 21.77 5.47 21.59L10 17.96L14.53 21.59C14.67 21.7 14.83 21.75 15 21.75C15.11 21.75 15.22 21.73 15.32 21.68C15.58 21.56 15.75 21.29 15.75 21V13.75H19C19.96 13.75 20.75 12.96 20.75 12V5.5C20.75 3.71 19.29 2.25 17.5 2.25ZM14.25 19.44L10.47 16.42C10.2 16.2 9.81 16.2 9.53 16.42L5.75 19.44V5.5C5.75 4.54 6.54 3.75 7.5 3.75H14.77C14.44 4.26 14.25 4.85 14.25 5.5V19.44ZM19.25 12C19.25 12.14 19.14 12.25 19 12.25H15.75V5.5C15.75 4.54 16.54 3.75 17.5 3.75C18.46 3.75 19.25 4.54 19.25 5.5V12Z" fill="black"/>
</svg>
