<svg width="24" height="24" viewBox="0 0 24 24" fill="none" xmlns="http://www.w3.org/2000/svg">
<path d="M11.98 8.73999C11.15 8.73999 10.32 9.05999 9.68004 9.68999C8.41004 10.96 8.41004 13.02 9.68004 14.29C10.95 15.56 13.01 15.56 14.28 14.29C15.55 13.02 15.55 10.96 14.28 9.68999C13.65 9.05999 12.81 8.73999 11.98 8.73999Z" fill="black"/>
<path d="M20.98 11.24H19.69C19.55 9.74999 18.97 8.28999 17.96 7.06999L18.87 6.15999C19.16 5.86999 19.16 5.38999 18.87 5.09999C18.58 4.80999 18.1 4.80999 17.81 5.09999L16.9 6.00999C15.68 4.99999 14.22 4.42999 12.73 4.27999V2.98999C12.73 2.57999 12.39 2.23999 11.98 2.23999C11.57 2.23999 11.23 2.57999 11.23 2.98999V4.27999C9.74004 4.41999 8.28004 4.99999 7.06004 6.00999L6.15004 5.09999C5.86004 4.80999 5.38004 4.80999 5.09004 5.09999C4.80004 5.38999 4.80004 5.86999 5.09004 6.15999L6.00004 7.06999C4.99004 8.28999 4.42004 9.74999 4.27004 11.24H2.98004C2.57004 11.24 2.23004 11.58 2.23004 11.99C2.23004 12.4 2.57004 12.74 2.98004 12.74H4.27004C4.41004 14.23 4.99004 15.69 6.00004 16.91L5.09004 17.82C4.80004 18.11 4.80004 18.59 5.09004 18.88C5.24004 19.03 5.43004 19.1 5.62004 19.1C5.81004 19.1 6.00004 19.03 6.15004 18.88L7.06004 17.97C8.28004 18.98 9.74004 19.55 11.23 19.7V20.99C11.23 21.4 11.57 21.74 11.98 21.74C12.39 21.74 12.73 21.4 12.73 20.99V19.7C14.22 19.56 15.68 18.98 16.9 17.97L17.81 18.88C17.96 19.03 18.15 19.1 18.34 19.1C18.53 19.1 18.72 19.03 18.87 18.88C19.16 18.59 19.16 18.11 18.87 17.82L17.96 16.91C18.97 15.69 19.54 14.23 19.69 12.74H20.98C21.39 12.74 21.73 12.4 21.73 11.99C21.73 11.58 21.39 11.24 20.98 11.24ZM11.98 16.74C10.76 16.74 9.55004 16.28 8.62004 15.35C6.77004 13.5 6.77004 10.48 8.62004 8.62999C10.47 6.77999 13.49 6.77999 15.34 8.62999C17.19 10.48 17.19 13.5 15.34 15.35C14.41 16.28 13.2 16.74 11.98 16.74Z" fill="black"/>
</svg>
