<svg width="24" height="24" viewBox="0 0 24 24" fill="none" xmlns="http://www.w3.org/2000/svg">
<path d="M17.54 3.82003C15.97 3.51003 14.37 3.91003 13.15 4.91003C12.68 5.30003 12.29 5.75003 11.98 6.26003C11.72 5.83003 11.39 5.43003 11.01 5.08003C9.89998 4.07003 8.46998 3.60003 6.96998 3.74003C4.30998 3.99003 2.22998 6.37003 2.22998 9.16003C2.22998 10.82 2.89998 12.45 4.07998 13.63L10.74 20.29C11.07 20.62 11.51 20.8 11.98 20.8C12.45 20.8 12.89 20.62 13.22 20.29L19.88 13.63C21.07 12.44 21.73 10.85 21.73 9.16003C21.73 6.54003 19.96 4.29003 17.53 3.82003H17.54Z" fill="black"/>
</svg>
