<svg width="24" height="24" viewBox="0 0 24 24" fill="none" xmlns="http://www.w3.org/2000/svg">
<path d="M11.36 12.47C10.86 11.63 9.98 11.13 9 11.13C8.02 11.13 7.14 11.63 6.64 12.47L2.35 19.61C2.21 19.84 2.21 20.13 2.35 20.37C2.48 20.6 2.73 20.75 3 20.75H15C15.27 20.75 15.52 20.6 15.65 20.37C15.78 20.13 15.78 19.85 15.65 19.61L11.36 12.47Z" fill="black"/>
<path d="M12 10.75C13.5188 10.75 14.75 9.51878 14.75 8C14.75 6.48122 13.5188 5.25 12 5.25C10.4812 5.25 9.25 6.48122 9.25 8C9.25 9.51878 10.4812 10.75 12 10.75Z" fill="black"/>
<path d="M12 4.75C12.41 4.75 12.75 4.41 12.75 4V3C12.75 2.59 12.41 2.25 12 2.25C11.59 2.25 11.25 2.59 11.25 3V4C11.25 4.41 11.59 4.75 12 4.75Z" fill="black"/>
<path d="M15 5.75C15.19 5.75 15.38 5.68 15.53 5.53L16.24 4.82C16.53 4.53 16.53 4.05 16.24 3.76C15.95 3.47 15.47 3.47 15.18 3.76L14.47 4.47C14.18 4.76 14.18 5.24 14.47 5.53C14.62 5.68 14.81 5.75 15 5.75Z" fill="black"/>
<path d="M8.47 5.53C8.62 5.68 8.80999 5.75 8.99999 5.75C9.18999 5.75 9.37999 5.68 9.52999 5.53C9.81999 5.24 9.81999 4.76 9.52999 4.47L8.81999 3.76C8.52999 3.47 8.05 3.47 7.76 3.76C7.47 4.05 7.47 4.53 7.76 4.82L8.47 5.53Z" fill="black"/>
<path d="M15.25 8C15.25 8.41 15.59 8.75 16 8.75H17C17.41 8.75 17.75 8.41 17.75 8C17.75 7.59 17.41 7.25 17 7.25H16C15.59 7.25 15.25 7.59 15.25 8Z" fill="black"/>
<path d="M7 8.75H8C8.41 8.75 8.75 8.41 8.75 8C8.75 7.59 8.41 7.25 8 7.25H7C6.59 7.25 6.25 7.59 6.25 8C6.25 8.41 6.59 8.75 7 8.75Z" fill="black"/>
<path d="M21.64 19.61L17.35 12.47C16.85 11.63 15.97 11.13 14.99 11.13C14.16 11.13 13.41 11.51 12.9 12.13L16.92 18.83C17.27 19.41 17.32 20.11 17.09 20.74H20.99C21.26 20.74 21.51 20.59 21.64 20.36C21.77 20.12 21.77 19.84 21.64 19.6V19.61Z" fill="black"/>
</svg>
