<svg width="24" height="24" viewBox="0 0 24 24" fill="none" xmlns="http://www.w3.org/2000/svg">
<path d="M14.23 18.99C14.23 19.95 15.02 20.74 15.98 20.74H17.98C18.94 20.74 19.73 19.95 19.73 18.99V17.74H14.23V18.99Z" fill="black"/>
<path d="M4.22999 18.99C4.22999 19.95 5.01999 20.74 5.97999 20.74H7.97999C8.93999 20.74 9.72999 19.95 9.72999 18.99V17.74H4.22999V18.99Z" fill="black"/>
<path d="M2.76999 10.24H21.2L21.66 9.32999C21.85 8.95999 21.7 8.50999 21.32 8.31999C20.97 8.13999 20.55 8.27999 20.35 8.60999L20 6.53999C19.78 5.20999 18.64 4.23999 17.29 4.23999H6.67999C5.32999 4.23999 4.18999 5.20999 3.96999 6.53999L3.62999 8.60999C3.42999 8.27999 3.00999 8.13999 2.65999 8.31999C2.28999 8.50999 2.13999 8.95999 2.31999 9.32999L2.77999 10.24H2.76999Z" fill="black"/>
<path d="M20.47 11.74H3.50999C2.81999 11.74 2.25999 12.3 2.25999 12.99V15C2.25999 15.33 2.38999 15.65 2.62999 15.88C2.85999 16.11 3.15999 16.23 3.47999 16.24H20.47C20.8 16.24 21.12 16.1 21.35 15.87C21.58 15.64 21.72 15.32 21.72 14.99V13C21.72 12.31 21.16 11.75 20.47 11.75V11.74ZM7.97999 14.74H5.97999C5.56999 14.74 5.22999 14.4 5.22999 13.99C5.22999 13.58 5.56999 13.24 5.97999 13.24H7.97999C8.38999 13.24 8.72999 13.58 8.72999 13.99C8.72999 14.4 8.38999 14.74 7.97999 14.74ZM17.98 14.74H15.98C15.57 14.74 15.23 14.4 15.23 13.99C15.23 13.58 15.57 13.24 15.98 13.24H17.98C18.39 13.24 18.73 13.58 18.73 13.99C18.73 14.4 18.39 14.74 17.98 14.74Z" fill="black"/>
</svg>
