<svg width="24" height="24" viewBox="0 0 24 24" fill="none" xmlns="http://www.w3.org/2000/svg">
<path d="M12 10.75C10.76 10.75 9.75 11.76 9.75 13C9.75 14.24 10.76 15.25 12 15.25C13.24 15.25 14.25 14.24 14.25 13C14.25 11.76 13.24 10.75 12 10.75ZM12.02 13.75C11.61 13.75 11.27 13.41 11.27 13C11.27 12.59 11.6 12.25 12.02 12.25C12.44 12.25 12.77 12.59 12.77 13C12.77 13.41 12.44 13.75 12.02 13.75Z" fill="black"/>
<path d="M18 6.25H6C3.93 6.25 2.25 7.93 2.25 10V16C2.25 18.07 3.93 19.75 6 19.75H18C20.07 19.75 21.75 18.07 21.75 16V10C21.75 7.93 20.07 6.25 18 6.25ZM12 16.75C9.93 16.75 8.25 15.07 8.25 13C8.25 10.93 9.93 9.25 12 9.25C14.07 9.25 15.75 10.93 15.75 13C15.75 15.07 14.07 16.75 12 16.75Z" fill="black"/>
<path d="M10.72 4.75C10.6 3.9 9.87 3.25 9 3.25H6C5.04 3.25 4.25 4.04 4.25 5V5.07C4.8 4.87 5.38 4.75 6 4.75H10.72Z" fill="black"/>
</svg>
