<svg width="24" height="24" viewBox="0 0 24 24" fill="none" xmlns="http://www.w3.org/2000/svg">
<path d="M19.74 13.97C19.74 9.94997 16.66 6.63997 12.74 6.25997V5.71997H13.99C14.4 5.71997 14.74 5.37997 14.74 4.96997C14.74 4.55997 14.4 4.21997 13.99 4.21997H9.98999C9.57999 4.21997 9.23999 4.55997 9.23999 4.96997C9.23999 5.37997 9.57999 5.71997 9.98999 5.71997H11.24V6.25997C7.31999 6.63997 4.23999 9.94997 4.23999 13.97V14.22H19.74V13.97Z" fill="black"/>
<path d="M21.43 15.72H2.54999C2.35999 16.09 2.23999 16.52 2.23999 16.97C2.23999 17.93 3.02999 18.72 3.98999 18.72H19.99C20.95 18.72 21.74 17.93 21.74 16.97C21.74 16.52 21.63 16.09 21.43 15.72Z" fill="black"/>
</svg>
