<svg width="24" height="24" viewBox="0 0 24 24" fill="none" xmlns="http://www.w3.org/2000/svg">
<path d="M20 7.25H11.3C10.67 6.07 9.44 5.25 8 5.25H6C3.93 5.25 2.25 6.93 2.25 9V18C2.25 20.07 3.93 21.75 6 21.75H8C10.07 21.75 11.75 20.07 11.75 18V15.75H20C20.96 15.75 21.75 14.96 21.75 14V9C21.75 8.04 20.96 7.25 20 7.25ZM10.25 18C10.25 19.24 9.24 20.25 8 20.25H6C4.76 20.25 3.75 19.24 3.75 18V9C3.75 7.76 4.76 6.75 6 6.75H8C9.24 6.75 10.25 7.76 10.25 9V18ZM20.25 14C20.25 14.14 20.14 14.25 20 14.25H11.75V9C11.75 8.91 11.73 8.83 11.72 8.75H20C20.14 8.75 20.25 8.86 20.25 9V14Z" fill="black"/>
<path d="M7 8.25C6.04 8.25 5.25 9.04 5.25 10C5.25 10.96 6.04 11.75 7 11.75C7.96 11.75 8.75 10.96 8.75 10C8.75 9.04 7.96 8.25 7 8.25ZM6.75 10C6.75 9.86 6.86 9.75 7 9.75C7.14 9.75 7.25 9.86 7.25 10C7.25 10.28 6.75 10.28 6.75 10Z" fill="black"/>
<path d="M18 10.25H14C13.59 10.25 13.25 10.59 13.25 11C13.25 11.41 13.59 11.75 14 11.75H18C18.41 11.75 18.75 11.41 18.75 11C18.75 10.59 18.41 10.25 18 10.25Z" fill="black"/>
</svg>
