<svg width="24" height="24" viewBox="0 0 24 24" fill="none" xmlns="http://www.w3.org/2000/svg">
<path d="M12 14.2L8.59 18.47L8.38 18.75H15.65L15.43 18.49L12 14.2Z" fill="black"/>
<path d="M21.5 17.44C20.11 16.22 18.79 14.9 17.57 13.51C15.76 11.44 14.14 9.18004 12.76 6.80004V12.75L16.6 17.54L17.64 18.76H21.02C21.33 18.76 21.61 18.57 21.72 18.27C21.83 17.98 21.75 17.65 21.51 17.44H21.5Z" fill="black"/>
<path d="M11.25 6.79004C9.86 9.18004 8.25 11.44 6.44 13.5C5.22 14.89 3.9 16.21 2.51 17.43C2.28 17.64 2.19 17.97 2.3 18.26C2.41 18.55 2.69 18.75 3 18.75H6.5L7.4 17.55L11.25 12.74V6.79004Z" fill="black"/>
</svg>
