<svg width="24" height="24" viewBox="0 0 24 24" fill="none" xmlns="http://www.w3.org/2000/svg">
<path d="M21.18 11.5899C21.7 11.0799 21.88 10.3399 21.66 9.64987C21.44 8.95987 20.85 8.45987 20.13 8.35987L15.9 7.73987C15.77 7.71987 15.66 7.63987 15.6 7.51987L13.71 3.67987C13.39 3.02987 12.74 2.61987 12.01 2.61987C11.28 2.61987 10.63 3.02987 10.31 3.67987L8.42004 7.51987C8.36004 7.63987 8.25004 7.71987 8.12004 7.73987L3.89004 8.35987C3.17004 8.45987 2.58004 8.95987 2.36004 9.64987C2.14004 10.3399 2.32004 11.0899 2.84004 11.5899L5.90004 14.5799C5.99004 14.6699 6.04004 14.7999 6.01004 14.9299L5.29004 19.1499C5.17004 19.8699 5.46004 20.5799 6.04004 20.9999C6.63004 21.4299 7.39004 21.4799 8.04004 21.1499L11.83 19.1599C11.95 19.0999 12.08 19.0999 12.2 19.1599L15.99 21.1499C16.27 21.2999 16.57 21.3699 16.87 21.3699C17.26 21.3699 17.65 21.2499 17.98 21.0099C18.57 20.5799 18.86 19.8699 18.73 19.1599L18.01 14.9399C17.99 14.8099 18.03 14.6799 18.12 14.5899L21.18 11.5999V11.5899ZM17.07 13.4999C16.62 13.9399 16.42 14.5599 16.52 15.1799L17.24 19.3999C17.28 19.6199 17.14 19.7399 17.08 19.7899C17.02 19.8299 16.86 19.9199 16.66 19.8199L12.87 17.8299C12.59 17.6799 12.29 17.6099 11.99 17.6099C11.69 17.6099 11.38 17.6799 11.11 17.8299L7.32004 19.8199C7.12004 19.9199 6.96004 19.8299 6.90004 19.7899C6.84004 19.7499 6.71004 19.6199 6.74004 19.3999L7.46004 15.1799C7.57004 14.5599 7.36004 13.9399 6.91004 13.4999L3.85004 10.5099C3.69004 10.3599 3.73004 10.1699 3.75004 10.0999C3.77004 10.0299 3.85004 9.85987 4.07004 9.82987L8.30004 9.20987C8.92004 9.11987 9.45004 8.72987 9.73004 8.16987L11.62 4.32987C11.72 4.12987 11.9 4.10987 11.98 4.10987C12.06 4.10987 12.24 4.12987 12.34 4.32987L14.23 8.16987C14.51 8.72987 15.04 9.11987 15.66 9.20987L19.89 9.82987C20.11 9.85987 20.19 10.0299 20.21 10.0999C20.23 10.1699 20.27 10.3499 20.11 10.5099L17.05 13.4999H17.07Z" fill="black"/>
</svg>
