<svg width="24" height="24" viewBox="0 0 24 24" fill="none" xmlns="http://www.w3.org/2000/svg">
<path d="M21.56 13.5C18 9.55999 13.35 9.24999 12 9.24999C6.68998 9.24999 3.33998 12.5 2.43998 13.5C2.17998 13.79 2.17998 14.22 2.43998 14.5C5.99998 18.44 10.65 18.75 12 18.75C17.31 18.75 20.66 15.5 21.56 14.5C21.82 14.21 21.82 13.78 21.56 13.5ZM15.25 14C15.25 15.79 13.79 17.25 12 17.25C10.21 17.25 8.74998 15.79 8.74998 14C8.74998 12.21 10.21 10.75 12 10.75C13.79 10.75 15.25 12.21 15.25 14ZM7.97998 11.5C7.52998 12.23 7.24998 13.08 7.24998 14C7.24998 14.92 7.51998 15.76 7.96998 16.49C6.69998 16.01 5.30998 15.25 4.03998 14.01C4.78998 13.29 6.11998 12.22 7.97998 11.51V11.5ZM16.02 16.5C16.47 15.77 16.75 14.92 16.75 14C16.75 13.08 16.48 12.24 16.03 11.51C17.3 11.99 18.69 12.75 19.96 13.99C19.21 14.71 17.88 15.78 16.02 16.49V16.5Z" fill="black"/>
<path d="M2.99998 10.75C3.19998 10.75 3.40998 10.67 3.55998 10.5C4.34998 9.61999 7.30998 6.74999 12 6.74999C13.19 6.74999 17.3 7.01999 20.44 10.5C20.72 10.81 21.19 10.83 21.5 10.55C21.81 10.27 21.83 9.79999 21.55 9.48999C17.99 5.54999 13.34 5.23999 11.99 5.23999C6.67998 5.23999 3.32998 8.48999 2.42998 9.48999C2.14998 9.79999 2.17998 10.27 2.47998 10.55C2.61998 10.68 2.79998 10.74 2.97998 10.74L2.99998 10.75Z" fill="black"/>
</svg>
