<svg width="24" height="24" viewBox="0 0 24 24" fill="none" xmlns="http://www.w3.org/2000/svg">
<path d="M11.49 2.21997C8.03999 2.21997 5.23999 5.01997 5.23999 8.46997C5.23999 9.70997 6.24999 10.72 7.48999 10.72C8.72999 10.72 9.73999 9.70997 9.73999 8.46997C9.73999 7.50997 10.53 6.71997 11.49 6.71997C12.45 6.71997 13.24 7.50997 13.24 8.46997C13.24 9.64997 12.49 10.73 11.39 11.15L7.02999 12.78C5.95999 13.18 5.24999 14.22 5.24999 15.36V19.97C5.24999 20.93 6.03999 21.72 6.99999 21.72H15.99C16.95 21.72 17.74 20.93 17.74 19.97V8.46997C17.74 5.01997 14.94 2.21997 11.49 2.21997ZM13.99 17.72H8.98999C8.57999 17.72 8.23999 17.38 8.23999 16.97C8.23999 16.56 8.57999 16.22 8.98999 16.22H13.99C14.4 16.22 14.74 16.56 14.74 16.97C14.74 17.38 14.4 17.72 13.99 17.72Z" fill="black"/>
</svg>
