<svg width="24" height="24" viewBox="0 0 24 24" fill="none" xmlns="http://www.w3.org/2000/svg">
<path d="M20.57 12.78C19.83 12.78 18.54 12.6 17.47 11.53C16.09 10.15 16.19 8.41 16.25 7.95V7.25H15.75V7C15.75 5.48 14.52 4.25 13 4.25H11C9.48 4.25 8.25 5.48 8.25 7V7.25H7.75V7.95C7.81 8.41 7.91 10.15 6.53 11.53C5.46 12.6 4.17 12.78 3.43 12.78C3.22 12.78 3.05 12.77 2.95 12.75H2.25V14.25H2.95C3.41 14.19 5.15 14.09 6.53 15.47C7.91 16.85 7.81 18.59 7.75 19.05V19.75H16.25V19.05C16.19 18.59 16.09 16.85 17.47 15.47C18.85 14.09 20.59 14.19 21.05 14.25H21.75V12.75H21.05C20.95 12.76 20.78 12.78 20.57 12.78ZM9.75 7C9.75 6.31 10.31 5.75 11 5.75H13C13.69 5.75 14.25 6.31 14.25 7V7.25H9.75V7ZM15.75 14C15.75 14.96 14.96 15.75 14 15.75H10C9.04 15.75 8.25 14.96 8.25 14V13C8.25 12.04 9.04 11.25 10 11.25H14C14.96 11.25 15.75 12.04 15.75 13V14Z" fill="black"/>
<path d="M14 12.75H10C9.86193 12.75 9.75 12.8619 9.75 13V14C9.75 14.1381 9.86193 14.25 10 14.25H14C14.1381 14.25 14.25 14.1381 14.25 14V13C14.25 12.8619 14.1381 12.75 14 12.75Z" fill="black"/>
<path d="M18 7.25H17.75V8C17.75 8 17.75 8.07 17.75 8.11C17.73 8.25 17.58 9.51 18.54 10.47C19.5 11.43 20.76 11.28 20.9 11.26C20.94 11.26 20.97 11.26 21.01 11.26H21.76V11.01C21.76 8.94 20.08 7.26 18.01 7.26L18 7.25Z" fill="black"/>
<path d="M20.89 15.74C20.75 15.72 19.48 15.57 18.53 16.53C17.57 17.49 17.72 18.75 17.74 18.89C17.74 18.93 17.74 18.96 17.74 19V19.75H17.99C20.06 19.75 21.74 18.07 21.74 16V15.75H20.99C20.99 15.75 20.92 15.75 20.88 15.75L20.89 15.74Z" fill="black"/>
<path d="M3.11 11.26C3.25 11.28 4.52 11.43 5.47 10.47C6.43 9.51 6.28 8.25 6.26 8.11C6.26 8.07 6.26 8.04 6.26 8V7.25H6.01C3.94 7.25 2.26 8.93 2.26 11V11.25H3.01C3.01 11.25 3.08 11.25 3.12 11.25L3.11 11.26Z" fill="black"/>
<path d="M3.11 15.74C3.11 15.74 3.04 15.74 3 15.74H2.25V15.99C2.25 18.06 3.93 19.74 6 19.74H6.25V18.99C6.25 18.99 6.25 18.92 6.25 18.88C6.27 18.74 6.42 17.47 5.46 16.52C4.5 15.56 3.24 15.71 3.1 15.73L3.11 15.74Z" fill="black"/>
</svg>
