<svg width="24" height="24" viewBox="0 0 24 24" fill="none" xmlns="http://www.w3.org/2000/svg">
<path d="M16.98 6.73999H15.98C15.84 6.73999 15.73 6.84999 15.73 6.98999V8.98999C15.73 9.94999 14.94 10.74 13.98 10.74H9.98004C9.02004 10.74 8.23004 9.94999 8.23004 8.98999V6.98999C8.23004 6.84999 8.12004 6.73999 7.98004 6.73999H6.98004C6.84004 6.73999 6.73004 6.84999 6.73004 6.98999V16.99C6.73004 17.13 6.84004 17.24 6.98004 17.24H7.98004C8.12004 17.24 8.23004 17.13 8.23004 16.99V14.99C8.23004 14.03 9.02004 13.24 9.98004 13.24H13.98C14.94 13.24 15.73 14.03 15.73 14.99V16.99C15.73 17.13 15.84 17.24 15.98 17.24H16.98C17.12 17.24 17.23 17.13 17.23 16.99V6.98999C17.23 6.84999 17.12 6.73999 16.98 6.73999Z" fill="black"/>
<path d="M17.98 2.23999H5.98004C3.91004 2.23999 2.23004 3.91999 2.23004 5.98999V17.99C2.23004 20.06 3.91004 21.74 5.98004 21.74H17.98C20.05 21.74 21.73 20.06 21.73 17.99V5.98999C21.73 3.91999 20.05 2.23999 17.98 2.23999ZM18.73 16.99C18.73 17.95 17.94 18.74 16.98 18.74H15.98C15.02 18.74 14.23 17.95 14.23 16.99V14.99C14.23 14.85 14.12 14.74 13.98 14.74H9.98004C9.84004 14.74 9.73004 14.85 9.73004 14.99V16.99C9.73004 17.95 8.94004 18.74 7.98004 18.74H6.98004C6.02004 18.74 5.23004 17.95 5.23004 16.99V6.98999C5.23004 6.02999 6.02004 5.23999 6.98004 5.23999H7.98004C8.94004 5.23999 9.73004 6.02999 9.73004 6.98999V8.98999C9.73004 9.12999 9.84004 9.23999 9.98004 9.23999H13.98C14.12 9.23999 14.23 9.12999 14.23 8.98999V6.98999C14.23 6.02999 15.02 5.23999 15.98 5.23999H16.98C17.94 5.23999 18.73 6.02999 18.73 6.98999V16.99Z" fill="black"/>
</svg>
