<svg width="24" height="24" viewBox="0 0 24 24" fill="none" xmlns="http://www.w3.org/2000/svg">
<path d="M8.73004 12.99V7.98999C8.73004 6.19999 10.19 4.73999 11.98 4.73999H15.7C15.57 3.33999 14.41 2.23999 12.98 2.23999H4.98004C3.46004 2.23999 2.23004 3.46999 2.23004 4.98999V18.99C2.23004 20.51 3.46004 21.74 4.98004 21.74H12.98C14.5 21.74 15.73 20.51 15.73 18.99V16.24H11.98C10.19 16.24 8.73004 14.78 8.73004 12.99ZM9.98004 18.74H7.98004C7.57004 18.74 7.23004 18.4 7.23004 17.99C7.23004 17.58 7.57004 17.24 7.98004 17.24H9.98004C10.39 17.24 10.73 17.58 10.73 17.99C10.73 18.4 10.39 18.74 9.98004 18.74Z" fill="black"/>
<path d="M11.44 6.32999L11.98 6.82999L15.83 9.89999C15.92 9.96999 16.05 9.96999 16.14 9.89999L20.19 6.65999L20.55 6.33999C20.37 6.27999 20.18 6.23999 19.98 6.23999H11.98C11.79 6.23999 11.61 6.27999 11.44 6.32999Z" fill="black"/>
<path d="M21.62 7.38999L21.15 7.80999L17.07 11.07C16.75 11.33 16.36 11.46 15.98 11.46C15.6 11.46 15.21 11.33 14.89 11.07L11 7.95999L10.35 7.35999C10.28 7.54999 10.23 7.75999 10.23 7.97999V12.98C10.23 13.94 11.02 14.73 11.98 14.73H19.98C20.94 14.73 21.73 13.94 21.73 12.98V7.98999C21.73 7.77999 21.69 7.57999 21.62 7.39999V7.38999Z" fill="black"/>
</svg>
