<svg width="24" height="24" viewBox="0 0 24 24" fill="none" xmlns="http://www.w3.org/2000/svg">
<path d="M20.54 8.10999C20.03 7.91999 19.68 7.61999 19.51 7.45999C19.22 7.16999 19 6.81999 18.86 6.42999C18.61 5.71999 17.94 5.23999 17.2 5.23999H14.73V7.98999C14.73 8.39999 14.39 8.73999 13.98 8.73999C13.57 8.73999 13.23 8.39999 13.23 7.98999V5.23999H6.76004C6.02004 5.23999 5.37004 5.70999 5.10004 6.42999C4.91004 6.93999 4.61004 7.28999 4.45004 7.45999C4.16004 7.74999 3.81004 7.96999 3.42004 8.10999C2.71004 8.35999 2.23004 9.02999 2.23004 9.76999V14.22C2.23004 14.96 2.70004 15.61 3.42004 15.88C3.91004 16.06 4.25004 16.33 4.45004 16.53C4.74004 16.82 4.96004 17.17 5.10004 17.56C5.35004 18.27 6.02004 18.75 6.76004 18.75H13.23V16C13.23 15.59 13.57 15.25 13.98 15.25C14.39 15.25 14.73 15.59 14.73 16V18.75H17.2C17.94 18.75 18.59 18.28 18.86 17.56C19.05 17.05 19.35 16.69 19.51 16.53C19.8 16.24 20.15 16.02 20.54 15.88C21.25 15.63 21.73 14.96 21.73 14.22V9.76999C21.73 9.02999 21.26 8.37999 20.54 8.10999ZM14.73 12.99C14.73 13.4 14.39 13.74 13.98 13.74C13.57 13.74 13.23 13.4 13.23 12.99V10.99C13.23 10.58 13.57 10.24 13.98 10.24C14.39 10.24 14.73 10.58 14.73 10.99V12.99Z" fill="black"/>
</svg>
