<svg width="24" height="24" viewBox="0 0 24 24" fill="none" xmlns="http://www.w3.org/2000/svg">
<path d="M6.86001 13.0502L4.38001 15.5302L8.44001 19.5902L10.91 17.1102C10.04 16.6902 9.23001 16.1402 8.53001 15.4302C7.82001 14.7202 7.27001 13.9102 6.86001 13.0502Z" fill="black"/>
<path d="M2.85001 17.0602C1.73001 18.1802 1.73001 20.0002 2.85001 21.1202C3.41001 21.6802 4.14001 21.9602 4.88001 21.9602C5.62001 21.9602 6.35001 21.6802 6.91001 21.1202L7.38001 20.6502L3.32001 16.5902L2.85001 17.0602Z" fill="black"/>
<path d="M19.65 4.32018C16.88 1.55018 12.37 1.55018 9.59001 4.32018C6.82001 7.09018 6.82001 11.6002 9.59001 14.3802C10.98 15.7702 12.8 16.4602 14.62 16.4602C16.44 16.4602 18.26 15.7702 19.65 14.3802C22.42 11.6102 22.42 7.10018 19.65 4.32018ZM14.62 13.6002C12.28 13.6002 10.37 11.6902 10.37 9.35018C10.37 7.01018 12.28 5.10018 14.62 5.10018C16.96 5.10018 18.87 7.01018 18.87 9.35018C18.87 11.6902 16.96 13.6002 14.62 13.6002Z" fill="black"/>
</svg>
