<svg width="24" height="24" viewBox="0 0 24 24" fill="none" xmlns="http://www.w3.org/2000/svg">
<path d="M15.77 9.80997C15.39 9.42997 15.21 8.89997 15.27 8.36997C15.33 7.83997 15.63 7.35997 16.1 7.07997L20.03 4.67997L21.14 3.94997C20.57 3.05997 19.64 2.43997 18.55 2.27997L2.23999 12.31V15.53L2.60999 15.31L10.44 10.53C11.15 10.1 12.08 10.22 12.64 10.84L21.11 20.02C21.5 19.43 21.73 18.72 21.73 17.96V15.67L20.47 14.51L15.76 9.79997L15.77 9.80997Z" fill="black"/>
<path d="M21.68 5.38997L20.83 5.94997L16.87 8.36997C16.78 8.42997 16.76 8.50997 16.75 8.54997C16.75 8.58997 16.75 8.67997 16.82 8.75997L21.51 13.45L21.73 13.65V5.96997C21.73 5.76997 21.7 5.57997 21.67 5.38997H21.68Z" fill="black"/>
<path d="M11.54 11.86C11.46 11.77 11.33 11.75 11.22 11.82L3.37999 16.61L2.23999 17.27V17.97C2.23999 20.04 3.91999 21.72 5.98999 21.72H17.99C18.75 21.72 19.45 21.49 20.04 21.11L19.45 20.49L11.54 11.86Z" fill="black"/>
<path d="M5.98999 2.21997C3.91999 2.21997 2.23999 3.89997 2.23999 5.96997V10.55L15.78 2.21997H5.98999Z" fill="black"/>
</svg>
