<svg width="24" height="24" viewBox="0 0 24 24" fill="none" xmlns="http://www.w3.org/2000/svg">
<path d="M20.02 12.8L16.63 11.45L15.96 8.75H16C16.41 8.75 16.75 8.41 16.75 8C16.75 7.59 16.41 7.25 16 7.25H14.75V5C14.75 4.04 13.96 3.25 13 3.25H10C9.28 3.25 8.67 3.68 8.4 4.3C8.27 4.27 8.14 4.25 8 4.25H7C6.04 4.25 5.25 5.04 5.25 6V7.25H5C4.59 7.25 4.25 7.59 4.25 8C4.25 8.41 4.59 8.75 5 8.75H5.09L4.43 12.05C4.41 12.17 4.3 12.25 4.18 12.25H4C3.04 12.25 2.25 13.04 2.25 14V17C2.25 17.96 3.04 18.75 4 18.75H5.28C5.41 19.87 6.35 20.75 7.5 20.75C8.65 20.75 9.6 19.87 9.72 18.75H14.27C14.4 19.87 15.34 20.75 16.49 20.75C17.64 20.75 18.59 19.87 18.71 18.75H19.99C20.95 18.75 21.74 17.96 21.74 17V15.35C21.74 14.22 21.06 13.22 20.01 12.8H20.02ZM15.12 11.6L14.29 12.01C13.98 12.17 13.63 12.25 13.28 12.25H11.74V8.75H14.4L15.11 11.6H15.12ZM9.74 5C9.74 4.86 9.85 4.75 9.99 4.75H12.99C13.13 4.75 13.24 4.86 13.24 5V7.25H9.74V5ZM6.74 6C6.74 5.86 6.85 5.75 6.99 5.75H7.99C8.13 5.75 8.24 5.86 8.24 6V7.25H6.74V6ZM6.61 8.75H10.24V12.25H5.92L6.62 8.75H6.61ZM7.49 19.25C7.08 19.25 6.74 18.91 6.74 18.5C6.74 18.09 7.08 17.75 7.49 17.75C7.9 17.75 8.24 18.09 8.24 18.5C8.24 18.91 7.9 19.25 7.49 19.25ZM16.49 19.25C16.08 19.25 15.74 18.91 15.74 18.5C15.74 18.09 16.08 17.75 16.49 17.75C16.9 17.75 17.24 18.09 17.24 18.5C17.24 18.91 16.9 19.25 16.49 19.25ZM20.24 17C20.24 17.14 20.13 17.25 19.99 17.25H18.36C17.96 16.65 17.27 16.25 16.49 16.25C15.71 16.25 15.03 16.65 14.62 17.25H9.36C8.96 16.65 8.27 16.25 7.49 16.25C6.71 16.25 6.03 16.65 5.62 17.25H3.99C3.85 17.25 3.74 17.14 3.74 17V14C3.74 13.86 3.85 13.75 3.99 13.75H13.29C13.87 13.75 14.45 13.61 14.97 13.35L16.04 12.82L19.47 14.19C19.95 14.38 20.26 14.84 20.26 15.35V17H20.24Z" fill="black"/>
</svg>
