<svg width="24" height="24" viewBox="0 0 24 24" fill="none" xmlns="http://www.w3.org/2000/svg">
<path d="M18 11.25H14.75V9.75002H15.7C16.05 9.75002 16.38 9.65002 16.67 9.46002L19.42 7.63002C19.63 7.49002 19.75 7.26002 19.75 7.01002C19.75 6.76002 19.62 6.52002 19.42 6.39002L16.67 4.56002C16.38 4.37002 16.05 4.27002 15.7 4.27002H14.75V4.02002C14.75 3.06002 13.96 2.27002 13 2.27002H12C11.04 2.27002 10.25 3.06002 10.25 4.02002V4.27002H6C5.04 4.27002 4.25 5.06002 4.25 6.02002V8.02002C4.25 8.98002 5.04 9.77002 6 9.77002H10.25V11.27H8.3C7.95 11.27 7.62 11.37 7.33 11.56L4.58 13.39C4.37 13.53 4.25 13.76 4.25 14.01C4.25 14.26 4.38 14.5 4.58 14.63L7.33 16.46C7.62 16.65 7.95 16.75 8.3 16.75H10.25V21C10.25 21.41 10.59 21.75 11 21.75H14C14.41 21.75 14.75 21.41 14.75 21V16.75H18C18.96 16.75 19.75 15.96 19.75 15V13C19.75 12.04 18.96 11.25 18 11.25ZM11.75 4.00002C11.75 3.86002 11.86 3.75002 12 3.75002H13C13.14 3.75002 13.25 3.86002 13.25 4.00002V4.25002H11.75V4.00002ZM5.75 8.00002V6.00002C5.75 5.86002 5.86 5.75002 6 5.75002H15.7C15.7 5.75002 15.8 5.76002 15.84 5.79002L17.65 7.00002L15.84 8.21002C15.84 8.21002 15.75 8.25002 15.7 8.25002H6C5.86 8.25002 5.75 8.14002 5.75 8.00002ZM11.75 9.75002H13.25V11.25H11.75V9.75002ZM13.25 20.25H11.75V16.75H13.25V20.25ZM18.25 15C18.25 15.14 18.14 15.25 18 15.25H8.3C8.3 15.25 8.2 15.24 8.16 15.21L6.35 14L8.16 12.79C8.16 12.79 8.25 12.75 8.3 12.75H18C18.14 12.75 18.25 12.86 18.25 13V15Z" fill="black"/>
</svg>
