<svg width="24" height="24" viewBox="0 0 24 24" fill="none" xmlns="http://www.w3.org/2000/svg">
<path d="M18.89 5.11001C15.09 1.31001 8.9 1.31001 5.1 5.11001C1.3 8.91001 1.3 15.1 5.1 18.9C7 20.8 9.5 21.75 11.99 21.75C14.48 21.75 16.98 20.8 18.88 18.9C22.68 15.1 22.68 8.91001 18.88 5.11001H18.89ZM17.83 17.84C14.61 21.06 9.38 21.06 6.16 17.84C2.94 14.62 2.94 9.39001 6.16 6.17001C7.77 4.56001 9.88 3.76001 11.99 3.76001C14.1 3.76001 16.22 4.56001 17.82 6.17001C21.04 9.39001 21.04 14.62 17.82 17.84H17.83Z" fill="black"/>
<path d="M16 7.05001L10.58 8.86001C9.76 9.13001 9.11 9.78001 8.84 10.6L7.04 16.02C6.95 16.29 7.02 16.59 7.22 16.79C7.36 16.93 7.55 17.01 7.75 17.01C7.83 17.01 7.91 17 7.99 16.97L13.41 15.16C14.23 14.89 14.88 14.24 15.15 13.42L16.95 8.00001C17.04 7.73001 16.97 7.43001 16.77 7.23001C16.57 7.03001 16.27 6.96001 16 7.05001ZM13.72 12.94C13.6 13.31 13.3 13.61 12.93 13.73L8.94 15.06L10.27 11.07C10.39 10.7 10.69 10.4 11.06 10.28L15.05 8.95001L13.72 12.94Z" fill="black"/>
<path d="M12.02 6.75001C12.44 6.75001 12.77 6.41001 12.77 6.00001C12.77 5.59001 12.44 5.25001 12.02 5.25001C11.61 5.25001 11.27 5.59001 11.27 6.00001C11.27 6.41001 11.61 6.75001 12.02 6.75001Z" fill="black"/>
<path d="M18.02 11.25C17.61 11.25 17.27 11.59 17.27 12C17.27 12.41 17.61 12.75 18.02 12.75C18.43 12.75 18.77 12.41 18.77 12C18.77 11.59 18.44 11.25 18.02 11.25Z" fill="black"/>
<path d="M12.02 17.25C11.61 17.25 11.27 17.59 11.27 18C11.27 18.41 11.61 18.75 12.02 18.75C12.43 18.75 12.77 18.41 12.77 18C12.77 17.59 12.44 17.25 12.02 17.25Z" fill="black"/>
<path d="M6.02 11.25C5.61 11.25 5.27 11.59 5.27 12C5.27 12.41 5.61 12.75 6.02 12.75C6.43 12.75 6.77 12.41 6.77 12C6.77 11.59 6.44 11.25 6.02 11.25Z" fill="black"/>
</svg>
