<svg width="24" height="24" viewBox="0 0 24 24" fill="none" xmlns="http://www.w3.org/2000/svg">
<path d="M17.73 6.98999C17.73 6.02999 16.94 5.23999 15.98 5.23999H14.73V6.98999C14.73 7.39999 14.39 7.73999 13.98 7.73999C13.57 7.73999 13.23 7.39999 13.23 6.98999V5.23999H14.71L14.73 3.98999C14.73 3.57999 14.39 3.23999 13.98 3.23999C13.57 3.23999 13.23 3.57999 13.23 3.98999L13.21 5.23999H6.73004V6.98999C6.73004 7.39999 6.39004 7.73999 5.98004 7.73999C5.57004 7.73999 5.23004 7.39999 5.23004 6.98999V5.23999H6.71004L6.73004 3.98999C6.73004 3.57999 6.39004 3.23999 5.98004 3.23999C5.57004 3.23999 5.23004 3.57999 5.23004 3.98999L5.21004 5.23999H3.98004C3.02004 5.23999 2.23004 6.02999 2.23004 6.98999V9.23999H17.73V6.98999Z" fill="black"/>
<path d="M14.52 16.46C14.81 16.75 14.81 17.23 14.52 17.52C14.37 17.67 14.18 17.74 13.99 17.74C13.8 17.74 13.61 17.67 13.46 17.52L11.46 15.52C11.17 15.23 11.17 14.75 11.46 14.46L13.46 12.46C13.75 12.17 14.23 12.17 14.52 12.46C14.81 12.75 14.81 13.23 14.52 13.52L13.8 14.24H17.74V10.74H2.23004V17.99C2.23004 19.51 3.46004 20.74 4.98004 20.74H14.98C16.5 20.74 17.73 19.51 17.73 17.99V15.74H13.79L14.51 16.46H14.52Z" fill="black"/>
<path d="M20.98 14.24H17.73V15.74H20.98C21.39 15.74 21.73 15.4 21.73 14.99C21.73 14.58 21.39 14.24 20.98 14.24Z" fill="black"/>
</svg>
