<svg width="24" height="24" viewBox="0 0 24 24" fill="none" xmlns="http://www.w3.org/2000/svg">
<path d="M20.43 11.47C19.6 10.86 18.59 10.67 17.64 10.91C17.62 10.51 17.47 10.12 17.19 9.82002C16.86 9.46002 16.39 9.25002 15.9 9.25002H4.09999C3.60999 9.25002 3.13999 9.46002 2.80999 9.82002C2.47999 10.18 2.30999 10.67 2.35999 11.16L3.00999 18.34C3.18999 20.28 4.78999 21.75 6.73999 21.75H13.26C15.08 21.75 16.58 20.48 16.92 18.73C16.95 18.73 16.97 18.75 17 18.75H18.07C19.56 18.75 20.85 17.79 21.28 16.36L21.65 15.12C22.06 13.75 21.58 12.32 20.44 11.47H20.43ZM15.5 18.2C15.39 19.37 14.43 20.25 13.26 20.25H6.73999C5.56999 20.25 4.60999 19.37 4.49999 18.2L4.18999 14.75H12C12.41 14.75 12.75 14.41 12.75 14C12.75 13.59 12.41 13.25 12 13.25H4.04999L3.84999 11.02C3.84999 10.92 3.88999 10.86 3.90999 10.83C3.93999 10.8 3.99999 10.75 4.09999 10.75H15.9C16 10.75 16.06 10.8 16.09 10.83C16.12 10.86 16.16 10.93 16.15 11.02L15.5 18.2ZM20.21 14.69L19.84 15.93C19.6 16.72 18.89 17.25 18.07 17.25H17.1L17.53 12.57C18.29 12.12 19.07 12.32 19.55 12.68C20.05 13.05 20.5 13.78 20.22 14.7L20.21 14.69Z" fill="black"/>
<path d="M9.65999 7.67002C9.76999 7.72002 9.87999 7.75002 9.98999 7.75002C10.26 7.75002 10.53 7.60002 10.66 7.34002C10.85 6.97002 10.7 6.52002 10.32 6.33002C10.03 6.18002 9.87999 6.07002 9.79999 6.02002C9.93999 5.90002 10.2 5.75002 10.37 5.65002C10.98 5.29002 11.74 4.84002 11.74 4.00002C11.74 3.04002 10.68 2.50002 10.33 2.33002C9.95999 2.15002 9.50999 2.29002 9.31999 2.67002C9.12999 3.04002 9.27999 3.49002 9.65999 3.68002C9.94999 3.83002 10.1 3.94002 10.18 3.99002C10.04 4.11002 9.77999 4.26002 9.60999 4.36002C8.99999 4.72002 8.23999 5.17002 8.23999 6.01002C8.23999 6.97002 9.29999 7.51002 9.64999 7.68002L9.65999 7.67002Z" fill="black"/>
<path d="M13.66 7.67002C13.77 7.72002 13.88 7.75002 13.99 7.75002C14.26 7.75002 14.53 7.60002 14.66 7.34002C14.85 6.97002 14.7 6.52002 14.32 6.33002C14.03 6.18002 13.88 6.07002 13.8 6.02002C13.94 5.90002 14.2 5.75002 14.37 5.65002C14.98 5.29002 15.74 4.84002 15.74 4.00002C15.74 3.04002 14.68 2.50002 14.33 2.33002C13.96 2.15002 13.51 2.29002 13.32 2.67002C13.13 3.04002 13.28 3.49002 13.66 3.68002C13.95 3.83002 14.1 3.94002 14.18 3.99002C14.04 4.11002 13.78 4.26002 13.61 4.36002C13 4.72002 12.24 5.17002 12.24 6.01002C12.24 6.97002 13.3 7.51002 13.65 7.68002L13.66 7.67002Z" fill="black"/>
<path d="M5.65999 7.67002C5.76999 7.72002 5.87999 7.75002 5.98999 7.75002C6.25999 7.75002 6.52999 7.60002 6.65999 7.34002C6.84999 6.97002 6.69999 6.52002 6.31999 6.33002C6.02999 6.18002 5.87999 6.07002 5.79999 6.02002C5.93999 5.90002 6.19999 5.75002 6.36999 5.65002C6.97999 5.29002 7.73999 4.84002 7.73999 4.00002C7.73999 3.04002 6.67999 2.50002 6.32999 2.33002C5.95999 2.15002 5.50999 2.29002 5.31999 2.67002C5.12999 3.04002 5.27999 3.49002 5.65999 3.68002C5.94999 3.83002 6.09999 3.94002 6.17999 3.99002C6.03999 4.11002 5.77999 4.26002 5.60999 4.36002C4.99999 4.72002 4.23999 5.17002 4.23999 6.01002C4.23999 6.97002 5.29999 7.51002 5.64999 7.68002L5.65999 7.67002Z" fill="black"/>
</svg>
