<svg width="24" height="24" viewBox="0 0 24 24" fill="none" xmlns="http://www.w3.org/2000/svg">
<path d="M21.03 14.94C21.49 14.57 21.75 14.03 21.75 13.44C21.75 12.69 21.33 12.03 20.66 11.71C19.99 11.39 19.21 11.48 18.63 11.94L16.63 13.54C16.06 14 15.33 14.25 14.6 14.25H12.75V9.75H18.05C18.99 9.75 19.75 8.99 19.75 8.05C19.75 4.85 17.15 2.25 13.95 2.25H10.06C6.86 2.25 4.26 4.85 4.26 8.05C4.26 8.99 5.02 9.75 5.96 9.75H11.26V14.25H4.17C3.11 14.25 2.25 15.11 2.25 16.17V16.83C2.25 17.89 3.11 18.75 4.17 18.75H5.6L4.38 20.58C4.15 20.92 4.24 21.39 4.59 21.62C4.72 21.7 4.86 21.75 5.01 21.75C5.25 21.75 5.49 21.63 5.63 21.42L7.41 18.75H14.61L16.39 21.42C16.53 21.64 16.77 21.75 17.01 21.75C17.15 21.75 17.3 21.71 17.43 21.62C17.77 21.39 17.87 20.92 17.64 20.58L16.23 18.46C16.72 18.28 17.18 18.03 17.58 17.71L21.04 14.94H21.03ZM10.63 5.4C10.99 4.83 11.46 4.33 12 3.91C12.54 4.32 13.01 4.83 13.37 5.4C14.02 6.43 14.22 7.48 14.26 8.25H9.75C9.79 7.48 9.99 6.43 10.64 5.4H10.63ZM18.25 8.05C18.25 8.16 18.16 8.25 18.05 8.25H15.75C15.71 7.28 15.47 5.93 14.63 4.6C14.44 4.3 14.22 4.03 13.99 3.76C16.34 3.79 18.25 5.7 18.25 8.06V8.05ZM5.75 8.05C5.75 5.69 7.66 3.78 10.01 3.75C9.78 4.02 9.56 4.3 9.37 4.59C8.53 5.92 8.29 7.27 8.25 8.24H5.95C5.84 8.24 5.75 8.15 5.75 8.04V8.05ZM4.17 17.25C3.94 17.25 3.75 17.06 3.75 16.83V16.17C3.75 15.94 3.94 15.75 4.17 15.75H14.6C15.67 15.75 16.73 15.38 17.57 14.71L19.57 13.11C19.76 12.96 19.94 13.03 20.02 13.06C20.09 13.09 20.26 13.2 20.26 13.44C20.26 13.57 20.2 13.69 20.1 13.77L16.64 16.54C16.07 17 15.34 17.25 14.61 17.25H4.17Z" fill="black"/>
</svg>
