<svg width="24" height="24" viewBox="0 0 24 24" fill="none" xmlns="http://www.w3.org/2000/svg">
<path d="M21.02 12.25C20.35 12.23 19.36 12.07 18.45 11.4C18.13 11.16 17.85 10.88 17.6 10.55C17.32 10.17 16.68 10.17 16.4 10.55C16.16 10.88 15.87 11.16 15.55 11.4C14.64 12.07 13.65 12.24 12.98 12.25C12.57 12.25 12.25 12.59 12.25 13V16C12.25 17.49 12.96 18.91 14.15 19.8L16.55 21.6C16.68 21.7 16.84 21.75 17 21.75C17.16 21.75 17.32 21.7 17.45 21.6L19.85 19.8C21.04 18.91 21.75 17.49 21.75 16V13C21.75 12.59 21.42 12.26 21.02 12.25ZM20.25 16C20.25 17.02 19.76 17.99 18.95 18.6L17 20.06L15.05 18.6C14.24 17.99 13.75 17.02 13.75 16V13.69C14.56 13.58 15.53 13.29 16.45 12.6C16.64 12.46 16.83 12.3 17 12.13C17.17 12.3 17.36 12.46 17.55 12.6C18.47 13.28 19.44 13.58 20.25 13.69V16Z" fill="black"/>
<path d="M11 18.25H6C5.31 18.25 4.75 17.69 4.75 17V5C4.75 4.31 5.31 3.75 6 3.75H16C16.69 3.75 17.25 4.31 17.25 5V8C17.25 8.41 17.59 8.75 18 8.75C18.41 8.75 18.75 8.41 18.75 8V5C18.75 3.48 17.52 2.25 16 2.25H6C4.48 2.25 3.25 3.48 3.25 5V17C3.25 18.52 4.48 19.75 6 19.75H11C11.41 19.75 11.75 19.41 11.75 19C11.75 18.59 11.41 18.25 11 18.25Z" fill="black"/>
<path d="M7 6.25C6.59 6.25 6.25 6.59 6.25 7C6.25 7.41 6.59 7.75 7 7.75H14C14.41 7.75 14.75 7.41 14.75 7C14.75 6.59 14.41 6.25 14 6.25H7Z" fill="black"/>
<path d="M11 10.25H7C6.59 10.25 6.25 10.59 6.25 11C6.25 11.41 6.59 11.75 7 11.75H11C11.41 11.75 11.75 11.41 11.75 11C11.75 10.59 11.41 10.25 11 10.25Z" fill="black"/>
<path d="M9 15.75C9.41 15.75 9.75 15.41 9.75 15C9.75 14.59 9.41 14.25 9 14.25H7C6.59 14.25 6.25 14.59 6.25 15C6.25 15.41 6.59 15.75 7 15.75H9Z" fill="black"/>
</svg>
