<svg width="24" height="24" viewBox="0 0 24 24" fill="none" xmlns="http://www.w3.org/2000/svg">
<path d="M11.99 11.2199C12.6803 11.2199 13.24 10.6602 13.24 9.96986C13.24 9.27951 12.6803 8.71986 11.99 8.71986C11.2996 8.71986 10.74 9.27951 10.74 9.96986C10.74 10.6602 11.2996 11.2199 11.99 11.2199Z" fill="black"/>
<path d="M12.81 2.26986C10.91 2.02986 9.06999 2.60986 7.61999 3.88986C6.10999 5.22986 5.23999 7.17986 5.23999 9.24986V9.50986C5.23999 11.5399 5.80999 13.4999 6.87999 15.1799L10.52 20.8999C10.84 21.4099 11.39 21.7099 11.98 21.7099C12.57 21.7099 13.12 21.4099 13.44 20.8999L17.08 15.1799C18.15 13.4899 18.72 11.5299 18.72 9.50986C18.72 5.79986 16.17 2.67986 12.79 2.26986H12.81ZM11.99 12.7199C10.47 12.7199 9.23999 11.4899 9.23999 9.96986C9.23999 8.44986 10.47 7.21986 11.99 7.21986C13.51 7.21986 14.74 8.44986 14.74 9.96986C14.74 11.4899 13.51 12.7199 11.99 12.7199Z" fill="black"/>
</svg>
