<svg width="24" height="24" viewBox="0 0 24 24" fill="none" xmlns="http://www.w3.org/2000/svg">
<path d="M21.22 2.78C20.88 2.44 20.43 2.25 19.95 2.25H19.94L13.92 2.29C13.44 2.29 12.98 2.49 12.64 2.83L3.08999 12.38C1.95999 13.51 1.94999 15.34 3.06999 16.45L7.55999 20.94C8.10999 21.49 8.83999 21.77 9.57999 21.77C10.32 21.77 11.07 21.48 11.64 20.92L21.18 11.38C21.52 11.04 21.71 10.58 21.72 10.1L21.76 4.08C21.76 3.59 21.58 3.14 21.23 2.79L21.22 2.78ZM20.2 10.08C20.2 10.16 20.16 10.25 20.1 10.31L10.56 19.85C10.02 20.39 9.13999 20.4 8.60999 19.87L4.11999 15.38C3.58999 14.85 3.59999 13.97 4.13999 13.43L13.69 3.89C13.75 3.83 13.84 3.79 13.92 3.79L19.94 3.75C20.05 3.75 20.12 3.8 20.15 3.84C20.18 3.87 20.24 3.94 20.24 4.06L20.2 10.08Z" fill="black"/>
<path d="M13.67 6.28C12.54 7.41 12.53 9.24 13.65 10.35C14.2 10.9 14.93 11.18 15.67 11.18C16.41 11.18 17.16 10.9 17.73 10.33C18.86 9.2 18.87 7.37 17.75 6.26C16.63 5.14 14.81 5.15 13.68 6.28H13.67ZM16.66 9.27C16.11 9.81 15.24 9.82 14.71 9.29C14.18 8.76 14.19 7.88 14.73 7.34C15.01 7.06 15.37 6.93 15.73 6.93C16.09 6.93 16.42 7.06 16.69 7.32C17.22 7.85 17.21 8.73 16.67 9.27H16.66Z" fill="black"/>
</svg>
