<svg width="24" height="24" viewBox="0 0 24 24" fill="none" xmlns="http://www.w3.org/2000/svg">
<path d="M2.98997 10.72C3.18997 10.72 3.39997 10.64 3.54997 10.47C4.33997 9.58996 7.29997 6.71996 11.99 6.71996C13.18 6.71996 17.29 6.98996 20.43 10.47C20.71 10.78 21.18 10.8 21.49 10.52C21.8 10.24 21.82 9.76996 21.54 9.45996C17.98 5.51996 13.33 5.20996 11.98 5.20996C6.66997 5.20996 3.31997 8.45996 2.41997 9.45996C2.13997 9.76996 2.16997 10.24 2.46997 10.52C2.60997 10.65 2.78997 10.71 2.96997 10.71L2.98997 10.72Z" fill="black"/>
<path d="M11.99 17.22C13.7849 17.22 15.24 15.7649 15.24 13.97C15.24 12.175 13.7849 10.72 11.99 10.72C10.195 10.72 8.73997 12.175 8.73997 13.97C8.73997 15.7649 10.195 17.22 11.99 17.22Z" fill="black"/>
<path d="M7.23997 13.97C7.23997 11.35 9.36997 9.21996 11.99 9.21996C6.67997 9.21996 3.32997 12.47 2.42997 13.47C2.16997 13.76 2.16997 14.19 2.42997 14.47C5.98997 18.41 10.64 18.72 11.99 18.72C9.36997 18.72 7.23997 16.59 7.23997 13.97Z" fill="black"/>
<path d="M21.55 13.47C17.99 9.52996 13.34 9.21996 11.99 9.21996C14.61 9.21996 16.74 11.35 16.74 13.97C16.74 16.59 14.61 18.72 11.99 18.72C17.3 18.72 20.65 15.47 21.55 14.47C21.81 14.18 21.81 13.75 21.55 13.46V13.47Z" fill="black"/>
</svg>
