<svg width="24" height="24" viewBox="0 0 24 24" fill="none" xmlns="http://www.w3.org/2000/svg">
<path d="M7 12.25C4.38 12.25 2.25 14.38 2.25 17C2.25 19.62 4.38 21.75 7 21.75C9.62 21.75 11.75 19.62 11.75 17C11.75 14.38 9.62 12.25 7 12.25ZM7 20.25C5.21 20.25 3.75 18.79 3.75 17C3.75 15.21 5.21 13.75 7 13.75C8.79 13.75 10.25 15.21 10.25 17C10.25 18.79 8.79 20.25 7 20.25Z" fill="black"/>
<path d="M17 2.25C14.38 2.25 12.25 4.38 12.25 7C12.25 9.62 14.38 11.75 17 11.75C19.62 11.75 21.75 9.62 21.75 7C21.75 4.38 19.62 2.25 17 2.25ZM17 10.25C15.21 10.25 13.75 8.79 13.75 7C13.75 5.21 15.21 3.75 17 3.75C18.79 3.75 20.25 5.21 20.25 7C20.25 8.79 18.79 10.25 17 10.25Z" fill="black"/>
<path d="M6.47 10.53C6.62 10.68 6.81 10.75 7 10.75C7.19 10.75 7.38 10.68 7.53 10.53L9.53 8.53C9.82 8.24 9.82 7.76 9.53 7.47C9.24 7.18 8.76 7.18 8.47 7.47L7.75 8.19V7C7.75 6.31 8.31 5.75 9 5.75H10C10.41 5.75 10.75 5.41 10.75 5C10.75 4.59 10.41 4.25 10 4.25H9C7.48 4.25 6.25 5.48 6.25 7V8.19L5.53 7.47C5.24 7.18 4.76 7.18 4.47 7.47C4.18 7.76 4.18 8.24 4.47 8.53L6.47 10.53Z" fill="black"/>
<path d="M17.53 13.47C17.24 13.18 16.76 13.18 16.47 13.47L14.47 15.47C14.18 15.76 14.18 16.24 14.47 16.53C14.76 16.82 15.24 16.82 15.53 16.53L16.25 15.81V17C16.25 17.69 15.69 18.25 15 18.25H14C13.59 18.25 13.25 18.59 13.25 19C13.25 19.41 13.59 19.75 14 19.75H15C16.52 19.75 17.75 18.52 17.75 17V15.81L18.47 16.53C18.62 16.68 18.81 16.75 19 16.75C19.19 16.75 19.38 16.68 19.53 16.53C19.82 16.24 19.82 15.76 19.53 15.47L17.53 13.47Z" fill="black"/>
</svg>
