<svg width="24" height="24" viewBox="0 0 24 24" fill="none" xmlns="http://www.w3.org/2000/svg">
<path d="M18.79 11.8C19.38 11.21 19.75 10.4 19.75 9.5C19.75 7.71 18.29 6.25 16.5 6.25C14.71 6.25 13.25 7.71 13.25 9.5C13.25 10.4 13.62 11.21 14.21 11.8C12.47 12.65 11.25 14.43 11.25 16.5V17.25H3.75V16.5C3.75 14.43 5.43 12.75 7.5 12.75C9.29 12.75 10.75 11.29 10.75 9.5C10.75 7.71 9.29 6.25 7.5 6.25C5.71 6.25 4.25 7.71 4.25 9.5C4.25 10.4 4.62 11.21 5.21 11.8C3.47 12.65 2.25 14.43 2.25 16.5V18C2.25 18.41 2.59 18.75 3 18.75H21C21.41 18.75 21.75 18.41 21.75 18V16.5C21.75 14.43 20.54 12.65 18.79 11.8ZM5.75 9.5C5.75 8.54 6.54 7.75 7.5 7.75C8.46 7.75 9.25 8.54 9.25 9.5C9.25 10.46 8.46 11.25 7.5 11.25C6.54 11.25 5.75 10.46 5.75 9.5ZM14.75 9.5C14.75 8.54 15.54 7.75 16.5 7.75C17.46 7.75 18.25 8.54 18.25 9.5C18.25 10.46 17.46 11.25 16.5 11.25C15.54 11.25 14.75 10.46 14.75 9.5ZM20.25 17.25H12.75V16.5C12.75 14.43 14.43 12.75 16.5 12.75C18.57 12.75 20.25 14.43 20.25 16.5V17.25Z" fill="black"/>
</svg>
