<svg width="24" height="24" viewBox="0 0 24 24" fill="none" xmlns="http://www.w3.org/2000/svg">
<path d="M18 2.25H6C3.93 2.25 2.25 3.93 2.25 6V18C2.25 20.07 3.93 21.75 6 21.75H18C20.07 21.75 21.75 20.07 21.75 18V6C21.75 3.93 20.07 2.25 18 2.25ZM20.25 12.19L16.84 8.78C16.77 8.71 16.76 8.62 16.77 8.57C16.77 8.53 16.8 8.44 16.89 8.39L20.25 6.34V12.19ZM19.89 4.8L16.1 7.11C15.64 7.39 15.34 7.86 15.27 8.4C15.2 8.94 15.39 9.46 15.77 9.84L20.24 14.31V18C20.24 18.33 20.16 18.65 20.03 18.93L12.64 10.87C12.08 10.26 11.15 10.13 10.44 10.56L3.75 14.66V11.42L16.21 3.75H18C18.8 3.75 19.5 4.17 19.89 4.8ZM6 3.75H13.35L3.75 9.66V6C3.75 4.76 4.76 3.75 6 3.75ZM6 20.25C4.76 20.25 3.75 19.24 3.75 18V16.42L11.24 11.85C11.34 11.79 11.47 11.81 11.55 11.89L18.99 20.01C18.69 20.16 18.36 20.25 18 20.25H6Z" fill="black"/>
</svg>
