<svg width="24" height="24" viewBox="0 0 24 24" fill="none" xmlns="http://www.w3.org/2000/svg">
<path d="M17 17.25C16.59 17.25 16.25 17.59 16.25 18C16.25 18.69 15.69 19.25 15 19.25H5C4.31 19.25 3.75 18.69 3.75 18V10.75H16.25V12C16.25 12.41 16.59 12.75 17 12.75C17.41 12.75 17.75 12.41 17.75 12V7C17.75 6.04 16.96 5.25 16 5.25H14.75V4C14.75 3.59 14.41 3.25 14 3.25C13.59 3.25 13.25 3.59 13.25 4V5.25H6.75V4C6.75 3.59 6.41 3.25 6 3.25C5.59 3.25 5.25 3.59 5.25 4V5.25H4C3.04 5.25 2.25 6.04 2.25 7V18C2.25 19.52 3.48 20.75 5 20.75H15C16.52 20.75 17.75 19.52 17.75 18C17.75 17.59 17.41 17.25 17 17.25ZM4 6.75H5.25V7C5.25 7.41 5.59 7.75 6 7.75C6.41 7.75 6.75 7.41 6.75 7V6.75H13.25V7C13.25 7.41 13.59 7.75 14 7.75C14.41 7.75 14.75 7.41 14.75 7V6.75H16C16.14 6.75 16.25 6.86 16.25 7V9.25H3.75V7C3.75 6.86 3.86 6.75 4 6.75Z" fill="black"/>
<path d="M21 14.25H13.81L14.53 13.53C14.82 13.24 14.82 12.76 14.53 12.47C14.24 12.18 13.76 12.18 13.47 12.47L11.47 14.47C11.18 14.76 11.18 15.24 11.47 15.53L13.47 17.53C13.62 17.68 13.81 17.75 14 17.75C14.19 17.75 14.38 17.68 14.53 17.53C14.82 17.24 14.82 16.76 14.53 16.47L13.81 15.75H21C21.41 15.75 21.75 15.41 21.75 15C21.75 14.59 21.41 14.25 21 14.25Z" fill="black"/>
</svg>
