<svg width="24" height="24" viewBox="0 0 24 24" fill="none" xmlns="http://www.w3.org/2000/svg">
<path d="M21.64 19.61L17.35 12.47C16.85 11.63 15.97 11.13 14.99 11.13C14.01 11.13 13.13 11.63 12.63 12.47L11.99 13.54L11.35 12.47C10.85 11.63 9.96999 11.13 8.98998 11.13C8.00998 11.13 7.12999 11.63 6.62999 12.47L2.33999 19.61C2.19999 19.84 2.19999 20.13 2.33999 20.37C2.46999 20.6 2.71999 20.75 2.98999 20.75H21C21.27 20.75 21.52 20.6 21.65 20.37C21.78 20.13 21.78 19.85 21.65 19.61H21.64ZM4.31999 19.25L7.91999 13.24C8.37999 12.48 9.60999 12.48 10.06 13.24L13.66 19.25H4.31999ZM15.42 19.25L12.87 15L13.92 13.24C14.38 12.48 15.61 12.48 16.06 13.24L19.66 19.25H15.41H15.42Z" fill="black"/>
<path d="M12 10.75C13.52 10.75 14.75 9.52 14.75 8C14.75 6.48 13.52 5.25 12 5.25C10.48 5.25 9.24999 6.48 9.24999 8C9.24999 9.52 10.48 10.75 12 10.75ZM12 6.75C12.69 6.75 13.25 7.31 13.25 8C13.25 8.69 12.69 9.25 12 9.25C11.31 9.25 10.75 8.69 10.75 8C10.75 7.31 11.31 6.75 12 6.75Z" fill="black"/>
<path d="M12 4.75C12.41 4.75 12.75 4.41 12.75 4V3C12.75 2.59 12.41 2.25 12 2.25C11.59 2.25 11.25 2.59 11.25 3V4C11.25 4.41 11.59 4.75 12 4.75Z" fill="black"/>
<path d="M15 5.75C15.19 5.75 15.38 5.68 15.53 5.53L16.24 4.82C16.53 4.53 16.53 4.05 16.24 3.76C15.95 3.47 15.47 3.47 15.18 3.76L14.47 4.47C14.18 4.76 14.18 5.24 14.47 5.53C14.62 5.68 14.81 5.75 15 5.75Z" fill="black"/>
<path d="M8.46999 5.53C8.61999 5.68 8.80998 5.75 8.99998 5.75C9.18998 5.75 9.37998 5.68 9.52998 5.53C9.81998 5.24 9.81998 4.76 9.52998 4.47L8.81998 3.76C8.52998 3.47 8.04999 3.47 7.75999 3.76C7.46999 4.05 7.46999 4.53 7.75999 4.82L8.46999 5.53Z" fill="black"/>
<path d="M15.25 8C15.25 8.41 15.59 8.75 16 8.75H17C17.41 8.75 17.75 8.41 17.75 8C17.75 7.59 17.41 7.25 17 7.25H16C15.59 7.25 15.25 7.59 15.25 8Z" fill="black"/>
<path d="M6.99999 8.75H7.99999C8.40999 8.75 8.74999 8.41 8.74999 8C8.74999 7.59 8.40999 7.25 7.99999 7.25H6.99999C6.58999 7.25 6.24999 7.59 6.24999 8C6.24999 8.41 6.58999 8.75 6.99999 8.75Z" fill="black"/>
</svg>
