<svg width="24" height="24" viewBox="0 0 24 24" fill="none" xmlns="http://www.w3.org/2000/svg">
<path d="M21.3299 6.83018C20.9999 6.18018 20.4299 5.69018 19.7299 5.47018C19.0299 5.25018 18.2899 5.31018 17.6299 5.64018L14.5199 7.24018C14.4499 7.28018 14.3699 7.28018 14.2999 7.24018L10.4799 5.38018C10.1299 5.21018 9.70992 5.21018 9.35992 5.39018L7.62992 6.28018C7.23992 6.48018 6.98992 6.86018 6.95992 7.29018C6.92992 7.73018 7.10992 8.14018 7.46992 8.40018L9.43992 9.85018L7.36992 10.9102L6.18992 10.0402C5.80992 9.76018 5.29992 9.72018 4.87992 9.94018L3.05992 10.8802C2.71992 11.0602 2.47992 11.3802 2.39992 11.7602C2.31992 12.1402 2.42992 12.5302 2.68992 12.8202L4.46992 14.8602C4.91992 15.3802 5.54992 15.7002 6.22992 15.7802L8.43992 16.0302C8.53992 16.0402 8.64992 16.0502 8.74992 16.0502C9.17992 16.0502 9.60992 15.9502 9.99992 15.7502L20.1399 10.5502C21.4899 9.86018 22.0199 8.20018 21.3299 6.85018V6.83018ZM20.0699 8.47018C19.9699 8.79018 19.7499 9.05018 19.4499 9.20018L9.30992 14.4002C9.08992 14.5102 8.83992 14.5602 8.59992 14.5302L6.38992 14.2802C6.07992 14.2402 5.79992 14.1002 5.58992 13.8602L4.01992 12.0602L5.41992 11.3402L6.59992 12.2102C6.97992 12.4902 7.48992 12.5302 7.90992 12.3102L10.4699 10.9902C10.8599 10.7902 11.1099 10.4102 11.1499 9.98018C11.1899 9.55018 10.9999 9.13018 10.6399 8.87018L8.65992 7.42018L9.91992 6.78018L13.6299 8.59018C14.1199 8.83018 14.7099 8.82018 15.1899 8.57018L18.2999 6.97018C18.5999 6.82018 18.9399 6.79018 19.2499 6.89018C19.5699 6.99018 19.8299 7.21018 19.9799 7.51018C20.1299 7.81018 20.1599 8.15018 20.0599 8.46018L20.0699 8.47018Z" fill="black"/>
<path d="M18.9999 18.2502H4.99992C4.58992 18.2502 4.24992 18.5902 4.24992 19.0002C4.24992 19.4102 4.58992 19.7502 4.99992 19.7502H18.9999C19.4099 19.7502 19.7499 19.4102 19.7499 19.0002C19.7499 18.5902 19.4099 18.2502 18.9999 18.2502Z" fill="black"/>
</svg>
