<svg width="24" height="24" viewBox="0 0 24 24" fill="none" xmlns="http://www.w3.org/2000/svg">
<path d="M14.51 6.90999L14.9 7.48999C15.52 8.41999 15.4 9.65999 14.61 10.45L13.98 11.08C13.79 11.27 13.71 11.52 13.74 11.78C13.77 12.04 13.92 12.27 14.15 12.4L15.17 13.01C16.26 13.67 17.62 13.6 18.64 12.83L20.52 11.42L21.61 10.33C21.15 7.66999 19.62 5.36999 17.47 3.91999L14.75 5.72999C14.36 5.98999 14.26 6.51999 14.51 6.90999Z" fill="black"/>
<path d="M10.28 17.06C10.22 16.97 10.05 16.75 9.71999 16.75C9.06999 16.75 8.45999 16.46 8.04999 15.96C7.63999 15.46 7.47999 14.8 7.59999 14.17L7.87999 12.77C8.02999 12.01 7.61999 11.26 6.89999 10.97L2.63999 9.26999C2.38999 10.14 2.23999 11.05 2.23999 12C2.23999 16.18 4.88999 19.74 8.58999 21.13L10.3 17.71C10.45 17.41 10.33 17.16 10.27 17.07L10.28 17.06Z" fill="black"/>
<path d="M21.53 12.53C21.53 12.53 21.48 12.58 21.45 12.6L19.53 14.04C18.71 14.66 17.74 14.97 16.76 14.97C15.94 14.97 15.12 14.75 14.38 14.31L13.36 13.7C12.74 13.33 12.33 12.7 12.24 11.97C12.15 11.25 12.4 10.54 12.91 10.02L13.54 9.38999C13.82 9.09999 13.87 8.64999 13.65 8.31999L13.26 7.73999C12.54 6.65999 12.83 5.19999 13.91 4.47999L15.98 3.09999C14.76 2.54999 13.42 2.23999 12 2.23999C8.09999 2.23999 4.73999 4.53999 3.17999 7.85999L7.45999 9.56999C8.84999 10.13 9.63999 11.59 9.34999 13.06L9.06999 14.46C9.01999 14.73 9.12999 14.92 9.20999 15.01C9.27999 15.1 9.44999 15.25 9.71999 15.25C10.47 15.25 11.16 15.63 11.56 16.27C11.96 16.91 11.99 17.7 11.65 18.37L10.06 21.55C10.69 21.68 11.34 21.74 12 21.74C17.27 21.74 21.56 17.54 21.73 12.32L21.53 12.52V12.53Z" fill="black"/>
</svg>
