<svg width="24" height="24" viewBox="0 0 24 24" fill="none" xmlns="http://www.w3.org/2000/svg">
<path d="M18 7.25H15.75V7C15.75 5.48 14.52 4.25 13 4.25H11C9.48 4.25 8.25 5.48 8.25 7V7.25H6C3.93 7.25 2.25 8.93 2.25 11V16C2.25 18.07 3.93 19.75 6 19.75H18C20.07 19.75 21.75 18.07 21.75 16V11C21.75 8.93 20.07 7.25 18 7.25ZM16.23 18.25H7.76C7.71 17.49 7.46 16.4 6.53 15.47C5.6 14.54 4.51 14.29 3.75 14.24V12.77C4.51 12.72 5.6 12.46 6.53 11.53C7.46 10.6 7.71 9.51 7.76 8.75H16.23C16.28 9.51 16.53 10.6 17.47 11.53C18.4 12.46 19.49 12.72 20.25 12.77V14.24C19.49 14.29 18.4 14.54 17.47 15.47C16.54 16.4 16.28 17.5 16.23 18.25ZM20.25 11V11.26C19.76 11.21 19.1 11.04 18.53 10.47C17.96 9.9 17.79 9.23 17.74 8.75H18C19.24 8.75 20.25 9.76 20.25 11ZM9.75 7C9.75 6.31 10.31 5.75 11 5.75H13C13.69 5.75 14.25 6.31 14.25 7V7.25H9.75V7ZM6 8.75H6.26C6.21 9.24 6.04 9.9 5.47 10.47C4.9 11.04 4.24 11.21 3.75 11.26V11C3.75 9.76 4.76 8.75 6 8.75ZM3.75 16V15.74C4.24 15.79 4.9 15.96 5.47 16.53C6.04 17.1 6.21 17.76 6.26 18.25H6C4.76 18.25 3.75 17.24 3.75 16ZM18 18.25H17.74C17.79 17.77 17.96 17.1 18.53 16.53C19.1 15.96 19.76 15.79 20.25 15.74V16C20.25 17.24 19.24 18.25 18 18.25Z" fill="black"/>
<path d="M14 11.25H10C9.04 11.25 8.25 12.04 8.25 13V14C8.25 14.96 9.04 15.75 10 15.75H14C14.96 15.75 15.75 14.96 15.75 14V13C15.75 12.04 14.96 11.25 14 11.25ZM14.25 14C14.25 14.14 14.14 14.25 14 14.25H10C9.86 14.25 9.75 14.14 9.75 14V13C9.75 12.86 9.86 12.75 10 12.75H14C14.14 12.75 14.25 12.86 14.25 13V14Z" fill="black"/>
</svg>
