<svg width="24" height="24" viewBox="0 0 24 24" fill="none" xmlns="http://www.w3.org/2000/svg">
<path d="M19.7 15.88C20.34 15.29 20.75 14.44 20.75 13.5C20.75 11.71 19.29 10.25 17.5 10.25C15.71 10.25 14.25 11.71 14.25 13.5C14.25 14.44 14.66 15.29 15.3 15.88C14.07 16.63 13.25 17.96 13.25 19.5V21C13.25 21.41 13.59 21.75 14 21.75H21C21.41 21.75 21.75 21.41 21.75 21V19.5C21.75 17.96 20.92 16.63 19.7 15.88ZM15.75 13.5C15.75 12.54 16.54 11.75 17.5 11.75C18.46 11.75 19.25 12.54 19.25 13.5C19.25 14.46 18.46 15.25 17.5 15.25C16.54 15.25 15.75 14.46 15.75 13.5ZM20.25 20.25H14.75V19.5C14.75 17.98 15.98 16.75 17.5 16.75C19.02 16.75 20.25 17.98 20.25 19.5V20.25Z" fill="black"/>
<path d="M11 18.25H6.75V4C6.75 3.86 6.86 3.75 7 3.75H16C16.14 3.75 16.25 3.86 16.25 4V8C16.25 8.41 16.59 8.75 17 8.75C17.41 8.75 17.75 8.41 17.75 8V4C17.75 3.04 16.96 2.25 16 2.25H7C6.04 2.25 5.25 3.04 5.25 4V18.25H4C3.59 18.25 3.25 18.59 3.25 19C3.25 19.41 3.59 19.75 4 19.75H11C11.41 19.75 11.75 19.41 11.75 19C11.75 18.59 11.41 18.25 11 18.25Z" fill="black"/>
</svg>
