<svg width="24" height="24" viewBox="0 0 24 24" fill="none" xmlns="http://www.w3.org/2000/svg">
<path d="M18.89 5.11C17.05 3.27 14.6 2.25 12 2.25C9.40001 2.25 6.95001 3.26 5.11001 5.11C1.31001 8.91 1.31001 15.1 5.11001 18.9C6.95001 20.74 9.40001 21.76 12 21.76C14.6 21.76 17.05 20.75 18.89 18.9C22.69 15.1 22.69 8.91 18.89 5.11ZM17.83 17.84C16.27 19.4 14.2 20.26 12 20.26C9.80001 20.26 7.72001 19.4 6.17001 17.84C2.95001 14.62 2.95001 9.39 6.17001 6.17C7.73001 4.61 9.80001 3.75 12 3.75C14.2 3.75 16.28 4.61 17.83 6.17C21.05 9.39 21.05 14.62 17.83 17.84Z" fill="black"/>
<path d="M14.55 6.75L10.08 8.11C9.16001 8.39 8.39001 9.16 8.11001 10.08L6.75001 14.55C6.50001 15.39 6.67001 16.22 7.23001 16.77C7.62001 17.16 8.14001 17.36 8.71001 17.36C8.95001 17.36 9.20001 17.32 9.45001 17.25L13.92 15.89C14.84 15.61 15.61 14.84 15.89 13.92L17.25 9.45C17.5 8.61 17.33 7.78 16.77 7.23C16.22 6.67 15.38 6.5 14.55 6.75ZM15.82 9.01L14.46 13.48C14.32 13.93 13.93 14.32 13.49 14.45L9.02001 15.81C8.72001 15.9 8.45001 15.86 8.30001 15.71C8.14001 15.55 8.10001 15.29 8.20001 14.99L9.56001 10.52C9.70001 10.07 10.09 9.68 10.53 9.55L15 8.19C15.11 8.16 15.21 8.14 15.31 8.14C15.48 8.14 15.63 8.19 15.73 8.29C15.89 8.45 15.93 8.71 15.83 9.01H15.82Z" fill="black"/>
<path d="M12.02 11.25C11.61 11.25 11.27 11.59 11.27 12C11.27 12.41 11.61 12.75 12.02 12.75C12.43 12.75 12.77 12.41 12.77 12C12.77 11.59 12.44 11.25 12.02 11.25Z" fill="black"/>
</svg>
