<svg width="24" height="24" viewBox="0 0 24 24" fill="none" xmlns="http://www.w3.org/2000/svg">
<path d="M7.64995 8.74985L8.30996 10.2999C8.42996 10.5799 8.70995 10.7499 8.99995 10.7499C9.09995 10.7499 9.19995 10.7299 9.28995 10.6899C9.66995 10.5299 9.84996 10.0899 9.67996 9.69985L6.68995 2.69985C6.44995 2.14985 5.54995 2.14985 5.30995 2.69985L2.30995 9.69985C2.14995 10.0799 2.31995 10.5199 2.69995 10.6899C3.07995 10.8499 3.51995 10.6799 3.67995 10.2999L4.33995 8.74985H7.64995ZM5.99995 4.89985L7.00995 7.24985H4.99995L6.00995 4.89985H5.99995Z" fill="black"/>
<path d="M21.01 20.2499C20.61 20.2499 19.94 20.1799 19.24 19.8599C20.19 18.7899 20.55 17.5399 20.68 16.7499H21.01C21.42 16.7499 21.76 16.4099 21.76 15.9999C21.76 15.5899 21.42 15.2499 21.01 15.2499H18.76V13.9999C18.76 13.5899 18.42 13.2499 18.01 13.2499C17.6 13.2499 17.26 13.5899 17.26 13.9999V15.2499H15.01C14.6 15.2499 14.26 15.5899 14.26 15.9999C14.26 16.4099 14.6 16.7499 15.01 16.7499H15.34C15.47 17.5499 15.83 18.7899 16.78 19.8599C16.07 20.1799 15.4 20.2399 15.01 20.2499C14.6 20.2499 14.26 20.5899 14.27 21.0099C14.27 21.4199 14.61 21.7499 15.02 21.7499C15.66 21.7499 16.85 21.6199 18.01 20.8999C19.18 21.6099 20.36 21.7399 21 21.7499C21.41 21.7499 21.75 21.4199 21.75 21.0099C21.75 20.5999 21.42 20.2599 21.01 20.2499ZM19.15 16.7499C19.02 17.3799 18.72 18.2599 18 18.9899C17.28 18.2499 16.98 17.3799 16.85 16.7499H19.15Z" fill="black"/>
<path d="M9.52995 15.4699C9.23995 15.1799 8.75995 15.1799 8.46995 15.4699C8.17996 15.7599 8.17996 16.2399 8.46995 16.5299L9.18995 17.2499H7.99995C7.30995 17.2499 6.74995 16.6899 6.74995 15.9999V13.9999C6.74995 13.5899 6.40995 13.2499 5.99995 13.2499C5.58995 13.2499 5.24995 13.5899 5.24995 13.9999V15.9999C5.24995 17.5199 6.47995 18.7499 7.99995 18.7499H9.18995L8.46995 19.4699C8.17996 19.7599 8.17996 20.2399 8.46995 20.5299C8.61996 20.6799 8.80995 20.7499 8.99995 20.7499C9.18995 20.7499 9.37995 20.6799 9.52995 20.5299L11.53 18.5299C11.82 18.2399 11.82 17.7599 11.53 17.4699L9.52995 15.4699Z" fill="black"/>
<path d="M15 8.74985C15.19 8.74985 15.38 8.67985 15.53 8.52985C15.82 8.23985 15.82 7.75985 15.53 7.46985L14.81 6.74985H16C16.69 6.74985 17.25 7.30985 17.25 7.99985V9.99985C17.25 10.4099 17.59 10.7499 18 10.7499C18.41 10.7499 18.75 10.4099 18.75 9.99985V7.99985C18.75 6.47985 17.52 5.24985 16 5.24985H14.81L15.53 4.52985C15.82 4.23985 15.82 3.75985 15.53 3.46985C15.24 3.17985 14.76 3.17985 14.47 3.46985L12.47 5.46985C12.18 5.75985 12.18 6.23985 12.47 6.52985L14.47 8.52985C14.62 8.67985 14.81 8.74985 15 8.74985Z" fill="black"/>
</svg>
