<svg width="24" height="24" viewBox="0 0 24 24" fill="none" xmlns="http://www.w3.org/2000/svg">
<path d="M5.76 9.71C6.59 9.99 7.43 10.2 8.28 10.37C8.28 10.41 8.25 10.45 8.25 10.5V12.5C8.25 12.91 8.59 13.25 9 13.25C9.41 13.25 9.75 12.91 9.75 12.5V10.6C10.5 10.69 11.24 10.75 12 10.75C12.76 10.75 13.5 10.69 14.25 10.6V12.5C14.25 12.91 14.59 13.25 15 13.25C15.41 13.25 15.75 12.91 15.75 12.5V10.5C15.75 10.5 15.73 10.41 15.72 10.37C16.57 10.2 17.41 9.99 18.24 9.71C18.54 9.61 18.75 9.32 18.75 9V6C18.75 4.48 17.52 3.25 16 3.25H8C6.48 3.25 5.25 4.48 5.25 6V9C5.25 9.32 5.45 9.61 5.76 9.71Z" fill="black"/>
<path d="M19 12.25H18.75V11.12H18.73C18.24 11.3 17.75 11.44 17.25 11.57V12.5C17.25 13.74 16.24 14.75 15 14.75C13.76 14.75 12.75 13.74 12.75 12.5V12.22C12.5 12.22 12.25 12.25 12 12.25C11.75 12.25 11.5 12.23 11.25 12.22V12.5C11.25 13.74 10.24 14.75 9 14.75C7.76 14.75 6.75 13.74 6.75 12.5V11.57C6.25 11.44 5.76 11.3 5.27 11.13H5.25V12.25H5C3.48 12.25 2.25 13.48 2.25 15V17C2.25 17.96 3.04 18.75 4 18.75H5.37C5.7 19.9 6.75 20.75 8 20.75H16C17.25 20.75 18.3 19.9 18.63 18.75H20C20.96 18.75 21.75 17.96 21.75 17V15C21.75 13.48 20.52 12.25 19 12.25ZM15.75 18C15.75 18.96 14.96 19.75 14 19.75H10C9.04 19.75 8.25 18.96 8.25 18V17C8.25 16.04 9.04 15.25 10 15.25H14C14.96 15.25 15.75 16.04 15.75 17V18Z" fill="black"/>
<path d="M14 16.75H10C9.86193 16.75 9.75 16.8619 9.75 17V18C9.75 18.1381 9.86193 18.25 10 18.25H14C14.1381 18.25 14.25 18.1381 14.25 18V17C14.25 16.8619 14.1381 16.75 14 16.75Z" fill="black"/>
<path d="M20 4.25C20 4.25 19.91 4.26 19.87 4.26C20.11 4.79 20.25 5.38 20.25 6V9C20.25 9.26 20.2 9.5 20.12 9.74C21.03 9.68 21.75 8.93 21.75 8V6C21.75 5.04 20.96 4.25 20 4.25Z" fill="black"/>
<path d="M3.88 9.74C3.8 9.51 3.75 9.26 3.75 9V6C3.75 5.38 3.89 4.79 4.13 4.26C4.09 4.26 4.04 4.25 4 4.25C3.04 4.25 2.25 5.04 2.25 6V8C2.25 8.92 2.97 9.67 3.88 9.74Z" fill="black"/>
</svg>
