<svg width="24" height="24" viewBox="0 0 24 24" fill="none" xmlns="http://www.w3.org/2000/svg">
<path d="M15 16.25C14.59 16.25 14.25 16.59 14.25 17V19C14.25 19.69 13.69 20.25 13 20.25H5C4.31 20.25 3.75 19.69 3.75 19V5C3.75 4.31 4.31 3.75 5 3.75H13C13.45 3.75 13.86 3.99 14.08 4.38C14.29 4.74 14.74 4.86 15.11 4.65C15.47 4.44 15.59 3.98 15.38 3.62C14.89 2.77 13.98 2.25 13 2.25H5C3.48 2.25 2.25 3.48 2.25 5V19C2.25 20.52 3.48 21.75 5 21.75H13C14.52 21.75 15.75 20.52 15.75 19V17C15.75 16.59 15.41 16.25 15 16.25Z" fill="black"/>
<path d="M20 6.25H12C11.04 6.25 10.25 7.04 10.25 8V13C10.25 13.96 11.04 14.75 12 14.75H20C20.96 14.75 21.75 13.96 21.75 13V8C21.75 7.04 20.96 6.25 20 6.25ZM18.86 7.75L16.15 9.91C16.06 9.98 15.93 9.98 15.84 9.91L13.13 7.75H18.86ZM20 13.25H12C11.86 13.25 11.75 13.14 11.75 13V8.56L14.91 11.09C15.23 11.35 15.62 11.48 16 11.48C16.38 11.48 16.77 11.35 17.09 11.09L20.25 8.56V13C20.25 13.14 20.14 13.25 20 13.25Z" fill="black"/>
<path d="M7.25 18C7.25 18.41 7.59 18.75 8 18.75H10C10.41 18.75 10.75 18.41 10.75 18C10.75 17.59 10.41 17.25 10 17.25H8C7.59 17.25 7.25 17.59 7.25 18Z" fill="black"/>
</svg>
