<svg width="24" height="24" viewBox="0 0 24 24" fill="none" xmlns="http://www.w3.org/2000/svg">
<path d="M11.5 2.25C8.05 2.25 5.25 5.05 5.25 8.5C5.25 9.74 6.26 10.75 7.5 10.75C8.74 10.75 9.75 9.74 9.75 8.5C9.75 7.54 10.54 6.75 11.5 6.75C12.46 6.75 13.25 7.54 13.25 8.5C13.25 9.68 12.5 10.76 11.4 11.18L7.04 12.82C5.97 13.22 5.25 14.25 5.25 15.39V20C5.25 20.96 6.04 21.75 7 21.75H16C16.96 21.75 17.75 20.96 17.75 20V8.5C17.75 5.05 14.95 2.25 11.5 2.25ZM16.25 20C16.25 20.14 16.14 20.25 16 20.25H7C6.86 20.25 6.75 20.14 6.75 20V15.39C6.75 14.87 7.08 14.4 7.56 14.22L11.92 12.58C13.61 11.95 14.75 10.31 14.75 8.5C14.75 6.69 13.29 5.25 11.5 5.25C9.71 5.25 8.25 6.71 8.25 8.5C8.25 8.91 7.91 9.25 7.5 9.25C7.09 9.25 6.75 8.91 6.75 8.5C6.75 5.88 8.88 3.75 11.5 3.75C14.12 3.75 16.25 5.88 16.25 8.5V20Z" fill="black"/>
<path d="M14 16.25H9C8.59 16.25 8.25 16.59 8.25 17C8.25 17.41 8.59 17.75 9 17.75H14C14.41 17.75 14.75 17.41 14.75 17C14.75 16.59 14.41 16.25 14 16.25Z" fill="black"/>
</svg>
