<svg width="24" height="24" viewBox="0 0 24 24" fill="none" xmlns="http://www.w3.org/2000/svg">
<path d="M16 5.25H12.75V3.75H14C14.41 3.75 14.75 3.41 14.75 3C14.75 2.59 14.41 2.25 14 2.25H10C9.59 2.25 9.25 2.59 9.25 3C9.25 3.41 9.59 3.75 10 3.75H11.25V5.25H8C6.48 5.25 5.25 6.48 5.25 8V17C5.25 18.52 6.48 19.75 8 19.75H8.25V21C8.25 21.41 8.59 21.75 9 21.75C9.41 21.75 9.75 21.41 9.75 21V19.75H14.25V21C14.25 21.41 14.59 21.75 15 21.75C15.41 21.75 15.75 21.41 15.75 21V19.75H16C17.52 19.75 18.75 18.52 18.75 17V8C18.75 6.48 17.52 5.25 16 5.25ZM8 6.75H16C16.69 6.75 17.25 7.31 17.25 8V9.25H6.75V8C6.75 7.31 7.31 6.75 8 6.75ZM16 18.25H8C7.31 18.25 6.75 17.69 6.75 17V10.75H17.25V17C17.25 17.69 16.69 18.25 16 18.25Z" fill="black"/>
<path d="M12 12.25C11.59 12.25 11.25 12.59 11.25 13V16C11.25 16.41 11.59 16.75 12 16.75C12.41 16.75 12.75 16.41 12.75 16V13C12.75 12.59 12.41 12.25 12 12.25Z" fill="black"/>
<path d="M15 12.25C14.59 12.25 14.25 12.59 14.25 13V16C14.25 16.41 14.59 16.75 15 16.75C15.41 16.75 15.75 16.41 15.75 16V13C15.75 12.59 15.41 12.25 15 12.25Z" fill="black"/>
<path d="M9 12.25C8.59 12.25 8.25 12.59 8.25 13V16C8.25 16.41 8.59 16.75 9 16.75C9.41 16.75 9.75 16.41 9.75 16V13C9.75 12.59 9.41 12.25 9 12.25Z" fill="black"/>
</svg>
