<svg width="24" height="24" viewBox="0 0 24 24" fill="none" xmlns="http://www.w3.org/2000/svg">
<path d="M7.47004 8.98998L8.07004 10.38C8.23004 10.76 8.60004 10.99 8.99004 10.99C9.12004 10.99 9.26004 10.96 9.38004 10.91C9.89004 10.69 10.12 10.1 9.90004 9.59998L6.90004 2.58998C6.74004 2.21998 6.38004 1.97998 5.98004 1.97998C5.58004 1.97998 5.22004 2.21998 5.06004 2.58998L2.06004 9.58998C1.84004 10.1 2.08004 10.68 2.58004 10.9C3.08004 11.12 3.68004 10.88 3.89004 10.37L4.49004 8.97998H7.46004L7.47004 8.98998ZM5.36004 6.98998L5.99004 5.52998L6.62004 6.98998H5.36004Z" fill="black"/>
<path d="M20.99 19.99C20.68 19.99 20.18 19.93 19.64 19.74C20.39 18.79 20.73 17.76 20.87 16.99H20.98C21.53 16.99 21.98 16.54 21.98 15.99C21.98 15.44 21.53 14.99 20.98 14.99H18.98V13.99C18.98 13.44 18.53 12.99 17.98 12.99C17.43 12.99 16.98 13.44 16.98 13.99V14.99H14.98C14.43 14.99 13.98 15.44 13.98 15.99C13.98 16.54 14.43 16.99 14.98 16.99H15.09C15.23 17.76 15.57 18.78 16.32 19.74C15.78 19.93 15.28 19.99 14.97 19.99C14.42 19.99 13.97 20.45 13.98 21C13.98 21.55 14.43 21.99 14.98 21.99C15.63 21.99 16.79 21.86 17.97 21.18C19.15 21.86 20.32 21.98 20.96 21.99C21.51 21.99 21.96 21.55 21.96 21C21.96 20.45 21.52 20 20.97 19.99H20.99ZM18.81 16.99C18.68 17.48 18.43 18.07 17.98 18.61C17.53 18.07 17.28 17.49 17.15 16.99H18.82H18.81Z" fill="black"/>
<path d="M9.69004 15.28C9.30004 14.89 8.67004 14.89 8.28004 15.28C7.89004 15.67 7.89004 16.3 8.28004 16.69L8.57004 16.98H7.98004C7.43004 16.98 6.98004 16.53 6.98004 15.98V13.98C6.98004 13.43 6.53004 12.98 5.98004 12.98C5.43004 12.98 4.98004 13.43 4.98004 13.98V15.98C4.98004 17.63 6.33004 18.98 7.98004 18.98H8.57004L8.28004 19.27C7.89004 19.66 7.89004 20.29 8.28004 20.68C8.48004 20.88 8.73004 20.97 8.99004 20.97C9.25004 20.97 9.50004 20.87 9.70004 20.68L11.7 18.68C12.09 18.29 12.09 17.66 11.7 17.27L9.70004 15.27L9.69004 15.28Z" fill="black"/>
<path d="M14.98 8.98998C15.24 8.98998 15.49 8.88998 15.69 8.69998C16.08 8.30998 16.08 7.67998 15.69 7.28998L15.4 6.99998H15.99C16.54 6.99998 16.99 7.44998 16.99 7.99998V9.99998C16.99 10.55 17.44 11 17.99 11C18.54 11 18.99 10.55 18.99 9.99998V7.99998C18.99 6.34998 17.64 4.99998 15.99 4.99998H15.4L15.69 4.70998C16.08 4.31998 16.08 3.68998 15.69 3.29998C15.3 2.90998 14.67 2.90998 14.28 3.29998L12.28 5.29998C11.89 5.68998 11.89 6.31998 12.28 6.70998L14.28 8.70998C14.48 8.90998 14.73 8.99998 14.99 8.99998L14.98 8.98998Z" fill="black"/>
</svg>
