<svg width="24" height="24" viewBox="0 0 24 24" fill="none" xmlns="http://www.w3.org/2000/svg">
<path d="M12.0201 15.25H12.0101C11.6001 15.25 11.2701 15.59 11.2701 16C11.2701 16.41 11.6101 16.75 12.0201 16.75C12.4301 16.75 12.7701 16.41 12.7701 16C12.7701 15.59 12.4301 15.25 12.0201 15.25Z" fill="black"/>
<path d="M16.0201 15.25C15.6101 15.25 15.2701 15.59 15.2701 16C15.2701 16.41 15.6101 16.75 16.0201 16.75C16.4301 16.75 16.7701 16.41 16.7701 16C16.7701 15.59 16.4401 15.25 16.0201 15.25Z" fill="black"/>
<path d="M8.02008 15.25H8.01008C7.60008 15.25 7.27008 15.59 7.27008 16C7.27008 16.41 7.61008 16.75 8.02008 16.75C8.43008 16.75 8.77008 16.41 8.77008 16C8.77008 15.59 8.43008 15.25 8.02008 15.25Z" fill="black"/>
<path d="M21.4201 18.38L20.1001 17.5L20.9601 15.79C21.2301 15.24 21.2001 14.61 20.8801 14.09C20.5901 13.62 20.1001 13.33 19.5601 13.28L18.9501 11.46C18.7401 10.83 18.2001 10.41 17.5701 10.31L16.9501 8.46001C16.7101 7.74001 16.0401 7.26001 15.2901 7.26001H14.7601V6.01001C14.7601 5.05001 13.9701 4.26001 13.0101 4.26001H11.0101C10.0501 4.26001 9.26008 5.05001 9.26008 6.01001V7.26001H8.73008C7.98008 7.26001 7.31008 7.74001 7.07008 8.46001L6.45008 10.31C5.82008 10.41 5.27008 10.84 5.07008 11.46L4.46008 13.28C3.92008 13.33 3.43008 13.62 3.14008 14.09C2.82008 14.61 2.79008 15.25 3.06008 15.79L3.92008 17.5L2.60008 18.38C2.26008 18.61 2.16008 19.08 2.39008 19.42C2.62008 19.76 3.08008 19.86 3.43008 19.63L4.93008 18.63C5.59008 18.19 6.44008 18.19 7.10008 18.63C8.26008 19.41 9.77008 19.41 10.9301 18.63C11.5901 18.19 12.4401 18.19 13.1001 18.63C14.2601 19.41 15.7701 19.41 16.9301 18.63C17.5901 18.19 18.4401 18.19 19.1001 18.63L20.6001 19.63C20.7301 19.72 20.8701 19.76 21.0201 19.76C21.2601 19.76 21.5001 19.64 21.6501 19.43C21.8801 19.09 21.7901 18.62 21.4401 18.39L21.4201 18.38ZM10.7501 6.00001C10.7501 5.86001 10.8601 5.75001 11.0001 5.75001H13.0001C13.1401 5.75001 13.2501 5.86001 13.2501 6.00001V7.25001H10.7501V6.00001ZM8.48008 8.92001C8.51008 8.82001 8.61008 8.75001 8.72008 8.75001H15.2801C15.3901 8.75001 15.4801 8.82001 15.5201 8.92001L15.9601 10.25H8.04008L8.48008 8.92001ZM6.48008 11.92C6.51008 11.82 6.61008 11.75 6.72008 11.75H17.2801C17.3901 11.75 17.4801 11.82 17.5201 11.92L17.9601 13.25H6.04008L6.48008 11.92ZM16.0801 17.38C15.4201 17.82 14.5701 17.82 13.9101 17.38C12.7501 16.6 11.2401 16.6 10.0801 17.38C9.42008 17.82 8.57008 17.82 7.91008 17.38C7.12008 16.85 6.17008 16.69 5.27008 16.88L4.39008 15.11C4.34008 15 4.37008 14.91 4.40008 14.87C4.43008 14.83 4.49008 14.75 4.61008 14.75H19.3701C19.4901 14.75 19.5601 14.82 19.5801 14.87C19.6001 14.92 19.6401 15 19.5901 15.11L18.7101 16.88C17.8201 16.69 16.8701 16.85 16.0701 17.38H16.0801Z" fill="black"/>
</svg>
