<svg width="24" height="24" viewBox="0 0 24 24" fill="none" xmlns="http://www.w3.org/2000/svg">
<path d="M12 7.24995C12.41 7.24995 12.75 6.90995 12.75 6.49995C12.75 6.08995 13.09 5.74995 13.5 5.74995C13.91 5.74995 14.25 6.08995 14.25 6.49995C14.25 7.26995 13.95 7.98995 13.41 8.52995L11.47 10.4699C11.26 10.6799 11.19 11.0099 11.31 11.2899C11.43 11.5699 11.7 11.7499 12 11.7499H15C15.41 11.7499 15.75 11.4099 15.75 10.9999C15.75 10.5899 15.41 10.2499 15 10.2499H13.81L14.47 9.58995C15.3 8.75995 15.75 7.66995 15.75 6.49995C15.75 5.25995 14.74 4.24995 13.5 4.24995C12.26 4.24995 11.25 5.25995 11.25 6.49995C11.25 6.90995 11.59 7.24995 12 7.24995Z" fill="black"/>
<path d="M20 5.24995C19.59 5.24995 19.25 5.58995 19.25 5.99995V8.24995H17.96L18.73 5.17995C18.83 4.77995 18.59 4.36995 18.18 4.26995C17.77 4.16995 17.37 4.40995 17.27 4.81995L16.27 8.81995C16.21 9.03995 16.27 9.27995 16.41 9.45995C16.55 9.63995 16.77 9.74995 17 9.74995H19.25V10.9999C19.25 11.4099 19.59 11.7499 20 11.7499C20.41 11.7499 20.75 11.4099 20.75 10.9999V5.99995C20.75 5.58995 20.41 5.24995 20 5.24995Z" fill="black"/>
<path d="M15.97 15.3399C14.47 14.2799 12.76 14.3699 11.87 14.5099C11.72 14.5399 11.57 14.6099 11.46 14.7199L10.76 15.4199C10.63 15.5499 10.53 15.5499 10.41 15.4199L7.57996 12.5899C7.51996 12.5299 7.50996 12.4499 7.50996 12.4099C7.50996 12.3699 7.50996 12.2999 7.57996 12.2299L8.28996 11.5199C8.39996 11.4099 8.46996 11.2699 8.49996 11.1199C8.65996 10.2099 8.76996 8.46995 7.64996 6.99995C7.40996 6.67995 7.12996 6.39995 6.79996 6.14995C6.63996 6.02995 6.42996 5.96995 6.22996 5.99995L4.31996 6.27995C3.69996 6.36995 3.17996 6.76995 2.95996 7.32995C1.49996 10.9599 2.33996 15.0999 5.10996 17.8699C6.97996 19.7399 9.45996 20.7299 12 20.7299C13.23 20.7299 14.48 20.4999 15.67 20.0099C16.21 19.7899 16.61 19.2799 16.72 18.6899L17.05 16.7599C17.09 16.5399 17.03 16.3199 16.88 16.1499C16.61 15.8299 16.31 15.5499 15.97 15.3199V15.3399ZM15.23 18.4699C15.22 18.5599 15.16 18.6299 15.1 18.6599C12.02 19.9099 8.50996 19.1899 6.16996 16.8499C3.82996 14.5099 3.10996 10.9999 4.34996 7.92995C4.37996 7.85995 4.44996 7.80995 4.53996 7.79995L6.11996 7.56995C6.23996 7.68995 6.35996 7.80995 6.44996 7.93995C7.15996 8.86995 7.12996 10.0299 7.04996 10.6699L6.51996 11.1999C6.18996 11.5299 6.00996 11.9699 6.00996 12.4399C6.00996 12.9099 6.18996 13.3499 6.51996 13.6799L9.34996 16.5099C10.01 17.1699 11.16 17.1699 11.83 16.5099L12.35 15.9899C13.05 15.9099 14.16 15.9199 15.11 16.5899C15.25 16.6899 15.38 16.7999 15.51 16.9199L15.24 18.4899L15.23 18.4699Z" fill="black"/>
</svg>
