<svg width="24" height="24" viewBox="0 0 24 24" fill="none" xmlns="http://www.w3.org/2000/svg">
<path d="M10.26 11.04L8.92999 15.03L12.92 13.7C13.29 13.58 13.59 13.28 13.71 12.91L15.04 8.91998L11.05 10.25C10.68 10.37 10.38 10.67 10.26 11.04Z" fill="black"/>
<path d="M18.88 5.07998C15.08 1.27998 8.88999 1.27998 5.08999 5.07998C1.28999 8.87998 1.28999 15.07 5.08999 18.87C6.92999 20.71 9.37999 21.73 11.98 21.73C14.58 21.73 17.03 20.72 18.87 18.87C22.67 15.07 22.67 8.87998 18.87 5.07998H18.88ZM12 5.21998C12.42 5.21998 12.75 5.55998 12.75 5.96998C12.75 6.37998 12.42 6.71998 12 6.71998C11.58 6.71998 11.25 6.37998 11.25 5.96998C11.25 5.55998 11.58 5.21998 12 5.21998ZM6.00999 12.72C5.59999 12.72 5.25999 12.38 5.25999 11.97C5.25999 11.56 5.58999 11.22 6.00999 11.22C6.42999 11.22 6.75999 11.56 6.75999 11.97C6.75999 12.38 6.42999 12.72 6.00999 12.72ZM12.01 18.72C11.6 18.72 11.26 18.38 11.26 17.97C11.26 17.56 11.59 17.22 12.01 17.22C12.43 17.22 12.76 17.56 12.76 17.97C12.76 18.38 12.43 18.72 12.01 18.72ZM16.95 7.95998L15.14 13.38C14.87 14.2 14.22 14.85 13.4 15.12L7.97999 16.92C7.89999 16.95 7.81999 16.96 7.73999 16.96C7.53999 16.96 7.34999 16.88 7.20999 16.74C7.00999 16.54 6.93999 16.24 7.02999 15.97L8.82999 10.55C9.09999 9.72998 9.74999 9.07998 10.57 8.80998L15.99 6.99998C16.26 6.90998 16.56 6.97998 16.76 7.17998C16.96 7.37998 17.03 7.67998 16.94 7.94998L16.95 7.95998ZM18.01 12.72C17.6 12.72 17.26 12.38 17.26 11.97C17.26 11.56 17.59 11.22 18.01 11.22C18.43 11.22 18.76 11.56 18.76 11.97C18.76 12.38 18.43 12.72 18.01 12.72Z" fill="black"/>
</svg>
