<svg width="24" height="24" viewBox="0 0 24 24" fill="none" xmlns="http://www.w3.org/2000/svg">
<path d="M10.32 13.72H15.99C17.51 13.72 18.74 12.49 18.74 10.97V4.96997C18.74 3.44997 17.51 2.21997 15.99 2.21997H4.98999C3.46999 2.21997 2.23999 3.44997 2.23999 4.96997V10.97C2.23999 12.49 3.46999 13.72 4.98999 13.72C5.12999 13.72 5.23999 13.83 5.23999 13.97V15.97C5.23999 16.25 5.39999 16.51 5.64999 16.64C5.75999 16.69 5.86999 16.72 5.98999 16.72C6.14999 16.72 6.30999 16.67 6.43999 16.57L10.17 13.77C10.17 13.77 10.27 13.72 10.32 13.72ZM5.98999 5.21997H14.99C15.4 5.21997 15.74 5.55997 15.74 5.96997C15.74 6.37997 15.4 6.71997 14.99 6.71997H5.98999C5.57999 6.71997 5.23999 6.37997 5.23999 5.96997C5.23999 5.55997 5.57999 5.21997 5.98999 5.21997ZM5.98999 10.72C5.57999 10.72 5.23999 10.38 5.23999 9.96997C5.23999 9.55997 5.57999 9.21997 5.98999 9.21997H11.99C12.4 9.21997 12.74 9.55997 12.74 9.96997C12.74 10.38 12.4 10.72 11.99 10.72H5.98999Z" fill="black"/>
<path d="M20.24 7.53997V10.98C20.24 13.32 18.33 15.23 15.99 15.23H10.74L9.26999 16.33C9.43999 17.68 10.59 18.73 11.98 18.73H13.65C13.7 18.73 13.76 18.75 13.8 18.78L17.53 21.58C17.66 21.68 17.82 21.73 17.98 21.73C18.09 21.73 18.21 21.7 18.31 21.65C18.56 21.52 18.73 21.26 18.73 20.98V18.98C18.73 18.84 18.84 18.73 18.98 18.73C20.5 18.73 21.73 17.5 21.73 15.98V9.97997C21.73 8.91997 21.12 7.99997 20.23 7.53997H20.24Z" fill="black"/>
</svg>
