<svg width="24" height="24" viewBox="0 0 24 24" fill="none" xmlns="http://www.w3.org/2000/svg">
<path d="M18.41 6.25C17.94 6.25 17.5 6.43 17.17 6.76L16.76 7.17C16.76 7.17 16.65 7.24 16.58 7.24H15.41C15.34 7.24 15.28 7.21 15.23 7.17L14.82 6.76C14.49 6.43 14.05 6.25 13.58 6.25H5C3.48 6.25 2.25 7.48 2.25 9V15C2.25 16.52 3.48 17.75 5 17.75H13.59C14.06 17.75 14.5 17.57 14.83 17.24L15.24 16.83C15.24 16.83 15.35 16.76 15.42 16.76H16.59C16.66 16.76 16.72 16.79 16.77 16.83L17.18 17.24C17.51 17.57 17.95 17.75 18.42 17.75H19.01C20.53 17.75 21.76 16.52 21.76 15V9C21.76 7.48 20.53 6.25 19.01 6.25H18.41ZM20.25 15C20.25 15.69 19.69 16.25 19 16.25H18.41C18.34 16.25 18.28 16.22 18.23 16.18L17.82 15.77C17.49 15.44 17.05 15.26 16.58 15.26H15.41C14.94 15.26 14.5 15.44 14.17 15.77L13.76 16.18C13.76 16.18 13.65 16.25 13.58 16.25H5C4.31 16.25 3.75 15.69 3.75 15V9C3.75 8.31 4.31 7.75 5 7.75H13.59C13.66 7.75 13.72 7.78 13.77 7.82L14.18 8.23C14.51 8.56 14.95 8.74 15.42 8.74H16.59C17.06 8.74 17.5 8.56 17.83 8.23L18.24 7.82C18.24 7.82 18.35 7.75 18.42 7.75H19.01C19.7 7.75 20.26 8.31 20.26 9V15H20.25Z" fill="black"/>
<path d="M16 9.25C15.59 9.25 15.25 9.59 15.25 10V14C15.25 14.41 15.59 14.75 16 14.75C16.41 14.75 16.75 14.41 16.75 14V10C16.75 9.59 16.41 9.25 16 9.25Z" fill="black"/>
<path d="M12 11.25H10.31L8.53 9.47C8.24 9.18 7.76 9.18 7.47 9.47C7.18 9.76 7.18 10.24 7.47 10.53L8.19 11.25H6.75V11C6.75 10.59 6.41 10.25 6 10.25C5.59 10.25 5.25 10.59 5.25 11V13C5.25 13.41 5.59 13.75 6 13.75C6.41 13.75 6.75 13.41 6.75 13V12.75H8.19L7.47 13.47C7.18 13.76 7.18 14.24 7.47 14.53C7.62 14.68 7.81 14.75 8 14.75C8.19 14.75 8.38 14.68 8.53 14.53L10.31 12.75H12C12.41 12.75 12.75 12.41 12.75 12C12.75 11.59 12.41 11.25 12 11.25Z" fill="black"/>
</svg>
