<svg width="24" height="24" viewBox="0 0 24 24" fill="none" xmlns="http://www.w3.org/2000/svg">
<path d="M21.01 12.22C20.34 12.2 19.35 12.04 18.44 11.37C18.12 11.13 17.83 10.84 17.59 10.52C17.45 10.33 17.23 10.22 16.99 10.22C16.75 10.22 16.53 10.33 16.39 10.52C16.15 10.85 15.86 11.13 15.54 11.37C14.63 12.04 13.64 12.21 12.97 12.22C12.56 12.22 12.24 12.56 12.24 12.97V15.97C12.24 17.46 12.95 18.88 14.14 19.77L16.54 21.57C16.67 21.67 16.83 21.72 16.99 21.72C17.15 21.72 17.31 21.67 17.44 21.57L19.84 19.77C21.03 18.88 21.74 17.46 21.74 15.97V12.97C21.74 12.56 21.41 12.23 21.01 12.22Z" fill="black"/>
<path d="M10.74 12.97C10.74 12.49 10.9 12.05 11.15 11.69C11.1 11.7 11.04 11.72 10.99 11.72H6.98999C6.57999 11.72 6.23999 11.38 6.23999 10.97C6.23999 10.56 6.57999 10.22 6.98999 10.22H10.99C11.4 10.22 11.74 10.56 11.74 10.97C11.74 11.03 11.72 11.07 11.71 11.13C12.06 10.88 12.48 10.74 12.94 10.72C13.4 10.72 14.06 10.6 14.65 10.17C14.85 10.02 15.04 9.83997 15.2 9.61997C15.62 9.05997 16.29 8.71997 17 8.71997C17.71 8.71997 18.32 9.03997 18.74 9.55997V4.96997C18.74 3.44997 17.52 2.21997 16 2.21997H5.98999C4.46999 2.21997 3.23999 3.44997 3.23999 4.96997V16.97C3.23999 18.49 4.46999 19.72 5.98999 19.72H12.01C11.21 18.65 10.74 17.33 10.74 15.97V12.97ZM6.98999 6.21997H13.99C14.4 6.21997 14.74 6.55997 14.74 6.96997C14.74 7.37997 14.4 7.71997 13.99 7.71997H6.98999C6.57999 7.71997 6.23999 7.37997 6.23999 6.96997C6.23999 6.55997 6.57999 6.21997 6.98999 6.21997ZM8.98999 15.72H6.98999C6.57999 15.72 6.23999 15.38 6.23999 14.97C6.23999 14.56 6.57999 14.22 6.98999 14.22H8.98999C9.39999 14.22 9.73999 14.56 9.73999 14.97C9.73999 15.38 9.39999 15.72 8.98999 15.72Z" fill="black"/>
</svg>
