<svg width="24" height="24" viewBox="0 0 24 24" fill="none" xmlns="http://www.w3.org/2000/svg">
<path d="M15.99 5.21997H12.74V3.71997H13.99C14.4 3.71997 14.74 3.37997 14.74 2.96997C14.74 2.55997 14.4 2.21997 13.99 2.21997H9.98999C9.57999 2.21997 9.23999 2.55997 9.23999 2.96997C9.23999 3.37997 9.57999 3.71997 9.98999 3.71997H11.24V5.21997H7.98999C6.46999 5.21997 5.23999 6.44997 5.23999 7.96997V9.21997H18.74V7.96997C18.74 6.44997 17.51 5.21997 15.99 5.21997Z" fill="black"/>
<path d="M5.23999 16.97C5.23999 18.49 6.46999 19.72 7.98999 19.72H8.23999V20.97C8.23999 21.38 8.57999 21.72 8.98999 21.72C9.39999 21.72 9.73999 21.38 9.73999 20.97V19.72H14.24V20.97C14.24 21.38 14.58 21.72 14.99 21.72C15.4 21.72 15.74 21.38 15.74 20.97V19.72H15.99C17.51 19.72 18.74 18.49 18.74 16.97V10.72H5.23999V16.97ZM14.24 12.97C14.24 12.56 14.58 12.22 14.99 12.22C15.4 12.22 15.74 12.56 15.74 12.97V15.97C15.74 16.38 15.4 16.72 14.99 16.72C14.58 16.72 14.24 16.38 14.24 15.97V12.97ZM11.24 12.97C11.24 12.56 11.58 12.22 11.99 12.22C12.4 12.22 12.74 12.56 12.74 12.97V15.97C12.74 16.38 12.4 16.72 11.99 16.72C11.58 16.72 11.24 16.38 11.24 15.97V12.97ZM8.23999 12.97C8.23999 12.56 8.57999 12.22 8.98999 12.22C9.39999 12.22 9.73999 12.56 9.73999 12.97V15.97C9.73999 16.38 9.39999 16.72 8.98999 16.72C8.57999 16.72 8.23999 16.38 8.23999 15.97V12.97Z" fill="black"/>
</svg>
