<svg width="24" height="24" viewBox="0 0 24 24" fill="none" xmlns="http://www.w3.org/2000/svg">
<path d="M12.43 9.75V11.25H13.92L14.2 10.93L13.96 9.75H12.43Z" fill="black"/>
<path d="M20.02 12.8L16.63 11.45L15.96 8.75H16C16.41 8.75 16.75 8.41 16.75 8C16.75 7.59 16.41 7.25 16 7.25H14.75V5C14.75 4.04 13.96 3.25 13 3.25H10C9.28 3.25 8.67 3.68 8.4 4.3C8.27 4.27 8.14 4.25 8 4.25H7C6.04 4.25 5.25 5.04 5.25 6V7.25H5C4.59 7.25 4.25 7.59 4.25 8C4.25 8.41 4.59 8.75 5 8.75H5.09L4.43 12.05C4.41 12.17 4.3 12.25 4.18 12.25H4C3.04 12.25 2.25 13.04 2.25 14V17C2.25 17.89 2.92 18.61 3.77 18.73C3.77 18.65 3.75 18.58 3.75 18.5C3.75 16.43 5.43 14.75 7.5 14.75C9.57 14.75 11.25 16.43 11.25 18.5C11.25 18.59 11.23 18.67 11.22 18.75H12.77C12.77 18.67 12.74 18.59 12.74 18.5C12.74 16.43 14.42 14.75 16.49 14.75C18.56 14.75 20.24 16.43 20.24 18.5C20.24 18.58 20.22 18.65 20.22 18.73C21.08 18.62 21.74 17.89 21.74 17V15.35C21.74 14.22 21.06 13.22 20.01 12.8H20.02ZM10.02 12C10.02 12.41 9.72 12.75 9.34 12.75H6.01C5.8 12.75 5.61 12.65 5.48 12.47C5.35 12.29 5.3 12.06 5.35 11.84L5.96 8.84C6.03 8.5 6.31 8.25 6.62 8.25H9.34C9.72 8.25 10.02 8.59 10.02 9V12ZM15.47 11.68L14.72 12.52C14.59 12.67 14.41 12.75 14.22 12.75H11.73C11.34 12.75 11.03 12.41 11.03 12V9C11.03 8.59 11.34 8.25 11.73 8.25H14.52C14.85 8.25 15.13 8.49 15.2 8.84L15.65 11C15.7 11.25 15.63 11.5 15.47 11.68Z" fill="black"/>
<path d="M6.86 11.25H8.66V9.75H7.17L6.86 11.25Z" fill="black"/>
<path d="M7.5 20.75C8.74264 20.75 9.75 19.7426 9.75 18.5C9.75 17.2574 8.74264 16.25 7.5 16.25C6.25736 16.25 5.25 17.2574 5.25 18.5C5.25 19.7426 6.25736 20.75 7.5 20.75Z" fill="black"/>
<path d="M16.5 20.75C17.7426 20.75 18.75 19.7426 18.75 18.5C18.75 17.2574 17.7426 16.25 16.5 16.25C15.2574 16.25 14.25 17.2574 14.25 18.5C14.25 19.7426 15.2574 20.75 16.5 20.75Z" fill="black"/>
</svg>
