<svg width="24" height="24" viewBox="0 0 24 24" fill="none" xmlns="http://www.w3.org/2000/svg">
<path d="M6 10.75C6.19 10.75 6.38 10.68 6.53 10.53L8.82 8.24C9.42 7.64 9.75 6.85 9.75 6C9.75 3.93 8.07 2.25 6 2.25C3.93 2.25 2.25 3.93 2.25 6C2.25 6.84 2.58 7.64 3.18 8.24L5.47 10.53C5.62 10.68 5.81 10.75 6 10.75ZM3.75 6C3.75 4.76 4.76 3.75 6 3.75C7.24 3.75 8.25 4.76 8.25 6C8.25 6.44 8.08 6.86 7.76 7.18L6 8.94L4.24 7.18C3.93 6.87 3.75 6.45 3.75 6Z" fill="black"/>
<path d="M18 14.25C15.93 14.25 14.25 15.93 14.25 18C14.25 20.07 15.93 21.75 18 21.75C20.07 21.75 21.75 20.07 21.75 18C21.75 15.93 20.07 14.25 18 14.25ZM18 20.25C16.76 20.25 15.75 19.24 15.75 18C15.75 16.76 16.76 15.75 18 15.75C19.24 15.75 20.25 16.76 20.25 18C20.25 19.24 19.24 20.25 18 20.25Z" fill="black"/>
<path d="M7.47 15.44L13.86 14.02C14.97 13.77 15.75 12.8 15.75 11.66C15.75 10.33 14.67 9.24 13.33 9.24H10C9.59 9.24 9.25 9.58 9.25 9.99C9.25 10.4 9.59 10.74 10 10.74H13.33C13.83 10.74 14.25 11.15 14.25 11.66C14.25 12.09 13.96 12.46 13.53 12.55L7.14 13.97C6.03 14.22 5.25 15.19 5.25 16.33C5.25 17.66 6.33 18.75 7.66 18.75H12C12.41 18.75 12.75 18.41 12.75 18C12.75 17.59 12.41 17.25 12 17.25H7.66C7.16 17.25 6.75 16.84 6.75 16.33C6.75 15.9 7.04 15.53 7.47 15.44Z" fill="black"/>
<path d="M18.02 17.25C17.61 17.25 17.27 17.59 17.27 18C17.27 18.41 17.61 18.75 18.02 18.75C18.43 18.75 18.77 18.41 18.77 18C18.77 17.59 18.44 17.25 18.02 17.25Z" fill="black"/>
</svg>
