<svg width="24" height="24" viewBox="0 0 24 24" fill="none" xmlns="http://www.w3.org/2000/svg">
<path d="M6.98999 21.72C9.61334 21.72 11.74 19.5933 11.74 16.97C11.74 14.3466 9.61334 12.22 6.98999 12.22C4.36664 12.22 2.23999 14.3466 2.23999 16.97C2.23999 19.5933 4.36664 21.72 6.98999 21.72Z" fill="black"/>
<path d="M16.99 11.72C19.6133 11.72 21.74 9.59332 21.74 6.96997C21.74 4.34662 19.6133 2.21997 16.99 2.21997C14.3666 2.21997 12.24 4.34662 12.24 6.96997C12.24 9.59332 14.3666 11.72 16.99 11.72Z" fill="black"/>
<path d="M6.45999 10.5C6.60999 10.65 6.79999 10.72 6.98999 10.72C7.17999 10.72 7.36999 10.65 7.51999 10.5L9.51999 8.49997C9.80999 8.20997 9.80999 7.72997 9.51999 7.43997C9.22999 7.14997 8.74999 7.14997 8.45999 7.43997L7.73999 8.15997V6.96997C7.73999 6.27997 8.29999 5.71997 8.98999 5.71997H9.98999C10.4 5.71997 10.74 5.37997 10.74 4.96997C10.74 4.55997 10.4 4.21997 9.98999 4.21997H8.98999C7.46999 4.21997 6.23999 5.44997 6.23999 6.96997V8.15997L5.51999 7.43997C5.22999 7.14997 4.74999 7.14997 4.45999 7.43997C4.16999 7.72997 4.16999 8.20997 4.45999 8.49997L6.45999 10.5Z" fill="black"/>
<path d="M17.52 13.44C17.23 13.15 16.75 13.15 16.46 13.44L14.46 15.44C14.17 15.73 14.17 16.21 14.46 16.5C14.75 16.79 15.23 16.79 15.52 16.5L16.24 15.78V16.97C16.24 17.66 15.68 18.22 14.99 18.22H13.99C13.58 18.22 13.24 18.56 13.24 18.97C13.24 19.38 13.58 19.72 13.99 19.72H14.99C16.51 19.72 17.74 18.49 17.74 16.97V15.78L18.46 16.5C18.61 16.65 18.8 16.72 18.99 16.72C19.18 16.72 19.37 16.65 19.52 16.5C19.81 16.21 19.81 15.73 19.52 15.44L17.52 13.44Z" fill="black"/>
</svg>
