<svg width="24" height="24" viewBox="0 0 24 24" fill="none" xmlns="http://www.w3.org/2000/svg">
<path d="M12 7.25C10.73 7.25 9.54 7.74 8.64 8.64C6.79 10.49 6.79 13.51 8.64 15.36C9.54 16.26 10.73 16.75 12 16.75C13.27 16.75 14.46 16.26 15.36 15.36C17.21 13.51 17.21 10.49 15.36 8.64C14.46 7.74 13.27 7.25 12 7.25ZM14.3 14.3C13.07 15.53 10.93 15.53 9.7 14.3C8.43 13.03 8.43 10.97 9.7 9.7C10.31 9.09 11.13 8.75 12 8.75C12.87 8.75 13.68 9.09 14.3 9.7C15.57 10.97 15.57 13.03 14.3 14.3Z" fill="black"/>
<path d="M21 11.25H19.71C19.57 9.76 18.99 8.3 17.98 7.08L18.89 6.17C19.18 5.88 19.18 5.4 18.89 5.11C18.6 4.82 18.12 4.82 17.83 5.11L16.92 6.02C15.7 5.01 14.24 4.44 12.75 4.29V3C12.75 2.59 12.41 2.25 12 2.25C11.59 2.25 11.25 2.59 11.25 3V4.29C9.76 4.43 8.3 5.01 7.08 6.02L6.17 5.11C5.88 4.82 5.4 4.82 5.11 5.11C4.82 5.4 4.82 5.88 5.11 6.17L6.02 7.08C5.01 8.3 4.44 9.76 4.29 11.25H3C2.59 11.25 2.25 11.59 2.25 12C2.25 12.41 2.59 12.75 3 12.75H4.29C4.43 14.24 5.01 15.7 6.02 16.92L5.11 17.83C4.82 18.12 4.82 18.6 5.11 18.89C5.26 19.04 5.45 19.11 5.64 19.11C5.83 19.11 6.02 19.04 6.17 18.89L7.08 17.98C8.3 18.99 9.76 19.56 11.25 19.71V21C11.25 21.41 11.59 21.75 12 21.75C12.41 21.75 12.75 21.41 12.75 21V19.71C14.24 19.57 15.7 18.99 16.92 17.98L17.83 18.89C17.98 19.04 18.17 19.11 18.36 19.11C18.55 19.11 18.74 19.04 18.89 18.89C19.18 18.6 19.18 18.12 18.89 17.83L17.98 16.92C18.99 15.7 19.56 14.24 19.71 12.75H21C21.41 12.75 21.75 12.41 21.75 12C21.75 11.59 21.41 11.25 21 11.25ZM16.42 16.42C13.98 18.86 10.02 18.86 7.58 16.42C5.14 13.98 5.14 10.02 7.58 7.58C8.8 6.36 10.4 5.75 12 5.75C13.6 5.75 15.2 6.36 16.42 7.58C18.86 10.02 18.86 13.98 16.42 16.42Z" fill="black"/>
</svg>
