<svg width="24" height="24" viewBox="0 0 24 24" fill="none" xmlns="http://www.w3.org/2000/svg">
<path d="M21.3699 17.34C20.9899 17.13 20.5899 16.95 20.1999 16.8L21.7199 12.24C21.7999 12.01 21.7599 11.76 21.6199 11.56C21.4799 11.36 21.2499 11.25 21.0099 11.25H19.5499L18.9499 9.45C18.7099 8.73 18.0399 8.25 17.2899 8.25H11.7599V7C11.7599 6.04 10.9699 5.25 10.0099 5.25H9.00993C8.04993 5.25 7.25993 6.04 7.25993 7V8.25H6.72993C5.97993 8.25 5.30993 8.73 5.06993 9.45L4.46993 11.25H3.00993C2.76993 11.25 2.53993 11.37 2.39993 11.56C2.25993 11.75 2.21993 12.01 2.29993 12.24L3.81993 16.8C3.41993 16.96 3.02993 17.13 2.64993 17.34C2.28993 17.54 2.15993 18 2.35993 18.36C2.55993 18.72 3.01993 18.85 3.37993 18.65C4.25993 18.16 5.17993 17.85 6.10993 17.74C7.34993 17.59 8.07993 17.84 8.91993 18.14C9.71993 18.42 10.6299 18.74 12.0199 18.74C13.4099 18.74 14.3199 18.42 15.1199 18.14C15.9599 17.84 16.6899 17.59 17.9299 17.74C18.8599 17.85 19.7799 18.16 20.6599 18.65C20.7799 18.71 20.8999 18.74 21.0199 18.74C21.2799 18.74 21.5399 18.6 21.6799 18.36C21.8799 18 21.7499 17.54 21.3899 17.34H21.3699ZM8.74993 7C8.74993 6.86 8.85993 6.75 8.99993 6.75H9.99993C10.1399 6.75 10.2499 6.86 10.2499 7V8.25H8.74993V7ZM6.47993 9.92C6.50993 9.82 6.60993 9.75 6.71993 9.75H17.2799C17.3899 9.75 17.4799 9.82 17.5199 9.92L17.9599 11.25H17.6199C16.9499 11.25 16.3499 11.62 16.0499 12.22L15.5999 13.11C15.5599 13.19 15.4699 13.25 15.3799 13.25H8.61993C8.51993 13.25 8.43993 13.2 8.39993 13.11L7.94993 12.22C7.64993 11.62 7.04993 11.25 6.37993 11.25H6.03993L6.47993 9.92ZM14.5899 16.73C13.8399 17 13.1199 17.25 11.9899 17.25C10.8599 17.25 10.1499 17 9.38993 16.73C8.44993 16.4 7.48993 16.06 5.89993 16.25C5.67993 16.28 5.45993 16.32 5.23993 16.37L4.02993 12.75H6.36993C6.46993 12.75 6.54993 12.8 6.58993 12.89L7.03993 13.78C7.33993 14.38 7.93993 14.75 8.60993 14.75H15.3699C16.0399 14.75 16.6399 14.38 16.9399 13.78L17.3899 12.89C17.4299 12.81 17.5199 12.75 17.6099 12.75H19.9499L18.7399 16.37C18.5199 16.33 18.2999 16.28 18.0799 16.25C16.4799 16.05 15.5199 16.4 14.5899 16.73Z" fill="black"/>
</svg>
