<svg width="24" height="24" viewBox="0 0 24 24" fill="none" xmlns="http://www.w3.org/2000/svg">
<path d="M21.4201 18.38L20.1001 17.5L20.9601 15.79C21.2301 15.24 21.2001 14.61 20.8801 14.09C20.5601 13.57 20.0001 13.26 19.3901 13.26H4.62007C4.01007 13.26 3.45007 13.57 3.13007 14.09C2.81007 14.61 2.78007 15.25 3.05007 15.79L3.91007 17.5L2.59007 18.38C2.25007 18.61 2.15007 19.08 2.38007 19.42C2.61007 19.76 3.07007 19.86 3.42007 19.63L4.92007 18.63C5.58007 18.19 6.43007 18.19 7.09007 18.63C8.25007 19.41 9.76007 19.41 10.9201 18.63C11.5801 18.19 12.4301 18.19 13.0901 18.63C14.2501 19.41 15.7601 19.41 16.9201 18.63C17.5801 18.19 18.4301 18.19 19.0901 18.63L20.5901 19.63C20.7201 19.72 20.8601 19.76 21.0101 19.76C21.2501 19.76 21.4901 19.64 21.6401 19.43C21.8701 19.09 21.7801 18.62 21.4301 18.39L21.4201 18.38ZM8.02007 16.75C7.61007 16.75 7.27007 16.41 7.27007 16C7.27007 15.59 7.60007 15.25 8.01007 15.25H8.02007C8.43007 15.25 8.77007 15.59 8.77007 16C8.77007 16.41 8.43007 16.75 8.02007 16.75ZM12.0201 16.75C11.6101 16.75 11.2701 16.41 11.2701 16C11.2701 15.59 11.6001 15.25 12.0101 15.25H12.0201C12.4301 15.25 12.7701 15.59 12.7701 16C12.7701 16.41 12.4301 16.75 12.0201 16.75ZM16.0201 16.75C15.6101 16.75 15.2701 16.41 15.2701 16C15.2701 15.59 15.6001 15.25 16.0201 15.25C16.4401 15.25 16.7701 15.59 16.7701 16C16.7701 16.41 16.4401 16.75 16.0201 16.75Z" fill="black"/>
<path d="M18.9401 11.45C18.7001 10.73 18.0301 10.25 17.2801 10.25H6.72007C5.97007 10.25 5.30007 10.73 5.06007 11.45L4.96007 11.75H19.0401L18.9401 11.45Z" fill="black"/>
<path d="M16.9401 8.45C16.7001 7.73 16.0301 7.25 15.2801 7.25H8.72007C7.97007 7.25 7.30007 7.73 7.06007 8.45L6.96007 8.75H17.0401L16.9401 8.45Z" fill="black"/>
<path d="M11.0001 4.25C10.1201 4.25 9.40007 4.9 9.28007 5.75H14.7301C14.6101 4.9 13.8801 4.25 13.0101 4.25H11.0001Z" fill="black"/>
</svg>
