<svg width="24" height="24" viewBox="0 0 24 24" fill="none" xmlns="http://www.w3.org/2000/svg">
<path d="M16.75 6.24994V5.10994C16.75 4.13994 16.24 3.23994 15.4 2.70994C14.49 2.14994 13.38 2.08994 12.42 2.56994C12.02 2.76994 11.62 2.96994 11.22 3.16994C9.32002 4.14994 7.43002 5.21994 5.61002 6.35994C5.58002 6.37994 5.56002 6.40994 5.53002 6.42994C5.50002 6.44994 5.48002 6.46994 5.46002 6.48994C5.41002 6.53994 5.38002 6.59994 5.35002 6.64994C5.34002 6.66994 5.32002 6.68994 5.32002 6.70994C5.29002 6.78994 5.27002 6.87994 5.27002 6.96994V18.9899C5.27002 20.5099 6.50002 21.7399 8.02002 21.7399H17.02C18.54 21.7399 19.77 20.5099 19.77 18.9899V8.99994C19.77 7.47994 18.54 6.24994 17.02 6.24994H16.75ZM11.9 4.50994C12.3 4.30994 12.69 4.10994 13.08 3.91994C13.57 3.67994 14.14 3.69994 14.61 3.98994C15.02 4.24994 15.26 4.65994 15.26 5.10994V6.24994H8.71002C9.76002 5.63994 10.83 5.05994 11.91 4.50994H11.9ZM18.25 18.9999C18.25 19.6899 17.69 20.2499 17 20.2499H8.00002C7.31002 20.2499 6.75002 19.6899 6.75002 18.9999V7.74994H17C17.69 7.74994 18.25 8.30994 18.25 8.99994V18.9999Z" fill="black"/>
<path d="M12.5 9.24994C10.71 9.24994 9.25002 10.7099 9.25002 12.4999C9.25002 14.2899 10.71 15.7499 12.5 15.7499C14.29 15.7499 15.75 14.2899 15.75 12.4999C15.75 10.7099 14.29 9.24994 12.5 9.24994ZM12.5 14.2499C11.54 14.2499 10.75 13.4599 10.75 12.4999C10.75 11.5399 11.54 10.7499 12.5 10.7499C13.46 10.7499 14.25 11.5399 14.25 12.4999C14.25 13.4599 13.46 14.2499 12.5 14.2499Z" fill="black"/>
<path d="M15 17.2499H10C9.59002 17.2499 9.25002 17.5899 9.25002 17.9999C9.25002 18.4099 9.59002 18.7499 10 18.7499H15C15.41 18.7499 15.75 18.4099 15.75 17.9999C15.75 17.5899 15.41 17.2499 15 17.2499Z" fill="black"/>
</svg>
