<svg width="24" height="24" viewBox="0 0 24 24" fill="none" xmlns="http://www.w3.org/2000/svg">
<path d="M10.87 16.9099L18.63 9.14985C20.16 7.61985 20.51 5.58985 19.44 4.50985C18.36 3.43985 16.33 3.78985 14.8 5.31985L7.03999 13.0799C6.79999 13.3199 6.59999 13.5899 6.45999 13.8699L5.07999 16.5299C4.64999 17.3599 4.69999 18.1999 5.22999 18.7299C5.51999 19.0199 5.90999 19.1699 6.33999 19.1699C6.68999 19.1699 7.05999 19.0699 7.42999 18.8799L10.09 17.4999C10.38 17.3499 10.64 17.1499 10.88 16.9199L10.87 16.9099Z" fill="black"/>
<path d="M21.64 15.0698L19.21 10.6999L15.12 14.7899L18.38 18.0498C18.52 18.1898 18.71 18.2698 18.91 18.2698C19.11 18.2698 19.3 18.1898 19.44 18.0498L21.52 15.9699C21.76 15.7299 21.81 15.3699 21.65 15.0799L21.64 15.0698Z" fill="black"/>
<path d="M9.16999 8.82985L13.26 4.73985L8.88999 2.30985C8.59999 2.14985 8.22999 2.19985 7.99999 2.43985L5.91999 4.51985C5.62999 4.80985 5.62999 5.28985 5.91999 5.57985L9.16999 8.82985Z" fill="black"/>
<path d="M12.68 17.2299L11.93 17.9799C11.58 18.3299 11.19 18.6199 10.77 18.8299L9.00999 19.7499L10.76 21.4999C10.9 21.6399 11.09 21.7199 11.29 21.7199C11.49 21.7199 11.68 21.6399 11.82 21.4999L13.2 20.1199C13.4 19.9199 13.47 19.6199 13.38 19.3499L12.67 17.2299H12.68Z" fill="black"/>
<path d="M5.97999 12.0299L6.72999 11.2799L4.60999 10.5699C4.33999 10.4799 4.03999 10.5499 3.83999 10.7499L2.45999 12.1299C2.16999 12.4199 2.16999 12.8999 2.45999 13.1899L4.20999 14.9399L5.12999 13.1799C5.34999 12.7599 5.62999 12.3699 5.97999 12.0199V12.0299Z" fill="black"/>
</svg>
