<svg width="24" height="24" viewBox="0 0 24 24" fill="none" xmlns="http://www.w3.org/2000/svg">
<path d="M20 9.75C20.96 9.75 21.75 8.96 21.75 8V6C21.75 5.04 20.96 4.25 20 4.25C19.42 4.25 18.88 4.43 18.43 4.75C17.97 3.87 17.06 3.25 16 3.25H8C6.94 3.25 6.02 3.86 5.57 4.75C5.12 4.44 4.59 4.25 4 4.25C3.04 4.25 2.25 5.04 2.25 6V8C2.25 8.96 3.04 9.75 4 9.75H5.25V12.25H5C3.48 12.25 2.25 13.48 2.25 15V17C2.25 17.96 3.04 18.75 4 18.75H5.37C5.7 19.9 6.75 20.75 8 20.75H16C17.25 20.75 18.3 19.9 18.63 18.75H20C20.96 18.75 21.75 17.96 21.75 17V15C21.75 13.48 20.52 12.25 19 12.25H18.75V9.75H20ZM20 5.75C20.14 5.75 20.25 5.86 20.25 6V8C20.25 8.14 20.14 8.25 20 8.25H18.75V7C18.75 6.31 19.31 5.75 20 5.75ZM6.75 6C6.75 5.31 7.31 4.75 8 4.75H16C16.69 4.75 17.25 5.31 17.25 6V8.46C16.43 8.71 15.59 8.9 14.75 9.03V9C14.75 8.59 14.41 8.25 14 8.25C13.59 8.25 13.25 8.59 13.25 9V9.2C12.42 9.26 11.58 9.26 10.75 9.2V9C10.75 8.59 10.41 8.25 10 8.25C9.59 8.25 9.25 8.59 9.25 9V9.03C8.41 8.9 7.57 8.71 6.75 8.45V5.99V6ZM3.75 8V6C3.75 5.86 3.86 5.75 4 5.75C4.69 5.75 5.25 6.31 5.25 7V8.25H4C3.86 8.25 3.75 8.14 3.75 8ZM3.75 17V15C3.75 14.31 4.31 13.75 5 13.75H5.25V17.25H4C3.86 17.25 3.75 17.14 3.75 17ZM16 19.25H8C7.31 19.25 6.75 18.69 6.75 18V10C7.57 10.23 8.41 10.41 9.25 10.54V11C9.25 11.41 9.59 11.75 10 11.75C10.41 11.75 10.75 11.41 10.75 11V10.7C11.17 10.73 11.58 10.75 12 10.75C12.42 10.75 12.83 10.73 13.25 10.7V11C13.25 11.41 13.59 11.75 14 11.75C14.41 11.75 14.75 11.41 14.75 11V10.54C15.59 10.42 16.43 10.24 17.25 10V17.99C17.25 18.68 16.69 19.24 16 19.24V19.25ZM19 13.75C19.69 13.75 20.25 14.31 20.25 15V17C20.25 17.14 20.14 17.25 20 17.25H18.75V13.75H19Z" fill="black"/>
<path d="M14 13.25H10C9.04 13.25 8.25 14.04 8.25 15V16C8.25 16.96 9.04 17.75 10 17.75H14C14.96 17.75 15.75 16.96 15.75 16V15C15.75 14.04 14.96 13.25 14 13.25ZM14.25 16C14.25 16.14 14.14 16.25 14 16.25H10C9.86 16.25 9.75 16.14 9.75 16V15C9.75 14.86 9.86 14.75 10 14.75H14C14.14 14.75 14.25 14.86 14.25 15V16Z" fill="black"/>
</svg>
