<svg width="24" height="24" viewBox="0 0 24 24" fill="none" xmlns="http://www.w3.org/2000/svg">
<path d="M15.22 5.25C15.71 6.63 15.79 8.17 15.53 9.75H18.05C18.99 9.75 19.75 8.99 19.75 8.05C19.75 4.85 17.15 2.25 13.95 2.25H13.4C13.89 2.76 14.32 3.33 14.67 3.97C14.89 4.37 15.08 4.8 15.24 5.25H15.22Z" fill="black"/>
<path d="M5.95 9.75H8.47C8.2 8.17 8.29 6.63 8.78 5.25C8.94 4.81 9.13 4.38 9.35 3.97C9.7 3.33 10.13 2.75 10.62 2.25H10.07C6.87 2.25 4.27 4.85 4.27 8.05C4.27 8.99 5.03 9.75 5.97 9.75H5.95Z" fill="black"/>
<path d="M21.03 14.94C21.49 14.57 21.75 14.03 21.75 13.44C21.75 12.69 21.33 12.03 20.66 11.71C19.99 11.39 19.21 11.48 18.63 11.94L16.63 13.54C16.06 14 15.33 14.25 14.6 14.25H12.75V9.75H14.01C14.29 8.34 14.24 6.96 13.81 5.75C13.68 5.38 13.52 5.03 13.34 4.69C12.98 4.03 12.53 3.45 12 2.97C11.47 3.45 11.02 4.03 10.66 4.69C10.48 5.02 10.32 5.38 10.19 5.75C9.76 6.96 9.71 8.34 9.99 9.75H11.25V14.25H4.17C3.11 14.25 2.25 15.11 2.25 16.17V16.83C2.25 17.89 3.11 18.75 4.17 18.75H5.6L4.38 20.58C4.15 20.92 4.24 21.39 4.59 21.62C4.72 21.7 4.86 21.75 5.01 21.75C5.25 21.75 5.49 21.63 5.63 21.42L7.41 18.75H14.61L16.39 21.42C16.53 21.64 16.77 21.75 17.01 21.75C17.15 21.75 17.3 21.71 17.43 21.62C17.77 21.39 17.87 20.92 17.64 20.58L16.23 18.46C16.72 18.28 17.18 18.03 17.58 17.71L21.04 14.94H21.03Z" fill="black"/>
</svg>
