<svg width="24" height="24" viewBox="0 0 24 24" fill="none" xmlns="http://www.w3.org/2000/svg">
<path d="M15.29 8.13C15.2 8.13 15.09 8.15 14.98 8.18L10.51 9.54C10.06 9.68 9.67001 10.07 9.54001 10.51L8.18001 14.98C8.09001 15.28 8.13001 15.55 8.28001 15.7C8.44001 15.86 8.70001 15.9 9.00001 15.8L13.47 14.44C13.92 14.3 14.31 13.91 14.44 13.47L15.8 9C15.89 8.7 15.85 8.43 15.7 8.28C15.6 8.18 15.45 8.13 15.28 8.13H15.29ZM12.01 12.75C11.6 12.75 11.26 12.41 11.26 12C11.26 11.59 11.59 11.25 12.01 11.25C12.43 11.25 12.76 11.59 12.76 12C12.76 12.41 12.43 12.75 12.01 12.75Z" fill="black"/>
<path d="M18.89 5.11C17.05 3.27 14.6 2.25 12 2.25C9.40001 2.25 6.95001 3.26 5.11001 5.11C1.31001 8.91 1.31001 15.1 5.11001 18.9C6.95001 20.74 9.40001 21.76 12 21.76C14.6 21.76 17.05 20.75 18.89 18.9C22.69 15.1 22.69 8.91 18.89 5.11ZM17.25 9.45L15.89 13.92C15.61 14.84 14.84 15.61 13.92 15.89L9.45001 17.25C9.20001 17.33 8.95001 17.36 8.71001 17.36C8.14001 17.36 7.62001 17.16 7.23001 16.77C6.67001 16.22 6.50001 15.38 6.75001 14.55L8.11001 10.08C8.39001 9.16 9.16001 8.39 10.08 8.11L14.55 6.75C15.38 6.5 16.22 6.67 16.77 7.23C17.33 7.78 17.5 8.62 17.25 9.45Z" fill="black"/>
</svg>
