<svg width="24" height="24" viewBox="0 0 24 24" fill="none" xmlns="http://www.w3.org/2000/svg">
<path d="M21.53 2.46987C21.32 2.25987 21.01 2.19987 20.74 2.29987L3.37003 8.69987C2.62003 8.97987 2.12003 9.68987 2.13003 10.4799C2.13003 11.2099 2.58003 11.8399 3.26003 12.0699L9.68003 14.3199L11.93 20.7399C12.17 21.4199 12.79 21.8699 13.52 21.8699H13.54C14.32 21.8699 15.03 21.3699 15.31 20.6299L21.7 3.25987C21.8 2.98987 21.73 2.67987 21.53 2.46987ZM3.63003 10.4699C3.63003 10.3499 3.70003 10.1799 3.89003 10.1099L18.05 4.88987L10.07 12.8699L3.75003 10.6599C3.75003 10.6599 3.62003 10.6199 3.62003 10.4699H3.63003ZM13.89 20.1099C13.82 20.2999 13.65 20.3699 13.53 20.3699C13.4 20.3699 13.35 20.2799 13.34 20.2399L11.13 13.9199L19.11 5.93987L13.89 20.0999V20.1099Z" fill="black"/>
</svg>
