<svg width="24" height="24" viewBox="0 0 24 24" fill="none" xmlns="http://www.w3.org/2000/svg">
<path d="M2.98999 10.72C3.39999 10.72 3.73999 10.38 3.73999 9.96997C3.73999 8.17997 5.19999 6.71997 6.98999 6.71997H16.99C18.78 6.71997 20.24 8.17997 20.24 9.96997C20.24 10.38 20.58 10.72 20.99 10.72C21.4 10.72 21.74 10.38 21.74 9.96997C21.74 7.34997 19.61 5.21997 16.99 5.21997H6.98999C4.36999 5.21997 2.23999 7.34997 2.23999 9.96997C2.23999 10.38 2.57999 10.72 2.98999 10.72Z" fill="black"/>
<path d="M18.99 12.22H4.98999C3.46999 12.22 2.23999 13.45 2.23999 14.97V16.97C2.23999 17.38 2.57999 17.72 2.98999 17.72H4.23999V18.97C4.23999 19.38 4.57999 19.72 4.98999 19.72C5.39999 19.72 5.73999 19.38 5.73999 18.97V17.72H18.24V18.97C18.24 19.38 18.58 19.72 18.99 19.72C19.4 19.72 19.74 19.38 19.74 18.97V17.72H20.99C21.4 17.72 21.74 17.38 21.74 16.97V14.97C21.74 13.45 20.51 12.22 18.99 12.22Z" fill="black"/>
<path d="M6.98999 9.21997C6.10999 9.21997 5.38999 9.86997 5.26999 10.72H10.72C10.6 9.86997 9.86999 9.21997 8.99999 9.21997H6.98999Z" fill="black"/>
<path d="M14.99 9.21997C14.11 9.21997 13.39 9.86997 13.27 10.72H18.72C18.6 9.86997 17.87 9.21997 17 9.21997H14.99Z" fill="black"/>
</svg>
