<svg width="24" height="24" viewBox="0 0 24 24" fill="none" xmlns="http://www.w3.org/2000/svg">
<path d="M21.04 10.6L21.67 9.34C21.86 8.97 21.71 8.52 21.33 8.33C20.98 8.15 20.56 8.29 20.36 8.62L20.01 6.55C19.79 5.22 18.65 4.25 17.3 4.25H6.68999C5.33999 4.25 4.19999 5.22 3.97999 6.55L3.62999 8.62C3.42999 8.29 3.00999 8.15 2.65999 8.33C2.28999 8.52 2.13999 8.97 2.31999 9.34L2.94999 10.6C2.51999 10.92 2.23999 11.43 2.23999 12V16C2.23999 16.96 3.02999 17.75 3.98999 17.75H4.23999V19C4.23999 19.96 5.02999 20.75 5.98999 20.75H7.98999C8.94999 20.75 9.73999 19.96 9.73999 19V17.75H14.24V19C14.24 19.96 15.03 20.75 15.99 20.75H17.99C18.95 20.75 19.74 19.96 19.74 19V17.75H19.99C20.95 17.75 21.74 16.96 21.74 16V12C21.74 11.43 21.46 10.92 21.03 10.6H21.04ZM5.45999 6.79C5.55999 6.18 6.07999 5.75 6.68999 5.75H17.3C17.91 5.75 18.43 6.19 18.53 6.79L19.11 10.25H4.88999L5.46999 6.79H5.45999ZM8.24999 19C8.24999 19.14 8.13999 19.25 7.99999 19.25H5.99999C5.85999 19.25 5.74999 19.14 5.74999 19V17.75H8.24999V19ZM18.25 19C18.25 19.14 18.14 19.25 18 19.25H16C15.86 19.25 15.75 19.14 15.75 19V17.75H18.25V19ZM20.25 16C20.25 16.14 20.14 16.25 20 16.25H3.99999C3.85999 16.25 3.74999 16.14 3.74999 16V12C3.74999 11.86 3.85999 11.75 3.99999 11.75H20C20.14 11.75 20.25 11.86 20.25 12V16Z" fill="black"/>
<path d="M7.99999 13.25H5.99999C5.58999 13.25 5.24999 13.59 5.24999 14C5.24999 14.41 5.58999 14.75 5.99999 14.75H7.99999C8.40999 14.75 8.74999 14.41 8.74999 14C8.74999 13.59 8.40999 13.25 7.99999 13.25Z" fill="black"/>
<path d="M18 13.25H16C15.59 13.25 15.25 13.59 15.25 14C15.25 14.41 15.59 14.75 16 14.75H18C18.41 14.75 18.75 14.41 18.75 14C18.75 13.59 18.41 13.25 18 13.25Z" fill="black"/>
</svg>
