<svg width="24" height="24" viewBox="0 0 24 24" fill="none" xmlns="http://www.w3.org/2000/svg">
<path d="M21.66 15.1001L18.47 9.36012L18.65 9.18012C20.18 7.65012 20.53 5.62012 19.46 4.54012C18.91 3.99012 18.06 3.80012 17.14 4.00012C16.33 4.18012 15.5 4.66012 14.82 5.35012L14.64 5.53012L8.90001 2.34012C8.61001 2.18012 8.24001 2.23012 8.01001 2.47012L5.93001 4.55012C5.79001 4.69012 5.71001 4.88012 5.71001 5.08012C5.71001 5.28012 5.79001 5.47012 5.93001 5.61012L10.25 9.93012L8.34001 11.8401L4.63001 10.6001C4.36001 10.5101 4.06001 10.5801 3.86001 10.7801L2.48001 12.1601C2.19001 12.4501 2.19001 12.9301 2.48001 13.2201L5.35001 16.0901L5.10001 16.5601C4.67001 17.3901 4.73001 18.2301 5.25001 18.7601C5.54001 19.0501 5.93001 19.2001 6.36001 19.2001C6.71001 19.2001 7.08001 19.1001 7.45001 18.9101L7.92001 18.6601L10.79 21.5301C10.94 21.6801 11.13 21.7501 11.32 21.7501C11.51 21.7501 11.7 21.6801 11.85 21.5301L13.23 20.1501C13.43 19.9501 13.5 19.6501 13.41 19.3801L12.17 15.6701L14.08 13.7601L18.4 18.0801C18.54 18.2201 18.73 18.3001 18.93 18.3001C19.13 18.3001 19.32 18.2201 19.46 18.0801L21.54 16.0001C21.78 15.7601 21.83 15.4001 21.67 15.1101L21.66 15.1001ZM7.52001 5.08012L8.67001 3.93012L13.54 6.63012L11.31 8.86012L7.52001 5.07012V5.08012ZM4.06001 12.7001L4.59001 12.1701L7.15001 13.0201L7.06001 13.1101C6.82001 13.3501 6.62001 13.6201 6.47001 13.9001L6.06001 14.6901L4.06001 12.6901V12.7001ZM6.74001 17.5901C6.47001 17.7301 6.30001 17.7101 6.31001 17.7301C6.30001 17.7001 6.28001 17.5401 6.42001 17.2701L7.80001 14.6101C7.88001 14.4601 7.99001 14.3201 8.11001 14.1901L15.87 6.43012C16.35 5.95012 16.93 5.61012 17.46 5.49012C17.6 5.46012 17.72 5.44012 17.84 5.44012C18.08 5.44012 18.27 5.50012 18.39 5.62012C18.79 6.02012 18.53 7.18012 17.58 8.14012L9.82001 15.9001C9.69001 16.0301 9.54001 16.1401 9.40001 16.2101L6.74001 17.5901ZM11.83 19.4201L11.3 19.9501L9.30001 17.9501L10.09 17.5401C10.37 17.3901 10.65 17.1901 10.88 16.9501L10.97 16.8601L11.82 19.4201H11.83ZM18.92 16.4901L15.13 12.7001L17.36 10.4701L20.06 15.3401L18.91 16.4901H18.92Z" fill="black"/>
</svg>
