<svg width="24" height="24" viewBox="0 0 24 24" fill="none" xmlns="http://www.w3.org/2000/svg">
<path d="M14.22 11.26C13.36 9.43999 11.53 8.23999 9.48004 8.23999C6.63004 8.23999 4.32004 10.52 4.24004 13.35C3.08004 13.67 2.23004 14.73 2.23004 15.99C2.23004 17.51 3.46004 18.74 4.98004 18.74H14.28C15.28 18.65 16.19 18.19 16.84 17.42C17.49 16.66 17.8 15.69 17.73 14.69C17.65 13.69 17.19 12.78 16.43 12.13C15.81 11.6 15.04 11.3 14.23 11.25L14.22 11.26Z" fill="black"/>
<path d="M20.98 9.23999H19.98C19.57 9.23999 19.23 9.57999 19.23 9.98999C19.23 10.4 19.57 10.74 19.98 10.74H20.98C21.39 10.74 21.73 10.4 21.73 9.98999C21.73 9.57999 21.39 9.23999 20.98 9.23999Z" fill="black"/>
<path d="M14.98 5.73999C15.39 5.73999 15.73 5.39999 15.73 4.98999V3.98999C15.73 3.57999 15.39 3.23999 14.98 3.23999C14.57 3.23999 14.23 3.57999 14.23 3.98999V4.98999C14.23 5.39999 14.57 5.73999 14.98 5.73999Z" fill="black"/>
<path d="M19.76 5.20999C19.47 4.91999 18.99 4.91999 18.7 5.20999L17.99 5.91999C17.7 6.20999 17.7 6.68999 17.99 6.97999C18.14 7.12999 18.33 7.19999 18.52 7.19999C18.71 7.19999 18.9 7.12999 19.05 6.97999L19.76 6.26999C20.05 5.97999 20.05 5.49999 19.76 5.20999Z" fill="black"/>
<path d="M10.92 6.97999C11.07 7.12999 11.26 7.19999 11.45 7.19999C11.64 7.19999 11.83 7.12999 11.98 6.97999C12.27 6.68999 12.27 6.20999 11.98 5.91999L11.27 5.20999C10.98 4.91999 10.5 4.91999 10.21 5.20999C9.92004 5.49999 9.92004 5.97999 10.21 6.26999L10.92 6.97999Z" fill="black"/>
<path d="M14.99 6.23999C13.94 6.23999 12.99 6.67999 12.31 7.37999C13.47 7.91999 14.48 8.77999 15.18 9.88999C16 10.08 16.75 10.45 17.4 11C17.71 11.26 17.97 11.57 18.21 11.89C18.54 11.33 18.74 10.69 18.74 9.98999C18.74 7.91999 17.06 6.23999 14.99 6.23999Z" fill="black"/>
</svg>
