<svg width="24" height="24" viewBox="0 0 24 24" fill="none" xmlns="http://www.w3.org/2000/svg">
<path d="M20.42 11.4602C19.59 10.8502 18.58 10.6602 17.63 10.9002C17.61 10.5002 17.46 10.1102 17.18 9.81018C16.85 9.45018 16.38 9.24018 15.89 9.24018H4.08003C3.59003 9.24018 3.12003 9.45018 2.79003 9.81018C2.46003 10.1702 2.29003 10.6602 2.34003 11.1502L2.53003 13.2402H11.98C12.39 13.2402 12.73 13.5802 12.73 13.9902C12.73 14.4002 12.39 14.7402 11.98 14.7402H2.66003L2.99003 18.3302C3.17003 20.2702 4.77003 21.7402 6.72003 21.7402H13.24C15.06 21.7402 16.56 20.4702 16.9 18.7202C16.93 18.7202 16.95 18.7402 16.98 18.7402H18.05C19.54 18.7402 20.83 17.7802 21.26 16.3602L21.63 15.1202C22.04 13.7502 21.56 12.3202 20.42 11.4702V11.4602ZM20.2 14.6802L19.83 15.9202C19.59 16.7102 18.88 17.2402 18.06 17.2402H17.09L17.52 12.5602C18.28 12.1102 19.06 12.3102 19.54 12.6702C20.04 13.0402 20.49 13.7702 20.21 14.6902L20.2 14.6802Z" fill="black"/>
<path d="M9.65003 7.66018C9.76003 7.71018 9.87003 7.74018 9.98003 7.74018C10.25 7.74018 10.52 7.59018 10.65 7.33018C10.84 6.96018 10.68 6.51018 10.31 6.32018C10.02 6.18018 9.87003 6.06018 9.79003 6.01018C9.93003 5.89018 10.19 5.74018 10.36 5.64018C10.97 5.28018 11.73 4.83018 11.73 3.99018C11.73 3.03018 10.67 2.49018 10.32 2.32018C9.95003 2.14018 9.50003 2.29018 9.31003 2.66018C9.12003 3.03018 9.27003 3.48018 9.65003 3.67018C9.94003 3.82018 10.1 3.93018 10.17 3.98018C10.03 4.10018 9.77003 4.25018 9.60003 4.35018C8.99003 4.71018 8.23003 5.16018 8.23003 6.00018C8.23003 6.96018 9.29003 7.50018 9.64003 7.67018L9.65003 7.66018Z" fill="black"/>
<path d="M13.65 7.66018C13.76 7.71018 13.87 7.74018 13.98 7.74018C14.25 7.74018 14.52 7.59018 14.65 7.33018C14.84 6.96018 14.68 6.51018 14.31 6.32018C14.02 6.18018 13.87 6.06018 13.79 6.01018C13.93 5.89018 14.19 5.74018 14.36 5.64018C14.97 5.28018 15.73 4.83018 15.73 3.99018C15.73 3.03018 14.67 2.49018 14.32 2.32018C13.95 2.14018 13.5 2.29018 13.31 2.66018C13.12 3.03018 13.27 3.48018 13.65 3.67018C13.94 3.82018 14.1 3.93018 14.17 3.98018C14.03 4.10018 13.77 4.25018 13.6 4.35018C12.99 4.71018 12.23 5.16018 12.23 6.00018C12.23 6.96018 13.29 7.50018 13.64 7.67018L13.65 7.66018Z" fill="black"/>
<path d="M5.65003 7.66018C5.76003 7.71018 5.87003 7.74018 5.98003 7.74018C6.25003 7.74018 6.52003 7.59018 6.65003 7.33018C6.84003 6.96018 6.68003 6.51018 6.31003 6.32018C6.02003 6.18018 5.87003 6.06018 5.79003 6.01018C5.93003 5.89018 6.19003 5.74018 6.36003 5.64018C6.97003 5.28018 7.73003 4.83018 7.73003 3.99018C7.73003 3.03018 6.67003 2.49018 6.32003 2.32018C5.95003 2.14018 5.50003 2.29018 5.31003 2.66018C5.12003 3.03018 5.27003 3.48018 5.65003 3.67018C5.94003 3.82018 6.10003 3.93018 6.17003 3.98018C6.03003 4.10018 5.77003 4.25018 5.60003 4.35018C4.99003 4.71018 4.23003 5.16018 4.23003 6.00018C4.23003 6.96018 5.29003 7.50018 5.64003 7.67018L5.65003 7.66018Z" fill="black"/>
</svg>
