<svg width="24" height="24" viewBox="0 0 24 24" fill="none" xmlns="http://www.w3.org/2000/svg">
<path d="M18 6.25H10.75V6C10.75 5.04 9.96 4.25 9 4.25H6C5.04 4.25 4.25 5.04 4.25 6V6.7C3.07 7.33 2.25 8.56 2.25 10V16C2.25 18.07 3.93 19.75 6 19.75H18C20.07 19.75 21.75 18.07 21.75 16V10C21.75 7.93 20.07 6.25 18 6.25ZM5.75 6C5.75 5.86 5.86 5.75 6 5.75H9C9.14 5.75 9.25 5.86 9.25 6V6.25H6C5.91 6.25 5.83 6.27 5.75 6.28V6ZM20.25 16C20.25 17.24 19.24 18.25 18 18.25H6C4.76 18.25 3.75 17.24 3.75 16V10C3.75 8.76 4.76 7.75 6 7.75H18C19.24 7.75 20.25 8.76 20.25 10V16Z" fill="black"/>
<path d="M12 9.25C9.93 9.25 8.25 10.93 8.25 13C8.25 15.07 9.93 16.75 12 16.75C14.07 16.75 15.75 15.07 15.75 13C15.75 10.93 14.07 9.25 12 9.25ZM12 15.25C10.76 15.25 9.75 14.24 9.75 13C9.75 11.76 10.76 10.75 12 10.75C13.24 10.75 14.25 11.76 14.25 13C14.25 14.24 13.24 15.25 12 15.25Z" fill="black"/>
<path d="M12.02 12.25C11.61 12.25 11.27 12.59 11.27 13C11.27 13.41 11.61 13.75 12.02 13.75C12.43 13.75 12.77 13.41 12.77 13C12.77 12.59 12.44 12.25 12.02 12.25Z" fill="black"/>
</svg>
