<svg width="24" height="24" viewBox="0 0 24 24" fill="none" xmlns="http://www.w3.org/2000/svg">
<path d="M18.41 6.25C17.94 6.25 17.5 6.43 17.17 6.76L16.76 7.17C16.76 7.17 16.65 7.24 16.58 7.24H15.41C15.34 7.24 15.28 7.21 15.23 7.17L14.82 6.76C14.49 6.43 14.05 6.25 13.58 6.25H5C3.48 6.25 2.25 7.48 2.25 9V15C2.25 16.52 3.48 17.75 5 17.75H13.59C14.06 17.75 14.5 17.57 14.83 17.24L15.24 16.83C15.24 16.83 15.35 16.76 15.42 16.76H16.59C16.66 16.76 16.72 16.79 16.77 16.83L17.18 17.24C17.51 17.57 17.95 17.75 18.42 17.75H19.01C20.53 17.75 21.76 16.52 21.76 15V9C21.76 7.48 20.53 6.25 19.01 6.25H18.41ZM12 12.75H10.31L8.53 14.53C8.38 14.68 8.19 14.75 8 14.75C7.81 14.75 7.62 14.68 7.47 14.53C7.18 14.24 7.18 13.76 7.47 13.47L8.19 12.75H6.75V13C6.75 13.41 6.41 13.75 6 13.75C5.59 13.75 5.25 13.41 5.25 13V11C5.25 10.59 5.59 10.25 6 10.25C6.41 10.25 6.75 10.59 6.75 11V11.25H8.19L7.47 10.53C7.18 10.24 7.18 9.76 7.47 9.47C7.76 9.18 8.24 9.18 8.53 9.47L10.31 11.25H12C12.41 11.25 12.75 11.59 12.75 12C12.75 12.41 12.41 12.75 12 12.75ZM16.75 14C16.75 14.41 16.41 14.75 16 14.75C15.59 14.75 15.25 14.41 15.25 14V10C15.25 9.59 15.59 9.25 16 9.25C16.41 9.25 16.75 9.59 16.75 10V14Z" fill="black"/>
</svg>
