<svg width="24" height="24" viewBox="0 0 24 24" fill="none" xmlns="http://www.w3.org/2000/svg">
<path d="M19.23 6.65C17.81 3.93 15.15 2.29 12.14 2.25H11.88C8.86001 2.29 6.21001 3.93 4.78001 6.65C3.35001 9.38 3.52001 12.65 5.23001 15.19L5.39001 15.43C6.92001 17.63 8.79001 19.57 10.96 21.18C11.27 21.41 11.64 21.53 12.01 21.53C12.38 21.53 12.74 21.41 13.06 21.18C15.23 19.57 17.1 17.64 18.63 15.43L18.8 15.19C20.51 12.66 20.68 9.39 19.24 6.66L19.23 6.65ZM17.55 14.34L17.39 14.57C15.96 16.64 14.2 18.45 12.16 19.96C12.07 20.03 11.95 20.03 11.85 19.96C9.81001 18.45 8.05001 16.63 6.62001 14.57L6.46001 14.34C5.04001 12.24 4.91001 9.62 6.10001 7.34C7.26001 5.12 9.43001 3.77 11.89 3.74H12.11C14.57 3.77 16.73 5.11 17.9 7.34C19.09 9.62 18.96 12.24 17.55 14.33V14.34Z" fill="black"/>
<path d="M12 4.25C8.83001 4.25 6.25001 6.83 6.25001 10C6.25001 13.17 8.83001 15.75 12 15.75C13.89 15.75 15.57 14.83 16.62 13.41C16.62 13.41 16.64 13.4 16.64 13.39V13.37C17.33 12.42 17.75 11.26 17.75 10C17.75 6.83 15.17 4.25 12 4.25ZM8.59001 12.51L10.89 10.98C10.97 10.93 11.08 10.93 11.16 10.98L14.81 13.17C14.06 13.84 13.08 14.26 12 14.26C10.6 14.26 9.36001 13.57 8.59001 12.52V12.51ZM15.74 11.97L11.92 9.68C11.34 9.34 10.61 9.35 10.05 9.72L7.92001 11.14C7.82001 10.77 7.74001 10.39 7.74001 9.99C7.74001 7.65 9.65001 5.74 11.99 5.74C14.33 5.74 16.24 7.65 16.24 9.99C16.24 10.7 16.05 11.37 15.73 11.96L15.74 11.97Z" fill="black"/>
<path d="M14.02 8.25C13.61 8.25 13.27 8.59 13.27 9C13.27 9.41 13.61 9.75 14.02 9.75C14.43 9.75 14.77 9.41 14.77 9C14.77 8.59 14.44 8.25 14.02 8.25Z" fill="black"/>
</svg>
