<svg width="24" height="24" viewBox="0 0 24 24" fill="none" xmlns="http://www.w3.org/2000/svg">
<path d="M19.23 6.65C17.81 3.93 15.15 2.29 12.14 2.25H11.88C8.86001 2.29 6.21001 3.93 4.78001 6.65C3.35001 9.38 3.52001 12.65 5.23001 15.19L5.39001 15.43C6.92001 17.63 8.79001 19.57 10.96 21.18C11.27 21.41 11.64 21.53 12.01 21.53C12.38 21.53 12.74 21.41 13.06 21.18C15.23 19.57 17.1 17.64 18.63 15.43L18.8 15.19C20.51 12.66 20.68 9.39 19.24 6.66L19.23 6.65ZM16.65 13.37V13.39C16.65 13.39 16.63 13.4 16.62 13.41C15.57 14.83 13.89 15.75 12 15.75C8.83001 15.75 6.25001 13.17 6.25001 10C6.25001 6.83 8.83001 4.25 12 4.25C15.17 4.25 17.75 6.83 17.75 10C17.75 11.26 17.34 12.42 16.65 13.37Z" fill="black"/>
<path d="M10.89 10.97L8.59001 12.5C9.36001 13.55 10.6 14.24 12 14.24C13.08 14.24 14.06 13.82 14.81 13.15L11.16 10.96C11.08 10.91 10.97 10.91 10.89 10.96V10.97Z" fill="black"/>
<path d="M12 5.75C9.66001 5.75 7.75001 7.66 7.75001 10C7.75001 10.4 7.82001 10.78 7.93001 11.15L10.06 9.73C10.62 9.36 11.35 9.34 11.93 9.69L15.75 11.98C16.06 11.39 16.26 10.72 16.26 10.01C16.26 7.67 14.35 5.76 12.01 5.76L12 5.75ZM14.02 9.75C13.61 9.75 13.27 9.41 13.27 9C13.27 8.59 13.6 8.25 14.02 8.25C14.44 8.25 14.77 8.59 14.77 9C14.77 9.41 14.44 9.75 14.02 9.75Z" fill="black"/>
</svg>
