<svg width="24" height="24" viewBox="0 0 24 24" fill="none" xmlns="http://www.w3.org/2000/svg">
<path d="M6.75 9.75H5.75C5.61193 9.75 5.5 9.86193 5.5 10V11C5.5 11.1381 5.61193 11.25 5.75 11.25H6.75C6.88807 11.25 7 11.1381 7 11V10C7 9.86193 6.88807 9.75 6.75 9.75Z" fill="black"/>
<path d="M21 16.25H18.98C19.46 15.62 19.75 14.85 19.75 14V10C19.75 7.38 17.62 5.25 15 5.25H5C3.48 5.25 2.25 6.48 2.25 8V16C2.25 16.51 2.48 16.97 2.83 17.29C3.15 15.84 4.45 14.75 6 14.75C7.71 14.75 9.09 16.08 9.22 17.75H11.25V12C11.25 10.48 12.48 9.25 14 9.25C15.52 9.25 16.75 10.48 16.75 12V17.75H21C21.41 17.75 21.75 17.41 21.75 17C21.75 16.59 21.41 16.25 21 16.25ZM8.5 11C8.5 11.96 7.71 12.75 6.75 12.75H5.75C4.79 12.75 4 11.96 4 11V10C4 9.04 4.79 8.25 5.75 8.25H6.75C7.71 8.25 8.5 9.04 8.5 10V11Z" fill="black"/>
<path d="M14 10.75C13.31 10.75 12.75 11.31 12.75 12V17.75H15.25V12C15.25 11.31 14.69 10.75 14 10.75Z" fill="black"/>
<path d="M6 19.75C6.9665 19.75 7.75 18.9665 7.75 18C7.75 17.0335 6.9665 16.25 6 16.25C5.0335 16.25 4.25 17.0335 4.25 18C4.25 18.9665 5.0335 19.75 6 19.75Z" fill="black"/>
</svg>
