<svg width="24" height="24" viewBox="0 0 24 24" fill="none" xmlns="http://www.w3.org/2000/svg">
<path d="M15.73 4.98999C15.73 3.46999 14.5 2.23999 12.98 2.23999H10.98C9.46004 2.23999 8.23004 3.46999 8.23004 4.98999V6.23999H7.73004V19.74H16.23V6.23999H15.73V4.98999ZM9.73004 4.98999C9.73004 4.29999 10.29 3.73999 10.98 3.73999H12.98C13.67 3.73999 14.23 4.29999 14.23 4.98999V6.23999H9.73004V4.98999Z" fill="black"/>
<path d="M2.23004 8.98999V16.99C2.23004 18.24 3.08004 19.29 4.23004 19.62V20.99C4.23004 21.4 4.57004 21.74 4.98004 21.74C5.39004 21.74 5.73004 21.4 5.73004 20.99V19.74H6.23004V6.23999H4.98004C3.46004 6.23999 2.23004 7.46999 2.23004 8.98999Z" fill="black"/>
<path d="M18.98 6.23999H17.73V19.74H18.23V20.99C18.23 21.4 18.57 21.74 18.98 21.74C19.39 21.74 19.73 21.4 19.73 20.99V19.62C20.88 19.29 21.73 18.24 21.73 16.99V8.98999C21.73 7.46999 20.5 6.23999 18.98 6.23999Z" fill="black"/>
</svg>
