<svg width="24" height="24" viewBox="0 0 24 24" fill="none" xmlns="http://www.w3.org/2000/svg">
<path d="M12 2.25C6.62 2.25 2.25 6.62 2.25 12C2.25 17.38 6.62 21.75 12 21.75C17.38 21.75 21.75 17.38 21.75 12C21.75 6.62 17.38 2.25 12 2.25ZM20.23 11.64L18.63 12.84C17.61 13.6 16.25 13.67 15.16 13.02L14.14 12.41C13.91 12.28 13.77 12.05 13.73 11.79C13.7 11.53 13.79 11.27 13.97 11.09L14.6 10.46C15.39 9.67 15.51 8.42 14.89 7.5L14.5 6.92C14.24 6.53 14.35 6 14.74 5.74L16.08 4.85C18.46 6.22 20.1 8.74 20.22 11.65L20.23 11.64ZM3.75 12C3.75 11.25 3.86 10.52 4.05 9.83L6.91 10.97C7.63 11.26 8.04 12.01 7.89 12.77L7.61 14.17C7.48 14.81 7.65 15.46 8.06 15.96C8.47 16.46 9.08 16.75 9.73 16.75C10.06 16.75 10.23 16.97 10.29 17.06C10.35 17.15 10.47 17.4 10.32 17.7L9.34 19.66C9.34 19.66 9.32 19.74 9.31 19.78C6.09 18.66 3.76 15.6 3.76 11.99L3.75 12ZM12 20.25C11.58 20.25 11.17 20.21 10.76 20.15L11.65 18.38C11.99 17.71 11.95 16.92 11.56 16.28C11.16 15.64 10.48 15.26 9.72 15.26C9.45 15.26 9.28 15.11 9.21 15.02C9.14 14.93 9.02 14.74 9.07 14.47L9.35 13.07C9.64 11.6 8.85 10.14 7.46 9.58L4.57 8.43C5.91 5.67 8.73 3.76 11.99 3.76C12.85 3.76 13.67 3.89 14.45 4.13L13.9 4.49C12.82 5.21 12.53 6.67 13.25 7.75L13.64 8.33C13.86 8.66 13.82 9.12 13.53 9.4L12.9 10.03C12.38 10.54 12.14 11.25 12.23 11.98C12.32 12.7 12.73 13.33 13.35 13.71L14.37 14.32C15.11 14.76 15.93 14.98 16.75 14.98C17.73 14.98 18.7 14.67 19.52 14.05L20.08 13.63C19.32 17.4 15.99 20.26 11.99 20.26L12 20.25Z" fill="black"/>
</svg>
