<svg width="24" height="24" viewBox="0 0 24 24" fill="none" xmlns="http://www.w3.org/2000/svg">
<path d="M5.98999 10.72C6.18999 10.72 6.37999 10.64 6.51999 10.5L8.80999 8.20997C9.40999 7.60997 9.73999 6.81997 9.73999 5.96997C9.73999 3.89997 8.05999 2.21997 5.98999 2.21997C3.91999 2.21997 2.23999 3.89997 2.23999 5.96997C2.23999 6.80997 2.56999 7.60997 3.16999 8.20997L5.45999 10.5C5.59999 10.64 5.78999 10.72 5.98999 10.72Z" fill="black"/>
<path d="M7.44999 15.41L13.84 13.99C14.95 13.74 15.73 12.77 15.73 11.63C15.73 10.3 14.65 9.21997 13.32 9.21997H9.97999C9.56999 9.21997 9.22999 9.55997 9.22999 9.96997C9.22999 10.38 9.56999 10.72 9.97999 10.72H13.32C13.82 10.72 14.23 11.13 14.23 11.63C14.23 12.06 13.94 12.43 13.51 12.52L7.11999 13.94C6.00999 14.19 5.22999 15.16 5.22999 16.3C5.22999 17.63 6.30999 18.72 7.63999 18.72H11.98C12.39 18.72 12.73 18.38 12.73 17.97C12.73 17.56 12.39 17.22 11.98 17.22H7.64999C7.14999 17.22 6.73999 16.81 6.73999 16.3C6.73999 15.87 7.02999 15.5 7.45999 15.41H7.44999Z" fill="black"/>
<path d="M17.99 14.22C15.92 14.22 14.24 15.9 14.24 17.97C14.24 20.04 15.92 21.72 17.99 21.72C20.06 21.72 21.74 20.04 21.74 17.97C21.74 15.9 20.06 14.22 17.99 14.22ZM18.01 18.72C17.6 18.72 17.26 18.38 17.26 17.97C17.26 17.56 17.59 17.22 18.01 17.22C18.43 17.22 18.76 17.56 18.76 17.97C18.76 18.38 18.43 18.72 18.01 18.72Z" fill="black"/>
</svg>
