<svg width="24" height="24" viewBox="0 0 24 24" fill="none" xmlns="http://www.w3.org/2000/svg">
<path d="M20 14.29H21.67C21.68 13.93 21.58 13.56 21.38 13.26L18.4 8.79004H19.5C20.74 8.79004 21.75 7.78004 21.75 6.54004C21.75 5.30004 20.74 4.29004 19.5 4.29004H6C3.93 4.29004 2.25 5.97004 2.25 8.04004V17.04C2.25 17.93 2.92 18.66 3.78 18.77C3.92 17.11 5.3 15.79 7 15.79C8.7 15.79 10.09 17.12 10.22 18.79H12.77C12.9 17.12 14.29 15.79 15.99 15.79C17.69 15.79 19.08 17.12 19.21 18.79C20.01 18.79 20.71 18.24 20.9 17.47L21.32 15.8H19.98C19.57 15.8 19.23 15.46 19.23 15.05C19.23 14.64 19.57 14.3 19.98 14.3L20 14.29ZM10.75 12.04C10.75 13 9.96 13.79 9 13.79H6C5.04 13.79 4.25 13 4.25 12.04V10.04C4.25 9.08004 5.04 8.29004 6 8.29004H9C9.96 8.29004 10.75 9.08004 10.75 10.04V12.04ZM18.85 12.87C18.57 13.44 17.95 13.79 17.25 13.79H15.02C14.06 13.79 13.27 13.09 13.27 12.24V9.84004C13.27 8.99004 14.06 8.29004 15.02 8.29004H15.45C16.04 8.29004 16.58 8.55004 16.91 8.98004L18.71 11.38C19.04 11.83 19.1 12.38 18.85 12.87Z" fill="black"/>
<path d="M9 9.79004H6C5.86193 9.79004 5.75 9.90197 5.75 10.04V12.04C5.75 12.1781 5.86193 12.29 6 12.29H9C9.13807 12.29 9.25 12.1781 9.25 12.04V10.04C9.25 9.90197 9.13807 9.79004 9 9.79004Z" fill="black"/>
<path d="M7 20.79C7.9665 20.79 8.75 20.0065 8.75 19.04C8.75 18.0735 7.9665 17.29 7 17.29C6.0335 17.29 5.25 18.0735 5.25 19.04C5.25 20.0065 6.0335 20.79 7 20.79Z" fill="black"/>
<path d="M16 20.79C16.9665 20.79 17.75 20.0065 17.75 19.04C17.75 18.0735 16.9665 17.29 16 17.29C15.0335 17.29 14.25 18.0735 14.25 19.04C14.25 20.0065 15.0335 20.79 16 20.79Z" fill="black"/>
</svg>
