<svg width="24" height="24" viewBox="0 0 24 24" fill="none" xmlns="http://www.w3.org/2000/svg">
<path d="M18.9 10L20.62 7.42C20.77 7.19 20.79 6.89 20.66 6.65C20.53 6.41 20.28 6.25 20 6.25H15.75V5C15.75 4.04 14.96 3.25 14 3.25H9.75V3C9.75 2.59 9.41 2.25 9 2.25C8.59 2.25 8.25 2.59 8.25 3V17.25H7C6.04 17.25 5.25 18.04 5.25 19V20.25H4C3.59 20.25 3.25 20.59 3.25 21C3.25 21.41 3.59 21.75 4 21.75H14C14.41 21.75 14.75 21.41 14.75 21C14.75 20.59 14.41 20.25 14 20.25H12.75V19C12.75 18.04 11.96 17.25 11 17.25H9.75V10.75H11.25V12C11.25 12.96 12.04 13.75 13 13.75H20C20.28 13.75 20.53 13.6 20.66 13.35C20.79 13.11 20.78 12.81 20.62 12.58L18.9 10ZM11.25 19V20.25H6.75V19C6.75 18.86 6.86 18.75 7 18.75H11C11.14 18.75 11.25 18.86 11.25 19ZM9.75 4.75H14C14.14 4.75 14.25 4.86 14.25 5V9C14.25 9.14 14.14 9.25 14 9.25H9.75V4.75ZM17.38 10.42L18.6 12.25H13C12.86 12.25 12.75 12.14 12.75 12V10.75H14C14.96 10.75 15.75 9.96 15.75 9V7.75H18.6L17.38 9.58C17.21 9.83 17.21 10.16 17.38 10.41V10.42Z" fill="black"/>
</svg>
