<svg width="24" height="24" viewBox="0 0 24 24" fill="none" xmlns="http://www.w3.org/2000/svg">
<path d="M17.55 3.85005C15.98 3.54005 14.38 3.94005 13.16 4.94005C12.69 5.33005 12.3 5.78005 11.99 6.29005C11.73 5.86005 11.41 5.46005 11.02 5.11005C9.90999 4.10005 8.47999 3.63005 6.97999 3.77005C4.31999 4.02005 2.23999 6.40005 2.23999 9.19005C2.23999 10.8501 2.90999 12.4801 4.08999 13.6601L10.75 20.3201C11.09 20.6601 11.54 20.8301 11.99 20.8301C12.44 20.8301 12.89 20.6601 13.23 20.3201L19.89 13.6601C21.07 12.4801 21.74 10.8601 21.74 9.19005C21.74 6.57005 19.97 4.32005 17.54 3.85005H17.55ZM18.84 12.6001L12.18 19.2601C12.08 19.3601 11.92 19.3601 11.83 19.2601L5.16999 12.6001C4.26999 11.7001 3.75999 10.4601 3.75999 9.19005C3.75999 7.17005 5.23999 5.44005 7.13999 5.27005C7.26999 5.26005 7.38999 5.25005 7.50999 5.25005C8.44999 5.25005 9.32999 5.59005 10.03 6.22005C10.81 6.93005 11.26 7.94005 11.26 9.00005C11.26 9.41005 11.6 9.75005 12.01 9.75005C12.42 9.75005 12.76 9.41005 12.76 9.00005C12.76 7.87005 13.26 6.82005 14.13 6.10005C15.01 5.37005 16.13 5.10005 17.28 5.32006C19.01 5.66006 20.27 7.28005 20.27 9.19005C20.27 10.4601 19.76 11.7001 18.86 12.6001H18.84Z" fill="black"/>
</svg>
