<svg width="24" height="24" viewBox="0 0 24 24" fill="none" xmlns="http://www.w3.org/2000/svg">
<path d="M18.4 8.75H19.5C20.74 8.75 21.75 7.74 21.75 6.5C21.75 5.26 20.74 4.25 19.5 4.25H6C3.93 4.25 2.25 5.93 2.25 8V17C2.25 17.96 3.04 18.75 4 18.75H5.28C5.41 19.87 6.35 20.75 7.5 20.75C8.65 20.75 9.6 19.87 9.72 18.75H13.27C13.4 19.87 14.34 20.75 15.49 20.75C16.64 20.75 17.59 19.87 17.71 18.75H19.2C20 18.75 20.7 18.21 20.9 17.42L21.6 14.61C21.72 14.13 21.63 13.62 21.36 13.21L18.38 8.74L18.4 8.75ZM18.93 12.25H15C14.86 12.25 14.75 12.14 14.75 12V9C14.75 8.86 14.86 8.75 15 8.75H16.6L18.93 12.25ZM7.5 19.25C7.09 19.25 6.75 18.91 6.75 18.5C6.75 18.09 7.09 17.75 7.5 17.75C7.91 17.75 8.25 18.09 8.25 18.5C8.25 18.91 7.91 19.25 7.5 19.25ZM15.5 19.25C15.09 19.25 14.75 18.91 14.75 18.5C14.75 18.09 15.09 17.75 15.5 17.75C15.91 17.75 16.25 18.09 16.25 18.5C16.25 18.91 15.91 19.25 15.5 19.25ZM19.22 17.25H17.37C16.97 16.65 16.28 16.25 15.5 16.25C14.72 16.25 14.04 16.65 13.63 17.25H9.37C8.97 16.65 8.28 16.25 7.5 16.25C6.72 16.25 6.04 16.65 5.63 17.25H4C3.86 17.25 3.75 17.14 3.75 17V8C3.75 6.76 4.76 5.75 6 5.75H19.5C19.91 5.75 20.25 6.09 20.25 6.5C20.25 6.91 19.91 7.25 19.5 7.25H15C14.04 7.25 13.25 8.04 13.25 9V12C13.25 12.96 14.04 13.75 15 13.75H19.93L20.13 14.05C20.17 14.11 20.18 14.18 20.16 14.25V14.28C20.1 14.27 20.05 14.25 19.99 14.25H18.99C18.58 14.25 18.24 14.59 18.24 15C18.24 15.41 18.58 15.75 18.99 15.75H19.78L19.45 17.06C19.42 17.17 19.32 17.25 19.21 17.25H19.22Z" fill="black"/>
<path d="M10 8.25H7C6.04 8.25 5.25 9.04 5.25 10V12C5.25 12.96 6.04 13.75 7 13.75H10C10.96 13.75 11.75 12.96 11.75 12V10C11.75 9.04 10.96 8.25 10 8.25ZM10.25 12C10.25 12.14 10.14 12.25 10 12.25H7C6.86 12.25 6.75 12.14 6.75 12V10C6.75 9.86 6.86 9.75 7 9.75H10C10.14 9.75 10.25 9.86 10.25 10V12Z" fill="black"/>
</svg>
