<svg width="24" height="24" viewBox="0 0 24 24" fill="none" xmlns="http://www.w3.org/2000/svg">
<path d="M20 7.25H18.75V5C18.75 3.48 17.52 2.25 16 2.25C14.48 2.25 13.25 3.48 13.25 5C13.25 5.41 13.59 5.75 14 5.75C14.41 5.75 14.75 5.41 14.75 5C14.75 4.31 15.31 3.75 16 3.75C16.69 3.75 17.25 4.31 17.25 5V7.25H8.75V5C8.75 3.48 7.52 2.25 6 2.25C4.48 2.25 3.25 3.48 3.25 5C3.25 5.41 3.59 5.75 4 5.75C4.41 5.75 4.75 5.41 4.75 5C4.75 4.31 5.31 3.75 6 3.75C6.69 3.75 7.25 4.31 7.25 5V7.25H4C3.04 7.25 2.25 8.04 2.25 9V20C2.25 20.96 3.04 21.75 4 21.75H20C20.96 21.75 21.75 20.96 21.75 20V9C21.75 8.04 20.96 7.25 20 7.25ZM20 8.75C20.14 8.75 20.25 8.86 20.25 9V15.82C19.76 15.62 19.26 15.47 18.75 15.37V8.75H20ZM8.75 12.75H17.25V15.2C16.13 15.2 15.35 15.46 14.6 15.73C13.85 16 13.13 16.25 12 16.25C10.87 16.25 10.16 16 9.4 15.73C9.19 15.65 8.97 15.58 8.75 15.51V12.75ZM17.25 8.75V11.25H8.75V8.75H17.25ZM4 8.75H7.25V15.22C6.85 15.19 6.41 15.2 5.91 15.26C5.18 15.35 4.46 15.55 3.75 15.83V9.01C3.75 8.87 3.86 8.76 4 8.76V8.75ZM20 20.25H4C3.86 20.25 3.75 20.14 3.75 20V17.46C4.51 17.09 5.3 16.84 6.09 16.74C7.33 16.59 8.06 16.84 8.9 17.14C9.7 17.42 10.61 17.74 12 17.74C13.39 17.74 14.3 17.42 15.1 17.14C15.94 16.84 16.67 16.59 17.91 16.74C18.71 16.84 19.49 17.09 20.25 17.46V20C20.25 20.14 20.14 20.25 20 20.25Z" fill="black"/>
</svg>
