<svg width="24" height="24" viewBox="0 0 24 24" fill="none" xmlns="http://www.w3.org/2000/svg">
<path d="M17.74 5.96997C17.74 5.00997 16.95 4.21997 15.99 4.21997H14.74V5.96997C14.74 6.37997 14.4 6.71997 13.99 6.71997C13.58 6.71997 13.24 6.37997 13.24 5.96997V4.21997H6.73999V5.96997C6.73999 6.37997 6.39999 6.71997 5.98999 6.71997C5.57999 6.71997 5.23999 6.37997 5.23999 5.96997V4.21997H3.98999C3.02999 4.21997 2.23999 5.00997 2.23999 5.96997V8.21997H17.74V5.96997Z" fill="black"/>
<path d="M11.24 13.97C11.24 13.56 11.58 13.22 11.99 13.22H17.74V9.71997H2.23999V16.97C2.23999 18.49 3.46999 19.72 4.98999 19.72H14.99C16.51 19.72 17.74 18.49 17.74 16.97V14.72H11.99C11.58 14.72 11.24 14.38 11.24 13.97Z" fill="black"/>
<path d="M21.52 13.44L19.52 11.44C19.23 11.15 18.75 11.15 18.46 11.44C18.17 11.73 18.17 12.21 18.46 12.5L19.18 13.22H17.74V14.72H19.18L18.46 15.44C18.17 15.73 18.17 16.21 18.46 16.5C18.61 16.65 18.8 16.72 18.99 16.72C19.18 16.72 19.37 16.65 19.52 16.5L21.52 14.5C21.81 14.21 21.81 13.73 21.52 13.44Z" fill="black"/>
<path d="M6.73999 2.96997C6.73999 2.55997 6.39999 2.21997 5.98999 2.21997C5.57999 2.21997 5.23999 2.55997 5.23999 2.96997V4.21997H6.73999V2.96997Z" fill="black"/>
<path d="M14.74 2.96997C14.74 2.55997 14.4 2.21997 13.99 2.21997C13.58 2.21997 13.24 2.55997 13.24 2.96997V4.21997H14.74V2.96997Z" fill="black"/>
</svg>
