<svg width="24" height="24" viewBox="0 0 24 24" fill="none" xmlns="http://www.w3.org/2000/svg">
<path d="M19 12.25H18.75V11C18.75 10.04 17.96 9.25 17 9.25H15C14.04 9.25 13.25 10.04 13.25 11V12.25H10.75V11C10.75 10.04 9.96 9.25 9 9.25H7C6.04 9.25 5.25 10.04 5.25 11V12.25H5C3.48 12.25 2.25 13.48 2.25 15V17C2.25 17.41 2.59 17.75 3 17.75H4.25V19C4.25 19.41 4.59 19.75 5 19.75C5.41 19.75 5.75 19.41 5.75 19V17.75H18.25V19C18.25 19.41 18.59 19.75 19 19.75C19.41 19.75 19.75 19.41 19.75 19V17.75H21C21.41 17.75 21.75 17.41 21.75 17V15C21.75 13.48 20.52 12.25 19 12.25ZM14.75 11C14.75 10.86 14.86 10.75 15 10.75H17C17.14 10.75 17.25 10.86 17.25 11V12.25H14.75V11ZM6.75 11C6.75 10.86 6.86 10.75 7 10.75H9C9.14 10.75 9.25 10.86 9.25 11V12.25H6.75V11ZM20.25 16.25H3.75V15C3.75 14.31 4.31 13.75 5 13.75H19C19.69 13.75 20.25 14.31 20.25 15V16.25Z" fill="black"/>
<path d="M3 10.75C3.41 10.75 3.75 10.41 3.75 10C3.75 8.21 5.21 6.75 7 6.75H17C18.79 6.75 20.25 8.21 20.25 10C20.25 10.41 20.59 10.75 21 10.75C21.41 10.75 21.75 10.41 21.75 10C21.75 7.38 19.62 5.25 17 5.25H7C4.38 5.25 2.25 7.38 2.25 10C2.25 10.41 2.59 10.75 3 10.75Z" fill="black"/>
</svg>
