<svg width="24" height="24" viewBox="0 0 24 24" fill="none" xmlns="http://www.w3.org/2000/svg">
<path d="M8 5.25H6C3.93 5.25 2.25 6.93 2.25 9V18C2.25 20.07 3.93 21.75 6 21.75H8C10.07 21.75 11.75 20.07 11.75 18V9C11.75 6.93 10.07 5.25 8 5.25ZM7 11.75C6.04 11.75 5.25 10.96 5.25 10C5.25 9.04 6.04 8.25 7 8.25C7.96 8.25 8.75 9.04 8.75 10C8.75 10.96 7.96 11.75 7 11.75Z" fill="black"/>
<path d="M20 7.25H12.93C13.13 7.8 13.25 8.38 13.25 9V15.75H20C20.96 15.75 21.75 14.96 21.75 14V9C21.75 8.04 20.96 7.25 20 7.25ZM19.25 11.75H15.25C14.84 11.75 14.5 11.41 14.5 11C14.5 10.59 14.84 10.25 15.25 10.25H19.25C19.66 10.25 20 10.59 20 11C20 11.41 19.66 11.75 19.25 11.75Z" fill="black"/>
</svg>
