<svg width="24" height="24" viewBox="0 0 24 24" fill="none" xmlns="http://www.w3.org/2000/svg">
<path d="M7 12.75H8C8.96 12.75 9.75 11.96 9.75 11V10C9.75 9.04 8.96 8.25 8 8.25H7C6.04 8.25 5.25 9.04 5.25 10V11C5.25 11.96 6.04 12.75 7 12.75ZM6.75 10C6.75 9.86 6.86 9.75 7 9.75H8C8.14 9.75 8.25 9.86 8.25 10V11C8.25 11.14 8.14 11.25 8 11.25H7C6.86 11.25 6.75 11.14 6.75 11V10Z" fill="black"/>
<path d="M21 16.25H18.98C19.46 15.62 19.75 14.85 19.75 14V10C19.75 7.38 17.62 5.25 15 5.25H5C3.48 5.25 2.25 6.48 2.25 8V16C2.25 16.96 3.04 17.75 4 17.75H4.28C4.41 18.87 5.35 19.75 6.5 19.75C7.65 19.75 8.6 18.87 8.72 17.75H21C21.41 17.75 21.75 17.41 21.75 17C21.75 16.59 21.41 16.25 21 16.25ZM3.75 16V8C3.75 7.31 4.31 6.75 5 6.75H15C16.79 6.75 18.25 8.21 18.25 10V14C18.25 14.98 17.62 15.8 16.75 16.11V12C16.75 10.48 15.52 9.25 14 9.25C12.48 9.25 11.25 10.48 11.25 12V16.25H8.37C7.97 15.65 7.28 15.25 6.5 15.25C5.72 15.25 5.04 15.65 4.63 16.25H4C3.86 16.25 3.75 16.14 3.75 16ZM6.5 18.25C6.09 18.25 5.75 17.91 5.75 17.5C5.75 17.09 6.09 16.75 6.5 16.75C6.91 16.75 7.25 17.09 7.25 17.5C7.25 17.91 6.91 18.25 6.5 18.25ZM12.75 12C12.75 11.31 13.31 10.75 14 10.75C14.69 10.75 15.25 11.31 15.25 12V16.25H12.75V12Z" fill="black"/>
</svg>
