<svg width="24" height="24" viewBox="0 0 24 24" fill="none" xmlns="http://www.w3.org/2000/svg">
<path d="M20.56 8.12C20.05 7.93 19.7 7.63 19.53 7.47C19.24 7.18 19.02 6.83 18.88 6.44C18.63 5.73 17.96 5.25 17.22 5.25H6.78C6.04 5.25 5.39 5.72 5.12 6.44C4.93 6.95 4.63 7.3 4.47 7.47C4.18 7.76 3.83 7.98 3.44 8.12C2.73 8.38 2.25 9.04 2.25 9.78V14.23C2.25 14.97 2.72 15.62 3.44 15.89C3.95 16.08 4.3 16.38 4.47 16.54C4.76 16.83 4.98 17.18 5.12 17.57C5.38 18.28 6.04 18.76 6.78 18.76H17.23C17.96 18.76 18.63 18.28 18.89 17.57C19.07 17.08 19.34 16.74 19.54 16.54C19.83 16.25 20.18 16.03 20.57 15.89C21.28 15.63 21.76 14.97 21.76 14.23V9.78C21.76 9.04 21.29 8.39 20.57 8.12H20.56ZM20.25 14.22C20.25 14.33 20.17 14.42 20.06 14.46C19.46 14.68 18.92 15.01 18.47 15.46C18.16 15.77 17.74 16.29 17.47 17.04C17.44 17.13 17.35 17.24 17.23 17.24H14.76V15.99C14.76 15.58 14.42 15.24 14.01 15.24C13.6 15.24 13.26 15.58 13.26 15.99V17.24H6.78C6.67 17.24 6.58 17.16 6.54 17.05C6.32 16.45 5.99 15.91 5.54 15.46C5.23 15.15 4.71 14.73 3.96 14.46C3.87 14.43 3.76 14.34 3.76 14.21V9.76C3.76 9.65 3.84 9.56 3.95 9.52C4.55 9.3 5.09 8.97 5.54 8.52C5.85 8.21 6.27 7.69 6.54 6.94C6.57 6.85 6.66 6.74 6.79 6.74H13.26V7.99C13.26 8.4 13.6 8.74 14.01 8.74C14.42 8.74 14.76 8.4 14.76 7.99V6.74H17.23C17.34 6.74 17.43 6.82 17.48 6.93C17.7 7.53 18.03 8.07 18.48 8.52C18.79 8.83 19.31 9.25 20.06 9.52C20.15 9.55 20.26 9.64 20.26 9.77V14.22H20.25Z" fill="black"/>
<path d="M14 10.25C13.59 10.25 13.25 10.59 13.25 11V13C13.25 13.41 13.59 13.75 14 13.75C14.41 13.75 14.75 13.41 14.75 13V11C14.75 10.59 14.41 10.25 14 10.25Z" fill="black"/>
</svg>
