<svg width="24" height="24" viewBox="0 0 24 24" fill="none" xmlns="http://www.w3.org/2000/svg">
<path d="M11.99 7.24995C12.4 7.24995 12.74 6.90995 12.74 6.49995C12.74 6.08995 13.08 5.74995 13.49 5.74995C13.9 5.74995 14.24 6.08995 14.24 6.49995C14.24 7.26995 13.94 7.98995 13.4 8.52995L11.46 10.4699C11.25 10.6799 11.18 11.0099 11.3 11.2899C11.42 11.5699 11.69 11.7499 11.99 11.7499H14.99C15.4 11.7499 15.74 11.4099 15.74 10.9999C15.74 10.5899 15.4 10.2499 14.99 10.2499H13.8L14.46 9.58995C15.29 8.75995 15.74 7.66995 15.74 6.49995C15.74 5.25995 14.73 4.24995 13.49 4.24995C12.25 4.24995 11.24 5.25995 11.24 6.49995C11.24 6.90995 11.58 7.24995 11.99 7.24995Z" fill="black"/>
<path d="M19.99 5.24995C19.58 5.24995 19.24 5.58995 19.24 5.99995V8.24995H17.95L18.72 5.17995C18.82 4.77995 18.58 4.36995 18.17 4.26995C17.77 4.16995 17.36 4.40995 17.26 4.81995L16.26 8.81995C16.2 9.03995 16.26 9.27995 16.4 9.45995C16.54 9.63995 16.76 9.74995 16.99 9.74995H19.24V10.9999C19.24 11.4099 19.58 11.7499 19.99 11.7499C20.4 11.7499 20.74 11.4099 20.74 10.9999V5.99995C20.74 5.58995 20.4 5.24995 19.99 5.24995Z" fill="black"/>
<path d="M15.96 15.3399C14.46 14.2799 12.75 14.3699 11.86 14.5099C11.71 14.5399 11.56 14.6099 11.45 14.7199L10.75 15.4199C10.62 15.5499 10.52 15.5499 10.4 15.4199L7.57001 12.5899C7.51001 12.5299 7.50001 12.4499 7.50001 12.4099C7.50001 12.3699 7.50001 12.2999 7.57001 12.2299L8.28001 11.5199C8.39001 11.4099 8.46001 11.2699 8.49001 11.1199C8.65001 10.2099 8.76001 8.46995 7.64001 6.99995C7.40001 6.67995 7.12001 6.39995 6.79001 6.14995C6.63001 6.02995 6.42001 5.96995 6.22001 5.99995L4.31001 6.27995C3.69001 6.36995 3.17001 6.76995 2.95001 7.32995C1.49001 10.9599 2.33001 15.0999 5.10001 17.8699C6.97001 19.7399 9.45001 20.7299 11.99 20.7299C13.22 20.7299 14.47 20.4999 15.66 20.0099C16.2 19.7899 16.6 19.2799 16.71 18.6899L17.04 16.7599C17.08 16.5399 17.02 16.3199 16.87 16.1499C16.6 15.8299 16.3 15.5499 15.96 15.3199V15.3399Z" fill="black"/>
</svg>
