<svg width="24" height="24" viewBox="0 0 24 24" fill="none" xmlns="http://www.w3.org/2000/svg">
<path d="M19.98 7.23999H18.73V15.36C19.56 15.53 20.38 15.82 21.17 16.24H21.73V8.98999C21.73 8.02999 20.94 7.23999 19.98 7.23999Z" fill="black"/>
<path d="M17.23 7.23999H8.73003V11.24H17.23V7.23999Z" fill="black"/>
<path d="M2.23003 8.98999V16.24H2.79003C3.79003 15.71 4.83003 15.38 5.89003 15.25C6.40003 15.19 6.83003 15.18 7.23003 15.21V7.23999H3.98003C3.02003 7.23999 2.23003 8.02999 2.23003 8.98999Z" fill="black"/>
<path d="M11.98 16.24C13.11 16.24 13.82 15.99 14.58 15.72C15.34 15.45 16.12 15.18 17.23 15.19V12.74H8.73003V15.5C8.95003 15.57 9.17003 15.65 9.38003 15.72C10.13 15.99 10.85 16.24 11.98 16.24Z" fill="black"/>
<path d="M20.62 17.64C19.74 17.15 18.82 16.84 17.89 16.73C16.65 16.58 15.92 16.83 15.08 17.13C14.28 17.41 13.37 17.73 11.98 17.73C10.59 17.73 9.68003 17.41 8.88003 17.13C8.04003 16.83 7.30003 16.58 6.07003 16.73C5.14003 16.85 4.22003 17.15 3.34003 17.64C3.23003 17.7 3.10003 17.74 2.97003 17.74H2.22003V19.99C2.22003 20.95 3.01003 21.74 3.97003 21.74H19.98C20.94 21.74 21.73 20.95 21.73 19.99V17.74H20.98C20.85 17.74 20.73 17.71 20.61 17.65L20.62 17.64Z" fill="black"/>
<path d="M5.98003 2.23999C4.46003 2.23999 3.23003 3.46999 3.23003 4.98999C3.23003 5.39999 3.57003 5.73999 3.98003 5.73999C4.39003 5.73999 4.73003 5.39999 4.73003 4.98999C4.73003 4.29999 5.29003 3.73999 5.98003 3.73999C6.67003 3.73999 7.23003 4.29999 7.23003 4.98999V7.23999H8.73003V4.98999C8.73003 3.46999 7.50003 2.23999 5.98003 2.23999Z" fill="black"/>
<path d="M15.98 2.23999C14.46 2.23999 13.23 3.46999 13.23 4.98999C13.23 5.39999 13.57 5.73999 13.98 5.73999C14.39 5.73999 14.73 5.39999 14.73 4.98999C14.73 4.29999 15.29 3.73999 15.98 3.73999C16.67 3.73999 17.23 4.29999 17.23 4.98999V7.23999H18.73L18.73 4.98999C18.73 3.46999 17.5 2.23999 15.98 2.23999Z" fill="black"/>
</svg>
