<svg width="24" height="24" viewBox="0 0 24 24" fill="none" xmlns="http://www.w3.org/2000/svg">
<path d="M21 3.25H13.57C13.29 2.66 12.69 2.25 12 2.25C11.31 2.25 10.71 2.66 10.43 3.25H3C2.59 3.25 2.25 3.59 2.25 4C2.25 4.41 2.59 4.75 3 4.75H10.43C10.6 5.11 10.89 5.4 11.25 5.57V7.25H9C8.59 7.25 8.25 7.59 8.25 8C8.25 8.41 8.59 8.75 9 8.75H15C15.41 8.75 15.75 8.41 15.75 8C15.75 7.59 15.41 7.25 15 7.25H12.75V5.57C13.11 5.4 13.4 5.11 13.57 4.75H21C21.41 4.75 21.75 4.41 21.75 4C21.75 3.59 21.41 3.25 21 3.25Z" fill="black"/>
<path d="M15 10.25H9C7.48 10.25 6.25 11.48 6.25 13V15.25H11.25V14C11.25 13.59 11.59 13.25 12 13.25C12.41 13.25 12.75 13.59 12.75 14V15.25H17.75V13C17.75 11.48 16.52 10.25 15 10.25Z" fill="black"/>
<path d="M6.25 19C6.25 20.52 7.48 21.75 9 21.75H15C16.52 21.75 17.75 20.52 17.75 19V16.75H6.25V19Z" fill="black"/>
</svg>
