<svg width="24" height="24" viewBox="0 0 24 24" fill="none" xmlns="http://www.w3.org/2000/svg">
<path d="M12.82 2.30014C10.92 2.06014 9.08 2.64014 7.63 3.92014C6.12 5.26014 5.25 7.21014 5.25 9.28014V9.54014C5.25 11.5701 5.82 13.5301 6.89 15.2101L10.53 20.9301C10.85 21.4401 11.4 21.7401 11.99 21.7401C12.58 21.7401 13.13 21.4401 13.45 20.9301L17.09 15.2101C18.16 13.5201 18.73 11.5601 18.73 9.54014C18.73 5.83014 16.18 2.71014 12.8 2.30014H12.82ZM15.84 14.4101L12.2 20.1301C12.07 20.3301 11.93 20.3301 11.8 20.1301L8.16 14.4101C7.24 12.9701 6.75 11.2801 6.75 9.54014V9.28014C6.75 7.64014 7.43 6.10014 8.63 5.04014C9.59 4.19014 10.76 3.75014 12 3.75014C12.21 3.75014 12.42 3.76014 12.64 3.79014C15.23 4.11014 17.25 6.64014 17.25 9.54014C17.25 11.2801 16.76 12.9601 15.84 14.4101Z" fill="black"/>
<path d="M12 7.25014C10.48 7.25014 9.25 8.48014 9.25 10.0001C9.25 11.5201 10.48 12.7501 12 12.7501C13.52 12.7501 14.75 11.5201 14.75 10.0001C14.75 8.48014 13.52 7.25014 12 7.25014ZM12 11.2501C11.31 11.2501 10.75 10.6901 10.75 10.0001C10.75 9.31014 11.31 8.75014 12 8.75014C12.69 8.75014 13.25 9.31014 13.25 10.0001C13.25 10.6901 12.69 11.2501 12 11.2501Z" fill="black"/>
</svg>
