<svg width="24" height="24" viewBox="0 0 24 24" fill="none" xmlns="http://www.w3.org/2000/svg">
<path d="M21.3299 6.83018C20.9999 6.18018 20.4299 5.69018 19.7299 5.47018C19.0299 5.25018 18.2899 5.31018 17.6299 5.64018L14.5199 7.24018C14.4499 7.28018 14.3699 7.28018 14.2999 7.24018L10.4799 5.38018C10.1299 5.21018 9.70992 5.21018 9.35992 5.39018L7.62992 6.28018C7.23992 6.48018 6.98992 6.86018 6.95992 7.29018C6.92992 7.73018 7.10992 8.14018 7.46992 8.40018L9.43992 9.85018L7.36992 10.9102L6.18992 10.0402C5.80992 9.76018 5.29992 9.72018 4.87992 9.94018L3.05992 10.8802C2.71992 11.0602 2.47992 11.3802 2.39992 11.7602C2.31992 12.1402 2.42992 12.5302 2.68992 12.8202L4.46992 14.8602C4.91992 15.3802 5.54992 15.7002 6.22992 15.7802L8.43992 16.0302C8.53992 16.0402 8.64992 16.0502 8.74992 16.0502C9.17992 16.0502 9.60992 15.9502 9.99992 15.7502L20.1399 10.5502C21.4899 9.86018 22.0199 8.20018 21.3299 6.85018V6.83018Z" fill="black"/>
<path d="M18.9999 18.2502H4.99992C4.58992 18.2502 4.24992 18.5902 4.24992 19.0002C4.24992 19.4102 4.58992 19.7502 4.99992 19.7502H18.9999C19.4099 19.7502 19.7499 19.4102 19.7499 19.0002C19.7499 18.5902 19.4099 18.2502 18.9999 18.2502Z" fill="black"/>
</svg>
