<svg width="24" height="24" viewBox="0 0 24 24" fill="none" xmlns="http://www.w3.org/2000/svg">
<path d="M17 16.25C16.59 16.25 16.25 16.59 16.25 17C16.25 17.69 15.69 18.25 15 18.25H5C4.31 18.25 3.75 17.69 3.75 17V9.75H16.25V11C16.25 11.41 16.59 11.75 17 11.75C17.41 11.75 17.75 11.41 17.75 11V6C17.75 5.04 16.96 4.25 16 4.25H14.75V3C14.75 2.59 14.41 2.25 14 2.25C13.59 2.25 13.25 2.59 13.25 3V4.25H6.75V3C6.75 2.59 6.41 2.25 6 2.25C5.59 2.25 5.25 2.59 5.25 3V4.25H4C3.04 4.25 2.25 5.04 2.25 6V17C2.25 18.52 3.48 19.75 5 19.75H15C16.52 19.75 17.75 18.52 17.75 17C17.75 16.59 17.41 16.25 17 16.25ZM4 5.75H5.25V6C5.25 6.41 5.59 6.75 6 6.75C6.41 6.75 6.75 6.41 6.75 6V5.75H13.25V6C13.25 6.41 13.59 6.75 14 6.75C14.41 6.75 14.75 6.41 14.75 6V5.75H16C16.14 5.75 16.25 5.86 16.25 6V8.25H3.75V6C3.75 5.86 3.86 5.75 4 5.75Z" fill="black"/>
<path d="M21.53 13.47L19.53 11.47C19.24 11.18 18.76 11.18 18.47 11.47C18.18 11.76 18.18 12.24 18.47 12.53L19.19 13.25H12C11.59 13.25 11.25 13.59 11.25 14C11.25 14.41 11.59 14.75 12 14.75H19.19L18.47 15.47C18.18 15.76 18.18 16.24 18.47 16.53C18.62 16.68 18.81 16.75 19 16.75C19.19 16.75 19.38 16.68 19.53 16.53L21.53 14.53C21.82 14.24 21.82 13.76 21.53 13.47Z" fill="black"/>
</svg>
