<svg width="24" height="24" viewBox="0 0 24 24" fill="none" xmlns="http://www.w3.org/2000/svg">
<path d="M20.72 6.83018C20.65 6.50018 20.37 6.26018 20.04 6.24018C18.74 6.15018 17.48 5.84018 16.3 5.30018C14.88 4.66018 13.59 3.69018 12.56 2.49018C12.28 2.16018 11.71 2.16018 11.42 2.49018C10.4 3.68018 9.09999 4.65018 7.67999 5.30018C6.49999 5.84018 5.23999 6.15018 3.93999 6.24018C3.60999 6.26018 3.32999 6.50018 3.25999 6.83018C2.89999 8.50018 2.54999 11.8302 4.31999 15.3302C6.45999 19.5602 10.23 21.2002 11.75 21.7002C11.83 21.7302 11.91 21.7402 11.99 21.7402C12.07 21.7402 12.15 21.7302 12.23 21.7002C13.75 21.1902 17.52 19.5602 19.66 15.3302C21.43 11.8302 21.09 8.50018 20.72 6.83018ZM14.99 12.7402H12.74V14.9902C12.74 15.4002 12.4 15.7402 11.99 15.7402C11.58 15.7402 11.24 15.4002 11.24 14.9902V12.7402H8.98999C8.57999 12.7402 8.23999 12.4002 8.23999 11.9902C8.23999 11.5802 8.57999 11.2402 8.98999 11.2402H11.24V8.99018C11.24 8.58018 11.58 8.24018 11.99 8.24018C12.4 8.24018 12.74 8.58018 12.74 8.99018V11.2402H14.99C15.4 11.2402 15.74 11.5802 15.74 11.9902C15.74 12.4002 15.4 12.7402 14.99 12.7402Z" fill="black"/>
</svg>
