<svg width="24" height="24" viewBox="0 0 24 24" fill="none" xmlns="http://www.w3.org/2000/svg">
<path d="M14.98 17.74H9.98004C9.84004 17.74 9.73004 17.85 9.73004 17.99V21.74H15.23V17.99C15.23 17.85 15.12 17.74 14.98 17.74Z" fill="black"/>
<path d="M20.98 20.24H20.73V4.98999C20.73 3.46999 19.5 2.23999 17.98 2.23999H6.98004C5.46004 2.23999 4.23004 3.46999 4.23004 4.98999V20.24H3.98004C3.57004 20.24 3.23004 20.58 3.23004 20.99C3.23004 21.4 3.57004 21.74 3.98004 21.74H8.23004V17.99C8.23004 17.03 9.02004 16.24 9.98004 16.24H14.98C15.94 16.24 16.73 17.03 16.73 17.99V21.74H20.98C21.39 21.74 21.73 21.4 21.73 20.99C21.73 20.58 21.39 20.24 20.98 20.24ZM8.98004 13.74H7.98004C7.57004 13.74 7.23004 13.4 7.23004 12.99C7.23004 12.58 7.57004 12.24 7.98004 12.24H8.98004C9.39004 12.24 9.73004 12.58 9.73004 12.99C9.73004 13.4 9.39004 13.74 8.98004 13.74ZM8.98004 10.74H7.98004C7.57004 10.74 7.23004 10.4 7.23004 9.98999C7.23004 9.57999 7.57004 9.23999 7.98004 9.23999H8.98004C9.39004 9.23999 9.73004 9.57999 9.73004 9.98999C9.73004 10.4 9.39004 10.74 8.98004 10.74ZM8.98004 7.73999H7.98004C7.57004 7.73999 7.23004 7.39999 7.23004 6.98999C7.23004 6.57999 7.57004 6.23999 7.98004 6.23999H8.98004C9.39004 6.23999 9.73004 6.57999 9.73004 6.98999C9.73004 7.39999 9.39004 7.73999 8.98004 7.73999ZM12.98 13.74H11.98C11.57 13.74 11.23 13.4 11.23 12.99C11.23 12.58 11.57 12.24 11.98 12.24H12.98C13.39 12.24 13.73 12.58 13.73 12.99C13.73 13.4 13.39 13.74 12.98 13.74ZM12.98 10.74H11.98C11.57 10.74 11.23 10.4 11.23 9.98999C11.23 9.57999 11.57 9.23999 11.98 9.23999H12.98C13.39 9.23999 13.73 9.57999 13.73 9.98999C13.73 10.4 13.39 10.74 12.98 10.74ZM12.98 7.73999H11.98C11.57 7.73999 11.23 7.39999 11.23 6.98999C11.23 6.57999 11.57 6.23999 11.98 6.23999H12.98C13.39 6.23999 13.73 6.57999 13.73 6.98999C13.73 7.39999 13.39 7.73999 12.98 7.73999ZM16.98 13.74H15.98C15.57 13.74 15.23 13.4 15.23 12.99C15.23 12.58 15.57 12.24 15.98 12.24H16.98C17.39 12.24 17.73 12.58 17.73 12.99C17.73 13.4 17.39 13.74 16.98 13.74ZM16.98 10.74H15.98C15.57 10.74 15.23 10.4 15.23 9.98999C15.23 9.57999 15.57 9.23999 15.98 9.23999H16.98C17.39 9.23999 17.73 9.57999 17.73 9.98999C17.73 10.4 17.39 10.74 16.98 10.74ZM16.98 7.73999H15.98C15.57 7.73999 15.23 7.39999 15.23 6.98999C15.23 6.57999 15.57 6.23999 15.98 6.23999H16.98C17.39 6.23999 17.73 6.57999 17.73 6.98999C17.73 7.39999 17.39 7.73999 16.98 7.73999Z" fill="black"/>
</svg>
