<svg width="24" height="24" viewBox="0 0 24 24" fill="none" xmlns="http://www.w3.org/2000/svg">
<path d="M17.48 16.74C19.275 16.74 20.73 15.2849 20.73 13.49C20.73 11.6951 19.275 10.24 17.48 10.24C15.6851 10.24 14.23 11.6951 14.23 13.49C14.23 15.2849 15.6851 16.74 17.48 16.74Z" fill="black"/>
<path d="M12.73 13.49C12.73 10.87 14.86 8.73999 17.48 8.73999C17.57 8.73999 17.65 8.75999 17.73 8.76999V3.98999C17.73 3.02999 16.94 2.23999 15.98 2.23999H6.98004C6.02004 2.23999 5.23004 3.02999 5.23004 3.98999V18.24H3.98004C3.57004 18.24 3.23004 18.58 3.23004 18.99C3.23004 19.4 3.57004 19.74 3.98004 19.74H11.73V19.49C11.73 17.99 12.31 16.63 13.25 15.61C12.93 14.97 12.73 14.26 12.73 13.49Z" fill="black"/>
<path d="M20.81 16.87C19.95 17.71 18.78 18.24 17.49 18.24C16.2 18.24 15.02 17.72 14.17 16.87C13.6 17.59 13.24 18.49 13.24 19.49V20.99C13.24 21.4 13.58 21.74 13.99 21.74H20.99C21.4 21.74 21.74 21.4 21.74 20.99V19.49C21.74 18.5 21.38 17.6 20.81 16.87Z" fill="black"/>
</svg>
