<svg width="24" height="24" viewBox="0 0 24 24" fill="none" xmlns="http://www.w3.org/2000/svg">
<path d="M21.5 17.4398C20.11 16.2198 18.79 14.8998 17.57 13.5098C15.72 11.3998 14.06 9.07984 12.66 6.62984C12.39 6.15984 11.63 6.15984 11.36 6.62984C9.95001 9.07984 8.30001 11.3898 6.45001 13.5098C5.23001 14.8998 3.91001 16.2198 2.52001 17.4398C2.29001 17.6498 2.20001 17.9798 2.31001 18.2698C2.42001 18.5598 2.70001 18.7598 3.01001 18.7598H21C21.31 18.7598 21.59 18.5698 21.7 18.2698C21.81 17.9798 21.73 17.6498 21.49 17.4398H21.5ZM7.57001 14.4998C8.91001 12.9698 10.14 11.3498 11.26 9.63984V12.7398L7.65001 17.2498H4.94001C5.86001 16.3698 6.74001 15.4498 7.58001 14.4898L7.57001 14.4998ZM9.57001 17.2598L12.01 14.2098L14.45 17.2598H9.57001ZM16.37 17.2598L12.76 12.7498V9.64984C13.88 11.3498 15.11 12.9798 16.45 14.5098C17.28 15.4598 18.17 16.3798 19.09 17.2698H16.38L16.37 17.2598Z" fill="black"/>
</svg>
