<svg width="24" height="24" viewBox="0 0 24 24" fill="none" xmlns="http://www.w3.org/2000/svg">
<path d="M6.23004 11.99C6.23004 11.41 6.32004 10.86 6.47004 10.34L2.97004 8.26999C2.49004 9.41999 2.23004 10.68 2.23004 11.99C2.23004 13.3 2.50004 14.59 2.99004 15.75L6.43004 13.46C6.31004 12.99 6.23004 12.5 6.23004 11.99Z" fill="black"/>
<path d="M11.98 6.23999C12.49 6.23999 12.98 6.30999 13.45 6.43999L15.74 2.99999C14.58 2.50999 13.31 2.23999 11.98 2.23999C10.65 2.23999 9.38004 2.50999 8.22004 2.99999L10.51 6.43999C10.98 6.31999 11.47 6.23999 11.98 6.23999Z" fill="black"/>
<path d="M16.95 9.10999L20.28 6.88999C19.48 5.58999 18.38 4.48999 17.08 3.68999L14.86 7.01999C15.72 7.51999 16.45 8.23999 16.95 9.10999Z" fill="black"/>
<path d="M20.98 8.22999L17.54 10.52C17.66 10.99 17.74 11.48 17.74 11.99C17.74 12.5 17.67 12.99 17.54 13.46L20.98 15.75C21.47 14.59 21.74 13.32 21.74 11.99C21.74 10.66 21.47 9.38999 20.98 8.22999Z" fill="black"/>
<path d="M14.86 16.96L17.08 20.29C18.38 19.49 19.47 18.39 20.28 17.09L16.95 14.87C16.45 15.73 15.73 16.46 14.86 16.96Z" fill="black"/>
<path d="M11.98 17.74C11.47 17.74 10.98 17.67 10.51 17.54L8.22004 20.98C9.38004 21.47 10.65 21.74 11.98 21.74C13.31 21.74 14.58 21.47 15.74 20.98L13.45 17.54C12.98 17.66 12.49 17.74 11.98 17.74Z" fill="black"/>
<path d="M7.02004 14.87L3.69004 17.09C4.49004 18.39 5.59004 19.49 6.89004 20.29L9.11004 16.96C8.25004 16.46 7.53004 15.74 7.02004 14.87Z" fill="black"/>
<path d="M9.10004 7.01999L6.88004 3.68999C5.57004 4.49999 4.46004 5.60999 3.66004 6.92999L7.10004 8.95999C7.60004 8.15999 8.28004 7.48999 9.10004 7.01999Z" fill="black"/>
</svg>
