<svg width="24" height="24" viewBox="0 0 24 24" fill="none" xmlns="http://www.w3.org/2000/svg">
<path d="M12.5 14.2499C13.4665 14.2499 14.25 13.4664 14.25 12.4999C14.25 11.5334 13.4665 10.7499 12.5 10.7499C11.5335 10.7499 10.75 11.5334 10.75 12.4999C10.75 13.4664 11.5335 14.2499 12.5 14.2499Z" fill="black"/>
<path d="M17 6.24994H6C5.59 6.24994 5.25 6.58994 5.25 6.99994V18.9999C5.25 20.5199 6.48 21.7499 8 21.7499H17C18.52 21.7499 19.75 20.5199 19.75 18.9999V8.99994C19.75 7.47994 18.52 6.24994 17 6.24994ZM15 18.7499H10C9.59 18.7499 9.25 18.4099 9.25 17.9999C9.25 17.5899 9.59 17.2499 10 17.2499H15C15.41 17.2499 15.75 17.5899 15.75 17.9999C15.75 18.4099 15.41 18.7499 15 18.7499ZM12.5 15.7499C10.71 15.7499 9.25 14.2899 9.25 12.4999C9.25 10.7099 10.71 9.24994 12.5 9.24994C14.29 9.24994 15.75 10.7099 15.75 12.4999C15.75 14.2899 14.29 15.7499 12.5 15.7499Z" fill="black"/>
<path d="M15.4 2.70994C14.49 2.14994 13.38 2.08994 12.42 2.56994C12.02 2.76994 11.62 2.96994 11.22 3.16994C10.24 3.66994 9.27 4.19994 8.31 4.74994H16.71C16.6 3.91994 16.14 3.16994 15.4 2.70994Z" fill="black"/>
</svg>
