<svg width="24" height="24" viewBox="0 0 24 24" fill="none" xmlns="http://www.w3.org/2000/svg">
<path d="M19 7.25H18.75V5C18.75 3.48 17.52 2.25 16 2.25H5C3.48 2.25 2.25 3.48 2.25 5V11C2.25 12.52 3.48 13.75 5 13.75C5.14 13.75 5.25 13.86 5.25 14V16C5.25 16.28 5.41 16.54 5.66 16.67C5.77 16.72 5.88 16.75 6 16.75C6.16 16.75 6.32 16.7 6.45 16.6L9.25 14.5V16C9.25 17.52 10.48 18.75 12 18.75H13.67C13.72 18.75 13.78 18.77 13.82 18.8L17.55 21.6C17.68 21.7 17.84 21.75 18 21.75C18.11 21.75 18.23 21.72 18.33 21.67C18.58 21.54 18.75 21.28 18.75 21V19C18.75 18.86 18.86 18.75 19 18.75C20.52 18.75 21.75 17.52 21.75 16V10C21.75 8.48 20.52 7.25 19 7.25ZM5 12.25C4.31 12.25 3.75 11.69 3.75 11V5C3.75 4.31 4.31 3.75 5 3.75H16C16.69 3.75 17.25 4.31 17.25 5V11C17.25 11.69 16.69 12.25 16 12.25H10.33C10.27 12.25 10.21 12.27 10.15 12.28C10.1 12.27 10.05 12.25 10 12.25C9.77 12.25 9.57 12.36 9.44 12.52C9.39 12.55 9.33 12.56 9.29 12.6L6.76 14.5V14C6.76 13.04 5.97 12.25 5.01 12.25H5ZM20.25 16C20.25 16.69 19.69 17.25 19 17.25C18.04 17.25 17.25 18.04 17.25 19V19.5L14.72 17.6C14.42 17.37 14.05 17.25 13.67 17.25H12C11.31 17.25 10.75 16.69 10.75 16V13.75H16C17.52 13.75 18.75 12.52 18.75 11V8.75H19C19.69 8.75 20.25 9.31 20.25 10V16Z" fill="black"/>
<path d="M6 6.75H15C15.41 6.75 15.75 6.41 15.75 6C15.75 5.59 15.41 5.25 15 5.25H6C5.59 5.25 5.25 5.59 5.25 6C5.25 6.41 5.59 6.75 6 6.75Z" fill="black"/>
<path d="M12.75 10C12.75 9.59 12.41 9.25 12 9.25H6C5.59 9.25 5.25 9.59 5.25 10C5.25 10.41 5.59 10.75 6 10.75H12C12.41 10.75 12.75 10.41 12.75 10Z" fill="black"/>
</svg>
