<svg width="24" height="24" viewBox="0 0 24 24" fill="none" xmlns="http://www.w3.org/2000/svg">
<path d="M16 7.25H15.75V4C15.75 3.04 14.96 2.25 14 2.25H10C9.04 2.25 8.25 3.04 8.25 4V7.25H8C6.48 7.25 5.25 8.48 5.25 10V18C5.25 19.52 6.48 20.75 8 20.75H8.25V21C8.25 21.41 8.59 21.75 9 21.75C9.41 21.75 9.75 21.41 9.75 21V20.75H14.25V21C14.25 21.41 14.59 21.75 15 21.75C15.41 21.75 15.75 21.41 15.75 21V20.75H16C17.52 20.75 18.75 19.52 18.75 18V10C18.75 8.48 17.52 7.25 16 7.25ZM9.75 16C9.75 16.41 9.41 16.75 9 16.75C8.59 16.75 8.25 16.41 8.25 16V12C8.25 11.59 8.59 11.25 9 11.25C9.41 11.25 9.75 11.59 9.75 12V16ZM12.75 16C12.75 16.41 12.41 16.75 12 16.75C11.59 16.75 11.25 16.41 11.25 16V12C11.25 11.59 11.59 11.25 12 11.25C12.41 11.25 12.75 11.59 12.75 12V16ZM9.75 7.25V4C9.75 3.86 9.86 3.75 10 3.75H14C14.14 3.75 14.25 3.86 14.25 4V7.25H9.75ZM15.75 16C15.75 16.41 15.41 16.75 15 16.75C14.59 16.75 14.25 16.41 14.25 16V12C14.25 11.59 14.59 11.25 15 11.25C15.41 11.25 15.75 11.59 15.75 12V16Z" fill="black"/>
</svg>
