<svg width="24" height="24" viewBox="0 0 24 24" fill="none" xmlns="http://www.w3.org/2000/svg">
<path d="M16 7.25H15.75V4C15.75 3.04 14.96 2.25 14 2.25H10C9.04 2.25 8.25 3.04 8.25 4V7.25H8C6.48 7.25 5.25 8.48 5.25 10V18C5.25 19.52 6.48 20.75 8 20.75H8.25V21C8.25 21.41 8.59 21.75 9 21.75C9.41 21.75 9.75 21.41 9.75 21V20.75H14.25V21C14.25 21.41 14.59 21.75 15 21.75C15.41 21.75 15.75 21.41 15.75 21V20.75H16C17.52 20.75 18.75 19.52 18.75 18V10C18.75 8.48 17.52 7.25 16 7.25ZM9.75 4C9.75 3.86 9.86 3.75 10 3.75H14C14.14 3.75 14.25 3.86 14.25 4V7.25H9.75V4ZM17.25 18C17.25 18.69 16.69 19.25 16 19.25H8C7.31 19.25 6.75 18.69 6.75 18V10C6.75 9.31 7.31 8.75 8 8.75H16C16.69 8.75 17.25 9.31 17.25 10V18Z" fill="black"/>
<path d="M9 11.25C8.59 11.25 8.25 11.59 8.25 12V16C8.25 16.41 8.59 16.75 9 16.75C9.41 16.75 9.75 16.41 9.75 16V12C9.75 11.59 9.41 11.25 9 11.25Z" fill="black"/>
<path d="M15 11.25C14.59 11.25 14.25 11.59 14.25 12V16C14.25 16.41 14.59 16.75 15 16.75C15.41 16.75 15.75 16.41 15.75 16V12C15.75 11.59 15.41 11.25 15 11.25Z" fill="black"/>
<path d="M12 11.25C11.59 11.25 11.25 11.59 11.25 12V16C11.25 16.41 11.59 16.75 12 16.75C12.41 16.75 12.75 16.41 12.75 16V12C12.75 11.59 12.41 11.25 12 11.25Z" fill="black"/>
</svg>
