<svg width="24" height="24" viewBox="0 0 24 24" fill="none" xmlns="http://www.w3.org/2000/svg">
<path d="M14.24 11.27C13.38 9.45 11.55 8.25 9.5 8.25C6.65 8.25 4.34 10.53 4.26 13.36C3.1 13.68 2.25 14.74 2.25 16C2.25 17.52 3.48 18.75 5 18.75H14.3C15.3 18.66 16.21 18.2 16.86 17.43C17.51 16.66 17.82 15.7 17.75 14.7C17.67 13.7 17.21 12.79 16.45 12.14C15.83 11.61 15.06 11.31 14.25 11.26L14.24 11.27ZM15.71 16.46C15.32 16.92 14.78 17.19 14.23 17.24H5C4.31 17.24 3.75 16.69 3.75 16C3.75 15.31 4.31 14.75 5 14.75C5 14.75 5.01 14.75 5.02 14.75C5.02 14.75 5.08 14.75 5.1 14.75C5.14 14.75 5.18 14.72 5.22 14.71C5.25 14.71 5.27 14.7 5.3 14.69C5.6 14.57 5.8 14.27 5.76 13.93C5.74 13.79 5.74 13.66 5.74 13.52C5.74 11.45 7.42 9.77 9.49 9.77C11.08 9.77 12.5 10.78 13.03 12.28C13.11 12.51 13.29 12.66 13.5 12.73C13.52 12.73 13.54 12.73 13.55 12.74C13.62 12.76 13.68 12.77 13.75 12.77C13.77 12.77 13.79 12.77 13.81 12.77C14.42 12.72 14.99 12.91 15.45 13.3C15.91 13.69 16.19 14.24 16.23 14.84C16.28 15.44 16.09 16.02 15.7 16.48L15.71 16.46Z" fill="black"/>
<path d="M15 6.25C13.97 6.25 12.97 6.68 12.26 7.44C11.98 7.74 11.99 8.22 12.3 8.5C12.6 8.78 13.08 8.77 13.36 8.46C13.79 8 14.37 7.75 15 7.75C16.24 7.75 17.25 8.76 17.25 10C17.25 10.35 17.17 10.69 17.01 11.01C16.82 11.38 16.97 11.83 17.35 12.02C17.46 12.07 17.57 12.1 17.68 12.1C17.95 12.1 18.22 11.95 18.35 11.68C18.61 11.16 18.75 10.59 18.75 10C18.75 7.93 17.07 6.25 15 6.25Z" fill="black"/>
<path d="M21 9.25H20C19.59 9.25 19.25 9.59 19.25 10C19.25 10.41 19.59 10.75 20 10.75H21C21.41 10.75 21.75 10.41 21.75 10C21.75 9.59 21.41 9.25 21 9.25Z" fill="black"/>
<path d="M15 5.75C15.41 5.75 15.75 5.41 15.75 5V4C15.75 3.59 15.41 3.25 15 3.25C14.59 3.25 14.25 3.59 14.25 4V5C14.25 5.41 14.59 5.75 15 5.75Z" fill="black"/>
<path d="M19.77 5.23C19.48 4.94 19 4.94 18.71 5.23L18 5.94C17.71 6.23 17.71 6.71 18 7C18.15 7.15 18.34 7.22 18.53 7.22C18.72 7.22 18.91 7.15 19.06 7L19.77 6.29C20.06 6 20.06 5.52 19.77 5.23Z" fill="black"/>
<path d="M10.93 7C11.08 7.15 11.27 7.22 11.46 7.22C11.65 7.22 11.84 7.15 11.99 7C12.28 6.71 12.28 6.23 11.99 5.94L11.28 5.23C10.99 4.94 10.51 4.94 10.22 5.23C9.93 5.52 9.93 6 10.22 6.29L10.93 7Z" fill="black"/>
</svg>
