<svg width="24" height="24" viewBox="0 0 24 24" fill="none" xmlns="http://www.w3.org/2000/svg">
<path d="M13.98 20.24H12.73V18.99C12.73 18.03 11.94 17.24 10.98 17.24H9.73004V10.74H13.98C14.94 10.74 15.73 9.94999 15.73 8.98999V4.98999C15.73 4.02999 14.94 3.23999 13.98 3.23999H9.73004V2.98999C9.73004 2.57999 9.39004 2.23999 8.98004 2.23999C8.57004 2.23999 8.23004 2.57999 8.23004 2.98999V17.24H6.98004C6.02004 17.24 5.23004 18.03 5.23004 18.99V20.24H3.98004C3.57004 20.24 3.23004 20.58 3.23004 20.99C3.23004 21.4 3.57004 21.74 3.98004 21.74H13.98C14.39 21.74 14.73 21.4 14.73 20.99C14.73 20.58 14.39 20.24 13.98 20.24Z" fill="black"/>
<path d="M18.89 9.98999L20.61 7.40999C20.76 7.17999 20.78 6.87999 20.65 6.63999C20.52 6.39999 20.27 6.23999 19.99 6.23999H17.24V8.98999C17.24 10.78 15.78 12.24 13.99 12.24H11.26C11.38 13.09 12.11 13.74 12.99 13.74H19.99C20.27 13.74 20.52 13.59 20.65 13.34C20.78 13.1 20.77 12.8 20.61 12.57L18.89 9.98999Z" fill="black"/>
</svg>
