<svg width="24" height="24" viewBox="0 0 24 24" fill="none" xmlns="http://www.w3.org/2000/svg">
<path d="M9 6.25H8C7.59 6.25 7.25 6.59 7.25 7C7.25 7.41 7.59 7.75 8 7.75H9C9.41 7.75 9.75 7.41 9.75 7C9.75 6.59 9.41 6.25 9 6.25Z" fill="black"/>
<path d="M13 6.25H12C11.59 6.25 11.25 6.59 11.25 7C11.25 7.41 11.59 7.75 12 7.75H13C13.41 7.75 13.75 7.41 13.75 7C13.75 6.59 13.41 6.25 13 6.25Z" fill="black"/>
<path d="M17 6.25H16C15.59 6.25 15.25 6.59 15.25 7C15.25 7.41 15.59 7.75 16 7.75H17C17.41 7.75 17.75 7.41 17.75 7C17.75 6.59 17.41 6.25 17 6.25Z" fill="black"/>
<path d="M9 9.25H8C7.59 9.25 7.25 9.59 7.25 10C7.25 10.41 7.59 10.75 8 10.75H9C9.41 10.75 9.75 10.41 9.75 10C9.75 9.59 9.41 9.25 9 9.25Z" fill="black"/>
<path d="M13 9.25H12C11.59 9.25 11.25 9.59 11.25 10C11.25 10.41 11.59 10.75 12 10.75H13C13.41 10.75 13.75 10.41 13.75 10C13.75 9.59 13.41 9.25 13 9.25Z" fill="black"/>
<path d="M17 9.25H16C15.59 9.25 15.25 9.59 15.25 10C15.25 10.41 15.59 10.75 16 10.75H17C17.41 10.75 17.75 10.41 17.75 10C17.75 9.59 17.41 9.25 17 9.25Z" fill="black"/>
<path d="M9 12.25H8C7.59 12.25 7.25 12.59 7.25 13C7.25 13.41 7.59 13.75 8 13.75H9C9.41 13.75 9.75 13.41 9.75 13C9.75 12.59 9.41 12.25 9 12.25Z" fill="black"/>
<path d="M13 12.25H12C11.59 12.25 11.25 12.59 11.25 13C11.25 13.41 11.59 13.75 12 13.75H13C13.41 13.75 13.75 13.41 13.75 13C13.75 12.59 13.41 12.25 13 12.25Z" fill="black"/>
<path d="M17 12.25H16C15.59 12.25 15.25 12.59 15.25 13C15.25 13.41 15.59 13.75 16 13.75H17C17.41 13.75 17.75 13.41 17.75 13C17.75 12.59 17.41 12.25 17 12.25Z" fill="black"/>
<path d="M21 20.25H20.75V5C20.75 3.48 19.52 2.25 18 2.25H7C5.48 2.25 4.25 3.48 4.25 5V20.25H4C3.59 20.25 3.25 20.59 3.25 21C3.25 21.41 3.59 21.75 4 21.75H21C21.41 21.75 21.75 21.41 21.75 21C21.75 20.59 21.41 20.25 21 20.25ZM9.75 20.25V18C9.75 17.86 9.86 17.75 10 17.75H15C15.14 17.75 15.25 17.86 15.25 18V20.25H9.75ZM16.75 20.25V18C16.75 17.04 15.96 16.25 15 16.25H10C9.04 16.25 8.25 17.04 8.25 18V20.25H5.75V5C5.75 4.31 6.31 3.75 7 3.75H18C18.69 3.75 19.25 4.31 19.25 5V20.25H16.75Z" fill="black"/>
</svg>
