<svg width="24" height="24" viewBox="0 0 24 24" fill="none" xmlns="http://www.w3.org/2000/svg">
<path d="M20.73 6.83994C20.66 6.50994 20.38 6.26994 20.05 6.24994C18.75 6.15994 17.49 5.84994 16.31 5.30994C14.89 4.66994 13.6 3.69994 12.57 2.49994C12.28 2.16994 11.72 2.16994 11.43 2.49994C10.4 3.68994 9.11 4.65994 7.69 5.30994C6.51 5.83994 5.25 6.15994 3.95 6.24994C3.62 6.26994 3.34 6.50994 3.27 6.83994C2.91 8.50994 2.56 11.8299 4.33 15.3399C6.47 19.5699 10.24 21.2099 11.76 21.7099C11.84 21.7399 11.92 21.7499 12 21.7499C12.08 21.7499 12.16 21.7399 12.24 21.7099C13.76 21.1999 17.53 19.5699 19.67 15.3399C21.44 11.8399 21.1 8.50994 20.73 6.83994ZM18.33 14.6599C16.52 18.2499 13.27 19.7399 12 20.1999C10.73 19.7399 7.48 18.2399 5.67 14.6599C4.28 11.9099 4.37 9.27994 4.63 7.68994C5.91 7.53994 7.14 7.20994 8.31 6.67994C9.68 6.05994 10.94 5.17994 12 4.09994C13.06 5.17994 14.33 6.05994 15.69 6.67994C16.86 7.20994 18.09 7.54994 19.37 7.68994C19.63 9.26994 19.72 11.8999 18.33 14.6599Z" fill="black"/>
<path d="M15 11.2499H12.75V8.99994C12.75 8.58994 12.41 8.24994 12 8.24994C11.59 8.24994 11.25 8.58994 11.25 8.99994V11.2499H9C8.59 11.2499 8.25 11.5899 8.25 11.9999C8.25 12.4099 8.59 12.7499 9 12.7499H11.25V14.9999C11.25 15.4099 11.59 15.7499 12 15.7499C12.41 15.7499 12.75 15.4099 12.75 14.9999V12.7499H15C15.41 12.7499 15.75 12.4099 15.75 11.9999C15.75 11.5899 15.41 11.2499 15 11.2499Z" fill="black"/>
</svg>
