<svg width="24" height="24" viewBox="0 0 24 24" fill="none" xmlns="http://www.w3.org/2000/svg">
<path d="M15.71 6.90999H15.7C15.33 6.90999 14.98 7.05999 14.71 7.32999C14.44 7.59999 14.3 7.93999 14.29 8.31999C14.29 8.68999 14.43 9.02999 14.68 9.28999C15.21 9.81999 16.09 9.80999 16.63 9.26999C16.89 9.00999 17.04 8.64999 17.05 8.27999C17.05 7.90999 16.91 7.56999 16.66 7.30999C16.41 7.05999 16.07 6.91999 15.7 6.91999L15.71 6.90999Z" fill="black"/>
<path d="M21.21 2.76999C20.87 2.42999 20.42 2.23999 19.94 2.23999H19.93L13.91 2.27999C13.43 2.27999 12.97 2.46999 12.63 2.81999L3.07004 12.37C1.94004 13.5 1.93004 15.33 3.05004 16.44L7.54004 20.93C8.09004 21.48 8.82004 21.76 9.56004 21.76C10.3 21.76 11.05 21.48 11.62 20.91L21.16 11.37C21.5 11.03 21.69 10.57 21.7 10.09L21.74 4.06999C21.74 3.57999 21.56 3.12999 21.22 2.77999L21.21 2.76999ZM17.71 10.32C17.14 10.89 16.4 11.17 15.65 11.17C14.9 11.17 14.19 10.89 13.63 10.34C13.07 9.78999 12.79 9.06999 12.8 8.29999C12.8 7.52999 13.11 6.80999 13.65 6.25999C14.2 5.70999 14.92 5.40999 15.69 5.40999C16.51 5.40999 17.19 5.69999 17.73 6.23999C18.27 6.77999 18.57 7.50999 18.56 8.27999C18.56 9.04999 18.25 9.76999 17.71 10.32Z" fill="black"/>
</svg>
