<svg width="24" height="24" viewBox="0 0 24 24" fill="none" xmlns="http://www.w3.org/2000/svg">
<path d="M2.25 15C2.25 15.41 2.59 15.75 3 15.75H18.28C20.2 15.75 21.75 14.19 21.75 12.28C21.75 11.25 21.29 10.27 20.5 9.61L17.43 7.05C16.04 5.89 14.28 5.25 12.47 5.25H3C2.59 5.25 2.25 5.59 2.25 6C2.25 6.41 2.59 6.75 3 6.75H11.25V9C11.25 10.52 12.48 11.75 14 11.75H20C20.06 11.75 20.11 11.73 20.16 11.72C20.21 11.9 20.25 12.09 20.25 12.28C20.25 13.37 19.36 14.25 18.28 14.25H3C2.59 14.25 2.25 14.59 2.25 15ZM12.75 9V6.77C14.11 6.83 15.42 7.32 16.47 8.19L18.93 10.24H14C13.31 10.24 12.75 9.68 12.75 8.99V9Z" fill="black"/>
<path d="M16 17.25H3C2.59 17.25 2.25 17.59 2.25 18C2.25 18.41 2.59 18.75 3 18.75H16C16.41 18.75 16.75 18.41 16.75 18C16.75 17.59 16.41 17.25 16 17.25Z" fill="black"/>
<path d="M9.75 11V9C9.75 8.59 9.41 8.25 9 8.25C8.59 8.25 8.25 8.59 8.25 9V11C8.25 11.41 8.59 11.75 9 11.75C9.41 11.75 9.75 11.41 9.75 11Z" fill="black"/>
<path d="M6.75 11V9C6.75 8.59 6.41 8.25 6 8.25C5.59 8.25 5.25 8.59 5.25 9V11C5.25 11.41 5.59 11.75 6 11.75C6.41 11.75 6.75 11.41 6.75 11Z" fill="black"/>
<path d="M21 17.25H19C18.59 17.25 18.25 17.59 18.25 18C18.25 18.41 18.59 18.75 19 18.75H21C21.41 18.75 21.75 18.41 21.75 18C21.75 17.59 21.41 17.25 21 17.25Z" fill="black"/>
</svg>
