<svg width="24" height="24" viewBox="0 0 24 24" fill="none" xmlns="http://www.w3.org/2000/svg">
<path d="M15.99 17.22H2.98999C2.57999 17.22 2.23999 17.56 2.23999 17.97C2.23999 18.38 2.57999 18.72 2.98999 18.72H15.99C16.4 18.72 16.74 18.38 16.74 17.97C16.74 17.56 16.4 17.22 15.99 17.22Z" fill="black"/>
<path d="M13.99 10.22H21.08C20.91 9.98997 20.72 9.76997 20.49 9.57997L17.42 7.01997C16.1 5.91997 14.45 5.29997 12.74 5.23997V8.97997C12.74 9.66997 13.3 10.23 13.99 10.23V10.22Z" fill="black"/>
<path d="M2.98999 15.72H18.27C20.19 15.72 21.74 14.16 21.74 12.25C21.74 12.07 21.71 11.9 21.68 11.72H13.99C12.47 11.72 11.24 10.49 11.24 8.96997V5.21997H2.98999C2.57999 5.21997 2.23999 5.55997 2.23999 5.96997V14.97C2.23999 15.38 2.57999 15.72 2.98999 15.72ZM8.23999 8.96997C8.23999 8.55997 8.57999 8.21997 8.98999 8.21997C9.39999 8.21997 9.73999 8.55997 9.73999 8.96997V10.97C9.73999 11.38 9.39999 11.72 8.98999 11.72C8.57999 11.72 8.23999 11.38 8.23999 10.97V8.96997ZM5.23999 8.96997C5.23999 8.55997 5.57999 8.21997 5.98999 8.21997C6.39999 8.21997 6.73999 8.55997 6.73999 8.96997V10.97C6.73999 11.38 6.39999 11.72 5.98999 11.72C5.57999 11.72 5.23999 11.38 5.23999 10.97V8.96997Z" fill="black"/>
<path d="M20.99 17.22H18.99C18.58 17.22 18.24 17.56 18.24 17.97C18.24 18.38 18.58 18.72 18.99 18.72H20.99C21.4 18.72 21.74 18.38 21.74 17.97C21.74 17.56 21.4 17.22 20.99 17.22Z" fill="black"/>
</svg>
