<svg width="24" height="24" viewBox="0 0 24 24" fill="none" xmlns="http://www.w3.org/2000/svg">
<path d="M19.67 4.33C18.33 2.99 16.54 2.25 14.64 2.25C12.74 2.25 10.95 2.99 9.60996 4.33C8.26996 5.67 7.52996 7.46 7.52996 9.36C7.52996 10.25 7.69996 11.12 8.00996 11.93L2.85996 17.08C1.73996 18.2 1.73996 20.02 2.85996 21.14C3.41996 21.7 4.14996 21.98 4.88996 21.98C5.62996 21.98 6.35996 21.7 6.91996 21.14L12.07 15.99C12.88 16.3 13.75 16.47 14.64 16.47C16.54 16.47 18.33 15.73 19.67 14.39C21.01 13.05 21.75 11.26 21.75 9.36C21.75 7.46 21.01 5.67 19.67 4.33ZM3.91996 20.08C3.38996 19.55 3.38996 18.68 3.91996 18.14L4.38996 17.67L6.32996 19.61L5.85996 20.08C5.32996 20.61 4.45996 20.61 3.91996 20.08ZM7.38996 18.54L5.44996 16.6L8.72996 13.32C8.97996 13.7 9.27996 14.05 9.60996 14.38C9.93996 14.71 10.3 15 10.67 15.26L7.38996 18.54ZM18.6 13.33C17.54 14.39 16.13 14.97 14.63 14.97C13.13 14.97 11.72 14.39 10.66 13.33C9.59996 12.27 9.01996 10.86 9.01996 9.36C9.01996 7.86 9.59996 6.45 10.66 5.39C11.72 4.33 13.13 3.75 14.63 3.75C16.13 3.75 17.54 4.33 18.6 5.39C19.66 6.45 20.24 7.86 20.24 9.36C20.24 10.86 19.66 12.27 18.6 13.33Z" fill="black"/>
<path d="M14.64 5.11C12.3 5.11 10.39 7.02 10.39 9.36C10.39 11.7 12.3 13.61 14.64 13.61C16.98 13.61 18.89 11.7 18.89 9.36C18.89 7.02 16.98 5.11 14.64 5.11ZM14.64 12.11C13.12 12.11 11.89 10.88 11.89 9.36C11.89 7.84 13.12 6.61 14.64 6.61C16.16 6.61 17.39 7.84 17.39 9.36C17.39 10.88 16.16 12.11 14.64 12.11Z" fill="black"/>
</svg>
