<svg width="24" height="24" viewBox="0 0 24 24" fill="none" xmlns="http://www.w3.org/2000/svg">
<path d="M15.84 5.07997C15.87 4.94997 15.89 4.82997 15.93 4.69997C15.95 4.62997 15.99 4.55997 16.02 4.48997C16.07 4.37997 16.11 4.26997 16.16 4.15997C16.2 4.08997 16.24 4.02997 16.29 3.95997C16.35 3.85997 16.41 3.75997 16.47 3.66997C16.52 3.60997 16.57 3.54997 16.63 3.48997C16.7 3.39997 16.77 3.30997 16.86 3.22997C16.92 3.16997 16.98 3.12997 17.04 3.07997C17.13 3.00997 17.21 2.92997 17.3 2.85997C17.36 2.80997 17.43 2.77997 17.5 2.73997C17.6 2.67997 17.69 2.60997 17.8 2.55997C17.87 2.52997 17.94 2.49997 18.01 2.46997C18.12 2.41997 18.24 2.36997 18.36 2.32997C18.25 2.26997 18.13 2.21997 17.99 2.21997H7.48999C5.69999 2.21997 4.23999 3.67997 4.23999 5.46997V20.97C4.23999 21.26 4.40999 21.52 4.66999 21.65C4.92999 21.78 5.23999 21.74 5.45999 21.56L9.98999 17.93L14.52 21.56C14.66 21.67 14.82 21.72 14.99 21.72C15.1 21.72 15.21 21.7 15.31 21.65C15.57 21.53 15.74 21.26 15.74 20.97V5.88997C15.74 5.67997 15.76 5.47997 15.79 5.27997C15.8 5.20997 15.83 5.14997 15.84 5.07997Z" fill="black"/>
<path d="M20.17 3.63997H19.49C18.25 3.63997 17.24 4.64997 17.24 5.88997V13.72H18.99C19.95 13.72 20.74 12.93 20.74 11.97V5.46997C20.74 4.78997 20.53 4.15997 20.17 3.63997Z" fill="black"/>
</svg>
