<svg width="24" height="24" viewBox="0 0 24 24" fill="none" xmlns="http://www.w3.org/2000/svg">
<path d="M19.75 14.37V14C19.75 9.98 16.67 6.67 12.75 6.29V5.75H14C14.41 5.75 14.75 5.41 14.75 5C14.75 4.59 14.41 4.25 14 4.25H10C9.59 4.25 9.25 4.59 9.25 5C9.25 5.41 9.59 5.75 10 5.75H11.25V6.29C7.33 6.67 4.25 9.98 4.25 14V14.37C3.1 14.7 2.25 15.75 2.25 17C2.25 17.96 3.04 18.75 4 18.75H20C20.96 18.75 21.75 17.96 21.75 17C21.75 15.75 20.9 14.7 19.75 14.37ZM5.75 14C5.75 10.55 8.55 7.75 12 7.75C15.45 7.75 18.25 10.55 18.25 14V14.25H5.75V14ZM20 17.25H4C3.86 17.25 3.75 17.14 3.75 17C3.75 16.31 4.31 15.75 5 15.75H19C19.69 15.75 20.25 16.31 20.25 17C20.25 17.14 20.14 17.25 20 17.25Z" fill="black"/>
</svg>
