<svg width="24" height="24" viewBox="0 0 24 24" fill="none" xmlns="http://www.w3.org/2000/svg">
<path d="M21.16 11.5799C21.68 11.0699 21.86 10.3299 21.64 9.63986C21.42 8.94986 20.83 8.44986 20.11 8.34986L15.88 7.72986C15.75 7.70986 15.64 7.62986 15.58 7.50986L13.69 3.66986C13.37 3.01986 12.72 2.60986 11.99 2.60986C11.26 2.60986 10.61 3.01986 10.29 3.66986L8.39996 7.50986C8.33996 7.62986 8.22996 7.70986 8.09996 7.72986L3.86996 8.34986C3.14996 8.44986 2.55996 8.94986 2.33996 9.63986C2.11996 10.3299 2.29996 11.0799 2.81996 11.5799L5.87996 14.5699C5.96996 14.6599 6.01996 14.7899 5.98996 14.9199L5.26996 19.1399C5.14996 19.8599 5.43996 20.5699 6.01996 20.9899C6.60996 21.4199 7.36996 21.4699 8.01996 21.1299L11.81 19.1399C11.93 19.0799 12.06 19.0799 12.18 19.1399L15.97 21.1299C16.25 21.2799 16.55 21.3499 16.85 21.3499C17.24 21.3499 17.63 21.2299 17.96 20.9899C18.55 20.5599 18.84 19.8499 18.71 19.1399L17.99 14.9199C17.97 14.7899 18.01 14.6599 18.1 14.5699L21.16 11.5799Z" fill="black"/>
</svg>
