<svg width="24" height="24" viewBox="0 0 24 24" fill="none" xmlns="http://www.w3.org/2000/svg">
<path d="M18 12.25H14.75V10.75H15.7C16.05 10.75 16.38 10.65 16.67 10.46L19.42 8.63002C19.63 8.49002 19.75 8.26002 19.75 8.01002C19.75 7.76002 19.62 7.52002 19.42 7.39002L16.67 5.56002C16.38 5.37002 16.05 5.27002 15.7 5.27002H14.75V4.02002C14.75 3.06002 13.96 2.27002 13 2.27002H12C11.04 2.27002 10.25 3.06002 10.25 4.02002V5.27002H6C5.04 5.27002 4.25 6.06002 4.25 7.02002V9.02002C4.25 9.98002 5.04 10.77 6 10.77H10.25V12.27H8.3C7.95 12.27 7.62 12.37 7.33 12.56L4.58 14.39C4.37 14.53 4.25 14.76 4.25 15.01C4.25 15.26 4.38 15.5 4.58 15.63L7.33 17.46C7.62 17.65 7.95 17.75 8.3 17.75H10.25V21C10.25 21.41 10.59 21.75 11 21.75H14C14.41 21.75 14.75 21.41 14.75 21V17.75H18C18.96 17.75 19.75 16.96 19.75 16V14C19.75 13.04 18.96 12.25 18 12.25Z" fill="black"/>
</svg>
