<svg width="24" height="24" viewBox="0 0 24 24" fill="none" xmlns="http://www.w3.org/2000/svg">
<path d="M7.48999 12.72C9.28492 12.72 10.74 11.2649 10.74 9.46997C10.74 7.67505 9.28492 6.21997 7.48999 6.21997C5.69506 6.21997 4.23999 7.67505 4.23999 9.46997C4.23999 11.2649 5.69506 12.72 7.48999 12.72Z" fill="black"/>
<path d="M16.49 12.72C18.2849 12.72 19.74 11.2649 19.74 9.46997C19.74 7.67505 18.2849 6.21997 16.49 6.21997C14.6951 6.21997 13.24 7.67505 13.24 9.46997C13.24 11.2649 14.6951 12.72 16.49 12.72Z" fill="black"/>
<path d="M20.02 12.61C19.15 13.59 17.9 14.22 16.49 14.22C15.08 14.22 13.83 13.59 12.96 12.61C11.91 13.57 11.24 14.94 11.24 16.47V17.97C11.24 18.38 11.58 18.72 11.99 18.72H20.99C21.4 18.72 21.74 18.38 21.74 17.97V16.47C21.74 14.94 21.07 13.57 20.02 12.61Z" fill="black"/>
<path d="M10.88 12.76C10.02 13.65 8.81999 14.22 7.48999 14.22C6.07999 14.22 4.82999 13.59 3.95999 12.61C2.90999 13.57 2.23999 14.94 2.23999 16.47V17.97C2.23999 18.38 2.57999 18.72 2.98999 18.72H9.87999C9.79999 18.48 9.73999 18.23 9.73999 17.97V16.47C9.73999 15.15 10.15 13.86 10.88 12.76Z" fill="black"/>
</svg>
