<svg width="24" height="24" viewBox="0 0 24 24" fill="none" xmlns="http://www.w3.org/2000/svg">
<path d="M21.3499 17.32C20.9699 17.11 20.5699 16.93 20.1799 16.78L21.6999 12.22C21.7799 11.99 21.7399 11.74 21.5999 11.54C21.4599 11.34 21.2299 11.23 20.9899 11.23H17.6099C16.9399 11.23 16.3399 11.6 16.0499 12.2L15.5999 13.09C15.5599 13.17 15.4699 13.23 15.3799 13.23H8.61991C8.51991 13.23 8.43991 13.18 8.39991 13.09L7.94991 12.2C7.64991 11.6 7.04991 11.23 6.37991 11.23H2.98991C2.74991 11.23 2.51991 11.35 2.37991 11.54C2.23991 11.73 2.19991 11.99 2.27991 12.22L3.79991 16.78C3.39991 16.94 3.00991 17.11 2.62991 17.32C2.26991 17.52 2.13991 17.98 2.33991 18.34C2.47991 18.59 2.72991 18.72 2.99991 18.72C3.11991 18.72 3.24991 18.69 3.35991 18.63C4.23991 18.14 5.15991 17.83 6.08991 17.72C7.32991 17.57 8.05991 17.82 8.89991 18.12C9.69991 18.4 10.6099 18.72 11.9999 18.72C13.3899 18.72 14.2999 18.4 15.0999 18.12C15.9399 17.82 16.6699 17.57 17.9099 17.72C18.8399 17.83 19.7599 18.14 20.6399 18.63C20.9999 18.83 21.4599 18.7 21.6599 18.34C21.8599 17.98 21.7299 17.52 21.3699 17.32H21.3499Z" fill="black"/>
<path d="M9.27991 11.52L9.37991 11.72H14.5999L14.6999 11.52C15.2499 10.41 16.3699 9.71997 17.6099 9.71997H19.0299L18.9299 9.41997C18.6899 8.69997 18.0199 8.21997 17.2699 8.21997H6.70991C5.95991 8.21997 5.28991 8.69997 5.04991 9.41997L4.94991 9.71997H6.36991C7.60991 9.71997 8.71991 10.41 9.27991 11.52Z" fill="black"/>
<path d="M8.98991 5.21997C8.10991 5.21997 7.38991 5.86997 7.26991 6.71997H11.7199C11.5999 5.86997 10.8699 5.21997 9.99991 5.21997H8.98991Z" fill="black"/>
</svg>
