<svg width="24" height="24" viewBox="0 0 24 24" fill="none" xmlns="http://www.w3.org/2000/svg">
<path d="M12 11.25C13.2426 11.25 14.25 10.2426 14.25 9C14.25 7.75736 13.2426 6.75 12 6.75C10.7574 6.75 9.75 7.75736 9.75 9C9.75 10.2426 10.7574 11.25 12 11.25Z" fill="black"/>
<path d="M12 14.75C9.19 14.75 6.71 16.19 5.97 18.25L5.48 19.22C7.21 20.78 9.49 21.74 12 21.74C14.51 21.74 16.77 20.79 18.5 19.24L18.06 18.31C17.29 16.18 14.81 14.74 12 14.74V14.75Z" fill="black"/>
<path d="M12 2.25C6.62 2.25 2.25 6.62 2.25 12C2.25 14.3 3.05 16.41 4.39 18.07L4.6 17.66C5.52 15.1 8.58 13.25 12.01 13.25C15.44 13.25 18.5 15.1 19.45 17.75L19.61 18.09C20.95 16.42 21.76 14.31 21.76 12C21.76 6.62 17.39 2.25 12.01 2.25H12ZM12 12.75C9.93 12.75 8.25 11.07 8.25 9C8.25 6.93 9.93 5.25 12 5.25C14.07 5.25 15.75 6.93 15.75 9C15.75 11.07 14.07 12.75 12 12.75Z" fill="black"/>
</svg>
