<svg width="24" height="24" viewBox="0 0 24 24" fill="none" xmlns="http://www.w3.org/2000/svg">
<path d="M9.99993 11.75C12.6199 11.75 14.7499 9.62 14.7499 7C14.7499 4.38 12.6199 2.25 9.99993 2.25C7.37993 2.25 5.24993 4.38 5.24993 7C5.24993 9.62 7.37993 11.75 9.99993 11.75ZM9.99993 3.75C11.7899 3.75 13.2499 5.21 13.2499 7C13.2499 8.79 11.7899 10.25 9.99993 10.25C8.20993 10.25 6.74993 8.79 6.74993 7C6.74993 5.21 8.20993 3.75 9.99993 3.75Z" fill="black"/>
<path d="M16.9999 11.25C15.3999 11.25 13.9799 12.05 13.1199 13.27C13.0799 13.27 13.0399 13.25 12.9999 13.25H8.09993C5.36993 13.25 2.99993 15.19 2.45993 17.87L2.25993 18.85C2.17993 19.26 2.43993 19.65 2.84993 19.73C2.89993 19.73 2.94993 19.74 2.99993 19.74C3.34993 19.74 3.65993 19.49 3.72993 19.14L3.92993 18.16C4.32993 16.18 6.07993 14.74 8.09993 14.74H12.4399C12.3299 15.14 12.2499 15.55 12.2499 15.99C12.2499 18.61 14.3799 20.74 16.9999 20.74C19.6199 20.74 21.7499 18.61 21.7499 15.99C21.7499 13.37 19.6199 11.24 16.9999 11.24V11.25ZM16.9999 19.25C15.2099 19.25 13.7499 17.79 13.7499 16C13.7499 14.21 15.2099 12.75 16.9999 12.75C18.7899 12.75 20.2499 14.21 20.2499 16C20.2499 17.79 18.7899 19.25 16.9999 19.25Z" fill="black"/>
<path d="M17.7499 15.25V14C17.7499 13.59 17.4099 13.25 16.9999 13.25C16.5899 13.25 16.2499 13.59 16.2499 14V15.25H14.9999C14.5899 15.25 14.2499 15.59 14.2499 16C14.2499 16.41 14.5899 16.75 14.9999 16.75H16.2499V18C16.2499 18.41 16.5899 18.75 16.9999 18.75C17.4099 18.75 17.7499 18.41 17.7499 18V16.75H18.9999C19.4099 16.75 19.7499 16.41 19.7499 16C19.7499 15.59 19.4099 15.25 18.9999 15.25H17.7499Z" fill="black"/>
</svg>
