<svg width="24" height="24" viewBox="0 0 24 24" fill="none" xmlns="http://www.w3.org/2000/svg">
<path d="M10 6.75H14C14.41 6.75 14.75 6.41 14.75 6V4C14.75 3.04 13.96 2.25 13 2.25H11C10.04 2.25 9.25 3.04 9.25 4V6C9.25 6.41 9.59 6.75 10 6.75ZM10.75 4C10.75 3.86 10.86 3.75 11 3.75H13C13.14 3.75 13.25 3.86 13.25 4V5.25H10.75V4Z" fill="black"/>
<path d="M12 13.25C12.6904 13.25 13.25 12.6904 13.25 12C13.25 11.3096 12.6904 10.75 12 10.75C11.3096 10.75 10.75 11.3096 10.75 12C10.75 12.6904 11.3096 13.25 12 13.25Z" fill="black"/>
<path d="M16.25 4.48V6C16.25 7.24 15.24 8.25 14 8.25H10C8.76 8.25 7.75 7.24 7.75 6V4.48C6.3 5 5.25 6.37 5.25 8V18C5.25 20.07 6.93 21.75 9 21.75H15C17.07 21.75 18.75 20.07 18.75 18V8C18.75 6.37 17.7 5 16.25 4.48ZM12 9.25C13.52 9.25 14.75 10.48 14.75 12C14.75 13.52 13.52 14.75 12 14.75C10.48 14.75 9.25 13.52 9.25 12C9.25 10.48 10.48 9.25 12 9.25ZM15.33 18.67C15.22 18.72 15.11 18.75 15 18.75C14.72 18.75 14.46 18.6 14.33 18.34L13.88 17.45C13.67 17.02 13.24 16.76 12.76 16.76H11.23C10.75 16.76 10.32 17.02 10.11 17.45L9.66 18.34C9.47 18.71 9.03 18.86 8.65 18.68C8.28 18.49 8.13 18.04 8.31 17.67L8.76 16.78C9.23 15.84 10.17 15.26 11.22 15.26H12.75C13.8 15.26 14.74 15.84 15.21 16.78L15.66 17.67C15.85 18.04 15.7 18.49 15.32 18.68L15.33 18.67Z" fill="black"/>
</svg>
