<svg width="24" height="24" viewBox="0 0 24 24" fill="none" xmlns="http://www.w3.org/2000/svg">
<path d="M21 11.25H20.71C20.35 7.02 16.97 3.65 12.75 3.29V3C12.75 2.59 12.41 2.25 12 2.25C11.59 2.25 11.25 2.59 11.25 3V3.29C7.02 3.65 3.65 7.03 3.29 11.25H3C2.59 11.25 2.25 11.59 2.25 12C2.25 12.41 2.59 12.75 3 12.75H3.29C3.65 16.98 7.03 20.35 11.25 20.71V21C11.25 21.41 11.59 21.75 12 21.75C12.41 21.75 12.75 21.41 12.75 21V20.71C16.98 20.35 20.35 16.97 20.71 12.75H21C21.41 12.75 21.75 12.41 21.75 12C21.75 11.59 21.41 11.25 21 11.25ZM12.75 19.21V19C12.75 18.59 12.41 18.25 12 18.25C11.59 18.25 11.25 18.59 11.25 19V19.21C7.85 18.86 5.14 16.15 4.79 12.75H5C5.41 12.75 5.75 12.41 5.75 12C5.75 11.59 5.41 11.25 5 11.25H4.79C5.14 7.85 7.85 5.14 11.25 4.79V5C11.25 5.41 11.59 5.75 12 5.75C12.41 5.75 12.75 5.41 12.75 5V4.79C16.15 5.14 18.86 7.85 19.21 11.25H19C18.59 11.25 18.25 11.59 18.25 12C18.25 12.41 18.59 12.75 19 12.75H19.21C18.86 16.15 16.15 18.86 12.75 19.21Z" fill="black"/>
<path d="M12 12.75C13.52 12.75 14.75 11.52 14.75 10C14.75 8.48 13.52 7.25 12 7.25C10.48 7.25 9.25 8.48 9.25 10C9.25 11.52 10.48 12.75 12 12.75ZM12 8.75C12.69 8.75 13.25 9.31 13.25 10C13.25 10.69 12.69 11.25 12 11.25C11.31 11.25 10.75 10.69 10.75 10C10.75 9.31 11.31 8.75 12 8.75Z" fill="black"/>
<path d="M15.18 14.69C14.74 13.8 13.84 13.25 12.85 13.25H11.15C10.15 13.25 9.26 13.8 8.82 14.69L8.33 15.66C8.14 16.03 8.29 16.48 8.66 16.67C9.04 16.86 9.48 16.71 9.67 16.34L10.16 15.37C10.35 14.99 10.73 14.76 11.15 14.76H12.85C13.27 14.76 13.65 15 13.84 15.37L14.33 16.34C14.46 16.6 14.73 16.75 15 16.75C15.11 16.75 15.23 16.72 15.33 16.67C15.7 16.48 15.85 16.03 15.66 15.66L15.17 14.69H15.18Z" fill="black"/>
</svg>
