<svg width="24" height="24" viewBox="0 0 24 24" fill="none" xmlns="http://www.w3.org/2000/svg">
<path d="M21 16.25H14.41C13.94 16.25 13.5 16.43 13.17 16.76L12.76 17.17C12.76 17.17 12.65 17.24 12.58 17.24H10.41C10.34 17.24 10.28 17.21 10.23 17.17L9.82 16.76C9.49 16.43 9.05 16.25 8.58 16.25H3C2.59 16.25 2.25 16.59 2.25 17C2.25 18.52 3.48 19.75 5 19.75H19C20.52 19.75 21.75 18.52 21.75 17C21.75 16.59 21.41 16.25 21 16.25Z" fill="black"/>
<path d="M12 9.25C12.6904 9.25 13.25 8.69036 13.25 8C13.25 7.30964 12.6904 6.75 12 6.75C11.3096 6.75 10.75 7.30964 10.75 8C10.75 8.69036 11.3096 9.25 12 9.25Z" fill="black"/>
<path d="M10.88 15.7L10.93 15.75H12.07L12.12 15.7C12.73 15.09 13.55 14.75 14.42 14.75H20.76V7.12C20.76 5.54 19.47 4.25 17.89 4.25H6.12C4.54 4.25 3.25 5.54 3.25 7.12V14.75H8.59C9.46 14.75 10.28 15.09 10.89 15.7H10.88ZM8.25 13C8.25 11.68 8.94 10.52 9.98 9.85C9.53 9.36 9.25 8.71 9.25 8C9.25 6.48 10.48 5.25 12 5.25C13.52 5.25 14.75 6.48 14.75 8C14.75 8.72 14.47 9.36 14.02 9.85C15.06 10.52 15.75 11.68 15.75 13C15.75 13.41 15.41 13.75 15 13.75C14.59 13.75 14.25 13.41 14.25 13C14.25 11.76 13.24 10.75 12 10.75C10.76 10.75 9.75 11.76 9.75 13C9.75 13.41 9.41 13.75 9 13.75C8.59 13.75 8.25 13.41 8.25 13Z" fill="black"/>
</svg>
