<svg width="24" height="24" viewBox="0 0 24 24" fill="none" xmlns="http://www.w3.org/2000/svg">
<path d="M9 11.25C9.69036 11.25 10.25 10.6904 10.25 10C10.25 9.30964 9.69036 8.75 9 8.75C8.30964 8.75 7.75 9.30964 7.75 10C7.75 10.6904 8.30964 11.25 9 11.25Z" fill="black"/>
<path d="M18 5.25H6C3.93 5.25 2.25 6.93 2.25 9V15C2.25 17.07 3.93 18.75 6 18.75H18C20.07 18.75 21.75 17.07 21.75 15V9C21.75 6.93 20.07 5.25 18 5.25ZM9 7.25C10.52 7.25 11.75 8.48 11.75 10C11.75 11.52 10.52 12.75 9 12.75C7.48 12.75 6.25 11.52 6.25 10C6.25 8.48 7.48 7.25 9 7.25ZM12.34 16.67C12.23 16.72 12.12 16.75 12 16.75C11.73 16.75 11.46 16.6 11.33 16.34L11.15 15.98C10.77 15.22 10.01 14.75 9.17 14.75H8.84C8 14.75 7.24 15.22 6.86 15.97L6.68 16.33C6.49 16.7 6.04 16.85 5.67 16.66C5.3 16.47 5.15 16.02 5.34 15.65L5.52 15.29C6.15 14.02 7.43 13.24 8.84 13.24H9.17C10.59 13.24 11.86 14.03 12.49 15.29L12.67 15.65C12.86 16.02 12.71 16.47 12.34 16.66V16.67ZM18 13.75H14C13.59 13.75 13.25 13.41 13.25 13C13.25 12.59 13.59 12.25 14 12.25H18C18.41 12.25 18.75 12.59 18.75 13C18.75 13.41 18.41 13.75 18 13.75ZM18 10.75H14C13.59 10.75 13.25 10.41 13.25 10C13.25 9.59 13.59 9.25 14 9.25H18C18.41 9.25 18.75 9.59 18.75 10C18.75 10.41 18.41 10.75 18 10.75Z" fill="black"/>
</svg>
