<svg width="24" height="24" viewBox="0 0 24 24" fill="none" xmlns="http://www.w3.org/2000/svg">
<path d="M10 11.75C12.6234 11.75 14.75 9.62335 14.75 7C14.75 4.37665 12.6234 2.25 10 2.25C7.37665 2.25 5.25 4.37665 5.25 7C5.25 9.62335 7.37665 11.75 10 11.75Z" fill="black"/>
<path d="M16.87 15.05C14.23 13.56 11.68 13.25 10 13.25C6.98 13.25 4.6 14.23 3.13 15.05C2.59 15.36 2.25 15.94 2.25 16.57V20C2.25 20.96 3.04 21.75 4 21.75H16C16.96 21.75 17.75 20.96 17.75 20V16.58C17.75 15.94 17.41 15.36 16.87 15.05Z" fill="black"/>
<path d="M16.66 4.56C16.37 4.85 16.37 5.33 16.66 5.62C17.45 6.41 17.45 7.69 16.66 8.47C16.37 8.76 16.37 9.24 16.66 9.53C16.81 9.68 17 9.75 17.19 9.75C17.38 9.75 17.57 9.68 17.72 9.53C19.09 8.16 19.09 5.93 17.72 4.56C17.43 4.27 16.95 4.27 16.66 4.56Z" fill="black"/>
<path d="M20.31 3.6C20.02 3.31 19.54 3.31 19.25 3.6C18.96 3.89 18.96 4.37 19.25 4.66C20.58 5.99 20.58 8.14 19.25 9.47C18.96 9.76 18.96 10.24 19.25 10.53C19.4 10.68 19.59 10.75 19.78 10.75C19.97 10.75 20.16 10.68 20.31 10.53C22.22 8.62 22.22 5.51 20.31 3.6Z" fill="black"/>
</svg>
