<svg width="24" height="24" viewBox="0 0 24 24" fill="none" xmlns="http://www.w3.org/2000/svg">
<path d="M12 7.75C13.5188 7.75 14.75 6.51878 14.75 5C14.75 3.48122 13.5188 2.25 12 2.25C10.4812 2.25 9.24999 3.48122 9.24999 5C9.24999 6.51878 10.4812 7.75 12 7.75Z" fill="black"/>
<path d="M16.59 14.83L15.99 10.61C15.8 9.26 14.63 8.25 13.27 8.25H10.74C9.37998 8.25 8.20999 9.27 8.01999 10.61L7.41999 14.83C7.34999 15.31 7.48999 15.8 7.80999 16.17C8.12999 16.54 8.58999 16.75 9.07999 16.75C9.17999 16.75 9.25999 16.83 9.25999 16.93V20C9.25999 20.96 10.05 21.75 11.01 21.75H13.01C13.97 21.75 14.76 20.96 14.76 20V16.93C14.76 16.83 14.84 16.75 14.94 16.75C15.43 16.75 15.89 16.54 16.21 16.17C16.53 15.8 16.67 15.31 16.6 14.83H16.59Z" fill="black"/>
</svg>
