<svg width="24" height="24" viewBox="0 0 24 24" fill="none" xmlns="http://www.w3.org/2000/svg">
<path d="M16 2.25H8C4.83 2.25 2.25 4.83 2.25 8V16C2.25 19.17 4.83 21.75 8 21.75H16C19.17 21.75 21.75 19.17 21.75 16V8C21.75 4.83 19.17 2.25 16 2.25ZM20.25 16C20.25 18.34 18.34 20.25 16 20.25H8C5.66 20.25 3.75 18.34 3.75 16V8C3.75 5.66 5.66 3.75 8 3.75H16C18.34 3.75 20.25 5.66 20.25 8V16Z" fill="black"/>
<path d="M12 12.75C14.07 12.75 15.75 11.07 15.75 9C15.75 6.93 14.07 5.25 12 5.25C9.93 5.25 8.25 6.93 8.25 9C8.25 11.07 9.93 12.75 12 12.75ZM12 6.75C13.24 6.75 14.25 7.76 14.25 9C14.25 10.24 13.24 11.25 12 11.25C10.76 11.25 9.75 10.24 9.75 9C9.75 7.76 10.76 6.75 12 6.75Z" fill="black"/>
<path d="M18.49 16.88C17.96 14.74 16.04 13.25 13.84 13.25H10.15C7.95 13.25 6.03 14.74 5.5 16.88L5.27 17.82C5.17 18.22 5.41 18.63 5.82 18.73C6.23 18.83 6.63 18.59 6.73 18.18L6.96 17.24C7.33 15.77 8.64 14.75 10.15 14.75H13.84C15.35 14.75 16.67 15.78 17.03 17.24L17.26 18.18C17.34 18.52 17.65 18.75 17.99 18.75C18.05 18.75 18.11 18.75 18.17 18.73C18.57 18.63 18.82 18.22 18.72 17.82L18.49 16.88Z" fill="black"/>
</svg>
