<svg width="24" height="24" viewBox="0 0 24 24" fill="none" xmlns="http://www.w3.org/2000/svg">
<path d="M12 9.75C14.07 9.75 15.75 8.07 15.75 6C15.75 3.93 14.07 2.25 12 2.25C9.93 2.25 8.25 3.93 8.25 6C8.25 8.07 9.93 9.75 12 9.75ZM12 3.75C13.24 3.75 14.25 4.76 14.25 6C14.25 7.24 13.24 8.25 12 8.25C10.76 8.25 9.75 7.24 9.75 6C9.75 4.76 10.76 3.75 12 3.75Z" fill="black"/>
<path d="M6 15.75C6.41 15.75 6.75 15.41 6.75 15V13.52C6.75 13.44 6.79 13.36 6.85 13.32C7.92 12.6 9.69 11.75 12 11.75C14.31 11.75 16.08 12.6 17.15 13.32C17.21 13.36 17.25 13.44 17.25 13.52V15C17.25 15.41 17.59 15.75 18 15.75C18.41 15.75 18.75 15.41 18.75 15V13.52C18.75 12.93 18.46 12.39 17.98 12.07C16.73 11.24 14.69 10.25 12 10.25C9.31 10.25 7.26 11.24 6.02 12.07C5.54 12.39 5.25 12.93 5.25 13.52V15C5.25 15.41 5.59 15.75 6 15.75Z" fill="black"/>
<path d="M21 14.45C20.7 14.17 20.22 14.18 19.94 14.48C19.66 14.78 19.67 15.26 19.97 15.54C20.07 15.64 20.25 15.83 20.25 15.99C20.25 16.5 18.68 17.63 14.91 18.07C14.5 18.12 14.2 18.49 14.25 18.9C14.29 19.28 14.62 19.56 14.99 19.56C15.02 19.56 15.05 19.56 15.08 19.56C19.25 19.07 21.74 17.73 21.74 15.99C21.74 15.61 21.61 15.03 20.99 14.44L21 14.45Z" fill="black"/>
<path d="M12.69 18.71C12.65 18.62 12.6 18.54 12.53 18.47L11.53 17.47C11.24 17.18 10.76 17.18 10.47 17.47C10.27 17.67 10.22 17.94 10.29 18.19C6.05 17.92 3.75 16.67 3.75 16C3.75 15.83 3.92 15.64 4.03 15.55C4.33 15.27 4.35 14.79 4.06 14.49C3.77 14.19 3.3 14.17 3 14.46C2.38 15.04 2.25 15.62 2.25 16.01C2.25 18.19 6.08 19.44 10.32 19.71C10.2 19.99 10.24 20.32 10.47 20.54C10.62 20.69 10.81 20.76 11 20.76C11.19 20.76 11.38 20.69 11.53 20.54L12.53 19.54C12.6 19.47 12.65 19.39 12.69 19.3C12.77 19.12 12.77 18.91 12.69 18.73V18.71Z" fill="black"/>
</svg>
