<svg width="24" height="24" viewBox="0 0 24 24" fill="none" xmlns="http://www.w3.org/2000/svg">
<path d="M19.92 8.20945L14.92 4.31945C13.2 2.97945 10.8 2.97945 9.09001 4.31945L4.09001 8.20945C2.92001 9.11945 2.26001 10.4795 2.26001 11.9595V16.9995C2.26001 19.6195 4.39001 21.7495 7.01001 21.7495H17.01C19.63 21.7495 21.76 19.6195 21.76 16.9995V11.9595C21.76 10.4795 21.09 9.11945 19.93 8.20945H19.92ZM20.25 16.9995C20.25 18.7895 18.79 20.2495 17 20.2495H7.00001C5.21001 20.2495 3.75001 18.7895 3.75001 16.9995V11.9595C3.75001 10.9495 4.21001 10.0195 5.00001 9.38945L10 5.49945C10.59 5.03945 11.29 4.80945 12 4.80945C12.71 4.80945 13.41 5.03945 14 5.49945L19 9.38945C19.8 10.0095 20.25 10.9495 20.25 11.9595V16.9995Z" fill="black"/>
<path d="M12 14.7495C14.07 14.7495 15.75 13.0695 15.75 10.9995C15.75 8.92945 14.07 7.24945 12 7.24945C9.93001 7.24945 8.25001 8.92945 8.25001 10.9995C8.25001 13.0695 9.93001 14.7495 12 14.7495ZM12 8.74945C13.24 8.74945 14.25 9.75945 14.25 10.9995C14.25 12.2395 13.24 13.2495 12 13.2495C10.76 13.2495 9.75001 12.2395 9.75001 10.9995C9.75001 9.75945 10.76 8.74945 12 8.74945Z" fill="black"/>
<path d="M14.84 15.2495H9.16001C7.54001 15.2495 6.11001 16.2795 5.60001 17.8095C5.47001 18.1995 5.68001 18.6295 6.07001 18.7595C6.47001 18.8895 6.89001 18.6795 7.02001 18.2895C7.33001 17.3695 8.18001 16.7495 9.15001 16.7495H14.83C15.8 16.7495 16.66 17.3695 16.96 18.2895C17.07 18.5995 17.36 18.7995 17.67 18.7995C17.75 18.7995 17.83 18.7895 17.91 18.7595C18.3 18.6295 18.52 18.1995 18.38 17.8095C17.87 16.2795 16.44 15.2495 14.82 15.2495H14.84Z" fill="black"/>
</svg>
