<svg width="24" height="24" viewBox="0 0 24 24" fill="none" xmlns="http://www.w3.org/2000/svg">
<path d="M12 11.25C13.2426 11.25 14.25 10.2426 14.25 9C14.25 7.75736 13.2426 6.75 12 6.75C10.7574 6.75 9.75 7.75736 9.75 9C9.75 10.2426 10.7574 11.25 12 11.25Z" fill="black"/>
<path d="M16 2.25H8C4.83 2.25 2.25 4.83 2.25 8V16C2.25 19.17 4.83 21.75 8 21.75H16C19.17 21.75 21.75 19.17 21.75 16V8C21.75 4.83 19.17 2.25 16 2.25ZM12 5.25C14.07 5.25 15.75 6.93 15.75 9C15.75 11.07 14.07 12.75 12 12.75C9.93 12.75 8.25 11.07 8.25 9C8.25 6.93 9.93 5.25 12 5.25ZM18.18 18.73C18.12 18.75 18.06 18.75 18 18.75C17.66 18.75 17.36 18.52 17.27 18.18L17.04 17.24C16.67 15.77 15.36 14.75 13.85 14.75H10.16C8.65 14.75 7.33 15.78 6.97 17.24L6.74 18.18C6.64 18.58 6.24 18.83 5.83 18.73C5.43 18.63 5.18 18.22 5.28 17.82L5.51 16.88C6.04 14.74 7.96 13.25 10.16 13.25H13.85C16.05 13.25 17.97 14.74 18.5 16.88L18.73 17.82C18.83 18.22 18.59 18.63 18.18 18.73Z" fill="black"/>
</svg>
