<svg width="24" height="24" viewBox="0 0 24 24" fill="none" xmlns="http://www.w3.org/2000/svg">
<path d="M12 11.75C14.62 11.75 16.75 9.62 16.75 7C16.75 4.38 14.62 2.25 12 2.25C9.38 2.25 7.25 4.38 7.25 7C7.25 9.62 9.38 11.75 12 11.75ZM12 3.75C13.79 3.75 15.25 5.21 15.25 7C15.25 8.79 13.79 10.25 12 10.25C10.21 10.25 8.75 8.79 8.75 7C8.75 5.21 10.21 3.75 12 3.75Z" fill="black"/>
<path d="M20.01 14.76C14.88 12.76 9.12 12.76 3.99 14.76C2.93 15.17 2.25 16.18 2.25 17.32V19C2.25 20.52 3.48 21.75 5 21.75H19C20.52 21.75 21.75 20.52 21.75 19V17.32C21.75 16.18 21.07 15.17 20.01 14.76ZM20.25 19C20.25 19.69 19.69 20.25 19 20.25H5C4.31 20.25 3.75 19.69 3.75 19V17.32C3.75 16.8 4.06 16.34 4.54 16.16C6.93 15.23 9.44 14.75 12 14.75C14.56 14.75 17.07 15.22 19.46 16.16C19.94 16.35 20.25 16.8 20.25 17.32V19Z" fill="black"/>
</svg>
