<svg width="24" height="24" viewBox="0 0 24 24" fill="none" xmlns="http://www.w3.org/2000/svg">
<path d="M11 12.75C13.6234 12.75 15.75 10.6234 15.75 8C15.75 5.37665 13.6234 3.25 11 3.25C8.37665 3.25 6.25 5.37665 6.25 8C6.25 10.6234 8.37665 12.75 11 12.75Z" fill="black"/>
<path d="M21 12.81L19.91 11.72C19.15 10.96 17.9 10.95 17.13 11.72L13.11 15.74C12.83 16.02 12.64 16.38 12.57 16.76L11.99 19.85C11.94 20.09 12.02 20.35 12.2 20.52C12.34 20.66 12.53 20.74 12.73 20.74C12.78 20.74 12.82 20.74 12.87 20.73L15.96 20.15C16.35 20.08 16.7 19.89 16.98 19.61L21 15.59C21.77 14.82 21.77 13.58 21 12.81Z" fill="black"/>
<path d="M11.09 16.49C11.22 15.8 11.55 15.18 12.05 14.68L12.48 14.25H8.01C5.43 14.25 3.19 16 2.57 18.5L2.28 19.68C2.22 19.9 2.28 20.14 2.42 20.32C2.56 20.5 2.78 20.61 3.01 20.61H10.56C10.47 20.28 10.44 19.93 10.51 19.59L11.1 16.49H11.09Z" fill="black"/>
</svg>
