<svg width="24" height="24" viewBox="0 0 24 24" fill="none" xmlns="http://www.w3.org/2000/svg">
<path d="M12 9.25C12.6904 9.25 13.25 8.69036 13.25 8C13.25 7.30964 12.6904 6.75 12 6.75C11.3096 6.75 10.75 7.30964 10.75 8C10.75 8.69036 11.3096 9.25 12 9.25Z" fill="black"/>
<path d="M18 2.25H6C3.93 2.25 2.25 3.93 2.25 6V14C2.25 16.07 3.93 17.75 6 17.75H7.5C8.2 17.75 8.88 18.09 9.3 18.65L10.6 20.38C10.93 20.83 11.44 21.08 12 21.08C12.56 21.08 13.07 20.82 13.4 20.38L14.7 18.65C15.12 18.09 15.8 17.75 16.5 17.75H18C20.07 17.75 21.75 16.07 21.75 14V6C21.75 3.93 20.07 2.25 18 2.25ZM12 5.25C13.52 5.25 14.75 6.48 14.75 8C14.75 9.52 13.52 10.75 12 10.75C10.48 10.75 9.25 9.52 9.25 8C9.25 6.48 10.48 5.25 12 5.25ZM16.34 14.67C16.23 14.72 16.12 14.75 16.01 14.75C15.74 14.75 15.47 14.6 15.34 14.34L14.89 13.45C14.68 13.02 14.25 12.76 13.77 12.76H10.24C9.76 12.76 9.34 13.02 9.12 13.45L8.67 14.34C8.49 14.71 8.04 14.86 7.66 14.68C7.29 14.49 7.14 14.04 7.32 13.67L7.77 12.78C8.24 11.84 9.18 11.26 10.23 11.26H13.76C14.81 11.26 15.75 11.84 16.22 12.78L16.67 13.67C16.86 14.04 16.71 14.49 16.33 14.68L16.34 14.67Z" fill="black"/>
</svg>
