<svg width="24" height="24" viewBox="0 0 24 24" fill="none" xmlns="http://www.w3.org/2000/svg">
<path d="M12.5 11.25C13.4665 11.25 14.25 10.4665 14.25 9.5C14.25 8.5335 13.4665 7.75 12.5 7.75C11.5335 7.75 10.75 8.5335 10.75 9.5C10.75 10.4665 11.5335 11.25 12.5 11.25Z" fill="black"/>
<path d="M16 2.25H9C6.38 2.25 4.25 4.38 4.25 7V7.25H3C2.59 7.25 2.25 7.59 2.25 8C2.25 8.41 2.59 8.75 3 8.75H4.25V11.25H3C2.59 11.25 2.25 11.59 2.25 12C2.25 12.41 2.59 12.75 3 12.75H4.25V15.25H3C2.59 15.25 2.25 15.59 2.25 16C2.25 16.41 2.59 16.75 3 16.75H4.25V17C4.25 19.62 6.38 21.75 9 21.75H16C18.62 21.75 20.75 19.62 20.75 17V7C20.75 4.38 18.62 2.25 16 2.25ZM12.5 6.25C14.29 6.25 15.75 7.71 15.75 9.5C15.75 11.29 14.29 12.75 12.5 12.75C10.71 12.75 9.25 11.29 9.25 9.5C9.25 7.71 10.71 6.25 12.5 6.25ZM16.24 17.71C16.16 17.74 16.08 17.75 16 17.75C15.69 17.75 15.39 17.55 15.29 17.24L14.75 15.61C14.58 15.1 14.1 14.76 13.56 14.76H11.44C10.9 14.76 10.42 15.1 10.25 15.61L9.71 17.24C9.58 17.63 9.15 17.84 8.76 17.71C8.37 17.58 8.16 17.15 8.29 16.76L8.83 15.13C9.21 14.01 10.25 13.25 11.44 13.25H13.56C14.75 13.25 15.79 14.01 16.17 15.13L16.71 16.76C16.84 17.15 16.63 17.58 16.24 17.71Z" fill="black"/>
</svg>
