<svg width="24" height="24" viewBox="0 0 24 24" fill="none" xmlns="http://www.w3.org/2000/svg">
<path d="M18 5.25H6C3.93 5.25 2.25 6.93 2.25 9V15C2.25 17.07 3.93 18.75 6 18.75H18C20.07 18.75 21.75 17.07 21.75 15V9C21.75 6.93 20.07 5.25 18 5.25ZM20.25 15C20.25 16.24 19.24 17.25 18 17.25H6C4.76 17.25 3.75 16.24 3.75 15V9C3.75 7.76 4.76 6.75 6 6.75H18C19.24 6.75 20.25 7.76 20.25 9V15Z" fill="black"/>
<path d="M9 12.75C10.52 12.75 11.75 11.52 11.75 10C11.75 8.48 10.52 7.25 9 7.25C7.48 7.25 6.25 8.48 6.25 10C6.25 11.52 7.48 12.75 9 12.75ZM9 8.75C9.69 8.75 10.25 9.31 10.25 10C10.25 10.69 9.69 11.25 9 11.25C8.31 11.25 7.75 10.69 7.75 10C7.75 9.31 8.31 8.75 9 8.75Z" fill="black"/>
<path d="M12.49 15.3C11.86 14.03 10.58 13.25 9.17 13.25H8.84C7.42 13.25 6.15 14.04 5.52 15.3L5.34 15.66C5.15 16.03 5.3 16.48 5.67 16.67C6.04 16.86 6.49 16.71 6.68 16.34L6.86 15.98C7.24 15.22 8 14.76 8.84 14.76H9.17C10.01 14.76 10.77 15.23 11.15 15.99L11.33 16.35C11.46 16.61 11.73 16.76 12 16.76C12.11 16.76 12.23 16.73 12.34 16.68C12.71 16.49 12.86 16.04 12.67 15.67L12.49 15.31V15.3Z" fill="black"/>
<path d="M18 9.25H14C13.59 9.25 13.25 9.59 13.25 10C13.25 10.41 13.59 10.75 14 10.75H18C18.41 10.75 18.75 10.41 18.75 10C18.75 9.59 18.41 9.25 18 9.25Z" fill="black"/>
<path d="M18 12.25H14C13.59 12.25 13.25 12.59 13.25 13C13.25 13.41 13.59 13.75 14 13.75H18C18.41 13.75 18.75 13.41 18.75 13C18.75 12.59 18.41 12.25 18 12.25Z" fill="black"/>
</svg>
