<svg width="24" height="24" viewBox="0 0 24 24" fill="none" xmlns="http://www.w3.org/2000/svg">
<path d="M7.50006 11.75C9.29499 11.75 10.7501 10.2949 10.7501 8.5C10.7501 6.70507 9.29499 5.25 7.50006 5.25C5.70514 5.25 4.25006 6.70507 4.25006 8.5C4.25006 10.2949 5.70514 11.75 7.50006 11.75Z" fill="black"/>
<path d="M16.5001 11.75C18.295 11.75 19.7501 10.2949 19.7501 8.5C19.7501 6.70507 18.295 5.25 16.5001 5.25C14.7051 5.25 13.2501 6.70507 13.2501 8.5C13.2501 10.2949 14.7051 11.75 16.5001 11.75Z" fill="black"/>
<path d="M21.4201 16.28C20.9501 13.94 18.8801 12.25 16.5001 12.25C14.5601 12.25 12.8301 13.37 12.0001 15.05C11.1701 13.37 9.44006 12.25 7.50006 12.25C5.12006 12.25 3.05006 13.95 2.58006 16.28L2.27006 17.85C2.23006 18.07 2.28006 18.3 2.43006 18.47C2.58006 18.64 2.79006 18.74 3.01006 18.74H21.0001C21.2201 18.74 21.4401 18.64 21.5801 18.47C21.7201 18.3 21.7801 18.07 21.7401 17.85L21.4301 16.28H21.4201Z" fill="black"/>
</svg>
