<svg width="24" height="24" viewBox="0 0 24 24" fill="none" xmlns="http://www.w3.org/2000/svg">
<path d="M12 12.75C14.07 12.75 15.75 11.07 15.75 9C15.75 6.93 14.07 5.25 12 5.25C9.93 5.25 8.25 6.93 8.25 9C8.25 11.07 9.93 12.75 12 12.75ZM12 6.75C13.24 6.75 14.25 7.76 14.25 9C14.25 10.24 13.24 11.25 12 11.25C10.76 11.25 9.75 10.24 9.75 9C9.75 7.76 10.76 6.75 12 6.75Z" fill="black"/>
<path d="M19.42 18.31C20.87 16.61 21.75 14.4 21.75 12C21.75 6.62 17.38 2.25 12 2.25C6.62 2.25 2.25 6.62 2.25 12C2.25 14.41 3.13 16.61 4.58 18.31C4.64 18.43 4.74 18.53 4.85 18.61C6.63 20.53 9.17 21.75 11.99 21.75C14.81 21.75 17.35 20.54 19.13 18.61C19.25 18.53 19.35 18.43 19.4 18.31H19.42ZM12 3.75C16.55 3.75 20.25 7.45 20.25 12C20.25 13.7 19.73 15.28 18.85 16.6C17.53 14.59 14.91 13.25 12 13.25C9.09 13.25 6.47 14.58 5.15 16.6C4.26 15.29 3.75 13.7 3.75 12C3.75 7.45 7.45 3.75 12 3.75ZM6.17 17.83C7.08 16 9.39 14.75 12 14.75C14.61 14.75 16.92 16 17.83 17.83C16.34 19.32 14.28 20.25 12 20.25C9.72 20.25 7.67 19.33 6.17 17.83Z" fill="black"/>
</svg>
