<svg width="24" height="24" viewBox="0 0 24 24" fill="none" xmlns="http://www.w3.org/2000/svg">
<path d="M16 2.25H9C6.38 2.25 4.25 4.38 4.25 7V7.25H3C2.59 7.25 2.25 7.59 2.25 8C2.25 8.41 2.59 8.75 3 8.75H4.25V11.25H3C2.59 11.25 2.25 11.59 2.25 12C2.25 12.41 2.59 12.75 3 12.75H4.25V15.25H3C2.59 15.25 2.25 15.59 2.25 16C2.25 16.41 2.59 16.75 3 16.75H4.25V17C4.25 19.62 6.38 21.75 9 21.75H16C18.62 21.75 20.75 19.62 20.75 17V7C20.75 4.38 18.62 2.25 16 2.25ZM19.25 17C19.25 18.79 17.79 20.25 16 20.25H9C7.21 20.25 5.75 18.79 5.75 17V7C5.75 5.21 7.21 3.75 9 3.75H16C17.79 3.75 19.25 5.21 19.25 7V17Z" fill="black"/>
<path d="M12.5 12.75C14.29 12.75 15.75 11.29 15.75 9.5C15.75 7.71 14.29 6.25 12.5 6.25C10.71 6.25 9.25 7.71 9.25 9.5C9.25 11.29 10.71 12.75 12.5 12.75ZM12.5 7.75C13.46 7.75 14.25 8.54 14.25 9.5C14.25 10.46 13.46 11.25 12.5 11.25C11.54 11.25 10.75 10.46 10.75 9.5C10.75 8.54 11.54 7.75 12.5 7.75Z" fill="black"/>
<path d="M16.17 15.13C15.79 14.01 14.75 13.25 13.56 13.25H11.44C10.25 13.25 9.21 14.01 8.83 15.13L8.29 16.76C8.16 17.15 8.37 17.58 8.76 17.71C9.15 17.84 9.58 17.63 9.71 17.24L10.25 15.61C10.42 15.1 10.9 14.76 11.44 14.76H13.56C14.1 14.76 14.58 15.1 14.75 15.61L15.29 17.24C15.4 17.55 15.69 17.75 16 17.75C16.08 17.75 16.16 17.74 16.24 17.71C16.63 17.58 16.85 17.15 16.71 16.76L16.17 15.13Z" fill="black"/>
</svg>
