<svg width="24" height="24" viewBox="0 0 24 24" fill="none" xmlns="http://www.w3.org/2000/svg">
<path d="M21 15.25H20.75V7.12C20.75 5.54 19.46 4.25 17.88 4.25H6.12C4.54 4.25 3.25 5.54 3.25 7.12V15.25H3C2.59 15.25 2.25 15.59 2.25 16V16.88C2.25 18.46 3.54 19.75 5.12 19.75H18.88C20.46 19.75 21.75 18.46 21.75 16.88V16C21.75 15.59 21.41 15.25 21 15.25ZM4.75 7.12C4.75 6.37 5.36 5.75 6.12 5.75H17.88C18.63 5.75 19.25 6.36 19.25 7.12V15.25H14.41C13.94 15.25 13.5 15.43 13.17 15.76L12.76 16.17C12.76 16.17 12.65 16.24 12.58 16.24H10.41C10.34 16.24 10.28 16.21 10.23 16.17L9.82 15.76C9.49 15.43 9.05 15.25 8.58 15.25H4.74V7.12H4.75ZM20.25 16.89C20.25 17.64 19.64 18.26 18.88 18.26H5.12C4.37 18.26 3.75 17.65 3.75 16.89V16.76H8.59C8.66 16.76 8.72 16.79 8.77 16.83L9.18 17.24C9.51 17.57 9.95 17.75 10.42 17.75H12.59C13.06 17.75 13.5 17.57 13.83 17.24L14.24 16.83C14.24 16.83 14.35 16.76 14.42 16.76H20.26V16.89H20.25Z" fill="black"/>
<path d="M9.75 14C9.75 12.76 10.76 11.75 12 11.75C13.24 11.75 14.25 12.76 14.25 14C14.25 14.41 14.59 14.75 15 14.75C15.41 14.75 15.75 14.41 15.75 14C15.75 12.68 15.06 11.52 14.02 10.85C14.47 10.36 14.75 9.71 14.75 9C14.75 7.48 13.52 6.25 12 6.25C10.48 6.25 9.25 7.48 9.25 9C9.25 9.72 9.53 10.36 9.98 10.85C8.94 11.52 8.25 12.68 8.25 14C8.25 14.41 8.59 14.75 9 14.75C9.41 14.75 9.75 14.41 9.75 14ZM10.75 9C10.75 8.31 11.31 7.75 12 7.75C12.69 7.75 13.25 8.31 13.25 9C13.25 9.69 12.69 10.25 12 10.25C11.31 10.25 10.75 9.69 10.75 9Z" fill="black"/>
</svg>
