<svg width="24" height="24" viewBox="0 0 24 24" fill="none" xmlns="http://www.w3.org/2000/svg">
<path d="M12 13.75C14.6234 13.75 16.75 11.6234 16.75 9C16.75 6.37665 14.6234 4.25 12 4.25C9.37666 4.25 7.25001 6.37665 7.25001 9C7.25001 11.6234 9.37666 13.75 12 13.75Z" fill="black"/>
<path d="M12 15.25C9.89001 15.25 8.06001 16.68 7.52001 18.82C7.46001 19.05 7.52001 19.28 7.66001 19.47C7.80001 19.65 8.02001 19.76 8.25001 19.76L15.73 19.67C15.96 19.67 16.18 19.56 16.31 19.38C16.45 19.2 16.5 18.96 16.44 18.74C15.93 16.69 14.1 15.26 11.98 15.26L12 15.25Z" fill="black"/>
<path d="M6.07001 18.45C6.39001 17.16 7.10001 16.06 8.05001 15.25H7.01001C5.49001 15.25 4.17001 16.28 3.80001 17.76L3.54001 18.82C3.48001 19.04 3.54001 19.28 3.68001 19.46C3.82001 19.64 4.04001 19.75 4.27001 19.75H6.17001C6.02001 19.33 5.98001 18.88 6.09001 18.45H6.07001Z" fill="black"/>
<path d="M20.46 18.75L20 17.45C19.53 16.14 18.28 15.25 16.88 15.25H15.99C16.91 16.05 17.61 17.11 17.92 18.36C18.04 18.83 17.99 19.31 17.82 19.75H19.76C20 19.75 20.23 19.63 20.37 19.43C20.51 19.23 20.54 18.98 20.46 18.75Z" fill="black"/>
<path d="M16.1 13.71C16.23 13.72 16.37 13.75 16.5 13.75C18.57 13.75 20.25 12.07 20.25 10C20.25 8.36 19.18 6.97 17.71 6.47C18.06 7.25 18.25 8.1 18.25 9C18.25 10.88 17.41 12.56 16.1 13.71Z" fill="black"/>
<path d="M7.50001 13.75C7.64001 13.75 7.77001 13.72 7.90001 13.71C6.58001 12.56 5.75001 10.88 5.75001 9C5.75001 8.1 5.95001 7.24 6.29001 6.47C4.82001 6.98 3.75001 8.36 3.75001 10C3.75001 12.07 5.43001 13.75 7.50001 13.75Z" fill="black"/>
</svg>
