<svg width="24" height="24" viewBox="0 0 24 24" fill="none" xmlns="http://www.w3.org/2000/svg">
<path d="M18 2.25H6C3.93 2.25 2.25 3.93 2.25 6V14C2.25 16.07 3.93 17.75 6 17.75H7.5C8.2 17.75 8.88 18.09 9.3 18.65L10.6 20.38C10.93 20.83 11.44 21.08 12 21.08C12.56 21.08 13.07 20.82 13.4 20.38L14.7 18.65C15.12 18.09 15.8 17.75 16.5 17.75H18C20.07 17.75 21.75 16.07 21.75 14V6C21.75 3.93 20.07 2.25 18 2.25ZM20.25 14C20.25 15.24 19.24 16.25 18 16.25H16.5C15.33 16.25 14.2 16.81 13.5 17.75L12.2 19.48C12.07 19.65 11.93 19.65 11.8 19.48L10.5 17.75C9.8 16.81 8.67 16.25 7.5 16.25H6C4.76 16.25 3.75 15.24 3.75 14V6C3.75 4.76 4.76 3.75 6 3.75H18C19.24 3.75 20.25 4.76 20.25 6V14Z" fill="black"/>
<path d="M12 10.75C13.52 10.75 14.75 9.52 14.75 8C14.75 6.48 13.52 5.25 12 5.25C10.48 5.25 9.25 6.48 9.25 8C9.25 9.52 10.48 10.75 12 10.75ZM12 6.75C12.69 6.75 13.25 7.31 13.25 8C13.25 8.69 12.69 9.25 12 9.25C11.31 9.25 10.75 8.69 10.75 8C10.75 7.31 11.31 6.75 12 6.75Z" fill="black"/>
<path d="M16.22 12.77C15.75 11.83 14.81 11.25 13.76 11.25H10.23C9.18 11.25 8.24 11.83 7.77 12.77L7.32 13.66C7.13 14.03 7.28 14.48 7.66 14.67C8.03 14.86 8.48 14.7 8.67 14.33L9.12 13.44C9.33 13.01 9.76 12.75 10.24 12.75H13.77C14.25 12.75 14.67 13.01 14.89 13.44L15.34 14.33C15.47 14.59 15.74 14.74 16.01 14.74C16.12 14.74 16.24 14.71 16.34 14.66C16.71 14.47 16.86 14.02 16.68 13.65L16.23 12.76L16.22 12.77Z" fill="black"/>
</svg>
