<svg width="24" height="24" viewBox="0 0 24 24" fill="none" xmlns="http://www.w3.org/2000/svg">
<path d="M9.99993 11.75C12.6233 11.75 14.7499 9.62335 14.7499 7C14.7499 4.37665 12.6233 2.25 9.99993 2.25C7.37658 2.25 5.24993 4.37665 5.24993 7C5.24993 9.62335 7.37658 11.75 9.99993 11.75Z" fill="black"/>
<path d="M16.9999 11.25C14.3799 11.25 12.2499 13.38 12.2499 16C12.2499 18.62 14.3799 20.75 16.9999 20.75C19.6199 20.75 21.7499 18.62 21.7499 16C21.7499 13.38 19.6199 11.25 16.9999 11.25ZM18.9999 16.75H17.7499V18C17.7499 18.41 17.4099 18.75 16.9999 18.75C16.5899 18.75 16.2499 18.41 16.2499 18V16.75H14.9999C14.5899 16.75 14.2499 16.41 14.2499 16C14.2499 15.59 14.5899 15.25 14.9999 15.25H16.2499V14C16.2499 13.59 16.5899 13.25 16.9999 13.25C17.4099 13.25 17.7499 13.59 17.7499 14V15.25H18.9999C19.4099 15.25 19.7499 15.59 19.7499 16C19.7499 16.41 19.4099 16.75 18.9999 16.75Z" fill="black"/>
<path d="M11.3999 13.25H8.09993C5.36993 13.25 2.99993 15.19 2.45993 17.87L2.25993 18.85C2.21993 19.07 2.26993 19.3 2.41993 19.47C2.56993 19.64 2.77993 19.74 2.99993 19.74H12.0099C11.2199 18.69 10.7499 17.4 10.7499 15.99C10.7499 15 10.9899 14.07 11.3999 13.24V13.25Z" fill="black"/>
</svg>
