<svg width="24" height="24" viewBox="0 0 24 24" fill="none" xmlns="http://www.w3.org/2000/svg">
<path d="M7.49994 11.75C9.28994 11.75 10.7499 10.29 10.7499 8.5C10.7499 6.71 9.28994 5.25 7.49994 5.25C5.70994 5.25 4.24994 6.71 4.24994 8.5C4.24994 10.29 5.70994 11.75 7.49994 11.75ZM7.49994 6.75C8.45994 6.75 9.24994 7.54 9.24994 8.5C9.24994 9.46 8.45994 10.25 7.49994 10.25C6.53994 10.25 5.74994 9.46 5.74994 8.5C5.74994 7.54 6.53994 6.75 7.49994 6.75Z" fill="black"/>
<path d="M16.4999 11.75C18.2899 11.75 19.7499 10.29 19.7499 8.5C19.7499 6.71 18.2899 5.25 16.4999 5.25C14.7099 5.25 13.2499 6.71 13.2499 8.5C13.2499 10.29 14.7099 11.75 16.4999 11.75ZM16.4999 6.75C17.4599 6.75 18.2499 7.54 18.2499 8.5C18.2499 9.46 17.4599 10.25 16.4999 10.25C15.5399 10.25 14.7499 9.46 14.7499 8.5C14.7499 7.54 15.5399 6.75 16.4999 6.75Z" fill="black"/>
<path d="M21.4199 16.28C20.9499 13.94 18.8799 12.25 16.4999 12.25C14.5599 12.25 12.8299 13.37 11.9999 15.05C11.1699 13.37 9.43994 12.25 7.49994 12.25C5.11994 12.25 3.04994 13.95 2.57994 16.28L2.26994 17.85C2.18994 18.26 2.44994 18.65 2.85994 18.73C3.26994 18.81 3.65994 18.55 3.73994 18.14L4.04994 16.57C4.37994 14.93 5.82994 13.74 7.49994 13.74C9.16994 13.74 10.6199 14.93 10.9499 16.57L11.2599 18.14C11.3299 18.49 11.6399 18.74 11.9999 18.74C12.3599 18.74 12.6699 18.49 12.7399 18.14L13.0499 16.57C13.3799 14.93 14.8299 13.74 16.4999 13.74C18.1699 13.74 19.6199 14.93 19.9499 16.57L20.2599 18.14C20.3299 18.5 20.6399 18.74 20.9899 18.74C21.0399 18.74 21.0899 18.74 21.1399 18.73C21.5499 18.65 21.8099 18.25 21.7299 17.85L21.4199 16.28Z" fill="black"/>
</svg>
