<svg width="24" height="24" viewBox="0 0 24 24" fill="none" xmlns="http://www.w3.org/2000/svg">
<path d="M12 4.75C12.41 4.75 12.75 4.41 12.75 4V3C12.75 2.59 12.41 2.25 12 2.25C11.59 2.25 11.25 2.59 11.25 3V4C11.25 4.41 11.59 4.75 12 4.75Z" fill="black"/>
<path d="M21 11.25H20C19.59 11.25 19.25 11.59 19.25 12C19.25 12.41 19.59 12.75 20 12.75H21C21.41 12.75 21.75 12.41 21.75 12C21.75 11.59 21.41 11.25 21 11.25Z" fill="black"/>
<path d="M12 19.25C11.59 19.25 11.25 19.59 11.25 20V21C11.25 21.41 11.59 21.75 12 21.75C12.41 21.75 12.75 21.41 12.75 21V20C12.75 19.59 12.41 19.25 12 19.25Z" fill="black"/>
<path d="M4.75 12C4.75 11.59 4.41 11.25 4 11.25H3C2.59 11.25 2.25 11.59 2.25 12C2.25 12.41 2.59 12.75 3 12.75H4C4.41 12.75 4.75 12.41 4.75 12Z" fill="black"/>
<path d="M12 11.25C12.6904 11.25 13.25 10.6904 13.25 10C13.25 9.30964 12.6904 8.75 12 8.75C11.3096 8.75 10.75 9.30964 10.75 10C10.75 10.6904 11.3096 11.25 12 11.25Z" fill="black"/>
<path d="M17.75 12C17.75 10.76 18.76 9.75 20 9.75H20.45C19.65 6.73 17.27 4.35 14.25 3.55V4C14.25 5.24 13.24 6.25 12 6.25C10.76 6.25 9.75 5.24 9.75 4V3.55C6.73 4.35 4.35 6.73 3.55 9.75H4C5.24 9.75 6.25 10.76 6.25 12C6.25 13.24 5.24 14.25 4 14.25H3.55C4.35 17.27 6.73 19.65 9.75 20.45V20C9.75 18.76 10.76 17.75 12 17.75C13.24 17.75 14.25 18.76 14.25 20V20.45C17.27 19.64 19.64 17.26 20.45 14.25H20C18.76 14.25 17.75 13.24 17.75 12ZM12 7.25C13.52 7.25 14.75 8.48 14.75 10C14.75 11.52 13.52 12.75 12 12.75C10.48 12.75 9.25 11.52 9.25 10C9.25 8.48 10.48 7.25 12 7.25ZM15.34 16.67C15.23 16.72 15.12 16.75 15.01 16.75C14.73 16.75 14.47 16.6 14.34 16.34L13.85 15.37C13.66 14.99 13.28 14.76 12.86 14.76H11.16C10.74 14.76 10.36 15 10.17 15.37L9.68 16.34C9.49 16.71 9.05 16.86 8.67 16.67C8.3 16.48 8.15 16.03 8.34 15.66L8.83 14.69C9.27 13.8 10.17 13.25 11.16 13.25H12.86C13.86 13.25 14.75 13.8 15.19 14.69L15.68 15.66C15.87 16.03 15.72 16.48 15.35 16.67H15.34Z" fill="black"/>
</svg>
