<svg width="24" height="24" viewBox="0 0 24 24" fill="none" xmlns="http://www.w3.org/2000/svg">
<path d="M12 7.75C13.52 7.75 14.75 6.52 14.75 5C14.75 3.48 13.52 2.25 12 2.25C10.48 2.25 9.24999 3.48 9.24999 5C9.24999 6.52 10.48 7.75 12 7.75ZM12 3.75C12.69 3.75 13.25 4.31 13.25 5C13.25 5.69 12.69 6.25 12 6.25C11.31 6.25 10.75 5.69 10.75 5C10.75 4.31 11.31 3.75 12 3.75Z" fill="black"/>
<path d="M16.59 14.83L15.99 10.61C15.8 9.26 14.63 8.25 13.27 8.25H10.74C9.37998 8.25 8.20999 9.27 8.01999 10.61L7.41999 14.83C7.34999 15.31 7.48999 15.8 7.80999 16.17C8.12999 16.54 8.58999 16.75 9.07999 16.75C9.17999 16.75 9.25999 16.83 9.25999 16.93V20C9.25999 20.96 10.05 21.75 11.01 21.75H13.01C13.97 21.75 14.76 20.96 14.76 20V16.93C14.76 16.83 14.84 16.75 14.94 16.75C15.43 16.75 15.89 16.54 16.21 16.17C16.53 15.8 16.67 15.31 16.6 14.83H16.59ZM15.06 15.18C15.06 15.18 14.99 15.24 14.92 15.24C13.99 15.24 13.24 15.99 13.24 16.92V19.99C13.24 20.13 13.13 20.24 12.99 20.24H10.99C10.85 20.24 10.74 20.13 10.74 19.99V16.92C10.74 15.99 9.98999 15.24 9.05999 15.24C8.98999 15.24 8.94999 15.21 8.91999 15.18C8.89999 15.15 8.86999 15.1 8.87999 15.04L9.47998 10.82C9.56998 10.21 10.1 9.75 10.72 9.75H13.25C13.87 9.75 14.4 10.21 14.49 10.82L15.09 15.04C15.09 15.11 15.07 15.15 15.05 15.18H15.06Z" fill="black"/>
</svg>
