<svg width="24" height="24" viewBox="0 0 24 24" fill="none" xmlns="http://www.w3.org/2000/svg">
<path d="M12 7.75C13.5188 7.75 14.75 6.51878 14.75 5C14.75 3.48122 13.5188 2.25 12 2.25C10.4812 2.25 9.25 3.48122 9.25 5C9.25 6.51878 10.4812 7.75 12 7.75Z" fill="black"/>
<path d="M17 15.25H7C6.78 15.25 6.56 15.35 6.42 15.52C6.28 15.69 6.22 15.92 6.26 16.14L7.1 20.34C7.26 21.15 7.98 21.75 8.82 21.75H15.18C16.01 21.75 16.73 21.16 16.9 20.34L17.74 16.14C17.78 15.92 17.73 15.69 17.58 15.52C17.43 15.35 17.22 15.25 17 15.25Z" fill="black"/>
<path d="M16.67 10.66L16.22 9.77C15.75 8.83 14.81 8.25 13.76 8.25H10.23C9.18 8.25 8.24 8.83 7.77 9.77L7.32 10.66C7.32 10.66 7.32 10.72 7.3 10.75H16.68C16.68 10.75 16.68 10.69 16.66 10.66H16.67Z" fill="black"/>
<path d="M17 12.25H7C6.04 12.25 5.25 13.04 5.25 14V14.57C5.69 14.05 6.32 13.75 7 13.75H17C17.68 13.75 18.31 14.05 18.74 14.57V14C18.74 13.04 17.96 12.25 17 12.25Z" fill="black"/>
</svg>
