<svg width="24" height="24" viewBox="0 0 24 24" fill="none" xmlns="http://www.w3.org/2000/svg">
<path d="M18.49 5.5C17.86 3.62 16.1 2.25 14 2.25H7C4.38 2.25 2.25 4.38 2.25 7V14C2.25 16.09 3.62 17.85 5.5 18.49C6.14 20.42 7.94 21.75 10 21.75H17C19.62 21.75 21.75 19.62 21.75 17V10C21.75 7.94 20.42 6.14 18.49 5.5ZM3.75 14V7C3.75 5.21 5.21 3.75 7 3.75H14C15.79 3.75 17.25 5.21 17.25 7V14C17.25 15.79 15.79 17.25 14 17.25H7C5.21 17.25 3.75 15.79 3.75 14ZM20.25 17C20.25 18.79 18.79 20.25 17 20.25H10C8.87 20.25 7.85 19.66 7.26 18.75H14C16.62 18.75 18.75 16.62 18.75 14V7.26C19.66 7.84 20.25 8.86 20.25 10V17Z" fill="black"/>
<path d="M10.5 11.75C12.29 11.75 13.75 10.29 13.75 8.5C13.75 6.71 12.29 5.25 10.5 5.25C8.71 5.25 7.25 6.71 7.25 8.5C7.25 10.29 8.71 11.75 10.5 11.75ZM10.5 6.75C11.46 6.75 12.25 7.54 12.25 8.5C12.25 9.46 11.46 10.25 10.5 10.25C9.54 10.25 8.75 9.46 8.75 8.5C8.75 7.54 9.54 6.75 10.5 6.75Z" fill="black"/>
<path d="M8.24 13.75H12.77C13.25 13.75 13.68 14.01 13.89 14.44L14.34 15.33C14.47 15.59 14.74 15.74 15.01 15.74C15.12 15.74 15.24 15.71 15.34 15.66C15.71 15.47 15.86 15.02 15.68 14.65L15.23 13.76C14.76 12.82 13.82 12.24 12.77 12.24H8.24C7.19 12.24 6.25 12.82 5.78 13.76L5.33 14.65C5.14 15.02 5.29 15.47 5.67 15.66C6.04 15.85 6.49 15.69 6.68 15.32L7.13 14.43C7.34 14 7.77 13.74 8.25 13.74L8.24 13.75Z" fill="black"/>
</svg>
