<svg width="24" height="24" viewBox="0 0 24 24" fill="none" xmlns="http://www.w3.org/2000/svg">
<path d="M12 7.75C13.52 7.75 14.75 6.52 14.75 5C14.75 3.48 13.52 2.25 12 2.25C10.48 2.25 9.25 3.48 9.25 5C9.25 6.52 10.48 7.75 12 7.75ZM12 3.75C12.69 3.75 13.25 4.31 13.25 5C13.25 5.69 12.69 6.25 12 6.25C11.31 6.25 10.75 5.69 10.75 5C10.75 4.31 11.31 3.75 12 3.75Z" fill="black"/>
<path d="M7.66 11.67C8.03 11.86 8.48 11.71 8.67 11.33L9.12 10.44C9.33 10.01 9.76 9.75 10.24 9.75H13.77C14.25 9.75 14.68 10.01 14.89 10.44L15.34 11.33C15.47 11.59 15.74 11.74 16.01 11.74C16.12 11.74 16.24 11.71 16.34 11.66C16.71 11.47 16.86 11.02 16.68 10.65L16.23 9.76C15.76 8.82 14.82 8.24 13.77 8.24H10.24C9.19 8.24 8.25 8.82 7.78 9.76L7.33 10.65C7.14 11.02 7.29 11.47 7.67 11.66L7.66 11.67Z" fill="black"/>
<path d="M17 12.25H7C6.04 12.25 5.25 13.04 5.25 14V15C5.25 15.74 5.71 16.37 6.36 16.62L7.1 20.34C7.26 21.15 7.98 21.75 8.82 21.75H15.18C16.01 21.75 16.73 21.16 16.9 20.34L17.64 16.62C18.29 16.36 18.75 15.73 18.75 15V14C18.75 13.04 17.96 12.25 17 12.25ZM6.75 14C6.75 13.86 6.86 13.75 7 13.75H17C17.14 13.75 17.25 13.86 17.25 14V15C17.25 15.14 17.14 15.25 17 15.25H7C6.86 15.25 6.75 15.14 6.75 15V14ZM15.43 20.05C15.41 20.17 15.3 20.25 15.18 20.25H8.82C8.7 20.25 8.6 20.17 8.57 20.05L7.91 16.75H16.08L15.42 20.05H15.43Z" fill="black"/>
</svg>
