<svg width="24" height="24" viewBox="0 0 24 24" fill="none" xmlns="http://www.w3.org/2000/svg">
<path d="M10.5 9.75C11.4665 9.75 12.25 8.9665 12.25 8C12.25 7.0335 11.4665 6.25 10.5 6.25C9.5335 6.25 8.75 7.0335 8.75 8C8.75 8.9665 9.5335 9.75 10.5 9.75Z" fill="black"/>
<path d="M14 18.75C16.62 18.75 18.75 16.62 18.75 14V7C18.75 4.38 16.62 2.25 14 2.25H7C4.38 2.25 2.25 4.38 2.25 7V14C2.25 16.62 4.38 18.75 7 18.75H14ZM10.5 4.75C12.29 4.75 13.75 6.21 13.75 8C13.75 9.79 12.29 11.25 10.5 11.25C8.71 11.25 7.25 9.79 7.25 8C7.25 6.21 8.71 4.75 10.5 4.75ZM5.67 16.17C5.3 15.98 5.15 15.53 5.33 15.16L5.78 14.27C6.25 13.33 7.19 12.75 8.24 12.75H12.77C13.82 12.75 14.76 13.33 15.23 14.27L15.68 15.16C15.87 15.53 15.72 15.98 15.34 16.17C15.23 16.22 15.12 16.25 15.01 16.25C14.73 16.25 14.47 16.1 14.34 15.84L13.89 14.95C13.68 14.52 13.25 14.26 12.77 14.26H8.24C7.76 14.26 7.33 14.52 7.12 14.95L6.67 15.84C6.48 16.21 6.04 16.36 5.66 16.18L5.67 16.17Z" fill="black"/>
<path d="M20.23 6.51C20.24 6.67 20.25 6.83 20.25 7V14C20.25 17.45 17.45 20.25 14 20.25H7C6.84 20.25 6.67 20.24 6.51 20.23C7.39 21.18 8.64 21.75 10 21.75H17C19.62 21.75 21.75 19.62 21.75 17V10C21.75 8.64 21.17 7.39 20.23 6.51Z" fill="black"/>
</svg>
