<svg width="24" height="24" viewBox="0 0 24 24" fill="none" xmlns="http://www.w3.org/2000/svg">
<path d="M12.0001 13.75C14.6201 13.75 16.7501 11.62 16.7501 9C16.7501 6.38 14.6201 4.25 12.0001 4.25C9.38008 4.25 7.25008 6.38 7.25008 9C7.25008 11.62 9.38008 13.75 12.0001 13.75ZM12.0001 5.75C13.7901 5.75 15.2501 7.21 15.2501 9C15.2501 10.79 13.7901 12.25 12.0001 12.25C10.2101 12.25 8.75008 10.79 8.75008 9C8.75008 7.21 10.2101 5.75 12.0001 5.75Z" fill="black"/>
<path d="M17.6201 8.05C18.3101 8.45 18.7501 9.2 18.7501 10C18.7501 11.24 17.7401 12.25 16.5001 12.25C16.0901 12.25 15.7501 12.59 15.7501 13C15.7501 13.41 16.0901 13.75 16.5001 13.75C18.5701 13.75 20.2501 12.07 20.2501 10C20.2501 8.67 19.5301 7.42 18.3801 6.75C18.0201 6.54 17.5601 6.67 17.3501 7.02C17.1401 7.38 17.2701 7.84 17.6201 8.04V8.05Z" fill="black"/>
<path d="M7.50008 13.75C7.91008 13.75 8.25008 13.41 8.25008 13C8.25008 12.59 7.91008 12.25 7.50008 12.25C6.26008 12.25 5.25008 11.24 5.25008 10C5.25008 9.2 5.68008 8.45 6.38008 8.05C6.74008 7.84 6.86008 7.38 6.65008 7.03C6.44008 6.67 5.99008 6.55 5.62008 6.76C4.46008 7.43 3.75008 8.67 3.75008 10.01C3.75008 12.08 5.43008 13.76 7.50008 13.76V13.75Z" fill="black"/>
<path d="M12.0001 15.25C9.89008 15.25 8.06008 16.68 7.54008 18.73L7.52008 18.82L8.25008 19L9.00008 19.09C9.34008 17.71 10.5801 16.75 12.0001 16.75C13.4201 16.75 14.6601 17.71 15.0001 19.09C15.0801 19.43 15.3901 19.66 15.7301 19.66C15.7901 19.66 15.8501 19.66 15.9101 19.64C16.3101 19.54 16.5601 19.13 16.4601 18.73C15.9501 16.68 14.1201 15.25 12.0001 15.25Z" fill="black"/>
<path d="M7.75008 16C7.75008 15.59 7.41008 15.25 7.00008 15.25C5.48008 15.25 4.16008 16.28 3.79008 17.76L3.53008 18.82C3.43008 19.22 3.67008 19.63 4.08008 19.73C4.14008 19.75 4.20008 19.75 4.26008 19.75C4.60008 19.75 4.90008 19.52 4.99008 19.18L5.25008 18.12C5.45008 17.31 6.17008 16.75 7.01008 16.75C7.42008 16.75 7.76008 16.41 7.76008 16H7.75008Z" fill="black"/>
<path d="M20.4801 18.82L20.2201 17.76C19.8501 16.28 18.5301 15.25 17.0101 15.25C16.6001 15.25 16.2601 15.59 16.2601 16C16.2601 16.41 16.6001 16.75 17.0101 16.75C17.8401 16.75 18.5701 17.31 18.7701 18.12L19.0301 19.18C19.1101 19.52 19.4201 19.75 19.7601 19.75C19.8201 19.75 19.8801 19.75 19.9401 19.73C20.3401 19.63 20.5901 19.22 20.4901 18.82H20.4801Z" fill="black"/>
</svg>
