<svg width="24" height="24" viewBox="0 0 24 24" fill="none" xmlns="http://www.w3.org/2000/svg">
<path d="M12 13.2495C13.2427 13.2495 14.25 12.2421 14.25 10.9995C14.25 9.75681 13.2427 8.74945 12 8.74945C10.7574 8.74945 9.75001 9.75681 9.75001 10.9995C9.75001 12.2421 10.7574 13.2495 12 13.2495Z" fill="black"/>
<path d="M19.92 8.20945L14.92 4.31945C13.2 2.97945 10.8 2.97945 9.09001 4.31945L4.09001 8.20945C2.92001 9.11945 2.26001 10.4795 2.26001 11.9595V16.9995C2.26001 19.6195 4.39001 21.7495 7.01001 21.7495H17.01C19.63 21.7495 21.76 19.6195 21.76 16.9995V11.9595C21.76 10.4795 21.09 9.11945 19.93 8.20945H19.92ZM12 7.24945C14.07 7.24945 15.75 8.92945 15.75 10.9995C15.75 13.0695 14.07 14.7495 12 14.7495C9.93001 14.7495 8.25001 13.0695 8.25001 10.9995C8.25001 8.92945 9.93001 7.24945 12 7.24945ZM17.92 18.7595C17.84 18.7895 17.76 18.7995 17.68 18.7995C17.37 18.7995 17.07 18.5995 16.97 18.2895C16.66 17.3695 15.81 16.7495 14.84 16.7495H9.16001C8.19001 16.7495 7.33001 17.3695 7.03001 18.2895C6.90001 18.6795 6.48001 18.8895 6.08001 18.7595C5.69001 18.6295 5.47001 18.1995 5.61001 17.8095C6.12001 16.2795 7.55001 15.2495 9.17001 15.2495H14.85C16.47 15.2495 17.9 16.2795 18.41 17.8095C18.54 18.1995 18.33 18.6295 17.94 18.7595H17.92Z" fill="black"/>
</svg>
