<svg width="24" height="24" viewBox="0 0 24 24" fill="none" xmlns="http://www.w3.org/2000/svg">
<path d="M11.0001 12.75C13.6201 12.75 15.7501 10.62 15.7501 8C15.7501 5.38 13.6201 3.25 11.0001 3.25C8.38008 3.25 6.25008 5.38 6.25008 8C6.25008 10.62 8.38008 12.75 11.0001 12.75ZM11.0001 4.75C12.7901 4.75 14.2501 6.21 14.2501 8C14.2501 9.79 12.7901 11.25 11.0001 11.25C9.21008 11.25 7.75008 9.79 7.75008 8C7.75008 6.21 9.21008 4.75 11.0001 4.75Z" fill="black"/>
<path d="M21.0001 12.81L19.9101 11.72C19.1501 10.96 17.9001 10.95 17.1301 11.72L14.5801 14.27C14.5801 14.27 14.5201 14.25 14.4901 14.25H8.01008C5.43008 14.25 3.19008 16 2.57008 18.5L2.28008 19.68C2.18008 20.08 2.42008 20.49 2.83008 20.59C2.89008 20.61 2.95008 20.61 3.01008 20.61C3.35008 20.61 3.65008 20.38 3.74008 20.04L4.03008 18.86C4.49008 17.03 6.13008 15.75 8.01008 15.75H13.1001C12.8201 16.03 12.6401 16.38 12.5601 16.77L11.9801 19.86C11.9301 20.1 12.0101 20.36 12.1901 20.53C12.3301 20.67 12.5201 20.75 12.7201 20.75C12.7701 20.75 12.8101 20.75 12.8601 20.74L15.9501 20.16C16.3401 20.09 16.6901 19.9 16.9701 19.62L20.9901 15.6C21.7601 14.83 21.7601 13.59 20.9901 12.82L21.0001 12.81ZM19.9401 14.53L15.9201 18.55C15.8501 18.62 15.7701 18.66 15.6801 18.68L13.6701 19.06L14.0501 17.04C14.0701 16.95 14.1101 16.87 14.1801 16.8L18.2001 12.78C18.2901 12.69 18.4101 12.64 18.5301 12.64C18.6501 12.64 18.7701 12.68 18.8601 12.78L19.9501 13.87C20.1301 14.05 20.1301 14.35 19.9501 14.53H19.9401Z" fill="black"/>
</svg>
