<svg width="24" height="24" viewBox="0 0 24 24" fill="none" xmlns="http://www.w3.org/2000/svg">
<path d="M11.5 12.75C13.84 12.75 15.75 10.84 15.75 8.5C15.75 6.16 13.84 4.25 11.5 4.25C9.16 4.25 7.25 6.16 7.25 8.5C7.25 10.84 9.16 12.75 11.5 12.75ZM11.5 5.75C13.02 5.75 14.25 6.98 14.25 8.5C14.25 10.02 13.02 11.25 11.5 11.25C9.98 11.25 8.75 10.02 8.75 8.5C8.75 6.98 9.98 5.75 11.5 5.75Z" fill="black"/>
<path d="M17.92 16.06C16.58 15.24 14.38 14.25 11.5 14.25C8.62 14.25 6.42 15.23 5.07 16.06C4.55 16.38 4.25 16.92 4.25 17.52V21.01C4.25 21.97 5.07 22.76 6.08 22.76H16.91C17.92 22.76 18.74 21.97 18.74 21.01V17.53C18.74 16.93 18.43 16.39 17.91 16.07L17.92 16.06ZM17.25 21C17.25 21.14 17.1 21.25 16.92 21.25H6.08C5.9 21.25 5.75 21.14 5.75 21V17.51C5.75 17.44 5.79 17.37 5.86 17.33C7.04 16.61 8.97 15.75 11.5 15.75C14.03 15.75 15.96 16.61 17.14 17.33C17.21 17.37 17.25 17.44 17.25 17.52V21Z" fill="black"/>
<path d="M19 9.25C18.59 9.25 18.25 9.59 18.25 10V11C18.25 11.69 17.69 12.25 17 12.25H16C15.59 12.25 15.25 12.59 15.25 13C15.25 13.41 15.59 13.75 16 13.75H17C18.52 13.75 19.75 12.52 19.75 11V10C19.75 9.59 19.41 9.25 19 9.25Z" fill="black"/>
<path d="M17 2.25H16C15.59 2.25 15.25 2.59 15.25 3C15.25 3.41 15.59 3.75 16 3.75H17C17.69 3.75 18.25 4.31 18.25 5V6C18.25 6.41 18.59 6.75 19 6.75C19.41 6.75 19.75 6.41 19.75 6V5C19.75 3.48 18.52 2.25 17 2.25Z" fill="black"/>
<path d="M4 6.75C4.41 6.75 4.75 6.41 4.75 6V5C4.75 4.31 5.31 3.75 6 3.75H7C7.41 3.75 7.75 3.41 7.75 3C7.75 2.59 7.41 2.25 7 2.25H6C4.48 2.25 3.25 3.48 3.25 5V6C3.25 6.41 3.59 6.75 4 6.75Z" fill="black"/>
<path d="M7 13.75C7.41 13.75 7.75 13.41 7.75 13C7.75 12.59 7.41 12.25 7 12.25H6C5.31 12.25 4.75 11.69 4.75 11V10C4.75 9.59 4.41 9.25 4 9.25C3.59 9.25 3.25 9.59 3.25 10V11C3.25 12.52 4.48 13.75 6 13.75H7Z" fill="black"/>
</svg>
