<svg width="24" height="24" viewBox="0 0 24 24" fill="none" xmlns="http://www.w3.org/2000/svg">
<path d="M21.18 13.1403L16.35 5.42025C15.6 4.21025 14.25 3.54025 12.83 3.67025L8.55 4.06025C7.83 4.13025 7.19 4.48025 6.74 4.99025C5.94 4.55025 5.17 4.04025 4.5 3.44025C4.17 3.15025 3.86 2.83025 3.56 2.50025C3.56 2.50025 3.55 2.50025 3.54 2.49025C3.5 2.45025 3.45 2.42025 3.4 2.39025C3.37 2.37025 3.34 2.34025 3.3 2.32025C3.26 2.30025 3.22 2.30025 3.17 2.29025C3.12 2.28025 3.07 2.26025 3.01 2.26025C3.01 2.26025 3 2.26025 2.99 2.26025C2.95 2.26025 2.92 2.28025 2.88 2.28025C2.83 2.28025 2.77 2.29025 2.72 2.31025C2.67 2.33025 2.62 2.36025 2.58 2.39025C2.55 2.41025 2.52 2.42025 2.49 2.44025C2.49 2.44025 2.49 2.45025 2.48 2.46025C2.44 2.50025 2.41 2.55025 2.38 2.60025C2.36 2.63025 2.33 2.66025 2.31 2.70025C2.29 2.74025 2.29 2.78025 2.28 2.83025C2.27 2.88025 2.25 2.93025 2.25 2.99025C2.25 2.99025 2.25 3.00025 2.25 3.01025V21.0003C2.25 21.4103 2.59 21.7503 3 21.7503C3.41 21.7503 3.75 21.4103 3.75 21.0003V4.77025C4.47 5.38025 5.25 5.92025 6.09 6.37025C6.09 6.43025 6.06 6.49025 6.06 6.55025L5.67 10.8303C5.54 12.2503 6.21 13.6003 7.42 14.3503L15.14 19.1803C15.76 19.5703 16.45 19.7503 17.13 19.7503C18.1 19.7503 19.05 19.3703 19.78 18.6503L20.65 17.7803C21.89 16.5403 22.11 14.6303 21.18 13.1403ZM9.08 12.0703C8.79 12.0703 8.51 11.9003 8.39 11.6103C8.23 11.2303 8.4 10.7903 8.79 10.6303C9.65 10.2603 10.42 9.74025 11.08 9.08025C11.73 8.43025 12.27 7.64025 12.63 6.79025C12.79 6.41025 13.23 6.23025 13.61 6.39025C13.99 6.55025 14.17 6.99025 14.01 7.37025C13.57 8.41025 12.94 9.34025 12.14 10.1403C11.34 10.9403 10.41 11.5703 9.37 12.0103C9.27 12.0503 9.17 12.0703 9.08 12.0703ZM14.81 12.8103C14.26 13.3603 13.63 13.8003 12.93 14.1203C12.83 14.1703 12.72 14.1903 12.62 14.1903C12.34 14.1903 12.07 14.0303 11.94 13.7503C11.77 13.3703 11.94 12.9303 12.31 12.7503C12.85 12.5003 13.34 12.1603 13.76 11.7403C14.18 11.3203 14.52 10.8303 14.77 10.2903C14.94 9.91025 15.39 9.75025 15.77 9.92025C16.15 10.0903 16.31 10.5403 16.14 10.9203C15.81 11.6203 15.37 12.2603 14.83 12.8003L14.81 12.8103ZM18.09 14.6803L16.68 16.0903C16.53 16.2403 16.34 16.3103 16.15 16.3103C15.96 16.3103 15.77 16.2403 15.62 16.0903C15.33 15.8003 15.33 15.3203 15.62 15.0303L17.03 13.6203C17.32 13.3303 17.8 13.3303 18.09 13.6203C18.38 13.9103 18.38 14.3903 18.09 14.6803Z" fill="black"/>
</svg>
