<svg width="24" height="24" viewBox="0 0 24 24" fill="none" xmlns="http://www.w3.org/2000/svg">
<path d="M18.63 12.26C18.06 9.36 15.53 7.25 12.5 7.25C9.89 7.25 7.57 8.9 6.67 11.31C6.45 11.27 6.23 11.25 6 11.25C3.93 11.25 2.25 12.93 2.25 15C2.25 17.07 3.93 18.75 6 18.75H18.5C20.29 18.75 21.75 17.29 21.75 15.5C21.75 13.71 20.36 12.33 18.63 12.26ZM18.5 17.25H6C4.76 17.25 3.75 16.24 3.75 15C3.75 13.76 4.76 12.75 6 12.75C6.26 12.75 6.51 12.79 6.75 12.88C7.05 12.99 7.37 12.88 7.57 12.66C7.74 12.57 7.88 12.41 7.93 12.21C8.51 10.18 10.39 8.76 12.5 8.76C14.98 8.76 17.01 10.62 17.23 13.08C17.27 13.47 17.59 13.76 17.98 13.76C18 13.76 18.03 13.76 18.05 13.76C18.11 13.76 18.17 13.73 18.23 13.71C18.32 13.74 18.41 13.77 18.51 13.77C19.47 13.77 20.26 14.56 20.26 15.52C20.26 16.48 19.47 17.27 18.51 17.27L18.5 17.25Z" fill="black"/>
</svg>
