<svg width="24" height="24" viewBox="0 0 24 24" fill="none" xmlns="http://www.w3.org/2000/svg">
<path d="M18.63 11.26C18.06 8.36 15.53 6.25 12.5 6.25C9.89 6.25 7.57 7.9 6.67 10.31C6.45 10.27 6.23 10.25 6 10.25C3.93 10.25 2.25 11.93 2.25 14C2.25 16.07 3.93 17.75 6 17.75H8C8.41 17.75 8.75 17.41 8.75 17C8.75 16.59 8.41 16.25 8 16.25H6C4.76 16.25 3.75 15.24 3.75 14C3.75 12.76 4.76 11.75 6 11.75C6.26 11.75 6.51 11.79 6.75 11.88C7.05 11.99 7.37 11.88 7.57 11.66C7.74 11.57 7.88 11.41 7.93 11.21C8.51 9.18 10.39 7.76 12.5 7.76C14.97 7.76 17.01 9.62 17.23 12.08C17.27 12.47 17.59 12.76 17.98 12.76C18 12.76 18.03 12.76 18.05 12.76C18.11 12.76 18.17 12.73 18.23 12.71C18.32 12.74 18.41 12.77 18.51 12.77C19.47 12.77 20.26 13.56 20.26 14.52C20.26 15.48 19.47 16.27 18.51 16.27C18.42 16.27 18.34 16.29 18.26 16.32C18.18 16.29 18.1 16.27 18.01 16.27H13.32L13.71 15.3C13.8 15.07 13.77 14.81 13.63 14.6C13.49 14.39 13.26 14.27 13.01 14.27H11.22L12.68 11.36C12.87 10.99 12.72 10.54 12.34 10.35C11.97 10.17 11.52 10.32 11.33 10.69L9.33 14.69C9.21 14.92 9.23 15.2 9.36 15.42C9.5 15.64 9.74 15.78 10 15.78H11.89L10.3 19.75C10.15 20.13 10.33 20.57 10.72 20.72C10.81 20.76 10.91 20.77 11 20.77C11.3 20.77 11.58 20.59 11.7 20.3L12.71 17.77H18C18.09 17.77 18.17 17.75 18.25 17.72C18.33 17.75 18.41 17.77 18.5 17.77C20.29 17.77 21.75 16.31 21.75 14.52C21.75 12.73 20.36 11.35 18.63 11.28V11.26Z" fill="black"/>
</svg>
