<svg width="24" height="24" viewBox="0 0 24 24" fill="none" xmlns="http://www.w3.org/2000/svg">
<path d="M4.08008 12.6199C5.24008 13.3999 6.75008 13.3999 7.91008 12.6199C8.57008 12.1799 9.42008 12.1799 10.0801 12.6199C11.2401 13.3999 12.7501 13.3999 13.9101 12.6199C14.5701 12.1799 15.4201 12.1799 16.0801 12.6199C16.6601 13.0099 17.3301 13.1999 18.0001 13.1999C18.6701 13.1999 19.3301 13.0099 19.9201 12.6199L21.4201 11.6199C21.7601 11.3899 21.8601 10.9199 21.6301 10.5799C21.4001 10.2399 20.9401 10.1399 20.5901 10.3699L19.0901 11.3699C18.4301 11.8099 17.5801 11.8099 16.9201 11.3699C15.7601 10.5899 14.2501 10.5899 13.0901 11.3699C12.4301 11.8099 11.5801 11.8099 10.9201 11.3699C9.76009 10.5899 8.25008 10.5899 7.09008 11.3699C6.43008 11.8099 5.58008 11.8099 4.92008 11.3699L3.42008 10.3699C3.07008 10.1399 2.61008 10.2299 2.38008 10.5799C2.15008 10.9299 2.24008 11.3899 2.59008 11.6199L4.09008 12.6199H4.08008Z" fill="black"/>
<path d="M20.5801 14.9199L19.0801 15.9199C18.4201 16.3599 17.5701 16.3599 16.9101 15.9199C15.7501 15.1399 14.2401 15.1399 13.0801 15.9199C12.4201 16.3599 11.5701 16.3599 10.9101 15.9199C9.75008 15.1399 8.24008 15.1399 7.08008 15.9199C6.42008 16.3599 5.57008 16.3599 4.91008 15.9199L3.41008 14.9199C3.06008 14.6899 2.60008 14.7799 2.37008 15.1299C2.14008 15.4799 2.23008 15.9399 2.58008 16.1699L4.08008 17.1699C5.24008 17.9499 6.75008 17.9499 7.91008 17.1699C8.57008 16.7299 9.42008 16.7299 10.0801 17.1699C11.2401 17.9499 12.7501 17.9499 13.9101 17.1699C14.5701 16.7299 15.4201 16.7299 16.0801 17.1699C16.6601 17.5599 17.3301 17.7499 18.0001 17.7499C18.6701 17.7499 19.3301 17.5599 19.9201 17.1699L21.4201 16.1699C21.7601 15.9399 21.8601 15.4699 21.6301 15.1299C21.4001 14.7899 20.9401 14.6899 20.5901 14.9199H20.5801Z" fill="black"/>
<path d="M20.5801 18.9199L19.0801 19.9199C18.4201 20.3599 17.5701 20.3599 16.9101 19.9199C15.7501 19.1399 14.2401 19.1399 13.0801 19.9199C12.4201 20.3599 11.5701 20.3599 10.9101 19.9199C9.75008 19.1399 8.24008 19.1399 7.08008 19.9199C6.42008 20.3599 5.57008 20.3599 4.91008 19.9199L3.41008 18.9199C3.06008 18.6899 2.60008 18.7799 2.37008 19.1299C2.14008 19.4799 2.23008 19.9399 2.58008 20.1699L4.08008 21.1699C5.24008 21.9499 6.75008 21.9499 7.91008 21.1699C8.57008 20.7299 9.42008 20.7299 10.0801 21.1699C11.2401 21.9499 12.7501 21.9499 13.9101 21.1699C14.5701 20.7299 15.4201 20.7299 16.0801 21.1699C16.6601 21.5599 17.3301 21.7499 18.0001 21.7499C18.6701 21.7499 19.3301 21.5599 19.9201 21.1699L21.4201 20.1699C21.7601 19.9399 21.8601 19.4699 21.6301 19.1299C21.4001 18.7899 20.9401 18.6899 20.5901 18.9199H20.5801Z" fill="black"/>
<path d="M9.53008 6.52994L11.2501 4.80994V8.99994C11.2501 9.40994 11.5901 9.74994 12.0001 9.74994C12.4101 9.74994 12.7501 9.40994 12.7501 8.99994V4.80994L14.4701 6.52994C14.6201 6.67994 14.8101 6.74994 15.0001 6.74994C15.1901 6.74994 15.3801 6.67994 15.5301 6.52994C15.8201 6.23994 15.8201 5.75994 15.5301 5.46994L12.5301 2.46994C12.2401 2.17994 11.7601 2.17994 11.4701 2.46994L8.47009 5.46994C8.18009 5.75994 8.18009 6.23994 8.47009 6.52994C8.76009 6.81994 9.24008 6.81994 9.53008 6.52994Z" fill="black"/>
</svg>
