<svg width="24" height="24" viewBox="0 0 24 24" fill="none" xmlns="http://www.w3.org/2000/svg">
<path d="M16.1 14.6C15.87 14.2 15.75 13.8 15.75 13.41V6C15.75 3.93 14.07 2.25 12 2.25C9.93 2.25 8.25 3.93 8.25 6V13.41C8.25 13.8 8.13 14.21 7.91 14.58C7.48 15.31 7.25 16.15 7.25 17C7.25 18.45 7.9 19.81 9.04 20.72C9.89 21.4 10.93 21.75 12.01 21.75C12.38 21.75 12.75 21.71 13.11 21.62C14.84 21.22 16.26 19.79 16.64 18.05C16.9 16.85 16.71 15.63 16.1 14.6ZM11.25 6C11.25 5.59 11.59 5.25 12 5.25C12.41 5.25 12.75 5.59 12.75 6V15C12.75 15.41 12.41 15.75 12 15.75C11.59 15.75 11.25 15.41 11.25 15V6ZM12.02 18.75C11.61 18.75 11.27 18.41 11.27 18C11.27 17.59 11.6 17.25 12.01 17.25H12.02C12.43 17.25 12.77 17.59 12.77 18C12.77 18.41 12.43 18.75 12.02 18.75Z" fill="black"/>
</svg>
