<svg width="24" height="24" viewBox="0 0 24 24" fill="none" xmlns="http://www.w3.org/2000/svg">
<path d="M18.63 7.26C18.06 4.36 15.53 2.25 12.5 2.25C9.89 2.25 7.57 3.9 6.67 6.31C6.45 6.27 6.23 6.25 6 6.25C3.93 6.25 2.25 7.93 2.25 10C2.25 12.07 3.93 13.75 6 13.75H18.5C20.29 13.75 21.75 12.29 21.75 10.5C21.75 8.71 20.36 7.33 18.63 7.26Z" fill="black"/>
<path d="M18 15.25H14C13.59 15.25 13.25 15.59 13.25 16C13.25 16.41 13.59 16.75 14 16.75H18C18.14 16.75 18.25 16.86 18.25 17C18.25 17.14 18.14 17.25 18 17.25H17C16.59 17.25 16.25 17.59 16.25 18C16.25 18.41 16.59 18.75 17 18.75H18C18.96 18.75 19.75 17.96 19.75 17C19.75 16.04 18.96 15.25 18 15.25Z" fill="black"/>
<path d="M5 16.75H10C10.41 16.75 10.75 16.41 10.75 16C10.75 15.59 10.41 15.25 10 15.25H5C4.59 15.25 4.25 15.59 4.25 16C4.25 16.41 4.59 16.75 5 16.75Z" fill="black"/>
<path d="M13 18.25H5C4.59 18.25 4.25 18.59 4.25 19C4.25 19.41 4.59 19.75 5 19.75H13C13.14 19.75 13.25 19.86 13.25 20C13.25 20.14 13.14 20.25 13 20.25H12C11.59 20.25 11.25 20.59 11.25 21C11.25 21.41 11.59 21.75 12 21.75H13C13.96 21.75 14.75 20.96 14.75 20C14.75 19.04 13.96 18.25 13 18.25Z" fill="black"/>
</svg>
