<svg width="24" height="24" viewBox="0 0 24 24" fill="none" xmlns="http://www.w3.org/2000/svg">
<path d="M18.63 9.29027C18.05 6.39027 15.53 4.28027 12.5 4.28027C9.89 4.28027 7.57 5.93027 6.67 8.34027C6.45 8.30027 6.23 8.28027 6 8.28027C3.93 8.28027 2.25 9.96027 2.25 12.0303C2.25 14.1003 3.93 15.7803 6 15.7803H8C8.41 15.7803 8.75 15.4403 8.75 15.0303C8.75 14.6203 8.41 14.2803 8 14.2803H6C4.76 14.2803 3.75 13.2703 3.75 12.0303C3.75 10.7903 4.76 9.78027 6 9.78027C6.26 9.78027 6.51 9.82027 6.75 9.91027C7.05 10.0203 7.37 9.91027 7.57 9.69027C7.74 9.60027 7.88 9.44027 7.93 9.24027C8.51 7.21027 10.39 5.79027 12.5 5.79027C14.97 5.79027 17.01 7.65027 17.23 10.1103C17.27 10.5003 17.59 10.7903 17.98 10.7903C18 10.7903 18.03 10.7903 18.05 10.7903C18.11 10.7903 18.17 10.7603 18.23 10.7403C18.32 10.7703 18.41 10.8003 18.51 10.8003C19.47 10.8003 20.26 11.5903 20.26 12.5503C20.26 13.5103 19.47 14.3003 18.51 14.3003H15.75L15.72 14.2003C15.09 12.4403 13.86 11.6503 13.36 11.3903C13.14 11.2803 12.88 11.2803 12.67 11.3903C12.17 11.6503 10.94 12.4503 10.31 14.2003L10.26 14.3503C9.9 15.4503 10.08 16.6603 10.75 17.5803C11.31 18.3503 12.14 18.8003 13.01 18.8003C13.88 18.8003 14.71 18.3603 15.27 17.5803C15.65 17.0603 15.85 16.4403 15.91 15.8003H18.5C20.29 15.8003 21.75 14.3403 21.75 12.5503C21.75 10.7603 20.36 9.38027 18.63 9.31027V9.29027ZM14.05 16.6803C13.89 16.9003 13.54 17.2803 13 17.2803C12.46 17.2803 12.11 16.9003 11.95 16.6803C11.57 16.1503 11.46 15.4303 11.67 14.7903L11.71 14.6803C12.04 13.7403 12.6 13.2003 13 12.9103C13.4 13.2003 13.96 13.7503 14.29 14.6903L14.33 14.8003C14.54 15.4403 14.43 16.1603 14.05 16.6903V16.6803Z" fill="black"/>
</svg>
