<svg width="24" height="24" viewBox="0 0 24 24" fill="none" xmlns="http://www.w3.org/2000/svg">
<path d="M18.63 8.26C18.06 5.36 15.53 3.25 12.5 3.25C9.89 3.25 7.57 4.9 6.67 7.31C6.45 7.27 6.23 7.25 6 7.25C3.93 7.25 2.25 8.93 2.25 11C2.25 13.07 3.93 14.75 6 14.75H18.5C20.29 14.75 21.75 13.29 21.75 11.5C21.75 9.71 20.36 8.33 18.63 8.26Z" fill="black"/>
<path d="M12.02 16.25C11.61 16.25 11.27 16.59 11.27 17C11.27 17.41 11.61 17.75 12.02 17.75C12.43 17.75 12.77 17.41 12.77 17C12.77 16.59 12.44 16.25 12.02 16.25Z" fill="black"/>
<path d="M14.02 18.25C13.61 18.25 13.27 18.59 13.27 19C13.27 19.41 13.61 19.75 14.02 19.75C14.43 19.75 14.77 19.41 14.77 19C14.77 18.59 14.44 18.25 14.02 18.25Z" fill="black"/>
<path d="M16.02 16.25C15.61 16.25 15.27 16.59 15.27 17C15.27 17.41 15.61 17.75 16.02 17.75C16.43 17.75 16.77 17.41 16.77 17C16.77 16.59 16.44 16.25 16.02 16.25Z" fill="black"/>
<path d="M10.02 18.25C9.61 18.25 9.27 18.59 9.27 19C9.27 19.41 9.61 19.75 10.02 19.75C10.43 19.75 10.77 19.41 10.77 19C10.77 18.59 10.44 18.25 10.02 18.25Z" fill="black"/>
<path d="M8.02 16.25C7.61 16.25 7.27 16.59 7.27 17C7.27 17.41 7.61 17.75 8.02 17.75C8.43 17.75 8.77 17.41 8.77 17C8.77 16.59 8.44 16.25 8.02 16.25Z" fill="black"/>
<path d="M18.02 18.25C17.61 18.25 17.27 18.59 17.27 19C17.27 19.41 17.61 19.75 18.02 19.75C18.43 19.75 18.77 19.41 18.77 19C18.77 18.59 18.44 18.25 18.02 18.25Z" fill="black"/>
<path d="M6.02 18.25C5.61 18.25 5.27 18.59 5.27 19C5.27 19.41 5.61 19.75 6.02 19.75C6.43 19.75 6.77 19.41 6.77 19C6.77 18.59 6.44 18.25 6.02 18.25Z" fill="black"/>
</svg>
