<svg width="24" height="24" viewBox="0 0 24 24" fill="none" xmlns="http://www.w3.org/2000/svg">
<path d="M13 14.25H11.21L12.67 11.34C12.86 10.97 12.71 10.52 12.33 10.33C11.96 10.15 11.51 10.3 11.32 10.67L9.32 14.67C9.2 14.9 9.22 15.18 9.35 15.4C9.49 15.62 9.73 15.76 9.99 15.76H11.88L10.29 19.73C10.14 20.11 10.32 20.55 10.71 20.7C10.8 20.74 10.9 20.75 10.99 20.75C11.29 20.75 11.57 20.57 11.69 20.28L13.69 15.28C13.78 15.05 13.75 14.79 13.61 14.58C13.47 14.37 13.24 14.25 12.99 14.25H13Z" fill="black"/>
<path d="M18.63 11.26C18.06 8.36 15.53 6.25 12.5 6.25C9.89 6.25 7.57 7.9 6.67 10.31C6.45 10.27 6.23 10.25 6 10.25C3.93 10.25 2.25 11.93 2.25 14C2.25 16.07 3.93 17.75 6 17.75H9.48L9.69 17.23C9.03 17.14 8.45 16.76 8.09 16.19C7.68 15.52 7.64 14.7 7.99 14L9.99 10C10.38 9.23 11.15 8.76 12 8.76C12.34 8.76 12.69 8.84 13 8.99C13.54 9.26 13.94 9.72 14.13 10.29C14.32 10.86 14.28 11.47 14.01 12.01L13.6 12.83C14.11 12.97 14.56 13.29 14.86 13.74C15.28 14.36 15.36 15.14 15.08 15.84L14.32 17.75H18.5C20.29 17.75 21.75 16.29 21.75 14.5C21.75 12.71 20.36 11.33 18.63 11.26Z" fill="black"/>
</svg>
