<svg width="24" height="24" viewBox="0 0 24 24" fill="none" xmlns="http://www.w3.org/2000/svg">
<path d="M21.7399 13.6097C21.6199 13.2097 21.1999 12.9897 20.8099 13.0997L17.3399 14.0997L15.2499 12.9397V10.9897L17.2899 9.81969L20.7599 10.8997C20.8299 10.9197 20.9099 10.9297 20.9799 10.9297C21.2999 10.9297 21.5999 10.7197 21.6999 10.3997C21.8199 9.99969 21.5999 9.57969 21.2099 9.45969L19.0599 8.78969L20.1699 8.14969C20.5299 7.93969 20.6499 7.47969 20.4499 7.12969C20.2399 6.76969 19.7799 6.64969 19.4299 6.85969L18.3999 7.44969L19.0299 5.09969C19.1399 4.69969 18.8999 4.28969 18.4999 4.17969C18.0999 4.06969 17.6899 4.30969 17.5799 4.70969L16.5599 8.50969L14.5099 9.68969L12.7599 8.67969V6.08969L15.5199 3.55969C15.8299 3.27969 15.8499 2.80969 15.5599 2.49969C15.2799 2.19969 14.7999 2.17969 14.4999 2.45969L12.7599 4.05969V3.00969C12.7599 2.59969 12.4199 2.25969 12.0099 2.25969C11.5999 2.25969 11.2599 2.59969 11.2599 3.00969V4.13969L9.52993 2.46969C9.22993 2.17969 8.75993 2.18969 8.46993 2.48969C8.17993 2.78969 8.18993 3.25969 8.48993 3.54969L11.2599 6.21969V8.68969L9.44993 9.72969L7.19993 8.47969L6.31993 4.83969C6.21993 4.43969 5.81993 4.18969 5.40993 4.28969C5.00993 4.38969 4.75993 4.78969 4.85993 5.19969L5.41993 7.49969L4.49993 6.98969C4.13993 6.78969 3.67993 6.91969 3.47993 7.27969C3.27993 7.63969 3.40993 8.09969 3.76993 8.29969L4.75993 8.84969L2.75993 9.46969C2.35993 9.58969 2.13993 10.0097 2.26993 10.4097C2.36993 10.7297 2.66993 10.9397 2.98993 10.9397C3.05993 10.9397 3.13993 10.9297 3.20993 10.9097L6.56993 9.85969L8.74993 11.0697V13.0197L6.51993 14.2997L3.26993 13.1197C2.87993 12.9797 2.44993 13.1797 2.30993 13.5697C2.16993 13.9597 2.36993 14.3897 2.75993 14.5297L4.82993 15.2797L3.82993 15.8497C3.46993 16.0597 3.34993 16.5197 3.54993 16.8697C3.68993 17.1097 3.93993 17.2497 4.19993 17.2497C4.32993 17.2497 4.45993 17.2197 4.56993 17.1497L5.54993 16.5897L4.96993 18.9197C4.86993 19.3197 5.11993 19.7297 5.51993 19.8297C5.57993 19.8497 5.63993 19.8497 5.69993 19.8497C6.03993 19.8497 6.33993 19.6197 6.42993 19.2797L7.35993 15.5497L9.49993 14.3197L11.2499 15.3297V17.6997L8.46993 20.4797C8.17993 20.7697 8.17993 21.2497 8.46993 21.5397C8.75993 21.8297 9.23993 21.8297 9.52993 21.5397L11.2499 19.8197V21.0097C11.2499 21.4197 11.5899 21.7597 11.9999 21.7597C12.4099 21.7597 12.7499 21.4197 12.7499 21.0097V19.8197L14.4699 21.5397C14.6199 21.6897 14.8099 21.7597 14.9999 21.7597C15.1899 21.7597 15.3799 21.6897 15.5299 21.5397C15.8199 21.2497 15.8199 20.7697 15.5299 20.4797L12.7499 17.6997V15.3297L14.5599 14.2897L16.6099 15.4297L17.6899 19.2097C17.7799 19.5397 18.0799 19.7497 18.4099 19.7497C18.4799 19.7497 18.5499 19.7497 18.6199 19.7197C19.0199 19.6097 19.2499 19.1897 19.1299 18.7897L18.4599 16.4497L19.4999 17.0297C19.6099 17.0897 19.7399 17.1197 19.8599 17.1197C20.1199 17.1197 20.3799 16.9797 20.5199 16.7297C20.7199 16.3697 20.5899 15.9097 20.2299 15.7097L19.1799 15.1297L21.2099 14.5397C21.6099 14.4197 21.8399 14.0097 21.7199 13.6097H21.7399Z" fill="black"/>
</svg>
