<svg width="24" height="24" viewBox="0 0 24 24" fill="none" xmlns="http://www.w3.org/2000/svg">
<path d="M18.63 13.2603C18.52 12.7103 18.34 12.1903 18.1 11.7003C19.49 11.5003 20.73 10.6103 21.34 9.32025C21.46 9.07025 21.43 8.77025 21.26 8.55025C21.09 8.33025 20.81 8.22025 20.54 8.26025C19.61 8.42025 18.69 8.07025 18.15 7.36025C17.52 6.53025 17.51 5.33025 18.12 4.43025C18.28 4.20025 18.29 3.90025 18.16 3.66025C18.03 3.41025 17.77 3.26025 17.5 3.26025C15.16 3.26025 13.25 5.17025 13.25 7.51025C13.25 7.79025 13.29 8.06025 13.34 8.32025C13.07 8.28025 12.79 8.26025 12.5 8.26025C9.89 8.26025 7.57 9.91025 6.67 12.3203C6.45 12.2803 6.23 12.2603 6 12.2603C3.93 12.2603 2.25 13.9403 2.25 16.0103C2.25 18.0803 3.93 19.7603 6 19.7603H18.5C20.29 19.7603 21.75 18.3003 21.75 16.5103C21.75 14.7203 20.36 13.3403 18.63 13.2703V13.2603ZM14.75 7.50025C14.75 6.44025 15.36 5.51025 16.25 5.05025C16.01 6.17025 16.25 7.34025 16.96 8.27025C17.51 8.99025 18.29 9.48025 19.17 9.69025C18.7 10.0503 18.12 10.2503 17.51 10.2503C17.39 10.2503 17.28 10.2803 17.18 10.3303C16.6 9.68025 15.9 9.16025 15.1 8.81025C14.88 8.41025 14.76 7.96025 14.76 7.50025H14.75ZM18.5 18.2503H6C4.76 18.2503 3.75 17.2403 3.75 16.0003C3.75 14.7603 4.76 13.7503 6 13.7503C6.26 13.7503 6.51 13.7903 6.75 13.8803C7.05 13.9903 7.37 13.8803 7.57 13.6603C7.74 13.5703 7.88 13.4103 7.93 13.2103C8.51 11.1803 10.39 9.76025 12.5 9.76025C14.98 9.76025 17.01 11.6203 17.23 14.0803C17.27 14.4703 17.59 14.7603 17.98 14.7603C18 14.7603 18.03 14.7603 18.05 14.7603C18.11 14.7603 18.17 14.7303 18.23 14.7103C18.32 14.7403 18.41 14.7703 18.51 14.7703C19.47 14.7703 20.26 15.5603 20.26 16.5203C20.26 17.4803 19.47 18.2703 18.51 18.2703L18.5 18.2503Z" fill="black"/>
</svg>
