<svg width="24" height="24" viewBox="0 0 24 24" fill="none" xmlns="http://www.w3.org/2000/svg">
<path d="M12 11.75C9.11 11.75 6.75 14.11 6.75 17V17.75H9C9.41 17.75 9.75 17.41 9.75 17C9.75 15.76 10.76 14.75 12 14.75C13.24 14.75 14.25 15.76 14.25 17C14.25 17.41 14.59 17.75 15 17.75H17.25V17C17.25 14.11 14.89 11.75 12 11.75Z" fill="black"/>
<path d="M12 7.25C6.62 7.25 2.25 11.62 2.25 17C2.25 17.41 2.59 17.75 3 17.75H5.25V17C5.25 13.28 8.28 10.25 12 10.25C15.72 10.25 18.75 13.28 18.75 17V17.75H21C21.41 17.75 21.75 17.41 21.75 17C21.75 11.62 17.38 7.25 12 7.25Z" fill="black"/>
</svg>
