<svg width="24" height="24" viewBox="0 0 24 24" fill="none" xmlns="http://www.w3.org/2000/svg">
<path d="M12 6.25C8.83 6.25 6.25 8.83 6.25 12C6.25 15.17 8.83 17.75 12 17.75C15.17 17.75 17.75 15.17 17.75 12C17.75 8.83 15.17 6.25 12 6.25ZM12 16.25C9.66 16.25 7.75 14.34 7.75 12C7.75 9.66 9.66 7.75 12 7.75C14.34 7.75 16.25 9.66 16.25 12C16.25 14.34 14.34 16.25 12 16.25Z" fill="black"/>
<path d="M12 5.75C12.41 5.75 12.75 5.41 12.75 5V3C12.75 2.59 12.41 2.25 12 2.25C11.59 2.25 11.25 2.59 11.25 3V5C11.25 5.41 11.59 5.75 12 5.75Z" fill="black"/>
<path d="M12 18.25C11.59 18.25 11.25 18.59 11.25 19V21C11.25 21.41 11.59 21.75 12 21.75C12.41 21.75 12.75 21.41 12.75 21V19C12.75 18.59 12.41 18.25 12 18.25Z" fill="black"/>
<path d="M21 11.25H19C18.59 11.25 18.25 11.59 18.25 12C18.25 12.41 18.59 12.75 19 12.75H21C21.41 12.75 21.75 12.41 21.75 12C21.75 11.59 21.41 11.25 21 11.25Z" fill="black"/>
<path d="M5.75 12C5.75 11.59 5.41 11.25 5 11.25H3C2.59 11.25 2.25 11.59 2.25 12C2.25 12.41 2.59 12.75 3 12.75H5C5.41 12.75 5.75 12.41 5.75 12Z" fill="black"/>
<path d="M5.47 7.53C5.62 7.68 5.81 7.75 6 7.75C6.19 7.75 6.38 7.68 6.53 7.53C6.82 7.24 6.82 6.76 6.53 6.47L5.12 5.06C4.83 4.77 4.35 4.77 4.06 5.06C3.77 5.35 3.77 5.83 4.06 6.12L5.47 7.53Z" fill="black"/>
<path d="M18 7.75C18.19 7.75 18.38 7.68 18.53 7.53L19.94 6.12C20.23 5.83 20.23 5.35 19.94 5.06C19.65 4.77 19.17 4.77 18.88 5.06L17.47 6.47C17.18 6.76 17.18 7.24 17.47 7.53C17.62 7.68 17.81 7.75 18 7.75Z" fill="black"/>
<path d="M5.47 16.47L4.06 17.88C3.77 18.17 3.77 18.65 4.06 18.94C4.21 19.09 4.4 19.16 4.59 19.16C4.78 19.16 4.97 19.09 5.12 18.94L6.53 17.53C6.82 17.24 6.82 16.76 6.53 16.47C6.24 16.18 5.76 16.18 5.47 16.47Z" fill="black"/>
<path d="M18.53 16.47C18.24 16.18 17.76 16.18 17.47 16.47C17.18 16.76 17.18 17.24 17.47 17.53L18.88 18.94C19.03 19.09 19.22 19.16 19.41 19.16C19.6 19.16 19.79 19.09 19.94 18.94C20.23 18.65 20.23 18.17 19.94 17.88L18.53 16.47Z" fill="black"/>
</svg>
