<svg width="24" height="24" viewBox="0 0 24 24" fill="none" xmlns="http://www.w3.org/2000/svg">
<path d="M18.63 8.8601C18.06 5.9601 15.53 3.8501 12.5 3.8501C9.89 3.8501 7.57 5.5001 6.67 7.9101C6.45 7.8701 6.23 7.8501 6 7.8501C3.93 7.8501 2.25 9.5301 2.25 11.6001C2.25 13.6701 3.93 15.3501 6 15.3501H18.5C20.29 15.3501 21.75 13.8901 21.75 12.1001C21.75 10.3101 20.36 8.9301 18.63 8.8601ZM18.5 13.8501H6C4.76 13.8501 3.75 12.8401 3.75 11.6001C3.75 10.3601 4.76 9.3501 6 9.3501C6.26 9.3501 6.51 9.3901 6.75 9.4801C7.05 9.5901 7.37 9.4801 7.57 9.2601C7.74 9.1701 7.88 9.0101 7.93 8.8101C8.51 6.7801 10.39 5.3601 12.5 5.3601C14.97 5.3601 17.01 7.2201 17.23 9.6801C17.27 10.0701 17.59 10.3601 17.98 10.3601C18 10.3601 18.03 10.3601 18.05 10.3601C18.11 10.3601 18.17 10.3301 18.23 10.3101C18.32 10.3401 18.41 10.3701 18.51 10.3701C19.47 10.3701 20.26 11.1601 20.26 12.1201C20.26 13.0801 19.47 13.8701 18.51 13.8701L18.5 13.8501Z" fill="black"/>
<path d="M10.47 17.0601L8.47 19.0601C8.18 19.3501 8.18 19.8301 8.47 20.1201C8.62 20.2701 8.81 20.3401 9 20.3401C9.19 20.3401 9.38 20.2701 9.53 20.1201L11.53 18.1201C11.82 17.8301 11.82 17.3501 11.53 17.0601C11.24 16.7701 10.76 16.7701 10.47 17.0601Z" fill="black"/>
<path d="M8.53 16.0601C8.24 15.7701 7.76 15.7701 7.47 16.0601L4.47 19.0601C4.18 19.3501 4.18 19.8301 4.47 20.1201C4.62 20.2701 4.81 20.3401 5 20.3401C5.19 20.3401 5.38 20.2701 5.53 20.1201L8.53 17.1201C8.82 16.8301 8.82 16.3501 8.53 16.0601Z" fill="black"/>
<path d="M15.53 16.0601C15.24 15.7701 14.76 15.7701 14.47 16.0601L12.47 18.0601C12.18 18.3501 12.18 18.8301 12.47 19.1201C12.62 19.2701 12.81 19.3401 13 19.3401C13.19 19.3401 13.38 19.2701 13.53 19.1201L15.53 17.1201C15.82 16.8301 15.82 16.3501 15.53 16.0601Z" fill="black"/>
<path d="M17.47 17.0601L15.47 19.0601C15.18 19.3501 15.18 19.8301 15.47 20.1201C15.62 20.2701 15.81 20.3401 16 20.3401C16.19 20.3401 16.38 20.2701 16.53 20.1201L18.53 18.1201C18.82 17.8301 18.82 17.3501 18.53 17.0601C18.24 16.7701 17.76 16.7701 17.47 17.0601Z" fill="black"/>
</svg>
