<svg width="24" height="24" viewBox="0 0 24 24" fill="none" xmlns="http://www.w3.org/2000/svg">
<path d="M21.18 13.1403L16.35 5.42025C15.6 4.21025 14.25 3.54025 12.83 3.67025L8.55 4.06025C7.83 4.13025 7.19 4.48025 6.74 4.99025C5.94 4.55025 5.17 4.04025 4.5 3.44025C4.17 3.15025 3.86 2.83025 3.56 2.50025C3.56 2.50025 3.55 2.50025 3.54 2.49025C3.5 2.45025 3.45 2.42025 3.4 2.39025C3.37 2.37025 3.34 2.34025 3.3 2.32025C3.26 2.30025 3.22 2.30025 3.17 2.29025C3.12 2.28025 3.07 2.26025 3.01 2.26025C3.01 2.26025 3 2.26025 2.99 2.26025C2.95 2.26025 2.92 2.28025 2.88 2.28025C2.83 2.28025 2.77 2.29025 2.72 2.31025C2.67 2.33025 2.62 2.36025 2.58 2.39025C2.55 2.41025 2.52 2.42025 2.49 2.44025C2.49 2.44025 2.49 2.45025 2.48 2.46025C2.44 2.50025 2.41 2.55025 2.38 2.60025C2.36 2.63025 2.33 2.66025 2.31 2.70025C2.29 2.74025 2.29 2.78025 2.28 2.83025C2.27 2.88025 2.25 2.93025 2.25 2.99025C2.25 2.99025 2.25 3.00025 2.25 3.01025V21.0003C2.25 21.4103 2.59 21.7503 3 21.7503C3.41 21.7503 3.75 21.4103 3.75 21.0003V4.77025C4.47 5.38025 5.25 5.92025 6.09 6.37025C6.09 6.43025 6.06 6.49025 6.06 6.55025L5.67 10.8303C5.54 12.2503 6.21 13.6003 7.42 14.3503L15.14 19.1803C15.76 19.5703 16.45 19.7503 17.13 19.7503C18.1 19.7503 19.05 19.3703 19.78 18.6503L20.65 17.7803C21.89 16.5403 22.11 14.6303 21.18 13.1403ZM19.59 16.7203L18.72 17.5903C17.97 18.3403 16.83 18.4703 15.94 17.9103L8.22 13.0803C7.5 12.6303 7.09 11.8203 7.17 10.9703L7.56 6.69025C7.56 6.58025 7.61 6.48025 7.64 6.38025C7.65 6.36025 7.67 6.35025 7.68 6.33025C7.7 6.30025 7.7 6.26025 7.71 6.22025C7.9 5.86025 8.26 5.60025 8.69 5.56025L12.97 5.17025C13.82 5.09025 14.63 5.49025 15.08 6.22025L19.91 13.9403C20.47 14.8303 20.34 15.9803 19.59 16.7203Z" fill="black"/>
<path d="M14.01 7.38025C14.17 7.00025 14 6.56025 13.61 6.40025C13.23 6.24025 12.79 6.41025 12.63 6.80025C12.27 7.65025 11.73 8.44025 11.08 9.09025C10.42 9.75025 9.65 10.2703 8.79 10.6403C8.41 10.8003 8.23 11.2403 8.39 11.6203C8.51 11.9103 8.79 12.0803 9.08 12.0803C9.18 12.0803 9.28 12.0603 9.37 12.0203C10.41 11.5803 11.34 10.9503 12.14 10.1503C12.94 9.35025 13.57 8.42025 14.01 7.38025Z" fill="black"/>
<path d="M15.76 9.94025C15.39 9.77025 14.94 9.93025 14.76 10.3103C14.51 10.8503 14.17 11.3403 13.75 11.7603C13.33 12.1803 12.84 12.5203 12.3 12.7703C11.92 12.9403 11.76 13.3903 11.93 13.7703C12.06 14.0403 12.33 14.2103 12.61 14.2103C12.72 14.2103 12.82 14.1903 12.92 14.1403C13.62 13.8203 14.26 13.3703 14.8 12.8303C15.34 12.2903 15.79 11.6503 16.11 10.9503C16.28 10.5703 16.11 10.1303 15.74 9.95025L15.76 9.94025Z" fill="black"/>
<path d="M17.04 13.6203L15.63 15.0303C15.34 15.3203 15.34 15.8003 15.63 16.0903C15.78 16.2403 15.97 16.3103 16.16 16.3103C16.35 16.3103 16.54 16.2403 16.69 16.0903L18.1 14.6803C18.39 14.3903 18.39 13.9103 18.1 13.6203C17.81 13.3303 17.33 13.3303 17.04 13.6203Z" fill="black"/>
</svg>
