<svg width="24" height="24" viewBox="0 0 24 24" fill="none" xmlns="http://www.w3.org/2000/svg">
<path d="M21 14.25H4.5C3.26 14.25 2.25 15.26 2.25 16.5C2.25 17.74 3.26 18.75 4.5 18.75H16.5C16.91 18.75 17.25 19.09 17.25 19.5C17.25 19.91 16.91 20.25 16.5 20.25H9C8.59 20.25 8.25 20.59 8.25 21C8.25 21.41 8.59 21.75 9 21.75H16.5C17.74 21.75 18.75 20.74 18.75 19.5C18.75 18.26 17.74 17.25 16.5 17.25H4.5C4.09 17.25 3.75 16.91 3.75 16.5C3.75 16.09 4.09 15.75 4.5 15.75H21C21.41 15.75 21.75 15.41 21.75 15C21.75 14.59 21.41 14.25 21 14.25Z" fill="black"/>
<path d="M12 5.75C12.41 5.75 12.75 5.41 12.75 5V4C12.75 3.59 12.41 3.25 12 3.25C11.59 3.25 11.25 3.59 11.25 4V5C11.25 5.41 11.59 5.75 12 5.75Z" fill="black"/>
<path d="M6.47 7.53C6.62 7.68 6.81 7.75 7 7.75C7.19 7.75 7.38 7.68 7.53 7.53C7.82 7.24 7.82 6.76 7.53 6.47L6.82 5.76C6.53 5.47 6.05 5.47 5.76 5.76C5.47 6.05 5.47 6.53 5.76 6.82L6.47 7.53Z" fill="black"/>
<path d="M17 7.75C17.19 7.75 17.38 7.68 17.53 7.53L18.24 6.82C18.53 6.53 18.53 6.05 18.24 5.76C17.95 5.47 17.47 5.47 17.18 5.76L16.47 6.47C16.18 6.76 16.18 7.24 16.47 7.53C16.62 7.68 16.81 7.75 17 7.75Z" fill="black"/>
<path d="M20 11.75H21C21.41 11.75 21.75 11.41 21.75 11C21.75 10.59 21.41 10.25 21 10.25H20C19.59 10.25 19.25 10.59 19.25 11C19.25 11.41 19.59 11.75 20 11.75Z" fill="black"/>
<path d="M3 11.75H4C4.41 11.75 4.75 11.41 4.75 11C4.75 10.59 4.41 10.25 4 10.25H3C2.59 10.25 2.25 10.59 2.25 11C2.25 11.41 2.59 11.75 3 11.75Z" fill="black"/>
<path d="M12 7.25C8.73 7.25 5.97 9.56 5.38 12.75H18.63C18.03 9.56 15.27 7.25 12.01 7.25H12Z" fill="black"/>
</svg>
