<svg width="24" height="24" viewBox="0 0 24 24" fill="none" xmlns="http://www.w3.org/2000/svg">
<path d="M11.9999 6.01025C12.4099 6.01025 12.7499 5.67025 12.7499 5.26025V3.26025C12.7499 2.85025 12.4099 2.51025 11.9999 2.51025C11.5899 2.51025 11.2499 2.85025 11.2499 3.26025V5.26025C11.2499 5.67025 11.5899 6.01025 11.9999 6.01025Z" fill="black"/>
<path d="M14.9999 7.01025C15.4099 7.01025 15.7499 6.67025 15.7499 6.26025V3.26025C15.7499 2.85025 15.4099 2.51025 14.9999 2.51025C14.5899 2.51025 14.2499 2.85025 14.2499 3.26025V6.26025C14.2499 6.67025 14.5899 7.01025 14.9999 7.01025Z" fill="black"/>
<path d="M17.9999 9.01025C18.4099 9.01025 18.7499 8.67025 18.7499 8.26025V3.26025C18.7499 2.85025 18.4099 2.51025 17.9999 2.51025C17.5899 2.51025 17.2499 2.85025 17.2499 3.26025V8.26025C17.2499 8.67025 17.5899 9.01025 17.9999 9.01025Z" fill="black"/>
<path d="M8.99994 7.01025C9.40994 7.01025 9.74994 6.67025 9.74994 6.26025V3.26025C9.74994 2.85025 9.40994 2.51025 8.99994 2.51025C8.58994 2.51025 8.24994 2.85025 8.24994 3.26025V6.26025C8.24994 6.67025 8.58994 7.01025 8.99994 7.01025Z" fill="black"/>
<path d="M5.99994 9.01025C6.40994 9.01025 6.74994 8.67025 6.74994 8.26025V3.26025C6.74994 2.85025 6.40994 2.51025 5.99994 2.51025C5.58994 2.51025 5.24994 2.85025 5.24994 3.26025V8.26025C5.24994 8.67025 5.58994 9.01025 5.99994 9.01025Z" fill="black"/>
<path d="M19.3599 14.7803L19.0999 13.8603C18.2699 10.9503 15.7199 8.88025 12.7599 8.57025V8.26025C12.7599 7.85025 12.4199 7.51025 12.0099 7.51025C11.5999 7.51025 11.2599 7.85025 11.2599 8.26025V8.57025C8.29994 8.88025 5.74994 10.9503 4.91994 13.8603L4.65994 14.7803C4.50994 15.3103 4.60994 15.8703 4.94994 16.3103C5.27994 16.7503 5.78994 17.0103 6.34994 17.0103H11.2699V19.7603C11.2699 20.1703 10.9299 20.5103 10.5199 20.5103C10.1099 20.5103 9.76994 20.1703 9.76994 19.7603C9.76994 19.3503 9.42994 19.0103 9.01994 19.0103C8.60994 19.0103 8.26994 19.3503 8.26994 19.7603C8.26994 21.0003 9.27994 22.0103 10.5199 22.0103C11.7599 22.0103 12.7699 21.0003 12.7699 19.7603V17.0103H17.6899C18.2399 17.0103 18.7499 16.7603 19.0899 16.3103C19.4199 15.8703 19.5299 15.3103 19.3799 14.7803H19.3599ZM11.2999 12.7203C10.8999 13.2403 10.6099 13.8203 10.4299 14.4603C10.3399 14.7903 10.0399 15.0103 9.70994 15.0103C9.63994 15.0103 9.57994 15.0103 9.50994 14.9803C9.10994 14.8703 8.87994 14.4603 8.98994 14.0603C9.21994 13.2303 9.59994 12.4703 10.1199 11.8003C10.3699 11.4703 10.8499 11.4103 11.1699 11.6703C11.4999 11.9203 11.5599 12.4003 11.2999 12.7203ZM14.4699 14.9803C14.3999 15.0003 14.3399 15.0103 14.2699 15.0103C13.9399 15.0103 13.6399 14.7903 13.5499 14.4603C13.3699 13.8203 13.0799 13.2303 12.6799 12.7203C12.4299 12.3903 12.4899 11.9203 12.8099 11.6703C13.1399 11.4203 13.6099 11.4803 13.8599 11.8003C14.3799 12.4703 14.7599 13.2303 14.9899 14.0603C15.0999 14.4603 14.8699 14.8703 14.4699 14.9803Z" fill="black"/>
</svg>
