<svg width="24" height="24" viewBox="0 0 24 24" fill="none" xmlns="http://www.w3.org/2000/svg">
<path d="M15.71 14.1803C15.08 12.4203 13.85 11.6303 13.35 11.3703C13.13 11.2603 12.87 11.2603 12.66 11.3703C12.16 11.6303 10.93 12.4303 10.3 14.1803L10.25 14.3303C9.89 15.4303 10.07 16.6403 10.74 17.5603C11.3 18.3303 12.13 18.7803 13 18.7803C13.87 18.7803 14.7 18.3403 15.26 17.5603C15.93 16.6403 16.11 15.4303 15.75 14.3303L15.7 14.1803H15.71Z" fill="black"/>
<path d="M18.63 9.29027C18.05 6.39027 15.53 4.28027 12.5 4.28027C9.89 4.28027 7.57 5.93027 6.67 8.34027C6.45 8.30027 6.23 8.28027 6 8.28027C3.93 8.28027 2.25 9.96027 2.25 12.0303C2.25 14.1003 3.93 15.7803 6 15.7803H8.58C8.54 15.1403 8.61 14.4903 8.82 13.8603L8.88 13.6903C9.69 11.4103 11.31 10.3703 11.97 10.0303C12.29 9.86027 12.65 9.78027 13.01 9.78027C13.37 9.78027 13.73 9.87027 14.05 10.0403C14.71 10.3803 16.32 11.4203 17.13 13.6803L17.19 13.8503C17.4 14.4803 17.47 15.1403 17.43 15.7803H18.51C20.3 15.7803 21.76 14.3203 21.76 12.5303C21.76 10.7403 20.37 9.36027 18.64 9.29027H18.63Z" fill="black"/>
</svg>
