<svg width="24" height="24" viewBox="0 0 24 24" fill="none" xmlns="http://www.w3.org/2000/svg">
<path d="M15.59 11.2903C16.18 11.5803 16.83 11.7403 17.49 11.7503C19.12 11.7503 20.63 10.8003 21.33 9.32025C21.45 9.07025 21.42 8.77025 21.25 8.55025C21.08 8.33025 20.8 8.22025 20.53 8.26025C19.6 8.42025 18.68 8.07025 18.14 7.36025C17.51 6.53025 17.5 5.33025 18.11 4.43025C18.27 4.20025 18.28 3.90025 18.15 3.66025C18.02 3.41025 17.76 3.26025 17.49 3.26025C15.15 3.26025 13.24 5.17025 13.24 7.51025C13.24 8.33025 13.48 9.13025 13.93 9.82025C14.22 10.2603 14.74 10.8703 15.59 11.3003V11.2903Z" fill="black"/>
<path d="M18.63 13.2603C18.63 13.2603 18.6 13.1703 18.59 13.1303C18.23 13.2003 17.87 13.2503 17.5 13.2503C16.6 13.2503 15.71 13.0303 14.92 12.6303C13.78 12.0603 13.07 11.2303 12.68 10.6303C12.22 9.92025 11.92 9.12025 11.81 8.30025C9.49 8.56025 7.49 10.1103 6.67 12.3103C6.45 12.2703 6.23 12.2503 6 12.2503C3.93 12.2503 2.25 13.9303 2.25 16.0003C2.25 18.0703 3.93 19.7503 6 19.7503H18.5C20.29 19.7503 21.75 18.2903 21.75 16.5003C21.75 14.7103 20.36 13.3303 18.63 13.2603Z" fill="black"/>
</svg>
