<svg width="24" height="24" viewBox="0 0 24 24" fill="none" xmlns="http://www.w3.org/2000/svg">
<path d="M19.3599 14.7803L19.0999 13.8603C18.2699 10.9503 15.7199 8.88025 12.7599 8.57025V8.26025C12.7599 7.85025 12.4199 7.51025 12.0099 7.51025C11.5999 7.51025 11.2599 7.85025 11.2599 8.26025V8.57025C8.29994 8.88025 5.74994 10.9503 4.91994 13.8603L4.65994 14.7803C4.50994 15.3103 4.60994 15.8703 4.94994 16.3103C5.27994 16.7503 5.78994 17.0103 6.34994 17.0103H11.2699V19.7603C11.2699 20.1703 10.9299 20.5103 10.5199 20.5103C10.1099 20.5103 9.76994 20.1703 9.76994 19.7603C9.76994 19.3503 9.42994 19.0103 9.01994 19.0103C8.60994 19.0103 8.26994 19.3503 8.26994 19.7603C8.26994 21.0003 9.27994 22.0103 10.5199 22.0103C11.7599 22.0103 12.7699 21.0003 12.7699 19.7603V17.0103H17.6899C18.2399 17.0103 18.7499 16.7603 19.0899 16.3103C19.4199 15.8703 19.5299 15.3103 19.3799 14.7803H19.3599ZM17.8799 15.4103C17.8799 15.4103 17.7899 15.5103 17.6799 15.5103H6.32994C6.21994 15.5103 6.15994 15.4503 6.12994 15.4103C6.09994 15.3703 6.05994 15.3003 6.08994 15.1903L6.34994 14.2703C7.06994 11.7603 9.38994 10.0103 11.9999 10.0103C14.6099 10.0103 16.9399 11.7603 17.6499 14.2703L17.9099 15.1903C17.9399 15.2903 17.8999 15.3703 17.8699 15.4103H17.8799Z" fill="black"/>
<path d="M11.9999 6.01025C12.4099 6.01025 12.7499 5.67025 12.7499 5.26025V3.26025C12.7499 2.85025 12.4099 2.51025 11.9999 2.51025C11.5899 2.51025 11.2499 2.85025 11.2499 3.26025V5.26025C11.2499 5.67025 11.5899 6.01025 11.9999 6.01025Z" fill="black"/>
<path d="M14.9999 7.01025C15.4099 7.01025 15.7499 6.67025 15.7499 6.26025V3.26025C15.7499 2.85025 15.4099 2.51025 14.9999 2.51025C14.5899 2.51025 14.2499 2.85025 14.2499 3.26025V6.26025C14.2499 6.67025 14.5899 7.01025 14.9999 7.01025Z" fill="black"/>
<path d="M17.9999 9.01025C18.4099 9.01025 18.7499 8.67025 18.7499 8.26025V3.26025C18.7499 2.85025 18.4099 2.51025 17.9999 2.51025C17.5899 2.51025 17.2499 2.85025 17.2499 3.26025V8.26025C17.2499 8.67025 17.5899 9.01025 17.9999 9.01025Z" fill="black"/>
<path d="M8.99994 7.01025C9.40994 7.01025 9.74994 6.67025 9.74994 6.26025V3.26025C9.74994 2.85025 9.40994 2.51025 8.99994 2.51025C8.58994 2.51025 8.24994 2.85025 8.24994 3.26025V6.26025C8.24994 6.67025 8.58994 7.01025 8.99994 7.01025Z" fill="black"/>
<path d="M5.99994 9.01025C6.40994 9.01025 6.74994 8.67025 6.74994 8.26025V3.26025C6.74994 2.85025 6.40994 2.51025 5.99994 2.51025C5.58994 2.51025 5.24994 2.85025 5.24994 3.26025V8.26025C5.24994 8.67025 5.58994 9.01025 5.99994 9.01025Z" fill="black"/>
<path d="M10.1099 11.8003C9.58994 12.4703 9.20994 13.2303 8.97994 14.0603C8.86994 14.4603 9.09994 14.8703 9.49994 14.9803C9.56994 15.0003 9.62994 15.0103 9.69994 15.0103C10.0299 15.0103 10.3299 14.7903 10.4199 14.4603C10.5999 13.8203 10.8899 13.2403 11.2899 12.7203C11.5399 12.3903 11.4799 11.9203 11.1599 11.6703C10.8299 11.4203 10.3599 11.4803 10.1099 11.8003Z" fill="black"/>
<path d="M13.8599 11.8003C13.6099 11.4703 13.1299 11.4103 12.8099 11.6703C12.4799 11.9203 12.4199 12.4003 12.6799 12.7203C13.0799 13.2303 13.3699 13.8203 13.5499 14.4603C13.6399 14.7903 13.9399 15.0103 14.2699 15.0103C14.3399 15.0103 14.3999 15.0103 14.4699 14.9803C14.8699 14.8703 15.0999 14.4603 14.9899 14.0603C14.7599 13.2303 14.3799 12.4703 13.8599 11.8003Z" fill="black"/>
</svg>
