<svg width="24" height="24" viewBox="0 0 24 24" fill="none" xmlns="http://www.w3.org/2000/svg">
<path d="M21.6899 15.51C21.4899 15.28 21.1799 15.2 20.8899 15.29C17.8299 16.31 14.4599 15.2 12.6799 12.58C10.7799 9.78 11.1699 5.98 13.5899 3.53C13.7999 3.32 13.8699 2.99 13.7499 2.71C13.6299 2.43 13.3599 2.25 13.0599 2.25C7.67994 2.25 3.30994 6.62 3.30994 12C3.30994 17.38 7.67994 21.75 13.0599 21.75C16.7899 21.75 20.1399 19.67 21.7999 16.33C21.9299 16.06 21.8899 15.73 21.6899 15.5V15.51ZM13.0599 20.25C8.50994 20.25 4.80994 16.55 4.80994 12C4.80994 8.03 7.62994 4.71 11.3599 3.93C9.51994 6.81 9.48994 10.55 11.4399 13.43C13.2399 16.09 16.3899 17.46 19.5399 17.12C17.9999 19.09 15.6299 20.26 13.0599 20.26V20.25Z" fill="black"/>
</svg>
