<svg width="24" height="24" viewBox="0 0 24 24" fill="none" xmlns="http://www.w3.org/2000/svg">
<path d="M19.92 15.69C19.34 16.08 18.67 16.27 18 16.27C17.33 16.27 16.67 16.08 16.08 15.69C15.42 15.25 14.57 15.25 13.91 15.69C12.75 16.47 11.24 16.47 10.08 15.69C9.42 15.25 8.57 15.25 7.91 15.69C6.75 16.47 5.24 16.47 4.08 15.69L2.77 14.82H2.25V16C2.25 16.11 2.26 16.21 2.27 16.32H3C3.15 16.32 3.29 16.36 3.42 16.45L4.92 17.45C5.58 17.89 6.43 17.89 7.09 17.45C8.25 16.67 9.76 16.67 10.92 17.45C11.58 17.89 12.43 17.89 13.09 17.45C14.25 16.67 15.76 16.67 16.92 17.45C17.58 17.89 18.43 17.89 19.09 17.45L20.59 16.45C20.71 16.37 20.86 16.32 21.01 16.32H21.74C21.74 16.21 21.76 16.11 21.76 16V14.82H21.24L19.93 15.69H19.92Z" fill="black"/>
<path d="M19.92 12.62C19.34 13.01 18.67 13.2 18 13.2C17.33 13.2 16.67 13.01 16.08 12.62C15.42 12.18 14.57 12.18 13.91 12.62C12.75 13.4 11.24 13.4 10.08 12.62C9.42 12.18 8.57 12.18 7.91 12.62C6.75 13.4 5.24 13.4 4.08 12.62L2.77 11.75H2.25V13.32H3C3.15 13.32 3.29 13.36 3.42 13.45L4.92 14.45C5.58 14.89 6.43 14.89 7.09 14.45C8.25 13.67 9.76 13.67 10.92 14.45C11.58 14.89 12.43 14.89 13.09 14.45C14.25 13.67 15.76 13.67 16.92 14.45C17.58 14.89 18.43 14.89 19.09 14.45L20.59 13.45C20.71 13.37 20.86 13.32 21.01 13.32H21.76V11.75H21.24L19.93 12.62H19.92Z" fill="black"/>
<path d="M8 2.25C4.83 2.25 2.25 4.83 2.25 8V10.25H3C3.15 10.25 3.29 10.29 3.42 10.38L4.92 11.38C5.58 11.82 6.43 11.82 7.09 11.38C8.25 10.6 9.76 10.6 10.92 11.38C11.58 11.82 12.43 11.82 13.09 11.38C14.25 10.6 15.76 10.6 16.92 11.38C17.58 11.82 18.43 11.82 19.09 11.38L20.59 10.38C20.71 10.3 20.86 10.25 21.01 10.25H21.76V8C21.76 4.83 19.18 2.25 16.01 2.25H8ZM14.53 7.28C14.38 7.43 14.19 7.5 14 7.5C13.81 7.5 13.62 7.43 13.47 7.28L12.75 6.56V8.75C12.75 9.16 12.41 9.5 12 9.5C11.59 9.5 11.25 9.16 11.25 8.75V6.56L10.53 7.28C10.24 7.57 9.76 7.57 9.47 7.28C9.18 6.99 9.18 6.51 9.47 6.22L11.47 4.22C11.76 3.93 12.24 3.93 12.53 4.22L14.53 6.22C14.82 6.51 14.82 6.99 14.53 7.28Z" fill="black"/>
<path d="M19.92 18.69C19.34 19.08 18.67 19.27 18 19.27C17.33 19.27 16.67 19.08 16.08 18.69C15.42 18.25 14.57 18.25 13.91 18.69C12.75 19.47 11.24 19.47 10.08 18.69C9.42 18.25 8.57 18.25 7.91 18.69C6.75 19.47 5.24 19.47 4.08 18.69L2.77 17.82H2.55C3.31 20.1 5.47 21.75 8 21.75H16C18.53 21.75 20.69 20.1 21.45 17.82H21.23L19.92 18.69Z" fill="black"/>
</svg>
