<svg width="24" height="24" viewBox="0 0 24 24" fill="none" xmlns="http://www.w3.org/2000/svg">
<path d="M18.63 13.2903C18.37 11.9603 17.69 10.7903 16.74 9.92027C16.74 9.79027 16.75 9.66027 16.75 9.53027C16.75 5.53027 13.5 2.28027 9.5 2.28027C5.5 2.28027 2.25 5.53027 2.25 9.53027C2.25 10.9103 2.65 12.2103 3.37 13.3603C2.68 14.0403 2.25 14.9803 2.25 16.0303C2.25 18.1003 3.93 19.7803 6 19.7803H18.5C20.29 19.7803 21.75 18.3203 21.75 16.5303C21.75 14.7403 20.36 13.3603 18.63 13.2903ZM3.75 9.53027C3.75 6.36027 6.33 3.78027 9.5 3.78027C12.46 3.78027 14.9 6.02027 15.21 8.89027C14.39 8.50027 13.47 8.28027 12.5 8.28027C9.89 8.28027 7.57 9.93027 6.67 12.3403C6.45 12.3003 6.23 12.2803 6 12.2803C5.51 12.2803 5.05 12.3803 4.63 12.5503C4.07 11.6403 3.75 10.6203 3.75 9.53027ZM18.5 18.2803H6C4.76 18.2803 3.75 17.2703 3.75 16.0303C3.75 14.7903 4.76 13.7803 6 13.7803C6.26 13.7803 6.51 13.8203 6.75 13.9103C7.05 14.0203 7.37 13.9103 7.57 13.6903C7.74 13.6003 7.88 13.4403 7.93 13.2403C8.51 11.2103 10.39 9.79027 12.5 9.79027C14.97 9.79027 17.01 11.6503 17.23 14.1103C17.27 14.5003 17.59 14.7903 17.98 14.7903C18 14.7903 18.03 14.7903 18.05 14.7903C18.11 14.7903 18.17 14.7603 18.23 14.7403C18.32 14.7703 18.41 14.8003 18.51 14.8003C19.47 14.8003 20.26 15.5903 20.26 16.5503C20.26 17.5103 19.47 18.3003 18.51 18.3003L18.5 18.2803Z" fill="black"/>
</svg>
