<svg width="24" height="24" viewBox="0 0 24 24" fill="none" xmlns="http://www.w3.org/2000/svg">
<path d="M18.63 13.2903C18.05 10.3903 15.53 8.28027 12.5 8.28027C9.89 8.28027 7.57 9.93027 6.67 12.3403C6.45 12.3003 6.23 12.2803 6 12.2803C3.93 12.2803 2.25 13.9603 2.25 16.0303C2.25 18.1003 3.93 19.7803 6 19.7803H18.5C20.29 19.7803 21.75 18.3203 21.75 16.5303C21.75 14.7403 20.36 13.3603 18.63 13.2903Z" fill="black"/>
<path d="M5.74 10.7903C7.09 8.36027 9.68 6.78027 12.5 6.78027C13.99 6.78027 15.38 7.22027 16.58 7.97027C15.86 4.72027 12.97 2.28027 9.5 2.28027C5.5 2.28027 2.25 5.53027 2.25 9.53027C2.25 10.3803 2.4 11.2103 2.68 11.9903C3.52 11.3003 4.57 10.8503 5.73 10.7903H5.74Z" fill="black"/>
</svg>
