<svg width="24" height="24" viewBox="0 0 24 24" fill="none" xmlns="http://www.w3.org/2000/svg">
<path d="M15.56 2.93C15.56 2.93 15.52 2.92 15.5 2.91C14.41 2.49 13.23 2.25 12 2.25C6.62 2.25 2.25 6.62 2.25 12C2.25 17.38 6.62 21.75 12 21.75C17.38 21.75 21.75 17.38 21.75 12C21.75 7.88 19.18 4.36 15.56 2.93ZM3.75 12C3.75 7.45 7.45 3.75 12 3.75C12.59 3.75 13.16 3.81 13.71 3.93C12.22 5.44 10.25 8.16 10.25 12C10.25 15.84 12.13 18.49 13.71 20.07C13.16 20.19 12.59 20.25 12 20.25C7.45 20.25 3.75 16.55 3.75 12ZM15.34 19.54C13.9 18.27 11.75 15.77 11.75 12C11.75 8.23 13.86 5.75 15.33 4.46C18.22 5.74 20.25 8.64 20.25 12C20.25 15.36 18.23 18.25 15.34 19.54Z" fill="black"/>
</svg>
