<svg width="24" height="24" viewBox="0 0 24 24" fill="none" xmlns="http://www.w3.org/2000/svg">
<path d="M20.61 12.05C21.33 11.01 21.75 9.77 21.75 8.5C21.75 5.05 18.95 2.25 15.5 2.25C12.72 2.25 10.24 4.12 9.49 6.8C9.47 6.89 9.46 6.97 9.47 7.05C8.2 7.76 7.2 8.91 6.67 10.31C6.45 10.27 6.23 10.25 6 10.25C3.93 10.25 2.25 11.93 2.25 14C2.25 16.07 3.93 17.75 6 17.75H18.5C20.29 17.75 21.75 16.29 21.75 14.5C21.75 13.52 21.3 12.65 20.61 12.05ZM15.5 3.75C18.12 3.75 20.25 5.88 20.25 8.5C20.25 9.53 19.9 10.53 19.28 11.36C19.07 11.31 18.85 11.28 18.63 11.27C18.06 8.37 15.53 6.26 12.5 6.26C12.07 6.26 11.66 6.32 11.25 6.4C12.04 4.81 13.68 3.76 15.5 3.76V3.75ZM18.5 16.25H6C4.76 16.25 3.75 15.24 3.75 14C3.75 12.76 4.76 11.75 6 11.75C6.26 11.75 6.51 11.79 6.75 11.88C7.05 11.99 7.37 11.88 7.57 11.66C7.74 11.57 7.88 11.41 7.93 11.21C8.51 9.18 10.39 7.76 12.5 7.76C14.98 7.76 17.01 9.62 17.23 12.08C17.27 12.47 17.59 12.76 17.98 12.76C18 12.76 18.03 12.76 18.05 12.76C18.11 12.76 18.17 12.73 18.23 12.71C18.32 12.74 18.41 12.77 18.51 12.77C19.47 12.77 20.26 13.56 20.26 14.52C20.26 15.48 19.47 16.27 18.51 16.27L18.5 16.25Z" fill="black"/>
<path d="M10.47 19.47L9.47 20.47C9.18 20.76 9.18 21.24 9.47 21.53C9.62 21.68 9.81 21.75 10 21.75C10.19 21.75 10.38 21.68 10.53 21.53L11.53 20.53C11.82 20.24 11.82 19.76 11.53 19.47C11.24 19.18 10.76 19.18 10.47 19.47Z" fill="black"/>
<path d="M7.47 18.47L5.47 20.47C5.18 20.76 5.18 21.24 5.47 21.53C5.62 21.68 5.81 21.75 6 21.75C6.19 21.75 6.38 21.68 6.53 21.53L8.53 19.53C8.82 19.24 8.82 18.76 8.53 18.47C8.24 18.18 7.76 18.18 7.47 18.47Z" fill="black"/>
<path d="M14.47 18.47L13.47 19.47C13.18 19.76 13.18 20.24 13.47 20.53C13.62 20.68 13.81 20.75 14 20.75C14.19 20.75 14.38 20.68 14.53 20.53L15.53 19.53C15.82 19.24 15.82 18.76 15.53 18.47C15.24 18.18 14.76 18.18 14.47 18.47Z" fill="black"/>
<path d="M17.47 19.47L16.47 20.47C16.18 20.76 16.18 21.24 16.47 21.53C16.62 21.68 16.81 21.75 17 21.75C17.19 21.75 17.38 21.68 17.53 21.53L18.53 20.53C18.82 20.24 18.82 19.76 18.53 19.47C18.24 19.18 17.76 19.18 17.47 19.47Z" fill="black"/>
</svg>
