<svg width="24" height="24" viewBox="0 0 24 24" fill="none" xmlns="http://www.w3.org/2000/svg">
<path d="M18.63 11.2597C18.06 8.35975 15.53 6.24975 12.5 6.24975C9.89 6.24975 7.57 7.89975 6.67 10.3097C6.45 10.2697 6.23 10.2497 6 10.2497C3.93 10.2497 2.25 11.9297 2.25 13.9997C2.25 16.0697 3.93 17.7497 6 17.7497H18.5C20.29 17.7497 21.75 16.2897 21.75 14.4997C21.75 12.7097 20.36 11.3297 18.63 11.2597Z" fill="black"/>
<path d="M10.47 19.4697L9.47 20.4697C9.18 20.7597 9.18 21.2397 9.47 21.5297C9.62 21.6797 9.81 21.7497 10 21.7497C10.19 21.7497 10.38 21.6797 10.53 21.5297L11.53 20.5297C11.82 20.2397 11.82 19.7597 11.53 19.4697C11.24 19.1797 10.76 19.1797 10.47 19.4697Z" fill="black"/>
<path d="M7.47 18.4697L5.47 20.4697C5.18 20.7597 5.18 21.2397 5.47 21.5297C5.62 21.6797 5.81 21.7497 6 21.7497C6.19 21.7497 6.38 21.6797 6.53 21.5297L8.53 19.5297C8.82 19.2397 8.82 18.7597 8.53 18.4697C8.24 18.1797 7.76 18.1797 7.47 18.4697Z" fill="black"/>
<path d="M14.47 18.4697L13.47 19.4697C13.18 19.7597 13.18 20.2397 13.47 20.5297C13.62 20.6797 13.81 20.7497 14 20.7497C14.19 20.7497 14.38 20.6797 14.53 20.5297L15.53 19.5297C15.82 19.2397 15.82 18.7597 15.53 18.4697C15.24 18.1797 14.76 18.1797 14.47 18.4697Z" fill="black"/>
<path d="M17.47 19.4697L16.47 20.4697C16.18 20.7597 16.18 21.2397 16.47 21.5297C16.62 21.6797 16.81 21.7497 17 21.7497C17.19 21.7497 17.38 21.6797 17.53 21.5297L18.53 20.5297C18.82 20.2397 18.82 19.7597 18.53 19.4697C18.24 19.1797 17.76 19.1797 17.47 19.4697Z" fill="black"/>
<path d="M19.82 9.93975C20.38 10.0997 20.89 10.3697 21.34 10.6997C21.61 9.99975 21.75 9.24975 21.75 8.48975C21.75 5.03975 18.95 2.23975 15.5 2.23975C13.36 2.23975 11.41 3.34975 10.27 5.07975C10.98 4.85975 11.73 4.73975 12.5 4.73975C15.83 4.73975 18.75 6.86975 19.82 9.92975V9.93975Z" fill="black"/>
</svg>
