<svg width="24" height="24" viewBox="0 0 24 24" fill="none" xmlns="http://www.w3.org/2000/svg">
<path d="M12 1.97998C6.62 1.97998 2.25 6.34998 2.25 11.73C2.25 17.11 6.62 21.48 12 21.48C17.38 21.48 21.75 17.11 21.75 11.73C21.75 6.34998 17.38 1.97998 12 1.97998ZM8.02 8.47998C7.61 8.47998 7.27 8.13998 7.27 7.72998C7.27 7.31998 7.6 6.97998 8.01 6.97998H8.02C8.43 6.97998 8.77 7.31998 8.77 7.72998C8.77 8.13998 8.43 8.47998 8.02 8.47998ZM15 11.98C15.41 11.98 15.75 12.32 15.75 12.73C15.75 13.14 15.41 13.48 15 13.48H10.75V16.73C10.75 17.14 10.41 17.48 10 17.48C9.59 17.48 9.25 17.14 9.25 16.73V8.72998C9.25 8.31998 9.59 7.97998 10 7.97998H15C15.41 7.97998 15.75 8.31998 15.75 8.72998C15.75 9.13998 15.41 9.47998 15 9.47998H10.75V11.98H15Z" fill="black"/>
</svg>
