<svg width="24" height="24" viewBox="0 0 24 24" fill="none" xmlns="http://www.w3.org/2000/svg">
<path d="M10.25 12.0003C10.25 7.17027 13.38 4.10027 14.72 3.01027L15.04 2.75027C14.08 2.43027 13.06 2.26027 11.99 2.26027C6.62 2.25027 2.25 6.62027 2.25 12.0003C2.25 17.3803 6.62 21.7503 12 21.7503C13.04 21.7503 14.04 21.5803 14.98 21.2803L14.56 20.8603C12.98 19.5503 10.24 16.5903 10.24 12.0003H10.25Z" fill="black"/>
<path d="M16.61 3.41027L15.67 4.17027C14.21 5.36027 11.75 7.96027 11.75 12.0003C11.75 16.0403 14.15 18.5603 15.58 19.7503L16.48 20.6503C19.61 19.0303 21.76 15.7603 21.76 12.0003C21.76 8.24027 19.68 5.06027 16.62 3.41027H16.61Z" fill="black"/>
</svg>
