<svg width="24" height="24" viewBox="0 0 24 24" fill="none" xmlns="http://www.w3.org/2000/svg">
<path d="M12 7.25C6.62 7.25 2.25 11.62 2.25 17C2.25 17.41 2.59 17.75 3 17.75C3.41 17.75 3.75 17.41 3.75 17C3.75 12.45 7.45 8.75 12 8.75C16.55 8.75 20.25 12.45 20.25 17C20.25 17.41 20.59 17.75 21 17.75C21.41 17.75 21.75 17.41 21.75 17C21.75 11.62 17.38 7.25 12 7.25Z" fill="black"/>
<path d="M12 10.25C8.28 10.25 5.25 13.28 5.25 17C5.25 17.41 5.59 17.75 6 17.75C6.41 17.75 6.75 17.41 6.75 17C6.75 14.11 9.11 11.75 12 11.75C14.89 11.75 17.25 14.11 17.25 17C17.25 17.41 17.59 17.75 18 17.75C18.41 17.75 18.75 17.41 18.75 17C18.75 13.28 15.72 10.25 12 10.25Z" fill="black"/>
<path d="M12 13.25C9.93 13.25 8.25 14.93 8.25 17C8.25 17.41 8.59 17.75 9 17.75C9.41 17.75 9.75 17.41 9.75 17C9.75 15.76 10.76 14.75 12 14.75C13.24 14.75 14.25 15.76 14.25 17C14.25 17.41 14.59 17.75 15 17.75C15.41 17.75 15.75 17.41 15.75 17C15.75 14.93 14.07 13.25 12 13.25Z" fill="black"/>
</svg>
